<svg width="80" height="80" viewBox="0 0 80 80" fill="none" xmlns="http://www.w3.org/2000/svg">
<circle cx="40" cy="40" r="40" fill="url(#paint0_linear)"/>
<path d="M17.4563 48.9423L19.5299 49.6072V55.8649C19.5321 58.5135 21.7402 60.6602 24.4644 60.6645H30.976L32.2576 65.0567C32.776 66.7873 34.6312 67.7911 36.4201 67.3064L56.7208 61.6465C58.5009 61.1426 59.5333 59.3368 59.0348 57.5997L56.2509 48.1181C59.9811 44.0648 61.8737 38.7227 61.5031 33.2946C61.1722 28.1196 58.8274 23.2601 54.9497 19.7019C51.0696 16.1419 45.9432 14.1497 40.609 14.1283H40.5473C34.9752 14.1283 29.6326 16.2815 25.6927 20.1099C21.7529 23.9402 19.5402 29.1363 19.5402 34.5518C19.5424 35.6584 19.3042 36.75 18.8387 37.758L15.5917 44.8414C15.2343 45.6221 15.2321 46.5143 15.5873 47.297C15.9424 48.0798 16.6196 48.6782 17.4556 48.9484L17.4563 48.9423ZM18.1688 45.9549L21.4048 38.8989V38.9011C22.0313 37.5414 22.3534 36.0702 22.3534 34.5797C22.3534 29.8915 24.2681 25.3946 27.6784 22.0785C31.0887 18.7629 35.7141 16.9014 40.5367 16.9014H40.5875C45.3654 16.9057 49.9492 18.7372 53.3487 22.0034C56.7479 25.2675 58.6891 29.7023 58.7509 34.3476C58.8105 38.9928 56.9884 43.475 53.6774 46.823C53.3288 47.1747 53.2009 47.6808 53.3376 48.1526L56.32 58.3523C56.3972 58.6376 56.2273 58.9314 55.9361 59.0171L35.6463 64.6446C35.3595 64.7132 35.0661 64.5545 34.9735 64.2821L33.3985 58.9013C33.2242 58.3137 32.6727 57.9084 32.0441 57.9084H24.4646C23.2977 57.9084 22.3535 56.9883 22.3535 55.8538V48.6177C22.3513 48.028 21.9631 47.5026 21.3874 47.316L18.3499 46.338V46.3402C18.2727 46.3144 18.2087 46.2608 18.1756 46.1879C18.1425 46.115 18.1403 46.0335 18.1734 45.9606L18.1688 45.9549ZM34.3798 30.282C34.3953 27.5606 36.4203 25.2422 39.1798 24.7918V23.3592C39.1798 22.6001 39.8129 21.9867 40.5916 21.9867C41.3724 21.9867 42.0033 22.6001 42.0033 23.3592V24.7983V24.7961C43.5739 25.1521 44.9416 26.0872 45.8151 27.404C46.2144 28.0409 46.0202 28.8688 45.3761 29.2719C44.732 29.6772 43.8762 29.5078 43.4438 28.8923C42.8261 27.9573 41.7651 27.3868 40.6202 27.3761C38.9879 27.3761 37.232 28.2876 37.232 30.2799C37.232 30.8289 37.232 32.3988 40.9357 33.2223H40.9864C46.0688 34.3697 46.8255 37.2242 46.8255 38.8284L46.8277 38.8305C46.8144 41.552 44.7872 43.8682 42.0277 44.3207V45.7318C42.0277 46.4889 41.3946 47.1044 40.6159 47.1044C39.835 47.1044 39.2042 46.4889 39.2042 45.7318V44.3035C37.2586 43.8767 35.6439 42.5664 34.8608 40.7842C34.5872 40.0915 34.9292 39.313 35.635 39.0278C36.3387 38.7404 37.1483 39.0492 37.4637 39.7247C37.9931 40.9493 39.2262 41.7471 40.5917 41.745C42.224 41.745 43.9799 40.8335 43.9799 38.8411C43.9799 38.2921 43.9799 36.7223 40.2762 35.8987H40.2255C35.1432 34.7449 34.3797 31.884 34.3797 30.2823L34.3798 30.282Z" fill="white"/>
<defs>
<linearGradient id="paint0_linear" x1="-34.6991" y1="39.9354" x2="98.2845" y2="39.6283" gradientUnits="userSpaceOnUse">
<stop offset="0.317708" stop-color="#E43425"/>
<stop offset="0.71875" stop-color="#441FD8"/>
<stop offset="1" stop-color="#0A26B8"/>
</linearGradient>
</defs>
</svg>
