<svg width="80" height="80" viewBox="0 0 80 80" fill="none" xmlns="http://www.w3.org/2000/svg">
<circle cx="40" cy="40" r="40" fill="url(#paint0_linear)"/>
<path d="M40.2216 45.6408L33.6871 40.9533C33.2342 40.5853 32.6067 40.5145 32.0806 40.7717C31.5545 41.0524 31.2408 41.6091 31.2715 42.2036V51.8664C31.229 52.4632 31.538 53.0294 32.0617 53.3148C32.2599 53.4163 32.4793 53.4682 32.7034 53.4658C33.0596 53.4564 33.4064 53.3313 33.6871 53.1096L40.2216 48.4245C40.6863 48.1131 40.9671 47.5917 40.9671 47.0326C40.9671 46.4735 40.6863 45.9498 40.2216 45.6408V45.6408ZM33.5714 50.3493V43.7062L38.2235 47.0348L33.5714 50.3493Z" fill="white"/>
<path d="M68.7692 29.6181L60.458 26.6764L60.767 23.4822C60.8024 22.8594 60.333 22.3215 59.7102 22.2743L37.6127 20.5475C36.9828 20.5121 36.4426 20.9934 36.4048 21.6232L35.6193 34.1473H19.6576C17.617 34.1497 15.9656 35.8034 15.9609 37.844V56.5656C15.9657 58.6038 17.617 60.2575 19.6576 60.2599H51.9553C53.9959 60.2575 55.6473 58.6038 55.652 56.5656V55.6597L59.1245 56.8675C59.7214 57.0751 60.3748 56.7637 60.5848 56.1668L69.4619 31.0733C69.6695 30.4788 69.3604 29.8301 68.7683 29.6177L68.7692 29.6181ZM38.5731 22.9279L58.3702 24.4495L58.0919 27.2945V27.3299L56.0324 48.606H55.6573V37.849C55.6549 35.8108 54.0012 34.157 51.963 34.1547H37.9145L38.5731 22.9279ZM53.3619 56.5543C53.3596 57.3256 52.7344 57.9508 51.963 57.9532H19.658C18.8866 57.9508 18.2614 57.3256 18.2567 56.5543V37.8327C18.2615 37.0589 18.8866 36.4338 19.658 36.4314H51.9557C52.7271 36.4338 53.3547 37.0589 53.357 37.8327L53.3619 56.5543ZM58.7972 54.3249L55.6455 53.2067V50.8996H57.0656C57.6554 50.8996 58.1508 50.4513 58.2074 49.8615L60.2598 29.0335L66.9029 31.3997L58.7972 54.3249Z" fill="white"/>
<defs>
<linearGradient id="paint0_linear" x1="-34.6991" y1="39.9354" x2="98.2845" y2="39.6283" gradientUnits="userSpaceOnUse">
<stop offset="0.317708" stop-color="#E43425"/>
<stop offset="0.71875" stop-color="#441FD8"/>
<stop offset="1" stop-color="#0A26B8"/>
</linearGradient>
</defs>
</svg>
