<svg width="29" height="25" viewBox="0 0 29 25" fill="none" xmlns="http://www.w3.org/2000/svg">
<path opacity="0.4" d="M23.0129 25C20.5806 25 18.7409 23.9418 17.4935 21.8254C16.4333 20.0397 15.9032 17.8571 15.9032 15.2778C15.9032 11.9709 16.6828 8.99471 18.2419 6.34921C19.8634 3.70371 22.2957 1.5873 25.5387 0L26.3806 1.78572C24.4473 2.64551 22.7634 4.00132 21.329 5.85317C19.957 7.70503 19.271 9.58995 19.271 11.5079C19.271 12.3016 19.3645 12.996 19.5516 13.5913C20.5495 12.7315 21.7032 12.3016 23.0129 12.3016C24.6968 12.3016 26.1 12.8968 27.2226 14.0873C28.4075 15.2116 29 16.7328 29 18.6508C29 20.4365 28.4075 21.9577 27.2226 23.2143C26.1 24.4048 24.6968 25 23.0129 25ZM7.10968 25C4.67742 25 2.83763 23.9418 1.59032 21.8254C0.530107 20.0397 0 17.8571 0 15.2778C0 11.9709 0.77957 8.99471 2.33871 6.34921C3.96021 3.70371 6.39247 1.5873 9.63548 0L10.4774 1.78572C8.54409 2.64551 6.86021 4.00132 5.42581 5.85317C4.05376 7.70503 3.36774 9.58995 3.36774 11.5079C3.36774 12.3016 3.46129 12.996 3.64839 13.5913C4.64624 12.7315 5.8 12.3016 7.10968 12.3016C8.79355 12.3016 10.1968 12.8968 11.3194 14.0873C12.5043 15.2116 13.0968 16.7328 13.0968 18.6508C13.0968 20.4365 12.5043 21.9577 11.3194 23.2143C10.1968 24.4048 8.79355 25 7.10968 25Z" fill="white"/>
</svg>
