<svg width="572" height="399" viewBox="0 0 572 399" fill="none" xmlns="http://www.w3.org/2000/svg">
<mask id="mask0_1647_77" style="mask-type:alpha" maskUnits="userSpaceOnUse" x="0" y="0" width="572" height="399">
<rect width="572" height="398.172" rx="10" transform="matrix(-1 0 0 1 572 0)" fill="#001464"/>
</mask>
<g mask="url(#mask0_1647_77)">
<path d="M-157 397.992L741.292 397.992V-16.6045L-157 -16.6045V397.992Z" fill="#EAF2F9"/>
<g opacity="0.84">
<g opacity="0.84">
<path opacity="0.84" d="M148.386 80.6084C198.217 116.942 245.56 86.064 281.419 127.859C303.162 153.196 288.763 167.891 314.725 204.862C343.477 245.809 367.115 236.615 396.532 273.955C433.727 321.166 407.877 350.379 440.729 385.119C480.583 427.264 533.467 400.571 571.373 440.952C587.72 458.365 594.841 481.398 596.953 505.142L711.776 517.507C719.088 518.508 725.84 513.401 726.84 506.089L797.808 -11.1095C798.809 -18.4208 793.63 -24.7385 786.246 -25.2255L-5.09988 -78.9782C-8.62724 -79.2085 -11.9967 -77.5962 -14.3921 -74.9112C37.4193 -65.8691 67.0135 -44.0205 84.9859 -23.1722C120.148 17.6161 108.427 51.4814 148.38 80.6084H148.386Z" fill="url(#paint0_linear_1647_77)"/>
</g>
</g>
</g>
<path d="M238.224 67.4689L112.147 61.8644L110.72 56L103.931 56.2253C100.592 56.0404 98.0032 58.548 98.0032 61.876V301.896C98.0032 301.896 97.4543 311.244 110.784 311.21C111.754 310.019 110.09 308.407 107.733 306.853L142.602 302.046V336.089L129.966 338.203C128.492 338.446 127.377 339.977 127.377 341.63V346.24C127.377 346.575 127.406 347.049 127.493 347.049H127.47L127.458 347.118C127.637 347.708 127.978 348.21 128.435 348.494C129.631 349.77 132.109 351.648 136.87 352.578C136.87 350.608 136.818 348.962 136.755 347.586L214.76 333.968L214.633 335.245C214.633 335.245 221.855 332.085 224.322 327.959C219.729 325.105 217.337 324.25 216.343 324.019C216.164 323.955 215.968 323.886 215.771 323.886H215.766C215.65 323.886 215.465 323.926 215.35 323.944L203.886 325.879V293.611L237.346 289.017C240.021 288.647 242.32 285.666 242.32 282.708V69.0635C242.32 66.1053 240.916 67.6133 238.241 67.4689H238.224Z" fill="url(#paint1_linear_1647_77)"/>
<path d="M207.596 327.873L151.159 337.99V294.98L207.596 286.937V327.873Z" fill="url(#paint2_linear_1647_77)"/>
<path d="M245.041 63.3724L111.558 56.0115C108.218 55.8266 105.624 58.3746 105.624 61.7489V305.576C105.624 308.956 108.253 311.626 111.587 311.158L245.088 292.495C247.763 292.12 249.924 289.092 249.924 286.088V69.0519C249.924 66.0475 247.722 63.5226 245.047 63.3724H245.041Z" fill="url(#paint3_linear_1647_77)"/>
<path d="M242.673 77.0658V278.681C242.673 281.056 241.24 283.164 239.345 284.164C238.825 284.441 238.229 284.563 237.646 284.638L120.796 300.082C117.509 300.515 115.048 298.325 115.048 294.974V71.5365C115.048 68.1854 117.48 65.672 120.773 65.8338L237.738 71.4382C240.448 71.5711 242.667 74.044 242.667 77.0716L242.673 77.0658Z" fill="white"/>
<path d="M242.673 77.0658V278.681C242.673 281.056 241.24 283.164 239.345 284.164C238.825 284.441 238.229 284.563 237.646 284.638L120.796 300.082C117.509 300.515 115.048 298.325 115.048 294.974V71.5365C115.048 68.1854 117.48 65.672 120.773 65.8338L237.738 71.4382C240.448 71.5711 242.667 74.044 242.667 77.0716L242.673 77.0658Z" fill="url(#paint4_linear_1647_77)"/>
<path d="M225.414 334.142C225.414 335.678 223.635 337.123 222.058 337.348L135.795 352.555C133.987 352.815 132.456 351.66 132.456 350.007V345.397C132.456 343.744 133.889 342.219 135.697 341.97L222.15 327.463C223.722 327.249 225.414 328.318 225.414 329.855V334.142Z" fill="url(#paint5_linear_1647_77)"/>
<g style="mix-blend-mode:soft-light" opacity="0.5">
<path d="M239.166 283.927C238.646 284.199 238.091 284.32 237.507 284.395L120.785 299.822C117.497 300.255 115.065 298.065 115.065 294.714V71.4902C115.065 68.1391 117.497 65.6315 120.785 65.7933L128.088 66.1457C130.064 69.0115 131.734 73.5413 132.832 79.2208C135.229 91.643 131.595 103.615 132.208 115.875C132.953 130.793 147.16 135.132 156.058 142.614C162.645 148.15 169.503 156.741 172.536 165.431C175.853 174.947 172.346 191.685 170.532 201.519C169.076 209.411 166.424 218.754 170.711 225.67C177.552 236.705 193.591 238.687 204.066 240.611C210.387 241.772 217.118 243.2 222.422 247.111C230.129 252.802 234.411 262.486 237.08 272.649C237.328 273.608 238.201 278.467 239.171 283.927H239.166Z" fill="white"/>
</g>
<path opacity="0.8" d="M207.654 157.625V197.145C207.654 201.351 204.395 205.02 200.385 205.297L161.403 208.007C157.11 208.308 153.579 204.962 153.579 200.571V159.324C153.579 154.933 157.11 151.252 161.403 151.142L200.385 150.154C204.395 150.05 207.654 153.413 207.654 157.619V157.625Z" fill="url(#paint6_linear_1647_77)"/>
<path d="M172.028 147.549C170.924 147.549 170.029 146.653 170.029 145.55V139.789C170.029 138.686 170.924 137.79 172.028 137.79C173.131 137.79 174.027 138.686 174.027 139.789V145.55C174.027 146.653 173.131 147.549 172.028 147.549Z" fill="#041B5E"/>
<path d="M180.567 147.37C179.464 147.37 178.568 146.474 178.568 145.37V139.645C178.568 138.541 179.464 137.646 180.567 137.646C181.671 137.646 182.566 138.541 182.566 139.645V145.37C182.566 146.474 181.671 147.37 180.567 147.37Z" fill="#041B5E"/>
<path d="M188.986 147.19C187.882 147.19 186.986 146.295 186.986 145.191V139.506C186.986 138.403 187.882 137.507 188.986 137.507C190.089 137.507 190.985 138.403 190.985 139.506V145.191C190.985 146.295 190.089 147.19 188.986 147.19Z" fill="#041B5E"/>
<path d="M172.028 220.759C170.924 220.759 170.029 219.863 170.029 218.76V212.999C170.029 211.896 170.924 211 172.028 211C173.131 211 174.027 211.896 174.027 212.999V218.76C174.027 219.863 173.131 220.759 172.028 220.759Z" fill="#041B5E"/>
<path d="M180.567 220.089C179.464 220.089 178.568 219.193 178.568 218.089V212.364C178.568 211.26 179.464 210.365 180.567 210.365C181.671 210.365 182.566 211.26 182.566 212.364V218.089C182.566 219.193 181.671 220.089 180.567 220.089Z" fill="#041B5E"/>
<path d="M188.986 219.43C187.882 219.43 186.986 218.534 186.986 217.431V211.745C186.986 210.642 187.882 209.746 188.986 209.746C190.089 209.746 190.985 210.642 190.985 211.745V217.431C190.985 218.534 190.089 219.43 188.986 219.43Z" fill="#041B5E"/>
<path d="M212.097 170.804C211.028 170.804 210.144 169.961 210.103 168.886C210.057 167.782 210.918 166.852 212.021 166.806L217.25 166.592C218.36 166.54 219.284 167.407 219.33 168.51C219.377 169.614 218.516 170.544 217.412 170.59L212.183 170.804C212.183 170.804 212.125 170.804 212.102 170.804H212.097Z" fill="#041B5E"/>
<path d="M212.097 179.367C211.034 179.367 210.15 178.535 210.103 177.46C210.051 176.357 210.901 175.421 212.004 175.369L217.233 175.12C218.331 175.039 219.273 175.917 219.325 177.021C219.377 178.125 218.527 179.061 217.424 179.113L212.195 179.361C212.16 179.361 212.131 179.361 212.097 179.361V179.367Z" fill="#041B5E"/>
<path d="M212.097 187.929C211.045 187.929 210.161 187.103 210.103 186.04C210.045 184.937 210.889 183.995 211.993 183.937L217.221 183.654C218.319 183.59 219.267 184.44 219.325 185.543C219.382 186.647 218.539 187.589 217.435 187.646L212.206 187.929C212.172 187.929 212.131 187.929 212.097 187.929Z" fill="#041B5E"/>
<path d="M141.533 173.67C140.464 173.67 139.58 172.826 139.539 171.752C139.493 170.648 140.354 169.718 141.457 169.672L147.305 169.435C148.42 169.4 149.338 170.25 149.385 171.353C149.431 172.457 148.57 173.387 147.466 173.433L141.619 173.67C141.619 173.67 141.561 173.67 141.538 173.67H141.533Z" fill="#041B5E"/>
<path d="M141.533 182.724C140.47 182.724 139.586 181.892 139.539 180.817C139.487 179.713 140.337 178.777 141.44 178.725L147.287 178.448C148.391 178.373 149.327 179.245 149.379 180.349C149.431 181.453 148.582 182.389 147.478 182.441L141.631 182.718C141.596 182.718 141.567 182.718 141.533 182.718V182.724Z" fill="#041B5E"/>
<path d="M141.533 191.777C140.481 191.777 139.597 190.951 139.539 189.888C139.482 188.785 140.325 187.843 141.429 187.785L147.276 187.467C148.379 187.415 149.321 188.253 149.379 189.357C149.437 190.46 148.593 191.402 147.49 191.46L141.642 191.777C141.608 191.777 141.567 191.777 141.533 191.777Z" fill="#041B5E"/>
<path d="M186.414 168.539L177.274 163.258L169.792 158.942C169.052 158.515 168.128 159.046 168.128 159.902V198.289C168.128 199.144 169.052 199.676 169.792 199.248L177.274 194.932L186.414 189.651L194.827 184.792C195.278 184.532 195.561 184.047 195.561 183.527V174.658C195.561 174.138 195.283 173.653 194.827 173.393L186.414 168.534V168.539ZM177.274 184.376V173.82L186.414 179.101L177.274 184.382V184.376Z" fill="white"/>
<path d="M410.472 351.622C411.896 352.686 412.622 355.005 411.837 356.377C411.066 357.72 409.393 357.155 405.159 358.117C400.624 359.144 399.648 360.457 396.375 360.208C395.054 360.105 392.676 359.702 392.544 358.799C392.449 358.168 393.513 357.617 397.028 355.621C402.018 352.789 401.974 352.693 403.067 352.282C405.819 351.255 408.586 350.22 410.465 351.622H410.472Z" fill="white"/>
<path d="M461.695 332.315C464.909 333.122 465.665 334.406 465.892 335.103C466.259 336.219 465.65 336.996 464.667 339.873C463.339 343.763 463.896 343.939 463.03 345.524C461.13 349.017 456.961 350.771 456.374 350.147C455.963 349.714 457.622 348.437 458.605 345.017C459.508 341.862 459.134 339.323 459.009 338.589C458.781 337.246 458.385 336.182 458.07 335.463L461.687 332.322L461.695 332.315Z" fill="white"/>
<path opacity="0.8" d="M410.472 351.622C411.896 352.686 412.622 355.005 411.837 356.377C411.066 357.72 409.393 357.155 405.159 358.117C400.624 359.144 399.648 360.457 396.375 360.208C395.054 360.105 392.676 359.702 392.544 358.799C392.449 358.168 393.513 357.617 397.028 355.621C402.018 352.789 401.974 352.693 403.067 352.282C405.819 351.255 408.586 350.22 410.465 351.622H410.472Z" fill="url(#paint7_linear_1647_77)"/>
<path opacity="0.8" d="M461.695 332.315C464.909 333.122 465.665 334.406 465.892 335.103C466.259 336.219 465.65 336.996 464.667 339.873C463.339 343.763 463.896 343.939 463.03 345.524C461.13 349.017 456.961 350.771 456.374 350.147C455.963 349.714 457.622 348.437 458.605 345.017C459.508 341.862 459.134 339.323 459.009 338.589C458.781 337.246 458.385 336.182 458.07 335.463L461.687 332.322L461.695 332.315Z" fill="url(#paint8_linear_1647_77)"/>
<path d="M403.889 344.328L405.086 352.774C405.313 353.163 407.837 354.249 409.745 353.126L409.701 344.768L403.889 344.335V344.328Z" fill="url(#paint9_linear_1647_77)"/>
<path d="M437.081 205.411L431.24 179.815L427.607 196.267L426.69 188.841L421.729 216.991L421.773 216.947L421.744 216.991L419.271 233.011L434.902 215.068C437.052 212.339 437.859 208.787 437.089 205.411H437.081Z" fill="url(#paint10_linear_1647_77)"/>
<path d="M419.3 157.924L421.861 147.936L420.019 147.408L420.217 146.924L421.047 144.862L413.283 140.473L409.606 138.462C409.606 138.462 409.261 138.514 408.784 138.683C408.769 138.697 408.733 138.719 408.718 138.719C408.292 138.888 407.771 139.13 407.28 139.512C407.228 139.548 407.162 139.6 407.111 139.651C406.34 140.268 405.629 141.192 405.32 142.572C405.269 143.02 405.181 143.467 405.064 143.908C404.689 144.495 403.779 145.882 402.884 146.432C401.475 147.305 402.539 148.112 403.398 148.421L402.759 149.998L402.928 150.806C402.517 151.958 401.981 153.264 401.299 154.578L400.631 156.875C400.631 156.875 400.616 156.977 400.646 157.131C400.697 157.528 400.969 158.284 402.466 158.107L406.399 157.799L406.883 157.939L407.331 158.056L407.669 157.836C407.97 160.551 408.124 162.525 408.19 163.941C408.212 164.448 408.226 164.888 408.234 165.262C408.248 166.547 408.197 167.031 408.197 167.031L421.626 164.374C418.64 160.955 419.293 157.924 419.307 157.924H419.3Z" fill="url(#paint11_linear_1647_77)"/>
<path d="M426.037 139.343C425.112 139.204 424.73 138.484 424.591 137.919C424.525 137.663 424.488 137.391 424.503 137.112C424.518 136.767 424.466 135.689 423.321 134.25C421.935 132.504 419.058 131.726 416.416 132.929C414.405 133.839 413.084 133.149 412.549 132.775C411.653 132.122 410.523 131.902 409.459 132.173C408.395 132.445 407.5 133.186 407.037 134.184C406.971 134.338 406.935 134.441 406.935 134.441C405.68 138.815 409.078 140.018 411.521 140.326C411.947 140.378 412.343 140.62 412.585 140.98C412.828 141.339 412.908 141.787 412.791 142.198C412.571 143.02 412.622 143.79 412.703 144.407C412.945 145.383 412.945 146.395 412.703 147.379L412.615 147.753L412.365 148.267L410.545 151.987C410.391 152.501 410.149 152.963 409.841 153.359C409.584 153.668 409.202 153.858 408.813 153.858C408.424 153.858 408.043 153.668 407.801 153.359C407.148 152.501 405.929 151.4 403.794 151.063C403.574 151.026 402.869 150.945 402.744 149.998C402.744 149.998 395.582 155.678 399.45 159.296C399.45 159.296 401.181 160.823 402.869 159.671C403.177 159.465 403.368 159.23 403.522 158.973C404.418 159.076 405.394 159.113 406.392 159.01C408.505 158.79 410.582 157.909 411.595 155.649C411.595 155.634 411.683 155.458 411.749 155.099C411.851 154.6 411.94 153.748 411.785 152.582V152.567C411.529 150.681 414.875 150.233 415.638 148.993C415.91 148.795 416.166 148.582 416.409 148.347C416.908 147.87 417.487 147.848 417.957 147.973C418.493 148.113 418.933 148.472 419.19 148.949C419.792 150.101 419.447 150.96 418.816 151.591C417.634 152.758 417.48 154.607 418.456 155.965L419.403 157.271C419.403 157.271 423.358 156.376 423.644 152.178C423.747 150.769 424.312 150.153 424.826 149.881C425.699 149.419 426.528 148.817 427.248 148.135L427.416 147.98C428.018 147.415 428.48 146.711 428.752 145.94C430.249 141.838 427.468 139.578 426.037 139.372V139.343Z" fill="url(#paint12_linear_1647_77)"/>
<path d="M431.475 182.787C431.145 176.975 429.192 173.137 429.192 173.137C429.024 172.535 428.796 171.933 428.554 171.331L428.539 171.309C427.695 169.247 426.485 167.244 424.775 165.894C421.737 163.479 419.33 163.714 415.602 164.419C413.151 164.881 410.362 165.563 408.043 166.855C406.759 167.596 405.621 168.506 404.763 169.688C402.906 172.256 402.048 175.294 401.651 178.435L399.795 184.951C399.795 184.951 399.296 188.951 401.116 192.738C401.578 193.699 402.194 194.66 403.024 195.534C403.038 197.06 402.87 198.623 402.444 200.252C402.084 201.588 401.483 203.371 400.763 205.418C400.338 206.651 399.941 207.972 399.56 209.315C398.533 212.999 397.674 216.954 396.536 220.433C396.14 221.79 393.087 229.078 394.878 230.017C396.236 230.721 398.672 229.202 399.927 228.689C403.038 227.382 406.502 226.869 409.834 226.612C411.448 226.472 413.063 226.729 414.56 227.331C415.352 227.661 416.225 227.896 417.135 228.087C418.133 228.292 420.276 225.32 421.252 225.401C422.126 225.489 422.984 225.093 423.52 224.403C423.916 223.875 424.085 223.221 424.004 222.583C423.982 222.363 423.923 222.143 423.843 221.937C423.351 220.69 423.19 219.494 423.175 218.488C423.153 216.815 423.535 215.663 423.535 215.663C424.613 210.086 427.226 203.019 429.251 196.385C429.728 194.807 430.198 193.259 430.572 191.769C431.423 188.481 431.607 185.428 431.46 182.787H431.475Z" fill="url(#paint13_linear_1647_77)"/>
<path d="M389.389 206.167L372.114 234.405L368.056 235.095L364.555 236.335L362.207 237.172C362.471 237.935 363.278 238.383 364.071 238.207L366.911 237.539L363.733 239.924L362.435 241.098C361.994 241.377 361.869 241.956 362.148 242.397C362.42 242.837 363 242.962 363.44 242.683L364.372 242.081C363.998 242.375 363.594 243.079 363.858 243.49C364.13 243.93 364.709 244.055 365.15 243.776L365.803 243.373C365.429 243.666 365.326 244.195 365.583 244.598C365.862 245.039 366.434 245.163 366.874 244.884L367.417 244.525L367.432 244.54C367.131 244.84 367.058 245.317 367.3 245.684C367.571 246.125 368.151 246.249 368.591 245.971L370.184 245.207C371.776 244.459 373.009 243.131 373.67 241.509C374.293 239.953 375.013 238.192 375.123 238.008C375.123 238.008 391.832 217.556 397.424 211.304L389.374 206.152L389.389 206.167Z" fill="url(#paint14_linear_1647_77)"/>
<path d="M424.364 175.301C424.048 174.017 423.329 172.77 422.404 171.72C421.157 170.297 419.535 169.189 417.898 168.712C417.554 168.609 417.209 168.557 416.864 168.491C415.154 168.183 413.437 168.345 411.874 168.946C410.032 169.658 408.41 170.95 407.316 172.726L391.884 201.771L389.396 206.167L397.424 211.282C398.143 210.482 423.696 181.686 424.459 177.914V177.877C424.628 177.026 424.591 176.145 424.371 175.294L424.364 175.301Z" fill="url(#paint15_linear_1647_77)"/>
<path d="M390.416 202.285L400.844 208.867L397.695 213.542L386.292 209.051L390.408 202.277L390.416 202.285Z" fill="url(#paint16_linear_1647_77)"/>
<path d="M451.186 330.172L459.515 336.079C460.85 336.057 461.797 335.316 462.12 333.43L455.802 324.492L451.178 330.172H451.186Z" fill="url(#paint17_linear_1647_77)"/>
<path d="M424.892 225.628C415.873 227.192 406.854 228.755 397.835 230.318C395.986 248.825 395.076 270.364 396.353 294.272C397.395 313.741 399.699 331.405 402.539 346.962C403.067 347.314 404.924 348.459 407.426 348.173C407.779 348.136 408.087 348.056 408.395 347.975C408.446 348.151 408.344 347.799 408.395 347.975C409.474 347.637 410.362 347.197 410.773 346.889C410.765 346.749 410.78 347.036 410.773 346.889C410.846 346.837 410.942 346.779 410.993 346.735C410.795 343.586 410.707 338.831 411.492 333.159C412.064 329.02 412.835 326.319 413.671 323.802C414.009 322.797 414.354 321.806 414.706 320.749C415.528 318.306 416.35 315.59 417.054 311.517C418.588 302.689 418.221 295.358 418.03 291.953C417.443 281.481 415.601 281.129 416.034 274.921C416.196 272.616 416.585 270.694 417.128 268.969C418.882 263.869 421.957 260.449 424.209 253.925C424.268 253.757 424.327 253.573 424.386 253.397C424.393 253.375 424.4 253.353 424.408 253.331C426.47 247.372 427.996 238.368 424.899 225.621L424.892 225.628Z" fill="white"/>
<path opacity="0.8" d="M424.892 225.628C415.873 227.192 406.854 228.755 397.835 230.318C395.986 248.825 395.076 270.364 396.353 294.272C397.395 313.741 399.699 331.405 402.539 346.962C403.067 347.314 404.924 348.459 407.426 348.173C407.779 348.136 408.087 348.056 408.395 347.975C408.446 348.151 408.344 347.799 408.395 347.975C409.474 347.637 410.362 347.197 410.773 346.889C410.765 346.749 410.78 347.036 410.773 346.889C410.846 346.837 410.942 346.779 410.993 346.735C410.795 343.586 410.707 338.831 411.492 333.159C412.064 329.02 412.835 326.319 413.671 323.802C414.009 322.797 414.354 321.806 414.706 320.749C415.528 318.306 416.35 315.59 417.054 311.517C418.588 302.689 418.221 295.358 418.03 291.953C417.443 281.481 415.601 281.129 416.034 274.921C416.196 272.616 416.585 270.694 417.128 268.969C418.882 263.869 421.957 260.449 424.209 253.925C424.268 253.757 424.327 253.573 424.386 253.397C424.393 253.375 424.4 253.353 424.408 253.331C426.47 247.372 427.996 238.368 424.899 225.621L424.892 225.628Z" fill="url(#paint18_linear_1647_77)"/>
<path d="M459.904 327.992C459.111 327.053 456.99 324.47 455.112 322.202C454.48 321.446 453.879 320.72 453.365 320.103C451.758 318.195 448.793 314.658 448.169 313.895C442.93 307.533 441.917 301.412 437.264 292.702C431.834 282.545 429.999 284.864 427.468 278.428C423.681 268.822 427.974 264.185 427.805 247.827C427.688 236.629 427.563 224.873 421.083 221.401C412.923 217.042 399.464 228.373 397.967 229.657C397.908 230.2 397.857 230.765 397.806 231.36C397.784 231.639 397.762 231.932 397.74 232.218C397.718 232.527 397.696 232.827 397.674 233.143C397.644 233.547 397.622 233.972 397.593 234.398C397.578 234.589 397.571 234.779 397.564 234.978C397.534 235.506 397.512 236.049 397.49 236.607C397.49 236.629 397.49 236.651 397.49 236.673C397.395 239.3 397.387 242.221 397.534 245.391V245.406C397.945 254.557 399.611 265.74 404.131 277.812C411.705 298.022 423.512 310.637 428.143 315.238C429.728 316.816 431.423 318.364 433.17 319.869C433.434 320.096 433.705 320.324 433.97 320.551C434.248 320.786 434.527 321.028 434.806 321.256C435.092 321.49 435.379 321.725 435.672 321.96C435.936 322.18 436.208 322.393 436.472 322.606C436.758 322.841 437.052 323.068 437.345 323.296C437.617 323.508 437.888 323.721 438.16 323.934C438.446 324.154 438.732 324.374 439.011 324.595C439.312 324.829 439.62 325.05 439.921 325.277C440.361 325.607 440.794 325.93 441.235 326.246C441.557 326.488 441.888 326.723 442.211 326.958C442.482 327.148 442.746 327.339 443.01 327.53C443.297 327.728 443.576 327.934 443.854 328.132C444.119 328.315 444.375 328.499 444.64 328.675C444.926 328.873 445.219 329.071 445.498 329.262C445.74 329.431 445.983 329.592 446.225 329.753C446.54 329.966 446.856 330.172 447.164 330.377C447.362 330.509 447.56 330.641 447.758 330.766C448.243 331.082 448.72 331.39 449.189 331.691C449.358 331.794 449.52 331.896 449.681 331.999C450.004 332.205 450.327 332.403 450.635 332.593C450.819 332.704 450.995 332.814 451.171 332.916C451.457 333.092 451.743 333.261 452.022 333.43C452.191 333.533 452.352 333.628 452.521 333.724C452.815 333.892 453.093 334.054 453.365 334.215C453.497 334.289 453.629 334.369 453.761 334.443C454.158 334.663 454.539 334.883 454.906 335.074C455.97 333.914 456.689 332.726 457.408 331.529C458.128 330.341 458.847 329.144 459.911 327.985L459.904 327.992Z" fill="white"/>
<path opacity="0.8" d="M459.904 327.992C459.111 327.053 456.99 324.47 455.112 322.202C454.48 321.446 453.879 320.72 453.365 320.103C451.758 318.195 448.793 314.658 448.169 313.895C442.93 307.533 441.917 301.412 437.264 292.702C431.834 282.545 429.999 284.864 427.468 278.428C423.681 268.822 427.974 264.185 427.805 247.827C427.688 236.629 427.563 224.873 421.083 221.401C412.923 217.042 399.464 228.373 397.967 229.657C397.908 230.2 397.857 230.765 397.806 231.36C397.784 231.639 397.762 231.932 397.74 232.218C397.718 232.527 397.696 232.827 397.674 233.143C397.644 233.547 397.622 233.972 397.593 234.398C397.578 234.589 397.571 234.779 397.564 234.978C397.534 235.506 397.512 236.049 397.49 236.607C397.49 236.629 397.49 236.651 397.49 236.673C397.395 239.3 397.387 242.221 397.534 245.391V245.406C397.945 254.557 399.611 265.74 404.131 277.812C411.705 298.022 423.512 310.637 428.143 315.238C429.728 316.816 431.423 318.364 433.17 319.869C433.434 320.096 433.705 320.324 433.97 320.551C434.248 320.786 434.527 321.028 434.806 321.256C435.092 321.49 435.379 321.725 435.672 321.96C435.936 322.18 436.208 322.393 436.472 322.606C436.758 322.841 437.052 323.068 437.345 323.296C437.617 323.508 437.888 323.721 438.16 323.934C438.446 324.154 438.732 324.374 439.011 324.595C439.312 324.829 439.62 325.05 439.921 325.277C440.361 325.607 440.794 325.93 441.235 326.246C441.557 326.488 441.888 326.723 442.211 326.958C442.482 327.148 442.746 327.339 443.01 327.53C443.297 327.728 443.576 327.934 443.854 328.132C444.119 328.315 444.375 328.499 444.64 328.675C444.926 328.873 445.219 329.071 445.498 329.262C445.74 329.431 445.983 329.592 446.225 329.753C446.54 329.966 446.856 330.172 447.164 330.377C447.362 330.509 447.56 330.641 447.758 330.766C448.243 331.082 448.72 331.39 449.189 331.691C449.358 331.794 449.52 331.896 449.681 331.999C450.004 332.205 450.327 332.403 450.635 332.593C450.819 332.704 450.995 332.814 451.171 332.916C451.457 333.092 451.743 333.261 452.022 333.43C452.191 333.533 452.352 333.628 452.521 333.724C452.815 333.892 453.093 334.054 453.365 334.215C453.497 334.289 453.629 334.369 453.761 334.443C454.158 334.663 454.539 334.883 454.906 335.074C455.97 333.914 456.689 332.726 457.408 331.529C458.128 330.341 458.847 329.144 459.911 327.985L459.904 327.992Z" fill="url(#paint19_linear_1647_77)"/>
<defs>
<linearGradient id="paint0_linear_1647_77" x1="772.717" y1="248.612" x2="-38.0816" y2="170.255" gradientUnits="userSpaceOnUse">
<stop stop-color="#7399EF"/>
<stop offset="0.14" stop-color="#8BB0F2"/>
<stop offset="0.32" stop-color="#A2C6F5"/>
<stop offset="0.51" stop-color="#B3D5F7"/>
<stop offset="0.73" stop-color="#BCDFF8"/>
<stop offset="1" stop-color="#C0E2F9"/>
</linearGradient>
<linearGradient id="paint1_linear_1647_77" x1="98.0032" y1="204.286" x2="242.309" y2="204.286" gradientUnits="userSpaceOnUse">
<stop stop-color="#40447E"/>
<stop offset="1" stop-color="#3C3B6B"/>
</linearGradient>
<linearGradient id="paint2_linear_1647_77" x1="151.159" y1="312.463" x2="207.596" y2="312.463" gradientUnits="userSpaceOnUse">
<stop stop-color="#444B8B"/>
<stop offset="1" stop-color="#26264F"/>
</linearGradient>
<linearGradient id="paint3_linear_1647_77" x1="105.618" y1="183.602" x2="249.924" y2="183.602" gradientUnits="userSpaceOnUse">
<stop stop-color="#444B8B"/>
<stop offset="0.99" stop-color="#26264F"/>
</linearGradient>
<linearGradient id="paint4_linear_1647_77" x1="114.308" y1="242.102" x2="226.535" y2="125.616" gradientUnits="userSpaceOnUse">
<stop stop-color="#7399EF"/>
<stop offset="0.14" stop-color="#8BB0F2"/>
<stop offset="0.32" stop-color="#A2C6F5"/>
<stop offset="0.51" stop-color="#B3D5F7"/>
<stop offset="0.73" stop-color="#BCDFF8"/>
<stop offset="1" stop-color="#C0E2F9"/>
</linearGradient>
<linearGradient id="paint5_linear_1647_77" x1="132.456" y1="340.018" x2="225.414" y2="340.018" gradientUnits="userSpaceOnUse">
<stop stop-color="#444B8B"/>
<stop offset="1" stop-color="#26264F"/>
</linearGradient>
<linearGradient id="paint6_linear_1647_77" x1="180.614" y1="208.025" x2="180.614" y2="150.154" gradientUnits="userSpaceOnUse">
<stop stop-color="#4B0082"/>
<stop offset="0.1" stop-color="#4B0082"/>
<stop offset="0.9" stop-color="#0050EB"/>
<stop offset="1" stop-color="#0050EB"/>
</linearGradient>
<linearGradient id="paint7_linear_1647_77" x1="392.544" y1="355.592" x2="412.16" y2="355.592" gradientUnits="userSpaceOnUse">
<stop stop-color="#4B0081"/>
<stop offset="0.1" stop-color="#4B0081"/>
<stop offset="0.9" stop-color="#0050EA"/>
<stop offset="1" stop-color="#0050EA"/>
</linearGradient>
<linearGradient id="paint8_linear_1647_77" x1="456.316" y1="341.289" x2="466.002" y2="341.289" gradientUnits="userSpaceOnUse">
<stop stop-color="#4B0081"/>
<stop offset="0.1" stop-color="#4B0081"/>
<stop offset="0.9" stop-color="#0050EA"/>
<stop offset="1" stop-color="#0050EA"/>
</linearGradient>
<linearGradient id="paint9_linear_1647_77" x1="403.415" y1="354.669" x2="411.984" y2="339.871" gradientUnits="userSpaceOnUse">
<stop stop-color="#F8C9C6"/>
<stop offset="1" stop-color="#F26F56"/>
</linearGradient>
<linearGradient id="paint10_linear_1647_77" x1="419.271" y1="206.416" x2="437.368" y2="206.416" gradientUnits="userSpaceOnUse">
<stop stop-color="white"/>
<stop offset="0.35" stop-color="#FBFCFD"/>
<stop offset="0.63" stop-color="#F2F3F8"/>
<stop offset="0.88" stop-color="#E1E4EF"/>
<stop offset="1" stop-color="#D7DBEA"/>
</linearGradient>
<linearGradient id="paint11_linear_1647_77" x1="400.616" y1="152.75" x2="421.861" y2="152.75" gradientUnits="userSpaceOnUse">
<stop stop-color="#F8C9C6"/>
<stop offset="1" stop-color="#F26F56"/>
</linearGradient>
<linearGradient id="paint12_linear_1647_77" x1="401.989" y1="140.473" x2="427.791" y2="157.425" gradientUnits="userSpaceOnUse">
<stop stop-color="#444B8B"/>
<stop offset="0.27" stop-color="#3E4480"/>
<stop offset="0.73" stop-color="#2F3262"/>
<stop offset="1" stop-color="#26264F"/>
</linearGradient>
<linearGradient id="paint13_linear_1647_77" x1="399.993" y1="195.46" x2="430.601" y2="201.668" gradientUnits="userSpaceOnUse">
<stop stop-color="white"/>
<stop offset="0.35" stop-color="#FBFCFD"/>
<stop offset="0.63" stop-color="#F2F3F8"/>
<stop offset="0.88" stop-color="#E1E4EF"/>
<stop offset="1" stop-color="#D7DBEA"/>
</linearGradient>
<linearGradient id="paint14_linear_1647_77" x1="362.002" y1="226.149" x2="397.439" y2="226.149" gradientUnits="userSpaceOnUse">
<stop stop-color="#F8C9C6"/>
<stop offset="1" stop-color="#F26F56"/>
</linearGradient>
<linearGradient id="paint15_linear_1647_77" x1="397.483" y1="182.743" x2="414.031" y2="194.587" gradientUnits="userSpaceOnUse">
<stop stop-color="white"/>
<stop offset="0.35" stop-color="#FBFCFD"/>
<stop offset="0.63" stop-color="#F2F3F8"/>
<stop offset="0.88" stop-color="#E1E4EF"/>
<stop offset="1" stop-color="#D7DBEA"/>
</linearGradient>
<linearGradient id="paint16_linear_1647_77" x1="386.292" y1="207.913" x2="400.844" y2="207.913" gradientUnits="userSpaceOnUse">
<stop stop-color="white"/>
<stop offset="0.35" stop-color="#FBFCFD"/>
<stop offset="0.63" stop-color="#F2F3F8"/>
<stop offset="0.88" stop-color="#E1E4EF"/>
<stop offset="1" stop-color="#D7DBEA"/>
</linearGradient>
<linearGradient id="paint17_linear_1647_77" x1="457.641" y1="323.282" x2="455.913" y2="338.372" gradientUnits="userSpaceOnUse">
<stop stop-color="#F8C9C6"/>
<stop offset="1" stop-color="#F26F56"/>
</linearGradient>
<linearGradient id="paint18_linear_1647_77" x1="387.282" y1="298.734" x2="413.848" y2="282.964" gradientUnits="userSpaceOnUse">
<stop stop-color="#4B0081"/>
<stop offset="0.1" stop-color="#4B0081"/>
<stop offset="0.9" stop-color="#0050EA"/>
<stop offset="1" stop-color="#0050EA"/>
</linearGradient>
<linearGradient id="paint19_linear_1647_77" x1="400.514" y1="288.064" x2="448.111" y2="273.761" gradientUnits="userSpaceOnUse">
<stop stop-color="#4B0081"/>
<stop offset="0.1" stop-color="#4B0081"/>
<stop offset="0.9" stop-color="#0050EA"/>
<stop offset="1" stop-color="#0050EA"/>
</linearGradient>
</defs>
</svg>
