<svg width="698" height="366" viewBox="0 0 698 366" fill="none" xmlns="http://www.w3.org/2000/svg">
<path opacity="0.4" d="M667.797 363.473L44.6475 363.656C19.5987 329.302 -43.7124 176.876 50.2876 185.876C144.288 194.876 73.2876 119.879 119.968 53.876C166.648 -12.1266 323.968 -29.1234 369.467 69.8782C414.967 168.88 557.907 154.935 620.437 158.906C682.967 162.877 730.967 232.877 667.797 363.473Z" fill="#DCEBFF"/>
<path d="M437.713 151.9H268.303C258.56 151.9 250.66 143.999 250.66 134.256V49.5191C250.66 39.7763 258.56 31.876 268.303 31.876H437.713C447.456 31.876 455.356 39.7763 455.356 49.5191V134.256C455.356 143.999 447.456 151.9 437.713 151.9Z" fill="url(#paint0_linear)"/>
<path d="M327.536 129.731C326.683 128.877 326.683 127.5 327.536 126.653L344.604 109.586C345.955 108.234 345.955 106.043 344.604 104.692L307.036 67.1231C303.991 64.0781 303.991 59.1194 307.036 56.0679L319.888 43.2154C322.933 40.1704 327.892 40.1704 330.943 43.2154L346.537 58.8091C347.391 59.6625 347.391 61.0395 346.537 61.8864C345.684 62.7398 344.307 62.7398 343.46 61.8864L327.866 46.2928C326.515 44.9416 324.323 44.9416 322.972 46.2928L310.12 59.1453C308.768 60.4965 308.768 62.6881 310.12 64.0393L347.688 101.608C350.733 104.653 350.733 109.611 347.688 112.663L330.62 129.731C329.767 130.584 328.39 130.584 327.536 129.731Z" fill="#AED3FF"/>
<path d="M323.192 136.914L319.694 133.416C318.175 131.897 318.175 129.414 319.694 127.895L338.792 108.797C340.311 107.278 342.794 107.278 344.313 108.797L347.811 112.295C349.33 113.814 349.33 116.297 347.811 117.816L328.713 136.914C327.194 138.433 324.711 138.433 323.192 136.914Z" fill="url(#paint1_linear)"/>
<path d="M413.729 117.001L401.652 129.078C398.504 132.226 393.409 132.22 390.261 129.071L327.744 66.5545C324.602 63.4124 324.595 58.3115 327.744 55.1695L339.82 43.0928C342.969 39.9443 348.063 39.9508 351.205 43.0928L413.722 105.61C416.871 108.758 416.877 113.853 413.729 117.001Z" fill="url(#paint2_linear)"/>
<path d="M413.729 117.001L409.572 121.158C406.424 124.307 401.329 124.3 398.181 121.152L335.664 58.6348C332.522 55.4928 332.515 50.3919 335.664 47.2498L339.821 43.0928C342.969 39.9443 348.064 39.9508 351.206 43.0928L413.723 105.61C416.871 108.758 416.878 113.853 413.729 117.001Z" fill="url(#paint3_linear)"/>
<path d="M45.9998 363.901H52.2773L52.2773 82.8918H45.9998L45.9998 363.901Z" fill="#D2E4FF"/>
<path d="M183.588 363.901H189.865L189.865 82.8918H183.588L183.588 363.901Z" fill="#D2E4FF"/>
<path d="M48.5059 88.1729L188.364 88.1729V82.8909L48.5059 82.8909V88.1729Z" fill="#D2E4FF"/>
<path d="M48.5059 146.419L188.364 146.419V141.138L48.5059 141.138V146.419Z" fill="#D2E4FF"/>
<path d="M48.5059 204.666L188.364 204.666V199.384L48.5059 199.384V204.666Z" fill="#D2E4FF"/>
<path d="M48.5059 262.918H188.364V257.636H48.5059V262.918Z" fill="#D2E4FF"/>
<path d="M63.2958 117.383L110.09 101.621L114.337 115.502L61.8477 127.863L63.2958 117.383Z" fill="#D2E4FF"/>
<path d="M121.035 96.8823L110.891 99.6106C109.514 99.9791 108.693 101.408 109.062 102.785L112.385 115.153C112.753 116.53 114.182 117.351 115.559 116.982L125.703 114.254C127.08 113.885 127.901 112.457 127.532 111.08L124.209 98.712C123.834 97.3349 122.412 96.5074 121.035 96.8823ZM125.412 110.129C125.696 111.189 125.063 112.289 124.002 112.573L116.18 114.674C115.12 114.959 114.02 114.325 113.736 113.265L111.176 103.729C110.891 102.669 111.525 101.569 112.585 101.285L120.408 99.1839C121.468 98.8994 122.567 99.533 122.852 100.593L125.412 110.129Z" fill="#739AF0"/>
<path d="M127.177 113.86C126.207 114.118 125.199 113.543 124.94 112.573L121.216 98.7251C120.958 97.7553 121.533 96.7468 122.503 96.4882C123.472 96.2296 124.481 96.8049 124.74 97.7747L128.463 111.623C128.729 112.593 128.147 113.595 127.177 113.86Z" fill="#2A4E96"/>
<path d="M113.466 122.594L160.26 106.832L164.507 120.712L112.018 133.074L113.466 122.594Z" fill="#D2E4FF"/>
<path d="M171.205 102.087L161.061 104.815C159.684 105.183 158.863 106.612 159.232 107.989L162.555 120.357C162.923 121.734 164.352 122.555 165.729 122.187L175.873 119.458C177.25 119.09 178.071 117.661 177.702 116.284L174.379 103.916C174.011 102.546 172.582 101.718 171.205 102.087ZM175.582 115.34C175.866 116.4 175.233 117.499 174.172 117.784L166.35 119.885C165.289 120.169 164.19 119.536 163.906 118.476L161.346 108.94C161.061 107.879 161.695 106.78 162.755 106.496L170.578 104.395C171.638 104.11 172.737 104.744 173.022 105.804L175.582 115.34Z" fill="#739AF0"/>
<path d="M177.347 119.07C176.377 119.329 175.369 118.753 175.11 117.784L171.393 103.936C171.134 102.966 171.71 101.957 172.679 101.699C173.649 101.44 174.658 102.015 174.916 102.985L178.64 116.833C178.899 117.803 178.317 118.805 177.347 119.07Z" fill="#2A4E96"/>
<path d="M137.798 162.808L133.254 164.366L139.925 183.827L144.469 182.269L137.798 162.808Z" fill="#AED3FF"/>
<path d="M136.727 155.889C136.733 155.909 136.74 155.928 136.746 155.947C137.315 157.738 136.391 159.71 134.652 160.415C132.699 161.203 130.514 160.188 129.842 158.223C129.835 158.21 129.835 158.204 129.829 158.191C129.596 157.493 128.587 157.544 128.458 158.268C128.271 159.309 128.374 160.415 128.82 161.469C129.913 164.055 132.816 165.464 135.524 164.72C138.705 163.848 140.451 160.492 139.397 157.415C139.087 156.503 138.563 155.728 137.91 155.113C137.354 154.603 136.488 155.172 136.727 155.889Z" fill="#AED3FF"/>
<path d="M147.167 186.346C147.161 186.327 147.154 186.307 147.148 186.288C146.501 184.523 144.562 183.534 142.752 184.045C140.728 184.62 139.623 186.76 140.295 188.725C140.301 188.738 140.301 188.745 140.308 188.758C140.554 189.456 139.726 190.031 139.177 189.533C138.394 188.829 137.799 187.891 137.502 186.779C136.778 184.064 138.207 181.174 140.799 180.101C143.851 178.84 147.284 180.418 148.338 183.495C148.648 184.407 148.719 185.338 148.577 186.223C148.454 186.98 147.419 187.064 147.167 186.346Z" fill="#AED3FF"/>
<path d="M166.528 163.677L162.399 165.092L168.463 182.78L172.591 181.364L166.528 163.677Z" fill="#AED3FF"/>
<path d="M165.555 157.389C165.561 157.408 165.568 157.421 165.574 157.441C166.092 159.07 165.251 160.861 163.667 161.501C161.896 162.218 159.911 161.294 159.297 159.51C159.29 159.497 159.29 159.49 159.284 159.477C159.071 158.837 158.152 158.889 158.036 159.548C157.868 160.492 157.959 161.494 158.366 162.458C159.361 164.811 161.993 166.091 164.462 165.412C167.359 164.617 168.936 161.565 167.979 158.772C167.695 157.945 167.223 157.24 166.628 156.678C166.124 156.219 165.335 156.736 165.555 157.389Z" fill="#AED3FF"/>
<path d="M175.046 185.072C175.039 185.053 175.033 185.04 175.027 185.02C174.438 183.417 172.673 182.518 171.031 182.984C169.189 183.507 168.186 185.453 168.801 187.238C168.807 187.251 168.807 187.257 168.814 187.27C169.04 187.904 168.283 188.427 167.786 187.981C167.075 187.341 166.531 186.488 166.26 185.479C165.6 183.01 166.9 180.385 169.26 179.409C172.033 178.258 175.156 179.7 176.113 182.492C176.397 183.32 176.455 184.167 176.326 184.975C176.216 185.647 175.272 185.725 175.046 185.072Z" fill="#AED3FF"/>
<path d="M75.9554 154.984L86.5451 190.949C86.9524 192.339 86.1572 193.793 84.7737 194.201L84.7091 194.22C83.3191 194.627 81.8644 193.832 81.4571 192.449L70.8674 156.483C70.4601 155.093 71.2553 153.639 72.6388 153.232L72.7035 153.212C74.0935 152.805 75.5481 153.594 75.9554 154.984Z" fill="#AED3FF"/>
<path d="M72.7493 162.851L63.097 161.345L62.2178 158.365L70.6934 155.869L72.7493 162.851Z" fill="#D2E4FF"/>
<path d="M82.0264 153.198L75.9609 154.984L77.7465 161.049L83.812 159.264L82.0264 153.198Z" fill="#D2E4FF"/>
<path d="M86.0484 150.322L81.5645 151.642L84.2629 160.809L88.7469 159.489L86.0484 150.322Z" fill="#D2E4FF"/>
<path d="M83.5655 180.824L86.5459 190.949C86.9532 192.338 86.158 193.793 84.7745 194.2L84.7098 194.22C83.3199 194.627 81.8652 193.832 81.4579 192.448L78.4775 182.324L83.5655 180.824Z" fill="#739AF0"/>
<path d="M107.796 159.607L115.561 185.99C115.858 187.005 115.276 188.079 114.261 188.376L114.216 188.389C113.201 188.686 112.128 188.105 111.831 187.09L104.066 160.706C103.769 159.691 104.35 158.617 105.366 158.32L105.411 158.307C106.432 158.003 107.499 158.585 107.796 159.607Z" fill="#AED3FF"/>
<path d="M105.443 165.38L98.3633 164.268L97.7168 162.083L103.936 160.253L105.443 165.38Z" fill="#D2E4FF"/>
<path d="M112.249 158.296L107.802 159.605L109.111 164.052L113.558 162.743L112.249 158.296Z" fill="#D2E4FF"/>
<path d="M115.2 156.188L111.913 157.156L113.892 163.879L117.179 162.911L115.2 156.188Z" fill="#D2E4FF"/>
<path d="M113.382 178.562L115.567 185.99C115.864 187.005 115.282 188.079 114.267 188.376L114.222 188.389C113.207 188.686 112.134 188.104 111.837 187.089L109.651 179.661L113.382 178.562Z" fill="#739AF0"/>
<path d="M129.916 211.18L60.6104 244.369L64.9076 253.342L134.213 220.154L129.916 211.18Z" fill="#D2E4FF"/>
<path d="M61.8387 243.798L60.6143 244.384L64.9125 253.358L66.137 252.771L61.8387 243.798Z" fill="#F99746"/>
<path d="M130.507 210.881L129.282 211.467L133.579 220.441L134.803 219.855L130.507 210.881Z" fill="#739AF0"/>
<path d="M67.0794 246.794C66.6527 245.901 67.0277 244.835 67.9199 244.408C68.8121 243.981 69.8788 244.356 70.3055 245.248C70.7322 246.141 70.3572 247.207 69.465 247.634C68.5793 248.061 67.5061 247.686 67.0794 246.794Z" fill="#F99746"/>
<path d="M123.927 219.576C123.5 218.684 123.875 217.617 124.768 217.19C125.66 216.764 126.726 217.139 127.153 218.031C127.58 218.923 127.205 219.99 126.313 220.416C125.421 220.843 124.354 220.468 123.927 219.576Z" fill="#739AF0"/>
<path d="M99.5659 225.724C100.154 227.935 99.1069 230.321 96.967 231.349C94.827 232.37 92.3121 231.691 90.9609 229.849L99.5659 225.724Z" fill="#739AF0"/>
<path d="M173.534 211.485L104.229 244.673L108.526 253.647L177.831 220.458L173.534 211.485Z" fill="#D2E4FF"/>
<path d="M105.447 244.114L104.223 244.701L108.519 253.675L109.744 253.089L105.447 244.114Z" fill="#739AF0"/>
<path d="M174.156 211.178L172.932 211.765L177.229 220.738L178.453 220.152L174.156 211.178Z" fill="#739AF0"/>
<path d="M110.699 247.098C110.272 246.206 110.647 245.139 111.539 244.713C112.431 244.286 113.498 244.661 113.925 245.553C114.351 246.445 113.976 247.512 113.084 247.939C112.198 248.365 111.125 247.991 110.699 247.098Z" fill="#739AF0"/>
<path d="M167.546 219.88C167.12 218.988 167.495 217.921 168.387 217.494C169.279 217.068 170.346 217.443 170.772 218.335C171.199 219.227 170.824 220.294 169.932 220.721C169.04 221.147 167.973 220.772 167.546 219.88Z" fill="#739AF0"/>
<path d="M143.186 226.029C143.774 228.24 142.727 230.625 140.587 231.647C138.447 232.668 135.932 231.99 134.581 230.147L143.186 226.029Z" fill="#739AF0"/>
<path d="M93.6051 301.966C79.285 301.966 67.6738 313.578 67.6738 327.898C67.6738 342.218 79.285 353.829 93.6051 353.829C107.925 353.829 119.536 342.218 119.536 327.898C119.536 313.578 107.932 301.966 93.6051 301.966ZM93.6051 332.171C91.2454 332.171 89.3253 330.257 89.3253 327.891C89.3253 325.525 91.2389 323.611 93.6051 323.611C95.9649 323.611 97.885 325.525 97.885 327.891C97.885 330.257 95.9713 332.171 93.6051 332.171Z" fill="#D2E4FF"/>
<path d="M93.605 304.875C80.8948 304.875 70.583 315.181 70.583 327.898C70.583 340.608 80.8883 350.92 93.605 350.92C106.315 350.92 116.627 340.614 116.627 327.898C116.627 315.181 106.322 304.875 93.605 304.875ZM93.605 332.171C91.2453 332.171 89.3252 330.257 89.3252 327.891C89.3252 325.525 91.2388 323.611 93.605 323.611C95.9648 323.611 97.8849 325.525 97.8849 327.891C97.8849 330.257 95.9712 332.171 93.605 332.171Z" fill="#AED3FF"/>
<path d="M93.6054 318.84C88.6014 318.84 84.5479 322.893 84.5479 327.897C84.5479 332.901 88.6014 336.955 93.6054 336.955C98.6093 336.955 102.663 332.901 102.663 327.897C102.663 322.893 98.6093 318.84 93.6054 318.84ZM93.6054 332.171C91.2456 332.171 89.3255 330.257 89.3255 327.891C89.3255 325.525 91.2392 323.611 93.6054 323.611C95.9651 323.611 97.8852 325.525 97.8852 327.891C97.8852 330.257 95.9716 332.171 93.6054 332.171Z" fill="#9EC7EF"/>
<path d="M155.683 310.863C144.414 310.863 135.279 319.998 135.279 331.266C135.279 342.535 144.414 351.67 155.683 351.67C166.952 351.67 176.087 342.535 176.087 331.266C176.087 319.991 166.952 310.863 155.683 310.863ZM155.683 334.628C153.821 334.628 152.315 333.122 152.315 331.26C152.315 329.398 153.821 327.892 155.683 327.892C157.545 327.892 159.051 329.398 159.051 331.26C159.051 333.122 157.545 334.628 155.683 334.628Z" fill="#D2E4FF"/>
<path d="M155.682 313.151C145.681 313.151 137.567 321.265 137.567 331.266C137.567 341.268 145.681 349.382 155.682 349.382C165.684 349.382 173.797 341.268 173.797 331.266C173.797 321.265 165.69 313.151 155.682 313.151ZM155.682 334.628C153.821 334.628 152.314 333.122 152.314 331.26C152.314 329.398 153.821 327.892 155.682 327.892C157.544 327.892 159.051 329.398 159.051 331.26C159.051 333.122 157.544 334.628 155.682 334.628Z" fill="#AED3FF"/>
<path d="M155.683 324.135C151.746 324.135 148.559 327.329 148.559 331.26C148.559 335.197 151.752 338.384 155.683 338.384C159.62 338.384 162.808 335.19 162.808 331.26C162.814 327.329 159.62 324.135 155.683 324.135ZM155.683 334.628C153.821 334.628 152.315 333.122 152.315 331.26C152.315 329.398 153.821 327.891 155.683 327.891C157.545 327.891 159.051 329.398 159.051 331.26C159.051 333.122 157.545 334.628 155.683 334.628Z" fill="#9EC7EF"/>
<path d="M129.971 275.415C121.062 275.415 113.834 282.636 113.834 291.551C113.834 300.46 121.055 307.688 129.971 307.688C138.88 307.688 146.107 300.467 146.107 291.551C146.107 282.636 138.886 275.415 129.971 275.415ZM129.971 294.208C128.503 294.208 127.307 293.019 127.307 291.545C127.307 290.071 128.497 288.881 129.971 288.881C131.438 288.881 132.634 290.071 132.634 291.545C132.634 293.019 131.445 294.208 129.971 294.208Z" fill="#D2E4FF"/>
<path d="M129.97 277.218C122.057 277.218 115.644 283.632 115.644 291.545C115.644 299.458 122.057 305.871 129.97 305.871C137.883 305.871 144.297 299.458 144.297 291.545C144.297 283.632 137.883 277.218 129.97 277.218ZM129.97 294.208C128.503 294.208 127.307 293.019 127.307 291.545C127.307 290.071 128.496 288.881 129.97 288.881C131.438 288.881 132.634 290.071 132.634 291.545C132.634 293.019 131.444 294.208 129.97 294.208Z" fill="#AED3FF"/>
<path d="M129.971 285.907C126.861 285.907 124.333 288.429 124.333 291.545C124.333 294.654 126.854 297.182 129.971 297.182C133.08 297.182 135.608 294.661 135.608 291.545C135.608 288.435 133.087 285.907 129.971 285.907ZM129.971 294.208C128.503 294.208 127.307 293.019 127.307 291.545C127.307 290.071 128.496 288.881 129.971 288.881C131.438 288.881 132.634 290.071 132.634 291.545C132.634 293.019 131.445 294.208 129.971 294.208Z" fill="#9EC7EF"/>
<path d="M221.135 313.545C221.135 313.545 229.365 303.944 221.646 297.848C221.646 297.848 216.002 294.434 211.405 294.712C211.405 294.712 217.922 305.638 215.815 306.731C213.707 307.817 209.427 294.027 209.427 294.027C209.427 294.027 196.588 292.779 192.463 294.771C192.463 294.771 203.434 303.751 201.126 304.287C198.812 304.824 186.961 296.005 186.961 296.005C186.961 296.005 175.014 298.042 175.654 305.328C176.294 312.614 180.406 314.864 182.216 314.67C184.026 314.476 194.609 310.435 194.842 311.916C195.075 313.396 188.7 318.245 184.239 318.471C184.239 318.471 192.663 327.762 198.262 325.079C203.861 322.396 204.339 318.148 207.83 316.551C211.321 314.954 214.302 314.961 212.86 316.59C211.418 318.213 205.102 319.797 203.111 323.327C201.113 326.857 199.322 329.236 205.115 328.363C210.908 327.49 220.321 323.256 220.734 318.4C221.148 313.545 221.135 313.545 221.135 313.545Z" fill="url(#paint4_linear)"/>
<path d="M181.518 305.516C181.518 305.516 213.966 304.268 221.135 313.545C221.135 313.545 222.719 318.29 227.594 322.616L228.357 324.684C228.357 324.684 222.732 318.756 220.722 318.394C220.722 318.4 223.87 306.906 181.518 305.516Z" fill="url(#paint5_linear)"/>
<path d="M227.601 322.616C227.601 322.616 234.564 327.768 235.049 336.968L233.781 337.084C233.781 337.084 231.557 327.568 227.536 323.844C223.515 320.127 227.601 322.616 227.601 322.616Z" fill="#82B378"/>
<path d="M298.981 303.55C298.981 303.55 289.839 318.258 278.687 310.687C278.687 310.687 271.899 304.733 270.366 298.611C270.366 298.611 287.324 302.613 287.874 299.412C288.423 296.212 268.66 296.316 268.66 296.316C268.66 296.316 261.742 280.069 262.628 273.856C262.628 273.856 278.881 284.478 278.622 281.246C278.37 278.007 261.968 266.163 261.968 266.163C261.968 266.163 259.699 249.722 269.474 247.55C279.256 245.378 283.891 249.825 284.383 252.263C284.874 254.707 283.962 270.19 285.999 269.88C288.029 269.57 291.727 259.252 290.182 253.336C290.182 253.336 305.782 260.506 304.592 268.917C303.403 277.334 298.05 279.707 297.41 284.924C296.77 290.135 297.998 294.027 299.53 291.473C301.056 288.92 300.519 280.024 304.301 275.964C308.084 271.904 310.456 268.581 311.71 276.507C312.958 284.426 311.31 298.468 305.142 301.009C298.981 303.55 298.981 303.55 298.981 303.55Z" fill="url(#paint6_linear)"/>
<path d="M272.157 255.14C272.157 255.14 283.904 298.023 298.981 303.557C298.981 303.557 305.834 303.667 313.488 308.257L316.507 308.393C316.507 308.393 306.448 303.499 305.148 301.016C305.142 301.01 291.43 309.86 272.157 255.14Z" fill="#82B378"/>
<path d="M313.482 308.251C313.482 308.251 323.082 315.22 335.295 312.058L334.92 310.358C334.92 310.358 321.576 311.38 315.059 307.662C308.549 303.945 313.482 308.251 313.482 308.251Z" fill="#82B378"/>
<path d="M233.464 263.803C233.464 263.803 253.085 249.024 240.983 234.226C240.983 234.226 231.705 225.395 222.861 223.998C222.861 223.998 230.664 247.453 226.21 248.636C221.756 249.819 219.402 221.871 219.402 221.871C219.402 221.871 195.566 214.152 186.902 216.195C186.902 216.195 203.97 237.814 199.367 237.866C194.757 237.917 175.951 216.24 175.951 216.24C175.951 216.24 152.437 215.109 150.601 229.202C148.765 243.296 155.637 249.283 159.148 249.671C162.665 250.059 184.426 246.813 184.245 249.722C184.064 252.632 169.951 259.161 161.391 257.733C161.391 257.733 173.494 278.873 185.234 276.126C196.975 273.378 199.658 265.517 206.944 263.946C214.23 262.381 219.881 263.629 216.467 266.111C213.054 268.594 200.414 268.956 195.152 274.82C189.889 280.684 185.5 284.453 196.852 285.216C208.205 285.978 227.839 281.873 230.645 272.835C233.464 263.803 233.464 263.803 233.464 263.803Z" fill="url(#paint7_linear)"/>
<path d="M161.657 232.027C161.657 232.027 223.748 243.205 233.464 263.803C233.464 263.803 234.492 273.468 241.94 283.709L242.516 287.956C242.516 287.956 234.324 274.36 230.652 272.841C230.659 272.841 241.429 252.341 161.657 232.027Z" fill="url(#paint8_linear)"/>
<path d="M241.94 283.709C241.94 283.709 253.002 296.387 250.08 314.056L247.636 313.746C247.636 313.746 247.39 294.764 241.313 286.024C235.236 277.276 241.94 283.709 241.94 283.709Z" fill="#82B378"/>
<path d="M396.75 139.111C396.75 139.111 384.053 141.814 381.085 143.786C378.118 145.758 382.197 206.303 387.02 226.196H434.299L431.086 143.786C431.086 143.786 421.169 139.208 413.947 139.111C406.726 139.014 396.75 139.111 396.75 139.111Z" fill="url(#paint9_linear)"/>
<path d="M415.267 139.176C415.267 139.176 412.655 143.268 408.989 144.995C403.429 147.606 396.874 143.734 396.596 137.612C396.589 137.482 396.589 137.359 396.583 137.23C396.576 136.797 396.576 136.383 396.57 135.982C396.518 132.032 396.389 129.815 396.389 129.815C396.389 129.815 396.389 129.815 396.395 129.815C396.815 129.64 410.424 124.074 410.411 124.533C410.179 135.213 415.267 139.176 415.267 139.176Z" fill="#FFB27D"/>
<path d="M409.047 127.08C407.735 129.504 403.235 134.249 396.57 135.982C396.518 132.032 396.389 129.814 396.389 129.814C396.389 129.814 396.389 129.814 396.395 129.814C396.777 129.711 409.435 126.362 409.047 127.08Z" fill="#ED975D"/>
<path d="M393.537 129.401C393.537 129.401 408.84 132.989 410.935 123.453C413.03 113.917 416.417 107.963 406.733 105.267C397.048 102.571 394.346 105.797 392.872 108.81C391.398 111.829 389.613 128.224 393.537 129.401Z" fill="#FFB27D"/>
<path d="M410.412 126.052C410.619 126.188 413.916 127.196 420.148 114.809C421.124 112.863 421.797 108.661 419.514 104.944C417.232 101.226 409.138 98.304 402.421 97.0368C395.697 95.7632 394.081 99.5388 392.503 103.327C390.842 107.303 386.045 110.581 386.045 110.581C391.844 113.807 398.826 109.191 401.244 109.954C403.662 110.71 404.516 114.512 404.697 115.734C404.878 116.949 405.156 117.964 408.201 116.878C411.239 115.792 409.578 121.177 409.086 122.205C409.08 122.199 408.666 124.94 410.412 126.052Z" fill="#A9453D"/>
<path d="M355.07 215.994C355.07 215.994 352.685 220.054 351.566 220.125C349.026 220.28 345.101 221.14 344.345 221.625C341.216 223.648 336.703 227.314 336.703 227.314L339.645 227.126C340.02 227.101 340.388 226.991 340.718 226.803C341.849 226.15 344.61 224.624 345.146 224.864C345.832 225.161 347.668 225.523 347.668 225.523L342.677 225.93C342.677 225.93 342.36 226.894 344.254 226.932C346.155 226.971 352.827 226.739 354.023 225.685C355.219 224.624 358.445 218.56 358.445 218.56L355.07 215.994Z" fill="#FFB27D"/>
<path d="M453.087 215.994C453.087 215.994 455.472 220.054 456.591 220.125C459.131 220.28 463.056 221.14 463.812 221.625C466.941 223.648 471.454 227.314 471.454 227.314L468.512 227.126C468.137 227.101 467.769 226.991 467.439 226.803C466.308 226.15 463.547 224.624 463.011 224.864C462.325 225.161 460.489 225.523 460.489 225.523L465.48 225.93C465.48 225.93 465.797 226.894 463.903 226.932C462.002 226.971 455.33 226.739 454.134 225.685C452.938 224.624 449.712 218.56 449.712 218.56L453.087 215.994Z" fill="#FFB27D"/>
<path d="M381.086 143.779C381.086 143.779 373.334 147.891 369.623 166.872C365.912 185.853 351.443 219.368 351.443 219.368C351.443 219.368 351.443 220.881 353.299 221.902C354.889 222.775 356.609 222.581 356.609 222.581C356.609 222.581 375.209 198.693 378.448 192.099C381.687 185.504 388.669 168.598 388.669 168.598L381.086 143.779Z" fill="url(#paint10_linear)"/>
<path d="M431.086 143.779C431.086 143.779 438.837 147.891 442.548 166.872C446.259 185.853 456.597 220.118 456.597 220.118C456.597 220.118 455.925 221.017 454.535 222.058C453.888 222.542 451.393 223.014 451.393 223.014C451.393 223.014 436.963 198.693 433.73 192.099C430.491 185.504 423.509 168.598 423.509 168.598L431.086 143.779Z" fill="url(#paint11_linear)"/>
<path d="M392.826 123.415C392.826 123.415 392.949 125.141 394.145 125.509C395.341 125.878 397.319 125.264 397.649 124.895C397.649 124.889 395.464 123.175 392.826 123.415Z" fill="white"/>
<path d="M396.389 156.399H386.038V161.7H396.389V156.399Z" fill="white"/>
<path d="M396.389 156.399H386.038V157.466H396.389V156.399Z" fill="#F99746"/>
<path d="M465.429 246.076H273.359V363.184H465.429V246.076Z" fill="#001464"/>
<path d="M500.721 226.189H463.418V363.19H500.721V226.189Z" fill="#001445"/>
<path d="M450.981 217.733H399.933L392.789 182.667H443.837L450.981 217.733Z" fill="#83DBE7"/>
<path d="M445.517 217.733H394.469L387.325 182.667H438.373L445.517 217.733Z" fill="#C8F0F5"/>
<path d="M438.975 217.733V226.189H404.794V215.852H432.361L438.975 217.733Z" fill="#83DBE7"/>
<path d="M432.354 215.852H404.794V226.189H432.354V215.852Z" fill="#C8F0F5"/>
<path d="M307.074 218.496L324.672 218.567L330.691 188.841L313.1 188.77L307.074 218.496Z" fill="#47CFE1"/>
<path d="M304.831 218.489L322.429 218.561L328.448 188.834L310.856 188.763L304.831 218.489Z" fill="#9DE2EB"/>
<path d="M313.086 226.19H320.243V217.23H313.086V226.19Z" fill="#9DE2EB"/>
<path d="M312.337 205.883H310.346C309.855 205.883 309.557 205.482 309.687 204.998L310.197 203.006C310.32 202.515 310.824 202.121 311.316 202.121H313.307C313.798 202.121 314.096 202.521 313.966 203.006L313.456 204.998C313.326 205.489 312.829 205.883 312.337 205.883Z" fill="#47CFE1"/>
<path d="M317.127 205.883H315.136C314.645 205.883 314.347 205.482 314.477 204.997L314.987 203.006C315.11 202.514 315.614 202.12 316.106 202.12H318.097C318.588 202.12 318.886 202.521 318.756 203.006L318.246 204.997C318.116 205.488 317.619 205.883 317.127 205.883Z" fill="#47CFE1"/>
<path d="M321.911 205.883H319.92C319.429 205.883 319.131 205.482 319.261 204.997L319.771 203.006C319.894 202.514 320.399 202.12 320.89 202.12H322.881C323.372 202.12 323.67 202.521 323.541 203.006L323.03 204.997C322.901 205.488 322.403 205.883 321.911 205.883Z" fill="#47CFE1"/>
<path d="M311.173 210.434H309.182C308.691 210.434 308.393 210.034 308.522 209.549L309.033 207.558C309.156 207.066 309.66 206.672 310.152 206.672H312.143C312.634 206.672 312.932 207.073 312.802 207.558L312.292 209.549C312.162 210.034 311.664 210.434 311.173 210.434Z" fill="#47CFE1"/>
<path d="M315.958 210.434H313.967C313.476 210.434 313.178 210.033 313.308 209.548L313.818 207.557C313.941 207.066 314.445 206.671 314.937 206.671H316.928C317.419 206.671 317.717 207.072 317.587 207.557L317.077 209.548C316.947 210.033 316.45 210.434 315.958 210.434Z" fill="#47CFE1"/>
<path d="M320.748 210.434H318.757C318.266 210.434 317.968 210.033 318.098 209.548L318.608 207.557C318.731 207.066 319.235 206.671 319.727 206.671H321.718C322.209 206.671 322.507 207.072 322.377 207.557L321.867 209.548C321.737 210.033 321.24 210.434 320.748 210.434Z" fill="#47CFE1"/>
<path d="M310.003 214.986H308.012C307.521 214.986 307.223 214.585 307.353 214.1L307.863 212.109C307.986 211.618 308.49 211.223 308.982 211.223H310.973C311.464 211.223 311.762 211.624 311.632 212.109L311.122 214.1C310.992 214.585 310.495 214.986 310.003 214.986Z" fill="#47CFE1"/>
<path d="M314.794 214.985H312.803C312.312 214.985 312.014 214.584 312.144 214.1L312.654 212.108C312.777 211.617 313.281 211.223 313.773 211.223H315.764C316.255 211.223 316.553 211.623 316.423 212.108L315.913 214.1C315.783 214.584 315.286 214.985 314.794 214.985Z" fill="#47CFE1"/>
<path d="M319.578 214.985H317.587C317.096 214.985 316.798 214.584 316.928 214.1L317.438 212.108C317.561 211.617 318.066 211.223 318.557 211.223H320.548C321.039 211.223 321.337 211.623 321.208 212.108L320.697 214.1C320.568 214.584 320.07 214.985 319.578 214.985Z" fill="#47CFE1"/>
<path d="M322.507 199.87H312.312C311.613 199.87 311.193 199.301 311.374 198.609L313.029 192.254C313.21 191.556 313.928 190.993 314.626 190.993H324.821C325.52 190.993 325.94 191.562 325.759 192.254L324.104 198.609C323.923 199.307 323.205 199.87 322.507 199.87Z" fill="#47CFE1"/>
<path d="M500.723 226.189H289.219V246.075H500.723V226.189Z" fill="#001445"/>
<path d="M472.437 226.189H258.923V246.075H472.437V226.189Z" fill="#001464"/>
<path d="M291.823 214.003L286.082 212.057C285.261 211.779 285.002 210.951 285.5 210.208L291.429 201.35C291.926 200.607 292.993 200.226 293.814 200.503L299.555 202.449C300.376 202.727 300.635 203.555 300.137 204.298L294.209 213.156C293.717 213.899 292.644 214.281 291.823 214.003Z" fill="url(#paint12_linear)"/>
<path d="M287.873 212.664L286.082 212.056L293.814 200.503L295.605 201.105L287.873 212.664Z" fill="#2A4E96"/>
<path d="M224.535 225.814C225.892 226.719 228.911 228.788 228.536 229.098C228.265 229.325 227.683 229.376 227.004 229.247C228.297 230.708 229.383 232.273 230.179 236.669C230.34 237.548 230.159 238.473 229.629 239.19C229.138 239.856 228.388 240.328 227.334 239.533C225.226 237.949 226.241 238.253 223.229 236.081C220.216 233.908 218.361 230.54 218.871 227.909L218.244 224.877L222.796 222.711C222.802 222.724 223.623 224.269 224.535 225.814Z" fill="#ED7D2B"/>
<path d="M221.619 226.163C224.412 225.303 224.321 223.719 224.321 223.719C224.321 223.719 218.658 194.161 218.49 191.523C218.322 188.892 231.459 160.737 231.459 160.737C231.459 160.737 237.167 149.688 232.817 144.122C229.034 139.286 223.934 138.795 219.583 139.642C214.398 140.644 210.383 144.768 209.426 149.96C207.286 161.623 203.181 184.897 203.594 189.843C204.513 200.859 217.449 226.409 217.449 226.409C217.449 226.409 219.427 226.842 221.619 226.163Z" fill="url(#paint13_linear)"/>
<path d="M250.304 363.365H225.763C225.53 363.32 225.349 363.268 225.239 363.216C223.604 362.395 224.114 356.124 224.308 354.184C224.347 353.822 224.373 353.616 224.373 353.616C224.373 353.616 233.004 346.711 234.187 351.999C234.226 352.161 234.271 352.329 234.316 352.484C235.816 357.43 242.514 359.673 246.38 360.3C249.341 360.779 250.11 362.505 250.304 363.365Z" fill="#233862"/>
<path d="M245.359 221.838C245.359 221.838 244.046 238.189 242.508 257.849C240.917 278.155 239.081 301.992 238.176 314.974C237.892 319.06 237.704 322.073 237.646 323.559C237.213 334.343 235.487 351.605 235.487 351.605C235.487 351.605 231.388 355.704 223.19 353.977C223.19 353.977 215.885 329.339 213.796 303.272C213.764 302.845 213.732 302.419 213.7 301.986C213.053 293.167 212.29 281.097 211.553 268.923C210.079 244.473 208.734 219.576 208.734 219.576L245.359 221.838Z" fill="url(#paint14_linear)"/>
<path d="M283.593 363.364H259.052C258.819 363.319 258.638 363.267 258.528 363.216C256.893 362.395 257.403 356.123 257.597 354.184C257.636 353.822 257.662 353.615 257.662 353.615C257.662 353.615 266.293 346.71 267.482 351.999C267.521 352.16 267.566 352.328 267.612 352.484C269.112 357.429 275.809 359.673 279.676 360.3C282.63 360.778 283.399 362.504 283.593 363.364Z" fill="#2C3A64"/>
<path d="M250.227 221.204C249.593 223.209 267.482 351.999 267.482 351.999C267.482 351.999 263.59 356.544 256.498 354.1C256.498 354.1 232.345 303.129 235.241 291.835C236.683 286.21 204.351 240.457 209.543 217.687C214.74 194.911 250.227 221.204 250.227 221.204Z" fill="url(#paint15_linear)"/>
<path d="M216.861 139.9C216.861 139.9 225.156 147.38 233.748 142.59C233.748 142.59 235.054 137.599 234.601 134.107C234.543 133.681 234.491 133.26 234.446 132.866C233.955 128.935 233.787 126.718 233.787 126.718C233.787 126.718 233.787 126.718 233.78 126.718C233.341 126.601 219.111 122.923 219.189 123.382C220.87 133.965 216.861 139.9 216.861 139.9Z" fill="#FFB27D"/>
<path d="M220.882 125.729C222.512 127.959 227.619 132.058 234.446 132.873C233.955 128.942 233.787 126.724 233.787 126.724C233.787 126.724 233.787 126.724 233.78 126.724C233.386 126.673 220.398 125.076 220.882 125.729Z" fill="#ED975D"/>
<path d="M236.547 125.929C236.547 125.929 221.891 131.573 218.516 122.393C215.142 113.212 210.978 107.756 220.197 103.76C229.416 99.7715 232.533 102.603 234.401 105.39C236.269 108.182 240.278 124.222 236.547 125.929Z" fill="#FFB27D"/>
<path d="M210.331 105.196C210.175 105.067 209.865 104.995 209.199 105.067C209.199 105.067 209.671 104.653 210.376 104.523C210.369 103.586 210.596 101.879 212.115 101.233C212.115 101.233 211.339 101.821 211.384 102.817C212.917 100.644 216.615 98.6468 227.618 97.7675C242.113 96.6038 238.861 106.528 237.186 107.918C235.505 109.308 230.366 107.058 226.952 107.885C223.545 108.713 223.687 113.807 222.627 114.68C221.567 115.553 221.832 114.266 220.132 113.807C218.431 113.342 218.703 115.992 219.433 117.628C220.164 119.264 218.347 121.863 218.347 121.863C218.347 121.863 218.347 121.863 215.768 119.846C213.188 117.829 209.503 108.125 210.163 105.823C210.214 105.61 210.266 105.403 210.331 105.196Z" fill="#2C3A64"/>
<path d="M253.815 228.756C253.543 228.995 253.226 229.144 252.851 229.15C249.386 229.189 239.326 231.361 230.754 230.695C223.526 230.178 217.093 228.2 210.169 225.297C209.251 224.909 207.124 223.849 207.15 222.834C207.156 221.715 207.221 220.099 207.312 218.063C207.622 210.977 208.171 198.79 207.001 184.781C206.788 182.169 206.652 179.583 206.575 177.029C206.387 170.376 206.678 163.995 207.454 158.254C208.896 147.587 213.815 139.409 218.658 135.607C218.658 135.607 221.502 136.706 225.194 138.42C228.607 139.997 231.342 139.137 234.517 138.42L238.415 142.118C242.384 145.628 246.755 150.425 248.791 157.815C248.94 158.364 249.089 158.94 249.224 159.56C249.923 162.593 250.524 166.465 251.041 170.823C251.642 175.852 252.127 181.529 252.515 187.315C252.541 187.658 252.56 188 252.586 188.343C252.761 190.974 252.922 193.618 253.058 196.224C253.11 197.161 253.155 198.099 253.2 199.03C253.265 200.439 253.323 201.829 253.369 203.199V203.387C253.427 203.891 253.44 204.454 253.453 204.958C253.491 205.992 253.53 207.007 253.563 208.003C253.976 219.698 254.022 228.581 253.815 228.756Z" fill="url(#paint16_linear)"/>
<path d="M284.749 205.469C286.34 205.107 289.921 204.344 289.889 204.829C289.87 205.178 289.501 205.637 288.945 206.045C290.891 206.109 292.779 206.4 296.516 208.85C297.266 209.342 297.809 210.105 297.97 210.984C298.119 211.799 297.938 212.665 296.639 212.885C294.04 213.318 294.958 212.794 291.311 213.479C287.665 214.165 283.948 213.195 282.383 211.01L279.752 209.374L281.316 204.583C281.31 204.596 282.997 205.068 284.749 205.469Z" fill="#FFB27D"/>
<path d="M282.991 207.829C284.291 205.21 283.082 204.189 283.082 204.189C283.082 204.189 257.745 187.936 255.722 186.248C253.698 184.555 242.326 155.649 242.326 155.649C242.326 155.649 238.247 143.902 231.213 143.224C225.103 142.635 221.237 145.997 218.852 149.734C216.007 154.188 216.233 159.936 219.343 164.203C226.325 173.784 240.374 192.791 244.246 195.901C252.864 202.818 280.302 211.035 280.302 211.035C280.302 211.035 281.97 209.878 282.991 207.829Z" fill="url(#paint17_linear)"/>
<path d="M648.183 306.607H508.324V311.889H648.183V306.607Z" fill="#D2E4FF"/>
<path d="M608.448 190.547C607.963 190.547 607.569 190.153 607.569 189.668V179.905C607.569 179.136 606.941 178.509 606.172 178.509H584.689C582.943 178.509 581.527 177.093 581.527 175.348V167.997C581.527 166.251 582.943 164.835 584.689 164.835H593.604C594.089 164.835 594.483 165.23 594.483 165.715C594.483 166.2 594.089 166.594 593.604 166.594H584.689C583.919 166.594 583.292 167.221 583.292 167.99V175.341C583.292 176.11 583.919 176.738 584.689 176.738H606.172C607.918 176.738 609.334 178.153 609.334 179.899V189.661C609.334 190.153 608.939 190.547 608.448 190.547Z" fill="#AED3FF"/>
<path d="M608.26 193.844C606.844 193.844 605.681 192.687 605.681 191.265V182.343C605.681 180.927 606.838 179.763 608.26 179.763C609.676 179.763 610.84 180.927 610.84 182.343V191.265C610.84 192.687 609.683 193.844 608.26 193.844Z" fill="#98C6F4"/>
<path d="M629.452 162.269V169.173C629.452 170.971 627.991 172.432 626.194 172.432H590.449C588.652 172.432 587.19 170.977 587.19 169.173V162.269C587.19 160.471 588.652 159.01 590.449 159.01H626.194C627.991 159.01 629.452 160.471 629.452 162.269Z" fill="#AED3FF"/>
<path d="M629.452 162.269V164.648C629.452 166.445 627.991 167.906 626.194 167.906H590.449C588.652 167.906 587.19 166.452 587.19 164.648V162.269C587.19 160.471 588.652 159.01 590.449 159.01H626.194C627.991 159.01 629.452 160.471 629.452 162.269Z" fill="#D2E4FF"/>
<path d="M546.416 190.547C545.931 190.547 545.536 190.153 545.536 189.668V179.905C545.536 179.136 544.909 178.509 544.14 178.509H522.656C520.911 178.509 519.495 177.093 519.495 175.348V167.997C519.495 166.251 520.911 164.835 522.656 164.835H531.572C532.057 164.835 532.451 165.23 532.451 165.715C532.451 166.2 532.057 166.594 531.572 166.594H522.656C521.887 166.594 521.26 167.221 521.26 167.99V175.341C521.26 176.11 521.887 176.738 522.656 176.738H544.14C545.885 176.738 547.301 178.153 547.301 179.899V189.661C547.295 190.153 546.9 190.547 546.416 190.547Z" fill="#AED3FF"/>
<path d="M546.228 193.844C544.812 193.844 543.648 192.68 543.648 191.265V182.343C543.648 180.927 544.812 179.763 546.228 179.763C547.644 179.763 548.808 180.92 548.808 182.343V191.265C548.808 192.687 547.644 193.844 546.228 193.844Z" fill="#98C6F4"/>
<path d="M567.42 162.269V169.173C567.42 170.971 565.959 172.432 564.162 172.432H528.417C526.619 172.432 525.158 170.977 525.158 169.173V162.269C525.158 160.471 526.619 159.01 528.417 159.01H564.162C565.959 159.01 567.42 160.471 567.42 162.269Z" fill="#98C6F4"/>
<path d="M567.42 162.269V164.648C567.42 166.445 565.959 167.906 564.162 167.906H528.417C526.619 167.906 525.158 166.452 525.158 164.648V162.269C525.158 160.471 526.619 159.01 528.417 159.01H564.162C565.959 159.01 567.42 160.471 567.42 162.269Z" fill="#D2E4FF"/>
<path d="M650.685 82.8848H644.407V363.894H650.685V82.8848Z" fill="#D2E4FF"/>
<path d="M511.039 82.8853H504.762V363.895H511.039V82.8853Z" fill="#D2E4FF"/>
<path d="M648.183 82.8848H508.324V88.1667H648.183V82.8848Z" fill="#D2E4FF"/>
<path d="M648.183 141.135H508.324V146.417H648.183V141.135Z" fill="#D2E4FF"/>
<path d="M648.183 199.385H508.324V204.667H648.183V199.385Z" fill="#D2E4FF"/>
<path d="M648.183 257.628H508.324V262.91H648.183V257.628Z" fill="#D2E4FF"/>
<path d="M555.519 218.004V232.459C555.519 233.798 554.426 234.89 553.088 234.89H553.017C551.679 234.89 550.586 233.798 550.586 232.459V218.004C550.586 216.665 551.679 215.573 553.017 215.573H553.088C554.42 215.566 555.519 216.665 555.519 218.004Z" fill="#D2E4FF"/>
<path d="M557.911 241.776H548.181C545.582 241.776 543.455 239.649 543.455 237.05C543.455 234.451 545.582 232.324 548.181 232.324H557.911C560.51 232.324 562.637 234.451 562.637 237.05C562.643 239.649 560.516 241.776 557.911 241.776Z" fill="#D2E4FF"/>
<path d="M562.643 237.05H543.461V248.9H562.643V237.05Z" fill="#98C6F4"/>
<path d="M552.416 217.946C552.416 217.597 552.7 217.306 553.056 217.306C553.405 217.306 553.696 217.59 553.696 217.946C553.696 218.295 553.412 218.586 553.056 218.586C552.7 218.586 552.416 218.301 552.416 217.946Z" fill="#98C6F4"/>
<path d="M527.014 218.004V232.459C527.014 233.798 525.921 234.89 524.583 234.89H524.512C523.174 234.89 522.081 233.798 522.081 232.459V218.004C522.081 216.665 523.174 215.573 524.512 215.573H524.583C525.921 215.566 527.014 216.665 527.014 218.004Z" fill="#D2E4FF"/>
<path d="M526.503 241.776H522.585C519.986 241.776 517.859 239.649 517.859 237.05C517.859 234.451 519.986 232.324 522.585 232.324H526.503C529.102 232.324 531.229 234.451 531.229 237.05C531.236 239.649 529.109 241.776 526.503 241.776Z" fill="#D2E4FF"/>
<path d="M531.236 237.05H517.859V248.9H531.236V237.05Z" fill="#98C6F4"/>
<path d="M523.911 217.946C523.911 217.597 524.196 217.306 524.551 217.306C524.907 217.306 525.191 217.59 525.191 217.946C525.191 218.295 524.907 218.586 524.551 218.586C524.196 218.586 523.911 218.301 523.911 217.946Z" fill="#98C6F4"/>
<path d="M588.924 218.004V232.459C588.924 233.798 587.831 234.89 586.493 234.89H586.422C585.084 234.89 583.991 233.798 583.991 232.459V218.004C583.991 216.665 585.084 215.573 586.422 215.573H586.493C587.831 215.566 588.924 216.665 588.924 218.004Z" fill="#D2E4FF"/>
<path d="M593.327 241.776H579.595C576.996 241.776 574.869 239.649 574.869 237.05C574.869 234.451 576.996 232.324 579.595 232.324H593.327C595.926 232.324 598.053 234.451 598.053 237.05C598.053 239.649 595.926 241.776 593.327 241.776Z" fill="#D2E4FF"/>
<path d="M598.053 237.05H574.869V248.9H598.053V237.05Z" fill="#98C6F4"/>
<path d="M585.821 217.946C585.821 217.597 586.106 217.306 586.461 217.306C586.81 217.306 587.101 217.59 587.101 217.946C587.101 218.295 586.817 218.586 586.461 218.586C586.106 218.586 585.821 218.301 585.821 217.946Z" fill="#98C6F4"/>
<path d="M623.731 214.3V230.488C623.731 231.988 622.503 233.21 621.009 233.21H620.932C619.432 233.21 618.21 231.982 618.21 230.488V214.3C618.21 212.8 619.438 211.578 620.932 211.578H621.009C622.509 211.572 623.731 212.8 623.731 214.3Z" fill="#D2E4FF"/>
<path d="M628.658 240.923H613.284C610.375 240.923 607.989 238.538 607.989 235.628C607.989 232.719 610.375 230.333 613.284 230.333H628.658C631.567 230.333 633.953 232.719 633.953 235.628C633.953 238.544 631.574 240.923 628.658 240.923Z" fill="#D2E4FF"/>
<path d="M633.953 235.628H607.989V248.901H633.953V235.628Z" fill="#98C6F4"/>
<path d="M620.26 214.236C620.26 213.841 620.577 213.524 620.971 213.524C621.365 213.524 621.682 213.841 621.682 214.236C621.682 214.63 621.365 214.947 620.971 214.947C620.577 214.953 620.26 214.63 620.26 214.236Z" fill="#98C6F4"/>
<path d="M546.934 286.766H522.612V306.717H546.934V286.766Z" fill="#98C6F4"/>
<path d="M548.11 286.767H520.873V288.266H548.11V286.767Z" fill="#1C468A"/>
<path d="M522.612 289.65C522.612 289.65 529.155 288.266 534.773 288.266C540.391 288.266 546.934 289.65 546.934 289.65V288.266H522.612V289.65Z" fill="#89BDE8"/>
<path d="M546.934 293.503H522.612V301.054H546.934V293.503Z" fill="#D2E4FF"/>
<path d="M584.734 282.099H554.724V306.711H584.734V282.099Z" fill="#98C6F4"/>
<path d="M586.182 282.099H552.577V283.948H586.182V282.099Z" fill="#1C468A"/>
<path d="M554.724 285.655C554.724 285.655 562.792 283.948 569.729 283.948C576.66 283.948 584.734 285.655 584.734 285.655V283.948H554.724V285.655Z" fill="#89BDE8"/>
<path d="M584.734 290.419H554.724V299.729H584.734V290.419Z" fill="#D2E4FF"/>
<path d="M636.585 273.797H596.456V306.717H636.585V273.797Z" fill="#98C6F4"/>
<path d="M638.523 273.798H593.585V276.274H638.523V273.798Z" fill="#739AF0"/>
<path d="M596.456 278.556C596.456 278.556 607.253 276.273 616.524 276.273C625.794 276.273 636.591 278.556 636.591 278.556V276.273H596.463V278.556H596.456Z" fill="#89BDE8"/>
<path d="M636.585 284.917H596.456V297.369H636.585V284.917Z" fill="#D2E4FF"/>
<path d="M528.204 117.091C528.178 117.091 528.152 117.091 528.126 117.091C527.622 117.065 527.182 116.833 526.82 116.393C524.441 113.523 525.656 101.705 526.587 94.9098C526.646 94.5089 526.768 94.1275 526.949 93.7849C526.697 93.2224 526.445 92.828 526.212 92.6341C526.064 92.5113 526.012 92.55 525.973 92.5694C523.93 93.8754 523.568 101.937 523.601 104.931L522.902 104.937C522.889 103.793 522.864 93.7267 525.598 91.9811C525.792 91.8583 526.187 91.7096 526.652 92.091C526.911 92.2979 527.163 92.6535 527.402 93.1125C528.042 92.3819 528.98 91.9229 530.001 91.9229H548.006C551.562 91.9229 554.458 94.8193 554.458 98.375V100.735H553.76V98.375C553.76 95.2007 551.18 92.6211 548.006 92.6211H530.001C529.07 92.6211 528.236 93.0931 527.732 93.8172C528.663 96.0024 529.445 99.6422 529.917 102.694C530.253 104.866 531.236 112.204 529.969 115.52C529.477 116.807 528.753 117.091 528.204 117.091ZM527.324 94.7417C527.305 94.8257 527.286 94.9162 527.273 95.0067C526.859 98.0195 526.329 102.474 526.174 106.618C525.934 112.876 526.684 115.145 527.35 115.953C527.59 116.238 527.848 116.387 528.152 116.4C528.327 116.406 528.87 116.432 529.309 115.281C530.861 111.24 529.083 99.6422 527.324 94.7417Z" fill="#AED3FF"/>
<path d="M524.971 104.304H521.506V105.991H524.971V104.304Z" fill="#D2E4FF"/>
<path d="M522.481 105.849H522.048V108.06H522.481V105.849Z" fill="#D2E4FF"/>
<path d="M522.481 106.955H522.048V108.06H522.481V106.955Z" fill="#9EC7EF"/>
<path d="M524.42 105.849H523.987V108.06H524.42V105.849Z" fill="#D2E4FF"/>
<path d="M524.42 106.954H523.987V108.06H524.42V106.954Z" fill="#9EC7EF"/>
<path d="M534.914 138.439L528.404 134.411C527.46 133.829 527.169 132.588 527.751 131.644L547.812 99.209C548.394 98.2651 549.635 97.9741 550.579 98.556L557.089 102.584C558.033 103.166 558.324 104.407 557.742 105.351L537.681 137.786C537.093 138.73 535.858 139.021 534.914 138.439Z" fill="#D2E4FF"/>
<path d="M542.252 112.637C543.267 110.995 545.426 110.484 547.075 111.499C548.717 112.514 549.228 114.673 548.213 116.322C547.198 117.964 545.038 118.475 543.39 117.46C541.741 116.438 541.237 114.285 542.252 112.637Z" fill="#AED3FF"/>
<path d="M543.242 113.251C543.448 112.915 543.895 112.805 544.231 113.018C544.567 113.225 544.677 113.671 544.463 114.007C544.257 114.343 543.81 114.453 543.468 114.24C543.138 114.033 543.035 113.593 543.242 113.251Z" fill="#D2E4FF"/>
<path d="M546.08 115.003C546.287 114.667 546.733 114.557 547.075 114.771C547.411 114.977 547.521 115.423 547.308 115.766C547.101 116.102 546.655 116.212 546.312 115.999C545.97 115.786 545.866 115.339 546.08 115.003Z" fill="#D2E4FF"/>
<path d="M536.873 121.332C537.888 119.69 540.047 119.179 541.696 120.194C543.338 121.209 543.849 123.369 542.834 125.017C541.819 126.659 539.66 127.17 538.011 126.155C536.362 125.134 535.858 122.974 536.873 121.332Z" fill="#AED3FF"/>
<path d="M537.868 121.946C538.075 121.61 538.521 121.5 538.863 121.713C539.2 121.92 539.309 122.366 539.096 122.709C538.889 123.045 538.443 123.155 538.1 122.942C537.758 122.728 537.654 122.282 537.868 121.946Z" fill="#D2E4FF"/>
<path d="M540.7 123.698C540.907 123.362 541.353 123.252 541.696 123.465C542.032 123.672 542.142 124.118 541.929 124.461C541.722 124.797 541.276 124.907 540.933 124.694C540.597 124.48 540.487 124.034 540.7 123.698Z" fill="#D2E4FF"/>
<path d="M531.494 130.027C532.509 128.385 534.668 127.875 536.317 128.89C537.959 129.905 538.469 132.064 537.454 133.713C536.439 135.355 534.28 135.865 532.631 134.85C530.989 133.829 530.479 131.67 531.494 130.027Z" fill="#AED3FF"/>
<path d="M532.49 130.642C532.696 130.306 533.143 130.196 533.479 130.409C533.815 130.616 533.925 131.062 533.712 131.405C533.505 131.741 533.059 131.851 532.716 131.638C532.386 131.424 532.283 130.978 532.49 130.642Z" fill="#D2E4FF"/>
<path d="M535.321 132.394C535.528 132.058 535.974 131.948 536.317 132.161C536.653 132.368 536.763 132.814 536.55 133.15C536.343 133.486 535.897 133.596 535.554 133.383C535.218 133.176 535.114 132.73 535.321 132.394Z" fill="#D2E4FF"/>
<path d="M547.631 103.941C548.646 102.299 550.805 101.788 552.454 102.803C554.096 103.818 554.607 105.978 553.592 107.626C552.577 109.268 550.417 109.779 548.769 108.764C547.12 107.749 546.609 105.59 547.631 103.941Z" fill="#AED3FF"/>
<path d="M548.619 104.555C548.826 104.219 549.272 104.109 549.609 104.323C549.945 104.53 550.055 104.976 549.841 105.318C549.635 105.655 549.188 105.764 548.846 105.551C548.516 105.338 548.413 104.898 548.619 104.555Z" fill="#D2E4FF"/>
<path d="M551.452 106.307C551.658 105.971 552.104 105.861 552.441 106.075C552.777 106.282 552.887 106.728 552.673 107.064C552.466 107.4 552.02 107.51 551.678 107.297C551.348 107.09 551.245 106.65 551.452 106.307Z" fill="#D2E4FF"/>
<path d="M571.455 120.104C571.429 120.104 571.41 120.104 571.39 120.104C570.957 120.084 570.576 119.877 570.265 119.502C568.216 117.033 569.263 106.857 570.065 101.012C570.11 100.67 570.22 100.34 570.375 100.049C570.156 99.5642 569.942 99.2216 569.742 99.0599C569.612 98.9565 569.567 98.9823 569.535 99.0017C567.776 100.127 567.466 107.064 567.492 109.643L566.891 109.65C566.878 108.667 566.858 100.004 569.212 98.4975C569.38 98.394 569.716 98.2647 570.123 98.5944C570.343 98.7755 570.563 99.0793 570.77 99.4737C571.319 98.8466 572.127 98.4522 573.007 98.4522H588.503C591.568 98.4522 594.057 100.941 594.057 104.006V106.036H593.456V104.006C593.456 101.277 591.232 99.0535 588.503 99.0535H573.007C572.205 99.0535 571.487 99.4608 571.054 100.081C571.856 101.963 572.528 105.092 572.935 107.717C573.22 109.585 574.073 115.901 572.981 118.759C572.554 119.858 571.927 120.104 571.455 120.104ZM570.699 100.87C570.679 100.941 570.666 101.019 570.653 101.096C570.298 103.689 569.845 107.523 569.709 111.085C569.503 116.47 570.149 118.429 570.718 119.121C570.925 119.367 571.151 119.496 571.41 119.509C571.565 119.515 572.024 119.541 572.405 118.546C573.744 115.067 572.218 105.085 570.699 100.87Z" fill="#AED3FF"/>
<path d="M568.669 109.1H565.688V110.555H568.669V109.1Z" fill="#D2E4FF"/>
<path d="M566.535 110.425H566.16V112.332H566.535V110.425Z" fill="#D2E4FF"/>
<path d="M566.535 111.382H566.16V112.333H566.535V111.382Z" fill="#9EC7EF"/>
<path d="M568.203 110.425H567.828V112.332H568.203V110.425Z" fill="#D2E4FF"/>
<path d="M568.203 111.382H567.828V112.333H568.203V111.382Z" fill="#9EC7EF"/>
<path d="M582.135 130.946L576.181 127.267C575.463 126.821 575.244 125.883 575.683 125.166L588.439 104.542C588.885 103.825 589.822 103.605 590.54 104.045L596.494 107.723C597.212 108.163 597.432 109.107 596.992 109.824L584.236 130.448C583.79 131.165 582.846 131.385 582.135 130.946Z" fill="#D2E4FF"/>
<path d="M583.551 116.277C584.424 114.861 586.286 114.421 587.701 115.3C589.117 116.173 589.557 118.035 588.678 119.451C587.805 120.867 585.943 121.306 584.527 120.427C583.111 119.548 582.672 117.686 583.551 116.277Z" fill="#AED3FF"/>
<path d="M584.405 116.8C584.586 116.509 584.967 116.419 585.258 116.6C585.549 116.781 585.64 117.162 585.459 117.453C585.278 117.744 584.896 117.835 584.605 117.653C584.314 117.472 584.224 117.091 584.405 116.8Z" fill="#D2E4FF"/>
<path d="M586.842 118.306C587.023 118.016 587.405 117.925 587.696 118.106C587.987 118.287 588.077 118.668 587.896 118.959C587.715 119.25 587.334 119.341 587.043 119.16C586.752 118.985 586.661 118.604 586.842 118.306Z" fill="#D2E4FF"/>
<path d="M578.923 123.757C579.796 122.341 581.658 121.901 583.073 122.78C584.489 123.653 584.929 125.515 584.05 126.931C583.177 128.347 581.315 128.786 579.899 127.907C578.483 127.028 578.044 125.172 578.923 123.757Z" fill="#AED3FF"/>
<path d="M579.777 124.286C579.958 123.995 580.339 123.905 580.63 124.086C580.921 124.267 581.012 124.648 580.831 124.939C580.65 125.23 580.268 125.321 579.977 125.14C579.686 124.959 579.596 124.577 579.777 124.286Z" fill="#D2E4FF"/>
<path d="M582.213 125.793C582.394 125.502 582.776 125.412 583.067 125.593C583.358 125.774 583.448 126.155 583.267 126.446C583.086 126.737 582.705 126.828 582.414 126.647C582.123 126.466 582.032 126.084 582.213 125.793Z" fill="#D2E4FF"/>
<path d="M588.174 108.79C589.047 107.374 590.909 106.934 592.325 107.814C593.741 108.686 594.18 110.548 593.301 111.964C592.428 113.38 590.566 113.82 589.151 112.94C587.741 112.061 587.302 110.206 588.174 108.79Z" fill="#AED3FF"/>
<path d="M589.034 109.32C589.215 109.029 589.596 108.939 589.887 109.12C590.178 109.301 590.269 109.682 590.088 109.973C589.907 110.264 589.525 110.355 589.234 110.173C588.943 109.992 588.853 109.611 589.034 109.32Z" fill="#D2E4FF"/>
<path d="M591.471 110.826C591.652 110.536 592.034 110.445 592.325 110.626C592.616 110.807 592.706 111.189 592.525 111.479C592.344 111.77 591.963 111.861 591.672 111.68C591.381 111.499 591.29 111.117 591.471 110.826Z" fill="#D2E4FF"/>
<path d="M608.792 120.104C608.766 120.104 608.747 120.104 608.727 120.104C608.294 120.085 607.913 119.878 607.602 119.503C605.553 117.033 606.6 106.857 607.402 101.013C607.447 100.67 607.557 100.34 607.712 100.05C607.492 99.5647 607.279 99.222 607.079 99.0604C606.949 98.957 606.904 98.9828 606.872 99.0022C605.113 100.127 604.803 107.064 604.829 109.644L604.228 109.65C604.215 108.667 604.195 100.004 606.549 98.498C606.717 98.3945 607.053 98.2652 607.46 98.5949C607.68 98.776 607.9 99.0798 608.107 99.4742C608.656 98.8471 609.464 98.4527 610.344 98.4527H625.84C628.905 98.4527 631.394 100.942 631.394 104.006V106.036H630.792V104.006C630.792 101.278 628.568 99.054 625.84 99.054H610.344C609.542 99.054 608.824 99.4613 608.391 100.082C609.193 101.963 609.865 105.092 610.272 107.717C610.557 109.586 611.41 115.902 610.318 118.759C609.891 119.858 609.264 120.104 608.792 120.104ZM608.042 100.871C608.023 100.942 608.01 101.019 607.997 101.097C607.641 103.689 607.189 107.523 607.053 111.085C606.846 116.471 607.492 118.43 608.061 119.121C608.268 119.367 608.495 119.496 608.753 119.509C608.908 119.516 609.367 119.542 609.749 118.546C611.087 115.068 609.555 105.086 608.042 100.871Z" fill="#AED3FF"/>
<path d="M606.012 109.101H603.031V110.555H606.012V109.101Z" fill="#D2E4FF"/>
<path d="M603.872 110.426H603.497V112.333H603.872V110.426Z" fill="#D2E4FF"/>
<path d="M603.871 111.383H603.496V112.333H603.871V111.383Z" fill="#9EC7EF"/>
<path d="M605.546 110.426H605.171V112.333H605.546V110.426Z" fill="#D2E4FF"/>
<path d="M605.546 111.383H605.171V112.333H605.546V111.383Z" fill="#9EC7EF"/>
<path d="M623.713 124.474L617.41 120.576C616.789 120.194 616.595 119.38 616.983 118.759L625.886 104.368C626.267 103.747 627.082 103.553 627.702 103.941L634.006 107.84C634.626 108.221 634.82 109.036 634.432 109.656L625.53 124.048C625.149 124.662 624.334 124.856 623.713 124.474Z" fill="#D2E4FF"/>
<path d="M620.888 116.277C621.761 114.861 623.623 114.421 625.038 115.3C626.454 116.173 626.894 118.035 626.015 119.451C625.142 120.867 623.28 121.306 621.864 120.427C620.448 119.548 620.009 117.686 620.888 116.277Z" fill="#AED3FF"/>
<path d="M621.742 116.8C621.923 116.509 622.304 116.419 622.595 116.6C622.886 116.781 622.977 117.162 622.796 117.453C622.615 117.744 622.233 117.835 621.942 117.653C621.651 117.472 621.561 117.091 621.742 116.8Z" fill="#D2E4FF"/>
<path d="M624.178 118.306C624.359 118.016 624.741 117.925 625.032 118.106C625.323 118.287 625.413 118.668 625.232 118.959C625.051 119.25 624.67 119.341 624.379 119.16C624.088 118.985 623.997 118.604 624.178 118.306Z" fill="#D2E4FF"/>
<path d="M625.517 108.79C626.389 107.374 628.251 106.934 629.667 107.814C631.083 108.686 631.523 110.548 630.643 111.964C629.771 113.38 627.909 113.82 626.493 112.94C625.077 112.061 624.637 110.206 625.517 108.79Z" fill="#AED3FF"/>
<path d="M626.371 109.32C626.552 109.029 626.933 108.939 627.224 109.12C627.515 109.301 627.606 109.682 627.424 109.973C627.243 110.264 626.862 110.355 626.571 110.173C626.28 109.992 626.19 109.611 626.371 109.32Z" fill="#D2E4FF"/>
<path d="M628.807 110.826C628.988 110.536 629.37 110.445 629.661 110.626C629.952 110.807 630.042 111.189 629.861 111.479C629.68 111.77 629.299 111.861 629.008 111.68C628.717 111.499 628.626 111.117 628.807 110.826Z" fill="#D2E4FF"/>
<path d="M332.107 358.083C331.629 357.883 331.396 357.334 331.59 356.855L335.553 347.19C335.863 346.427 335.501 345.548 334.739 345.237L313.469 336.523C311.742 335.818 310.915 333.84 311.62 332.113L314.6 324.834C315.305 323.108 317.283 322.28 319.009 322.985L327.834 326.605C328.319 326.806 328.545 327.355 328.351 327.834C328.151 328.312 327.601 328.545 327.123 328.351L318.298 324.73C317.535 324.42 316.656 324.782 316.346 325.545L313.365 332.825C313.055 333.587 313.417 334.467 314.18 334.777L335.45 343.492C337.176 344.197 338.003 346.175 337.299 347.901L333.336 357.566C333.142 358.051 332.592 358.284 332.107 358.083Z" fill="#AED3FF"/>
<path d="M331.667 361.717L329.501 360.831C328.693 360.501 328.299 359.564 328.635 358.756L333.141 347.765C333.471 346.957 334.408 346.563 335.216 346.899L337.382 347.785C338.19 348.114 338.585 349.052 338.248 349.86L333.742 360.851C333.406 361.659 332.475 362.047 331.667 361.717Z" fill="url(#paint18_linear)"/>
<path d="M364.381 338.611L361.575 345.451C360.845 347.229 358.808 348.082 357.03 347.352L321.641 332.844C319.863 332.113 319.009 330.083 319.74 328.299L322.539 321.459C323.27 319.681 325.306 318.828 327.084 319.558L362.474 334.066C364.258 334.796 365.112 336.826 364.381 338.611Z" fill="url(#paint19_linear)"/>
<path d="M364.38 338.611L363.417 340.964C362.687 342.742 360.65 343.595 358.872 342.865L323.482 328.357C321.705 327.627 320.851 325.597 321.582 323.812L322.545 321.459C323.276 319.681 325.312 318.828 327.09 319.558L362.48 334.066C364.258 334.796 365.111 336.826 364.38 338.611Z" fill="url(#paint20_linear)"/>
<path d="M293.227 331.351C292.858 331.351 292.503 331.144 292.335 330.782C292.102 330.29 292.309 329.695 292.807 329.463C303.351 324.472 316.094 318.492 316.902 318.369C317.445 318.291 317.943 318.66 318.027 319.203C318.104 319.72 317.762 320.205 317.264 320.315C316.107 320.683 302.536 327.045 293.66 331.247C293.511 331.318 293.369 331.351 293.227 331.351ZM317.244 320.321C317.225 320.328 317.212 320.328 317.193 320.328C317.199 320.328 317.219 320.328 317.244 320.321Z" fill="#D2E4FF"/>
<path d="M369.424 331.254C360.541 327.045 346.977 320.69 345.82 320.322C345.316 320.212 344.979 319.727 345.057 319.21C345.135 318.666 345.639 318.298 346.182 318.376C346.997 318.498 359.733 324.472 370.277 329.47C370.769 329.702 370.982 330.291 370.749 330.788C370.581 331.144 370.225 331.357 369.857 331.357C369.702 331.351 369.56 331.319 369.424 331.254ZM345.885 320.334C345.865 320.334 345.846 320.328 345.833 320.328C345.852 320.328 345.872 320.328 345.885 320.334Z" fill="#D2E4FF"/>
<path d="M302.401 365.26C302.395 365.26 302.388 365.26 302.382 365.266C302.266 365.292 302.156 365.305 302.046 365.305C301.923 365.305 301.807 365.292 301.69 365.26C301.102 365.124 300.611 364.658 300.475 364.031L300.067 362.124L298.425 354.476L297.753 351.34L296.111 343.692L295.439 340.557L293.725 332.553L293.312 330.639C293.383 330.491 293.486 330.355 293.602 330.232C293.887 329.948 294.275 329.773 294.708 329.773H296.415L297.087 332.908L298.729 340.557L299.402 343.692L301.044 351.34L301.716 354.476L303.358 362.124L303.623 363.352C303.804 364.219 303.261 365.072 302.401 365.26Z" fill="#D2E4FF"/>
<path d="M370.834 330.646L370.42 332.566L368.7 340.563L368.028 343.699L366.386 351.347L365.713 354.482L364.071 362.13L363.664 364.038C363.528 364.671 363.043 365.13 362.455 365.266C362.338 365.292 362.222 365.311 362.099 365.311C361.989 365.311 361.873 365.298 361.763 365.272C361.757 365.272 361.75 365.272 361.744 365.266C360.884 365.072 360.341 364.225 360.528 363.359L360.793 362.13L362.435 354.482L363.108 351.347L364.75 343.699L365.422 340.563L367.064 332.915L367.737 329.779H369.444C370.051 329.786 370.575 330.135 370.834 330.646Z" fill="#D2E4FF"/>
<path d="M374.195 331.351C374.195 331.784 374.007 332.172 373.697 332.456C373.652 332.495 373.613 332.527 373.568 332.566C373.277 332.786 372.902 332.915 372.507 332.915H292.031C291.63 332.915 291.255 332.786 290.97 332.56C290.589 332.275 290.35 331.836 290.35 331.344C290.35 331.092 290.414 330.853 290.531 330.646C290.608 330.497 290.718 330.362 290.847 330.239C291.151 329.954 291.572 329.78 292.037 329.78H372.514C373.173 329.78 373.742 330.129 374.02 330.646C374.13 330.859 374.195 331.099 374.195 331.351Z" fill="#D2E4FF"/>
<path d="M364.077 362.13L362.455 365.266H301.683C301.095 365.13 300.604 364.665 300.468 364.038L300.061 362.13H364.077Z" fill="#D2E4FF"/>
<path d="M332.773 364.341C332.418 364.341 332.127 364.05 332.127 363.695V331.35C332.127 330.995 332.418 330.704 332.773 330.704C333.129 330.704 333.42 330.995 333.42 331.35V363.695C333.42 364.05 333.136 364.341 332.773 364.341Z" fill="#D2E4FF"/>
<path d="M342.374 364.342C342.348 364.342 342.329 364.342 342.303 364.335C341.947 364.296 341.689 363.98 341.727 363.624L345.16 331.357C345.199 331.002 345.516 330.743 345.872 330.782C346.227 330.82 346.486 331.137 346.447 331.493L343.014 363.76C342.982 364.096 342.704 364.342 342.374 364.342Z" fill="#D2E4FF"/>
<path d="M323.179 364.342C322.856 364.342 322.572 364.096 322.539 363.766L319.106 331.499C319.068 331.144 319.326 330.827 319.682 330.788C320.037 330.749 320.354 331.008 320.393 331.363L323.826 363.63C323.865 363.986 323.606 364.303 323.25 364.342C323.225 364.342 323.199 364.342 323.179 364.342Z" fill="#D2E4FF"/>
<path d="M352.57 364.341C352.531 364.341 352.492 364.341 352.46 364.335C352.111 364.27 351.872 363.941 351.936 363.585L357.613 331.098C357.671 330.749 358.007 330.51 358.363 330.575C358.712 330.639 358.951 330.969 358.886 331.324L353.21 363.811C353.145 364.122 352.874 364.341 352.57 364.341Z" fill="#D2E4FF"/>
<path d="M312.984 364.341C312.673 364.341 312.402 364.122 312.35 363.805L306.674 331.318C306.609 330.969 306.848 330.633 307.197 330.568C307.546 330.51 307.883 330.743 307.947 331.092L313.624 363.579C313.688 363.928 313.449 364.264 313.1 364.328C313.061 364.341 313.022 364.341 312.984 364.341Z" fill="#D2E4FF"/>
<path d="M364.639 353.558H299.775C299.42 353.558 299.129 353.267 299.129 352.911C299.129 352.556 299.42 352.265 299.775 352.265H364.639C364.995 352.265 365.286 352.556 365.286 352.911C365.286 353.267 364.995 353.558 364.639 353.558Z" fill="#D2E4FF"/>
<path d="M366.824 342.567H297.648C297.293 342.567 297.002 342.276 297.002 341.921C297.002 341.565 297.293 341.274 297.648 341.274H366.824C367.18 341.274 367.471 341.565 367.471 341.921C367.471 342.276 367.18 342.567 366.824 342.567Z" fill="#D2E4FF"/>
<defs>
<linearGradient id="paint0_linear" x1="353.008" y1="150.606" x2="353.008" y2="32.9935" gradientUnits="userSpaceOnUse">
<stop stop-color="#0057D0"/>
<stop offset="1" stop-color="#00C5FF"/>
</linearGradient>
<linearGradient id="paint1_linear" x1="331.875" y1="121.068" x2="345.534" y2="134.077" gradientUnits="userSpaceOnUse">
<stop offset="0.03" stop-color="#F50000"/>
<stop offset="0.6" stop-color="#0500C8"/>
<stop offset="0.6928" stop-color="#0539D8"/>
<stop offset="0.8268" stop-color="#0585ED"/>
<stop offset="0.9226" stop-color="#05B6FA"/>
<stop offset="0.97" stop-color="#05C8FF"/>
</linearGradient>
<linearGradient id="paint2_linear" x1="383.48" y1="76.5284" x2="324.432" y2="120.814" gradientUnits="userSpaceOnUse">
<stop offset="0.03" stop-color="#F50000"/>
<stop offset="0.6" stop-color="#0500C8"/>
<stop offset="0.6928" stop-color="#0539D8"/>
<stop offset="0.8268" stop-color="#0585ED"/>
<stop offset="0.9226" stop-color="#05B6FA"/>
<stop offset="0.97" stop-color="#05C8FF"/>
</linearGradient>
<linearGradient id="paint3_linear" x1="383.005" y1="75.8948" x2="323.957" y2="120.181" gradientUnits="userSpaceOnUse">
<stop offset="0.03" stop-color="#F50000"/>
<stop offset="0.6" stop-color="#0500C8"/>
<stop offset="0.6928" stop-color="#0539D8"/>
<stop offset="0.8268" stop-color="#0585ED"/>
<stop offset="0.9226" stop-color="#05B6FA"/>
<stop offset="0.97" stop-color="#05C8FF"/>
</linearGradient>
<linearGradient id="paint4_linear" x1="175.626" y1="311.092" x2="224.949" y2="311.092" gradientUnits="userSpaceOnUse">
<stop stop-color="#00B1FF"/>
<stop offset="0.2" stop-color="#00B1FF"/>
<stop offset="0.6461" stop-color="#00DAD7"/>
<stop offset="0.9" stop-color="#00EDC5"/>
<stop offset="1" stop-color="#00EDC5"/>
</linearGradient>
<linearGradient id="paint5_linear" x1="181.521" y1="315.075" x2="228.358" y2="315.075" gradientUnits="userSpaceOnUse">
<stop stop-color="#00B1FF"/>
<stop offset="0.2" stop-color="#00B1FF"/>
<stop offset="0.6461" stop-color="#00DAD7"/>
<stop offset="0.9" stop-color="#00EDC5"/>
<stop offset="1" stop-color="#00EDC5"/>
</linearGradient>
<linearGradient id="paint6_linear" x1="261.743" y1="279.913" x2="312.1" y2="279.913" gradientUnits="userSpaceOnUse">
<stop stop-color="#00B1FF"/>
<stop offset="0.2" stop-color="#00B1FF"/>
<stop offset="0.6461" stop-color="#00DAD7"/>
<stop offset="0.9" stop-color="#00EDC5"/>
<stop offset="1" stop-color="#00EDC5"/>
</linearGradient>
<linearGradient id="paint7_linear" x1="150.295" y1="250.58" x2="244.928" y2="250.58" gradientUnits="userSpaceOnUse">
<stop stop-color="#00B1FF"/>
<stop offset="0.2" stop-color="#00B1FF"/>
<stop offset="0.6461" stop-color="#00DAD7"/>
<stop offset="0.9" stop-color="#00EDC5"/>
<stop offset="1" stop-color="#00EDC5"/>
</linearGradient>
<linearGradient id="paint8_linear" x1="161.657" y1="259.992" x2="242.517" y2="259.992" gradientUnits="userSpaceOnUse">
<stop stop-color="#00B1FF"/>
<stop offset="0.2" stop-color="#00B1FF"/>
<stop offset="0.6461" stop-color="#00DAD7"/>
<stop offset="0.9" stop-color="#00EDC5"/>
<stop offset="1" stop-color="#00EDC5"/>
</linearGradient>
<linearGradient id="paint9_linear" x1="407.188" y1="138.468" x2="407.188" y2="223.228" gradientUnits="userSpaceOnUse">
<stop stop-color="#00B1FF"/>
<stop offset="0.2" stop-color="#00B1FF"/>
<stop offset="0.6461" stop-color="#00DAD7"/>
<stop offset="0.9" stop-color="#00EDC5"/>
<stop offset="1" stop-color="#00EDC5"/>
</linearGradient>
<linearGradient id="paint10_linear" x1="370.059" y1="138.468" x2="370.059" y2="223.227" gradientUnits="userSpaceOnUse">
<stop stop-color="#00B1FF"/>
<stop offset="0.2" stop-color="#00B1FF"/>
<stop offset="0.6461" stop-color="#00DAD7"/>
<stop offset="0.9" stop-color="#00EDC5"/>
<stop offset="1" stop-color="#00EDC5"/>
</linearGradient>
<linearGradient id="paint11_linear" x1="440.044" y1="138.468" x2="440.044" y2="223.227" gradientUnits="userSpaceOnUse">
<stop stop-color="#00B1FF"/>
<stop offset="0.2" stop-color="#00B1FF"/>
<stop offset="0.6461" stop-color="#00DAD7"/>
<stop offset="0.9" stop-color="#00EDC5"/>
<stop offset="1" stop-color="#00EDC5"/>
</linearGradient>
<linearGradient id="paint12_linear" x1="293.035" y1="206.806" x2="287.13" y2="219.107" gradientUnits="userSpaceOnUse">
<stop stop-color="#FF6C00"/>
<stop offset="1" stop-color="#FF0000"/>
</linearGradient>
<linearGradient id="paint13_linear" x1="203.561" y1="182.93" x2="234.445" y2="182.93" gradientUnits="userSpaceOnUse">
<stop stop-color="#0057D0"/>
<stop offset="0.1" stop-color="#0057D0"/>
<stop offset="0.3853" stop-color="#0083E3"/>
<stop offset="0.7286" stop-color="#00B3F7"/>
<stop offset="0.9" stop-color="#00C5FF"/>
<stop offset="1" stop-color="#00C5FF"/>
</linearGradient>
<linearGradient id="paint14_linear" x1="208.739" y1="286.991" x2="245.359" y2="286.991" gradientUnits="userSpaceOnUse">
<stop stop-color="#4B0080"/>
<stop offset="0.1" stop-color="#4B0080"/>
<stop offset="0.9" stop-color="#0050E8"/>
<stop offset="1" stop-color="#0050E8"/>
</linearGradient>
<linearGradient id="paint15_linear" x1="208.983" y1="281.609" x2="267.484" y2="281.609" gradientUnits="userSpaceOnUse">
<stop stop-color="#4B0080"/>
<stop offset="0.1" stop-color="#4B0080"/>
<stop offset="0.9" stop-color="#0050E8"/>
<stop offset="1" stop-color="#0050E8"/>
</linearGradient>
<linearGradient id="paint16_linear" x1="186.763" y1="173.731" x2="243.187" y2="187.509" gradientUnits="userSpaceOnUse">
<stop stop-color="#0057D0"/>
<stop offset="0.1" stop-color="#0057D0"/>
<stop offset="0.3853" stop-color="#0083E3"/>
<stop offset="0.7286" stop-color="#00B3F7"/>
<stop offset="0.9" stop-color="#00C5FF"/>
<stop offset="1" stop-color="#00C5FF"/>
</linearGradient>
<linearGradient id="paint17_linear" x1="175.411" y1="173.742" x2="269.231" y2="177.679" gradientUnits="userSpaceOnUse">
<stop stop-color="#0057D0"/>
<stop offset="0.1" stop-color="#0057D0"/>
<stop offset="0.3853" stop-color="#0083E3"/>
<stop offset="0.7286" stop-color="#00B3F7"/>
<stop offset="0.9" stop-color="#00C5FF"/>
<stop offset="1" stop-color="#00C5FF"/>
</linearGradient>
<linearGradient id="paint18_linear" x1="330.662" y1="353.001" x2="341.16" y2="357.922" gradientUnits="userSpaceOnUse">
<stop offset="0.03" stop-color="#F50000"/>
<stop offset="0.6" stop-color="#0500C8"/>
<stop offset="0.6928" stop-color="#0539D8"/>
<stop offset="0.8268" stop-color="#0585ED"/>
<stop offset="0.9226" stop-color="#05B6FA"/>
<stop offset="0.97" stop-color="#05C8FF"/>
</linearGradient>
<linearGradient id="paint19_linear" x1="344.656" y1="326.423" x2="333.503" y2="356.603" gradientUnits="userSpaceOnUse">
<stop offset="0.03" stop-color="#F50000"/>
<stop offset="0.6" stop-color="#0500C8"/>
<stop offset="0.6928" stop-color="#0539D8"/>
<stop offset="0.8268" stop-color="#0585ED"/>
<stop offset="0.9226" stop-color="#05B6FA"/>
<stop offset="0.97" stop-color="#05C8FF"/>
</linearGradient>
<linearGradient id="paint20_linear" x1="344.735" y1="326.453" x2="333.582" y2="356.633" gradientUnits="userSpaceOnUse">
<stop offset="0.03" stop-color="#F50000"/>
<stop offset="0.6" stop-color="#0500C8"/>
<stop offset="0.6928" stop-color="#0539D8"/>
<stop offset="0.8268" stop-color="#0585ED"/>
<stop offset="0.9226" stop-color="#05B6FA"/>
<stop offset="0.97" stop-color="#05C8FF"/>
</linearGradient>
</defs>
</svg>
