<?xml version="1.0" encoding="utf-8"?>
<!-- Generator: Adobe Illustrator 23.0.6, SVG Export Plug-In . SVG Version: 6.00 Build 0)  -->
<svg version="1.1" id="Layer_1" xmlns="http://www.w3.org/2000/svg" xmlns:xlink="http://www.w3.org/1999/xlink" x="0px" y="0px"
	 viewBox="0 0 84 45" style="enable-background:new 0 0 84 45;" xml:space="preserve">
<style type="text/css">
	.st0{fill:#FFFFFF;}
</style>
<path class="st0" d="M37.7,0.4c-4.8,0.6-9.3,3.8-10.4,10.2l0.1,5.8c0.4,8.4,9.6,10.4,13.8,10.4c9.1-0.2,12.8-4.2,13.8-11.2v-3.7
	c-0.3-5-3.1-9.8-10.4-11.5H37.7z M38,1.4h6.3c6.3,1.7,8.8,6,9.1,10.6v3.4c-0.9,5.7-3.6,10.1-12.3,10.5c-4.6-0.2-10.6-1-12.2-10.1
	v-5.3C30.1,5,33.7,2.5,38,1.4z"/>
<path class="st0" d="M35.8,13.3l4.7-13L40.5,11h1.1V0.3l4.7,12.6l1.8,12.9l-6.3-13.2h-1.6l-5.8,13L35.8,13.3z"/>
<path class="st0" d="M0.1,44.4l7.5-12.3l3.2,0L18,44.4l-3.4,0l-5.3-9l-2.7,4.7h4.8l1.5,2.6h-8l-1,1.8L0.1,44.4L0.1,44.4z"/>
<path class="st0" d="M32.2,32.1H21.3c-1.8,0-3.3,1.9-3.3,3v6.2c0,1.3,1.5,2.9,2.8,3H32v-2.4h-9.9c-0.6,0-1-0.6-1-1v-5.1
	c0-0.6,0.3-0.9,0.8-1h10.2v-2.7"/>
<path class="st0" d="M33.7,32.1v9.6l2.8,2.7h8.8l2.8-3.2v-9.1h-3.1v8.7L44,42h-6.2l-1.1-1.1v-8.8L33.7,32.1L33.7,32.1z"/>
<path class="st0" d="M62,32.1H50v12.2h3.1v-9.5h7.7c1.5,0,1.6,2.7,0,2.7h-7.2v2.8H61c0.3,0,0.7,0.6,0.7,1v3.1h3.2v-3.6
	c-0.3-0.8-0.8-1.3-1.4-1.8c0.6-0.4,1.3-0.7,1.4-1.6v-3.1C64.8,33.8,62.9,32.1,62,32.1z"/>
<path class="st0" d="M65.5,44.4L73,32.2l3.2,0l7.2,12.2l-3.4,0l-5.3-9L72,40.1h4.8l1.5,2.6h-8l-1,1.8L65.5,44.4L65.5,44.4z"/>
</svg>
