<svg id="Layer_1" data-name="Layer 1" xmlns="http://www.w3.org/2000/svg" viewBox="0 0 177 40.88"><defs><style>.cls-1{fill:#fff;}</style></defs><title>acura2_white</title><path class="cls-1" d="M-30.46,2.21c-7.4.93-14.34,5.86-16,15.74l.15,9c.62,13,14.81,16,21.29,16,14-.31,19.75-6.48,21.29-17.28V20c-.46-7.71-4.78-15.12-16-17.74ZM-30,3.75h9.72C-10.55,6.38-6.7,13-6.23,20.11v5.24c-1.39,8.8-5.56,15.59-19,16.2C-32.31,41.25-41.56,40-44,26V17.79C-42.18,9.31-36.63,5.45-30,3.75Z" transform="translate(46.5 -2.06)"/><path class="cls-1" d="M-33.39,22.11l7.25-20V18.57h1.7V2.06l7.25,19.44,2.78,19.9L-24.13,21H-26.6l-8.95,20.06Z" transform="translate(46.5 -2.06)"/><path class="cls-1" d="M4.63,31.27,16,12.69H20.8L31.68,31.27H26.54l-8-13.6-4.08,7.1H21.7L24,28.7H11.88l-1.51,2.72-5.74-.15Z" transform="translate(46.5 -2.06)"/><path class="cls-1" d="M53.13,12.69H36.66c-2.72,0-5,2.87-5,4.53v9.37a5.29,5.29,0,0,0,4.23,4.53H52.83V27.49h-15A1.62,1.62,0,0,1,36.36,26v-7.7a1.37,1.37,0,0,1,1.21-1.51H53V12.69" transform="translate(46.5 -2.06)"/><path class="cls-1" d="M55.4,12.69v14.5l4.23,4.08h13.3l4.23-4.83V12.69H72.48V25.83L71,27.64H61.6L59.93,26V12.69Z" transform="translate(46.5 -2.06)"/><path class="cls-1" d="M98.16,12.69H80V31.12h4.69V16.77H96.35c2.27,0,2.42,4.08,0,4.08H85.47v4.23H96.65c.46,0,1.06.9,1.06,1.51v4.68h4.84V25.83a6.39,6.39,0,0,0-2.12-2.72c.91-.6,2-1.06,2.12-2.42V16C102.4,15.25,99.52,12.69,98.16,12.69Z" transform="translate(46.5 -2.06)"/><path class="cls-1" d="M103.45,31.27l11.34-18.43h4.83L130.5,31.27h-5.14l-8-13.6-4.08,7.1h7.26l2.26,3.93H110.71l-1.51,2.72-5.75-.15Z" transform="translate(46.5 -2.06)"/></svg>