<svg width="84" height="45" viewBox="0 0 84 45" fill="none" xmlns="http://www.w3.org/2000/svg">
<path d="M37.6943 0.412476C32.8489 1.06168 28.4009 4.18977 27.2925 10.6545L27.3777 16.4309C27.8084 24.8615 36.9907 26.8686 41.1474 26.8328C50.2085 26.6526 53.9097 22.602 54.9171 15.6209V11.8908C54.6555 6.88012 51.8013 2.07998 44.5046 0.412476H37.6943ZM37.9608 1.43561H44.2488C50.5883 3.13428 53.0903 7.42274 53.3717 12.0293V15.4717C52.4416 21.1222 49.7465 25.5752 41.0622 25.9802C36.5085 25.7747 30.4911 24.9761 28.8272 15.9087V10.6545C30.0892 5.00362 33.7255 2.51216 37.9608 1.43561Z" fill="#7C7D7D"/>
<path d="M35.8074 13.3211L40.4582 0.272866L40.5443 10.9957H41.664V0.251343L46.401 12.8904L48.2096 25.8095L41.9224 12.6321H40.286L34.4727 25.6182L35.8074 13.3211Z" fill="#7C7D7D"/>
<path d="M0.065918 44.4227L7.57087 32.1533L10.7845 32.1748L18.0109 44.3926L14.6391 44.3495L9.29736 35.3889L6.60556 40.0512H11.3935L12.8789 42.624H4.87708L3.83234 44.4336L0.065918 44.4227V44.4227Z" fill="#7C7D7D"/>
<path d="M32.1612 32.1274H21.3335C19.5305 32.1274 17.9858 34.0472 17.9858 35.1612V41.3596C17.9858 42.6497 19.4819 44.2307 20.7843 44.315H32.0304V41.9089H22.1181C21.4809 41.9089 21.072 41.2943 21.072 40.915V35.815C21.1196 35.2608 21.3818 34.9047 21.8827 34.7689H32.0566V32.1012" fill="#7C7D7D"/>
<path d="M33.6782 32.1014V41.6998L36.4505 44.3675H45.2905L48.0628 41.1768V32.1174H44.9197V40.7908L43.9765 41.9929H37.7627L36.6901 40.9203V32.0989L33.6782 32.1012V32.1014Z" fill="#7C7D7D"/>
<path d="M62.0258 32.0803H50.042V44.286H53.1859V34.8174H60.9162C62.429 34.8174 62.5512 37.5544 60.9162 37.5544H53.7407V40.3284H60.9531C61.2938 40.3284 61.6929 40.9325 61.6929 41.3271V44.471H64.8553V40.8278C64.5707 40.0204 64.0055 39.5403 63.4313 39.0709C64.0414 38.6678 64.729 38.3281 64.8183 37.4989V34.3735C64.8183 33.763 62.8983 32.0803 62.0258 32.0803Z" fill="#7C7D7D"/>
<path d="M65.4585 44.4227L72.9634 32.1533L76.177 32.1748L83.4035 44.3926L80.0316 44.3495L74.6899 35.3889L71.9981 40.0512H76.786L78.2714 42.624H70.2697L69.2249 44.4336L65.4585 44.4227V44.4227Z" fill="#7C7D7D"/>
</svg>
