<svg width="71" height="57" viewBox="0 0 71 57" fill="none" xmlns="http://www.w3.org/2000/svg">
<mask id="mask0_969_629" style="mask-type:alpha" maskUnits="userSpaceOnUse" x="0" y="0" width="71" height="57">
<rect width="71" height="57" fill="#D9D9D9"/>
</mask>
<g mask="url(#mask0_969_629)">
<path d="M11.591 20.4844L18.376 36.7603V20.4844H11.591ZM0 20.4844V36.7603L6.82537 20.4844H0ZM6.21957 33.4889H9.41012L10.7025 36.7603H13.5296L9.20819 26.502L6.21957 33.4889Z" fill="#001464"/>
<path d="M28.1091 20.4443L24.4339 36.7605H26.6552L27.6245 32.2372H31.017L31.9459 36.7605H34.2075L30.7747 20.4443H28.1091ZM27.9072 30.4602L28.6746 26.5427C28.8765 25.4926 29.1188 23.9983 29.3207 22.8271H29.4015C29.5631 23.9983 29.8054 25.4522 30.0073 26.5427L30.7747 30.4602H27.9072ZM42.7292 20H40.4675V26.1388H40.4271C40.0636 25.2907 39.2155 24.7656 38.327 24.806C36.4692 24.806 34.6922 26.785 34.6922 30.9448C34.6922 34.62 36.025 36.9625 38.2058 36.9625C39.2559 36.9221 40.2252 36.3163 40.6694 35.347H40.7502L40.9118 36.7605H42.8907C42.8503 35.9528 42.8099 34.62 42.8099 33.7315V20H42.7292ZM40.4675 32.6411C40.4675 32.8834 40.4271 33.1257 40.3867 33.4084C39.9829 34.822 39.3367 35.0643 38.8116 35.0643C37.6 35.0643 36.9538 33.368 36.9538 30.9448C36.9538 28.7639 37.4385 26.785 38.852 26.785C39.6598 26.785 40.2656 27.7139 40.3867 28.7639C40.4271 29.0063 40.4271 29.289 40.4271 29.4909L40.4675 32.6411ZM48.3025 24.806C46.162 24.806 44.1427 26.6234 44.1427 30.9044C44.1427 34.9431 45.8389 36.9625 48.1814 36.9625H48.2218C49.9988 36.9625 52.3008 35.5489 52.3008 30.864C52.2604 26.8658 50.6046 24.806 48.3025 24.806ZM48.2218 35.1854C46.7275 35.1854 46.364 32.843 46.364 30.9044C46.364 29.1274 46.6467 26.6234 48.141 26.6234C49.6353 26.6234 49.918 29.1274 49.918 30.9044C49.918 32.6815 49.6353 35.1854 48.2218 35.1854ZM58.4396 24.806C57.3896 24.806 56.4203 25.3714 55.976 26.3407H55.9356V20H53.674V33.7315C53.674 34.62 53.6336 35.9528 53.5932 36.7605H55.5722L55.6933 35.2662H55.7741C56.2991 36.3163 56.9453 36.9221 58.1165 36.9221C60.0551 36.9221 61.7917 34.8623 61.7917 30.6621C61.711 27.0677 60.459 24.806 58.4396 24.806ZM57.5511 35.0643C57.1069 35.0643 56.3799 34.7816 56.0164 33.3276C55.9356 33.0853 55.8953 32.843 55.9356 32.6007V29.289C55.9356 29.0063 55.976 28.7639 56.0164 28.4812C56.178 27.6331 56.7838 26.7446 57.5511 26.7446C58.9243 26.7446 59.4493 28.562 59.4493 30.8237C59.4089 33.2469 58.9243 35.0643 57.5511 35.0643ZM67.0824 24.806C64.6188 24.806 62.8822 27.1889 62.8822 31.0256C62.8822 34.6604 64.4573 36.8817 67.4055 36.8817C68.3748 36.9221 69.3441 36.7201 70.2326 36.3163L69.9095 34.6604C69.2633 34.9431 68.5767 35.1047 67.8901 35.1047C66.517 35.1047 65.1842 34.3373 65.1842 31.3083L70.7172 31.3487C70.7576 31.0256 70.7576 30.6621 70.7576 30.0967C70.6364 27.1485 69.5056 24.806 67.0824 24.806ZM65.1035 29.7332C65.1842 28.2389 65.7093 26.5427 66.8805 26.5427C67.769 26.5427 68.4959 27.6735 68.4959 29.7332H65.1035ZM70.5557 25.3311C70.6364 25.3311 70.6768 25.2503 70.6768 25.1695C70.6768 25.1291 70.6768 25.0887 70.6364 25.0484C70.5961 25.008 70.5153 25.008 70.4749 25.008C70.4345 25.008 70.3537 25.008 70.3134 25.008V25.6138H70.3941V25.3714H70.4749C70.5153 25.3714 70.5961 25.4118 70.5961 25.4522C70.5961 25.4926 70.5961 25.5734 70.6364 25.6138H70.7172C70.7172 25.5734 70.6768 25.533 70.6768 25.4522C70.6364 25.3714 70.5961 25.3311 70.5557 25.3311ZM70.4345 25.2907H70.3537V25.0887H70.4345C70.5557 25.0887 70.5961 25.1291 70.5961 25.2099C70.5961 25.2099 70.5153 25.2907 70.4345 25.2907ZM70.4749 24.7656C70.1922 24.7656 69.9499 25.008 69.9499 25.2907C69.9499 25.5734 70.1922 25.8157 70.4749 25.8157C70.7576 25.8157 70.9999 25.5734 70.9999 25.2907C70.9999 25.008 70.7576 24.7656 70.4749 24.7656ZM70.4749 25.7349C70.2326 25.7349 70.0306 25.533 70.0306 25.2907C70.0306 25.0484 70.2326 24.8464 70.4749 24.8464C70.7172 24.8464 70.9192 25.0484 70.9192 25.2907C70.9192 25.533 70.7172 25.7349 70.4749 25.7349ZM19.3048 20.4846C19.0221 20.4846 18.7798 20.727 18.7798 21.0097C18.7798 21.2924 19.0221 21.5347 19.3048 21.5347C19.5875 21.5347 19.8298 21.2924 19.8298 21.0097C19.8298 20.727 19.5875 20.4846 19.3048 20.4846ZM19.3048 21.4539C19.0625 21.4539 18.8606 21.252 18.8606 21.0097C18.8606 20.7673 19.0625 20.5654 19.3048 20.5654C19.5471 20.5654 19.7087 20.7673 19.7087 21.0097C19.7087 21.252 19.5471 21.4539 19.3048 21.4539ZM19.3856 21.0097C19.4664 20.9693 19.5067 20.8885 19.5067 20.8077C19.5067 20.7673 19.4664 20.7673 19.4664 20.727C19.426 20.6866 19.3452 20.6866 19.2644 20.6866C19.224 20.6866 19.1433 20.6866 19.1029 20.6866V21.2924H19.1837V21.0501H19.2644C19.3452 21.0501 19.3856 21.0904 19.3856 21.1712C19.3856 21.2116 19.3856 21.2924 19.426 21.3328H19.5067C19.5067 21.2924 19.4664 21.252 19.4664 21.2116C19.4664 21.0904 19.426 21.0501 19.3856 21.0097ZM19.2644 20.9693H19.1837V20.8077H19.2644C19.3856 20.8077 19.3856 20.8481 19.3856 20.9289C19.3856 21.0097 19.3452 20.9693 19.2644 20.9693Z" fill="#001464"/>
</g>
</svg>
