<?xml version="1.0" encoding="utf-8"?>
<!-- Generator: Adobe Illustrator 25.4.1, SVG Export Plug-In . SVG Version: 6.00 Build 0)  -->
<svg version="1.1" id="Layer_1" xmlns="http://www.w3.org/2000/svg" xmlns:xlink="http://www.w3.org/1999/xlink" x="0px" y="0px"
	 viewBox="0 0 71 57" style="enable-background:new 0 0 71 57;" xml:space="preserve">
<style type="text/css">
	.st0{fill:#FFFFFF;}
	.st1{fill:#E20025;}
</style>
<g>
	<polygon class="st0" points="0,20.4 18.4,20.4 18.4,36.8 0,36.8 	"/>
	<path class="st1" d="M11.6,20.4l6.8,16.3V20.4H11.6z M0,20.4v16.3l6.8-16.3H0z M6.2,33.5h3.2l1.3,3.3h2.8L9.2,26.5L6.2,33.5z"/>
	<path d="M28.1,20.4l-3.7,16.3h2.2l1-4.5H31l0.9,4.5h2.3l-3.4-16.3H28.1z M27.9,30.4l0.8-3.9c0.2-1.1,0.4-2.5,0.6-3.7h0.1
		c0.2,1.2,0.4,2.6,0.6,3.7l0.8,3.9H27.9z M42.7,20h-2.3v6.1h0c-0.4-0.8-1.2-1.4-2.1-1.3c-1.9,0-3.6,2-3.6,6.1s1.3,6,3.5,6
		c1.1,0,2-0.7,2.5-1.6h0.1l0.2,1.4h2c0-0.8-0.1-2.1-0.1-3L42.7,20z M40.5,32.6c0,0.3,0,0.5-0.1,0.8C40,34.8,39.3,35,38.8,35
		c-1.2,0-1.9-1.7-1.9-4.1s0.5-4.2,1.9-4.2c1.4,0,1.4,0.9,1.5,2c0,0.2,0,0.5,0,0.7C40.5,29.5,40.5,32.6,40.5,32.6z M48.3,24.8
		c-2.1,0-4.2,1.8-4.2,6.1s1.7,6.1,4,6.1h0c1.8,0,4.1-1.4,4.1-6.1C52.3,26.9,50.6,24.8,48.3,24.8z M48.2,35.1L48.2,35.1
		c-1.5,0-1.9-2.3-1.9-4.3s0.3-4.3,1.8-4.3c1.5,0,1.8,2.5,1.8,4.3C49.9,32.6,49.6,35.1,48.2,35.1z M58.4,24.8c-1.1,0-2,0.6-2.5,1.5h0
		V20h-2.3v13.7c0,0.9,0,2.2-0.1,3h2l0.1-1.5h0.1c0.5,1.1,1.2,1.7,2.3,1.7c1.9,0,3.7-2.1,3.7-6.3C61.7,27.1,60.5,24.8,58.4,24.8
		L58.4,24.8z M57.6,35c-0.4,0-1.2-0.3-1.5-1.7c-0.1-0.2-0.1-0.5-0.1-0.7v-3.3c0-0.3,0-0.5,0.1-0.8c0.2-0.8,0.8-1.7,1.5-1.7
		c1.4,0,1.9,1.8,1.9,4.1S58.9,35,57.6,35z M67.1,24.8c-2.5,0-4.2,2.4-4.2,6.2s1.5,5.9,4.5,5.9c1,0,1.9-0.2,2.8-0.6l-0.3-1.7
		c-0.6,0.3-1.3,0.4-2,0.4c-1.4,0-2.7-0.8-2.7-3.8h5.5c0-0.4,0-0.8,0-1.3C70.7,27.1,69.5,24.7,67.1,24.8L67.1,24.8z M65.1,29.7
		c0.1-1.5,0.6-3.2,1.8-3.2c1.2,0,1.6,1.1,1.6,3.2H65.1z M70.6,25.3L70.6,25.3c0.1,0,0.1-0.1,0.1-0.2c0,0,0-0.1,0-0.1h-0.3v0.6h0.1
		v-0.2L70.6,25.3c0,0,0,0.1,0,0.1l0,0c0,0.1,0,0.1,0,0.2h0.1c0,0,0-0.1,0-0.2C70.6,25.3,70.6,25.3,70.6,25.3L70.6,25.3z M70.4,25.3
		L70.4,25.3L70.4,25h0.1c0.1,0,0.2,0,0.2,0.1L70.4,25.3z M70.5,24.8L70.5,24.8c-0.3,0-0.5,0.2-0.5,0.5s0.2,0.5,0.5,0.5
		c0.3,0,0.5-0.2,0.5-0.5S70.8,24.8,70.5,24.8L70.5,24.8z M70.5,25.7c-0.2,0-0.4-0.1-0.4-0.3c0,0,0-0.1,0-0.1l0,0
		c0-0.2,0.2-0.4,0.4-0.4l0,0c0.2,0,0.4,0.2,0.4,0.5C70.8,25.6,70.7,25.7,70.5,25.7z M19.3,20.4L19.3,20.4c-0.3,0-0.5,0.2-0.5,0.5
		c0,0.3,0.2,0.5,0.5,0.5c0.3,0,0.5-0.2,0.5-0.5l0,0C19.8,20.7,19.6,20.4,19.3,20.4z M19.3,21.4c-0.2,0-0.4-0.1-0.4-0.3
		c0,0,0-0.1,0-0.1l0,0c0-0.2,0.2-0.4,0.4-0.4l0,0c0.2,0,0.4,0.1,0.4,0.3c0,0,0,0.1,0,0.1l0,0C19.7,21.2,19.6,21.4,19.3,21.4
		C19.3,21.4,19.3,21.4,19.3,21.4L19.3,21.4z M19.4,21L19.4,21c0.1,0,0.1-0.1,0.1-0.2c0,0,0-0.1,0-0.1h-0.4v0.5h0.1v-0.2h0.1l0.1,0.1
		l0,0c0,0.1,0,0.1,0,0.2h0.1c0,0,0-0.1,0-0.2C19.5,21.1,19.5,21,19.4,21z M19.3,21L19.3,21l-0.1-0.2h0.1c0.1,0,0.2,0,0.2,0.1
		S19.3,21,19.3,21z"/>
</g>
</svg>
