<?xml version="1.0" encoding="utf-8"?>
<!-- Generator: Adobe Illustrator 25.4.1, SVG Export Plug-In . SVG Version: 6.00 Build 0)  -->
<svg version="1.1" id="Layer_1" xmlns="http://www.w3.org/2000/svg" xmlns:xlink="http://www.w3.org/1999/xlink" x="0px" y="0px"
	 viewBox="0 0 71 57" style="enable-background:new 0 0 71 57;" xml:space="preserve">
<style type="text/css">
	.st0{fill:#D9D9D9;filter:url(#Adobe_OpacityMaskFilter);}
	.st1{mask:url(#mask0_969_629_00000032627734663169999810000004650813937387746227_);}
	.st2{fill:#FFFFFF;}
</style>
<defs>
	<filter id="Adobe_OpacityMaskFilter" filterUnits="userSpaceOnUse" x="0" y="20" width="71" height="17">
		<feColorMatrix  type="matrix" values="1 0 0 0 0  0 1 0 0 0  0 0 1 0 0  0 0 0 1 0"/>
	</filter>
</defs>
<mask maskUnits="userSpaceOnUse" x="0" y="20" width="71" height="17" id="mask0_969_629_00000032627734663169999810000004650813937387746227_">
	<rect class="st0" width="71" height="57"/>
</mask>
<g class="st1">
	<path class="st2" d="M11.6,20.5l6.8,16.3V20.5H11.6z M0,20.5v16.3l6.8-16.3H0z M6.2,33.5h3.2l1.3,3.3h2.8L9.2,26.5L6.2,33.5z"/>
	<path class="st2" d="M28.1,20.4l-3.7,16.3h2.2l1-4.5H31l0.9,4.5h2.3l-3.4-16.3H28.1z M27.9,30.5l0.8-3.9c0.2-1.1,0.4-2.5,0.6-3.7
		h0.1c0.2,1.2,0.4,2.6,0.6,3.7l0.8,3.9H27.9z M42.7,20h-2.3v6.1h0c-0.4-0.8-1.2-1.4-2.1-1.3c-1.9,0-3.6,2-3.6,6.1c0,3.7,1.3,6,3.5,6
		c1.1,0,2-0.6,2.5-1.6h0.1l0.2,1.4h2c0-0.8-0.1-2.1-0.1-3L42.7,20L42.7,20z M40.5,32.6c0,0.2,0,0.5-0.1,0.8c-0.4,1.4-1,1.7-1.6,1.7
		c-1.2,0-1.9-1.7-1.9-4.1c0-2.2,0.5-4.2,1.9-4.2c0.8,0,1.4,0.9,1.5,2c0,0.2,0,0.5,0,0.7L40.5,32.6z M48.3,24.8
		c-2.1,0-4.2,1.8-4.2,6.1c0,4,1.7,6.1,4,6.1h0c1.8,0,4.1-1.4,4.1-6.1C52.3,26.9,50.6,24.8,48.3,24.8z M48.2,35.2
		c-1.5,0-1.9-2.3-1.9-4.3c0-1.8,0.3-4.3,1.8-4.3c1.5,0,1.8,2.5,1.8,4.3C49.9,32.7,49.6,35.2,48.2,35.2z M58.4,24.8
		c-1.1,0-2,0.6-2.5,1.5h0V20h-2.3v13.7c0,0.9,0,2.2-0.1,3h2l0.1-1.5h0.1c0.5,1.1,1.2,1.7,2.3,1.7c1.9,0,3.7-2.1,3.7-6.3
		C61.7,27.1,60.5,24.8,58.4,24.8z M57.6,35.1c-0.4,0-1.2-0.3-1.5-1.7c-0.1-0.2-0.1-0.5-0.1-0.7v-3.3c0-0.3,0-0.5,0.1-0.8
		c0.2-0.8,0.8-1.7,1.5-1.7c1.4,0,1.9,1.8,1.9,4.1C59.4,33.2,58.9,35.1,57.6,35.1z M67.1,24.8c-2.5,0-4.2,2.4-4.2,6.2
		c0,3.6,1.6,5.9,4.5,5.9c1,0,1.9-0.2,2.8-0.6l-0.3-1.7c-0.6,0.3-1.3,0.4-2,0.4c-1.4,0-2.7-0.8-2.7-3.8l5.5,0c0-0.3,0-0.7,0-1.3
		C70.6,27.1,69.5,24.8,67.1,24.8z M65.1,29.7c0.1-1.5,0.6-3.2,1.8-3.2c0.9,0,1.6,1.1,1.6,3.2H65.1z M70.6,25.3
		c0.1,0,0.1-0.1,0.1-0.2c0,0,0-0.1,0-0.1c0,0-0.1,0-0.2,0s-0.1,0-0.2,0v0.6h0.1v-0.2L70.6,25.3c0,0,0,0.1,0,0.1s0,0.1,0,0.2h0.1
		c0,0,0-0.1,0-0.2C70.6,25.4,70.6,25.3,70.6,25.3z M70.4,25.3L70.4,25.3l-0.1-0.2h0.1c0.1,0,0.2,0,0.2,0.1
		C70.6,25.2,70.5,25.3,70.4,25.3z M70.5,24.8c-0.3,0-0.5,0.2-0.5,0.5c0,0.3,0.2,0.5,0.5,0.5s0.5-0.2,0.5-0.5
		C71,25,70.8,24.8,70.5,24.8z M70.5,25.7c-0.2,0-0.4-0.2-0.4-0.4s0.2-0.4,0.4-0.4s0.4,0.2,0.4,0.4S70.7,25.7,70.5,25.7z M19.3,20.5
		c-0.3,0-0.5,0.2-0.5,0.5c0,0.3,0.2,0.5,0.5,0.5s0.5-0.2,0.5-0.5C19.8,20.7,19.6,20.5,19.3,20.5z M19.3,21.5c-0.2,0-0.4-0.2-0.4-0.4
		c0-0.2,0.2-0.4,0.4-0.4s0.4,0.2,0.4,0.4C19.7,21.3,19.5,21.5,19.3,21.5z M19.4,21c0.1,0,0.1-0.1,0.1-0.2c0,0,0,0,0-0.1
		c0,0-0.1,0-0.2,0c0,0-0.1,0-0.2,0v0.6h0.1v-0.2h0.1c0.1,0,0.1,0,0.1,0.1c0,0,0,0.1,0,0.2h0.1c0,0,0-0.1,0-0.1
		C19.5,21.1,19.4,21.1,19.4,21z M19.3,21L19.3,21l-0.1-0.2h0.1c0.1,0,0.1,0,0.1,0.1C19.4,21,19.3,21,19.3,21z"/>
</g>
</svg>
