<svg id="Layer_1" data-name="Layer 1" xmlns="http://www.w3.org/2000/svg" viewBox="0 0 383.35 93.72"><defs><style>.cls-1{fill:#fff;}</style></defs><title>adviso_white</title><path class="cls-1" d="M142.2,33l-6.4,16.1h12.7Zm9.3,23.5H132.8l-3.3,8.4H117.6l17.9-40.6h13.3l17.9,40.6H154.8Z" transform="translate(-0.05 0)"/><path class="cls-1" d="M181.5,57.1h12.3c7.3,0,10.6-4.4,10.6-13,0-7.5-3.2-12.2-11.6-12.2H181.5Zm-11-32.9h25.3c13.9,0,20,8.1,20,20.3s-6.3,20.3-19,20.3H170.5Z" transform="translate(-0.05 0)"/><polygon class="cls-1" points="215.25 24.2 227.35 24.2 239.15 55.2 250.95 24.2 263.05 24.2 245.05 64.8 233.25 64.8 215.25 24.2"/><rect class="cls-1" x="267.45" y="24.2" width="11" height="40.6"/><path class="cls-1" d="M315.6,36c-.7-5.3-5.7-5.9-10.2-5.9s-7.5,2-7.5,4.8c0,2.2,1.8,3.3,4.7,3.8l13.8,2.2c7.4,1.2,13,4,13,11.4,0,7.6-5.1,13.6-21.1,13.6-9.9,0-22.7-1.3-22.9-13.9h12.4c.1,5.6,5.7,6.5,10.5,6.5,5.2,0,8.7-1.5,8.7-5.1,0-3.1-2.5-4-6.9-4.7L300,47.3c-7.1-1.1-13.9-3.2-13.9-11.5,0-9,7.4-12.7,20.1-12.7,8.4,0,20.8,1.4,21.5,12.9Z" transform="translate(-0.05 0)"/><path class="cls-1" d="M358.1,58.2c10,0,13.5-7.4,13.5-13.7s-3.5-13.7-13.5-13.7-13.5,7.4-13.5,13.7,3.5,13.7,13.5,13.7m0-35.1c21.8,0,25.3,13,25.3,21.4S380,65.9,358.1,65.9s-25.2-13-25.2-21.4,3.4-21.4,25.2-21.4" transform="translate(-0.05 0)"/><path class="cls-1" d="M52.5,0c1.8,0,3.4.9,3.6,2.7l2.7,16.1A2.44,2.44,0,0,1,56.3,22s-14.1.6-16.2.9a20.46,20.46,0,0,1-3.3.1,2.79,2.79,0,0,1-2.2-3.7s2.4-6.6,3.8-9.2C43.1-.5,49.5,0,52.5,0" transform="translate(-0.05 0)"/><path class="cls-1" d="M4.7,28.9A4.26,4.26,0,0,0,.9,32.2S-.2,37.8.1,39.9s1.5,2.5,3.3,2.3c0,0,17.6-1.5,24.4-2s41.8-3.8,48.7-4.3,13.5-1,13.5-1c3-.2,4-2.5,3.1-4S89.7,28,86,27.3a134.39,134.39,0,0,0-23.1-1.1c-11.1.3-35.3,1.7-41.6,2-6.5.3-16.6.7-16.6.7" transform="translate(-0.05 0)"/><path class="cls-1" d="M31,44c3.1-.4,31-2.9,32.7-2.9,2.4-.1,2.6,1.7,3,3.5l.4,2.8c.3,1.7.4,3-.7,4.1s-2.6,1.3-10.3,2.4c-12.9,2-16.5,2.6-19.3,3.1-3.9.7-11.2,1.4-11.2,1.4a2.44,2.44,0,0,1-2.4-3.1s.8-6.8,2-8.5C26.5,44.7,28,44.4,31,44" transform="translate(-0.05 0)"/><path class="cls-1" d="M25.2,62.4c-1.6.3-2.6,1.8-3,3.7,0,0-.5,2.2-1,5.3s-3,16.1-3,16.1a2.53,2.53,0,0,0,2.6,3.1H35.9a3.05,3.05,0,0,0,3-3.2s-1.1-16.3-1.1-20.3-.5-4.4-1.5-5.2c-1.3-1.1-3.8-.6-6.2-.2a34.3,34.3,0,0,0-4.9.7" transform="translate(-0.05 0)"/><path class="cls-1" d="M55.3,62.2a4.44,4.44,0,0,1,3.3-4.5l5.8-1a3.44,3.44,0,0,1,3.9,3.2l6.8,30.3a2.86,2.86,0,0,1-2.5,3.3c-1.5.3-7.7.2-10.9.2-.7,0-3.7,0-3.9-3.1Z" transform="translate(-0.05 0)"/><path class="cls-1" d="M49.1,59.1s-4.6.5-5.9.8c-.8.2-2.7.7-2.4,3.8.1,1.8,1.2,17.1,1.7,21.8a2.22,2.22,0,0,0,1.9,2.2h5.7a2.11,2.11,0,0,0,2.1-2.3c-.2-2.2.2-23.5.2-23.5-.1-2.2-1.2-3.1-3.3-2.8" transform="translate(-0.05 0)"/><path class="cls-1" d="M5.3,21.5c.1,2,1.4,2.4,2.8,2.3.7,0,1.6-.2,6.3-.4,10.1-.5,8.7-.5,8.7-.5,2.9,0,4.3-2.4,5.1-4.2,0,0,4.1-8.9,5.6-11.9.7-1.5.2-3.3-2-3.4H5.3s-.2,16,0,18.1" transform="translate(-0.05 0)"/><path class="cls-1" d="M89.4,42.3c0-2.2-1.3-2.8-3.4-2.5-2.4.3-11.5,2.3-11.5,2.3a3.3,3.3,0,0,0-2.6,3.8l6.2,39.4a2.72,2.72,0,0,0,2.7,2.4h8.5V42.3Z" transform="translate(-0.05 0)"/><path class="cls-1" d="M61.7,5.9l5.4,14.2A4.81,4.81,0,0,0,71.4,23l15.9-.3a1.9,1.9,0,0,0,2-2.2V3.4H63.5c-2.2,0-2.1,1.6-1.8,2.5" transform="translate(-0.05 0)"/><path class="cls-1" d="M16.3,45.1s-1.6.2-8.3.9c-2.5.3-2.7,1.8-2.7,3.2V87.5h7.1c1.8,0,2.2-1.4,2.4-2.4,0,0,1.3-10.6,1.9-14.6s3-22.1,3-22.1c.2-1.7-.6-3.5-3.4-3.3" transform="translate(-0.05 0)"/></svg>