<?xml version="1.0" encoding="UTF-8"?>
<svg xmlns="http://www.w3.org/2000/svg" xmlns:xlink="http://www.w3.org/1999/xlink" width="283.46pt" height="127.14pt" viewBox="0 0 283.46 127.14" version="1.1">
<defs>
<clipPath id="clip1">
  <path d="M 0 8 L 119 8 L 119 127.140625 L 0 127.140625 Z M 0 8 "/>
</clipPath>
<clipPath id="clip2">
  <path d="M 0 0 L 283.460938 0 L 283.460938 114 L 0 114 Z M 0 0 "/>
</clipPath>
</defs>
<g id="surface1">
<g clip-path="url(#clip1)" clip-rule="nonzero">
<path style=" stroke:none;fill-rule:evenodd;fill:rgb(74.899292%,78.399658%,82.398987%);fill-opacity:1;" d="M 18.222656 42.808594 C 22.269531 33.914063 23.277344 31.222656 33.445313 27.410156 L 81.933594 9.242188 C 89.808594 6.292969 94.917969 9.28125 97.226563 15.09375 L 116.265625 63.023438 C 118.605469 68.917969 119.839844 74.320313 117.195313 80.097656 L 97.992188 122.019531 C 95.898438 126.597656 90.539063 128.4375 85.324219 126.164063 L 5.25 91.238281 C 1.171875 89.460938 -0.339844 83.59375 1.480469 79.597656 L 18.222656 42.808594 "/>
</g>
<g clip-path="url(#clip2)" clip-rule="nonzero">
<path style=" stroke:none;fill-rule:evenodd;fill:rgb(0%,63.899231%,88.999939%);fill-opacity:1;" d="M 123.554688 57.511719 L 122.199219 62.679688 L 117.964844 62.679688 L 124.054688 43.390625 L 129.515625 43.390625 L 135.609375 62.679688 L 131.441406 62.679688 L 129.910156 57.511719 Z M 126.09375 47.855469 L 124.34375 54.519531 L 129.023438 54.519531 L 127.046875 47.855469 Z M 214.640625 43.488281 L 218.46875 43.488281 L 218.46875 51 L 226.707031 51 L 226.707031 43.488281 L 230.515625 43.488281 L 230.515625 62.679688 L 226.707031 62.679688 L 226.707031 54.441406 L 218.46875 54.441406 L 218.46875 62.679688 L 214.640625 62.679688 Z M 251.703125 48.789063 L 255.863281 48.789063 L 255.863281 62.679688 L 251.703125 62.679688 Z M 261.277344 48.789063 L 265.242188 48.789063 L 265.265625 62.679688 C 265.273438 66.242188 261.691406 68.8125 258.023438 68.484375 L 258.027344 65.289063 C 259.472656 65.679688 261.277344 64.222656 261.277344 61.632813 Z M 270.171875 48.789063 L 273.878906 48.789063 L 273.878906 51 C 277.523438 46.203125 283.464844 48.957031 283.464844 53.621094 L 283.464844 62.679688 L 279.625 62.679688 L 279.625 54.441406 C 279.625 52.550781 278.539063 51.664063 277.230469 51.664063 C 275.765625 51.664063 274.121094 52.34375 274.121094 54.441406 L 274.121094 62.679688 L 270.171875 62.679688 Z M 198.765625 44.414063 L 198.765625 48.789063 L 202.097656 48.789063 L 202.097656 51.664063 L 198.765625 51.664063 L 198.765625 57.53125 C 198.765625 60.597656 201.070313 60.078125 202.097656 60.03125 L 202.097656 62.679688 C 196.140625 63.621094 194.828125 61.4375 194.828125 56.476563 L 194.828125 45.5625 Z M 182.777344 48.789063 L 186.316406 48.789063 L 186.316406 50.890625 C 187.570313 48.492188 189.988281 48.1875 191.539063 48.578125 L 191.390625 51.824219 C 187.964844 51.046875 186.878906 52.773438 186.878906 56 L 186.878906 62.679688 L 182.804688 62.679688 Z M 244.480469 54.289063 C 244.558594 52.691406 243.78125 51.296875 241.367188 51.222656 C 238.953125 51.144531 237.9375 53.007813 237.875 54.289063 Z M 247.96875 56.441406 L 237.980469 56.441406 C 238.136719 60.203125 243.535156 60.585938 246.054688 59.308594 L 247.03125 61.773438 C 246.078125 62.371094 243.136719 62.746094 241.351563 62.667969 C 237.933594 62.519531 234.605469 60.246094 234.605469 55.527344 C 234.605469 51.097656 237.265625 48.335938 241.21875 48.335938 C 243.804688 48.335938 246.167969 49.070313 247.398438 51.808594 C 248.097656 53.367188 247.96875 54.742188 247.96875 56.441406 Z M 175.652344 54.339844 C 175.730469 52.722656 174.953125 51.308594 172.539063 51.234375 C 170.125 51.15625 169.109375 53.042969 169.046875 54.339844 Z M 179.140625 56.519531 L 169.148438 56.519531 C 169.308594 60.332031 174.707031 60.71875 177.226563 59.425781 L 178.203125 61.921875 C 177.25 62.527344 174.308594 62.90625 172.519531 62.828125 C 169.105469 62.679688 165.777344 60.375 165.777344 55.597656 C 165.777344 51.109375 168.4375 48.3125 172.390625 48.3125 C 174.976563 48.3125 177.339844 49.054688 178.570313 51.828125 C 179.269531 53.40625 179.140625 54.796875 179.140625 56.519531 Z M 152.089844 55.523438 C 152.089844 57.148438 152.417969 58.324219 153.078125 59.054688 C 153.75 59.78125 154.589844 60.148438 155.613281 60.148438 C 156.554688 60.148438 157.351563 59.789063 157.992188 59.070313 C 158.628906 58.355469 158.949219 57.148438 158.949219 55.453125 C 158.949219 53.957031 158.632813 52.859375 158.011719 52.160156 C 157.382813 51.460938 156.621094 51.109375 155.726563 51.109375 C 154.65625 51.109375 153.78125 51.472656 153.101563 52.203125 C 152.425781 52.929688 152.089844 54.035156 152.089844 55.523438 Z M 148.175781 43.390625 L 152.050781 43.390625 L 152.050781 50.402344 C 152.996094 49.363281 155.089844 48.316406 156.5625 48.316406 C 160.417969 48.316406 162.824219 51.40625 162.824219 55.390625 C 162.824219 58.832031 160.554688 62.789063 156.46875 62.789063 C 155.019531 62.789063 153.0625 62.003906 152.050781 60.582031 L 152.050781 62.679688 L 148.175781 62.679688 Z M 139.089844 43.390625 L 142.886719 43.390625 L 142.886719 62.679688 L 139.089844 62.679688 Z M 11.027344 42.011719 C 13.617188 33.027344 14.199219 30.335938 23.144531 25.410156 L 65.816406 1.921875 C 72.746094 -1.894531 77.890625 0.300781 80.800781 5.539063 L 104.808594 48.738281 C 107.757813 54.050781 109.617188 59.035156 107.921875 64.871094 L 95.597656 107.234375 C 94.253906 111.859375 89.511719 114.296875 84.367188 112.800781 L 5.347656 89.773438 C 1.324219 88.601563 -0.851563 83.210938 0.3125 79.171875 L 11.027344 42.011719 "/>
</g>
<path style=" stroke:none;fill-rule:evenodd;fill:rgb(100%,100%,100%);fill-opacity:1;" d="M 48.335938 59.648438 C 45.875 63.335938 41.820313 68.90625 37.246094 72.402344 C 34.125 74.785156 30.359375 72.523438 30.21875 68.816406 C 29.910156 60.457031 29.726563 53.128906 30.589844 46.5625 C 30.992188 43.507813 34.628906 42.378906 37.21875 44.519531 C 41.824219 48.328125 46.0625 55.640625 48.335938 59.648438 Z M 59.347656 25.28125 L 59.347656 45.570313 L 64.648438 38.878906 C 73.550781 27.636719 87.816406 35.539063 87.816406 45.433594 L 87.816406 82.644531 L 78.574219 82.644531 L 78.574219 48.273438 C 78.574219 44.542969 76.472656 43.359375 74.960938 43.410156 C 72.230469 43.503906 71.210938 45.097656 68.835938 48.105469 L 59.347656 60.105469 L 59.347656 82.523438 L 50.105469 82.523438 L 50.105469 72.460938 L 44.855469 78.308594 C 38.566406 85.316406 26.636719 83.148438 22.921875 75.886719 C 20.734375 71.609375 20.652344 66.84375 20.703125 61.519531 C 20.742188 57.308594 20.566406 52.941406 20.746094 49.136719 C 21.195313 39.726563 25.15625 33.574219 34.246094 33.539063 C 36.945313 33.53125 40.21875 34.839844 43.320313 37.726563 C 45.734375 39.96875 48 42.542969 50.105469 45.460938 L 50.105469 37.644531 L 59.347656 25.28125 "/>
<path style=" stroke:none;fill-rule:evenodd;fill:rgb(0%,63.899231%,88.999939%);fill-opacity:1;" d="M 253.800781 43.132813 C 254.933594 43.132813 255.859375 44.058594 255.859375 45.191406 C 255.859375 46.328125 254.933594 47.253906 253.800781 47.253906 C 252.664063 47.253906 251.738281 46.328125 251.738281 45.191406 C 251.738281 44.058594 252.664063 43.132813 253.800781 43.132813 "/>
<path style=" stroke:none;fill-rule:evenodd;fill:rgb(0%,63.899231%,88.999939%);fill-opacity:1;" d="M 263.398438 43.132813 C 264.53125 43.132813 265.460938 44.058594 265.460938 45.191406 C 265.460938 46.328125 264.53125 47.253906 263.398438 47.253906 C 262.265625 47.253906 261.339844 46.328125 261.339844 45.191406 C 261.339844 44.058594 262.265625 43.132813 263.398438 43.132813 "/>
</g>
</svg>
