<svg id="Layer_1" data-name="Layer 1" xmlns="http://www.w3.org/2000/svg" xmlns:xlink="http://www.w3.org/1999/xlink" viewBox="0 0 283.5 114.4"><defs><clipPath id="clip-path" transform="translate(0 0)"><rect y="0.4" width="283.5" height="114" style="fill:none"/></clipPath></defs><path d="M37.2,44.5c-2.6-2.1-6.2-1-6.6,2.1-.9,6.5-.7,13.9-.4,22.2.2,3.7,2.4,7.1,7,3.6s8.7-9.1,11.1-12.8C46.1,55.6,41.8,48.3,37.2,44.5Z" transform="translate(0 0)" style="fill:#fff;fill-rule:evenodd"/><path d="M104.8,48.7,80.8,5.5c-2.9-5.2-8.1-7.4-15-3.6L23.1,25.4C14.2,30.3,13.6,33,11,42L.3,79.2c-1.2,4,1,9.4,5,10.6l79.1,23c5.1,1.5,9.9-.9,11.2-5.6l12.3-42.3C109.6,59,107.8,54.1,104.8,48.7Zm-17,33.9H78.6V48.3c0-3.8-2.1-4.9-3.6-4.9s-3.8,1.7-6.2,4.7l-9.5,12V82.5H50.1v-10l-5.2,5.8c-6.3,7-18.3,4.8-22-2.4-2.2-4.3-2.2-9.1-2.2-14.4s-.1-8.6,0-12.4c.5-9.4,4.5-15.5,13.5-15.6,2.7,0,6,1.3,9.1,4.2a55.9,55.9,0,0,1,6.8,7.8V37.6l9.2-12.3V45.6l5.3-6.7c9-11.3,23.2-3.4,23.2,6.5Z" transform="translate(0 0)" style="fill:#fff;fill-rule:evenodd"/><g id="surface1"><rect y="0.4" width="283.5" height="114" style="fill:#fff"/><g style="clip-path:url(#clip-path)"><rect x="139.1" y="43.8" width="3.8" height="19.3" style="fill:#fff"/><path d="M273.9,51.4V49.2h-3.7V63.1h3.9V54.8c0-2.1,1.7-2.7,3.1-2.7h.3a2.4,2.4,0,0,1,2.1,2.7h0v8.3h3.9V54C283.5,49.4,277.5,46.6,273.9,51.4Z" transform="translate(0 0)" style="fill:#fff"/><path d="M124.1,43.8,118,63.1h4.2l1.4-5.2h6.3l1.5,5.2h4.2l-6.1-19.3Zm.2,11.1,1.8-6.6h.9l2,6.6Z" transform="translate(0 0)" style="fill:#fff"/><path d="M241.2,48.7c-3.9,0-6.6,2.8-6.6,7.2v.4a6.7,6.7,0,0,0,6.6,6.8h.2c1.7,0,4.7-.3,5.6-.9l-.9-2.5c-2.6,1.3-8,.9-8.1-2.9h10a10.3,10.3,0,0,0-.6-4.6C246.2,49.5,245.1,48.7,241.2,48.7Zm-3.3,6v-.2a3.2,3.2,0,0,1,3.5-2.9h0c2.4.1,3.2,1.5,3.1,3.1Z" transform="translate(0 0)" style="fill:#fff"/><path d="M156.6,48.7a7.6,7.6,0,0,0-4.5,2.1v-7h-3.9V63.1h3.9V61a5.4,5.4,0,0,0,4.4,2.2c4.1,0,6.3-3.4,6.3-7.4S160.4,48.7,156.6,48.7ZM158,59.5a3.1,3.1,0,0,1-2.4,1,3.5,3.5,0,0,1-2.5-1,5.1,5.1,0,0,1-1-3.6,4.4,4.4,0,0,1,1-3.3,3.6,3.6,0,0,1,2.6-1.1,3,3,0,0,1,2.3,1.1,4.9,4.9,0,0,1,.9,3.3A5.7,5.7,0,0,1,158,59.5Z" transform="translate(0 0)" style="fill:#fff"/><polygon points="226.7 51.4 218.5 51.4 218.5 43.9 214.6 43.9 214.6 63.1 218.5 63.1 218.5 54.8 226.7 54.8 226.7 63.1 230.5 63.1 230.5 43.9 226.7 43.9 226.7 51.4" style="fill:#fff"/><path d="M261.2,62c0,2.6-1.8,4.1-3.3,3.7v3.2c3.7.3,7.3-2.3,7.3-5.8V49.2h-3.9Z" transform="translate(0 0)" style="fill:#fff"/><path d="M198.8,44.8l-4,1.2V56.9c0,4.9,1.3,7.1,7.3,6.2V60.4c-1,.1-3.3.6-3.3-2.5V52.1h3.3V49.2h-3.3Z" transform="translate(0 0)" style="fill:#fff"/><rect x="251.7" y="49.2" width="4.2" height="13.9" style="fill:#fff"/><path d="M172.4,48.7c-4,0-6.6,2.5-6.6,7.3s3.3,7.1,6.7,7.2c1.8.1,4.8-.3,5.7-.9l-1-2.5c-2.5,1.3-7.9.9-8.1-2.9h10c0-1.7.8-2-.5-4.7S176.4,48.7,172.4,48.7Zm-3.4,6h0a3.3,3.3,0,0,1,3.5-3.1h0c2.5.1,3.2,1.5,3.2,3.1Z" transform="translate(0 0)" style="fill:#fff"/><path d="M186.3,51.3V49.2h-3.5V63.1H187V56.4c0-3.2,1.1-5,4.5-4.2V49A4.5,4.5,0,0,0,186.3,51.3Z" transform="translate(0 0)" style="fill:#fff"/></g><path d="M253.8,43.5a2.1,2.1,0,1,1-2.1,2.1,2.3,2.3,0,0,1,2.1-2.1" transform="translate(0 0)" style="fill:#fff;fill-rule:evenodd"/><path d="M263.4,43.5a2.1,2.1,0,1,1-2.1,2.1,2.3,2.3,0,0,1,2.1-2.1" transform="translate(0 0)" style="fill:#fff;fill-rule:evenodd"/></g></svg>