<svg xmlns="http://www.w3.org/2000/svg" viewBox="0 0 704 317"><title>logo_astral</title><path d="M204.54,122.39a154.32,154.32,0,0,0,2.82-28.32c0-20.44-5-38.83-16.86-52.61S160.26,19,135.15,17.31c-5.71-.36-11.54-.53-17.45-.53A381.74,381.74,0,0,0,16.75,31.08v10c33-9.55,68.81-14.68,101-14.66,5.72,0,11.35.16,16.83.49,23.29,1.64,38.77,9.31,48.67,20.82s14.52,27.4,14.53,46.35a146.89,146.89,0,0,1-2.66,26.67c-.73,4.53-1.6,9.07-2.45,13.6-1.23,0-2.47,0-3.73,0C140.82,134.3,90,145.14,61,184.59c-10.73,14.82-17.26,32.15-17.3,48.68-.25,22.1,12.74,42.86,41.34,50.13A92.05,92.05,0,0,0,107.27,286c31.69,0,63.47-14.47,89.09-28.58,4.16-2.34,8.23-4.82,12.29-7.33a66.82,66.82,0,0,1,1.25,12.67c.07,16.74-6.07,33.14-13,50.16h10.37c6.44-16,12.13-32.43,12.2-50.16a75.9,75.9,0,0,0-2.22-18.19c9.81-6.46,19.35-13.34,28.62-20.53V211.88c-10.23,8.12-20.7,15.88-31.46,23.06-6-18.45-14.37-35.09-16.47-53a81.83,81.83,0,0,1-.55-9.75c0-9.2,1.41-18.48,3.14-28a399,399,0,0,1,45.34,4.36v-9.75a412.6,412.6,0,0,0-43.55-4.18C203.12,130.6,203.88,126.53,204.54,122.39Zm1.58,118c-4.76,3-9.56,5.91-14.44,8.7-25,13.84-55.72,27.41-84.42,27.35a83.66,83.66,0,0,1-19.81-2.32c-25-6.86-33.84-22.23-34.11-40.82,0-14,5.73-29.64,15.45-43C94.63,154.71,142,143.87,188.9,143.92c.66,0,1.29,0,1.94,0a159.52,159.52,0,0,0-3,28.21,91.47,91.47,0,0,0,.62,10.9C191,204.12,200.49,222,206.12,240.37Z" transform="translate(0 0)" style="fill:#fff"/><path d="M374.06,221.75H360.62a3.16,3.16,0,0,1-3.16-3.16v-2.52c-7.27,4.42-14.7,6.94-22.28,6.94-13.12,0-27.34-5-27.34-26.39V196c0-18,11.06-27.34,38.55-27.34h10v-7c0-10.27-4.59-12.8-13.92-12.8a246.74,246.74,0,0,0-25.75,1.27h-.79c-1.58,0-2.85-.48-2.85-2.69V137.36c0-1.73.95-2.84,3-3.31a136,136,0,0,1,26.39-2.53c22.45,0,34.78,9.95,34.78,30.18v56.89a3.17,3.17,0,0,1-3.16,3.16m-17.7-39.19h-10c-14.38,0-17.53,4.58-17.53,13.43v.63c0,7.75,3.47,9.8,11.38,9.8A34.64,34.64,0,0,0,356.36,202V182.56Z" transform="translate(0 0)" style="fill:#fff"/><path d="M520.6,221.91a65.58,65.58,0,0,1-10.75,1.1c-17.86,0-25.13-3.94-25.13-25.12V148.26l-14.85-2.21c-1.75-.31-3.16-1.42-3.16-3.16v-7.11a3.17,3.17,0,0,1,3.16-3.16h14.85v-13c0-1.74,1.42-2.85,3.16-3.16L502.57,114h.64a2.28,2.28,0,0,1,2.53,2.37v16.28H520a3.17,3.17,0,0,1,3.16,3.16v9.32a3.17,3.17,0,0,1-3.16,3.16H505.74v49.63c0,7.89.47,8.85,6.16,8.85h8.37c2.06,0,3.33.78,3.33,2.36v10c0,1.59-1,2.53-3,2.85" transform="translate(0 0)" style="fill:#fff"/><path d="M583.82,149.22A44.62,44.62,0,0,0,562,154.91v63.53a3.31,3.31,0,0,1-3.17,3.31H544.31a3.31,3.31,0,0,1-3.17-3.31V135.78a3.18,3.18,0,0,1,3.17-3.16h13.75a3.17,3.17,0,0,1,3.16,3.16v3.33a36.74,36.74,0,0,1,22.6-7.6,3.18,3.18,0,0,1,3.16,3.17v11.37a3.18,3.18,0,0,1-3.16,3.17" transform="translate(0 0)" style="fill:#fff"/><path d="M661.06,221.75H647.63a3.17,3.17,0,0,1-3.17-3.16v-2.52c-7.26,4.42-14.69,6.94-22.28,6.94-13.11,0-27.34-5-27.34-26.39V196c0-18,11.07-27.34,38.56-27.34h10v-7c0-10.27-4.58-12.8-13.91-12.8a246.74,246.74,0,0,0-25.75,1.27h-.8c-1.58,0-2.84-.48-2.84-2.69V137.36c0-1.73,1-2.84,3-3.31a135.87,135.87,0,0,1,26.39-2.53c22.44,0,34.77,9.95,34.77,30.18v56.89a3.16,3.16,0,0,1-3.16,3.16m-17.7-39.19h-10c-14.37,0-17.54,4.58-17.54,13.43v.63c0,7.75,3.48,9.8,11.39,9.8A34.57,34.57,0,0,0,643.36,202V182.56Z" transform="translate(0 0)" style="fill:#fff"/><path d="M701,221.75h-14.7a3.29,3.29,0,0,1-3.15-3.31V106.18a3.16,3.16,0,0,1,3.15-3.16H701a3,3,0,0,1,3,3.16V218.44a3.17,3.17,0,0,1-3,3.31" transform="translate(0 0)" style="fill:#fff"/><path d="M432,168.35c-13.88-3.59-19.35-5-19.35-11.77,0-5.26,4.42-8.21,12.41-8.21a23.77,23.77,0,0,1,18,8.31h0s.54.44.62.52c1.14,1.08,2.76,1,4.21-.54l7-7.39c2.48-2.48.84-4.48.84-4.48-6.73-7.36-16.6-13.25-30.69-13.25-17.45,0-31.54,8.41-31.54,26.07,0,17.46,13,23.55,26.07,27.13C434.49,189,441,190,441,197.15c0,5.89-4.83,9.47-15.55,9.47-10.09,0-18.29-3.42-23.76-11.2l-.18-.28c-.94-1.17-1.91-.8-3.44.21l-9.81,6.94c-1.34,1-1.69,1.84-1.13,3l.19.3c5.88,9.47,19.2,18.09,39.39,18.09,25,0,34.28-12.4,34.28-27.54C461,177.38,445.84,171.92,432,168.35Z" transform="translate(0 0)" style="fill:#fff"/><path d="M155.83,230.89c-13.19,6.24-27.53,9.74-40.21,9.74-21.91,0-25-4.27-25-19.92v-2.07c0-19.57,2.16-31.58,44.8-31.58h20.43Zm33.07-87c-46.9,0-94.27,10.79-120.1,46.34-9.73,13.38-15.48,29.06-15.46,43,.27,18.6,9.14,34,34.11,40.83a83.71,83.71,0,0,0,19.81,2.31c28.7.07,59.42-13.5,84.42-27.35,4.88-2.78,9.68-5.69,14.44-8.69-5.63-18.42-15.09-36.25-17.68-57.3a91.62,91.62,0,0,1-.63-10.9,158.59,158.59,0,0,1,3-28.21c-.66,0-1.29,0-1.95,0" transform="translate(0 0)" style="fill:#fff"/><path d="M245.93,148.51a401.82,401.82,0,0,0-45.34-4.35c-1.74,9.53-3.17,18.81-3.15,28a84,84,0,0,0,.55,9.75c2.11,17.93,10.48,34.57,16.47,53,10.76-7.19,21.24-14.94,31.47-23.06V148.51Z" transform="translate(0 0)" style="fill:#fff"/><path d="M117.71,16.78q8.87,0,17.45.53c25.1,1.7,43.51,10.36,55.35,24.15s16.86,32.17,16.85,52.61a154.32,154.32,0,0,1-2.82,28.32c-.66,4.14-1.41,8.21-2.16,12.19a415.46,415.46,0,0,1,43.55,4.19V108.52C245.93,38.55,202.17,0,122.72,0a449.4,449.4,0,0,0-87,8.35l-.18,0-.14,0c-11.66,2.7-18.62,10.88-18.62,21.9v.77a381.75,381.75,0,0,1,101-14.3" transform="translate(0 0)" style="fill:#fff"/><path d="M209.9,262.79a66.82,66.82,0,0,0-1.25-12.67c-4.06,2.51-8.13,5-12.29,7.33C170.74,271.56,139,286,107.27,286a92.11,92.11,0,0,1-22.21-2.63c-28.6-7.27-41.59-28-41.34-50.13,0-16.53,6.57-33.86,17.3-48.68C90,145.14,140.82,134.3,188.9,134.3c1.26,0,2.5,0,3.73,0,.86-4.53,1.72-9.07,2.45-13.6a146.89,146.89,0,0,0,2.66-26.67c0-18.95-4.63-34.85-14.53-46.35S157.83,28.54,134.54,26.9c-5.48-.33-11.11-.49-16.83-.49-32.15,0-68,5.11-101,14.66V62.8C16.75,72.59,22.19,83,37.44,83h3.24l.7-.08c16.26-2,49.43-3.94,81.34-3.94,26.61,0,33.12,5.78,33.12,29.54v10.8H135.4C44.3,119.3,0,151.8,0,218.64v2.07C0,282.79,35.29,317,99.37,317c20.42,0,41.39-5.28,62.48-15.7A21.75,21.75,0,0,0,181.1,313H197c6.88-17,13-33.42,13-50.16" transform="translate(0 0)" style="fill:#fff"/><path d="M217.31,244.6a76.39,76.39,0,0,1,2.21,18.19c-.07,17.72-5.76,34.13-12.2,50.16h16.9a21.71,21.71,0,0,0,21.71-21.7V224.07Q232,234.86,217.31,244.6" transform="translate(0 0)" style="fill:#fff"/></svg>