<svg id="Layer_1" data-name="Layer 1" xmlns="http://www.w3.org/2000/svg" viewBox="0 0 704 317"><defs><style>.cls-1{fill:#fff;}.cls-2{fill:#54534a;}.cls-3{fill:#9c0058;}.cls-4{fill:#ed1849;}.cls-5{fill:#fbb040;}.cls-6{fill:#5191cd;}.cls-7{fill:#c1d82f;}</style></defs><path class="cls-1" d="M204.5,122.4a149.3,149.3,0,0,0,2.9-28.3c0-20.5-5-38.9-16.9-52.6S160.3,19,135.1,17.3c-5.7-.4-11.5-.5-17.4-.5A378.3,378.3,0,0,0,16.8,31.1v10a371.7,371.7,0,0,1,101-14.7c5.7,0,11.3.2,16.8.5,23.3,1.7,38.8,9.3,48.7,20.8s14.5,27.4,14.5,46.4a150.2,150.2,0,0,1-2.7,26.7c-.7,4.5-1.6,9-2.4,13.6h-3.8C140.8,134.3,90,145.1,61,184.6c-10.7,14.8-17.3,32.1-17.3,48.7-.2,22.1,12.7,42.8,41.3,50.1a93.1,93.1,0,0,0,22.3,2.6c31.7,0,63.4-14.5,89.1-28.6,4.1-2.3,8.2-4.8,12.2-7.3a60.2,60.2,0,0,1,1.3,12.7c.1,16.7-6.1,33.1-13,50.1h10.4c6.4-16,12.1-32.4,12.2-50.1a73.8,73.8,0,0,0-2.3-18.2c9.9-6.5,19.4-13.4,28.7-20.6V211.9c-10.3,8.1-20.7,15.9-31.5,23-6-18.4-14.4-35-16.5-53-.3-3.2-.5-6.5-.5-9.7,0-9.2,1.4-18.5,3.1-28a383.3,383.3,0,0,1,45.4,4.4v-9.8a399.5,399.5,0,0,0-43.6-4.2C203.1,130.6,203.9,126.5,204.5,122.4Zm1.6,118q-7,4.5-14.4,8.7c-25,13.8-55.7,27.4-84.4,27.3a78.5,78.5,0,0,1-19.9-2.3c-25-6.8-33.8-22.2-34.1-40.8,0-14,5.8-29.6,15.5-43,25.8-35.6,73.2-46.4,120.1-46.4h1.9a167.7,167.7,0,0,0-3,28.2,78.8,78.8,0,0,0,.7,10.9c2.5,21.1,12,39,17.6,57.4Z" transform="translate(0 0)"/><path class="cls-2" d="M374.1,221.8H360.6a3.2,3.2,0,0,1-3.1-3.2h0v-2.5c-7.3,4.4-14.7,6.9-22.3,6.9-13.1,0-27.4-5-27.4-26.4V196c0-18,11.1-27.3,38.6-27.3h10v-7c0-10.3-4.6-12.8-13.9-12.8a247.5,247.5,0,0,0-25.8,1.2h-.8c-1.6,0-2.8-.4-2.8-2.7v-10c0-1.8.9-2.9,3-3.3a129.9,129.9,0,0,1,26.4-2.6c22.4,0,34.7,10,34.7,30.2v56.9a3.3,3.3,0,0,1-3.1,3.2m-17.7-39.2h-10c-14.4,0-17.5,4.5-17.5,13.4v.6c0,7.8,3.4,9.8,11.3,9.8a34.2,34.2,0,0,0,16.2-4.4V182.6Z" transform="translate(0 0)"/><path class="cls-2" d="M520.6,221.9a63.8,63.8,0,0,1-10.8,1.1c-17.8,0-25.1-3.9-25.1-25.1V148.3L469.9,146c-1.8-.3-3.2-1.4-3.2-3.1v-7.1a3.2,3.2,0,0,1,3.2-3.2h14.8v-13c0-1.7,1.4-2.8,3.2-3.1l14.7-2.5h.6a2.3,2.3,0,0,1,2.5,2v16.7H520a3.2,3.2,0,0,1,3.2,3.1v9.3a3.2,3.2,0,0,1-3.2,3.2H505.7v49.6c0,7.9.5,8.9,6.2,8.9h8.4c2,0,3.3.8,3.3,2.3v10c0,1.6-1,2.6-3,2.9" transform="translate(0 0)"/><path class="cls-2" d="M583.8,149.2a45.2,45.2,0,0,0-21.8,5.7v63.5a3.4,3.4,0,0,1-3.2,3.4H544.3a3.4,3.4,0,0,1-3.2-3.4V135.8a3.3,3.3,0,0,1,3.2-3.2h13.8a3.1,3.1,0,0,1,3.1,3.2v3.3a37.1,37.1,0,0,1,22.6-7.6,3.2,3.2,0,0,1,3.2,3.2V146a3.2,3.2,0,0,1-3.2,3.2" transform="translate(0 0)"/><path class="cls-2" d="M661.1,221.8H647.6a3.2,3.2,0,0,1-3.1-3.2v-2.5c-7.3,4.4-14.7,6.9-22.3,6.9-13.1,0-27.4-5-27.4-26.4V196c0-18,11.1-27.3,38.6-27.3h10v-7c0-10.3-4.6-12.8-13.9-12.8a247.5,247.5,0,0,0-25.8,1.2h-.8c-1.5,0-2.8-.4-2.8-2.7v-10q0-2.7,3-3.3a129.9,129.9,0,0,1,26.4-2.6c22.4,0,34.8,10,34.8,30.2v56.9a3.3,3.3,0,0,1-3.2,3.2m-17.7-39.2h-10c-14.4,0-17.5,4.5-17.5,13.4v.6c0,7.8,3.4,9.8,11.4,9.8a34.1,34.1,0,0,0,16.1-4.4V182.6Z" transform="translate(0 0)"/><path class="cls-2" d="M701,221.8H686.3a3.4,3.4,0,0,1-3.2-3.4V106.2a3.2,3.2,0,0,1,3.2-3.2H701a3,3,0,0,1,3,3V218.4a3.2,3.2,0,0,1-3,3.4" transform="translate(0 0)"/><path class="cls-2" d="M432,168.4c-13.9-3.6-19.4-5-19.4-11.8,0-5.3,4.5-8.2,12.5-8.2a23.6,23.6,0,0,1,18,8.3h0l.6.5c1.1,1.1,2.7,1,4.2-.5l7-7.4c2.5-2.5.8-4.5.8-4.5-6.7-7.4-16.6-13.3-30.7-13.3-17.4,0-31.5,8.5-31.5,26.1s13,23.6,26.1,27.1C434.5,189,441,190,441,197.1s-4.8,9.5-15.5,9.5-18.3-3.4-23.8-11.2l-.2-.3c-.9-1.1-1.9-.8-3.4.3l-9.8,6.9c-1.4,1-1.7,1.8-1.2,3l.2.3c5.9,9.5,19.2,18.1,39.4,18.1,25,0,34.3-12.4,34.3-27.6C461,177.4,445.8,171.9,432,168.4Z" transform="translate(0 0)"/><path class="cls-3" d="M155.8,230.9c-13.2,6.2-27.5,9.7-40.2,9.7-21.9,0-25-4.2-25-19.9v-2.1c0-19.5,2.2-31.5,44.8-31.5h20.5Zm33.1-87c-46.9,0-94.3,10.8-120.1,46.3-9.7,13.4-15.5,29.1-15.5,43,.3,18.6,9.2,34,34.1,40.9a88.7,88.7,0,0,0,19.9,2.3c28.7,0,59.4-13.5,84.4-27.4q7.4-4.2,14.4-8.7c-5.6-18.4-15.1-36.2-17.7-57.3a98.2,98.2,0,0,1-.6-10.9,167.7,167.7,0,0,1,3-28.2h-1.9" transform="translate(0 0)"/><path class="cls-4" d="M245.9,148.5a403.6,403.6,0,0,0-45.3-4.3c-1.8,9.5-3.2,18.8-3.2,28a78.9,78.9,0,0,0,.6,9.7c2.1,17.9,10.5,34.6,16.5,53,10.7-7.2,21.2-14.9,31.4-23.1V148.5Z" transform="translate(0 0)"/><path class="cls-5" d="M117.7,16.8c5.9,0,11.7.2,17.5.5,25.1,1.7,43.5,10.4,55.3,24.2s16.9,32.1,16.9,52.6a149.3,149.3,0,0,1-2.9,28.3c-.6,4.1-1.4,8.2-2.1,12.2a395.3,395.3,0,0,1,43.5,4.2V108.5C245.9,38.5,202.2,0,122.7,0a446.1,446.1,0,0,0-87,8.4h-.3C23.7,11.1,16.8,19.2,16.8,30.3V31a383.1,383.1,0,0,1,101-14.3" transform="translate(0 0)"/><path class="cls-6" d="M209.9,262.8a60.2,60.2,0,0,0-1.3-12.7l-12.2,7.4C170.7,271.6,139,286,107.3,286a97,97,0,0,1-22.2-2.6c-28.6-7.3-41.6-28-41.4-50.2,0-16.5,6.6-33.8,17.3-48.6,29-39.5,79.8-50.3,127.9-50.3h3.7c.9-4.5,1.7-9.1,2.5-13.6A140.5,140.5,0,0,0,197.7,94c0-18.9-4.6-34.8-14.5-46.3s-25.4-19.2-48.7-20.8c-5.4-.3-11.1-.5-16.8-.5-32.1,0-68,5.1-101,14.7V62.8C16.8,72.6,22.2,83,37.4,83h4c16.2-2,49.4-3.9,81.3-3.9,26.6,0,33.1,5.8,33.1,29.5v10.8H135.4C44.3,119.3,0,151.8,0,218.6v2.1C0,282.8,35.3,317,99.4,317c20.4,0,41.4-5.3,62.5-15.7A21.6,21.6,0,0,0,181.1,313H197c6.9-17,13-33.4,13-50.2" transform="translate(0 0)"/><path class="cls-7" d="M217.3,244.6a74.9,74.9,0,0,1,2.2,18.2c-.1,17.7-5.7,34.1-12.2,50.2h16.9a21.7,21.7,0,0,0,21.7-21.7V224.1c-9.3,7.2-18.8,14-28.6,20.5" transform="translate(0 0)"/></svg>