<svg id="svg36" xmlns="http://www.w3.org/2000/svg" viewBox="0 0 101.4 24.5"><defs><style>.cls-1{fill:#fff;}</style></defs><path id="path22" class="cls-1" d="M27.5,9.6H25.4l-.6.7c-.1.1,0,.2.1.2l.7.3,1.9-.9c.1-.1.1-.1.1-.2Z" transform="translate(-3 -3.5)"/><circle id="circle24" class="cls-1" cx="19.9" cy="6.8" r="0.6"/><path id="path26" class="cls-1" d="M19.6,20.1H16.9l-1.8.8c0,.1-.1.1,0,.2l2.3,6.5h1.3l-2.2-5.9h.1a7.6,7.6,0,0,0,6.5-3.3A4.3,4.3,0,0,1,19.6,20.1Zm.3-3.9.5-.7h-.2a9.6,9.6,0,0,1-7.4,3.2h-3c-.1,0-.2-.1-.1-.2A41,41,0,0,1,16.6,11l-5.1,4.3a2.5,2.5,0,0,1-1.6.6H3.4c-.2,0-.1.1-.1.2a3.8,3.8,0,0,0,3.8,2.7L5.6,20.4c-.1,0-.1.2.1.2h5.8a9.2,9.2,0,0,0,8.4-4.4Zm-1.7,6.6L20,27.6h1.3l-1.9-5.1ZM27.5,9.6H25.4l-.6.7c0,.1,0,.2.1.2l.7.3,2-.9c0-.1.1-.1,0-.2Zm-4.2,1.2a.8.8,0,0,1-.9,0,.7.7,0,0,1,0-.9.8.8,0,0,1,.9,0,1,1,0,0,0-1.5.1,1.1,1.1,0,1,0,1.5,0A.6.6,0,0,1,23.3,10.8Z" transform="translate(-3 -3.5)"/><circle id="circle28" class="cls-1" cx="19.9" cy="6.8" r="0.5"/><path id="path30" class="cls-1" d="M23.1,18.4a22.7,22.7,0,0,0,2.5-7.6l-.7-.3c-.1,0-.1-.1-.1-.2l.6-.7A3.6,3.6,0,0,0,22.2,8a4.3,4.3,0,0,0-2.7.8A31.5,31.5,0,0,0,16.6,11a49.8,49.8,0,0,0-7,7.5.3.3,0,0,0,.1.2h3.1a9.6,9.6,0,0,0,7.4-3.2h.2v.2A10.5,10.5,0,0,1,17,20.1h2.6A4.3,4.3,0,0,0,23.1,18.4Zm-1.3-6.9a.9.9,0,0,1,0-1.5,1,1,0,0,1,1.5-.1,1.2,1.2,0,0,1,0,1.6h0a1.1,1.1,0,0,1-1.5,0ZM24.2,19a7.3,7.3,0,0,1-3.6,3.1l1.9,5.5h5.8c-1.2-3.3-2.4-6.6-3.6-9.5a4.1,4.1,0,0,1-.5.9ZM3,27.6H8.8l1.9-5.8H5Zm7.6-13.3L14,11.5a40.8,40.8,0,0,1,1.7-4.2c.3.7.6,1.3.9,2.1l2.2-1.7h0a5.3,5.3,0,0,1,1.7-.8c-.8-1.7-1.3-2.9-1.6-3.4H12.4c-.5,1.2-2.5,5.4-4.9,11H9.9A.8.8,0,0,0,10.6,14.3Z" transform="translate(-3 -3.5)"/><path id="path32" class="cls-1" d="M35.5,24.2a1.9,1.9,0,0,1-2.2-1.7c0-.1-.1-.3,0-.4v-9H28.6v9.6c0,3.5,1.5,5.3,4.9,5.3" transform="translate(-3 -3.5)"/><path id="path34" class="cls-1" d="M37.8,23.2a3.3,3.3,0,0,1-2.3,1,1.9,1.9,0,0,1-2.2-1.7.5.5,0,0,1,0-.5V12.9H28.6v9.8c0,3.5,1.5,5.3,4.9,5.3a6.2,6.2,0,0,0,4.9-2l.3,1.6h3.8V12.9H37.8Zm15,.7c-2.4,0-3.6-1.5-3.6-3.7s1.2-3.4,3.5-3.4a5.4,5.4,0,0,1,3.2.9l.6-4a10.3,10.3,0,0,0-4.9-1c-4.8,0-7.4,2.7-7.4,7.7S46.7,28,51.4,28a11.7,11.7,0,0,0,5.5-1.3l-.7-3.8A7,7,0,0,1,52.8,23.9ZM67.3,12.7a6.3,6.3,0,0,0-4.2,1.2V7.5H58.2V27.6h4.9V17.5a3.2,3.2,0,0,1,2.2-1,1.8,1.8,0,0,1,2.1,1.6.4.4,0,0,1,0,.5v9h4.9V18C72.3,14.4,70.7,12.7,67.3,12.7Zm32.2,0a5.9,5.9,0,0,0-5,1.9l-.3-1.7H90.3V27.6h4.9V17.5a2.9,2.9,0,0,1,2.2-1,1.8,1.8,0,0,1,2.1,1.6v9.5h4.9V18C104.4,14.4,102.8,12.7,99.5,12.7ZM74,20.9c0,4.9,1.8,7.1,5.4,7.1a5.3,5.3,0,0,0,4.5-2l.2,1.6H88v-14a18.7,18.7,0,0,0-6.7-.9c-4.7,0-7.3,2.9-7.3,8.2Zm9.1,2.3a3.3,3.3,0,0,1-2.3,1c-1.3,0-2-1.2-2-3.5s.8-4.2,2.3-4.2a6.5,6.5,0,0,1,2,.2Z" transform="translate(-3 -3.5)"/></svg>