<svg id="Layer_1" data-name="Layer 1" xmlns="http://www.w3.org/2000/svg" viewBox="0 0 465.23 112.03"><defs><style>.cls-1{fill:#f26222;}</style></defs><title>ayuda_splash</title><path class="cls-1" d="M132.18,344.83A56.78,56.78,0,0,1,162,374.67a54.07,54.07,0,0,1,4.41,21.77A54.89,54.89,0,0,1,162,418.33a56.28,56.28,0,0,1-12,17.74,57.52,57.52,0,0,1-17.8,12,54.89,54.89,0,0,1-21.89,4.41,54,54,0,0,1-21.77-4.41,57.36,57.36,0,0,1-17.79-12,56.31,56.31,0,0,1-12.05-17.74,55.05,55.05,0,0,1-4.4-21.89,54.23,54.23,0,0,1,4.4-21.77,56.87,56.87,0,0,1,29.84-29.84,54.2,54.2,0,0,1,21.77-4.4A55.05,55.05,0,0,1,132.18,344.83ZM79.23,385.07q-.49,6.36-5.26,22.87,15.9-6.6,22.2-7.77T107.85,393a17.38,17.38,0,0,0,4.52-11.81,14.33,14.33,0,0,0-16.08-14.37A17.34,17.34,0,0,0,85,372.72Q79.72,378.7,79.23,385.07Zm61.88,29.47a14.29,14.29,0,0,0-3.42-11.43,17,17,0,0,0-11-6.18q-8-1.1-13.51,2.08t-22,8.32q14.19,9.54,18.65,14.18t12.42,5.75a17.18,17.18,0,0,0,12.41-2.75A13.89,13.89,0,0,0,141.11,414.54Zm-3.18-28.13a11.31,11.31,0,0,0,3.91-7.4,9.47,9.47,0,0,0-2.2-7.52,9.61,9.61,0,0,0-7.21-3.12,11.17,11.17,0,0,0-7.83,3,13.45,13.45,0,0,0-4.71,7.58q-.8,4.17-5.07,14.56,10.75-3.06,15-3.31A13.19,13.19,0,0,0,137.93,386.41ZM196,422q13.46,8.56,21,8.56a34.77,34.77,0,0,0,7.4-.73,25.62,25.62,0,0,0,6-2.08,17.85,17.85,0,0,0,8.14-6.54,18.78,18.78,0,0,0,3.11-8.87q1-11.37-7.64-15.9t-17.31-8.68a19.61,19.61,0,0,1-3.18-1.59,2.86,2.86,0,0,1-1.34-2.57,2.68,2.68,0,0,1,1.83-2.69,11.14,11.14,0,0,1,4.16-.73q4.65,0,12.84,5l9.42-8.68q-11.13-10.39-22-10.4-12.1,0-17.92,5.75t-6.18,12.47q-.36,10.53,8.2,14.62l16.75,8a11.68,11.68,0,0,1,3.67,2.45,3.64,3.64,0,0,1-.67,5.74,9.31,9.31,0,0,1-4.95,1.1q-3.8,0-14.8-6.23Zm70.69,4.16q5.75,4.41,10.15,4.4,8.08,0,13.09-3.42a24.64,24.64,0,0,0,7.83-8.56,34.75,34.75,0,0,0,3.79-11.13,70.38,70.38,0,0,0,1-11.25,41.73,41.73,0,0,0-1.35-10.15,33,33,0,0,0-4.16-9.67,24.69,24.69,0,0,0-7.21-7.33,18.29,18.29,0,0,0-10.4-2.94q-5,0-12.84,6.36l.12-4.52h-18.1v82.43h18.1Zm0-40.11c1.39-1.14,2.71-2.27,4-3.37s3.16-1.65,5.68-1.65q5.88,0,6.91,6.06a60.7,60.7,0,0,1,1,10.08,99.64,99.64,0,0,1-.91,11.44q-.92,7.39-7,7.4-6.72,0-8.19-5.75a44,44,0,0,1-1.47-10.88Zm42.44,16.26a82.78,82.78,0,0,0,1.29,16.39,52,52,0,0,0,3,10H330.8a102.6,102.6,0,0,1-3.92-26.42V342.63H309.15Zm71.3,28.25a16.31,16.31,0,0,0,4.83-.73,23.75,23.75,0,0,0,4.59-2l-2.69-8.31c-.25.08-.51.18-.8.3a2.31,2.31,0,0,1-.91.18c-.74,0-1.17-.4-1.29-1.22a14.6,14.6,0,0,1-.18-2.08V384.46q0-9.66-6.42-14a26.57,26.57,0,0,0-15.23-4.34A29.8,29.8,0,0,0,349.94,369a39.05,39.05,0,0,0-10.7,7l6.36,10.15a29.88,29.88,0,0,1,7-4.1,20.85,20.85,0,0,1,8-1.53,9.11,9.11,0,0,1,4.34,1.23,3.92,3.92,0,0,1,2.26,3.66V388l-27.15,11a58.9,58.9,0,0,0-3,6.3,17.37,17.37,0,0,0-1.47,6.79q0,9.28,4.95,13.88t14,4.58a17.35,17.35,0,0,0,9.05-2.63,13.29,13.29,0,0,0,6-7.15,12.38,12.38,0,0,0,3.3,7C374.66,429.63,377.19,430.56,380.45,430.56Zm-12.84-30.69v3.3A16.67,16.67,0,0,1,365.1,412q-2.5,4.11-7.89,4.1a5.15,5.15,0,0,1-3.3-1.16,3.75,3.75,0,0,1-1.46-3.12,17.47,17.47,0,0,1,.3-3.12,22.23,22.23,0,0,1,.8-3.12ZM394,422q13.46,8.56,20.91,8.56a35.33,35.33,0,0,0,7.52-.73,25.86,25.86,0,0,0,6.06-2.08,17.87,17.87,0,0,0,8.13-6.54,18.9,18.9,0,0,0,3.12-8.87q.86-11.37-7.71-15.9t-17.36-8.68a20.77,20.77,0,0,1-3.06-1.59,2.84,2.84,0,0,1-1.35-2.57,2.68,2.68,0,0,1,1.84-2.69,11.1,11.1,0,0,1,4.16-.73q4.51,0,12.84,5l9.41-8.68q-11.13-10.39-22.13-10.4-12,0-17.86,5.75t-6.11,12.47q-.37,10.53,8.19,14.62l16.76,8a11.93,11.93,0,0,1,3.67,2.45,3.69,3.69,0,0,1,1.1,2.44,3.63,3.63,0,0,1-1.78,3.3,9.59,9.59,0,0,1-5.07,1.1q-3.68,0-14.68-6.23Zm85.48-37.18v43.91h18V384.82a25.29,25.29,0,0,0-3.42-12.72q-3.44-6-15.41-6a15.14,15.14,0,0,0-7.46,2.14,64.73,64.73,0,0,0-6.61,4.22V342.63h-18v86.1h18V385.92q2.32-1.46,5-3.18a12.54,12.54,0,0,1,6.85-1.71,2.69,2.69,0,0,1,2.38,1A4.92,4.92,0,0,1,479.51,384.82ZM501.16,344v10.64h1.47V344h3.67v-1.34h-8.81V344Zm16.63,5.39.25,5.25h1.47l-.74-12h-1.95l-2.08,5.75a16.15,16.15,0,0,0-.8,2.14c-.2.69-.39,1.32-.55,1.89-.16-.57-.35-1.2-.55-1.89s-.43-1.41-.67-2.14l-2.08-5.75h-2l-.73,12h1.47l.24-5.13c.08-.9.14-1.82.18-2.75s.07-1.78.07-2.51c.16.65.36,1.37.61,2.14s.53,1.61.85,2.51l1.84,5.62h1.22l2.08-5.75c.33-.81.61-1.6.86-2.38s.48-1.49.73-2.14c0,.73,0,1.57.06,2.51S517.71,348.54,517.79,349.36Z" transform="translate(-54.28 -340.43)"/></svg>