<svg id="Layer_1" data-name="Layer 1" xmlns="http://www.w3.org/2000/svg" viewBox="0 0 484.29 154.35"><defs><style>.cls-1{fill:#ed6b23;}</style></defs><title>ayuda_juice</title><path class="cls-1" d="M61.39,356.76h90.67a53.74,53.74,0,0,1,7.65,15,56.81,56.81,0,0,1-1.56,39,57,57,0,0,1-12,17.77,55.31,55.31,0,0,1-17.61,11.85,55.23,55.23,0,0,1-43.44,0,54.4,54.4,0,0,1-29.62-29.62A52.92,52.92,0,0,1,51,389a54.83,54.83,0,0,1,2.72-17.28A53.74,53.74,0,0,1,61.39,356.76Zm45.42,77.34a45.39,45.39,0,0,0,17.28-3.29,46.34,46.34,0,0,0,14.15-9.38,48.1,48.1,0,0,0,9.87-13.82,46.5,46.5,0,0,0,4.12-16.95c-1.32.55-2.58,1.12-3.79,1.72L145,394.11a40.54,40.54,0,0,1-15.38,4.77,52.05,52.05,0,0,1-13.74-.82l3.12-7.9a7,7,0,0,1-2.38,1.4,8.39,8.39,0,0,1-2.72.41,9.09,9.09,0,0,0-3.29.58,6.14,6.14,0,0,0-2.63,2.06l-.49,1.48q-3.8-1.15-7.66-2.22c-2.58-.72-5.34-1.35-8.31-1.9A37.29,37.29,0,0,0,76,391.64q-6.75,1.49-14.16,3.79a43.48,43.48,0,0,0,5.1,15.3,45,45,0,0,0,10,12.26,46.55,46.55,0,0,0,13.58,8.15A45.21,45.21,0,0,0,106.81,434.1Zm7.24-54.8-3.29,8.07a6.69,6.69,0,0,1,2.63-1.9,9.09,9.09,0,0,1,3.29-.57,18.59,18.59,0,0,0,2.72-.5,6.2,6.2,0,0,0,2.38-1.31l3.29-8.23a7.26,7.26,0,0,1-2.38,1.4,9.31,9.31,0,0,1-2.88.41,8.65,8.65,0,0,0-3.13.57A6.16,6.16,0,0,0,114.05,379.3Zm2.8-7.24a6.57,6.57,0,0,1,2.63-1.89,8.64,8.64,0,0,1,3.12-.58,18.26,18.26,0,0,0,2.88-.49,6.07,6.07,0,0,0,2.39-1.32l3.13-8.23a6.13,6.13,0,0,1-2.39,1.32,18.45,18.45,0,0,1-2.71.5,9.14,9.14,0,0,0-3.3.57A6.28,6.28,0,0,0,120,364ZM135,350a6.13,6.13,0,0,1-2.39,1.32,18.49,18.49,0,0,1-2.71.49,8.93,8.93,0,0,0-3.3.58,6.25,6.25,0,0,0-2.63,2.05l3.29-8.22a5.61,5.61,0,0,1,2.64-2,14.16,14.16,0,0,1,3.12-.66,8.93,8.93,0,0,0,2.88-.41,7.12,7.12,0,0,0,2.39-1.4Zm6.09-15.3a6.11,6.11,0,0,1-2.39,1.31,18.38,18.38,0,0,1-2.88.5,8.65,8.65,0,0,0-3.13.57,6.28,6.28,0,0,0-2.63,2.06l3.13-8.23a5.52,5.52,0,0,1,2.63-2,14.52,14.52,0,0,1,3.29-.66,8.72,8.72,0,0,0,2.72-.41,7.26,7.26,0,0,0,2.38-1.4Zm51.17,121,5.27,17.44a97,97,0,0,0,20.24-8.72q10.2-5.76,10.2-19.75V355.44H203.4v88a10.32,10.32,0,0,1-1.89,6.33C200.25,451.52,197.15,453.46,192.21,455.66ZM204.88,343.1a15.92,15.92,0,0,0,10.37,3.78A16.29,16.29,0,0,0,226,342.77a13,13,0,0,0,4.85-10.37,12.17,12.17,0,0,0-4.6-9.87,16,16,0,0,0-21.15.41,13.09,13.09,0,0,0-4.85,10.29A12.16,12.16,0,0,0,204.88,343.1Zm89.52,89a29,29,0,0,0,6.34,6.33,19.67,19.67,0,0,0,9.95,3.7l7.9-13.16c-2.85-2.52-4.28-4.83-4.28-6.91V355.44h-25V415q-11,6.58-15.14,6.58a7.32,7.32,0,0,1-4.28-1c-.88-.66-1.31-2-1.31-4.12V355.44H243.72v61.05q0,12.18,6.17,18.93t20.49,6.74A28.47,28.47,0,0,0,283,438.87,79.75,79.75,0,0,0,294.4,432.13Zm37.27-89a16.15,16.15,0,0,0,21.15-.33,13.11,13.11,0,0,0,4.77-10.37,12.28,12.28,0,0,0-4.52-9.87,15.63,15.63,0,0,0-10.29-3.79,16.09,16.09,0,0,0-10.78,4.2,13.12,13.12,0,0,0-4.85,10.29A12.26,12.26,0,0,0,331.67,343.1Zm-1.56,96.43h24.52V355.44H330.11Zm72.57,2.63a37.23,37.23,0,0,0,15.06-3.45A51.53,51.53,0,0,0,431,430.48l-8.88-16a42.61,42.61,0,0,1-8.64,5,23.81,23.81,0,0,1-9.63,2.22q-7.74,0-10.78-9.55t-3-15.47c0-3.83,1-8.72,3-14.64s5.43-8.89,10.37-8.89a27.71,27.71,0,0,1,7.73,1.32,22.35,22.35,0,0,1,7.08,3.29l11-14.48a37.38,37.38,0,0,0-12-7.57,37,37,0,0,0-14-3,33.1,33.1,0,0,0-16.45,3.95A38.38,38.38,0,0,0,374.79,367a44.77,44.77,0,0,0-7.32,14.57A56.26,56.26,0,0,0,365,398.23a53.58,53.58,0,0,0,2.47,16.12,47,47,0,0,0,7.4,14.07,37.12,37.12,0,0,0,11.68,10A33.72,33.72,0,0,0,402.68,442.16Zm54.14-42.45h48.87c0-2.31,0-4.58-.08-6.83s-.14-4.58-.25-7a31.07,31.07,0,0,0-3-12.67,33.58,33.58,0,0,0-17.77-17.77,31.34,31.34,0,0,0-12.84-2.63,38.12,38.12,0,0,0-16.29,3.45,39.34,39.34,0,0,0-12.67,9.3,43,43,0,0,0-8.22,13.58,45.47,45.47,0,0,0-3,16.45,68.6,68.6,0,0,0,2.14,17,47.61,47.61,0,0,0,6.58,15,34.85,34.85,0,0,0,11.52,10.69q6.92,4.13,16.95,4.12a43.5,43.5,0,0,0,16.62-3.7,57.84,57.84,0,0,0,15.14-9l-7.24-15.31A36.13,36.13,0,0,1,482,419.7a44.89,44.89,0,0,1-12.34,1.89q-7.41,0-10.21-6.58a32.09,32.09,0,0,1-2.79-12.51v-1.39A5.72,5.72,0,0,1,456.82,399.71Zm13.82-30.45a9.45,9.45,0,0,1,8.64,4.78,20.15,20.15,0,0,1,3.05,9.87H458.47a22.85,22.85,0,0,1,3.7-9.54Q465.38,369.27,470.64,369.26Zm40-44.43v14.32h2V324.83h4.93V323H505.69v1.81ZM533,332.07l.33,7.08h2l-1-16.13h-2.64l-2.79,7.74a22.18,22.18,0,0,0-1.07,2.88c-.28.93-.53,1.78-.74,2.55-.22-.88-.47-1.76-.74-2.64s-.58-1.81-.91-2.79l-2.8-7.74H520l-1,16.13h2l.33-6.91c.1-1.21.19-2.44.24-3.7s.09-2.39.09-3.38c.21.88.49,1.84.82,2.88s.71,2.17,1.15,3.38L526.1,339h1.64l2.8-7.74c.44-1.09.82-2.16,1.15-3.21s.66-2,1-2.88c0,1,0,2.09.08,3.29S532.9,330.87,533,332.07Z" transform="translate(-51.02 -318.74)"/></svg>