<svg xmlns="http://www.w3.org/2000/svg" viewBox="0 0 318.02 140.72"><defs><style>.a{fill:#fff;}</style></defs><title>logo_branded_cities_white</title><path class="a" d="M91.8,257.6c0-2.31,0-4.53,0-6.75,0-3.83,0-7.65-.09-11.47-.09-2.46-1.36-3.6-3.75-3.78-2.21-.16-3.57.89-4.06,3.25a15.39,15.39,0,0,0-.27,3q0,24.39,0,48.8a14.58,14.58,0,0,0,.58,4A3.1,3.1,0,0,0,87.64,297c2-.06,3.31-.84,3.74-2.58a16.17,16.17,0,0,0,.4-3.74c0-5.66,0-11.33,0-17,0-1.15.35-1.48,1.48-1.47,7.32,0,14.63,0,21.94,0,.91,0,1.42.13,1.41,1.24-.06,4.89.09,9.79-.09,14.67-.41,11.14-6.71,19.17-17.46,22.08a43.43,43.43,0,0,1-25.87-.88c-7.33-2.51-11.79-7.77-13.35-15.33a44.68,44.68,0,0,1-.94-8.78c-.1-12.78-.12-25.56,0-38.34a35.89,35.89,0,0,1,1.34-9.15c2.1-7.59,7.21-12.51,14.65-14.82a43.63,43.63,0,0,1,26.3-.2,21,21,0,0,1,15.2,19.55c.26,4.78.11,9.58.18,14.37,0,.8-.23,1.14-1.07,1.13-7.65,0-15.3,0-23,0A5.36,5.36,0,0,1,91.8,257.6Z" transform="translate(-20.99 -171.06)"/><path class="a" d="M283.25,278.14h19.58c3.43,0,3.43,0,3.43,3.38s0,6.78,0,10.17a15.74,15.74,0,0,0,.22,2.74,3.56,3.56,0,0,0,3.35,3.26c2.29.19,3.74-.62,4.48-2.61a8.54,8.54,0,0,0,.54-2.54c.1-1.83,0-3.68.11-5.52a10.6,10.6,0,0,0-4.46-9.59c-3.26-2.4-6.84-4.36-10.24-6.57a114.31,114.31,0,0,1-9.59-6.49A20.34,20.34,0,0,1,283,248a72.16,72.16,0,0,1,.5-10.71,16.56,16.56,0,0,1,12-14.14,47.27,47.27,0,0,1,31.87.72c6.5,2.5,9.62,7.69,9.91,14.56.13,3.22,0,6.45,0,9.76H315.15c0-.91,0-1.81,0-2.7-.07-2.27,0-4.56-.3-6.81-.34-2.65-2-3.86-4.78-3.78-2.21.06-3.56,1.3-3.79,3.93a38.37,38.37,0,0,0,0,6.52,7.08,7.08,0,0,0,3.16,5.2c2.68,1.89,5.51,3.57,8.28,5.33,4,2.53,8.22,4.78,12,7.62,6.42,4.87,9.5,11.57,9.34,19.67a103.4,103.4,0,0,1-.36,10.72c-1.09,8.93-6.31,14.33-15,16.33a56.53,56.53,0,0,1-26.47,0c-8.79-2.16-13.33-7.65-13.89-16.69-.3-4.88-.15-9.78-.2-14.67A4.71,4.71,0,0,1,283.25,278.14Z" transform="translate(-20.99 -171.06)"/><path class="a" d="M278,222.84v17.48h-1.74c-4.64,0-9.29,0-13.94,0-1.09,0-1.41.34-1.4,1.41.05,4.36.06,8.72,0,13.07,0,1.13.29,1.51,1.46,1.5,4.35-.07,8.71,0,13.06-.06,1.24,0,1.55.39,1.54,1.57-.06,4.6-.08,9.2,0,13.8,0,1.32-.41,1.62-1.66,1.6-4.3-.07-8.61,0-12.92-.05-1.13,0-1.5.3-1.48,1.47.05,5.42,0,10.84,0,16.26,0,.38,0,.76.07,1.32h18.24v17.57h-43V222.84Z" transform="translate(-20.99 -171.06)"/><path class="a" d="M149.49,222.8h54c0,.48.09.9.09,1.32,0,4.89,0,9.78,0,14.67,0,1.26-.43,1.53-1.59,1.51-3.82-.06-7.65,0-11.47-.05-1.38,0-1.68.42-1.68,1.72q0,33,0,65.93v1.86c-.6,0-1.06.07-1.53.07-7.21,0-14.43,0-21.64,0-1.27,0-1.62-.33-1.62-1.62q.06-33,0-66.07c0-1.9,0-1.9-1.88-1.9-3.78,0-7.55,0-11.33,0-1.07,0-1.53-.19-1.51-1.42.08-4.94,0-9.88,0-14.81C149.42,223.69,149.46,223.31,149.49,222.8Z" transform="translate(-20.99 -171.06)"/><path class="a" d="M120.83,222.81h24.69v1.63q0,41.81,0,83.62c0,1.54-.46,1.82-1.87,1.81-7.17-.07-14.33-.06-21.49,0-1.13,0-1.48-.3-1.48-1.46q0-42.18,0-84.35C120.75,223.67,120.8,223.3,120.83,222.81Z" transform="translate(-20.99 -171.06)"/><path class="a" d="M207.51,222.82h24.68v1.64q0,41.82,0,83.65c0,1.42-.4,1.77-1.78,1.76-7.16-.07-14.33-.06-21.49,0-1.23,0-1.53-.37-1.53-1.56q0-42,0-84.09C207.45,223.79,207.49,223.36,207.51,222.82Z" transform="translate(-20.99 -171.06)"/><path class="a" d="M149.39,171.1c7,0,14.11-.22,21,.43,5.24.49,7.85,3.72,8,9.06.2,9.44.2,18.88.11,28.32-.05,4.49-2.63,7.14-7.3,8a16.85,16.85,0,0,1-3.17.3c-5.71,0-11.43,0-17.14,0-.89,0-1.44-.09-1.44-1.23,0-14.76,0-22.88,0-37.65C149.42,178.2,149.39,172.64,149.39,171.1Zm12.28,38.22c3.36.38,4.53-.63,4.57-3.77,0-1.84,0-3.67,0-5.51,0-5.85.05-11.7-.07-17.54a4.71,4.71,0,0,0-1.25-3c-.59-.57-1.87-.51-2.84-.5a4.36,4.36,0,0,0-.4,1.9c0,8.89,0,17.78,0,26.67Z" transform="translate(-20.99 -171.06)"/><path class="a" d="M207.42,171.1c7,.2,14.1-.2,21,.42,5.05.46,7.24,3.27,7.93,8.35a14.75,14.75,0,0,1,.16,1.88c0,9.05.07,18.11,0,27.16,0,4.38-2.67,7.14-7.32,8a16.85,16.85,0,0,1-3.17.3c-5.71,0-11.43,0-17.14,0-.89,0-1.43-.09-1.43-1.23,0-14.76,0-25.56,0-40.33C207.45,175.52,207.37,172.24,207.42,171.1Zm12.23,38.17c3.21.55,4.6-.57,4.62-3.61,0-5,0-10.07,0-15.1,0-2.81,0-5.62,0-8.43a3,3,0,0,0-3.06-3.33c-1.19-.1-1.57.26-1.57,1.51,0,9.24,0,18.48,0,27.73Z" transform="translate(-20.99 -171.06)"/><path class="a" d="M21,217.25V171.1H39a12.5,12.5,0,0,1,2,.11c5.08.81,7.11,3.15,7.22,8.32,0,1.93,0,3.78,0,5.71-.1,3.64-1.71,5.45-5.33,6.12-.46.08-.92.2-1.79.4,4.13.69,7.2,2.5,7.6,6.39a56.1,56.1,0,0,1-.17,12.69c-.49,3.85-3.63,5.51-7.24,6.09a26.67,26.67,0,0,1-4.19.3c-4.84,0-9.68,0-14.52,0Zm11.85-21v13.05c2.86.5,4-.43,4-3.17q0-3.33,0-6.67C36.88,196.69,35.72,195.74,32.84,196.22Zm0-7.33c3,.32,4.05-.59,4.06-3.38,0-1.36,0-2.71,0-4.06,0-2.37-1.72-3.5-4.06-2.73Z" transform="translate(-20.99 -171.06)"/><path class="a" d="M145.45,171.1c0,.54.07,1,.07,1.48,0,14.32,0,28.65,0,43,0,1.31-.31,1.78-1.68,1.72-2.42-.11-4.85-.1-7.26,0-1.16,0-1.58-.4-1.86-1.45-2-7.58-4-15.14-6-22.71a2.06,2.06,0,0,0-.62-1.07v1.45c0,7.41,0,14.81,0,22.22,0,1.18-.29,1.6-1.52,1.56-2.89-.08-5.79,0-8.8,0V171.1h10.3L134.76,193l.31,0V171.1Z" transform="translate(-20.99 -171.06)"/><path class="a" d="M52.66,171.1c6.68.21,13.72,0,20.26,0,4.79,0,6.78,3.46,7,8.3.11,2.22.07,4.46,0,6.68-.19,3.55-1.69,5.35-5.08,6.36-.25.07-.49.21-.88.37a5,5,0,0,0,.53.24c3.82.77,5.76,2.69,5.91,6.6.21,5.56.1,11.13.06,16.7a1.27,1.27,0,0,1-.94.85c-3.14.07-6.29,0-9.44.06-1.08,0-1-.66-1-1.35,0-5.18,0-10.36,0-15.54a11.05,11.05,0,0,0-.26-2.44,2.77,2.77,0,0,0-3.54-2.13c-.36.1-.74.9-.74,1.39,0,5.95,0,11.91,0,17.86,0,2.42.31,2.18-2.15,2.19-2.81,0-5.62,0-8.43,0-.78,0-1.27-.11-1.27-1.08,0-14.86,0-25.83,0-40.69C52.68,175.34,52.66,171.85,52.66,171.1Zm11.85,12.49c0,1.35,0,2.71,0,4.06,0,.36.37.93.67,1A3.12,3.12,0,0,0,69,186a27.06,27.06,0,0,0,0-4.93,3.17,3.17,0,0,0-3.87-2.59,1.21,1.21,0,0,0-.6.91C64.48,180.78,64.51,182.19,64.51,183.59Z" transform="translate(-20.99 -171.06)"/><path class="a" d="M114.12,217.25H109c-1.89,0-3.78-.08-5.66,0-1.17.06-1.51-.42-1.56-1.48-.07-1.89-.27-3.77-.35-5.65,0-.82-.33-1.11-1.14-1.07-1,0-2.12,0-3.37,0-.15,2.13-.37,4.19-.43,6.25,0,1.41-.4,2-2,2-3.36-.14-6.74,0-10.39,0,2-15.51,4-30.82,6-46.17l17.59,0C109.77,186.45,111.94,201.72,114.12,217.25Zm-13-16.41c-.69-7-1.36-13.82-2-20.68l-.29,0c-.62,6.85-1.24,13.71-1.87,20.66Z" transform="translate(-20.99 -171.06)"/><path class="a" d="M202.84,171.1c0,2.87,0,5.67-.05,8.46,0,.28-.66.76-1,.78-2,.08-4,.09-6,0-1.12,0-1.41.37-1.38,1.43.07,2.31,0,4.62,0,7.07h7.8v8.9h-7.69v10.13h8.86v9.28c-.5,0-.88.08-1.26.08-6.19,0-12.39,0-18.59,0-.9,0-1.41-.1-1.41-1.23q0-22.14,0-44.3a4.69,4.69,0,0,1,.08-.63Z" transform="translate(-20.99 -171.06)"/></svg>