<svg id="svg21608" xmlns="http://www.w3.org/2000/svg" viewBox="0 0 118.13 45.06"><defs><style>.cls-1{fill:#0079c1;}.cls-2{fill:#ed1d24;}.cls-3{fill:#fff;}</style></defs><g id="layer1"><g id="g21071"><g id="g21073"><g id="g21079"><path id="path21081" class="cls-1" d="M12.09,28.26c0,2.54-.85,3.76-3.81,3.76H6.43V24.91h2c2.69,0,3.69.95,3.69,3.35m4,.27c0-3-2.4-4-5.33-4.09v-.11c2.49-.2,4.53-1.24,4.53-3.76,0-2.79-2.31-3.31-4.89-3.31-3.11,0-6.76.08-9.86,0V18c.66,0,2.25,0,2.25.87V31.18c0,.79-1.64.93-2.25.93v.75c3-.09,6.55,0,9.56,0,3.17,0,6-1.09,6-4.33M11.46,21c0,2-.86,3.05-3.11,3.05H6.43v-6c.25,0,1.06,0,1.31,0H8.4c2.3,0,3.06,1,3.06,3" transform="translate(-0.5 -0.5)"/></g><g id="g21083"><path id="path21085" class="cls-1" d="M36.1,32.84c-1.39,0-2.78,0-4.17,0v-.78c.63,0,2.38,0,2.38-.9V19.74h0L27.88,33h-.66L21,19.74H21V31.18c0,.88,1.83.9,2.49.9l0,.78c-1.74-.07-4.11-.11-5.82,0v-.78c.67,0,2.25-.06,2.25-.9V18.92c0-.82-1.63-.88-2.25-.88l0-.78c2,.08,4.1.08,6.08,0L29,28.4l5.41-11.12c1.9.08,4,.06,5.85,0V18c-.63,0-2.29,0-2.29.88V31.18c0,.86,1.64.9,2.29.9v.78c-1.39,0-2.8,0-4.19,0" transform="translate(-0.5 -0.5)"/></g><g id="g21087"><path id="path21089" class="cls-1" d="M59.07,25c0-5.15-3.15-8-8.83-8s-8.86,2.86-8.86,8,3.15,8.07,8.86,8.07,8.83-2.89,8.83-8.07m-4.13,0c0,3-.29,7.29-4.7,7.29S45.51,28.08,45.51,25s.32-7.26,4.73-7.26S54.94,22,54.94,25" transform="translate(-0.5 -0.5)"/></g><g id="g21091"><path id="path21093" class="cls-2" d="M91.15.5A22.53,22.53,0,1,0,113.69,23,22.53,22.53,0,0,0,91.15.5" transform="translate(-0.5 -0.5)"/></g><g id="g21095"><path id="path21097" class="cls-3" d="M90.46,16.16l-3.91-5.1a.86.86,0,0,0-1.37,0l-4.66,5.87V26.1l4.63-5.93a.89.89,0,0,1,.71-.34.87.87,0,0,1,.71.35l3.93,5.14a.81.81,0,0,0,.65.32.8.8,0,0,0,.65-.32l3.93-5.14a.9.9,0,0,1,.72-.35.88.88,0,0,1,.7.34l4.63,5.93V16.91L97.13,11a.87.87,0,0,0-1.38,0l-3.91,5.1a.89.89,0,0,1-1.38,0M80.52,26.1h21.26v6.75H80.52Z" transform="translate(-0.5 -0.5)"/></g><g id="g21139"><path id="path21141" class="cls-1" d="M116,12.47a2.31,2.31,0,1,1,2.27-2.3,2.29,2.29,0,0,1-2.27,2.3m0-5a2.68,2.68,0,1,0,2.68,2.68A2.67,2.67,0,0,0,116,7.49" transform="translate(-0.5 -0.5)"/></g><g id="g21143"><path id="path21145" class="cls-1" d="M115.36,10V9H116c.55,0,.79.16.79.54s-.24.53-.79.53h-.64m1.83-.52c0-.6-.35-.87-1-.87H115V11.7h.38V10.34H116l.87,1.36h.44l-.91-1.36a.85.85,0,0,0,.79-.84" transform="translate(-0.5 -0.5)"/></g></g></g></g></svg>