<svg xmlns="http://www.w3.org/2000/svg" viewBox="0 0 245.5 41.97"><defs><style>.a{fill:#fff;}</style></defs><title>boomerang_white</title><path class="a" d="M54.41,184.67a12.89,12.89,0,0,1-13-13.28,13.12,13.12,0,1,1,26.24.26A12.89,12.89,0,0,1,54.41,184.67Zm.1-5.64a7.52,7.52,0,0,0,.09-15,7.52,7.52,0,0,0-.09,15Z" transform="translate(-14.64 -152.69)"/><path class="a" d="M124.54,158.37h-.09a11.56,11.56,0,0,0-8.82,4,11.63,11.63,0,0,0-8.75-4h-.1a11.6,11.6,0,0,0-11.66,11.54v14.76h5.69V170a5.94,5.94,0,0,1,6-5.91h0a6,6,0,0,1,5.94,6v14.65h5.69V170h0v0a6,6,0,0,1,6-5.91h0a6,6,0,0,1,5.95,6v14.65h5.69V170A11.61,11.61,0,0,0,124.54,158.37Z" transform="translate(-14.64 -152.69)"/><path class="a" d="M233.28,184.86h-5.69V170.21a6,6,0,0,0-6-6h0a6,6,0,0,0-6,5.91v14.7h-5.69V170.1a11.61,11.61,0,0,1,11.67-11.54h.09a11.61,11.61,0,0,1,11.6,11.63Z" transform="translate(-14.64 -152.69)"/><path class="a" d="M169.71,184.86H164V170.1a11.69,11.69,0,0,1,20.67-7.34l-4.38,3.63a5.94,5.94,0,0,0-4.58-2.14h-.05a6,6,0,0,0-6,5.91Z" transform="translate(-14.64 -152.69)"/><path class="a" d="M81.32,184.67a12.91,12.91,0,0,1-13-13.28,13.12,13.12,0,1,1,26.24.26A12.89,12.89,0,0,1,81.32,184.67Zm.09-5.64a7.52,7.52,0,1,0-7.4-7.71A7.34,7.34,0,0,0,81.41,179Z" transform="translate(-14.64 -152.69)"/><path class="a" d="M27.89,158.31a13.15,13.15,0,0,0-7.58,2.29v-7.91H14.64V172h0a12.88,12.88,0,0,0,13,12.66,12.89,12.89,0,0,0,13.25-13A13,13,0,0,0,27.89,158.31ZM27.72,179a7.52,7.52,0,1,1,7.48-7.62A7.37,7.37,0,0,1,27.72,179Z" transform="translate(-14.64 -152.69)"/><path class="a" d="M208.72,170.81a13.12,13.12,0,1,0-13.22,13.86,13.47,13.47,0,0,0,7.58-2.22v2.11h5.67V170.78ZM195.59,179a7.52,7.52,0,1,1,7.49-7.62A7.36,7.36,0,0,1,195.59,179Z" transform="translate(-14.64 -152.69)"/><path class="a" d="M162.78,174.71a13.35,13.35,0,0,0,.37-3.06,14.11,14.11,0,0,0-.22-2.62,13,13,0,1,0-2.58,10.75l-4.41-3.62a7.48,7.48,0,0,1-12.67-1.45h19.51ZM143,169a7.44,7.44,0,0,1,14.09,0Z" transform="translate(-14.64 -152.69)"/><path class="a" d="M260.13,172.41v-1.66l0,0a13.12,13.12,0,1,0-13.22,13.89,13.46,13.46,0,0,0,7.46-2.14A7.43,7.43,0,0,1,246.7,189h0a7.52,7.52,0,0,1-6.94-4.44l-5.2,2.3a13.13,13.13,0,0,0,12.11,7.82h.08a13.13,13.13,0,0,0,13.43-13.28ZM247,179a7.52,7.52,0,1,1,7.49-7.62A7.36,7.36,0,0,1,247,179Z" transform="translate(-14.64 -152.69)"/></svg>