<svg id="Layer_1" data-name="Layer 1" xmlns="http://www.w3.org/2000/svg" viewBox="0 0 178.9 41.7"><defs><style>.cls-1{fill:#fff;}</style></defs><title>campsite_white</title><path class="cls-1" d="M81.9,19.4a8.53,8.53,0,0,1,7,3.4L85,25.6a3.94,3.94,0,0,0-7.1,2.1,3.9,3.9,0,0,0,4,3.8A3.84,3.84,0,0,0,85,29.9l3.9,2.7a8.27,8.27,0,0,1-7,3.4,8.45,8.45,0,0,1-8.7-8.4C73.2,22.6,77.3,19.4,81.9,19.4ZM103.3,34c-1,1.5-3.4,2.1-4.7,2.1a8.3,8.3,0,0,1,0-16.6,6,6,0,0,1,4.7,2.1V19.8H108v16h-4.7Zm-3.9-2.4a3.8,3.8,0,1,0,0-7.6,3.9,3.9,0,0,0-4,3.8A4,4,0,0,0,99.4,31.6Zm27.1-4.3v8.5h-4.8V27.1c0-2-1.3-3.1-2.6-3.1s-2.8.8-2.8,3.3v8.5h-4.8v-16h4.8v2.3a4.6,4.6,0,0,1,4.2-2.6c2.5,0,4.3,1,5.2,2.8a5.41,5.41,0,0,1,4.8-2.8c3.8,0,6.2,2.4,6.2,7.3v9.1H132V27.3c0-2.1-1.2-3.2-2.6-3.2C127.8,24,126.5,25,126.5,27.3Zm18.2-7.6v2a5.2,5.2,0,0,1,4.7-2.3,7.93,7.93,0,0,1,7.8,8.3c0,5.2-3.6,8.4-7.8,8.4a5.2,5.2,0,0,1-4.7-2.3v7.8H140V19.7Zm3.8,11.9a3.65,3.65,0,0,0,3.7-3.8,3.68,3.68,0,0,0-3.7-3.9,3.74,3.74,0,0,0-3.7,3.9A3.6,3.6,0,0,0,148.5,31.6Zm15.7-2.4c-4.8-1.3-4.8-3.7-4.8-5.2,0-2.4,2.9-4.6,6.2-4.6s6.6,1.4,6.6,5.3h-4.5c0-1.2-1.1-1.4-1.8-1.4-1,0-1.7.5-1.7,1.2,0,.5.4,1,1.4,1.2l2.7.7c3.9,1.1,4.4,3.6,4.4,4.7,0,3.4-3.6,5-6.9,5s-6.7-2-6.7-5.5h4.5a2.33,2.33,0,0,0,2.4,1.9c1.1,0,2-.5,2-1.3s-.4-1.1-1.6-1.4Zm49.1,3.7c-1.6,2.4-4.6,3.3-7.3,3.3a8.2,8.2,0,0,1-8.4-8.4,8.3,8.3,0,1,1,16.6.1,7.57,7.57,0,0,1-.1,1.5H202.4c.2,1.9,2.3,2.7,4,2.7a4.54,4.54,0,0,0,3.5-1.5Zm-3.9-6.6a3.15,3.15,0,0,0-3.4-2.7,3.54,3.54,0,0,0-3.6,2.7ZM176,16.9V12.1h4.8v4.8Zm0,18.9V19.9h4.8V35.8Zm19.7-4.4a3.81,3.81,0,0,1-2.1.5,2.1,2.1,0,0,1-2.3-2.3V23.3h3.4V19.5h-3.4V13.3h-4.8v6.2h-3v3.8h3v4.2h0v2.1c0,4.2,2.6,6.5,6.6,6.5a7.51,7.51,0,0,0,3.8-1Zm-148.1-2-5,2.3,6.1-11.4,6.1,11.4-5-2.3v6.3H61.6L48.7,12.1,35.9,35.8H47.7V29.4Zm9.8-17.3H53L65.8,35.8h4.3Z" transform="translate(-35.9 -12.1)"/><path class="cls-1" d="M41.6,51.5H38.2l-.8,2.1H36.3l3.1-8.1h.9l3.1,8.1H42.3Zm-3.1-.9h2.8l-1.4-3.8Z" transform="translate(-35.9 -12.1)"/><path class="cls-1" d="M50.8,53.7V45.6h2.3a4.14,4.14,0,0,1,1.9.5,4,4,0,0,1,1.3,1.3,4.21,4.21,0,0,1,.4,2v.5a4.21,4.21,0,0,1-.4,2A2.74,2.74,0,0,1,55,53.2a4.14,4.14,0,0,1-1.9.5Zm1.1-7.3v6.4H53a2.41,2.41,0,0,0,1.9-.8,3.07,3.07,0,0,0,.7-2.2v-.5a3.8,3.8,0,0,0-.6-2.2,2.34,2.34,0,0,0-1.8-.8l-1.3.1Z" transform="translate(-35.9 -12.1)"/><path class="cls-1" d="M61.2,53.7H60.1V45.6h1.1Z" transform="translate(-35.9 -12.1)"/><path class="cls-1" d="M67.6,52.2l2.3-6.7h1.2l-3,8.1h-.9l-3-8.1h1.2Z" transform="translate(-35.9 -12.1)"/><path class="cls-1" d="M75,53.7H74V45.6h1Z" transform="translate(-35.9 -12.1)"/><path class="cls-1" d="M81.1,50a5.29,5.29,0,0,1-2-1,2,2,0,0,1-.6-1.4,2.09,2.09,0,0,1,.8-1.6,3.17,3.17,0,0,1,2-.6,3.34,3.34,0,0,1,1.5.3,2.19,2.19,0,0,1,1,.9,2.84,2.84,0,0,1,.4,1.3H83a1.66,1.66,0,0,0-.5-1.2,1.84,1.84,0,0,0-1.3-.4,1.59,1.59,0,0,0-1.2.4,1.16,1.16,0,0,0-.4,1,.91.91,0,0,0,.4.8,6.45,6.45,0,0,0,1.4.6,9.12,9.12,0,0,1,1.6.6,1.55,1.55,0,0,1,.8.8,2,2,0,0,1,.3,1.1,1.94,1.94,0,0,1-.8,1.6,3.28,3.28,0,0,1-2.1.6,4.15,4.15,0,0,1-1.6-.3,2,2,0,0,1-1.1-.9,2.84,2.84,0,0,1-.4-1.3h1.1a1.66,1.66,0,0,0,.5,1.2,2.08,2.08,0,0,0,1.5.4,2.27,2.27,0,0,0,1.3-.3,1.21,1.21,0,0,0,0-1.8C82.4,50.4,81.9,50.2,81.1,50Z" transform="translate(-35.9 -12.1)"/><path class="cls-1" d="M88.4,53.7H87.3V45.6h1.1Z" transform="translate(-35.9 -12.1)"/><path class="cls-1" d="M98.3,49.8a4.64,4.64,0,0,1-.4,2.1,3.81,3.81,0,0,1-1.1,1.4,3.14,3.14,0,0,1-3.4,0A3.74,3.74,0,0,1,92.2,52a4.48,4.48,0,0,1-.4-2v-.6a4.64,4.64,0,0,1,.4-2.1,3.33,3.33,0,0,1,1.2-1.4,3.37,3.37,0,0,1,1.7-.5,3.1,3.1,0,0,1,1.7.5,2.59,2.59,0,0,1,1.1,1.4,4.64,4.64,0,0,1,.4,2.1v.4Zm-1-.5a3.4,3.4,0,0,0-.6-2.2,2,2,0,0,0-3.2,0,3.28,3.28,0,0,0-.6,2.1v.6a3.59,3.59,0,0,0,.6,2.2,2,2,0,0,0,3.2,0,3.4,3.4,0,0,0,.6-2.2v-.5Z" transform="translate(-35.9 -12.1)"/><path class="cls-1" d="M107.9,53.7h-1.1l-4.1-6.3v6.3h-1.1V45.6h1.1l4.1,6.3V45.6h1.1v8.1Z" transform="translate(-35.9 -12.1)"/><path class="cls-1" d="M122.4,49.8a4.64,4.64,0,0,1-.4,2.1,3.81,3.81,0,0,1-1.1,1.4,3.14,3.14,0,0,1-3.4,0,3.74,3.74,0,0,1-1.2-1.3,4.48,4.48,0,0,1-.4-2v-.6a4.64,4.64,0,0,1,.4-2.1,3.33,3.33,0,0,1,1.2-1.4,3.37,3.37,0,0,1,1.7-.5,3.1,3.1,0,0,1,1.7.5,2.59,2.59,0,0,1,1.1,1.4,4.64,4.64,0,0,1,.4,2.1v.4Zm-1.1-.5a3.4,3.4,0,0,0-.6-2.2,2,2,0,0,0-3.2,0,3.28,3.28,0,0,0-.6,2.1v.6a3.59,3.59,0,0,0,.6,2.2,2,2,0,0,0,3.2,0,3.4,3.4,0,0,0,.6-2.2v-.5Z" transform="translate(-35.9 -12.1)"/><path class="cls-1" d="M130.2,50.1h-3.4v3.6h-1.1V45.6h5v.9h-4v2.8h3.4l.1.8Z" transform="translate(-35.9 -12.1)"/><path class="cls-1" d="M138,53.7V45.6h2.9a4.27,4.27,0,0,1,2.4.6,2.19,2.19,0,0,1,.5,2.8,2.18,2.18,0,0,1-.9.7,1.7,1.7,0,0,1,1,.6,2,2,0,0,1,.3,1.1,2.2,2.2,0,0,1-.8,1.8,3.59,3.59,0,0,1-2.2.6l-3.2-.1Zm1.9-4.8h1a2,2,0,0,0,.9-.2.91.91,0,0,0,.3-.7.78.78,0,0,0-.3-.7,2.15,2.15,0,0,0-1-.2h-1A10.28,10.28,0,0,1,139.9,48.9Zm0,1.3v2h1.3a1.55,1.55,0,0,0,.8-.2.91.91,0,0,0,.3-.7c0-.7-.3-1-1-1h-1.4Z" transform="translate(-35.9 -12.1)"/><path class="cls-1" d="M150.1,50.8H149v2.9h-2V45.6h3.2a3.92,3.92,0,0,1,2.3.6,2.2,2.2,0,0,1,.8,1.8,2.9,2.9,0,0,1-.3,1.4,2,2,0,0,1-1.1.9l1.7,3.3v.1h-2.1ZM149,49.3h1.2c.4,0,.7-.1.8-.3a1.14,1.14,0,0,0,.3-.8,1,1,0,0,0-.3-.8,1.14,1.14,0,0,0-.8-.3H149v2.2Z" transform="translate(-35.9 -12.1)"/><path class="cls-1" d="M163.2,49.7a4.64,4.64,0,0,1-.4,2.1,3,3,0,0,1-1.3,1.4,3.83,3.83,0,0,1-1.9.5,3.45,3.45,0,0,1-1.8-.5,3.53,3.53,0,0,1-1.3-1.4,4.55,4.55,0,0,1-.5-2v-.5a4.64,4.64,0,0,1,.4-2.1,3,3,0,0,1,1.3-1.4,4.14,4.14,0,0,1,1.9-.5,3.45,3.45,0,0,1,1.8.5,3.53,3.53,0,0,1,1.3,1.4,6.48,6.48,0,0,1,.5,2.1v.4Zm-2-.3a3,3,0,0,0-.4-1.8,1.43,1.43,0,0,0-1.2-.6c-1,0-1.5.7-1.6,2.2v.6a3,3,0,0,0,.4,1.8,1.43,1.43,0,0,0,1.2.6,1.15,1.15,0,0,0,1.1-.6,3,3,0,0,0,.4-1.8l.1-.4Z" transform="translate(-35.9 -12.1)"/><path class="cls-1" d="M170.4,52.1h-2.7l-.5,1.5h-2.1l3-8.1h1.8l3,8.1h-2.1Zm-2.2-1.5H170l-.9-2.8Z" transform="translate(-35.9 -12.1)"/><path class="cls-1" d="M175.3,53.7V45.6h2.6a3.83,3.83,0,0,1,1.9.5,3,3,0,0,1,1.3,1.4,4.55,4.55,0,0,1,.5,2v.4a4.55,4.55,0,0,1-.5,2,3.53,3.53,0,0,1-1.3,1.4,3.83,3.83,0,0,1-1.9.5h-2.6Zm1.9-6.7v5.1h.7a1.49,1.49,0,0,0,1.3-.6,3,3,0,0,0,.4-1.8v-.4a4,4,0,0,0-.4-1.8,1.49,1.49,0,0,0-1.3-.6h-.7Z" transform="translate(-35.9 -12.1)"/><path class="cls-1" d="M188.6,51.5a.91.91,0,0,0-.3-.7,3.83,3.83,0,0,0-1.1-.5c-.5-.2-.9-.3-1.3-.5a2.27,2.27,0,0,1-1.6-2.1,1.92,1.92,0,0,1,.4-1.2,3.13,3.13,0,0,1,1.1-.8,4.42,4.42,0,0,1,3.2,0,2.44,2.44,0,0,1,1.1.9,2,2,0,0,1,.4,1.3h-2a1,1,0,0,0-1.1-1.1,1.55,1.55,0,0,0-.8.2.75.75,0,0,0,0,1.2,3.53,3.53,0,0,0,1.2.5,9.75,9.75,0,0,1,1.4.6,2.26,2.26,0,0,1,1.3,2.1,2.14,2.14,0,0,1-.8,1.7,3.59,3.59,0,0,1-2.2.6,3.42,3.42,0,0,1-1.8-.4,2.94,2.94,0,0,1-1.2-1,2.3,2.3,0,0,1-.4-1.4h2a1.49,1.49,0,0,0,.3,1,1.61,1.61,0,0,0,1.1.3,1.88,1.88,0,0,0,.8-.2A.55.55,0,0,0,188.6,51.5Z" transform="translate(-35.9 -12.1)"/><path class="cls-1" d="M195.4,53.7h-2V45.6h2Z" transform="translate(-35.9 -12.1)"/><path class="cls-1" d="M205.1,52.6a3.22,3.22,0,0,1-1.3.8,5.82,5.82,0,0,1-1.9.3,3.39,3.39,0,0,1-2.6-1,3.62,3.62,0,0,1-1-2.7v-.7a4.64,4.64,0,0,1,.4-2.1,3.33,3.33,0,0,1,1.2-1.4,3.45,3.45,0,0,1,1.8-.5,3.61,3.61,0,0,1,2.4.7,3,3,0,0,1,1,2.1h-1.9a1.88,1.88,0,0,0-.4-1,1.22,1.22,0,0,0-.9-.3,1.15,1.15,0,0,0-1.1.6,3,3,0,0,0-.4,1.8v.5a3,3,0,0,0,.4,1.8,1.49,1.49,0,0,0,1.3.6,1.61,1.61,0,0,0,1.1-.3V50.5h-1.4V49.2h3.3v3.4Z" transform="translate(-35.9 -12.1)"/><path class="cls-1" d="M214.8,53.7h-2l-2.9-5.1v5.1h-2V45.6h2l2.9,5.1V45.6h2Z" transform="translate(-35.9 -12.1)"/></svg>