<svg id="Layer_1" data-name="Layer 1" xmlns="http://www.w3.org/2000/svg" viewBox="0 0 178.91 41.67"><defs><style>.cls-1{fill:#004fff;}</style></defs><path class="cls-1" d="M81.92,19.4a8.41,8.41,0,0,1,7,3.4L85,25.59A3.67,3.67,0,0,0,81.92,24a3.82,3.82,0,0,0-4,3.75,3.92,3.92,0,0,0,4,3.85A3.66,3.66,0,0,0,85,30l3.88,2.74a8.74,8.74,0,0,1-15.69-5C73.2,22.66,77.32,19.4,81.92,19.4ZM103.33,34c-1,1.54-3.43,2.12-4.68,2.12a8.18,8.18,0,0,1-8.17-8.34,8.19,8.19,0,0,1,8.17-8.35,5.93,5.93,0,0,1,4.68,2.13V19.75h4.73v16h-4.73Zm-3.88-2.41a3.81,3.81,0,1,0,0-7.62,3.82,3.82,0,1,0,0,7.62Zm27.1-4.26v8.48h-4.78V27.12c0-2-1.27-3.09-2.64-3.09s-2.78.83-2.78,3.27v8.48h-4.78v-16h4.78v2.33a4.59,4.59,0,0,1,4.18-2.65c2.55,0,4.26,1,5.15,2.82a5.52,5.52,0,0,1,4.81-2.85c3.81,0,6.18,2.44,6.18,7.28v9.1h-4.74V27.23c0-2.1-1.23-3.2-2.64-3.2S126.55,25,126.55,27.3Zm18.11-7.55v2a5.27,5.27,0,0,1,4.7-2.34c4.12,0,7.76,3.27,7.76,8.32s-3.64,8.42-7.76,8.42a5.25,5.25,0,0,1-4.7-2.31v7.84h-4.74V19.75Zm3.82,11.88a3.66,3.66,0,0,0,3.71-3.81,3.67,3.67,0,0,0-3.71-3.88,3.74,3.74,0,0,0-3.72,3.88A3.64,3.64,0,0,0,148.48,31.63Zm15.73-2.44c-4.81-1.31-4.84-3.75-4.81-5.22,0-2.37,2.89-4.57,6.25-4.57,3.19,0,6.56,1.41,6.59,5.32h-4.5c0-1.2-1.06-1.41-1.81-1.41-1,0-1.72.48-1.68,1.2,0,.48.45,1,1.41,1.2l2.71.72c3.88,1.07,4.36,3.64,4.36,4.68,0,3.4-3.57,5-6.94,5s-6.66-2-6.69-5.53h4.46a2.26,2.26,0,0,0,2.37,1.85c1.06,0,1.95-.51,1.95-1.33s-.41-1.07-1.58-1.38Zm49.12,3.67c-1.62,2.41-4.6,3.27-7.31,3.27a8.17,8.17,0,0,1-8.38-8.42,8.3,8.3,0,1,1,16.59.13,14.68,14.68,0,0,1-.08,1.48H202.41c.24,1.86,2.26,2.68,4,2.68a4.46,4.46,0,0,0,3.51-1.51Zm-3.92-6.52A3.25,3.25,0,0,0,206,23.6a3.5,3.5,0,0,0-3.57,2.74ZM176,16.9V12.09h4.8V16.9Zm0,18.88V19.86h4.8V35.78Zm19.71-4.39a4.19,4.19,0,0,1-2.11.49,2.1,2.1,0,0,1-2.29-2.25V23.37h3.39V19.55h-3.41V13.33h-4.8v6.22h-3v3.82h3v4.21h0v2.1c0,4.17,2.58,6.49,6.63,6.49a7.17,7.17,0,0,0,3.78-1ZM47.63,29.45l-5,2.32,6.06-11.41,6.07,11.41-5-2.32v6.33H61.55L48.71,12.11,35.88,35.78H47.63Zm9.74-17.34H53L65.88,35.78h4.33Z" transform="translate(-35.88 -12.09)"/><path class="cls-1" d="M41.57,51.52H38.16l-.76,2.13H36.29L39.4,45.5h.94l3.12,8.15H42.35Zm-3.07-.87h2.76l-1.39-3.81Z" transform="translate(-35.88 -12.09)"/><path class="cls-1" d="M50.83,53.65V45.5h2.29A3.72,3.72,0,0,1,55,46a3.26,3.26,0,0,1,1.26,1.34,4.36,4.36,0,0,1,.45,2v.52a4.4,4.4,0,0,1-.45,2A3.14,3.14,0,0,1,55,53.18a4,4,0,0,1-1.92.48H50.83Zm1.07-7.26v6.38H53A2.48,2.48,0,0,0,55,52a3.19,3.19,0,0,0,.68-2.2v-.48A3.26,3.26,0,0,0,55,47.16a2.36,2.36,0,0,0-1.85-.78H51.9Z" transform="translate(-35.88 -12.09)"/><path class="cls-1" d="M61.2,53.65H60.13V45.5H61.2Z" transform="translate(-35.88 -12.09)"/><path class="cls-1" d="M67.58,52.22,69.9,45.5h1.18l-3,8.15h-.95l-3-8.15h1.17Z" transform="translate(-35.88 -12.09)"/><path class="cls-1" d="M75,53.65H74V45.5H75Z" transform="translate(-35.88 -12.09)"/><path class="cls-1" d="M81.12,50a4.87,4.87,0,0,1-2-1,1.88,1.88,0,0,1-.63-1.43,2,2,0,0,1,.77-1.6,3.1,3.1,0,0,1,2-.62,3.28,3.28,0,0,1,1.5.32,2.48,2.48,0,0,1,1,.9,2.25,2.25,0,0,1,.36,1.25H83.05a1.53,1.53,0,0,0-.47-1.17,1.91,1.91,0,0,0-1.33-.43,2,2,0,0,0-1.24.36,1.16,1.16,0,0,0-.45,1,1.05,1.05,0,0,0,.42.84,4.1,4.1,0,0,0,1.44.63,6.54,6.54,0,0,1,1.59.63,2.49,2.49,0,0,1,.84.8,2,2,0,0,1,.28,1.08,1.92,1.92,0,0,1-.77,1.59,3.25,3.25,0,0,1-2.06.59,3.71,3.71,0,0,1-1.57-.32,2.88,2.88,0,0,1-1.13-.88,2.06,2.06,0,0,1-.39-1.27h1.08a1.41,1.41,0,0,0,.55,1.17,2.25,2.25,0,0,0,1.46.43,2.12,2.12,0,0,0,1.3-.35,1.12,1.12,0,0,0,.45-1,1.11,1.11,0,0,0-.42-.92A5,5,0,0,0,81.12,50Z" transform="translate(-35.88 -12.09)"/><path class="cls-1" d="M88.39,53.65H87.32V45.5h1.07Z" transform="translate(-35.88 -12.09)"/><path class="cls-1" d="M98.33,49.84a4.87,4.87,0,0,1-.41,2.09,2.94,2.94,0,0,1-2.85,1.84,3.12,3.12,0,0,1-1.7-.47A3.2,3.2,0,0,1,92.21,52a4.62,4.62,0,0,1-.42-2v-.59a5,5,0,0,1,.41-2.07,2.94,2.94,0,0,1,1.16-1.38,3.08,3.08,0,0,1,1.71-.48,3.17,3.17,0,0,1,1.72.47,3,3,0,0,1,1.14,1.37,4.83,4.83,0,0,1,.41,2.08v.51Zm-1.06-.52a3.6,3.6,0,0,0-.59-2.22,1.89,1.89,0,0,0-1.62-.77,1.94,1.94,0,0,0-1.61.77,3.54,3.54,0,0,0-.61,2.15v.59a3.57,3.57,0,0,0,.6,2.2,1.92,1.92,0,0,0,1.63.81,1.85,1.85,0,0,0,1.6-.76,3.68,3.68,0,0,0,.59-2.17v-.6Z" transform="translate(-35.88 -12.09)"/><path class="cls-1" d="M107.92,53.65h-1.09l-4.1-6.27v6.27h-1.07V45.5h1.07l4.11,6.3V45.5h1.07v8.15Z" transform="translate(-35.88 -12.09)"/><path class="cls-1" d="M122.36,49.84a5,5,0,0,1-.41,2.09,3.22,3.22,0,0,1-1.14,1.37,3.35,3.35,0,0,1-3.42,0A3.2,3.2,0,0,1,116.23,52a4.62,4.62,0,0,1-.42-2v-.59a5,5,0,0,1,.41-2.07,3,3,0,0,1,1.16-1.38,3.08,3.08,0,0,1,1.71-.48,3.14,3.14,0,0,1,1.72.47A3,3,0,0,1,122,47.25a5,5,0,0,1,.41,2.08v.51Zm-1.07-.52a3.67,3.67,0,0,0-.58-2.22,1.91,1.91,0,0,0-1.63-.77,1.94,1.94,0,0,0-1.61.77,3.61,3.61,0,0,0-.6,2.15v.59a3.64,3.64,0,0,0,.59,2.2,1.92,1.92,0,0,0,1.63.81,1.88,1.88,0,0,0,1.61-.76,3.76,3.76,0,0,0,.58-2.17v-.6Z" transform="translate(-35.88 -12.09)"/><path class="cls-1" d="M130.18,50.05h-3.42v3.6h-1.08V45.5h5v.88h-4v2.78h3.42v.89Z" transform="translate(-35.88 -12.09)"/><path class="cls-1" d="M138,53.65V45.5h2.92a4.07,4.07,0,0,1,2.39.58,2.09,2.09,0,0,1,.53,2.75,1.72,1.72,0,0,1-.85.66,1.72,1.72,0,0,1,1,.62,1.82,1.82,0,0,1,.34,1.12,2.12,2.12,0,0,1-.76,1.79,3.62,3.62,0,0,1-2.24.62H138Zm2-4.75h1a1.39,1.39,0,0,0,.92-.24.82.82,0,0,0,.27-.67.84.84,0,0,0-.29-.74,1.61,1.61,0,0,0-1-.23h-1Zm0,1.29v2h1.29a1.28,1.28,0,0,0,.81-.24.86.86,0,0,0,.28-.69.89.89,0,0,0-1-1Z" transform="translate(-35.88 -12.09)"/><path class="cls-1" d="M150.09,50.77H149v2.88h-2V45.5h3.2a3.54,3.54,0,0,1,2.26.65,2.16,2.16,0,0,1,.82,1.82,2.62,2.62,0,0,1-.35,1.4,2.37,2.37,0,0,1-1.07.91l1.7,3.29v.08h-2.11ZM149,49.26h1.24a1.15,1.15,0,0,0,.85-.29,1.36,1.36,0,0,0,0-1.65,1.1,1.1,0,0,0-.84-.3H149v2.24Z" transform="translate(-35.88 -12.09)"/><path class="cls-1" d="M163.15,49.75a4.88,4.88,0,0,1-.43,2.11,3.24,3.24,0,0,1-1.26,1.4,3.37,3.37,0,0,1-1.85.49,3.45,3.45,0,0,1-1.85-.48,3.17,3.17,0,0,1-1.25-1.36,4.62,4.62,0,0,1-.47-2V49.4a4.81,4.81,0,0,1,.44-2.1,3.15,3.15,0,0,1,1.26-1.41,3.65,3.65,0,0,1,1.87-.5,3.54,3.54,0,0,1,1.84.49,3.26,3.26,0,0,1,1.27,1.4,4.75,4.75,0,0,1,.45,2.08v.39Zm-2-.35a3.35,3.35,0,0,0-.41-1.84,1.29,1.29,0,0,0-1.15-.63c-1,0-1.51.74-1.57,2.21v.6a3.5,3.5,0,0,0,.4,1.83,1.3,1.3,0,0,0,1.18.65,1.27,1.27,0,0,0,1.14-.64,3.23,3.23,0,0,0,.41-1.81V49.4Z" transform="translate(-35.88 -12.09)"/><path class="cls-1" d="M170.38,52.13h-2.69l-.47,1.52h-2.09l3-8.15H170l3,8.15h-2.11Zm-2.21-1.52h1.75l-.87-2.82Z" transform="translate(-35.88 -12.09)"/><path class="cls-1" d="M175.29,53.65V45.5h2.61a3.91,3.91,0,0,1,1.94.49,3.45,3.45,0,0,1,1.35,1.38,4.29,4.29,0,0,1,.49,2v.38a4.22,4.22,0,0,1-.47,2,3.42,3.42,0,0,1-1.33,1.39,3.9,3.9,0,0,1-1.92.51Zm2-6.62v5.12h.68a1.49,1.49,0,0,0,1.29-.61,2.94,2.94,0,0,0,.45-1.78V49.4a3.05,3.05,0,0,0-.45-1.78,1.55,1.55,0,0,0-1.33-.59Z" transform="translate(-35.88 -12.09)"/><path class="cls-1" d="M188.61,51.49a.81.81,0,0,0-.31-.67,4.16,4.16,0,0,0-1.07-.5,7.51,7.51,0,0,1-1.25-.5,2.38,2.38,0,0,1-1.59-2.14,1.94,1.94,0,0,1,.4-1.19,2.57,2.57,0,0,1,1.12-.8,4.35,4.35,0,0,1,1.61-.29,3.81,3.81,0,0,1,1.58.31,2.51,2.51,0,0,1,1.08.89,2.28,2.28,0,0,1,.39,1.32h-2a1,1,0,0,0-.31-.77,1.19,1.19,0,0,0-.82-.27,1.3,1.3,0,0,0-.83.23.7.7,0,0,0-.31.59.74.74,0,0,0,.34.57,4.37,4.37,0,0,0,1.18.52,7.07,7.07,0,0,1,1.38.58,2.34,2.34,0,0,1,1.32,2.1,2,2,0,0,1-.81,1.68,3.54,3.54,0,0,1-2.21.6,4.33,4.33,0,0,1-1.79-.35,2.76,2.76,0,0,1-1.21-1,2.54,2.54,0,0,1-.41-1.42h2a1.24,1.24,0,0,0,.34,1,1.58,1.58,0,0,0,1.09.31,1.31,1.31,0,0,0,.77-.2A.67.67,0,0,0,188.61,51.49Z" transform="translate(-35.88 -12.09)"/><path class="cls-1" d="M195.39,53.65h-2V45.5h2Z" transform="translate(-35.88 -12.09)"/><path class="cls-1" d="M205.13,52.65a3.24,3.24,0,0,1-1.32.81,5.63,5.63,0,0,1-1.91.31,3.4,3.4,0,0,1-2.56-1,4,4,0,0,1-1-2.72v-.71a4.7,4.7,0,0,1,.43-2.09A3.05,3.05,0,0,1,200,45.88a3.45,3.45,0,0,1,1.83-.48,3.55,3.55,0,0,1,2.36.7,3,3,0,0,1,1,2.07h-1.89a1.45,1.45,0,0,0-.44-1,1.39,1.39,0,0,0-.94-.29,1.27,1.27,0,0,0-1.14.63,3.27,3.27,0,0,0-.41,1.79v.49a3.29,3.29,0,0,0,.42,1.84,1.5,1.5,0,0,0,1.31.61,1.64,1.64,0,0,0,1.14-.34V50.67h-1.37V49.32h3.33v3.33Z" transform="translate(-35.88 -12.09)"/><path class="cls-1" d="M214.79,53.65h-1.95L210,48.58v5.07h-2V45.5h2l2.88,5.07V45.5h2Z" transform="translate(-35.88 -12.09)"/></svg>