<svg id="Layer_1" data-name="Layer 1" xmlns="http://www.w3.org/2000/svg" viewBox="0 0 1000 802.2"><defs><style>.cls-1{fill:#fff;}</style></defs><path id="path7-1" class="cls-1" d="M203.5,744.3c-12.9,0-22.4,6.6-22.4,19.1s8.2,19.9,20.6,19.9c8.2,0,16.4-4.6,21.6-11.2V755.5c0-5.6-7.2-11.2-19.8-11.2M483.7,742c.6,22,14.6,37.9,38.7,37.9,14.6,0,25.8-8,29.7-12.9,1.8,1.4,3.7,3.4,3.7,8.3,0,10.9-13.2,26-43.9,26s-56-24.6-56-56.8c0-35.4,23.3-60.7,57.7-60.7,31.2,0,45.7,23,45.7,42.6a32.7,32.7,0,0,1-3.7,15.6Zm43.7-14.2c4.9,0,5.1-2.9,5.1-6.7a22.6,22.6,0,0,0-23-22.3c-17.9,0-25,15-25.6,29Zm290.5,12.1c0,26.9,3.7,40.6,21,40.6,18.9,0,24.1-16.9,24.1-32.3V719c0-10.1-4.8-14-15.7-12.8-4.5-11.3,10.5-18.5,19-20.2a50.5,50.5,0,0,1,7.4-.8c11.9,0,16.5,7.5,16.5,18.6,0,4-.4,11.5-.4,42.3,0,13-.2,19.9-.2,22.1,0,10.1,4.7,15.3,15.5,14.1,4.5,11.3-10.4,16.7-18.9,18.2a50.1,50.1,0,0,1-7,.8c-11.3,0-13.6-7.3-15.9-17.8a63.4,63.4,0,0,1-6.1,6.5,40.2,40.2,0,0,1-28,11.1c-12,0-22-4.5-28.4-12.1-9.9-11.7-9.9-26.8-9.9-48.8V719c0-10.1-4.8-14-15.7-12.8-4.5-11.3,10.6-18.5,19-20.2a52,52,0,0,1,7.4-.8c11.9,0,16.5,7.5,16.5,18.6l-.2,36.1Zm-52.1,2.3c0-34.8-24.1-58.4-57.5-58.4-30.8,0-58.2,23.6-58.2,58.4s25.7,58.9,57.2,58.9c33.3,0,58.5-24,58.5-58.9M249,772.9c0,8.9,5.8,11.7,15.9,13.1-.6,10.3-7.9,14.3-16.3,15.1s-18.7-3.6-22.4-13.5c-4.4,4-17.1,13.9-33.8,13.9-22.8,0-39.9-15.3-39.9-36.1s19.1-35.1,46.1-35.1c9.3,0,18.9,1.9,24.7,4.9V720.4c0-13.2-5.8-21.6-20.8-21.6a47.9,47.9,0,0,0-15.2,2.9,23.6,23.6,0,0,1,1,6.3c0,8.1-5.2,14.7-13.8,14.7s-13.4-6.2-13.4-14c0-14.4,18.1-24.9,43.3-24.9,19.9,0,32.1,4.7,38.5,12.9s6.1,18.4,6.1,34.4v41.8Zm487.3-29c0,26.8-11.5,41.3-27.8,41.3-14.4,0-28.4-14.5-28.4-46.2,0-24.7,10.3-40.2,27.2-40.2s29,17.1,29,45.1M330.5,703.3a13.3,13.3,0,0,0,13.6,12c8.9,0,14.2-7.9,14.2-15.5,0-10.7-8.6-16.2-17.3-16.2s-20.3,7.4-26.3,18.5l-.4.2c-1.9-9.9-6.6-17.3-16.5-17.3a25.9,25.9,0,0,0-7.4,1.2c-8.2,2.5-20.4,8.9-15.8,20.2,11.5-2.2,15.6,1.6,15.6,11.7V766c0,9.5-1.2,13.5-4.5,16.3a21.2,21.2,0,0,1-8.5,3.7c-4.7,10.3,4.6,13.5,27.4,13.5s30.7-3.2,26-13.5c-2.1-.4-7.9-1.4-11-3.7s-4.7-6.8-4.7-16.3V737.1c0-25.8,9.5-32.5,15.6-33.8m283.3-16.7h29.5c3.5,8.5-1.2,15.3-7.8,15.9-2.1.2-4.4.2-6.4.2-5.4,0-10.7-.4-14.4-.4V766c0,9.5,1.6,13.5,4.9,16.3s10.3,3.3,12.4,3.7c4.7,10.3-6.4,13.5-29.3,13.5s-32.3-3.2-27.6-13.5a21.2,21.2,0,0,0,8.5-3.7c3.3-2.8,4.5-6.8,4.5-16.3V701.9l-17.3-.7c-3.5-8.4,1.2-14.4,8.2-14.4h8.7v-8.2c0-16.7,3.1-25.9,7.2-32.1,6.4-9.9,17.3-16.7,34.4-16.7,21.6,0,39.1,10.1,39.1,25.3,0,6.6-4.5,14.6-14,14.6-7,0-13.6-5.9-13.6-13.3a15,15,0,0,1,2.9-8.5c-2.5-2.9-7.6-4.3-12.6-4.3-14.2,0-17.3,10.5-17.3,23.7v19.3ZM424.2,703.3c.6,7.1,6.6,12,13.6,12,8.9,0,14.2-7.9,14.2-15.5,0-10.7-8.6-16.2-17.3-16.2s-20.4,7.4-26.3,18.5l-.4.2c-1.9-9.9-6.6-17.3-16.5-17.3a25.9,25.9,0,0,0-7.4,1.2c-8.3,2.5-20.4,8.9-15.9,20.2,11.6-2.2,15.7,1.6,15.7,11.7V766c0,9.5-1.3,13.5-4.6,16.3a20.3,20.3,0,0,1-8.4,3.7c-4.7,10.3,4.6,13.5,27.4,13.5s30.7-3.2,25.9-13.5c-2-.4-7.8-1.4-10.9-3.7s-4.7-6.8-4.7-16.3V737.1c0-25.8,9.4-32.5,15.6-33.8m548,0a13.4,13.4,0,0,0,13.7,12c8.7,0,14.1-7.9,14.1-15.5,0-10.7-8.5-16.2-17.3-16.2s-20.2,7.4-26.2,18.5l-.6.2c-1.8-9.9-6.6-17.3-16.3-17.3a26.5,26.5,0,0,0-7.5,1.2c-8.2,2.5-20.3,8.9-15.9,20.2,11.6-2.2,15.7,1.6,15.7,11.7V766c0,9.5-1.2,13.5-4.6,16.3A21.2,21.2,0,0,1,919,786c-4.8,10.3,4.5,13.5,27.4,13.5s30.5-3.2,25.8-13.5c-2-.4-7.8-1.4-11-3.7s-4.5-6.8-4.5-16.3V737.1c0-25.8,9.3-32.5,15.5-33.8" transform="translate(0 0)"/><path id="path11-4" class="cls-1" d="M0,719.5c0,51.9,35.8,82.7,74.7,82.7,35,0,59.5-24.6,59.5-45.1,0-10.9-6.8-18.8-15.6-18.8s-16.7,6.1-16.7,16.7c0,6.7,3.7,10.5,6.4,13.4-4.8,9.2-14.8,16.7-30.5,16.7-25.9,0-44.7-27-44.7-65.8S51,653.2,77,653.2c15.6,0,25.7,7.6,30.5,16.7-2.7,3.1-6.4,6.8-6.4,13.6,0,10.5,7.6,16.6,16.7,16.6s15.6-8,15.6-18.9c0-20.4-24.5-45.1-59.5-45.1C35,636.1,0,669.9,0,719.5" transform="translate(0 0)"/><path id="path15-9" class="cls-1" d="M337.2,17.9,118.8,229.2c-10.9,9.3-17.9,20.2-17.9,35.7s7,26.4,17.9,35.8L337.2,511.9a5.4,5.4,0,0,0,3.9,2c2.1,0,3.5-1.8,3.5-4a6.6,6.6,0,0,0-2-4.1c-51.2-63.7-88.5-136.8-88.5-240.1S291.4,87.8,342.6,24.1a6.6,6.6,0,0,0,2-4.1c0-2.2-1.4-4.1-3.5-4.1a5.9,5.9,0,0,0-3.9,2" transform="translate(0 0)"/><path id="path17-4" class="cls-1" d="M505.1,0C419.6,0,386.2,121.2,386.2,265.7s33.4,264.1,118.9,264.1c51.4,0,95.1-30.1,95.3-54.8a21,21,0,0,0-6.6-15.1c-24.4-23.5-33.9-47-33.9-67.7-.2-39.6,34.1-69.1,65.8-69.1,43.5,0,69.1,34.2,69.1,78.5,0,42-17.8,76.9-37.3,104.9a6.5,6.5,0,0,0-1.1,3.6c0,2.2,1.3,4,3.2,4s2.6-.7,4.1-2.2L882.2,300.7c10.9-9.4,17.9-20.3,17.9-35.8s-7-26.4-17.9-35.7L663.7,17.9a6,6,0,0,0-4.1-2.1c-1.9,0-3.2,1.8-3.2,4a6,6,0,0,0,1.1,3.5c19.5,28,37.3,63,37.3,104.9,0,44.2-25.6,78.5-69.1,78.5-31.7,0-66-29.5-65.8-69.1,0-20.7,9.5-44.2,33.9-67.7a21,21,0,0,0,6.6-15.1C600.2,30.1,556.5,0,505.1,0" transform="translate(0 0)"/></svg>