<svg xmlns="http://www.w3.org/2000/svg" viewBox="0 0 163.64 15.48"><defs><style>.a{fill:#b5121b;}</style></defs><title>cinemark</title><path class="a" d="M115.13,246.05v-1.77H111v-1.41c1.42-.19,2.78.09,4.1-.17v-2H111v-1.54h4.14v-2c-2.58,0-5.06,0-7.64,0,0,3,0,5.95,0,8.92C110.16,246.1,112.65,246.15,115.13,246.05Z" transform="translate(-52.55 -236.56)"/><path class="a" d="M155.28,246.07c.23,0,.48-.26.66-.45a3.45,3.45,0,0,0,.36-.69h4.44c.42.48.7,1.06,1,1.1a23.54,23.54,0,0,0,3,.05c0-.21,0-.3,0-.35-1.4-2.72-2.81-5.43-4.2-8.15a.78.78,0,0,0-.8-.44c-1,0-1.92,0-3,0l-4.64,9C153.39,246.09,154.34,246.12,155.28,246.07Zm3.2-5.89a6.84,6.84,0,0,1,1.5,3h-2.91C157.59,242.12,158,241.16,158.48,240.18Z" transform="translate(-52.55 -236.56)"/><path class="a" d="M181.63,241.94l.41-.29c1.64-1.24,1.45-3.23-.45-4a8,8,0,0,0-2.58-.49c-1.62-.08-3.24,0-4.86,0-.29,0-.57,0-1,.07,0,3,0,5.89,0,8.87a20,20,0,0,0,3.39-.1v-3.33a2.36,2.36,0,0,1,3,1.19c.43.76.81,1.55,1.19,2.3h3.42C183.94,244.68,183.76,244.38,181.63,241.94Zm-2.77-1c-.72.08-1.44.09-2.24.14v-2.14c.78,0,1.51-.06,2.22,0a1,1,0,0,1,.94,1.05A1,1,0,0,1,178.86,240.94Z" transform="translate(-52.55 -236.56)"/><path class="a" d="M89,241.69l.92.78c1.15,1,2.3,2.07,3.46,3.09a1.74,1.74,0,0,0,.83.5c1,.06,2,0,3,0a47.21,47.21,0,0,0-.09-9,22.92,22.92,0,0,0-3.25.13v4.12c-.45-.38-.73-.61-1-.86-1.07-1-2.13-1.93-3.21-2.89-.21-.19-.47-.44-.72-.45-1.13-.05-2.26,0-3.42,0V246h3.31C89,244.59,88.79,243.21,89,241.69Z" transform="translate(-52.55 -236.56)"/><path class="a" d="M199.82,241.28c1.46-1.45,2.9-2.68,4.15-4.15-1-.11-1.87-.09-2.78-.12a1.87,1.87,0,0,0-1.49.57c-1,1-2.06,1.9-3.1,2.84a7.75,7.75,0,0,1-.74.51v-3.87a24.48,24.48,0,0,0-3.54,0v9.07h3.57v-3.47a46.57,46.57,0,0,1,7.58,5.18H144.55V237c-1.06,0-2,.07-2.89,0a2.61,2.61,0,0,0-2.53,1.17c-1.17,1.47-2.45,2.85-3.68,4.27-.21.24-.45.44-.71.69l-.82-.87c-1.43-1.54-2.85-3.09-4.3-4.61a1.64,1.64,0,0,0-.87-.6c-1.2-.06-2.41,0-3.73,0v10.65H79.43c-5.94,0-11.89,0-17.83,0a11.77,11.77,0,0,1-2.83-.39A2.46,2.46,0,0,1,57,245.69a3.83,3.83,0,0,1,1.1-3.94,3.34,3.34,0,0,1,3.82-.43l.92.52c.55-1.25,1.07-2.46,1.58-3.62A3.35,3.35,0,0,0,62.57,237a7.57,7.57,0,0,0-4.37-.13,7.86,7.86,0,0,0-5.65,7.61,7.41,7.41,0,0,0,7.39,7.6c10.52-.07,21,0,31.56,0h37.93v-7.67l5.13,5,5.14-5.1.26.11V252h76.15l.08-.17Z" transform="translate(-52.55 -236.56)"/><path class="a" d="M75.85,246.12a62.75,62.75,0,0,0-.08-8.93H72.55v8.91A20.27,20.27,0,0,0,75.85,246.12Z" transform="translate(-52.55 -236.56)"/></svg>