<?xml version="1.0" encoding="utf-8"?>
<!-- Generator: Adobe Illustrator 22.1.0, SVG Export Plug-In . SVG Version: 6.00 Build 0)  -->
<svg version="1.1" id="Layer_1" xmlns="http://www.w3.org/2000/svg" xmlns:xlink="http://www.w3.org/1999/xlink" x="0px" y="0px"
	 viewBox="0 0 250 67.4" style="enable-background:new 0 0 250 67.4;" xml:space="preserve">
<style type="text/css">
	.st0{fill:#FFFFFF;}
</style>
<title>cineplex_white</title>
<rect x="35.4" y="38.6" class="st0" width="6.3" height="28.5"/>
<polygon class="st0" points="82.7,67.1 109.7,67.1 109.7,62.3 89.1,62.3 89.1,55.3 102.7,55.3 102.7,50.5 89.1,50.5 89.1,43.4 
	109.1,43.4 109.1,38.6 82.7,38.6 "/>
<path class="st0" d="M143.6,47.1c0-3.1-1-5.3-2.9-6.5c-1.9-1.3-4.9-1.9-8.7-1.9h-17.5v28.4h6.4V55.3H132c3.9,0,6.8-0.6,8.7-1.8
	C142.7,52.3,143.7,50.2,143.6,47.1L143.6,47.1z M135.9,49.9c-1.1,0.5-2.3,0.7-3.5,0.7h-11.5v-7.1h11.5c1.2,0,2.4,0.2,3.5,0.8
	c1,0.6,1.5,1.7,1.4,2.8l0,0C137.4,48.2,136.9,49.3,135.9,49.9z"/>
<polygon class="st0" points="147.4,67.2 175.3,67.2 175.3,62.4 153.7,62.4 153.7,38.6 147.4,38.6 "/>
<polygon class="st0" points="180.1,67.2 207.1,67.2 207.1,62.3 186.5,62.3 186.5,55.3 200.1,55.3 200.1,50.5 186.5,50.5 186.5,43.4 
	206.5,43.4 206.5,38.6 180.1,38.6 "/>
<path class="st0" d="M31.9,41.7c-1.4-0.8-2.8-1.5-4.3-2c-1.3-0.4-2.6-0.8-4-1c-1.7-0.3-3.3-0.5-5-0.5c-2.3,0-4.6,0.3-6.9,0.9
	c-2.1,0.6-4.1,1.5-5.9,2.8c-1.7,1.2-3.1,2.8-4.2,4.6c-2.1,4-2.1,8.7,0,12.7c1,1.8,2.4,3.4,4.1,4.6c1.7,1.3,3.7,2.2,5.8,2.7
	c2.1,0.6,4.3,0.9,6.5,0.9c1.9,0,3.8-0.1,5.7-0.5c1.6-0.3,3.2-0.8,4.8-1.4c0,0,1.6-0.7,3.6-1.7L28.3,60c-0.8,0.4-1.6,0.8-2.5,1.2
	c-1.2,0.5-2.4,0.8-3.7,1.1c-1.5,0.3-3,0.4-4.5,0.5c-1.4,0-2.8-0.2-4.1-0.7c-1.3-0.4-2.5-1.1-3.6-2c-1.1-0.9-1.9-2-2.6-3.2
	c-0.7-1.3-1-2.7-1-4.2c0-1.4,0.3-2.8,0.9-4.2c0.6-1.2,1.4-2.2,2.4-3c1.1-0.8,2.4-1.5,3.7-1.8c1.5-0.4,3.1-0.6,4.7-0.6
	c1.5,0,3,0.1,4.5,0.3c0.6,0.1,1.3,0.3,1.8,0.4c1.3,0.4,2.5,1,3.7,1.7L31.9,41.7z"/>
<path class="st0" d="M248.1,40.7c-0.1,0-0.3,0-0.4,0h-0.4v-0.9h0.4c0.2,0,0.4,0,0.5,0.1c0.2,0.2,0.2,0.4,0.1,0.6
	C248.2,40.6,248.2,40.7,248.1,40.7 M248.6,41.1c-0.1-0.1-0.3-0.2-0.4-0.2c0.1,0,0.3-0.1,0.4-0.1c0.2-0.1,0.3-0.3,0.2-0.5
	c0-0.3-0.1-0.5-0.4-0.6c-0.2-0.1-0.4-0.1-0.6-0.1h-0.9V42h0.4v-1h0.3c0.2,0,0.3,0,0.5,0.1c0.2,0.1,0.3,0.3,0.2,0.6v0.3h0.4v-0.4
	C248.8,41.3,248.7,41.2,248.6,41.1 M249.7,40.8c0,0.5-0.2,1-0.6,1.4c-0.4,0.4-0.8,0.6-1.4,0.6c-0.5,0-1-0.2-1.4-0.6
	c-0.4-0.4-0.6-0.8-0.6-1.4c0-0.5,0.2-1,0.6-1.4c0.7-0.7,1.9-0.8,2.7,0c0,0,0,0,0,0C249.5,39.8,249.7,40.3,249.7,40.8 M250,40.8
	c0-1.2-1-2.2-2.2-2.2c-0.6,0-1.2,0.2-1.6,0.7c-0.4,0.4-0.7,1-0.6,1.6c0,0.6,0.2,1.2,0.6,1.6c0.9,0.9,2.3,0.9,3.1,0
	C249.8,42,250,41.4,250,40.8"/>
<polygon class="st0" points="245.8,38.6 238,38.6 227.9,48.9 217.7,38.6 210,38.6 224,52.8 210,67 217.8,67 227.9,56.7 238,67 
	245.8,67 231.8,52.8 "/>
<polygon class="st0" points="77.9,67.1 77.9,64.7 77.9,38.5 72.4,38.5 72.4,59.2 52.1,38.5 52.1,38.5 46.6,38.5 46.6,67.1 
	52.1,67.1 52.1,46.5 72.4,67.1 72.4,67.1 72.4,67.1 "/>
<path class="st0" d="M180.8,15c0-7.9-22.8-14.4-51.7-15l-0.2,2.2c23.8,0.6,42.5,6.3,42.5,13.3c0,7.2-19.6,13-44.3,13.3l0.2,1.1
	C157,29.6,180.8,23,180.8,15"/>
<path class="st0" d="M160,16.7c0,5.4-14.7,9.8-33.3,10l0.2,1.1c21.6-0.3,38.8-5.4,38.8-11.7c0-6.1-16.3-11.1-37.1-11.6l-0.3,2.2
	C146.1,7.2,160,11.5,160,16.7"/>
<path class="st0" d="M154.4,17.4c0-4.3-11.5-7.9-26.3-8.3l-0.2,2.2c11.8,0.4,20.9,3.2,20.9,6.7s-9.9,6.5-22.4,6.7l0.2,1.1
	C142.1,25.6,154.4,21.9,154.4,17.4"/>
<path class="st0" d="M69.2,15c0-7.9,22.8-14.4,51.7-15l0.3,2.2C97.4,2.8,78.6,8.5,78.6,15.5c0,7.2,19.6,13,44.3,13.3l-0.2,1.1
	C93,29.6,69.2,23,69.2,15"/>
<path class="st0" d="M90,16.7c0,5.4,14.8,9.8,33.3,10l-0.2,1.1c-21.6-0.3-38.8-5.4-38.8-11.7c0-6.1,16.3-11.1,37.1-11.6l0.3,2.2
	C103.9,7.2,90,11.5,90,16.7"/>
<path class="st0" d="M95.6,17.4c0-4.3,11.5-7.9,26.3-8.3l0.3,2.2c-11.8,0.4-20.9,3.2-20.9,6.7s9.9,6.5,22.4,6.7l-0.2,1.1
	C107.9,25.6,95.6,21.9,95.6,17.4"/>
</svg>
