<svg width="54" height="39" viewBox="0 0 54 39" fill="none" xmlns="http://www.w3.org/2000/svg">
<path fill-rule="evenodd" clip-rule="evenodd" d="M33.7518 37.995H33.7473C33.6424 37.9978 33.2736 38.0074 32.9115 37.995C31.9899 37.995 30.995 37.2956 30.995 36.1653C30.995 35.0441 31.9696 34.374 32.907 34.3746C32.9182 34.3723 33.3756 34.3532 33.7518 34.374C34.6937 34.374 35.6689 35.0441 35.6689 36.1653C35.6689 37.2956 34.674 37.995 33.7518 37.995ZM34.6509 33.6679C33.3401 33.6386 32.0085 33.6673 31.9972 33.6679C30.396 33.6679 29.0943 34.7846 29.0943 36.1574C29.0943 37.5505 30.3966 38.6842 31.9983 38.6842C32.0091 38.6847 33.3407 38.7112 34.652 38.6842C36.256 38.6842 37.5611 37.5505 37.5611 36.1574C37.5606 34.7982 36.282 33.7046 34.6509 33.6679ZM51.6889 38.6204C51.6889 38.6204 53.2591 38.6199 53.3212 38.6199C53.3212 38.5561 53.3206 36.2296 53.3206 36.2296C53.3206 34.8337 52.0775 33.739 50.4915 33.739L46.3619 33.7384C46.2942 33.7384 46.1374 33.7559 46.1374 33.9206L46.138 38.4349C46.138 38.5561 46.2254 38.6199 46.3111 38.6199C46.3111 38.6199 47.9749 38.6204 48.037 38.6204C48.037 38.5561 48.0364 34.8439 48.0364 34.8439C48.0364 34.678 48.1611 34.5906 48.2835 34.5906L50.1859 34.5895C50.7121 34.5895 51.4904 35.0723 51.4904 36.1072L51.4898 38.4298C51.4898 38.4315 51.4949 38.6204 51.6889 38.6204ZM17.2372 34.7068C17.2372 34.7068 19.721 34.7074 19.7848 34.7074V33.9296C19.7848 33.8207 19.7064 33.7384 19.602 33.7384H12.5018C12.3861 33.7384 12.3168 33.8343 12.3168 33.9268C12.3168 33.9268 12.3168 34.647 12.3168 34.7068C12.3794 34.7068 14.0139 34.7074 14.0139 34.7074C14.6506 34.7074 15.0781 35.2567 15.0781 35.7694V38.4349C15.0781 38.5229 15.1554 38.6204 15.2654 38.6204C15.2654 38.6204 16.9247 38.621 16.9873 38.621V34.9572C16.9879 34.819 17.0995 34.7068 17.2372 34.7068ZM9.38845 38.4349C9.38845 38.5443 9.48715 38.621 9.5757 38.621H9.67271C9.67271 38.621 9.66538 38.6272 9.65917 38.6329C9.70824 38.621 9.87462 38.621 10.4527 38.621C10.4527 38.621 11.2356 38.6204 11.2954 38.6204V33.924C11.2954 33.8236 11.2119 33.7378 11.1126 33.7378H9.57514C9.47418 33.7378 9.38845 33.8236 9.38845 33.924V38.4349ZM22.7058 36.0238V35.0492C22.7058 34.7824 22.8936 34.5963 23.1637 34.5963H25.6973C26.0813 34.5963 26.4062 34.9211 26.4062 35.3046C26.4062 35.7006 26.0847 36.0232 25.6894 36.0232H22.7058V36.0238ZM26.4113 38.6216H28.3052C28.2753 37.4484 27.0616 36.9623 26.9217 36.9104L26.8975 36.9014L26.8992 36.8348L26.924 36.8292C27.7356 36.647 28.3018 36.0221 28.3018 35.3103C28.3018 34.554 27.5664 33.7373 26.3774 33.7373L21.7966 33.7384C21.2416 33.7384 20.8062 34.1761 20.8062 34.735V38.4343C20.8062 38.5415 20.8829 38.6188 20.9889 38.6188C20.9889 38.6188 22.6449 38.6204 22.708 38.6204C22.708 38.5578 22.7069 36.8889 22.7069 36.8889H24.3307C25.7734 36.8889 26.3673 37.938 26.4113 38.6216ZM6.4951 35.3763H8.34899C7.94741 34.3554 6.83519 33.6549 5.55715 33.6301L4.98751 33.6188C4.09469 33.5997 3.68691 33.5906 2.9052 33.6301C1.99151 33.6764 1.41678 33.8862 0.853342 34.3797C0.303435 34.8619 0.000564006 35.4981 0 36.1738C0 37.5703 1.23461 38.6656 2.87136 38.7231C3.99317 38.7631 4.1133 38.7643 5.58479 38.7203C6.94799 38.6791 7.92542 38.0576 8.34729 36.9752H6.49397C6.42403 36.9752 6.37045 37.0063 6.33492 37.0683C5.99934 37.6498 5.35693 38.0113 4.65926 38.0113C4.27799 38.0271 3.81832 38.0113 3.81832 38.0113C2.87643 38.0113 1.90127 37.3272 1.90127 36.1822L1.90183 36.1715C1.90803 35.0334 2.88038 34.3537 3.82284 34.3532C3.93056 34.3487 4.31014 34.3363 4.65813 34.3537C5.34509 34.3537 6.00498 34.7203 6.33774 35.2877C6.34958 35.3075 6.39696 35.3763 6.4951 35.3763ZM45.116 37.7434H40.6276C40.4765 37.7434 40.3704 37.6425 40.3704 37.4981V36.5675C40.3704 36.5675 44.1967 36.5675 44.2604 36.5675C44.2604 36.5088 44.2604 35.7694 44.2604 35.7107H40.3704L40.3688 34.8613C40.3688 34.8574 40.3659 34.766 40.4347 34.6944C40.4861 34.6414 40.5611 34.6143 40.6587 34.6143H45.1154V33.9296C45.1154 33.8709 45.0991 33.8253 45.0658 33.7937C45.0043 33.7345 44.9028 33.7378 44.8966 33.7384H38.6542C38.6344 33.7384 38.4641 33.7435 38.4641 33.9302L38.4647 37.6272C38.4647 38.1162 38.838 38.621 39.4635 38.621L44.9304 38.6204C44.9756 38.6204 45.0224 38.6007 45.0585 38.5669C45.0957 38.5313 45.1166 38.4856 45.1166 38.4388C45.1166 38.4383 45.1166 37.8032 45.116 37.7434ZM43.7206 31.9725C43.5379 31.8586 43.3185 31.8027 43.0602 31.8027C42.803 31.8027 42.574 31.8625 42.3992 31.9725C42.2249 32.0814 42.0856 32.2286 41.8792 32.2286C41.6733 32.2286 41.5492 32.0819 41.3637 31.9725C41.1775 31.8625 40.961 31.8027 40.7032 31.8027C40.4455 31.8027 40.2261 31.8591 40.0422 31.9725C39.86 32.0836 39.7681 32.2201 39.7681 32.3775C39.7681 32.5365 39.86 32.6719 40.0422 32.7835C40.2261 32.8963 40.4449 32.9516 40.7032 32.9516C40.9598 32.9516 41.1837 32.8975 41.3496 32.7965C41.5148 32.695 41.693 32.5297 41.8792 32.5297C42.0659 32.5297 42.2345 32.6781 42.3997 32.7841C42.5656 32.889 42.8036 32.9516 43.0602 32.9516C43.3253 32.9516 43.5486 32.8963 43.7269 32.7835C43.9056 32.6719 43.9948 32.5365 43.9948 32.3775C43.9942 32.2195 43.9034 32.0836 43.7206 31.9725Z" fill="#7C7D7D"/>
<path fill-rule="evenodd" clip-rule="evenodd" d="M41.3049 27.4001C38.5836 25.0668 30.4985 18.4273 26.6605 18.4273C22.8207 18.4273 14.7419 25.0623 12.0189 27.3972C12.0025 26.8457 11.9873 26.5106 11.9873 26.0194C11.9873 26.0194 11.9207 25.2083 12.6381 24.3967C18.541 19.0483 24.7299 16.4313 24.9199 16.3512C26.7654 15.5712 26.6616 15.7178 26.6599 12.5876C26.6599 12.5876 26.7422 12.5825 26.7947 12.5881C29.3936 12.8233 36.3811 19.6049 40.5164 24.1897C40.5237 24.1976 41.3325 25.1339 41.3325 26.1209C41.3336 26.5834 41.3201 27.0397 41.3049 27.4001ZM41.1938 23.5727C40.7544 23.0854 30.4066 11.6632 26.6605 11.6632C22.9155 11.6632 12.5671 23.0854 12.1283 23.5722L12.1277 23.5727C12.0848 23.6207 11.0747 24.7752 11.0747 26.1215C11.0747 27.1694 11.1441 28.2241 11.1452 28.2342C11.1475 28.2827 11.1717 28.7283 11.4193 28.8496C11.4594 28.8693 11.5028 28.8795 11.5473 28.8795C11.6393 28.8795 11.7419 28.8383 11.853 28.7571C11.9647 28.6584 22.5066 19.3472 26.6605 19.3472C30.8149 19.3472 41.3573 28.6584 41.4628 28.7526C41.5779 28.8372 41.6816 28.8795 41.7747 28.8795C41.8198 28.8795 41.8621 28.8693 41.9027 28.8501C42.1498 28.7294 42.174 28.2833 42.1763 28.2331C42.1768 28.2252 42.2462 27.1705 42.2462 26.1226C42.2462 24.7752 41.2361 23.6207 41.1938 23.5727ZM41.2902 16.5362C38.5717 14.2057 30.4946 7.57299 26.661 7.57299C22.8252 7.57299 14.7543 14.2018 12.0341 16.5339C12.0177 15.9835 12.0025 15.6479 12.0025 15.1577C12.0025 15.1577 11.9359 14.3473 12.6528 13.5368C18.55 8.1934 24.7327 5.57923 24.9222 5.49914C26.7659 4.71968 26.6622 4.86632 26.6605 1.73947C26.6605 1.73947 26.7422 1.73439 26.7953 1.74003C29.3914 1.97522 36.3721 8.75007 40.5029 13.3298C40.5102 13.3377 41.3184 14.2728 41.3184 15.2593C41.319 15.7206 41.3049 16.1763 41.2902 16.5362ZM41.1791 12.7128C40.7398 12.226 30.4026 0.815063 26.6605 0.815063C22.9194 0.815063 12.5812 12.226 12.1429 12.7122L12.1424 12.7128C12.0995 12.7607 11.0899 13.9141 11.0899 15.2593C11.0899 16.3061 11.1599 17.3596 11.1604 17.3698C11.1627 17.4183 11.1869 17.8633 11.434 17.9845C11.474 18.0043 11.5175 18.0139 11.562 18.0139C11.6539 18.0139 11.756 17.9727 11.8671 17.8915C11.9794 17.7928 22.5105 8.49119 26.6605 8.49119C30.811 8.49119 41.3427 17.7928 41.4481 17.887C41.5626 17.9716 41.6664 18.0133 41.7595 18.0133C41.8046 18.0133 41.8469 18.0037 41.8875 17.984C42.134 17.8633 42.1588 17.4177 42.1605 17.3675C42.161 17.3596 42.2304 16.3061 42.2304 15.2593C42.231 13.9141 41.222 12.7607 41.1791 12.7128Z" fill="#7C7D7D"/>
</svg>
