<?xml version="1.0" encoding="utf-8"?>
<!-- Generator: Adobe Illustrator 23.0.6, SVG Export Plug-In . SVG Version: 6.00 Build 0)  -->
<svg version="1.1" id="Layer_1" xmlns="http://www.w3.org/2000/svg" xmlns:xlink="http://www.w3.org/1999/xlink" x="0px" y="0px"
	 viewBox="0 0 54 39" style="enable-background:new 0 0 54 39;" xml:space="preserve">
<style type="text/css">
	.st0{fill-rule:evenodd;clip-rule:evenodd;fill:#FFFFFF;}
</style>
<path class="st0" d="M33.8,38L33.8,38c-0.1,0-0.5,0-0.8,0C32,38,31,37.3,31,36.2c0-1.1,1-1.8,1.9-1.8c0,0,0.5,0,0.8,0
	c0.9,0,1.9,0.7,1.9,1.8C35.7,37.3,34.7,38,33.8,38z M34.7,33.7c-1.3,0-2.6,0-2.7,0c-1.6,0-2.9,1.1-2.9,2.5c0,1.4,1.3,2.5,2.9,2.5
	c0,0,1.3,0,2.7,0c1.6,0,2.9-1.1,2.9-2.5C37.6,34.8,36.3,33.7,34.7,33.7z M51.7,38.6c0,0,1.6,0,1.6,0c0-0.1,0-2.4,0-2.4
	c0-1.4-1.2-2.5-2.8-2.5l-4.1,0c-0.1,0-0.2,0-0.2,0.2l0,4.5c0,0.1,0.1,0.2,0.2,0.2c0,0,1.7,0,1.7,0c0-0.1,0-3.8,0-3.8
	c0-0.2,0.1-0.3,0.2-0.3l1.9,0c0.5,0,1.3,0.5,1.3,1.5l0,2.3C51.5,38.4,51.5,38.6,51.7,38.6z M17.2,34.7c0,0,2.5,0,2.5,0v-0.8
	c0-0.1-0.1-0.2-0.2-0.2h-7.1c-0.1,0-0.2,0.1-0.2,0.2c0,0,0,0.7,0,0.8c0.1,0,1.7,0,1.7,0c0.6,0,1.1,0.5,1.1,1.1v2.7
	c0,0.1,0.1,0.2,0.2,0.2c0,0,1.7,0,1.7,0V35C17,34.8,17.1,34.7,17.2,34.7z M9.4,38.4c0,0.1,0.1,0.2,0.2,0.2h0.1c0,0,0,0,0,0
	c0,0,0.2,0,0.8,0c0,0,0.8,0,0.8,0v-4.7c0-0.1-0.1-0.2-0.2-0.2H9.6c-0.1,0-0.2,0.1-0.2,0.2V38.4z M22.7,36v-1c0-0.3,0.2-0.5,0.5-0.5
	h2.5c0.4,0,0.7,0.3,0.7,0.7c0,0.4-0.3,0.7-0.7,0.7L22.7,36L22.7,36z M26.4,38.6h1.9c0-1.2-1.2-1.7-1.4-1.7l0,0l0-0.1l0,0
	c0.8-0.2,1.4-0.8,1.4-1.5c0-0.8-0.7-1.6-1.9-1.6l-4.6,0c-0.6,0-1,0.4-1,1v3.7c0,0.1,0.1,0.2,0.2,0.2c0,0,1.7,0,1.7,0
	c0-0.1,0-1.7,0-1.7h1.6C25.8,36.9,26.4,37.9,26.4,38.6z M6.5,35.4h1.9c-0.4-1-1.5-1.7-2.8-1.7l-0.6,0c-0.9,0-1.3,0-2.1,0
	c-0.9,0-1.5,0.3-2.1,0.7C0.3,34.9,0,35.5,0,36.2c0,1.4,1.2,2.5,2.9,2.5c1.1,0,1.2,0,2.7,0c1.4,0,2.3-0.7,2.8-1.7H6.5
	c-0.1,0-0.1,0-0.2,0.1C6,37.6,5.4,38,4.7,38c-0.4,0-0.8,0-0.8,0c-0.9,0-1.9-0.7-1.9-1.8l0,0c0-1.1,1-1.8,1.9-1.8c0.1,0,0.5,0,0.8,0
	c0.7,0,1.3,0.4,1.7,0.9C6.3,35.3,6.4,35.4,6.5,35.4z M45.1,37.7h-4.5c-0.2,0-0.3-0.1-0.3-0.2v-0.9c0,0,3.8,0,3.9,0
	c0-0.1,0-0.8,0-0.9h-3.9l0-0.8c0,0,0-0.1,0.1-0.2c0.1-0.1,0.1-0.1,0.2-0.1h4.5v-0.7c0-0.1,0-0.1,0-0.1c-0.1-0.1-0.2-0.1-0.2-0.1
	h-6.2c0,0-0.2,0-0.2,0.2l0,3.7c0,0.5,0.4,1,1,1l5.5,0c0,0,0.1,0,0.1-0.1c0,0,0.1-0.1,0.1-0.1C45.1,38.4,45.1,37.8,45.1,37.7z
	 M43.7,32c-0.2-0.1-0.4-0.2-0.7-0.2c-0.3,0-0.5,0.1-0.7,0.2c-0.2,0.1-0.3,0.3-0.5,0.3c-0.2,0-0.3-0.1-0.5-0.3
	c-0.2-0.1-0.4-0.2-0.7-0.2c-0.3,0-0.5,0.1-0.7,0.2c-0.2,0.1-0.3,0.2-0.3,0.4c0,0.2,0.1,0.3,0.3,0.4c0.2,0.1,0.4,0.2,0.7,0.2
	c0.3,0,0.5-0.1,0.6-0.2c0.2-0.1,0.3-0.3,0.5-0.3c0.2,0,0.4,0.1,0.5,0.3c0.2,0.1,0.4,0.2,0.7,0.2c0.3,0,0.5-0.1,0.7-0.2
	c0.2-0.1,0.3-0.2,0.3-0.4C44,32.2,43.9,32.1,43.7,32z"/>
<path class="st0" d="M41.3,27.4c-2.7-2.3-10.8-9-14.6-9c-3.8,0-11.9,6.6-14.6,9c0-0.6,0-0.9,0-1.4c0,0-0.1-0.8,0.7-1.6
	c5.9-5.3,12.1-8,12.3-8c1.8-0.8,1.7-0.6,1.7-3.8c0,0,0.1,0,0.1,0c2.6,0.2,9.6,7,13.7,11.6c0,0,0.8,0.9,0.8,1.9
	C41.3,26.6,41.3,27,41.3,27.4z M41.2,23.6c-0.4-0.5-10.8-11.9-14.5-11.9c-3.7,0-14.1,11.4-14.5,11.9l0,0c0,0-1.1,1.2-1.1,2.5
	c0,1,0.1,2.1,0.1,2.1c0,0,0,0.5,0.3,0.6c0,0,0.1,0,0.1,0c0.1,0,0.2,0,0.3-0.1c0.1-0.1,10.7-9.4,14.8-9.4c4.2,0,14.7,9.3,14.8,9.4
	c0.1,0.1,0.2,0.1,0.3,0.1c0,0,0.1,0,0.1,0c0.2-0.1,0.3-0.6,0.3-0.6c0,0,0.1-1.1,0.1-2.1C42.2,24.8,41.2,23.6,41.2,23.6z M41.3,16.5
	c-2.7-2.3-10.8-9-14.6-9c-3.8,0-11.9,6.6-14.6,9c0-0.6,0-0.9,0-1.4c0,0-0.1-0.8,0.7-1.6c5.9-5.3,12.1-8,12.3-8
	c1.8-0.8,1.7-0.6,1.7-3.8c0,0,0.1,0,0.1,0c2.6,0.2,9.6,7,13.7,11.6c0,0,0.8,0.9,0.8,1.9C41.3,15.7,41.3,16.2,41.3,16.5z M41.2,12.7
	C40.7,12.2,30.4,0.8,26.7,0.8c-3.7,0-14.1,11.4-14.5,11.9l0,0c0,0-1.1,1.2-1.1,2.5c0,1,0.1,2.1,0.1,2.1c0,0,0,0.5,0.3,0.6
	c0,0,0.1,0,0.1,0c0.1,0,0.2,0,0.3-0.1c0.1-0.1,10.6-9.4,14.8-9.4c4.2,0,14.7,9.3,14.8,9.4c0.1,0.1,0.2,0.1,0.3,0.1c0,0,0.1,0,0.1,0
	c0.2-0.1,0.3-0.6,0.3-0.6c0,0,0.1-1.1,0.1-2.1C42.2,13.9,41.2,12.8,41.2,12.7z"/>
</svg>
