<svg xmlns="http://www.w3.org/2000/svg" viewBox="0 0 594.73 74.06"><defs><style>.a{fill:#0098d7;}.b{fill:#000434;}</style></defs><title>cc</title><path class="a" d="M85.55,359.23a15.17,15.17,0,0,1,5.72,1.71,9.17,9.17,0,0,1,4.44,6.76,31.68,31.68,0,0,1,.22,5.51c0,3.25,0,6.51,0,9.76a1.26,1.26,0,0,1-.47,1.1,196.3,196.3,0,0,1-19.2,14,106.44,106.44,0,0,1-22,10.93,51.62,51.62,0,0,1-15.89,3.13A24.86,24.86,0,0,1,26.6,409.9a14.21,14.21,0,0,1-8-15.14,25.2,25.2,0,0,1,6.09-12.92c5.06-6.08,11.56-10.18,18.66-13.45a109.45,109.45,0,0,1,14.92-5.71,86.35,86.35,0,0,1,19.13-3.45,3,3,0,0,1,1.31-.2c2,0,3.93,0,5.89,0A2,2,0,0,1,85.55,359.23Z" transform="translate(-4.09 -358.97)"/><path class="b" d="M95.9,396.68c0,9.55,0,19,0,28.51,0,3.27-2.85,6.59-6.39,7.63A5.43,5.43,0,0,1,88,433H12.08a6.33,6.33,0,0,1-3.3-1c-2.89-1.78-4.74-4.14-4.64-7.8.12-4.41,0-8.82,0-13.46.59,1,1,1.79,1.56,2.56,4.25,6.46,10.39,9.9,17.88,11.15,7,1.19,14,.4,20.86-1.26a106.58,106.58,0,0,0,22.28-8.34A181.52,181.52,0,0,0,94.92,397.3l.76-.55S95.77,396.72,95.9,396.68Z" transform="translate(-4.09 -358.97)"/><path class="b" d="M142.46,425.32a29.74,29.74,0,0,1-18-5.92,27,27,0,0,1-10.37-16.7,31.23,31.23,0,0,1,1.43-17.94A26.42,26.42,0,0,1,129.25,370a29.84,29.84,0,0,1,20.36-2.11c6.61,1.62,11.49,5.62,15.08,11.3.2.31.21.45-.14.64-2.48,1.29-5,2.6-7.42,3.94-.47.25-.57,0-.77-.31a16,16,0,0,0-11.25-7.42,17.89,17.89,0,0,0-15.1,4.48c-4.8,4.29-6.61,9.88-6.52,16.15a21.28,21.28,0,0,0,4,12.25c4.54,6.44,13.73,9.31,21,6.41a16.51,16.51,0,0,0,7.92-6.53c.25-.38.4-.49.84-.27,2.44,1.27,4.89,2.5,7.35,3.72.41.2.45.34.2.72-4.93,7.48-11.68,11.84-20.77,12.23Z" transform="translate(-4.09 -358.97)"/><path class="b" d="M315,396.16a29.47,29.47,0,0,1,4.79-16.64,26.22,26.22,0,0,1,11-9.47,30,30,0,0,1,20.35-2.12c6.62,1.61,11.5,5.61,15.12,11.27.23.37.17.51-.19.69-2.46,1.29-4.91,2.58-7.35,3.9-.43.23-.56.08-.78-.25-2.77-4.23-6.62-7-11.65-7.52a18,18,0,0,0-17.11,7.12c-5.2,6.67-5.44,17.42-1,24.6s14,10.71,21.81,7.64a16.34,16.34,0,0,0,7.88-6.45c.31-.47.52-.56,1-.29q3.58,1.86,7.2,3.63c.46.23.46.38.19.78-4.93,7.47-11.69,11.82-20.78,12.19a29.27,29.27,0,0,1-19.84-6.13,27.29,27.29,0,0,1-10.21-17.54A32.7,32.7,0,0,1,315,396.16Z" transform="translate(-4.09 -358.97)"/><path class="b" d="M380.46,389a19,19,0,0,1,5-4,18.25,18.25,0,0,1,15.47-1.34c3.74,1.38,5.65,4.35,6.39,8.16a21,21,0,0,1,.34,4c0,9.23,0,18.47,0,27.7,0,.7-.18.89-.89.88-2.38-.05-4.75-.05-7.13,0-.65,0-.8-.17-.79-.8q0-12.62,0-25.23a9,9,0,0,0-1.38-5.26c-1.27-1.85-3.21-2.4-5.3-2.57a13,13,0,0,0-11.43,4.93,1.63,1.63,0,0,0-.3,1.19c0,8.92,0,17.84,0,26.75,0,.74-.13,1-1,1-2.35-.06-4.7,0-7,0-.59,0-.83-.08-.83-.77q0-27.39,0-54.79c0-.56.1-.78.73-.77,2.43,0,4.87,0,7.3,0,.66,0,.79.19.79.81,0,6.54,0,13.08,0,19.62Z" transform="translate(-4.09 -358.97)"/><path class="b" d="M511.59,389a18.07,18.07,0,0,1,5.38-4.23c4.83-2.45,9.85-3.09,15-1.19,4.19,1.55,6.08,4.92,6.71,9.15a21.66,21.66,0,0,1,.19,3.22c0,9.14,0,18.29,0,27.43,0,.75-.18.95-.93.93-2.32-.06-4.64-.05-7,0-.71,0-.89-.19-.89-.89q0-12,0-24a14.69,14.69,0,0,0-.4-4c-.86-3.09-2.8-4.66-6.3-5-4.76-.45-8.51,1.52-11.58,5a1.47,1.47,0,0,0-.26,1.12c0,8.88,0,17.77,0,26.66,0,.83-.16,1.11-1.05,1.08-2.35-.07-4.7,0-7.05,0-.57,0-.7-.15-.7-.71q0-19.69,0-39.4c0-.51.1-.68.64-.67q3.74,0,7.47,0c.54,0,.68.16.68.67C511.57,385.71,511.59,387.24,511.59,389Z" transform="translate(-4.09 -358.97)"/><path class="b" d="M468.33,389a18.32,18.32,0,0,1,5.44-4.28A18.7,18.7,0,0,1,486.93,383c4.81,1.11,7.5,4.25,8.4,9a22.09,22.09,0,0,1,.32,4.06c0,9.09,0,18.18,0,27.26,0,.8-.22,1-1,1q-3.53-.07-7.05,0c-.65,0-.79-.17-.79-.8,0-8,0-16,0-24a18.16,18.16,0,0,0-.2-3.21c-.55-3.2-2.3-5.07-5.49-5.64-5.2-.94-9.27,1.1-12.65,4.91-.29.32-.19.69-.19,1,0,8.89,0,17.78,0,26.67,0,.93-.28,1.1-1.12,1.08-2.29-.06-4.59,0-6.88,0-.55,0-.79-.09-.79-.73q0-19.69,0-39.41c0-.55.19-.64.68-.63,2.46,0,4.93,0,7.39,0,.54,0,.72.12.71.69C468.31,385.74,468.33,387.27,468.33,389Z" transform="translate(-4.09 -358.97)"/><path class="b" d="M170.87,396.1c0-9,0-18.07,0-27.1,0-.9.26-1.06,1.08-1,2.32.06,4.64,0,7,0,.56,0,.78.1.78.73q0,27.44,0,54.87c0,.61-.2.74-.77.73-2.4,0-4.81,0-7.22,0-.7,0-.82-.23-.82-.86Q170.89,409.77,170.87,396.1Z" transform="translate(-4.09 -358.97)"/><path class="b" d="M590.05,396.14c0-9.06,0-18.12,0-27.17,0-.85.24-1,1-1,2.35.06,4.7,0,7.05,0,.53,0,.72.11.72.69q0,27.48,0,54.94c0,.58-.17.71-.72.7-2.4,0-4.81,0-7.21,0-.74,0-.87-.24-.87-.91Q590.06,409.77,590.05,396.14Z" transform="translate(-4.09 -358.97)"/><path class="b" d="M44.22,359.25A87.53,87.53,0,0,0,23,369.62,45.29,45.29,0,0,0,7,387.79a38.88,38.88,0,0,0-2.34,6.37,5.1,5.1,0,0,1-.53,1.36v-.83c0-8.89.17-17.79-.07-26.67-.13-4.72,4.11-8.38,7.53-8.79a5.05,5.05,0,0,1,1.59-.22q15.12,0,30.25,0C43.71,359,44.09,358.79,44.22,359.25Z" transform="translate(-4.09 -358.97)"/><path class="b" d="M284.73,389.05,287,387.1a17.34,17.34,0,0,1,9.33-4.5c.34,0,.68,0,1-.07s.55.09.55.51c0,2.57,0,5.15,0,7.72,0,.56-.32.48-.67.44-4.51-.59-8.25,1-11.48,4.07a3,3,0,0,0-1,2.39c0,8.55,0,17.1,0,25.65,0,.73-.13,1-.95,1-2.35-.06-4.7,0-7.05,0-.57,0-.78-.1-.77-.73q0-19.67,0-39.32c0-.61.18-.74.75-.73,2.44,0,4.87,0,7.31,0,.55,0,.72.14.7.71C284.71,385.88,284.73,387.54,284.73,389.05Z" transform="translate(-4.09 -358.97)"/><path class="b" d="M268.83,384.18c0-.54-.17-.66-.68-.66q-3.73,0-7.47,0c-.52,0-.67.13-.66.66,0,1.58,0,3.16,0,5a16.42,16.42,0,0,0-28.17,2.7,26.39,26.39,0,0,0-2.61,11.74,25.59,25.59,0,0,0,3.44,13.8,16.62,16.62,0,0,0,24.12,4.52,24.73,24.73,0,0,0,3.23-3.18c0,1.77,0,3.35,0,4.92,0,.49.15.62.63.62,2.49,0,5,0,7.47,0,.57,0,.71-.17.71-.72Q268.8,403.89,268.83,384.18Zm-9.37,28.58c-3.44,4.17-10,6.2-15.16,3.35a10.74,10.74,0,0,1-5.08-6.33c-1.56-4.89-1.47-9.72,1.19-14.25a10.71,10.71,0,0,1,12.67-4.64,13.16,13.16,0,0,1,6.52,4.35,2,2,0,0,1,.45,1.32c0,2.46,0,4.92,0,7.38s0,4.7,0,7A2.56,2.56,0,0,1,259.46,412.76Z" transform="translate(-4.09 -358.97)"/><path class="b" d="M452.82,418.53q0-17.1,0-34.2c0-.59-.1-.83-.77-.81-2.44,0-4.87,0-7.31,0-.61,0-.74.18-.73.76,0,1.55,0,3.1,0,4.91A16.41,16.41,0,0,0,416,391.68a27.49,27.49,0,0,0-2.63,14.68,24.19,24.19,0,0,0,3.32,11c5.66,9.39,19.45,10.81,26.69,2.16.18-.22.39-.42.69-.74,0,1.74,0,3.29,0,4.84,0,.53.14.68.67.67q3.74,0,7.47,0c.53,0,.67-.16.67-.68C452.8,421.93,452.82,420.23,452.82,418.53Zm-9.31-5.82c-3.41,4.2-10.09,6.28-15.21,3.38a11.44,11.44,0,0,1-5.54-8c-1-4.33-.72-8.57,1.58-12.48a10.71,10.71,0,0,1,12.53-4.82,13,13,0,0,1,6.81,4.5,1.71,1.71,0,0,1,.37,1.17c0,2.46,0,4.92,0,7.38s0,4.81,0,7.21A2.38,2.38,0,0,1,443.51,412.71Z" transform="translate(-4.09 -358.97)"/><path class="b" d="M224.15,399.24A21,21,0,0,0,219,388.45c-4.63-4.93-10.45-6.59-17-5.7-7.37,1-12.59,5.09-15.61,11.84a22.84,22.84,0,0,0-.36,18A18.81,18.81,0,0,0,197.82,424a24.06,24.06,0,0,0,11.72,1,22.37,22.37,0,0,0,11.86-5.25c.3-.26.51-.43.2-.87-1.17-1.64-2.3-3.29-3.43-5-.24-.35-.39-.36-.7-.07a16.14,16.14,0,0,1-9.73,4.14c-7.26.66-12.87-3.55-14-10.38-.11-.64,0-.8.66-.8,4.92,0,9.85,0,14.78,0h14.77c.4,0,.77.1.77-.56A40.08,40.08,0,0,0,224.15,399.24Zm-8.63,1.28c-3.54,0-7.08,0-10.62,0s-7,0-10.52,0c-.76,0-.87-.24-.79-.91a11,11,0,0,1,11.74-9.82c3.83.18,6.95,1.62,9.07,4.92a12.28,12.28,0,0,1,1.76,5.09C216.24,400.36,216.09,400.52,215.52,400.52Z" transform="translate(-4.09 -358.97)"/><path class="b" d="M584.3,405.84a41.11,41.11,0,0,0-.43-6.17,21.28,21.28,0,0,0-5.24-11.21c-4.62-4.94-10.45-6.59-17-5.71-7.36,1-12.6,5.08-15.62,11.83a22.88,22.88,0,0,0-.37,18A18.76,18.76,0,0,0,557.54,424a24.92,24.92,0,0,0,14.46.39,21,21,0,0,0,9.09-4.74c.24-.21.5-.33.22-.73-1.27-1.8-2.51-3.62-3.77-5.44a16.93,16.93,0,0,1-10,4.45c-7.2.69-12.95-3.35-14.19-10.4-.1-.58,0-.78.63-.76,2.32,0,4.64,0,7,0,7.48,0,15,0,22.42,0C584.15,406.83,584.32,406.6,584.3,405.84Zm-9.11-5.33c-3.56,0-7.12,0-10.69,0s-7.07,0-10.6,0c-.6,0-.75-.12-.68-.74a11.17,11.17,0,0,1,13.19-9.87,10.79,10.79,0,0,1,9.41,10C575.88,400.45,575.68,400.51,575.19,400.51Z" transform="translate(-4.09 -358.97)"/></svg>