<svg xmlns="http://www.w3.org/2000/svg" viewBox="0 0 594.76 74.05"><defs><style>.a{fill:#fff;}</style></defs><title>cc_white</title><path class="a" d="M81.46.26A15.29,15.29,0,0,1,87.18,2a9.15,9.15,0,0,1,4.44,6.76,31.72,31.72,0,0,1,.22,5.51V24a1.26,1.26,0,0,1-.47,1.1,195,195,0,0,1-19.2,14A106.44,106.44,0,0,1,50.17,50a51.68,51.68,0,0,1-15.89,3.13,24.83,24.83,0,0,1-11.77-2.23,14.21,14.21,0,0,1-8-15.14A25.23,25.23,0,0,1,20.6,22.87c5.06-6.08,11.56-10.18,18.66-13.45A110.27,110.27,0,0,1,54.18,3.71,86.35,86.35,0,0,1,73.31.26a3.08,3.08,0,0,1,1.31-.2h5.89A2.08,2.08,0,0,1,81.46.26Z" transform="translate(0.03 0.02)"/><path class="a" d="M91.81,37.71V66.22c0,3.27-2.85,6.59-6.39,7.63a5.48,5.48,0,0,1-1.51.18H8a6.35,6.35,0,0,1-3.3-1C1.8,71.25,0,68.89.05,65.23c.12-4.41,0-8.82,0-13.46.59,1,1,1.79,1.56,2.56C5.86,60.79,12,64.23,19.49,65.48c7,1.19,14,.4,20.86-1.26a106.79,106.79,0,0,0,22.28-8.34,181.45,181.45,0,0,0,28.2-17.55l.76-.55Z" transform="translate(0.03 0.02)"/><path class="a" d="M138.37,66.35a29.77,29.77,0,0,1-18-5.92A27,27,0,0,1,110,43.73a31.24,31.24,0,0,1,1.43-17.94A26.42,26.42,0,0,1,125.16,11a29.85,29.85,0,0,1,20.36-2.11c6.61,1.62,11.49,5.62,15.08,11.3.2.31.21.45-.14.64-2.48,1.29-5,2.6-7.42,3.94-.47.25-.57,0-.77-.31A16,16,0,0,0,141,17.07a17.89,17.89,0,0,0-15.1,4.48c-4.8,4.29-6.61,9.88-6.52,16.15a21.29,21.29,0,0,0,4,12.25c4.54,6.44,13.73,9.31,21,6.41a16.52,16.52,0,0,0,7.92-6.53c.25-.38.4-.49.84-.27,2.44,1.27,4.89,2.5,7.35,3.72.41.2.45.34.2.72-4.93,7.48-11.68,11.84-20.77,12.23Z" transform="translate(0.03 0.02)"/><path class="a" d="M310.91,37.19a29.41,29.41,0,0,1,4.79-16.64,26.24,26.24,0,0,1,11-9.47A30,30,0,0,1,347.05,9c6.62,1.61,11.5,5.61,15.12,11.27.23.37.17.51-.19.69-2.46,1.29-4.91,2.58-7.35,3.9-.43.23-.56.08-.78-.25-2.77-4.23-6.62-7-11.65-7.52a18,18,0,0,0-17.11,7.12c-5.2,6.67-5.44,17.42-1,24.6s14,10.71,21.81,7.64A16.36,16.36,0,0,0,353.78,50c.31-.47.52-.56,1-.29q3.59,1.86,7.2,3.63c.46.23.46.38.19.78-4.93,7.47-11.69,11.82-20.78,12.19a29.26,29.26,0,0,1-19.84-6.13A27.3,27.3,0,0,1,311.34,42.6,32.71,32.71,0,0,1,310.91,37.19Z" transform="translate(0.03 0.02)"/><path class="a" d="M376.37,30a19,19,0,0,1,5-4,18.24,18.24,0,0,1,15.47-1.34c3.74,1.38,5.65,4.35,6.39,8.16a21.47,21.47,0,0,1,.34,4v27.7c0,.7-.18.89-.89.88-2.38-.05-4.75-.05-7.13,0-.65,0-.8-.17-.79-.8V39.4a9,9,0,0,0-1.38-5.26c-1.27-1.85-3.21-2.4-5.3-2.57a13,13,0,0,0-11.43,4.93,1.63,1.63,0,0,0-.3,1.19V64.44c0,.74-.13,1-1,1-2.35-.06-4.7,0-7,0-.59,0-.83-.08-.83-.77V9.88c0-.56.1-.78.73-.77h7.3c.66,0,.79.19.79.81V29.54Z" transform="translate(0.03 0.02)"/><path class="a" d="M507.5,30a18,18,0,0,1,5.38-4.23c4.83-2.45,9.85-3.09,15-1.19,4.19,1.55,6.08,4.92,6.71,9.15a21.66,21.66,0,0,1,.19,3.22V64.41c0,.75-.18,1-.93.93-2.32-.06-4.64,0-7,0-.71,0-.89-.19-.89-.89v-24a14.54,14.54,0,0,0-.4-4c-.86-3.09-2.8-4.66-6.3-5-4.76-.45-8.51,1.52-11.58,5a1.45,1.45,0,0,0-.26,1.12V64.23c0,.83-.16,1.11-1.05,1.08-2.35-.07-4.7,0-7.05,0-.57,0-.7-.15-.7-.71V25.2c0-.51.1-.68.64-.67h7.47c.54,0,.68.16.68.67C507.48,26.74,507.5,28.27,507.5,30Z" transform="translate(0.03 0.02)"/><path class="a" d="M464.24,30a18.27,18.27,0,0,1,5.44-4.28A18.74,18.74,0,0,1,482.84,24c4.81,1.11,7.5,4.25,8.4,9a22.09,22.09,0,0,1,.32,4.06V64.35c0,.8-.22,1-1,1q-3.53-.07-7.05,0c-.65,0-.79-.17-.79-.8v-24a18.16,18.16,0,0,0-.2-3.21c-.55-3.2-2.3-5.07-5.49-5.64-5.2-.94-9.27,1.1-12.65,4.91-.29.32-.19.69-.19,1V64.28c0,.93-.28,1.1-1.12,1.08-2.29-.06-4.59,0-6.88,0-.55,0-.79-.09-.79-.73V25.22c0-.55.19-.64.68-.63h7.39c.54,0,.72.12.71.69C464.22,26.77,464.24,28.3,464.24,30Z" transform="translate(0.03 0.02)"/><path class="a" d="M166.78,37.13V10c0-.9.26-1.06,1.08-1,2.32.06,4.64,0,7,0,.56,0,.78.1.78.73V64.63c0,.61-.2.74-.77.73h-7.22c-.7,0-.82-.23-.82-.86Q166.8,50.8,166.78,37.13Z" transform="translate(0.03 0.02)"/><path class="a" d="M586,37.17V10c0-.85.24-1,1-1,2.35.06,4.7,0,7,0,.53,0,.72.11.72.69V64.63c0,.58-.17.71-.72.7H586.8c-.74,0-.87-.24-.87-.91Q586,50.8,586,37.17Z" transform="translate(0.03 0.02)"/><path class="a" d="M40.13.28A87.38,87.38,0,0,0,18.91,10.65a45.31,45.31,0,0,0-16,18.17A38.88,38.88,0,0,0,.57,35.19,5.12,5.12,0,0,1,0,36.55v-.83C0,26.83.21,17.93,0,9.05-.16,4.33,4.08.67,7.5.26A5,5,0,0,1,9.09,0H39.34C39.62,0,40-.18,40.13.28Z" transform="translate(0.03 0.02)"/><path class="a" d="M280.64,30.08l2.27-1.95a17.27,17.27,0,0,1,9.33-4.5,4.72,4.72,0,0,0,1-.07c.32-.07.55.09.55.51v7.72c0,.56-.32.48-.67.44-4.51-.59-8.25,1-11.48,4.07a3,3,0,0,0-1,2.39V64.34c0,.73-.13,1-.95,1-2.35-.06-4.7,0-7.05,0-.57,0-.78-.1-.77-.73V25.29c0-.61.18-.74.75-.73h7.31c.55,0,.72.14.7.71C280.62,26.91,280.64,28.57,280.64,30.08Z" transform="translate(0.03 0.02)"/><path class="a" d="M264.74,25.21c0-.54-.17-.66-.68-.66h-7.47c-.52,0-.67.13-.66.66v5a16.42,16.42,0,0,0-28.17,2.7,26.36,26.36,0,0,0-2.61,11.74,25.57,25.57,0,0,0,3.44,13.8,16.62,16.62,0,0,0,22.88,5.37c.43-.27.84-.55,1.24-.85a24.88,24.88,0,0,0,3.23-3.18v4.92c0,.49.15.62.63.62H264c.57,0,.71-.17.71-.72Q264.71,44.91,264.74,25.21Zm-9.37,28.58c-3.44,4.17-10,6.2-15.16,3.35a10.72,10.72,0,0,1-5.08-6.33c-1.56-4.89-1.47-9.72,1.19-14.25A10.71,10.71,0,0,1,249,31.92a13.14,13.14,0,0,1,6.52,4.35,2,2,0,0,1,.45,1.32V52a2.57,2.57,0,0,1-.59,1.82Z" transform="translate(0.03 0.02)"/><path class="a" d="M448.73,59.56V25.36c0-.59-.1-.83-.77-.81h-7.31c-.61,0-.74.18-.73.76v4.91a16.41,16.41,0,0,0-28,2.49,27.55,27.55,0,0,0-2.63,14.68,24.29,24.29,0,0,0,3.32,11c5.66,9.39,19.45,10.81,26.69,2.16.18-.22.39-.42.69-.74v4.84c0,.53.14.68.67.67h7.47c.53,0,.67-.16.67-.68C448.71,63,448.73,61.26,448.73,59.56Zm-9.31-5.82c-3.41,4.2-10.09,6.28-15.21,3.38a11.41,11.41,0,0,1-5.54-8,16.48,16.48,0,0,1,1.58-12.48,10.71,10.71,0,0,1,12.53-4.82,13,13,0,0,1,6.81,4.5,1.71,1.71,0,0,1,.37,1.17V52.08A2.38,2.38,0,0,1,439.42,53.74Z" transform="translate(0.03 0.02)"/><path class="a" d="M220.06,40.27a20.92,20.92,0,0,0-5.15-10.79c-4.63-4.93-10.45-6.59-17-5.7-7.37,1-12.59,5.09-15.61,11.84a22.84,22.84,0,0,0-.36,18A18.81,18.81,0,0,0,193.73,65a24,24,0,0,0,11.72,1,22.38,22.38,0,0,0,11.86-5.25c.3-.26.51-.43.2-.87-1.17-1.64-2.3-3.29-3.43-5-.24-.35-.39-.36-.7-.07A16.17,16.17,0,0,1,203.65,59c-7.26.66-12.87-3.55-14-10.38-.11-.64,0-.8.66-.8h29.55c.4,0,.77.1.77-.56A40.63,40.63,0,0,0,220.06,40.27Zm-8.63,1.28H190.29c-.76,0-.87-.24-.79-.91a11,11,0,0,1,11.74-9.82c3.83.18,6.95,1.62,9.07,4.92a12.19,12.19,0,0,1,1.76,5.09c.08.56-.07.72-.64.72Z" transform="translate(0.03 0.02)"/><path class="a" d="M580.21,46.87a41.11,41.11,0,0,0-.43-6.17,21.31,21.31,0,0,0-5.24-11.21c-4.62-4.94-10.45-6.59-17-5.71-7.36,1-12.6,5.08-15.62,11.83a22.88,22.88,0,0,0-.37,18A18.76,18.76,0,0,0,553.45,65a24.92,24.92,0,0,0,14.46.39A20.88,20.88,0,0,0,577,60.68c.24-.21.5-.33.22-.73-1.27-1.8-2.51-3.62-3.77-5.44a17,17,0,0,1-10,4.45c-7.2.69-13-3.35-14.19-10.4-.1-.58,0-.78.63-.76h29.42C580.06,47.86,580.23,47.63,580.21,46.87Zm-9.11-5.33H549.81c-.6,0-.75-.12-.68-.74a11.17,11.17,0,0,1,12.22-10c.33,0,.65.08,1,.14a10.79,10.79,0,0,1,9.41,10C571.79,41.48,571.59,41.54,571.1,41.54Z" transform="translate(0.03 0.02)"/></svg>