<?xml version="1.0" encoding="utf-8"?>
<!-- Generator: Adobe Illustrator 23.0.6, SVG Export Plug-In . SVG Version: 6.00 Build 0)  -->
<svg version="1.1" id="Layer_1" xmlns="http://www.w3.org/2000/svg" xmlns:xlink="http://www.w3.org/1999/xlink" x="0px" y="0px"
	 viewBox="0 0 200 65.5" style="enable-background:new 0 0 200 65.5;" xml:space="preserve">
<style type="text/css">
	.st0{fill:#7C7D7D;}
</style>
<title>coca-cola</title>
<path class="st0" d="M167.1,55.8l-0.6,0.5c-0.9,0.8-1.8,1.6-2.9,1.2c-0.3-0.2-0.5-0.5-0.6-0.8c-0.1-2.3,1-4.3,1.9-6.4l0.3-0.5
	c2.8-4.7,6.1-10.3,10.9-14.1c0.7-0.7,1.7-0.9,2.6-0.7c0.3,0.2,0.4,0.6,0.5,0.9c0,0.2-0.1,0.3-0.2,0.5c-1.3,2.2-2.6,4.5-3.9,6.7
	C172.9,47.6,170.2,51.8,167.1,55.8L167.1,55.8z M141,44.7c-2-0.5-3.6-2-4.1-4c-0.5-2.6,1.3-4.6,3-5.7c0.8-0.6,1.8-0.8,2.7-0.5
	c0.7,0.6,1.1,1.5,1,2.4c0,0.6-0.1,1.2-0.2,1.8v0.1C142.9,40.9,142.1,42.9,141,44.7L141,44.7z M128.5,57c-0.3-0.5-0.5-1-0.5-1.6
	c-0.1-3.6,3.8-10,6.5-13.5l0,0c1.2,2.2,3,3.9,5.3,4.8C137.9,51,131.3,60.2,128.5,57z M175.5,57.6c-0.6,0.4-1.6,0.1-1.2-0.9
	c0.8-2.6,4.2-7.8,4.2-7.8l9.4-16.6h-6.4c-0.3,0.5-0.9,1.7-0.9,1.7c-0.4-0.7-1-1.3-1.6-1.9c-1.6-1-3.9-0.5-5.4,0.4
	c-6.9,4-11.9,12-15.9,18.2c0,0-4.2,6.9-6.5,7.4c-1.8,0.2-1.6-2.3-1.5-2.9c0.8-4,2.2-7.9,4-11.5c3.7-2.6,7.3-5.5,10.6-8.6
	c7.4-7.1,13.8-15.3,14.7-17.1c-0.7,0.1-1.4,0.2-2.2,0.2c-5.8,8-17.5,19.7-21.1,21.4c1.6-3.8,11.8-22,20.5-30.7l1.4-1.3
	c2.1-2.1,4.3-4.2,6-4.5c0.2,0,0.4,0,0.6,0.4c0,1.5-0.4,2.9-1.2,4.2l-1,2c0.8-0.1,1.5-0.3,2.3-0.6c1-2,2.2-4.2,1.8-6.8
	c-0.1-0.8-0.7-1.5-1.6-1.6c-2.6-0.5-5.4,1.4-7.7,3h-0.1C164.9,13,155,26.2,146.3,44.3c-0.6,0.5-3,1-3.5,0.8c1.1-2.1,1.9-4.4,2.5-6.7
	c0.1-0.7,0.2-1.5,0.2-2.2c0.1-1.6-0.5-3.1-1.8-4.1c-1.6-0.7-3.5-0.6-5.1,0.2c-6.2,2.6-10.8,8.9-14.1,14.1c-1.8,3.3-3.6,6.9-4.1,10.9
	c-0.3,3.2,0.4,5.2,2.2,6.3c1.8,1,4.2,0,5.1-0.5c6.3-3.3,10.6-9.9,14.1-15.9c1.2,0,2.3-0.2,3.4-0.4h0.1c-0.1,0.3-0.8,2.5-0.8,2.5
	c-2.2,6.4-3.2,10.8-1.1,13.3c2.9,3.6,7.8-0.1,11.8-5.1c-0.9,6,2.2,6.9,4.6,6.4c2.7-0.7,5.7-3.6,7.1-5.1c-0.4,1.7-0.3,4.8,2.1,5.2
	c1.7,0.3,2.9-0.6,4.4-1.4c5.2-2.8,11.5-12.4,13.1-15.1h-2.1C182.2,50.8,179.2,55.4,175.5,57.6L175.5,57.6z M94.8,22.1h6l3.4-5.5h-6
	L94.8,22.1z M190.6,7.5c-4.6,2.6-9.3,4.3-15.1,3.7c-1.6,1.8-3.1,3.6-4.6,5.5c8.1,2,16.6-2.5,21.4-6.8c3.1-2.8,5.7-6.1,7.6-9.9
	C197.3,3,194.1,5.5,190.6,7.5L190.6,7.5z M140.2,6.1c-0.9,10.9-9.5,17.4-11.6,17.9c-1.3,0.3-3.5-0.3-1.5-4.9
	c2.9-6.2,7.7-11.4,13-14.1C140.2,5.4,140.3,5.7,140.2,6.1L140.2,6.1z M123.6,33.7c-0.7-1.4-2.1-2.2-3.6-2.1
	c-5,0.5-9.9,4.6-12.5,10.5c-1.4,3-2.2,6.2-2.6,9.5c2.3-2.6,5.2-4.8,8.3-6.3c0.4-2.6,1.5-5.1,3-7.2c0.9-1.4,2.8-3.7,5-3.1
	c1.9,0.6,1.2,5.8-1.3,10.7c-1.9,3.7-4.4,7-7.4,9.8c-2.5,2.1-6.2,4.7-9.4,2.7c-2-1.2-3.1-3.7-2.9-7c1-9.2,5.2-17.1,11.2-26.1
	c6.2-8.3,13-16.9,22.3-21.4c1.5-0.9,3.4-1.1,5.1-0.6c0,0-8.7,4.8-12.8,13.6c-1,2.2-2.5,5.3-1,7.9c0.7,1.1,2,1.7,3.2,1.4
	c5.1-1.2,8.3-5.9,11-10.2c1.6-3.3,2.9-6.5,2.9-10.1c0-0.4,0-1-0.1-1.5c2.4-1.3,7.4,1,7.4,1c3.9,1.3,12.1,7.6,14.9,8.8
	c1.4-1.6,3.6-4,4.8-5.1l-1.9-1.1c-2.9-1.8-6-3.4-9-5.1c-4.6-2.7-10.3-3.3-15.3-1.4L141,2c-2.1-2.3-5.6-2.1-8.1-1.5
	c-9.2,2.6-17.7,9-26.8,20.2C99.3,29.5,95.1,37,92.9,44.5c-1.7,5-2.2,12.4,2,16.8c3.6,3.7,8.3,2.9,11.6,1.6
	c7.2-3.5,13.7-11.2,16.9-20C124.1,40.2,125,36.5,123.6,33.7L123.6,33.7z M43.7,25.2L42.5,28c-0.2,0.1-0.5,0.1-0.8,0l-0.5-0.1
	c-1.6-0.4-2.8-1.5-3.4-3c-0.5-2.6,1.7-4.7,2.7-5.5s2.4-1,3.3-0.3c0.5,0.7,0.8,1.5,0.7,2.3C44.5,22.7,44.2,24,43.7,25.2L43.7,25.2z
	 M41.1,30.5c0,0.1,0,0.1-0.1,0.2l-2.8,4.5c-1.7,2.2-3.7,5-6.3,6.3c-0.8,0.3-1.8,0.4-2.4-0.3c-1.1-1.4-0.6-3.3-0.1-4.8l0.2-0.5
	c1.5-3.6,3.4-7,5.7-10.1h0.1c0,0,0,0,0,0.1c1.2,2.1,3.3,3.7,5.7,4.3c0,0,0,0,0,0C41.2,30.3,41.1,30.4,41.1,30.5L41.1,30.5z
	 M75.5,27.5c1.8-2.4,3.7-4.8,5.7-7c2.9-2.6,4.1-1.4,4.2-0.6c-2.7,4.9-6,10.5-9,15.6l-1,1.5c-1.2,2.1-2.9,3.8-4.9,5
	c-0.4,0.1-0.8,0.1-1.2-0.1c-0.4-0.3-0.6-0.7-0.5-1.2C68.9,39,70.5,34.2,75.5,27.5L75.5,27.5z M45,16.4c-3.8-2.5-11.4,2.3-17.5,10.4
	c-5.6,7.3-8,15.8-5.4,19.8c3.9,4.6,11.1-2.1,14.2-5.7l0.4-0.4c2-2.3,3.8-4.9,5.3-7.5l1.5-2.5c0.9-0.2,2-0.4,3.2-0.8
	c0,0-4.6,7.8-4.2,11.6c0.1,1.2,0,5.5,4.2,6.8c5.6,0.9,10-3.4,13.9-7.2l1-1c-0.1,0.4-0.2,0.9-0.2,0.9c-1.6,5.7,0.6,6.9,1.9,7.3
	c4.2,1.2,9.1-4.8,9.1-4.8c-0.1,1.9-0.5,3.5,1.5,4.7c1.9,0.7,3.8-0.4,5.3-1.3c5.3-3.7,9.5-9.5,12.9-14.5h-2.1c0,0-5.4,7.8-8.8,9.4
	c0,0-0.6,0.3-1,0.1s-0.3-1.2,0-1.8l13.4-23.3h-6.3c0,0-0.7,1.1-0.7,1.2c-0.1-0.1-0.2-0.2-0.2-0.3c-3.9-5.4-12.8,2.9-19.4,12.6
	c-2.7,4-5.8,7.7-9.3,10.9c0,0-5,4.6-7.2,1.3c-0.6-1.5-0.7-3.2-0.1-4.8C53,30.4,57.3,23.9,62.2,20c1.4-1.1,2.9-1.4,3.6-0.9
	c0.7,0.5,0.9,1.5,0.4,2.2c-1-0.1-2.1,0.3-2.8,1.1c-1.5,1.5-2,3-1.5,4.4c2.3,3.2,6.8-3.1,6.6-7c-0.1-1.4-0.8-2.6-1.9-3.3
	c-1.8-0.9-4-0.9-5.8,0c-2.2,0.8-5.6,3.7-7.6,5.9c-2.5,2.8-6.9,5.9-8.3,5.6C45.2,26.7,48.9,19.2,45,16.4z M76.8,57.1
	C69.4,52.3,59.3,51.5,43,56c-17.4,4.1-23.2,6.7-30.8,1.4c-2.9-2.6-4-6.7-3.2-12.7c1.8-9.7,6.7-19.1,15.4-29.5
	c4.9-5.4,9.4-10.1,15.3-11.9c4.6-1.2,4.1,2.4,3.6,2.9c-0.8,0-1.6,0.2-2.3,0.6c-1.3,1-2.2,2.5-2.4,4.1c-0.1,3.2,3.1,2.5,4.6,0.8
	c1.5-2,3.8-5.7,2-9.2c-0.8-1.3-2.1-2.2-3.6-2.4c-5.4-0.3-10.5,2.3-15.2,5.2c-10.1,7-18.1,16.6-23.1,27.8c-2.7,6.5-5.1,15.9-1.5,23.4
	c2.8,5.3,8.6,8.1,15.6,7.5c5-0.7,9.9-1.7,14.7-3c4-1,24.2-7.9,30.9,4.2c1.6-2.7,4.6-4.4,7.7-4.4c4.6-0.4,11.1,1.3,15.9,4.8
	C85.1,63.1,80.6,59.6,76.8,57.1L76.8,57.1z"/>
</svg>
