<svg id="Layer_1" data-name="Layer 1" xmlns="http://www.w3.org/2000/svg" xmlns:xlink="http://www.w3.org/1999/xlink" viewBox="0 0 1145.33 257.58"><defs><style>.cls-1{fill:#323031;}.cls-10,.cls-12,.cls-13,.cls-14,.cls-2,.cls-4,.cls-5,.cls-7,.cls-8{opacity:0.95;}.cls-2{fill:url(#linear-gradient);}.cls-3{opacity:0.99;fill:url(#linear-gradient-2);}.cls-4{fill:url(#linear-gradient-3);}.cls-5{fill:url(#linear-gradient-4);}.cls-6,.cls-9{opacity:0.9;}.cls-6{fill:url(#linear-gradient-5);}.cls-7{fill:url(#linear-gradient-6);}.cls-8{fill:url(#linear-gradient-7);}.cls-9{fill:url(#linear-gradient-8);}.cls-10{fill:url(#linear-gradient-9);}.cls-11{opacity:0.44;fill:url(#linear-gradient-10);}.cls-12{fill:url(#linear-gradient-11);}.cls-13{fill:url(#linear-gradient-12);}.cls-14{fill:url(#linear-gradient-13);}</style><linearGradient id="linear-gradient" x1="169.21" y1="454.36" x2="113" y2="244.57" gradientUnits="userSpaceOnUse"><stop offset="0" stop-color="#007949"/><stop offset="0.46" stop-color="#00ad6a"/><stop offset="1" stop-color="#00ad6a"/></linearGradient><linearGradient id="linear-gradient-2" x1="170.66" y1="453.97" x2="114.66" y2="244.96" gradientUnits="userSpaceOnUse"><stop offset="0" stop-color="#00ad6a"/><stop offset="0.05" stop-color="#1fb476"/><stop offset="0.11" stop-color="#41bc83"/><stop offset="0.18" stop-color="#5cc18d"/><stop offset="0.25" stop-color="#6fc694"/><stop offset="0.32" stop-color="#7ac899"/><stop offset="0.39" stop-color="#7ec99a"/><stop offset="1" stop-color="#b4d335"/></linearGradient><linearGradient id="linear-gradient-3" x1="155.72" y1="372.06" x2="155.72" y2="258.61" gradientUnits="userSpaceOnUse"><stop offset="0" stop-color="#fff" stop-opacity="0"/><stop offset="0.14" stop-color="#fff" stop-opacity="0.15"/><stop offset="0.33" stop-color="#fff" stop-opacity="0.33"/><stop offset="0.51" stop-color="#fff" stop-opacity="0.47"/><stop offset="0.68" stop-color="#fff" stop-opacity="0.58"/><stop offset="0.83" stop-color="#fff" stop-opacity="0.64"/><stop offset="0.95" stop-color="#fff" stop-opacity="0.66"/></linearGradient><linearGradient id="linear-gradient-4" x1="216.27" y1="430.22" x2="160.06" y2="220.44" gradientUnits="userSpaceOnUse"><stop offset="0" stop-color="#ea2931"/><stop offset="0.46" stop-color="#ea325d"/><stop offset="1" stop-color="#ee3680"/></linearGradient><linearGradient id="linear-gradient-5" x1="217.72" y1="429.83" x2="161.72" y2="220.83" gradientUnits="userSpaceOnUse"><stop offset="0" stop-color="#ea2931"/><stop offset="0.02" stop-color="#ea2b38"/><stop offset="0.15" stop-color="#ec375a"/><stop offset="0.28" stop-color="#ed4075"/><stop offset="0.41" stop-color="#ed4788"/><stop offset="0.54" stop-color="#ee4b93"/><stop offset="0.68" stop-color="#ee4c97"/><stop offset="1" stop-color="#f494bc"/></linearGradient><linearGradient id="linear-gradient-6" x1="202.78" y1="347.93" x2="202.78" y2="234.48" xlink:href="#linear-gradient-3"/><linearGradient id="linear-gradient-7" x1="261.76" y1="463.94" x2="205.55" y2="254.16" gradientUnits="userSpaceOnUse"><stop offset="0" stop-color="#f47944"/><stop offset="0.46" stop-color="#f78e3c"/><stop offset="1" stop-color="#ffd85b"/></linearGradient><linearGradient id="linear-gradient-8" x1="263.22" y1="463.55" x2="207.22" y2="254.55" gradientUnits="userSpaceOnUse"><stop offset="0" stop-color="#f29256"/><stop offset="0.54" stop-color="#ffd85b"/><stop offset="0.55" stop-color="#ffd85b"/><stop offset="1" stop-color="#ffd85b"/></linearGradient><linearGradient id="linear-gradient-9" x1="248.27" y1="381.64" x2="248.27" y2="268.19" xlink:href="#linear-gradient-3"/><linearGradient id="linear-gradient-10" x1="185.55" y1="293.51" x2="192.8" y2="293.51" gradientUnits="userSpaceOnUse"><stop offset="0" stop-color="#13697b"/><stop offset="0.46" stop-color="#3f97a6"/><stop offset="1" stop-color="#5b9985"/></linearGradient><linearGradient id="linear-gradient-11" x1="297.73" y1="432.48" x2="241.52" y2="222.7" xlink:href="#linear-gradient-10"/><linearGradient id="linear-gradient-12" x1="299.19" y1="432.09" x2="243.19" y2="223.09" gradientUnits="userSpaceOnUse"><stop offset="0" stop-color="#2c9db7"/><stop offset="0.46" stop-color="#55c7da"/><stop offset="1" stop-color="#7bcaaf"/></linearGradient><linearGradient id="linear-gradient-13" x1="284.24" y1="350.18" x2="284.24" y2="236.74" xlink:href="#linear-gradient-3"/></defs><path class="cls-1" d="M479.93,311.68c-4.2-4.45-8.65-6.74-15-6.74-12.46,0-18.82,10.05-18.82,21.37s7.63,20.47,19.46,20.47A17.89,17.89,0,0,0,480.19,340l8.13,8.14c-6,6.61-14.11,9.28-22.89,9.28-18.56,0-31.53-12.84-31.53-31.41s12.71-31.79,31.53-31.79c8.78,0,17.17,3.05,23.15,9.54Z" transform="translate(-57.02 -234.48)"/><path class="cls-1" d="M526.86,294.13a31.67,31.67,0,1,1-32.05,31.67A31.67,31.67,0,0,1,526.86,294.13Zm0,52.65c12.2,0,19.83-8.78,19.83-21s-7.63-21-19.83-21S507,313.59,507,325.8,514.65,346.78,526.86,346.78Z" transform="translate(-57.02 -234.48)"/><path class="cls-1" d="M572.89,295.66h11.45v9.28h.25c2.92-6.36,10.55-10.81,19.84-10.81,11.7,0,21.87,7,21.87,23v38.79H614.86V320.33c0-11.32-6.49-15.52-13.74-15.52-9.54,0-16.78,6.11-16.78,20.1v31H572.89Z" transform="translate(-57.02 -234.48)"/><path class="cls-1" d="M636,295.66h13.22l18.06,46.16,17.29-46.16h12.21L673.1,355.94H660.51Z" transform="translate(-57.02 -234.48)"/><path class="cls-1" d="M715.07,330c0,10.56,9.79,17.55,20.34,17.55,7,0,12.08-3.56,16.53-9l8.65,6.62c-6.36,8.26-15.13,12.33-26.7,12.33-19.08,0-31-13.73-31-31.66S716,294.13,734,294.13c21.24,0,29.38,16.28,29.38,31.79V330Zm36.11-9.15c-.25-10-5.85-17.55-17.42-17.55-11.32,0-18.69,9.54-18.69,17.55Z" transform="translate(-57.02 -234.48)"/><path class="cls-1" d="M776.74,295.66h11.45v9.28h.25c2.93-6.36,10.56-10.81,18.06-10.81a16.4,16.4,0,0,1,5.09.77l-.51,12.33a22.25,22.25,0,0,0-5.6-.89c-11.19,0-17.29,6.1-17.29,19.33v30.27H776.74Z" transform="translate(-57.02 -234.48)"/><path class="cls-1" d="M881.53,355.43c0,18.18-13.23,31-32.94,31-11.44,0-21-2.93-29.5-10.81l7.76-9.67c6,6.36,12.71,9.79,21.49,9.79,17,0,21.74-10.68,21.74-20.85V346h-.38c-4.32,7.24-12.59,10.68-20.85,10.68-17.68,0-30.78-13.35-30.65-30.9,0-17.81,11.95-31.67,30.65-31.67,8.14,0,16.53,3.69,21,10.18h.25v-8.65h11.45ZM830.41,325.8C830.41,338,838,346,850.25,346s19.83-8,19.83-20.22-7.63-21-19.83-21S830.41,313.59,830.41,325.8Z" transform="translate(-57.02 -234.48)"/><path class="cls-1" d="M907.09,330c0,10.56,9.79,17.55,20.35,17.55,7,0,12.08-3.56,16.53-9l8.65,6.62c-6.36,8.26-15.14,12.33-26.71,12.33-19.08,0-31-13.73-31-31.66S908,294.13,926,294.13c21.23,0,29.37,16.28,29.37,31.79V330Zm36.12-9.15c-.26-10-5.85-17.55-17.43-17.55-11.32,0-18.69,9.54-18.69,17.55Z" transform="translate(-57.02 -234.48)"/><path class="cls-1" d="M968.77,295.66h11.44v9.28h.26c2.92-6.36,10.55-10.81,19.83-10.81,11.7,0,21.88,7,21.88,23v38.79h-11.45V320.33c0-11.32-6.48-15.52-13.73-15.52-9.54,0-16.79,6.11-16.79,20.1v31H968.77Z" transform="translate(-57.02 -234.48)"/><path class="cls-1" d="M1082.2,311.68c-4.2-4.45-8.65-6.74-15-6.74-12.46,0-18.82,10.05-18.82,21.37s7.63,20.47,19.46,20.47a17.86,17.86,0,0,0,14.62-6.74l8.14,8.14c-6,6.61-14.11,9.28-22.89,9.28-18.56,0-31.53-12.84-31.53-31.41s12.71-31.79,31.53-31.79c8.78,0,17.17,3.05,23.15,9.54Z" transform="translate(-57.02 -234.48)"/><path class="cls-1" d="M1106.62,265.65a8.39,8.39,0,1,1-8.4,8.39A8.47,8.47,0,0,1,1106.62,265.65Zm-5.73,30h11.45v60.28h-11.45Z" transform="translate(-57.02 -234.48)"/><path class="cls-1" d="M1130.4,303c6.35-6,15.51-8.9,23.9-8.9,17.81,0,25.18,9.67,25.18,20.09V345a93.25,93.25,0,0,0,.51,10.94h-10.17c-.26-3.06-.38-6.11-.38-9.16h-.26c-5.09,7.76-12,10.68-21.11,10.68-11.19,0-20.85-6.36-20.85-18.06,0-15.51,14.87-20.85,33.19-20.85h8.39V316c0-6.23-4.58-12.71-14.37-12.71-8.77,0-13,3.69-17.17,6.87Zm32.3,23.91c-10.81,0-24,1.91-24,11.57,0,6.87,5.09,9.8,13,9.8,12.72,0,17.17-9.41,17.17-17.55v-3.82Z" transform="translate(-57.02 -234.48)"/><path class="cls-1" d="M455.05,414.13a14.49,14.49,0,0,1,3.33,3.22V400.78h5.29v45.13h-5v-4.56a11.79,11.79,0,0,1-4.54,4.37,13,13,0,0,1-6,1.35,12.11,12.11,0,0,1-9.45-4.61q-4-4.6-4-12.26a21.22,21.22,0,0,1,3.65-12.41,11.91,11.91,0,0,1,10.41-5.25A11.57,11.57,0,0,1,455.05,414.13Zm-12.3,24.58q2.22,3.56,7.13,3.55a7.49,7.49,0,0,0,6.26-3.29q2.44-3.29,2.45-9.44t-2.53-9.2a7.85,7.85,0,0,0-6.24-3,8.25,8.25,0,0,0-6.72,3.18q-2.57,3.18-2.57,9.37A16.3,16.3,0,0,0,442.75,438.71Z" transform="translate(-57.02 -234.48)"/><path class="cls-1" d="M496.74,400.94h5.6v6.24h-5.6Zm0,12.33h5.6v32.64h-5.6Z" transform="translate(-57.02 -234.48)"/><path class="cls-1" d="M553.72,414.44a14.66,14.66,0,0,1,3.17,3.12v-4.13H562v29.82c0,4.16-.62,7.44-1.84,9.85q-3.4,6.67-12.9,6.68a15.73,15.73,0,0,1-8.88-2.38q-3.6-2.37-4-7.42h5.6a6.26,6.26,0,0,0,1.59,3.4q1.85,1.83,5.84,1.83,6.3,0,8.25-4.46,1.15-2.64,1.07-9.4a10.74,10.74,0,0,1-4,3.73,14.15,14.15,0,0,1-15.41-2.55c-2.65-2.53-4-6.69-4-12.51q0-8.24,4-12.86a12.38,12.38,0,0,1,9.68-4.62A11.84,11.84,0,0,1,553.72,414.44Zm.68,5.91a8,8,0,0,0-6.37-2.94,7.85,7.85,0,0,0-7.92,5.45,21.45,21.45,0,0,0-1.13,7.62q0,5.53,2.24,8.43a7.23,7.23,0,0,0,6,2.9,8.44,8.44,0,0,0,8.31-5.36,17.25,17.25,0,0,0,1.34-7.07C556.89,425.32,556.06,422.3,554.4,420.35Z" transform="translate(-57.02 -234.48)"/><path class="cls-1" d="M595.19,400.94h5.6v6.24h-5.6Zm0,12.33h5.6v32.64h-5.6Z" transform="translate(-57.02 -234.48)"/><path class="cls-1" d="M635.05,404h5.57v9.15h5.24v4.5h-5.24V439a2.32,2.32,0,0,0,1.17,2.3,5,5,0,0,0,2.14.33c.27,0,.55,0,.86,0s.66-.05,1.07-.1v4.38a13.6,13.6,0,0,1-2,.4,19.07,19.07,0,0,1-2.22.12q-3.85,0-5.23-2a8.73,8.73,0,0,1-1.38-5.12V417.62h-4.44v-4.5h4.44Z" transform="translate(-57.02 -234.48)"/><path class="cls-1" d="M693.77,426.07a3,3,0,0,0,2.54-1.59,4.83,4.83,0,0,0,.37-2.12,4.52,4.52,0,0,0-2-4.11A10.72,10.72,0,0,0,689,417q-4.31,0-6.11,2.34a7.79,7.79,0,0,0-1.32,3.84h-5.14q.15-6.07,3.93-8.46a16.15,16.15,0,0,1,8.76-2.38,17.83,17.83,0,0,1,9.39,2.21,7.49,7.49,0,0,1,3.58,6.86v18.89a2.34,2.34,0,0,0,.35,1.37c.23.35.73.52,1.48.52.25,0,.52,0,.83,0s.63-.08,1-.14v4.07a14.41,14.41,0,0,1-2,.46,14.63,14.63,0,0,1-1.84.09,4.52,4.52,0,0,1-4.13-2,7.67,7.67,0,0,1-1-3,13.92,13.92,0,0,1-4.84,3.83,15,15,0,0,1-7,1.62,10.31,10.31,0,0,1-7.45-2.77,9.16,9.16,0,0,1-2.89-6.92,9,9,0,0,1,2.84-7.07,13.52,13.52,0,0,1,7.47-3.08ZM682.17,441a6.45,6.45,0,0,0,4.13,1.38,12.51,12.51,0,0,0,5.63-1.35,7.57,7.57,0,0,0,4.6-7.3v-4.44a9.6,9.6,0,0,1-2.6,1.08,21.19,21.19,0,0,1-3.12.61l-3.33.43a13,13,0,0,0-4.5,1.25,4.88,4.88,0,0,0-2.56,4.59A4.5,4.5,0,0,0,682.17,441Z" transform="translate(-57.02 -234.48)"/><path class="cls-1" d="M736.05,400.94h5.51v45h-5.51Z" transform="translate(-57.02 -234.48)"/><path class="cls-1" d="M820.18,435.62a7.87,7.87,0,0,0,1.4,4.23q2.13,2.65,7.38,2.66a11.06,11.06,0,0,0,5.5-1.33,4.41,4.41,0,0,0,2.37-4.12,3.49,3.49,0,0,0-1.9-3.21,22.57,22.57,0,0,0-4.79-1.56l-4.45-1.11a22,22,0,0,1-6.28-2.32,6.94,6.94,0,0,1-3.61-6.19,9.39,9.39,0,0,1,3.4-7.53q3.39-2.88,9.13-2.88,7.51,0,10.83,4.35a9.35,9.35,0,0,1,2,5.94H836a6.23,6.23,0,0,0-1.34-3.38q-1.95-2.16-6.74-2.16a8.23,8.23,0,0,0-4.84,1.19,3.69,3.69,0,0,0-1.65,3.14,3.87,3.87,0,0,0,2.16,3.42,13.18,13.18,0,0,0,3.68,1.34L831,427q6,1.44,8.11,2.78,3.21,2.12,3.21,6.65a10.06,10.06,0,0,1-3.36,7.56q-3.37,3.18-10.25,3.18-7.41,0-10.49-3.32a12.47,12.47,0,0,1-3.3-8.22Z" transform="translate(-57.02 -234.48)"/><path class="cls-1" d="M873.08,400.94h5.6v6.24h-5.6Zm0,12.33h5.6v32.64h-5.6Z" transform="translate(-57.02 -234.48)"/><path class="cls-1" d="M930.06,414.44a14.66,14.66,0,0,1,3.17,3.12v-4.13h5.09v29.82q0,6.24-1.83,9.85-3.42,6.67-12.91,6.68a15.73,15.73,0,0,1-8.88-2.38q-3.6-2.37-4-7.42h5.6a6.33,6.33,0,0,0,1.59,3.4c1.24,1.22,3.18,1.83,5.84,1.83q6.31,0,8.25-4.46c.78-1.76,1.13-4.89,1.07-9.4a10.79,10.79,0,0,1-4,3.73,14.16,14.16,0,0,1-15.42-2.55c-2.65-2.53-4-6.69-4-12.51q0-8.24,4-12.86a12.38,12.38,0,0,1,9.68-4.62A11.82,11.82,0,0,1,930.06,414.44Zm.68,5.91a8,8,0,0,0-6.37-2.94,7.85,7.85,0,0,0-7.92,5.45,21.47,21.47,0,0,0-1.12,7.62q0,5.53,2.23,8.43a7.23,7.23,0,0,0,6,2.9,8.44,8.44,0,0,0,8.31-5.36,17.25,17.25,0,0,0,1.34-7.07C933.23,425.32,932.4,422.3,930.74,420.35Z" transform="translate(-57.02 -234.48)"/><path class="cls-1" d="M971.53,413.12h5.24v4.65a14.75,14.75,0,0,1,4.93-4.13,13.06,13.06,0,0,1,5.78-1.25q7,0,9.43,4.86a17.29,17.29,0,0,1,1.35,7.63v21h-5.6V425.24a11.17,11.17,0,0,0-.89-4.83q-1.47-3.06-5.33-3.06a11,11,0,0,0-3.21.39,8.27,8.27,0,0,0-4,2.7,8,8,0,0,0-1.79,3.35,22.17,22.17,0,0,0-.42,4.94v17.18h-5.51Z" transform="translate(-57.02 -234.48)"/><path class="cls-1" d="M1048.8,426.07a3,3,0,0,0,2.54-1.59,4.83,4.83,0,0,0,.37-2.12,4.52,4.52,0,0,0-2-4.11A10.68,10.68,0,0,0,1044,417q-4.31,0-6.11,2.34a7.69,7.69,0,0,0-1.31,3.84h-5.15q.16-6.07,3.93-8.46a16.15,16.15,0,0,1,8.76-2.38,17.78,17.78,0,0,1,9.39,2.21,7.47,7.47,0,0,1,3.58,6.86v18.89a2.42,2.42,0,0,0,.35,1.37,1.7,1.7,0,0,0,1.49.52c.24,0,.52,0,.82,0s.63-.08,1-.14v4.07a10.62,10.62,0,0,1-3.79.55,4.54,4.54,0,0,1-4.14-2,7.84,7.84,0,0,1-1-3,14,14,0,0,1-4.83,3.83,15,15,0,0,1-7,1.62,10.34,10.34,0,0,1-7.46-2.77,9.16,9.16,0,0,1-2.89-6.92,8.93,8.93,0,0,1,2.85-7.07,13.49,13.49,0,0,1,7.47-3.08ZM1037.2,441a6.45,6.45,0,0,0,4.13,1.38A12.58,12.58,0,0,0,1047,441a7.57,7.57,0,0,0,4.59-7.3v-4.44a9.46,9.46,0,0,1-2.6,1.08,21.19,21.19,0,0,1-3.12.61l-3.33.43a13,13,0,0,0-4.5,1.25,4.89,4.89,0,0,0-2.55,4.59A4.52,4.52,0,0,0,1037.2,441Z" transform="translate(-57.02 -234.48)"/><path class="cls-1" d="M1109.16,414.44a15.12,15.12,0,0,1,3.17,3.12v-4.13h5.08v29.82q0,6.24-1.83,9.85-3.42,6.67-12.91,6.68a15.73,15.73,0,0,1-8.88-2.38q-3.6-2.37-4-7.42h5.61a6.25,6.25,0,0,0,1.58,3.4q1.86,1.83,5.85,1.83,6.3,0,8.25-4.46,1.15-2.64,1.06-9.4a10.79,10.79,0,0,1-4,3.73,14.16,14.16,0,0,1-15.42-2.55c-2.65-2.53-4-6.69-4-12.51q0-8.24,4-12.86a12.41,12.41,0,0,1,9.69-4.62A11.86,11.86,0,0,1,1109.16,414.44Zm.67,5.91a8,8,0,0,0-6.37-2.94,7.87,7.87,0,0,0-7.92,5.45,21.47,21.47,0,0,0-1.12,7.62c0,3.69.74,6.5,2.24,8.43a7.2,7.2,0,0,0,6,2.9,8.46,8.46,0,0,0,8.32-5.36,17.42,17.42,0,0,0,1.34-7.07C1112.33,425.32,1111.49,422.3,1109.83,420.35Z" transform="translate(-57.02 -234.48)"/><path class="cls-1" d="M1170.88,414a12.55,12.55,0,0,1,5,4.24,14.92,14.92,0,0,1,2.19,5.79,38.39,38.39,0,0,1,.49,7.22h-23.85a14.13,14.13,0,0,0,2.34,8q2.17,3,6.77,3a8.72,8.72,0,0,0,6.83-2.86,9.71,9.71,0,0,0,2-3.85h5.42a11.48,11.48,0,0,1-1.43,4,14.18,14.18,0,0,1-2.7,3.63,12.69,12.69,0,0,1-6.16,3.3,18.48,18.48,0,0,1-4.47.49,13.66,13.66,0,0,1-10.31-4.45q-4.23-4.46-4.23-12.48t4.26-12.83a14,14,0,0,1,11.13-4.92A14.8,14.8,0,0,1,1170.88,414Zm2,12.88a14.34,14.34,0,0,0-1.55-5.73q-2.23-4-7.49-4a8.31,8.31,0,0,0-6.32,2.74,10.4,10.4,0,0,0-2.7,7Z" transform="translate(-57.02 -234.48)"/><path class="cls-1" d="M1185.25,273.9a8.55,8.55,0,1,1,8.54,8.59A8.41,8.41,0,0,1,1185.25,273.9Zm15.58,0a7,7,0,1,0-7,7.12A6.88,6.88,0,0,0,1200.83,273.9Zm-10,4.7a.28.28,0,0,1-.31-.31v-8.86a.29.29,0,0,1,.31-.32h3.59c2,0,3.26,1,3.26,2.82a2.66,2.66,0,0,1-1.89,2.64l1.93,3.72c.09.17,0,.31-.17.31h-1.26a.41.41,0,0,1-.39-.31l-1.8-3.49h-1.7c-.14,0-.18,0-.18.18v3.31a.28.28,0,0,1-.31.31Zm5.16-6.67c0-.85-.51-1.3-1.57-1.3h-2c-.14,0-.18.05-.18.18v2.29a.17.17,0,0,0,.18.18h2C1195.45,273.28,1196,272.78,1196,271.93Z" transform="translate(-57.02 -234.48)"/><path class="cls-2" d="M250.28,325.51l-186-66.9H61.15A4.15,4.15,0,0,0,57,262.76V478.33a4.15,4.15,0,0,0,4.13,4.14h3.13l185.81-64.22c2.07-.57,4.14-1.85,4.14-4.12l.18-84.49C254.41,327.37,252.58,326.21,250.28,325.51Z" transform="translate(-57.02 -234.48)"/><path class="cls-3" d="M254.23,414.13c0,2.27-2.07,3.55-4.14,4.12L64.28,482.47a4.15,4.15,0,0,1-4.14-4.14V262.76a4.14,4.14,0,0,1,4.14-4.15l186,66.9c2.3.7,4.13,1.86,4.13,4.13Z" transform="translate(-57.02 -234.48)"/><path class="cls-4" d="M254.41,329.64c0-2.27-1.83-3.43-4.13-4.13l-186-66.9H61.15A4.15,4.15,0,0,0,57,262.76v109.3l3.11-.23,194.16-5.62Z" transform="translate(-57.02 -234.48)"/><path class="cls-5" d="M297.33,301.38l-186-66.9h-3.12a4.13,4.13,0,0,0-4.13,4.14V454.2a4.14,4.14,0,0,0,4.13,4.13h3.12l185.81-64.22c2.09-.56,4.13-1.86,4.13-4.12l.19-84.48C301.47,303.23,299.64,302.08,297.33,301.38Z" transform="translate(-57.02 -234.48)"/><path class="cls-6" d="M301.28,390c0,2.26-2,3.56-4.13,4.12L111.34,458.33a4.14,4.14,0,0,1-4.14-4.13V238.62a4.14,4.14,0,0,1,4.14-4.14l186,66.9c2.31.7,4.14,1.85,4.14,4.13Z" transform="translate(-57.02 -234.48)"/><path class="cls-7" d="M301.47,305.51c0-2.28-1.83-3.43-4.14-4.13l-186-66.9h-3.12a4.13,4.13,0,0,0-4.13,4.14V347.93l3.1-.22,194.16-5.63Z" transform="translate(-57.02 -234.48)"/><path class="cls-8" d="M342.83,335.1l-186-66.91h-3.12a4.14,4.14,0,0,0-4.13,4.15V487.92a4.14,4.14,0,0,0,4.13,4.13h3.12l185.82-64.22c2.08-.57,4.14-1.85,4.14-4.12l.17-84.48C347,337,345.14,335.8,342.83,335.1Z" transform="translate(-57.02 -234.48)"/><path class="cls-9" d="M346.79,423.71c0,2.27-2.06,3.55-4.14,4.12L156.83,492.05a4.14,4.14,0,0,1-4.13-4.13V272.34a4.14,4.14,0,0,1,4.13-4.15l186,66.91c2.31.7,4.13,1.85,4.13,4.13Z" transform="translate(-57.02 -234.48)"/><path class="cls-10" d="M347,339.23c0-2.28-1.82-3.43-4.13-4.13l-186-66.91h-3.12a4.14,4.14,0,0,0-4.13,4.15v109.3l3.11-.21,194.16-5.63Z" transform="translate(-57.02 -234.48)"/><path class="cls-11" d="M192.8,236.74h-3.11a4.13,4.13,0,0,0-4.14,4.14V350.29l3.11-.22s-.15-105.59,0-109.19S192.8,236.74,192.8,236.74Z" transform="translate(-57.02 -234.48)"/><path class="cls-12" d="M378.8,303.64l-186-66.9h-3.11a4.13,4.13,0,0,0-4.14,4.14V456.44a4.14,4.14,0,0,0,4.14,4.15h3.11l185.82-64.22c2.08-.57,4.13-1.86,4.13-4.12l.18-84.48C382.93,305.48,381.11,304.34,378.8,303.64Z" transform="translate(-57.02 -234.48)"/><path class="cls-13" d="M382.75,392.25c0,2.26-2.05,3.55-4.13,4.12L192.8,460.59a4.14,4.14,0,0,1-4.13-4.15V240.88a4.13,4.13,0,0,1,4.13-4.14l186,66.9c2.31.7,4.13,1.84,4.13,4.13Z" transform="translate(-57.02 -234.48)"/><path class="cls-14" d="M382.93,307.77c0-2.29-1.82-3.43-4.13-4.13l-186-66.9h-3.11a4.13,4.13,0,0,0-4.14,4.14v109.3l3.11-.22,194.16-5.62Z" transform="translate(-57.02 -234.48)"/></svg>