<svg id="Layer_1" data-name="Layer 1" xmlns="http://www.w3.org/2000/svg" viewBox="0 0 168.05 31"><defs><style>.cls-1{fill:#fff;fill-rule:evenodd;}</style></defs><title>cossette_white</title><path class="cls-1" d="M16.44,15.24a4.34,4.34,0,0,0-4.65-4h0c-4.07,0-5.41,4.15-5.41,7.59s1.3,7.36,5.28,7.36c2.94,0,4.64-1.89,5-4.74h6.12C22,27.62,17.74,31,11.66,31,4.69,31,0,26,0,19,0,11.76,4.29,6.37,11.79,6.37c5.45,0,10.46,2.9,10.86,8.87ZM36,26.17c4.33,0,5.62-3.75,5.62-7.45s-1.29-7.5-5.62-7.5-5.59,3.75-5.59,7.5S31.72,26.17,36,26.17Zm0-19.8c7.28,0,12,4.89,12,12.35S43.29,31,36,31,24.08,26.13,24.08,18.72,28.77,6.37,36,6.37ZM54.75,22.79c0,2.8,2.36,3.93,4.87,3.93,1.83,0,4.15-.73,4.15-3,0-1.94-2.63-2.62-7.19-3.61-3.66-.81-7.33-2.12-7.33-6.24,0-6,5.09-7.51,10-7.51S69,8.1,69.49,13.84h-6c-.18-2.49-2.06-3.17-4.33-3.17-1.43,0-3.53.28-3.53,2.17,0,2.31,3.57,2.62,7.19,3.48s7.32,2.22,7.32,6.56C70.11,29,64.84,31,59.57,31S49,29,48.72,22.79Zm22.67,0c0,2.8,2.36,3.93,4.87,3.93,1.83,0,4.15-.73,4.15-3,0-1.94-2.64-2.62-7.19-3.61-3.67-.81-7.33-2.12-7.33-6.24,0-6,5.09-7.51,10-7.51s9.71,1.73,10.2,7.47h-6c-.18-2.49-2.06-3.17-4.34-3.17-1.43,0-3.52.28-3.52,2.17,0,2.31,3.57,2.62,7.19,3.48s7.33,2.22,7.33,6.56C92.79,29,87.51,31,82.24,31s-10.59-2-10.85-8.22Zm33.06-6.6c-.58-3.26-2-5-5-5a5,5,0,0,0-5.28,4.71v.29Zm-10.32,4.06c.18,4.07,2.15,5.92,5.68,5.92,2.54,0,4.6-1.58,5-3h5.59c-1.79,5.49-5.59,7.84-10.82,7.84C98.33,31,93.82,26,93.82,18.72c0-7,4.78-12.35,11.79-12.35,7.87,0,11.66,6.7,11.22,13.88ZM145,11.31h-4.65V22.88c0,2.16.54,2.71,2.68,2.71a11.19,11.19,0,0,0,2-.18v5a24.24,24.24,0,0,1-3.71.23c-3.88,0-7.28-.91-7.28-5.56V11.31h-7.51V22.88c0,2.16.54,2.71,2.68,2.71a11.19,11.19,0,0,0,2-.18v5a25.58,25.58,0,0,1-3.71.23c-3.89,0-7.28-.91-7.28-5.56V11.31h-3.92V7h3.84V0h6.34V7H134V0h6.34V7H145Zm16.64,4.88c-.58-3.26-2-5-5.05-5a5,5,0,0,0-5.26,4.72,2.53,2.53,0,0,0,0,.28Zm-10.34,4.06c.18,4.07,2.15,5.92,5.68,5.92,2.54,0,4.6-1.58,5-3h5.58C165.79,28.66,162,31,156.76,31,149.48,31,145,26,145,18.72c0-7,4.78-12.35,11.79-12.35,7.86,0,11.66,6.7,11.21,13.88Z" transform="translate(0 0)"/></svg>