<svg id="Layer_1" data-name="Layer 1" xmlns="http://www.w3.org/2000/svg" viewBox="0 0 189.23 45.48"><defs><style>.cls-1{fill:#7a7a7a;}</style></defs><title>dentu_aegis</title><rect class="cls-1" x="164.85" y="4.12" width="4.63" height="14.08"/><polygon class="cls-1" points="107.07 18.2 101.96 18.2 109.8 4.12 115.41 4.12 123.36 18.2 117.85 18.2 112.61 7.64 112.55 7.64 107.07 18.2"/><polygon class="cls-1" points="126.78 4.12 140.55 4.12 140.55 7.33 131.42 7.33 131.42 9.69 136.91 9.69 136.91 12.35 131.42 12.35 131.42 15 140.55 15 140.55 18.2 126.78 18.2 126.78 4.12"/><path class="cls-1" d="M461.49,294v6.28a23.55,23.55,0,0,1-6.93,1c-4.2,0-9.07-1.9-9.07-7.23,0-4.71,4.19-7.34,10-7.34a21,21,0,0,1,5.62.79v3.1a14.37,14.37,0,0,0-5.45-1.11c-3.42,0-5.8,1.86-5.8,4.56s1.93,4.3,5,4.3a14.73,14.73,0,0,0,2.77-.24V294Z" transform="translate(-301.72 -282.83)"/><path class="cls-1" d="M489.78,287.67a25,25,0,0,0-6.41-.95c-3.25,0-7.77,1.06-7.77,4.66,0,5.46,10.69,3.21,10.69,5.55,0,1.72-2.67,1.69-3.38,1.69s-5-.17-7.23-1.78V300a19.22,19.22,0,0,0,7.74,1.27c3.25,0,7.53-1.12,7.53-4.72,0-5.38-10.62-2.76-10.62-5.51,0-1.73,2.76-1.67,3.47-1.67a16.76,16.76,0,0,1,6,1.17Z" transform="translate(-301.72 -282.83)"/><path class="cls-1" d="M311.25,282.83v3.26h-2.09c-6.16,0-7.44,4.61-7.44,7.93a8.49,8.49,0,0,0,2.07,5.94,6,6,0,0,0,4.44,1.83,6.36,6.36,0,0,0,3-.66l0,.34h4.07V282.83Zm-5.65,11.08c0-1.57.45-4.24,3.4-4.45.4,0,1.47-.1,2.25-.13v8.16a4.45,4.45,0,0,1-2.31.66,3.18,3.18,0,0,1-2.26-.77,4.69,4.69,0,0,1-1.08-3.47" transform="translate(-301.72 -282.83)"/><path class="cls-1" d="M326,298.18a3.53,3.53,0,0,1-3.74-3.28h9.87v-.16c0-1.39,0-2.56-.05-3.07a6.12,6.12,0,0,0-6.67-6,7,7,0,0,0-5.62,2.51,9.25,9.25,0,0,0-1.82,5.77c0,3.78,2.13,7.81,8.11,7.81a14.09,14.09,0,0,0,5.8-1.34v-3.77a11.78,11.78,0,0,1-5.88,1.51m-.59-9a2.58,2.58,0,0,1,2.67,2.41h-5.74a3,3,0,0,1,3.07-2.41" transform="translate(-301.72 -282.83)"/><path class="cls-1" d="M344.43,292.37v9.1h4.09v-9.71c0-4.06-1.88-6-5.74-6a10.56,10.56,0,0,0-3.34.7l0-.34h-4.07v15.38h4.09V290a4.8,4.8,0,0,1,3.35-.53c1.11.26,1.64.95,1.64,2.95" transform="translate(-301.72 -282.83)"/><path class="cls-1" d="M383.1,295.19v-9.1H379v9.71c0,4.06,1.88,6,5.73,6a10.56,10.56,0,0,0,3.35-.7l0,.34h4.07V286.09H388.1v11.52a4.77,4.77,0,0,1-3.36.52c-1.1-.25-1.64-.95-1.64-2.94" transform="translate(-301.72 -282.83)"/><path class="cls-1" d="M352,282.83v13.34a6.59,6.59,0,0,0,1,4,4.66,4.66,0,0,0,4,1.59,13.46,13.46,0,0,0,3.83-.6v-3.68a16.92,16.92,0,0,1-3.09.48,1.78,1.78,0,0,1-1.27-.38,2.37,2.37,0,0,1-.37-1.65v-6.5c1.61,0,3.61.12,4.73.24v-3.62h-4.73v-3.26Z" transform="translate(-301.72 -282.83)"/><path class="cls-1" d="M375.54,294c-.81-1.14-2.07-1.72-4.39-2.15a10.55,10.55,0,0,1-2.74-.74.77.77,0,0,1-.48-.69.79.79,0,0,1,.45-.66,5.31,5.31,0,0,1,3.32-.19,21.94,21.94,0,0,1,3.88,1.13V287a11.21,11.21,0,0,0-5.47-1.27,7.48,7.48,0,0,0-4.4,1.32,4.67,4.67,0,0,0-1.91,3.68c-.12,2.55,1.48,4.08,5.17,4.8a18.26,18.26,0,0,1,2.36.57c.48.2.76.51.76.87a.93.93,0,0,1-.62.82,5.89,5.89,0,0,1-2.54.18,17.81,17.81,0,0,1-4.86-1.29v3.81a11.92,11.92,0,0,0,5.56,1.33c2.67-.05,6-.85,6.6-4.38a4.42,4.42,0,0,0-.69-3.42" transform="translate(-301.72 -282.83)"/><path class="cls-1" d="M359.93,314.72a5.44,5.44,0,0,0-3.86,1.59v-.37a.83.83,0,0,0-1.65,0V327.1a.83.83,0,0,0,1.65,0v-6.86a3.86,3.86,0,0,1,7.72,0v6.86a.83.83,0,0,0,1.65,0v-6.86a5.59,5.59,0,0,0-5.51-5.52" transform="translate(-301.72 -282.83)"/><path class="cls-1" d="M374.14,314.72c-4.15,0-6.05,3.52-6.05,6.78s1.9,6.81,6.05,6.81a5.7,5.7,0,0,0,4.43-1.94l.25-.33a.74.74,0,0,0,.18-.49.86.86,0,0,0-.84-.84.77.77,0,0,0-.69.4,4.15,4.15,0,0,1-3.33,1.55c-2.34,0-4.07-1.73-4.34-4.32h9.58a.87.87,0,0,0,.82-.84c0-3.26-1.9-6.78-6.06-6.78m-4.33,6c.23-2.12,1.48-4.31,4.33-4.31,2.36,0,4.1,1.72,4.37,4.31Z" transform="translate(-301.72 -282.83)"/><path class="cls-1" d="M387.32,326.27h-.72c-1.07,0-1.3-.22-1.3-1.26v-8.25h2a.81.81,0,0,0,.8-.82.79.79,0,0,0-.8-.8h-2v-3.46a.77.77,0,0,0-.79-.79.8.8,0,0,0-.83.79v3.46h-1.05a.79.79,0,0,0-.8.8.81.81,0,0,0,.8.82h1.05V325a2.58,2.58,0,0,0,2.92,2.89h.72a.79.79,0,0,0,.8-.8.81.81,0,0,0-.8-.83" transform="translate(-301.72 -282.83)"/><path class="cls-1" d="M406,315.14a.83.83,0,0,0-.8.63l-3,8.93-3-8.91c-.2-.57-.51-.64-.83-.64a.76.76,0,0,0-.8.64l-2.94,8.91-3.08-9a.82.82,0,0,0-.78-.56.79.79,0,0,0-.78.83,1.07,1.07,0,0,0,.06.31l3.81,11a.77.77,0,0,0,.78.6.78.78,0,0,0,.8-.62l3-8.94,2.95,9a.77.77,0,0,0,.78.57.85.85,0,0,0,.83-.6l3.82-11.1a.59.59,0,0,0,0-.23.81.81,0,0,0-.81-.84" transform="translate(-301.72 -282.83)"/><path class="cls-1" d="M414.52,314.72c-4.16,0-6,3.52-6,6.78s1.89,6.81,6,6.81,6.06-3.53,6.06-6.81-1.9-6.78-6.06-6.78m0,11.94c-2.59,0-4.4-2.12-4.4-5.16s1.77-5.12,4.4-5.12,4.4,2.06,4.4,5.12-1.76,5.16-4.4,5.16" transform="translate(-301.72 -282.83)"/><path class="cls-1" d="M429.21,314.94a5.43,5.43,0,0,0-3.86,1.58v-.58a.83.83,0,0,0-1.65,0V327.1a.83.83,0,0,0,1.65,0v-6.65a3.86,3.86,0,0,1,3.86-3.86.83.83,0,1,0,0-1.65" transform="translate(-301.72 -282.83)"/><path class="cls-1" d="M437.61,320.49l3.95-3.95a.83.83,0,0,0,.26-.6.85.85,0,0,0-.84-.82.83.83,0,0,0-.6.26l-6.22,6.22v-9.91a.82.82,0,0,0-.82-.82.81.81,0,0,0-.83.82V327.1a.81.81,0,0,0,.83.81.82.82,0,0,0,.82-.81v-3.16l2.24-2.26,3.74,5.83a.84.84,0,0,0,.7.38.88.88,0,0,0,.86-.79.77.77,0,0,0-.17-.46Z" transform="translate(-301.72 -282.83)"/></svg>