<svg width="40" height="31" viewBox="0 0 40 31" fill="none" xmlns="http://www.w3.org/2000/svg">
<path d="M19.9799 25.452C24.5555 25.452 28.2743 21.7334 28.2743 17.1576C28.2743 12.5821 24.5556 8.86328 19.9799 8.86328C15.4042 8.86328 11.6855 12.5819 11.6855 17.1576C11.6855 21.7348 15.4042 25.452 19.9799 25.452ZM14.7915 22.2664C14.833 22.2664 14.833 22.2249 14.8729 22.2249C15.4442 21.9393 16.0986 21.6935 16.753 21.4892C17.0801 22.4292 17.5286 23.3278 18.1016 24.1034C18.1431 24.1449 18.1431 24.1848 18.183 24.2263C16.8344 23.8592 15.69 23.1649 14.7915 22.2664L14.7915 22.2664ZM22.9629 17.6892C22.9214 18.5878 22.8001 19.4863 22.5543 20.3034C21.7372 20.1406 20.8785 20.0576 19.98 20.0576C19.0815 20.0576 18.2228 20.139 17.4057 20.3034C17.1599 19.4863 17.0386 18.5878 16.9971 17.6892H22.9629ZM16.9969 16.6678C17.0384 15.7693 17.1597 14.8708 17.4055 14.0536C18.2227 14.2164 19.0813 14.2994 19.9798 14.2994C20.8784 14.2994 21.737 14.218 22.5541 14.0536C22.7999 14.8708 22.9212 15.7693 22.9627 16.6678H16.9969ZM20.3469 24.4306H19.9798H19.6127C19.5712 24.3891 19.5712 24.3891 19.5313 24.3492C18.7956 23.4906 18.1827 22.4293 17.7343 21.285C18.47 21.1621 19.2058 21.0807 20.0229 21.0807C20.8401 21.0807 21.5758 21.1621 22.3116 21.285C21.8615 22.4692 21.2486 23.4906 20.5145 24.3492C20.4299 24.3907 20.3884 24.3907 20.3469 24.4306H20.3469ZM21.8184 24.2263C21.8599 24.1849 21.8599 24.1449 21.8998 24.1035C22.4313 23.3278 22.8797 22.4692 23.2484 21.4893C23.9028 21.6936 24.5156 21.8978 25.1285 22.1835C25.17 22.1835 25.17 22.225 25.2099 22.225C24.2698 23.165 23.1255 23.8593 21.8184 24.2263L21.8184 24.2263ZM25.8227 21.4893C25.7812 21.4893 25.7812 21.4478 25.7413 21.4478C25.0471 21.0807 24.3113 20.7934 23.4942 20.5492C23.74 19.6507 23.9027 18.6692 23.9443 17.6893H27.2128C27.1298 19.0793 26.6399 20.3865 25.8227 21.4893L25.8227 21.4893ZM25.8227 12.8693C26.5983 13.9322 27.1298 15.2393 27.2112 16.6693H23.9426C23.9011 15.6894 23.7383 14.7078 23.4925 13.8093C24.2682 13.5635 25.0454 13.2778 25.7397 12.9108C25.7812 12.9092 25.8227 12.8693 25.8227 12.8693L25.8227 12.8693ZM25.1683 12.092C25.1268 12.092 25.1268 12.1335 25.0869 12.1335C24.5156 12.4192 23.8612 12.665 23.2069 12.8278C22.8797 11.8877 22.4312 10.9892 21.8583 10.2136C21.8168 10.1721 21.8168 10.1322 21.7769 10.0907C23.1255 10.4578 24.2698 11.152 25.1683 12.092L25.1683 12.092ZM19.6126 9.9263H19.9797H20.3468L20.4282 10.0077C21.1639 10.8663 21.7768 11.9276 22.2252 13.072C21.4895 13.1949 20.7537 13.2762 19.9366 13.2762C19.1194 13.2762 18.3837 13.1949 17.6479 13.072C18.098 11.8878 18.7109 10.8663 19.445 10.0077C19.5296 9.96779 19.5711 9.9263 19.6126 9.9263H19.6126ZM18.1411 10.1306C18.0996 10.1721 18.0996 10.212 18.0597 10.2535C17.5282 11.0291 17.0798 11.8877 16.7111 12.8677C16.0567 12.6634 15.4439 12.4591 14.831 12.1734C14.7895 12.1734 14.7895 12.1319 14.7496 12.1319C15.6897 11.152 16.834 10.4577 18.1411 10.1306L18.1411 10.1306ZM14.1368 12.8693C14.1783 12.8693 14.1783 12.9108 14.2182 12.9108C14.9124 13.2778 15.6482 13.5651 16.4653 13.8093C16.2195 14.7078 16.0568 15.6894 16.0152 16.6693H12.7467C12.8297 15.2377 13.3196 13.9306 14.1368 12.8692L14.1368 12.8693ZM15.9754 17.6892C16.0169 18.6691 16.1796 19.6506 16.4254 20.5491C15.6498 20.7949 14.8726 21.0806 14.1783 21.4477C14.1368 21.4477 14.1368 21.4892 14.0969 21.4892C13.3213 20.4262 12.7898 19.1191 12.7084 17.6891L15.9754 17.6892Z" fill="#035FD2"/>
<path d="M37.8343 0H2.16574C0.981547 0 0 0.979912 0 2.16574V27.9473C0 29.1315 0.979913 30.113 2.16574 30.113H37.8343C39.0185 30.113 40 29.1331 40 27.9473V2.16574C40 0.979953 39.0201 0 37.8343 0ZM38.8557 27.987C38.8557 28.5583 38.4056 29.0084 37.8343 29.0084H2.16574C1.5944 29.0084 1.14432 28.5583 1.14432 27.987V5.63866H38.8953L38.8969 27.987H38.8557ZM38.8557 4.49426H1.10469V2.16574C1.10469 1.5944 1.55477 1.14432 2.12611 1.14432H37.7946C38.366 1.14432 38.816 1.5944 38.816 2.16574V4.49426H38.8557Z" fill="#035FD2"/>
<path d="M27.172 2.24731H12.7491C12.4219 2.24731 12.1777 2.49309 12.1777 2.81866C12.1777 3.14583 12.4235 3.39 12.7491 3.39H27.172C27.4992 3.39 27.7433 3.14422 27.7433 2.81866C27.7433 2.49148 27.4975 2.24731 27.172 2.24731Z" fill="#035FD2"/>
<path d="M3.31034 2.81825C3.31034 3.58113 2.16602 3.58113 2.16602 2.81825C2.16602 2.05537 3.31034 2.05537 3.31034 2.81825Z" fill="#035FD2"/>
<path d="M5.1912 2.81825C5.1912 3.58113 4.04688 3.58113 4.04688 2.81825C4.04688 2.05537 5.1912 2.05537 5.1912 2.81825Z" fill="#035FD2"/>
<path d="M7.10916 2.81825C7.10916 3.58113 5.96484 3.58113 5.96484 2.81825C5.96484 2.05537 7.10916 2.05537 7.10916 2.81825Z" fill="#035FD2"/>
</svg>
