<svg xmlns="http://www.w3.org/2000/svg" viewBox="0 0 360.18 144.14"><defs><style>.a{fill:#3366fe;}</style></defs><title>dpaa</title><path class="a" d="M491.45,287.74q0,25.38,0,50.75c0,1.1-.29,1.39-1.37,1.36-2.6-.08-5.2-.1-7.8,0-1.21,0-1.41-.36-1.4-1.47,0-12.87,0-25.75,0-38.63,0-1.16-.22-1.53-1.48-1.52-13,0-25.91,0-38.87,0l-1.2,0c-.25-.26-.15-.6-.15-.91v-8.83a1.33,1.33,0,0,1,.11-.81Z" transform="translate(-131.3 -287.74)"/><path class="a" d="M183.54,421.39c0,3.45,0,6.89,0,10.34a2,2,0,0,1-1.17.12H132.68c-1.34,0-1.34,0-1.34-1.37q0-24.76,0-49.55c0-.42-.18-.89.16-1.27h10.21c.34.38.16.84.16,1.26q0,19.49,0,39a2.37,2.37,0,0,0,.12,1.29h0a2.47,2.47,0,0,0,1.29.12h38.92A3.4,3.4,0,0,1,183.54,421.39Z" transform="translate(-131.3 -287.74)"/><path class="a" d="M235.12,362.58v-5.44c-.25-.47,0-1-.17-1.47-.18-1-.36-2-.53-3a34.19,34.19,0,0,0-8.29-17.33c-5-5.71-11.35-9.46-18.42-12.06a75.12,75.12,0,0,0-16.26-3.63c-.48-.2-1,.07-1.48-.19l-1.65-.07c-.81-.18-1.64.09-2.45-.16-7.31,0-14.63,0-22,0-1.1,0-1.29.32-1.29,1.33q0,39.35,0,78.7c0,1,.25,1.32,1.31,1.31,7,0,14,0,21,0a28.37,28.37,0,0,1,2.91-.16l1.87-.09c.4-.21.84,0,1.25-.15l1.2-.08c.37-.26.82,0,1.21-.19,8.23-1.1,16.12-3.29,23.29-7.64a39.46,39.46,0,0,0,11-9.63A36.78,36.78,0,0,0,235,364.05C235.12,363.57,234.87,363.05,235.12,362.58Zm-21.23-.73a19.25,19.25,0,0,1-5.41,12.72c-3.4,3.44-7.66,5.24-12.3,6.3a51.83,51.83,0,0,1-11.79,1c-1,0-.86-.54-.86-1.14q0-10.49,0-21c0-6.92,0-13.84,0-20.75,0-.91.18-1.23,1.16-1.22,5.54,0,11,.43,16.24,2.49C210.73,344.14,214.58,352.21,213.89,361.85Z" transform="translate(-131.3 -287.74)"/><path class="a" d="M319.13,344.15c-.28-.45,0-1-.18-1.44-.18-.81-.35-1.62-.52-2.43a25.88,25.88,0,0,0-13.52-18.12,30.28,30.28,0,0,0-9.3-3c-.39-.19-.85.06-1.22-.19l-1.67-.06a1.89,1.89,0,0,0-.71-.07H248.07c-.32,0-.65-.09-.93.12v81.1c.24.19.53.12.81.12H267.2c.28,0,.57.07.81-.12q0-12.41,0-24.82c0-.71,0-1.16,1-1.15,7.59.05,15.19,0,22.78.05.79-.28,1.62,0,2.41-.18,1.18-.19,2.37-.3,3.53-.57A26.89,26.89,0,0,0,312.9,364,28.68,28.68,0,0,0,319,349.65c.15-.41-.05-.86.16-1.25C319.12,347,319.12,345.57,319.13,344.15Zm-23.29,9.31a8.92,8.92,0,0,1-7.34,3.67c-6.48,0-13,0-19.43,0-.83,0-1.08-.2-1.07-1q0-9.72,0-19.44c0-.88.31-1,1.11-1,3.35,0,6.71,0,10.07,0v.06c3.24,0,6.48-.1,9.72,0a9,9,0,0,1,9,7.63A11.77,11.77,0,0,1,295.84,353.46Z" transform="translate(-131.3 -287.74)"/><path class="a" d="M395,399.33q-5-13.57-10-27.15-9.65-26.06-19.29-52.12a1.11,1.11,0,0,0-1.27-.89c-5.23,0-10.48.09-15.71,0-2.12-.05-3.57.09-4.23,2.61-.82,3.12-2.2,6.09-3.32,9.13q-1.82,4.89-3.61,9.79T334,350.55c-.93,2.52-1.88,5.05-2.82,7.57q-1.68,4.56-3.37,9.11c-.93,2.5-1.84,5-2.78,7.49-1.22,3.29-2.47,6.56-3.7,9.85s-2.43,6.6-3.65,9.89c-.62,1.68-1.24,3.37-1.88,5-.28.73-.19,1,.72,1,6.28,0,12.56,0,18.84,0,.58,0,.91-.11,1.12-.76.48-1.55,1.08-3.06,1.65-4.57q1.8-4.77,3.62-9.53c.3-.56.84-.34,1.29-.35H368.2a1.73,1.73,0,0,1,1.05.12c.18.39.39.77.54,1.17,1.55,4.35,3.12,8.69,4.62,13.05a1.07,1.07,0,0,0,1.23.88c6.32,0,12.64,0,19,0,.25,0,.55.12.78-.17C395.27,400,395.17,399.66,395,399.33ZM363.18,369.4c-5.15,0-10.31,0-15.47,0-.28,0-.55,0-.95-.05q4.35-14.52,8.68-28.92h.26c.71,2.4,1.41,4.8,2.13,7.2q3.06,10.33,6.15,20.66C364.23,369.1,364.24,369.41,363.18,369.4Z" transform="translate(-131.3 -287.74)"/><path class="a" d="M480.66,399.59c-2.71-7.25-5.37-14.52-8.06-21.78q-6.84-18.51-13.68-37-3.82-10.33-7.6-20.69c-.2-.54-.41-.95-1.16-.95-6.12,0-12.24,0-18.35,0a.92.92,0,0,0-1,.62c-.91,2.91-2.09,5.72-3.15,8.58-1.39,3.78-2.73,7.58-4.13,11.36-1.77,4.76-3.6,9.49-5.36,14.25-1.67,4.51-3.27,9-4.94,13.54-2,5.34-4,10.67-6,16-1,2.7-2.09,5.38-3.09,8.09-1.07,2.92-2.08,5.87-3.16,8.89H402c6.16,0,12.32,0,18.48,0a1.43,1.43,0,0,0,1.6-1.15c1.69-4.67,3.46-9.32,5.2-14a1.44,1.44,0,0,1,.82-.1h25.65a1.5,1.5,0,0,1,.93.12c.67,1.78,1.36,3.56,2,5.34,1.09,3,2.2,5.94,3.23,8.93a1.06,1.06,0,0,0,1.21.83q9.4,0,18.83,0C480.79,400.52,481,400.4,480.66,399.59Zm-31.81-30.21h-15.7c-.53,0-.95,0-.71-.75q4.24-14,8.46-28.05c0-.05.12-.09.29-.22,2.8,9.45,5.56,18.82,8.36,28.17C449.79,369.34,449.5,369.39,448.85,369.38Z" transform="translate(-131.3 -287.74)"/></svg>