<svg xmlns="http://www.w3.org/2000/svg" viewBox="0 0 360.16 144.21"><defs><style>.a{fill:#fff;}</style></defs><title>dpaa_white</title><path class="a" d="M360.15,0V50.75c0,1.1-.29,1.39-1.37,1.36-2.6-.08-5.2-.1-7.8,0-1.21,0-1.41-.36-1.4-1.47V12c0-1.16-.22-1.53-1.48-1.52H308c-.25-.26-.15-.6-.15-.91V.75A1.33,1.33,0,0,1,308-.06Z" transform="translate(0.01 0.06)"/><path class="a" d="M52.24,133.65V144a2,2,0,0,1-1.17.12H1.38c-1.34,0-1.34,0-1.34-1.37V93.19c0-.42-.18-.89.16-1.27H10.41c.34.38.16.84.16,1.26v39a2.37,2.37,0,0,0,.12,1.29h0a2.47,2.47,0,0,0,1.29.12H50.9A3.36,3.36,0,0,1,52.24,133.65Z" transform="translate(0.01 0.06)"/><path class="a" d="M103.82,74.84V69.4c-.25-.47,0-1-.17-1.47-.18-1-.36-2-.53-3A34.23,34.23,0,0,0,94.83,47.6c-5-5.71-11.35-9.46-18.42-12.06a74.86,74.86,0,0,0-16.26-3.63c-.48-.2-1,.07-1.48-.19L57,31.65c-.81-.18-1.64.09-2.45-.16h-22c-1.1,0-1.29.32-1.29,1.33v78.7c0,1,.25,1.32,1.31,1.31h21a28.37,28.37,0,0,1,2.91-.16l1.87-.09c.4-.21.84,0,1.25-.15l1.2-.08c.37-.26.82,0,1.21-.19,8.23-1.1,16.12-3.29,23.29-7.64a39.46,39.46,0,0,0,11-9.63,36.76,36.76,0,0,0,7.38-18.58C103.82,75.83,103.57,75.31,103.82,74.84Zm-21.23-.73a19.25,19.25,0,0,1-5.41,12.72c-3.4,3.44-7.66,5.24-12.3,6.3a51.82,51.82,0,0,1-11.79,1c-1,0-.86-.54-.86-1.14V51.24c0-.91.18-1.23,1.16-1.22,5.54,0,11,.43,16.24,2.49,9.8,3.89,13.65,12,13,21.6Z" transform="translate(0.01 0.06)"/><path class="a" d="M187.83,56.41c-.28-.45,0-1-.18-1.44-.18-.81-.35-1.62-.52-2.43a25.88,25.88,0,0,0-13.52-18.12,30.24,30.24,0,0,0-9.3-3c-.39-.19-.85.06-1.22-.19l-1.67-.06a1.89,1.89,0,0,0-.71-.07H116.77c-.32,0-.65-.09-.93.12v81.1c.24.19.53.12.81.12H135.9c.28,0,.57.07.81-.12V87.5c0-.71,0-1.16,1-1.15,7.59.05,15.19,0,22.78.05.79-.28,1.62,0,2.41-.18,1.18-.19,2.37-.3,3.53-.57a26.84,26.84,0,0,0,15.17-9.39,28.71,28.71,0,0,0,6.1-14.35c.15-.41,0-.86.16-1.25C187.82,59.26,187.82,57.83,187.83,56.41Zm-23.29,9.31a8.94,8.94,0,0,1-7.34,3.67H137.77c-.83,0-1.08-.2-1.07-1V49c0-.88.31-1,1.11-1h10.07V48c3.24,0,6.48-.1,9.72,0a9,9,0,0,1,9,7.63A11.75,11.75,0,0,1,164.54,65.72Z" transform="translate(0.01 0.06)"/><path class="a" d="M263.7,111.59l-10-27.15L234.41,32.32a1.11,1.11,0,0,0-1.27-.89c-5.23,0-10.48.09-15.71,0-2.12-.05-3.57.09-4.23,2.61-.82,3.12-2.2,6.09-3.32,9.13q-1.81,4.89-3.61,9.79t-3.57,9.85c-.93,2.52-1.88,5-2.82,7.57q-1.68,4.56-3.37,9.11c-.93,2.5-1.84,5-2.78,7.49-1.22,3.29-2.47,6.56-3.7,9.85s-2.43,6.6-3.65,9.89c-.62,1.68-1.24,3.37-1.88,5-.28.73-.19,1,.72,1h18.84c.58,0,.91-.11,1.12-.76.48-1.55,1.08-3.06,1.65-4.57q1.8-4.77,3.62-9.53c.3-.56.84-.34,1.29-.35H236.9a1.73,1.73,0,0,1,1,.12c.18.39.39.77.54,1.17,1.55,4.35,3.12,8.69,4.62,13a1.07,1.07,0,0,0,1.23.88h19c.25,0,.55.12.78-.17C264,112.26,263.87,111.92,263.7,111.59ZM231.88,81.66H216.41a6.86,6.86,0,0,1-.95,0q4.35-14.52,8.68-28.92h.26c.71,2.4,1.41,4.8,2.13,7.2q3.06,10.33,6.15,20.66C232.93,81.36,232.94,81.67,231.88,81.66Z" transform="translate(0.01 0.06)"/><path class="a" d="M349.36,111.85c-2.71-7.25-5.37-14.52-8.06-21.78l-13.68-37q-3.83-10.33-7.6-20.69c-.2-.54-.41-1-1.16-1H300.51a.92.92,0,0,0-1,.62c-.91,2.91-2.09,5.72-3.15,8.58-1.39,3.78-2.73,7.58-4.13,11.36-1.77,4.76-3.6,9.49-5.36,14.25-1.67,4.51-3.27,9-4.94,13.54l-6,16c-1,2.7-2.09,5.38-3.09,8.09-1.07,2.92-2.08,5.87-3.16,8.89h19.5a1.43,1.43,0,0,0,1.6-1.15c1.69-4.67,3.46-9.32,5.2-14a1.44,1.44,0,0,1,.82-.1h25.65a1.5,1.5,0,0,1,.93.12c.67,1.78,1.36,3.56,2,5.34,1.09,3,2.2,5.94,3.23,8.93a1.06,1.06,0,0,0,1.21.83h18.83C349.49,112.78,349.7,112.66,349.36,111.85ZM317.55,81.64h-15.7c-.53,0-1,0-.71-.75q4.25-14,8.46-28c0-.05.12-.09.29-.22,2.8,9.45,5.56,18.82,8.36,28.17C318.49,81.6,318.2,81.65,317.55,81.64Z" transform="translate(0.01 0.06)"/></svg>