<svg xmlns="http://www.w3.org/2000/svg" viewBox="0 0 166.71 102.59"><defs><style>.a{fill:#24418d;}.b{fill:#214583;}.c{fill:#25a0e3;}.d{fill:#f4e000;}</style></defs><title>ecn_media</title><polygon class="a" points="75.24 41.26 75.24 32.54 32.98 32.54 32.98 37.81 32.98 41.26 32.98 56.46 32.98 65.18 32.98 81.18 32.98 87.62 32.98 89.9 75.24 89.9 75.24 81.18 41.7 81.18 41.7 65.18 71.22 65.18 71.22 56.46 41.7 56.46 41.7 41.26 75.24 41.26"/><polygon class="b" points="132.84 32.54 132.81 32.54 132.84 32.59 132.84 32.54"/><polygon class="a" points="157.99 32.54 157.99 70.71 132.84 32.59 132.81 32.54 124.12 32.54 124.12 36.4 124.12 89.9 132.84 89.9 132.84 49.62 157.99 87.73 159.42 89.9 164.51 89.9 166.71 89.9 166.71 88.45 166.71 83.93 166.71 32.54 157.99 32.54"/><path class="a" d="M152,219.51a24.64,24.64,0,0,1-6.31-.86,22.81,22.81,0,0,1-15.55-13.84c-4.05-9.83-4.13-19.85.27-29.58,7.13-15.77,27.7-19.51,40.45-7.28-.87,1.14-1.76,2.33-2.67,3.5s-1.89,2.37-3,3.73c-.71-.55-1.38-1.05-2-1.57-9.06-7.18-20.23-4.15-24.25,6.7a27,27,0,0,0,.56,21c4.26,9.53,14.5,12.12,22.93,5.94,1-.76,2-1.58,3.19-2.55l5.58,6.66a24.34,24.34,0,0,1-15.49,8A28.46,28.46,0,0,1,152,219.51Z" transform="translate(-51.53 -129.02)"/><path class="a" d="M87.67,228.31H85v2.45H88v.74H84.15v-6.8h3.67v.73H85v2.15h2.64Z" transform="translate(-51.53 -129.02)"/><path class="a" d="M92.33,231.5,91.46,230c-.35-.57-.57-1-.79-1.34h0c-.19.39-.38.76-.73,1.35l-.82,1.5h-1l2.08-3.44-2-3.36h1l.9,1.59c.25.45.44.79.62,1.15h0c.19-.4.36-.71.61-1.15l.93-1.59h1L91.23,228l2.12,3.49Z" transform="translate(-51.53 -129.02)"/><path class="a" d="M97.38,228.31H94.74v2.45h2.94v.74H93.86v-6.8h3.67v.73H94.74v2.15h2.64Z" transform="translate(-51.53 -129.02)"/><path class="a" d="M103.07,231.27a4.23,4.23,0,0,1-1.8.33,3.18,3.18,0,0,1-3.36-3.44,3.38,3.38,0,0,1,3.55-3.57,3.73,3.73,0,0,1,1.62.3l-.22.72a3,3,0,0,0-1.37-.29,2.53,2.53,0,0,0-2.65,2.81,2.47,2.47,0,0,0,2.61,2.73,3.5,3.5,0,0,0,1.43-.28Z" transform="translate(-51.53 -129.02)"/><path class="a" d="M104.54,224.7v4c0,1.53.67,2.17,1.58,2.17s1.65-.66,1.65-2.17v-4h.89v4c0,2.09-1.1,3-2.57,3s-2.44-.8-2.44-2.91v-4Z" transform="translate(-51.53 -129.02)"/><path class="a" d="M111,225.44H108.9v-.74h5v.74h-2.08v6.06H111Z" transform="translate(-51.53 -129.02)"/><path class="a" d="M115.06,224.7v6.8h-.88v-6.8Z" transform="translate(-51.53 -129.02)"/><path class="a" d="M117.58,231.5l-2.22-6.8h1l1.06,3.35c.29.91.54,1.74.72,2.54h0c.2-.79.48-1.65.78-2.53L120,224.7H121l-2.43,6.8Z" transform="translate(-51.53 -129.02)"/><path class="a" d="M124.73,228.31h-2.64v2.45H125v.74h-3.82v-6.8h3.67v.73h-2.79v2.15h2.64Z" transform="translate(-51.53 -129.02)"/><path class="a" d="M133.68,231.27a4.2,4.2,0,0,1-1.8.33,3.17,3.17,0,0,1-3.35-3.44,3.38,3.38,0,0,1,3.55-3.57,3.67,3.67,0,0,1,1.61.3l-.21.72a3.06,3.06,0,0,0-1.37-.29,2.53,2.53,0,0,0-2.66,2.81,2.47,2.47,0,0,0,2.62,2.73,3.53,3.53,0,0,0,1.43-.28Z" transform="translate(-51.53 -129.02)"/><path class="a" d="M135.6,224.7v2.84h3.29V224.7h.89v6.8h-.89v-3.19H135.6v3.19h-.87v-6.8Z" transform="translate(-51.53 -129.02)"/><path class="a" d="M142.35,229.36l-.71,2.14h-.91l2.31-6.8h1.06l2.32,6.8h-.94l-.72-2.14Zm2.23-.69-.67-2c-.15-.44-.25-.84-.35-1.24h0c-.1.41-.21.82-.35,1.24l-.66,2Z" transform="translate(-51.53 -129.02)"/><path class="a" d="M147.37,231.5v-6.8h1l2.17,3.44a17.27,17.27,0,0,1,1.22,2.21h0c-.08-.91-.1-1.74-.1-2.8V224.7h.83v6.8h-.89l-2.16-3.45a25,25,0,0,1-1.27-2.27h0c0,.85.07,1.67.07,2.8v2.91Z" transform="translate(-51.53 -129.02)"/><path class="a" d="M154,231.5v-6.8h1l2.18,3.44a20.14,20.14,0,0,1,1.22,2.21h0c-.08-.91-.1-1.74-.1-2.8V224.7h.82v6.8h-.88L156,228.05a21,21,0,0,1-1.27-2.27h0c0,.85.07,1.67.07,2.8v2.91Z" transform="translate(-51.53 -129.02)"/><path class="a" d="M164.05,228.31h-2.64v2.45h3v.74h-3.83v-6.8h3.67v.73h-2.79v2.15h2.64Z" transform="translate(-51.53 -129.02)"/><path class="a" d="M165.44,224.7h.88v6.06h2.9v.74h-3.78Z" transform="translate(-51.53 -129.02)"/><path class="a" d="M173.87,231.5v-6.8h1l2.18,3.44a20.14,20.14,0,0,1,1.22,2.21h0c-.08-.91-.1-1.74-.1-2.8V224.7H179v6.8h-.88l-2.16-3.45a21,21,0,0,1-1.27-2.27h0c.05.85.07,1.67.07,2.8v2.91Z" transform="translate(-51.53 -129.02)"/><path class="a" d="M184.12,228.31h-2.64v2.45h3v.74H180.6v-6.8h3.67v.73h-2.79v2.15h2.64Z" transform="translate(-51.53 -129.02)"/><path class="a" d="M187.12,225.44h-2.07v-.74h5v.74H188v6.06h-.88Z" transform="translate(-51.53 -129.02)"/><path class="a" d="M192.45,231.5l-1.73-6.8h.93l.81,3.44c.2.84.38,1.69.5,2.35h0c.11-.68.33-1.49.56-2.36l.91-3.43h.91l.83,3.45c.19.8.37,1.61.48,2.33h0c.14-.75.33-1.51.54-2.35l.9-3.43h.9l-1.93,6.8h-.92l-.86-3.54a21.05,21.05,0,0,1-.44-2.22h0a19.76,19.76,0,0,1-.53,2.22l-1,3.54Z" transform="translate(-51.53 -129.02)"/><path class="a" d="M205.78,228c0,2.34-1.42,3.58-3.16,3.58s-3.05-1.4-3.05-3.45,1.34-3.57,3.15-3.57S205.78,226,205.78,228Zm-5.28.11c0,1.45.79,2.75,2.17,2.75s2.18-1.28,2.18-2.82c0-1.36-.71-2.77-2.17-2.77S200.5,226.64,200.5,228.14Z" transform="translate(-51.53 -129.02)"/><path class="a" d="M207,224.79a9.29,9.29,0,0,1,1.69-.14,2.81,2.81,0,0,1,2,.55,1.7,1.7,0,0,1,.53,1.29,1.78,1.78,0,0,1-1.28,1.74v0a1.69,1.69,0,0,1,1,1.37,11.15,11.15,0,0,0,.52,1.87h-.91a9.14,9.14,0,0,1-.45-1.63c-.2-.94-.56-1.29-1.36-1.32h-.83v2.95H207Zm.88,3.1h.9c.94,0,1.53-.52,1.53-1.3s-.63-1.26-1.56-1.27a3.68,3.68,0,0,0-.87.08Z" transform="translate(-51.53 -129.02)"/><path class="a" d="M212.54,224.7h.88V228h0c.18-.27.36-.51.53-.73l2.08-2.55h1.09l-2.46,2.88,2.65,3.92h-1l-2.24-3.34-.64.74v2.6h-.88Z" transform="translate(-51.53 -129.02)"/><polygon class="a" points="34.56 23 26.55 23 26.55 23.93 23.89 23.93 23.89 34.96 28.89 34.96 28.89 28.89 34.56 28.89 34.56 23"/><path class="a" d="M80.42,181.09a23.18,23.18,0,1,1,23.18-23.18h5.71A28.89,28.89,0,1,0,80.42,186.8h0v-5.71Z" transform="translate(-51.53 -129.02)"/><path class="c" d="M80.42,171.55a13.64,13.64,0,1,1,13.64-13.64h5.46A19.11,19.11,0,1,0,80.42,177h0v-5.47Z" transform="translate(-51.53 -129.02)"/><path class="d" d="M80.42,162a4.08,4.08,0,1,1,4.07-4.08H90.1a9.69,9.69,0,1,0-9.68,9.69h0V162Z" transform="translate(-51.53 -129.02)"/></svg>