<svg xmlns="http://www.w3.org/2000/svg" viewBox="0 0 224.55 63.27"><defs><style>.a{fill:#ec7628;}</style></defs><title>elevision</title><rect y="23.21" width="16.45" height="4.19"/><rect y="32.39" width="13.24" height="4.19"/><rect x="57.41" y="252.25" width="22.55" height="4.19" transform="translate(256.44 -34.2) rotate(90)"/><rect y="41.57" width="16.45" height="4.19"/><rect x="53.21" y="23.21" width="16.45" height="4.19"/><rect x="53.21" y="32.39" width="13.24" height="4.19"/><rect x="110.62" y="252.25" width="22.55" height="4.19" transform="translate(309.65 -87.41) rotate(90)"/><rect x="168.73" y="252.25" width="22.55" height="4.19" transform="translate(367.75 -145.51) rotate(90)"/><rect x="215.84" y="252.25" width="22.55" height="4.19" transform="translate(414.86 -192.62) rotate(90)"/><rect x="264.13" y="252.25" width="22.55" height="4.19" transform="translate(463.16 -240.92) rotate(90)"/><rect x="277.77" y="252.25" width="22.55" height="4.19" transform="translate(476.8 -254.56) rotate(90)"/><rect x="270.18" y="252.25" width="24.09" height="4.19" transform="translate(277.55 -340.36) rotate(57.35)"/><rect x="53.21" y="41.57" width="16.45" height="4.19"/><rect x="86.23" y="252.25" width="22.55" height="4.19" transform="translate(285.26 -63.02) rotate(90)"/><rect x="28.82" y="41.57" width="14.12" height="4.19"/><path d="M251.75,247.37c3.6,0,6.53,3.35,6.53,7.47s-2.93,7.46-6.53,7.46-6.53-3.35-6.53-7.46,2.93-7.47,6.53-7.47m0-4.3c-6,0-10.83,5.27-10.83,11.77s4.85,11.76,10.83,11.76,10.83-5.26,10.83-11.76-4.85-11.77-10.83-11.77Z" transform="translate(-66.59 -219.86)"/><polygon class="a" points="92.63 23.15 92.63 26.43 96.46 26.43 90.21 41.3 83.96 26.43 87.56 26.43 87.56 23.15 78.67 23.15 90.21 50.58 101.75 23.15 92.63 23.15"/><polygon class="a" points="92.63 17.71 92.63 14.34 96.46 14.34 90.21 2 83.96 14.34 87.56 14.34 87.56 17.71 78.67 17.71 90.21 0 101.75 17.71 92.63 17.71"/><path d="M203.14,266.88c-3.57,0-6.34-1.52-9.27-5.09l3.32-2.73c2.67,3.25,4.47,3.52,5.95,3.52s4-.61,5-1.74a1.6,1.6,0,0,0,.47-1.32c-.15-1.84-1.22-2.49-5-3-3.39-.5-8.51-1.26-8.51-6.86,0-4.7,4.28-7.15,8.5-7.15a10.21,10.21,0,0,1,8.87,4.29l-3.42,2.6a6,6,0,0,0-5.45-2.59c-.17,0-4.2,0-4.2,2.85,0,1.4.4,1.95,4.84,2.61,2.87.42,8.21,1.21,8.66,7a5.89,5.89,0,0,1-1.59,4.58C209,266.23,205,266.88,203.14,266.88Z" transform="translate(-66.59 -219.86)"/><path class="a" d="M255,279.51c-.06-1.13-.13-2.49-.12-3.49h0c-.28.94-.61,2-1,3.07L252.4,283h-.79l-1.31-3.85c-.38-1.14-.71-2.19-.93-3.14h0c0,1-.08,2.36-.15,3.57l-.22,3.47h-1l.57-8.09h1.33l1.38,3.91c.33,1,.61,1.88.81,2.72h0c.2-.81.49-1.7.85-2.72l1.44-3.91h1.33l.51,8.09h-1Z" transform="translate(-66.59 -219.86)"/><path class="a" d="M264.42,279.27h-3.14v2.91h3.5v.88h-4.54V275h4.36v.88h-3.32v2.55h3.14Z" transform="translate(-66.59 -219.86)"/><path class="a" d="M268.54,275.08a14.44,14.44,0,0,1,2.22-.17,4.65,4.65,0,0,1,3.28,1,3.74,3.74,0,0,1,1.13,2.9A4.24,4.24,0,0,1,274,282a4.94,4.94,0,0,1-3.57,1.17,16.77,16.77,0,0,1-1.9-.1Zm1,7.15a6.25,6.25,0,0,0,1.05.06,3.11,3.11,0,0,0,3.44-3.43c0-1.91-1.06-3.12-3.27-3.12a5.82,5.82,0,0,0-1.22.11Z" transform="translate(-66.59 -219.86)"/><path class="a" d="M280,275v8.09h-1.05V275Z" transform="translate(-66.59 -219.86)"/><path class="a" d="M285.51,280.51l-.84,2.55h-1.08l2.75-8.09h1.26l2.76,8.09h-1.12l-.86-2.55Zm2.65-.81-.79-2.33c-.18-.53-.3-1-.42-1.47h0c-.12.48-.25,1-.4,1.46l-.79,2.34Z" transform="translate(-66.59 -219.86)"/></svg>