<svg id="Layer_1" data-name="Layer 1" xmlns="http://www.w3.org/2000/svg" viewBox="0 0 1052.8 316"><defs><style>.cls-1,.cls-3{fill:#aeadb3;}.cls-2{fill:#e2a900;}.cls-2,.cls-3,.cls-4{fill-rule:evenodd;}.cls-5{fill:none;stroke:#aeadb3;stroke-miterlimit:10;stroke-width:4px;}</style></defs><path class="cls-1" d="M1066.7,155V130.4h12c3,0,5.1.6,6.3,1.6s1.7,2.9,1.7,5.7a11.6,11.6,0,0,1-.8,5.1,4.9,4.9,0,0,1-3.5,1.8v.2c2.7.2,4.1,1.8,4.1,4.8V155h-4.7v-4.5c0-2.5-1.2-3.8-3.7-3.8h-6.7V155Zm4.6-12.3h6.7a4.9,4.9,0,0,0,3.2-.8,5.4,5.4,0,0,0,.8-3.4c0-1.7-.2-2.9-.7-3.4s-1.4-.8-2.9-.8h-7v8.4Z" transform="translate(-49 -74.7)"/><path class="cls-2" d="M186.9,317c-20.7,6.3-38.3,9.4-53,9.4-25,0-45.5-8.3-61.3-24.9S49,263.1,49,236.5s6.9-47,20.8-63.5,31.8-24.8,53.5-24.8,36.4,7.3,47.6,22,16.9,35.4,16.9,62.4l-.2,9.5H80.4q6.8,60.8,59.3,60.7c12.8,0,28.6-3.4,47.2-10.3ZM81.8,219h74.9q0-47.5-35.3-47.6C97.8,171.4,84.5,187.2,81.8,219Z" transform="translate(-49 -74.7)"/><path class="cls-2" d="M207.4,322.5V152.1h30.8v32q24.4-35.8,59.7-35.8c14.7,0,26.4,4.7,35.2,14.1s13.1,21.9,13.1,37.7V322.5H315.4V210.1c0-12.6-1.9-21.6-5.6-26.9S300,175,291.5,175q-28.2,0-53.3,37.2V322.5Z" transform="translate(-49 -74.7)"/><path class="cls-3" d="M270.9,322.5V152.1h30.8v32q22.5-35.8,57.9-35.8T406,184.1q21.9-35.8,56.9-35.9c15,0,26.6,4.5,34.8,13.3S510,182.6,510,198.6v124H479.1V203.4c0-19.5-7.7-29.2-23-29.2s-32.7,11.3-50.2,34.1V322.5H375V203.4c0-19.6-7.8-29.4-23.5-29.4s-32.2,11.4-49.9,34.2V322.4H270.9Z" transform="translate(-49 -74.7)"/><path class="cls-3" d="M662.7,317q-30.9,9.5-53,9.4-37.5,0-61.3-24.9c-15.8-16.8-23.6-38.4-23.6-65s6.9-47,20.8-63.5,31.8-24.8,53.5-24.8,36.4,7.3,47.6,22,16.9,35.4,16.9,62.4l-.2,9.5H556.2q6.8,60.8,59.3,60.7c12.8,0,28.6-3.4,47.2-10.3ZM557.6,219h74.9q0-47.5-35.3-47.6C573.5,171.4,560.3,187.2,557.6,219Z" transform="translate(-49 -74.7)"/><path class="cls-3" d="M793.9,322.5v-32c-12.5,24-31.4,35.9-56.6,35.9q-30.6,0-48.3-22.4c-11.7-15-17.5-35.4-17.5-61.4,0-28.3,6.6-51.2,19.9-68.4s30.8-25.9,52.5-25.9q30.1,0,50,23.2V74.7h30.9V322.5Zm0-129.8c-15.9-14.1-31.1-21.2-45.3-21.2q-44.2,0-44.3,67.9,0,59.9,39.4,59.8c17.1,0,33.9-9.3,50.2-28.1V192.7Z" transform="translate(-49 -74.7)"/><path class="cls-3" d="M854.8,322.5V152.1h30.8V322.5Zm0-201.3V90.3h30.8v30.9Z" transform="translate(-49 -74.7)"/><path class="cls-3" d="M982.2,326.4q-36.5,0-58.1-24.1c-14.5-16.2-21.8-37.9-21.8-64.9s7.2-49.1,21.8-65,34.3-24,59.3-24,44.6,8,59.1,24,21.9,37.5,21.9,64.7-7.3,49.7-21.9,65.6S1007.7,326.4,982.2,326.4Zm.4-23.2q49,0,49-66.2t-48.3-65.4q-48.1,0-48.2,65.8C935.1,281.2,951,303.2,982.6,303.2Z" transform="translate(-49 -74.7)"/><path class="cls-4" d="M283.5,381.7a10.9,10.9,0,0,1-8.5-3.8,14,14,0,0,1-3.4-9.7c0-4.1,1.1-7.4,3.3-9.7s5.4-3.5,9.4-3.5a32.9,32.9,0,0,1,6.6.8v3.8a22.6,22.6,0,0,0-6.3-1.2,6.8,6.8,0,0,0-5.7,2.7,11,11,0,0,0-2.1,7,10.5,10.5,0,0,0,2.2,7,7,7,0,0,0,5.7,2.7,14.5,14.5,0,0,0,6.5-1.6v4A24.2,24.2,0,0,1,283.5,381.7Z" transform="translate(-49 -74.7)"/><path class="cls-4" d="M324.8,381.7a11.2,11.2,0,0,1-8.7-3.6c-2.2-2.4-3.3-5.6-3.3-9.7s1.1-7.3,3.3-9.7a11.3,11.3,0,0,1,8.8-3.6,11.2,11.2,0,0,1,8.8,3.6c2.2,2.4,3.3,5.6,3.3,9.7s-1.1,7.4-3.3,9.8S328.7,381.7,324.8,381.7Zm.1-3.5c4.9,0,7.4-3.3,7.4-9.9s-2.4-9.8-7.2-9.8-7.2,3.3-7.2,9.8S320.2,378.2,324.9,378.2Z" transform="translate(-49 -74.7)"/><path class="cls-4" d="M361.1,381.1V355.7h4.6v4.8c2.2-3.6,5.1-5.3,8.6-5.3s5.7,1.8,6.9,5.3c2.1-3.6,5-5.3,8.5-5.3a6.9,6.9,0,0,1,5.2,2,8,8,0,0,1,1.9,5.5v18.5h-4.6V363.5c0-2.9-1.2-4.4-3.4-4.4s-4.9,1.7-7.5,5.1v17h-4.7V363.5c0-3-1.1-4.4-3.5-4.4s-4.8,1.7-7.4,5.1v17h-4.6Z" transform="translate(-49 -74.7)"/><path class="cls-4" d="M438.4,381.1v-4.8c-2.5,3.6-5.4,5.4-8.9,5.4a6.9,6.9,0,0,1-5.3-2.1,8,8,0,0,1-1.9-5.7V355.6h4.6v16.8a8.2,8.2,0,0,0,.8,4.1,3.2,3.2,0,0,0,2.8,1.2c2.8,0,5.4-1.9,7.9-5.6V355.6H443V381h-4.6Z" transform="translate(-49 -74.7)"/><path class="cls-4" d="M468.9,381.1V355.7h4.6v4.8c2.5-3.6,5.4-5.3,8.9-5.3a6.9,6.9,0,0,1,5.3,2.1,8.1,8.1,0,0,1,2,5.7v18.2h-4.6V364.5a7.7,7.7,0,0,0-.8-4,3,3,0,0,0-2.7-1.2c-2.8,0-5.5,1.9-8,5.5v16.4h-4.7Z" transform="translate(-49 -74.7)"/><path class="cls-4" d="M515.4,381.1V355.7H520v25.4Zm0-30.1v-4.6H520V351Z" transform="translate(-49 -74.7)"/><path class="cls-4" d="M555.9,381.7a10.9,10.9,0,0,1-8.5-3.8,14,14,0,0,1-3.4-9.7c0-4.1,1.1-7.4,3.3-9.7s5.3-3.5,9.4-3.5a32.9,32.9,0,0,1,6.6.8v3.8a22.6,22.6,0,0,0-6.4-1.2,6.8,6.8,0,0,0-5.7,2.7,12.5,12.5,0,0,0,.1,14,7.1,7.1,0,0,0,5.7,2.7,14.5,14.5,0,0,0,6.5-1.6v4A23.6,23.6,0,0,1,555.9,381.7Z" transform="translate(-49 -74.7)"/><path class="cls-4" d="M600.4,377.9c-2.7,2.5-5.4,3.8-8,3.8a7.3,7.3,0,0,1-5.3-2,6.5,6.5,0,0,1-2-5,7,7,0,0,1,3.5-6.4c2.3-1.5,5.7-2.3,10-2.3h1.1v-3c0-3-1.5-4.4-4.5-4.4a17.1,17.1,0,0,0-7.9,2.3V357a22.6,22.6,0,0,1,8.8-1.9c2.8,0,4.9.7,6.2,1.9s2,3.3,2,6v11.5q0,3.9,2.4,3.9h.9l.3,2.6a7.8,7.8,0,0,1-3.5.7C602.3,381.7,601,380.4,600.4,377.9Zm-.7-2.6v-6.6h-1.6a11,11,0,0,0-6.1,1.5,4.4,4.4,0,0,0-2.3,3.8,4.1,4.1,0,0,0,4,4A10,10,0,0,0,599.7,375.3Z" transform="translate(-49 -74.7)"/><path class="cls-4" d="M640.4,381.7a10.9,10.9,0,0,1-8.5-3.8,14.5,14.5,0,0,1-3.4-9.7c0-4.1,1.1-7.4,3.3-9.7s5.4-3.5,9.4-3.5a32.9,32.9,0,0,1,6.6.8v3.8a22.6,22.6,0,0,0-6.3-1.2,7,7,0,0,0-5.7,2.7,12.5,12.5,0,0,0,.1,14,6.8,6.8,0,0,0,5.7,2.7,14.5,14.5,0,0,0,6.5-1.6v4A25.2,25.2,0,0,1,640.4,381.7Z" transform="translate(-49 -74.7)"/><path class="cls-4" d="M671.7,381.1V355.7h4.6v25.4Zm0-30.1v-4.6h4.6V351Z" transform="translate(-49 -74.7)"/><path class="cls-4" d="M748.5,381.1V355.7h4.6v4.8c2.4-3.6,5.4-5.3,8.9-5.3a6.7,6.7,0,0,1,5.2,2.1,8.1,8.1,0,0,1,2,5.7v18.2h-4.6V364.5a6.7,6.7,0,0,0-.9-4,2.9,2.9,0,0,0-2.7-1.2c-2.8,0-5.5,1.9-7.9,5.5v16.4h-4.6Z" transform="translate(-49 -74.7)"/><path class="cls-4" d="M843.1,381.1v-4.8q-2.9,5.4-8.4,5.4a8.4,8.4,0,0,1-7.2-3.4c-1.7-2.2-2.6-5.3-2.6-9.1s1-7.6,3-10.2a9.4,9.4,0,0,1,7.8-3.9,9.6,9.6,0,0,1,7.5,3.5V344.1h4.6v37Zm0-19.4c-2.4-2.1-4.6-3.1-6.7-3.1-4.4,0-6.6,3.4-6.6,10.1s2,8.9,5.9,8.9,5-1.4,7.5-4.2V361.7Z" transform="translate(-49 -74.7)"/><path class="cls-4" d="M873.7,381.1V355.7h4.7v25.4Zm0-30.1v-4.6h4.7V351Z" transform="translate(-49 -74.7)"/><path class="cls-4" d="M904.4,389.5l.6-4a17.9,17.9,0,0,0,7.9,1.9c5.2,0,7.8-2.8,7.8-8.3v-4a8.5,8.5,0,0,1-8.3,5.3,8.7,8.7,0,0,1-7.2-3.3q-2.7-3.3-2.7-9a14.6,14.6,0,0,1,3-9.5,9.8,9.8,0,0,1,7.9-3.7,9.3,9.3,0,0,1,7.3,3.5v-2.9h4.6V374a47.2,47.2,0,0,1-.6,8.8,9.9,9.9,0,0,1-2.3,4.7c-2,2.1-5.1,3.2-9.4,3.2A22.7,22.7,0,0,1,904.4,389.5Zm16.2-17.2V361.7a8.9,8.9,0,0,0-6.6-3.1,6,6,0,0,0-5,2.6,11.9,11.9,0,0,0-1.8,7c0,5.6,2,8.4,5.9,8.4S918.2,375.1,920.6,372.3Z" transform="translate(-49 -74.7)"/><path class="cls-4" d="M951,381.1V355.7h4.6v25.4Zm0-30.1v-4.6h4.6V351Z" transform="translate(-49 -74.7)"/><path class="cls-4" d="M989.1,381.7a6.9,6.9,0,0,1-5.4-2,7.6,7.6,0,0,1-1.9-5.6V359.2h-3.2v-3.5h3.2V351l4.6-.4v5.1H993v3.5h-6.6v14.1c0,3.3,1.4,5,4.3,5l2.2-.3v3.2A33.3,33.3,0,0,1,989.1,381.7Z" transform="translate(-49 -74.7)"/><path class="cls-4" d="M1029.3,377.9c-2.7,2.5-5.4,3.8-7.9,3.8a6.9,6.9,0,0,1-5.2-2,6.6,6.6,0,0,1-2.1-5,7.2,7.2,0,0,1,3.5-6.4c2.3-1.5,5.7-2.3,10-2.3h1.1v-3c0-3-1.5-4.4-4.5-4.4a17.5,17.5,0,0,0-7.9,2.3V357a22.5,22.5,0,0,1,8.7-1.9c2.9,0,4.9.7,6.2,1.9s2,3.3,2,6v11.5q0,3.9,2.4,3.9h.9l.3,2.6a7.4,7.4,0,0,1-3.4.7C1031.3,381.7,1029.9,380.4,1029.3,377.9Zm-.7-2.6v-6.6h-1.5a11.3,11.3,0,0,0-6.1,1.5,4.2,4.2,0,0,0-2.3,3.8,3.9,3.9,0,0,0,1.1,2.8,3.8,3.8,0,0,0,2.8,1.2A9.5,9.5,0,0,0,1028.6,375.3Z" transform="translate(-49 -74.7)"/><rect x="1010.4" y="269.4" width="4.6" height="37"/><path class="cls-4" d="M718,358.7a12.7,12.7,0,0,0-17.7,0c-2.2,2.4-3.3,5.6-3.3,9.7s1.1,7.3,3.3,9.7a11,11,0,0,0,8.7,3.6,11.8,11.8,0,0,0,9-3.6c2.2-2.4,3.3-5.6,3.3-9.8S720.2,361,718,358.7Zm-8.9,19.5c-4.7,0-7.1-3.3-7.1-9.9s2.3-9.8,7.2-9.8,7.2,3.3,7.2,9.8S714,378.2,709.1,378.2Z" transform="translate(-49 -74.7)"/><polygon class="cls-4" points="675.4 268.9 669.7 276.9 665.3 275.3 671.1 267.3 675.4 268.9"/><ellipse class="cls-5" cx="1027.2" cy="68.2" rx="23.6" ry="21.8"/></svg>