<svg xmlns="http://www.w3.org/2000/svg" viewBox="0 0 938.3 136.85"><defs><style>.a{fill:#011132;}.b{fill:#ed1844;}.c{fill:#a0a0a2;}.d{fill:#00132e;}</style></defs><title>exterion</title><path class="a" d="M222.81,52.66l-1.65,1.65v83.28l1.65,1.65h57.72l1.65-1.65V125.22l-.82-.82H240.13l-.83-1.65V103l1.65-1.65h38.76l1.65-1.65V87.29H240.13l-.83-1.64V68.33L241,66.68h41.23L283.83,65V52.66h-61Z" transform="translate(-30.22 -4.87)"/><path class="a" d="M338.59,79.05l-2.48,1.65L319.62,98.84H318L301.48,80.7,299,79.05h-7.42l-1.65,1.65V93.07l14.84,15.67v1.65L288.29,127.7v12.37l1.65,1.65h7.42l2.47-1.65,17.32-19h1.65l17.31,19,2.48,1.65H346l1.65-1.65V127.7l-16.49-17.31v-1.65L346,93.07v-14Z" transform="translate(-30.22 -4.87)"/><path class="a" d="M449.13,113.94l-1.64,1.65H410.38l-1.65,1.65c0,2.47,2.47,9.9,12.37,9.9,4.12,0,6.6-1.65,8.24-4.13l1.65-1.65h14.85l1.65,1.65c-2.48,6.6-8.25,17.32-26.39,17.32-20.62,0-30.51-14.84-30.51-31.34s9.07-31.33,29.68-31.33c19,0,28.86,14.84,28.86,31.33Zm-17.31-12.37c0-1.65-1.65-9.89-10.72-9.89-9.9,0-10.72,8.24-10.72,9.89l.82,1.65h19Z" transform="translate(-30.22 -4.87)"/><path class="a" d="M494.77,93.69h-8.24c-9.07,0-13.2,5-13.2,15.67V139l-1.64.82H456.84L456,139V81.32l1.65-2.47h13.19l.83,1.65,1.64,4.12H475s2.48-5,13.2-5h6.59l1.65,1.65V92Z" transform="translate(-30.22 -4.87)"/><path class="a" d="M555.76,140.63c-18.14,0-30.51-12.37-30.51-31.33S537.62,78,555.76,78s30.51,12.37,30.51,31.34-13.19,31.33-30.51,31.33m0-47.83c-8.24,0-13.19,6.6-13.19,17.32s4.95,17.32,13.19,17.32,13.2-6.6,13.2-17.32c0-12.37-5-17.32-13.2-17.32" transform="translate(-30.22 -4.87)"/><path class="a" d="M648.56,139.35H633.72l-.83-1.65V103.07c0-6.6-2.47-10.72-9.89-10.72-8.25,0-13.19,5-13.19,15.67V137.7l-1.65,1.65h-14l-1.65-1.65V80l1.65-.82h13.19L609,80.8l.83,3.3h1.65c2.47-2.47,6.59-6.59,15.66-6.59,14.84,0,23.09,9.89,23.09,23.91V137.7Z" transform="translate(-30.22 -4.87)"/><path class="a" d="M372.32,93.69h13.19L387.16,92V79.67l-1.65-.82H372.32L370.67,78V67.3l-.83-1.65H355l-1.65,1.65v53.6c0,13.19,9.9,18.14,20.62,18.14h10.72l1.64-1.65V125H374.79a3.89,3.89,0,0,1-4.12-4.12V94.51Z" transform="translate(-30.22 -4.87)"/><path class="a" d="M815.05,113.3,813.4,115H776.29l-.82,1.65c0,2.47,2.47,9.89,12.37,9.89,4.12,0,6.6-1.65,8.24-4.12l1.65-1.65h14.85l1.65,1.65c-2.48,6.6-8.25,17.31-26.39,17.31-20.62,0-30.51-14.84-30.51-31.33S767.22,76.19,787,76.19c18.14.83,28,15.67,28,32.16Zm-17.32-12.37c0-1.65-1.65-9.07-10.72-9.07-9.89,0-10.72,8.25-10.72,9.07l.83,1.65h19Z" transform="translate(-30.22 -4.87)"/><path class="a" d="M847.24,77.12c10.72,0,15.66,6.6,15.66,6.6h1.65v-28l.83-1.65h14.84l1.65,1.65v82.46l-2.47.82H866.2l-1.65-1.65-.82-4.12h-1.65s-5,6.6-15.67,6.6c-14,0-25.56-12.37-25.56-32.16,0-18.14,11.54-30.51,26.39-30.51m4.12,48.65c9.89,0,13.19-6.6,13.19-17.32,0-9.07-4.12-17.31-13.19-17.31s-13.19,6.59-13.19,17.31c-.83,9.9,2.47,17.32,13.19,17.32" transform="translate(-30.22 -4.87)"/><path class="a" d="M891.75,54.28l-1.65,1.65V68.3l1.65.82h14.84l.82-1.65V55.11l-.82-.83Zm0,23.91-1.65,1.65v57.72l1.65.83h14.84l.82-.83V79.84l-.82-1.65Z" transform="translate(-30.22 -4.87)"/><path class="a" d="M504.28,54.28l-1.65,1.65V68.3l1.65.82h14.84l.83-1.65V55.11l-.83-.83Zm0,23.91-1.65,1.65v57.72l1.65.83h14.84l.83-.83V79.84l-.83-1.65Z" transform="translate(-30.22 -4.87)"/><path class="a" d="M966.88,138.7H953.69L952,137.06l-.83-2.48h-1.65a19.72,19.72,0,0,1-13.19,4.95c-13.19,0-21.44-6.6-21.44-19,0-18.14,17.32-19.79,26.39-19.79a19.94,19.94,0,0,1,8.24,1.65l1.65-1.65V99.13c0-6.6-1.65-6.6-8.24-6.6-4.13,0-6.6,0-8.25,4.12l-1.65,1.65H918.23l-1.65-1.65c.83-9.07,7.42-19.79,26.39-19.79s25.56,9.07,25.56,28v32.16Zm-16.49-25.56a12.72,12.72,0,0,0-6.6-1.65c-7.42,0-11.54,2.48-11.54,7.43,0,4.12,2.47,6.59,8.24,6.59,5.78.83,10.72-3.3,10.72-7.42v-2.47Z" transform="translate(-30.22 -4.87)"/><path class="a" d="M731.19,52.66l-1.65,1.65-24.74,60.2h-1.65l-24.73-60.2-.83-1.65h-19L657,54.31v83.28l1.65,1.65h14.84l1.65-1.65V89.77h1.65l19.79,47.82,1.65,1.65h14l1.65-1.65,19.79-47.82h1.65v47.82l1.65,1.65H751.8l-.82-1.65V53.49l-.83-.83Z" transform="translate(-30.22 -4.87)"/><path class="b" d="M125.05,48.57V99.7h65.14V4.87h-160V44.45h90.71a3.89,3.89,0,0,1,4.12,4.12" transform="translate(-30.22 -4.87)"/><path class="c" d="M125.18,139.57h65.14V108.24H125.18Z" transform="translate(-30.22 -4.87)"/><path class="d" d="M30.35,139.57h86.58V53H30.35Z" transform="translate(-30.22 -4.87)"/></svg>