<svg id="Layer_1" data-name="Layer 1" xmlns="http://www.w3.org/2000/svg" viewBox="0 0 2251.34 1391.2"><defs><style>.cls-1{fill:#fff;}</style></defs><path class="cls-1" d="M400,496.76v0h0Z" transform="translate(-13.7)"/><path class="cls-1" d="M1434.49,912.67h0v0Z" transform="translate(-13.7)"/><path class="cls-1" d="M1590.41,348.83h0l-1.6-.24h0Z" transform="translate(-13.7)"/><path class="cls-1" d="M1593.87,349.36h0l-3.46-.54h0Z" transform="translate(-13.7)"/><path class="cls-1" d="M1597.37,349.91l-2.39-.38c.8.12,1.59.26,2.39.39Z" transform="translate(-13.7)"/><path class="cls-1" d="M1594.37,349.43l-.5-.07h0Z" transform="translate(-13.7)"/><path class="cls-1" d="M1600.9,350.49h0l-3.53-.58h0Z" transform="translate(-13.7)"/><polygon class="cls-1" points="1588.13 350.74 1588.15 350.64 1588.15 350.64 1588.13 350.74 1588.13 350.74"/><path class="cls-1" d="M1604.4,351.08l-2.48-.42,2.48.42Z" transform="translate(-13.7)"/><path class="cls-1" d="M1601.16,350.53l-.26,0h0Z" transform="translate(-13.7)"/><path class="cls-1" d="M1607.69,351.65l-3.29-.57h0Z" transform="translate(-13.7)"/><path class="cls-1" d="M1768.37,415.55l.25.45Z" transform="translate(-13.7)"/><path class="cls-1" d="M1767.65,414.38l.34.53Z" transform="translate(-13.7)"/><path class="cls-1" d="M1765.53,411.61l.61.73Z" transform="translate(-13.7)"/><path class="cls-1" d="M1766.49,412.79c.24.31.48.62.69.92C1767,413.41,1766.73,413.1,1766.49,412.79Z" transform="translate(-13.7)"/><path class="cls-1" d="M1768.64,416c.21.39.4.78.56,1.16C1769,416.81,1768.85,416.42,1768.64,416Z" transform="translate(-13.7)"/><path class="cls-1" d="M1677.27,368.13l0-.17,0,0,0,.17Z" transform="translate(-13.7)"/><path class="cls-1" d="M1763.89,409.82c.52.53,1,1.06,1.45,1.57C1764.89,410.88,1764.41,410.35,1763.89,409.82Z" transform="translate(-13.7)"/><path class="cls-1" d="M1615.69,353.22l0-.11h0l0,.11Z" transform="translate(-13.7)"/><path class="cls-1" d="M1762.73,409.24l.08-.5,0,0-.08.5Z" transform="translate(-13.7)"/><path class="cls-1" d="M1684,370.23l0-.18h0l0,.18Z" transform="translate(-13.7)"/><polygon class="cls-1" points="1723.54 391.82 1723.59 391.53 1723.59 391.53 1723.54 391.82 1723.54 391.82"/><path class="cls-1" d="M1704.21,377.21l0-.21-.08,0,0,.21Z" transform="translate(-13.7)"/><path class="cls-1" d="M1670.5,366.13l0-.16h0l0,.16Z" transform="translate(-13.7)"/><path class="cls-1" d="M1724.16,385.16l3.27,1.5Z" transform="translate(-13.7)"/><path class="cls-1" d="M1720.94,383.73c1.06.46,2.1.93,3.13,1.39C1723,384.66,1722,384.19,1720.94,383.73Z" transform="translate(-13.7)"/><path class="cls-1" d="M1711.09,379.64q3.17,1.25,6.16,2.51Q1714.25,380.89,1711.09,379.64Z" transform="translate(-13.7)"/><path class="cls-1" d="M1727.53,386.7c1.07.5,2.13,1,3.16,1.51C1729.66,387.71,1728.6,387.2,1727.53,386.7Z" transform="translate(-13.7)"/><path class="cls-1" d="M1743.78,395.1c2.3,1.32,4.44,2.64,6.44,3.93C1748.22,397.74,1746.08,396.42,1743.78,395.1Z" transform="translate(-13.7)"/><path class="cls-1" d="M1708,378.44c.93.36,1.87.72,2.78,1.09C1709.91,379.16,1709,378.8,1708,378.44Z" transform="translate(-13.7)"/><path class="cls-1" d="M1740.65,393.34c1.06.58,2.1,1.17,3.11,1.75C1742.75,394.51,1741.71,393.92,1740.65,393.34Z" transform="translate(-13.7)"/><path class="cls-1" d="M1730.74,388.23c1.13.55,2.23,1.09,3.31,1.64C1733,389.32,1731.87,388.78,1730.74,388.23Z" transform="translate(-13.7)"/><path class="cls-1" d="M1670.69,366c1.91.54,3.78,1.09,5.64,1.65C1674.47,367.11,1672.6,366.56,1670.69,366Z" transform="translate(-13.7)"/><path class="cls-1" d="M1737.3,391.54c1.12.58,2.21,1.17,3.27,1.75C1739.51,392.71,1738.42,392.12,1737.3,391.54Z" transform="translate(-13.7)"/><path class="cls-1" d="M1734.09,389.89c1.09.54,2.14,1.09,3.18,1.63C1736.23,391,1735.18,390.43,1734.09,389.89Z" transform="translate(-13.7)"/><path class="cls-1" d="M1717.54,382.27l3.06,1.31Z" transform="translate(-13.7)"/><path class="cls-1" d="M1622.76,354.48c2.21.44,4.39.89,6.56,1.34C1627.15,355.37,1625,354.92,1622.76,354.48Z" transform="translate(-13.7)"/><path class="cls-1" d="M1629.59,355.88q3.36.71,6.66,1.43Q1632.95,356.59,1629.59,355.88Z" transform="translate(-13.7)"/><path class="cls-1" d="M1608.81,351.85c2.3.4,4.56.82,6.81,1.24C1613.37,352.67,1611.11,352.25,1608.81,351.85Z" transform="translate(-13.7)"/><path class="cls-1" d="M1636.46,357.36q3.33.74,6.6,1.5Q1639.79,358.1,1636.46,357.36Z" transform="translate(-13.7)"/><path class="cls-1" d="M1704.29,377l3.08,1.16Z" transform="translate(-13.7)"/><path class="cls-1" d="M1616.23,353.21l6.2,1.2Z" transform="translate(-13.7)"/><path class="cls-1" d="M1661.22,363.39l2.37.64Z" transform="translate(-13.7)"/><path class="cls-1" d="M1643.26,358.91q3.35.78,6.62,1.58Q1646.61,359.69,1643.26,358.91Z" transform="translate(-13.7)"/><path class="cls-1" d="M1664.31,364.23q3,.82,6,1.68Q1667.35,365.05,1664.31,364.23Z" transform="translate(-13.7)"/><path class="cls-1" d="M1656.93,362.26l.55.15Z" transform="translate(-13.7)"/><path class="cls-1" d="M1650.12,360.55l2.55.63Z" transform="translate(-13.7)"/><path class="cls-1" d="M1695.58,373.88l1.86.64Z" transform="translate(-13.7)"/><path class="cls-1" d="M1690.85,372.26l3,1Z" transform="translate(-13.7)"/><path class="cls-1" d="M1756.62,403.49a67.76,67.76,0,0,1,6.15,5.21A67.76,67.76,0,0,0,1756.62,403.49Z" transform="translate(-13.7)"/><path class="cls-1" d="M1684.49,370.18c2.08.67,4.12,1.33,6.13,2C1688.61,371.51,1686.57,370.85,1684.49,370.18Z" transform="translate(-13.7)"/><path class="cls-1" d="M1755.59,402.73c.33.24.66.48,1,.73C1756.25,403.21,1755.92,403,1755.59,402.73Z" transform="translate(-13.7)"/><path class="cls-1" d="M1762.82,408.74c.31.31.61.6.9.9C1763.43,409.34,1763.13,409.05,1762.82,408.74Z" transform="translate(-13.7)"/><path class="cls-1" d="M1700.88,375.76l3.2,1.18Z" transform="translate(-13.7)"/><path class="cls-1" d="M1750.27,399.06c1,.65,2,1.3,2.89,1.94C1752.23,400.36,1751.27,399.71,1750.27,399.06Z" transform="translate(-13.7)"/><path class="cls-1" d="M1681.5,369.24l2.48.78Z" transform="translate(-13.7)"/><path class="cls-1" d="M1753.68,401.36l1.14.81Z" transform="translate(-13.7)"/><path class="cls-1" d="M1677.36,368l2.41.74Z" transform="translate(-13.7)"/><path class="cls-1" d="M1358.29,748.83v.08c-4-2.17-10.41-2.74-15.48-2.37-13.93,1.07-24.47,2.74-38.42,22-16.2,23-21.78,60.69-19.66,90.07,1.45,19.85,9.87,27.92,22.15,27,17.8-1.39,34.65-21.3,39.41-37.78C1346.29,847.83,1362.29,751.05,1358.29,748.83Z" transform="translate(-13.7)"/><path class="cls-1" d="M920,681.52c-39.27-4.29-61.45,74.19-62.91,107.65-.92,21,9.59,31.58,26.19,33.38,37.44,4.07,60.45-62.77,62.31-105.56C946.68,691.68,937.41,683.35,920,681.52Z" transform="translate(-13.7)"/><path class="cls-1" d="M1667.33,1043.4l.06-.1a1.11,1.11,0,0,1-.07.16q3.45-5.3,6.79-10.62,5.1-8.07,10-16.19v0h0v0q5.22-8.68,10.2-17.4v0q5.36-9.39,10.44-18.82c2.76-5.12,5.43-10.26,8.06-15.41l2.11-4.12.63-1.25v0l0,0v.05c.47-.93.91-1.86,1.37-2.79q1.69-3.4,3.36-6.81c.66-1.34,1.31-2.69,2-4q1.73-3.57,3.4-7.16l1.15-2.43c.22-.49.44-1,.67-1.47l1-2.23c1-2.07,1.89-4.15,2.82-6.22.38-.85.76-1.69,1.13-2.53,1.15-2.59,2.29-5.18,3.4-7.77.43-1,.84-2,1.26-2.95l1.54-3.6v-.05l0,0v0c.16-.39.32-.79.49-1.18q1.3-3.12,2.58-6.24c.42-1,.85-2.09,1.28-3.14.86-2.12,1.7-4.25,2.54-6.38.4-1,.81-2,1.2-3,.84-2.15,1.66-4.3,2.48-6.45.38-1,.77-2,1.15-3,.81-2.15,1.6-4.3,2.39-6.45.37-1,.75-2,1.11-3.07q1.17-3.23,2.29-6.45c.37-1,.73-2.07,1.09-3.1.75-2.16,1.48-4.32,2.21-6.48.35-1,.7-2.06,1-3.09q1.1-3.29,2.14-6.57c.33-1,.66-2,1-3q1.07-3.37,2.11-6.75c.22-.73.46-1.46.68-2.19l.18-.6q3.26-10.68,6.21-21.42c0-.17.09-.34.14-.51q1.35-4.93,2.64-9.9c.26-1,.51-2,.77-3,.63-2.48,1.26-5,1.88-7.45l.93-3.83q.79-3.33,1.58-6.66c.32-1.41.65-2.81,1-4.22.48-2.12,1-4.25,1.42-6.37.32-1.46.64-2.91.95-4.37.46-2.16.91-4.34,1.35-6.51.29-1.39.58-2.76.86-4.15q.87-4.41,1.71-8.84c.1-.55.22-1.1.32-1.65.62-3.32,1.2-6.63,1.77-9.94l.27-1.57c.51-3,1-6.06,1.47-9.08l.39-2.48q.65-4.27,1.25-8.54c.14-1,.27-2,.41-3,.28-2.06.55-4.11.81-6.17.23-1.77.44-3.54.65-5.3s.41-3.42.6-5.13.36-3.22.53-4.82c.1-1,.19-1.89.28-2.84.31-3.05.6-6.11.87-9.15,0-.42.07-.83.11-1.25q.48-5.61.87-11.21c0-.08,0-.16,0-.25A656.47,656.47,0,0,0,1769.7,418.3c0,.05,0,.11,0,.16l0-.1,0,0a11.72,11.72,0,0,0-.44-1.15c-.16-.38-.35-.77-.56-1.16v0h0l-.25-.45-.38-.64-.34-.53-.47-.67c-.21-.3-.45-.61-.69-.92l-.35-.45-.61-.73-.19-.22c-.45-.51-.93-1-1.45-1.57l-.17-.18c-.29-.3-.59-.59-.9-.9h0l-.08.5,0,0,.08-.5h0a67.76,67.76,0,0,0-6.15-5.21l0,0h0c-.32-.25-.65-.49-1-.73l-.77-.56-1.14-.81-.52-.36c-.93-.64-1.89-1.29-2.89-1.94l0,0h0c-2-1.29-4.14-2.61-6.44-3.93h0c-1-.58-2-1.17-3.11-1.75l-.08,0c-1.06-.58-2.15-1.17-3.27-1.75h0l0,.29h0l0-.29h0c-1-.54-2.09-1.09-3.18-1.63l0,0c-1.08-.55-2.18-1.09-3.31-1.64h0c-1-.5-2.09-1-3.16-1.51l-.1,0-3.27-1.5,0,0-.06,0c-1-.46-2.07-.93-3.13-1.39l-.34-.15-3.06-1.31h0l-.27-.11q-3-1.26-6.16-2.51l-.24-.1h0c-.91-.37-1.85-.73-2.78-1.09l-.67-.26-3.08-1.16,0,0h0l0,.21-.08,0,0-.21h0l-.09,0-3.2-1.18-3.41-1.23h0l-1.86-.64-1.75-.61-3-1-.08,0-.15-.05c-2-.68-4-1.34-6.13-2l-.43-.13h0l0,.18h0l0-.18h0l0,0-2.48-.78-1.73-.53-2.41-.74-.06,0h0l0,.17,0,0,0-.17h0l-.93-.27c-1.86-.56-3.73-1.11-5.64-1.65l-.16,0h0l0,.16h0l0-.16h0l-.17,0q-3-.86-6-1.68l-.64-.18-.08,0-2.37-.64c-1.23-.33-2.48-.66-3.74-1l-.55-.15-.07,0c-1.38-.36-2.78-.71-4.19-1.06l-2.55-.63-.1,0-.14,0q-3.27-.8-6.62-1.58l-.09,0-.11,0q-3.27-.76-6.6-1.5l-.12,0-.09,0q-3.3-.72-6.66-1.43l-.19,0-.08,0c-2.17-.45-4.35-.9-6.56-1.34l-.26-.05-.07,0-6.2-1.2-.52-.1h0l0,.11h0l0-.11h0l-.07,0c-2.25-.42-4.51-.84-6.81-1.24l-.06,0-1.06-.18-3.29-.57-2.48-.42-.07,0h0l0,.1h0l0-.1h0l-.69-.11-.26,0-3.53-.57c-.8-.13-1.59-.27-2.39-.39h-.07l-.54-.09-.5-.07-3.46-.53-1.6-.25h0c0-1.51,0-3,0-4.51a344.68,344.68,0,0,0-8-74c-.15-.73-.31-1.45-.47-2.18l-.63-2.72a334.27,334.27,0,0,0-34.92-89.65l-.34-.62c-1-1.74-2-3.45-3-5.17-.32-.55-.63-1.1-1-1.64-.79-1.33-1.61-2.63-2.42-3.94-.57-.93-1.12-1.86-1.7-2.78s-1.12-1.72-1.67-2.58c-.87-1.35-1.72-2.7-2.61-4-.23-.36-.48-.71-.72-1.07-.4-.6-.81-1.19-1.21-1.78l-.26-.39q-1.94-2.85-3.93-5.66c-.43-.6-.85-1.21-1.28-1.8-1-1.37-2-2.73-3-4.08l-2.22-3c-.69-.91-1.38-1.81-2.08-2.7q-1.56-2-3.15-4l-1.14-1.42c-1.36-1.69-2.73-3.38-4.12-5l-.08-.1a348,348,0,0,0-35.83-36.92c-.9-.8-1.8-1.61-2.71-2.4-.65-.57-1.31-1.12-2-1.69-1.54-1.32-3.1-2.64-4.66-3.94l-.48-.39a348.39,348.39,0,0,0-29.08-21.59l-.16-.11c-1.64-1.09-3.31-2.16-5-3.22l-1.62-1.05c-1.25-.79-2.52-1.55-3.78-2.33-1-.59-1.94-1.2-2.92-1.79s-1.83-1.07-2.74-1.6c-1.35-.8-2.7-1.6-4.06-2.37-.61-.35-1.23-.68-1.84-1-1.68-.94-3.35-1.88-5-2.79l-1-.56c-2-1.05-3.94-2.09-5.92-3.1l-.42-.21A334.9,334.9,0,0,0,1349.24,16l-.23-.07q-3.6-1.14-7.25-2.21l-1-.27q-3.26-.94-6.54-1.82c-.65-.18-1.31-.34-2-.5-1.86-.49-3.72-1-5.59-1.41-1.07-.26-2.16-.5-3.24-.75-1.44-.33-2.88-.67-4.33-1s-3.19-.66-4.79-1c-.94-.19-1.86-.39-2.8-.57-2.22-.42-4.45-.81-6.68-1.19l-.92-.17c-1.39-.23-2.79-.44-4.18-.65L1297.08,4l-1.33-.19c-2.33-.35-4.66-.68-7-1-1.24-.16-2.49-.29-3.73-.44-1.54-.18-3.07-.37-4.62-.52-2.17-.23-4.34-.42-6.52-.6-.62-.05-1.23-.12-1.85-.16Q1258.4,0,1244.5,0C1054.31,0,900.15,154.17,900.15,344.35a346.37,346.37,0,0,0,5.92,63.79l-3.09-.82-7.45-2-7.46-2-7.46-1.95-7.45-1.95-7.48-1.94-7.44-1.91-7.45-1.91-7.49-1.89L835.84,390l-7.48-1.86-7.48-1.84-7.46-1.8-7.5-1.8-7.48-1.77-7.5-1.74Q781.79,377,772.48,375T754,371q-9.19-1.95-18.52-3.83t-18.55-3.65q-9.24-1.75-18.61-3.43t-18.63-3.22q-9.28-1.54-18.68-3t-18.71-2.74q-9.35-1.3-18.77-2.49t-18.77-2.22q-9.36-1-18.81-1.93v.06h0v-.06q-9.42-.9-18.92-1.65t-19-1.34q-9.48-.6-19-1c-3.18-.14-6.35-.26-9.54-.38s-6.36-.21-9.54-.29-6.38-.16-9.57-.21-6.37-.1-9.57-.12-6.4,0-9.61,0h-3.8c-2.14,0-4.27,0-6.4.06q-4.83.06-9.62.16c-3.23.07-6.45.15-9.64.25s-6.47.22-9.68.36-6.47.29-9.68.45-6.48.35-9.69.55v0h0v0l-5.34.35L412,342c-1.8.13-3.59.27-5.38.42l-5.35.43-5.39.47q-5.4.5-10.71,1v.07h-.05v-.06l-5.41.56-5.38.61-5.41.64-5.42.67-5.41.7,0,.08h0l0-.08-5.43.74-5.42.78c-1.82.27-3.64.53-5.44.81l-5.45.84q-5.54.88-10.91,1.82c-1.82.32-3.63.63-5.43,1l0,.11h0l0-.12-5.45,1-5.49,1,0,.12h0l0-.12-5.47,1.09L298,357.71c-1.85.38-3.67.77-5.49,1.16s-3.66.8-5.46,1.21l-5.56,1.27,0,.14h0l0-.14q-2.79.64-5.52,1.3c-1.86.45-3.71.9-5.53,1.36s-3.72.93-5.55,1.4l0,.17h0l0-.17q-2.79.72-5.54,1.46l-5.57,1.51c-1.88.52-3.73,1.05-5.56,1.57s-3.75,1.09-5.59,1.63-3.76,1.13-5.6,1.7-3.77,1.17-5.62,1.77-3.75,1.21-5.59,1.82-3.79,1.27-5.64,1.9l-5.58,2,0,.23,0,0,0-.23q-2.88,1-5.66,2.08T203.23,385c-1.94.76-3.85,1.52-5.71,2.28s-3.83,1.6-5.68,2.4-3.91,1.7-5.77,2.54l0,.3h0l0-.3c-2,.91-3.89,1.81-5.74,2.7l-.06.32,0,0,0-.32q-3,1.46-5.79,2.9c-2.05,1.07-4,2.12-5.86,3.17-2.1,1.18-4.08,2.35-5.91,3.5l-.08.43h0l.08-.42c-2.21,1.38-4.2,2.73-6,4.05a57.76,57.76,0,0,0-6.19,5.12,26.79,26.79,0,0,0-3.92,4.57l-.13.2a1.86,1.86,0,0,1,.1-.2c-62.43,96-101.32,194.73-121,300-21.55,116.13-13,224.68,18.63,325.09,4.39,13.92,40.47,36.07,102.57,53.38,4.12,1.16,8.38,2.28,12.73,3.39l0-.15h0l0,.14c2.09.53,4.21,1.06,6.35,1.57s4.24,1,6.4,1.52l6.41,1.44,6.44,1.38q3.18.66,6.42,1.31l0-.12h0l0,.12c2.14.43,4.29.84,6.47,1.25s4.26.8,6.42,1.18,4.29.76,6.46,1.12v-.1h0l0,.1c2.15.37,4.31.72,6.49,1.07s4.27.67,6.43,1,4.33.64,6.51,1l0-.08h0l0,.08q6.39.91,13,1.73c2.16.28,4.35.54,6.55.8l6.56.74,6.5.68,6.56.64,6.55.59,6.57.53q3.28.25,6.6.48v0h.05v.05l6.58.43,6.54.38,6.62.35v0h0v0c2.2.1,4.39.21,6.61.3l6.58.24,6.63.19v0h0v0q3.31.09,6.66.15c2.19,0,4.39.08,6.6.11s4.42.06,6.65.07h7.25l6.67,0c2.23,0,4.46,0,6.69-.07l6.68-.11,6.7-.17c2.24-.06,4.47-.13,6.71-.21v0h0v0l6.72-.25,6.67-.28,6.71-.33v0h.05v0l6.74-.38c2.23-.13,4.46-.26,6.68-.41l6.74-.44v-.05h.05v0c2.26-.15,4.51-.31,6.77-.48l6.69-.52q3.41-.27,6.79-.57v0h.05v.06l6.77-.6,6.72-.63,6.79-.67v-.06h.05v.06l6.79-.71,6.73-.74L491,1114c2.26-.27,4.53-.53,6.79-.81v-.07h0v.07l6.81-.83,6.85-.88,6.81-.9,6.84-.94,6.84-1,6.83-1c2.29-.33,4.58-.68,6.86-1l6.84-1,6.84-1.08,6.9-1.12,6.86-1.13,6.85-1.16,6.88-1.2q6.92-1.22,13.78-2.46l0-.12h0l0,.12,6.88-1.27c2.3-.43,4.6-.85,6.89-1.29l0-.11.06,0,0,.12c2.31-.44,4.61-.87,6.91-1.32l6.84-1.33,6.9-1.36,6.92-1.38,6.91-1.41,6.93-1.42,6.91-1.45h0l6.91-1.46,7-1.49,6.92-1.5,13.87-3.06,6.93-1.55,6.95-1.57,7-1.59,6.92-1.59,7-1.61,7-1.62,6.95-1.64,7-1.64,7-1.66,7-1.66,13.92-3.35,7-1.68,7-1.69,7-1.68,7-1.7,6.95-1.68,7-1.69,0-.15h0l0,.15,7-1.69,6.89-1.66,7-1.67,7-1.66,3.08-.73,2.79-.66,1.66.36,1,.25,1.91.49,7.48,1.94,0-.15h0l0,.15,7.45,1.94,0-.15h0l0,.15,7.44,2,7.47,2,7.45,2,0-.15h0l0,.15,7.41,2,7.47,2,0-.15h0l0,.15,7.45,2,7.45,2,0-.14h0l0,.15,7.47,2,7.43,1.92,7.47,1.93,0-.15h0l0,.14,7.47,1.92,7.45,1.89,0-.14h0l0,.14,7.49,1.89,0-.14h0l0,.14,7.45,1.86q3.72.93,7.48,1.85l7.48,1.83,7.47,1.8,7.49,1.79,0-.13h0l0,.13,7.48,1.77,7.49,1.73,0-.13h0l0,.14,7.49,1.71,7.52,1.69,7.48,1.66,7.5,1.63,0-.13h0l0,.12,7.53,1.61,0-.13h0l0,.12,7.5,1.57,7.54,1.55,7.53,1.51,7.53,1.48,0-.12h0l0,.11c2.51.48,5,1,7.54,1.44l0-.11h0l0,.11,7.54,1.41,7.57,1.38v-.11h0v.11l7.54,1.34,0-.11h0l0,.1,7.57,1.3,7.57,1.27,7.57,1.23,0-.1h0l0,.1,7.6,1.19v-.09h0v.09c58.44,9,119.84,14.8,182.61,14.49h.59C1520.72,1121.37,1650.85,1068.71,1667.33,1043.4Zm-1388-479.35c-7.29,15.54-14.59,51.21-17.24,62.79,18-6.69,55.76-13.91,78.5-14.52l-13,47.87c-27.82.35-73.78,13.16-75.47,19.73-2.72,10.63-5.32,28.77-9,55.51-5.21,38.49-9,68.82,1,76.58-14,7.2-58.06,17.36-66.18,7.58-7.79-9.25,16.17-230.54,57.89-296.8,7.31-11.6,112.57-34.25,164.12-26v0h0l-18.49,53.92c-3-2.51-7.81-3.77-11.94-4C338.79,544.79,282.64,556.91,279.29,564.05Zm229.1,64.75c-24-16.76-53.67-1-63.22,22.37-14.31,35.19-35.25,138.41-15.73,145.38,0,0-58.35,8.93-64.32-3.54-7.87-16.41,17.32-116.82,22.95-141.72s.75-50-7.16-58.73c0,0,46.62-28.91,56.36-25.8h0c10.7,3.43,10,17.87,7.88,35.9,22-29.29,67.2-34.83,78.79-28.17Zm80.73,183s-55.14,1.64-64.34-8.65c-15.67-17.45,46.65-184.73,33.52-204.48,0,0,56.83-24.58,62.45-17.37C638.52,604,562.54,790.68,589.12,811.76ZM611,535.35c-18.54.94-34.33-13.5-35.31-32.44s13.28-35,31.79-36,34.39,13.57,35.34,32.47v0C643.82,518.29,629.54,534.41,611,535.35Zm180.3,124-40.2-7.58C740.29,694.49,725.67,757.8,723.83,768c-6.29,34.74,18.17,38.75,33,42.15-11.25,8.55-26.1,19.16-52,22.16-35.11,4-45.05-15.85-44.78-38,.2-18,32.12-139.72,34.6-152-9.25-1.66-27.74-4.18-37.82-5L678.56,595c5.57.63,16.63,1.82,24.49,2.93,2.49-12.94,7.81-36.39,4.59-43.66-1.26-2.89,48.09-20.76,55.63-18.3,4.17,1.37,4.52,10.07,3.94,20.58-.57,9.78-4.57,34.72-8.57,51.24l44.5,8.48v0Zm212.75,60.05c-2.83,78.41-46.81,153-134,146.83-49.81-3.53-74.34-33.61-72.5-84.53,3-84.11,56.64-149.74,132.23-144.34l0,0C979.13,640.82,1005.83,670.57,1004.05,719.36Zm176.53,201c-9.32,1.67-76.85-7.23-112.6-16.44-12-3.09-18.46-6.69-18.28-9.94,2.47-41.93,35.06-157.84,49-235.09,7.36-40.68,5.44-50.45-6.35-61.65,19.74-7.81,67.89-4.08,71.3,4.69,4.83,12.47,1.35,33.64-7.8,75.43-10.22,46.81-34.13,154.17-37.42,180.45h0c-.4,3.16,4.89,4.89,13.22,6.51,20.63,4,38,6,59.27,4.48a30.51,30.51,0,0,0,13.44-4.26S1193.05,918.1,1180.58,920.34Zm253.91-7.67c-12.41,12.32-29.41,20.67-44.23,24-8.08,1.77-16.82,2.88-24.6-.6-8.5-3.82-12.29-21.83-13.75-34.71-11,21.61-34.42,32.5-51.78,33.45-39.45,2.14-67.94-19.54-70.94-65.29-3.34-51.44,9.47-95,32.5-124,21.13-26.67,45.22-39.8,81.11-43.67a208,208,0,0,1,29-.82c19.86.66,39.65,3.62,47.37,8.58,1.32.89-15.17,148-10.13,174.82,2.72,14.58,6.25,21.71,25.45,28.27l0,0v0ZM1646,719.21c-.54,29.81-5.37,68.22-17.2,101.67-23.68,66.71-61.69,131.68-101.84,177.38-18.27,20.82-36.54,39.48-60.13,20.22-15.59-12.74-25.18-34.61-24.89-42,10.39,4.55,25.38,2.81,36.11-7,11.47-10.45,34.43-40.84,34.31-49.7-2.46-23.42-15.46-90.15-29.17-131.15-16.12-48.28-21.61-64.19-32.25-69.93,0,0,50.4-31.59,59.07-21.77,28.83,32.6,44.83,170.06,44.83,170.06s17.87-27.63,29.06-87.63c7.78-41.88,4.72-73.23,2.32-88.23l0,0s54.74-15.78,55.8-12.89C1645.27,687.21,1646.21,703.21,1646,719.21Z" transform="translate(-13.7)"/><line class="cls-1" x1="1795.51" y1="418.38" x2="1795.52" y2="418.38"/><path class="cls-1" d="M2205.61,1102.62a13,13,0,1,0-21.46,14.67h0l.05.08a12.84,12.84,0,0,0,17.67,4.18,13.2,13.2,0,0,0,4.25-18.08C2206,1103.18,2205.8,1102.9,2205.61,1102.62Z" transform="translate(-13.7)"/><polygon class="cls-1" points="2193.22 1007.48 2193.36 1007.48 2193.36 1007.24 2193.22 1007.48"/><path class="cls-1" d="M858.23,1310.26l9.09,14.77a66.94,66.94,0,0,0,29.18-28.12l30.88-59.71,13.7,4,12.21-11.48-19.6-5.75,5.46-10.35c2.89-5.21,7.89-7.19,13-5.65v0a17.23,17.23,0,0,1,7.48,4.65l12.29-9.65c-3.24-3.92-9.13-7.85-15.77-9.85-15.81-4.67-29-.5-37.28,15.08a70.73,70.73,0,0,0-4.61,10.1l-7.07-2-7.1,13,7.55,2.21L876.47,1291C872.37,1298.81,863.67,1307.26,858.23,1310.26Z" transform="translate(-13.7)"/><polygon class="cls-1" points="2202.36 1010.62 2202.36 1040.91 2206.22 1040.91 2206.22 1010.86 2215.36 1010.86 2215.59 1007.48 2193.36 1007.48 2193.36 1010.62 2202.36 1010.62"/><path class="cls-1" d="M1035.49,1332.5c31.3,6,51.38-18.61,56.74-46.38,3.27-17.23-5.81-29.06-23.55-32.47-27.15-5.24-50.22,15.81-55.94,45.6C1009.31,1317.3,1017.59,1329.12,1035.49,1332.5Zm-1.18-27.1c2.29-12,14.46-39.76,28.37-37.08,6.17,1.21,9.06,4.48,7.3,13.58-2.94,15.42-14.78,38.88-28.06,36.39C1036.07,1317.11,1032.85,1313,1034.31,1305.4Z" transform="translate(-13.7)"/><path class="cls-1" d="M2256.22,1007.27l-6.33,22.37c-.5,1.81-.91,3.65-1.23,5.5a54,54,0,0,0-1.32-5.9l-6.13-22h-5.88v0l-2.94,33.65h3.87l1.86-24c.14-2,.38-6.51.38-6.51s.6,2.78,1.67,6.57l6.68,23.92h3.44l7.19-25.13c.63-2.17,1.33-5.3,1.33-5.3s.09,3.6.23,5.75l2,24.71h4l-2.87-33.67Z" transform="translate(-13.7)"/><polygon class="cls-1" points="2066.41 1098.63 2089.41 1176.04 2107.95 1166.04 2083.89 1085.41 2066.41 1098.63"/><path class="cls-1" d="M1192.29,1241l-19.66-6-9.47,26.57c-1,3-2,6-2.81,9-1.46-1-7.49-3.25-13.26-4.08-9.3-1.26-18.91,1.55-27.18,7.42-12.66,9.22-21.25,25.82-23.4,41.47-2.52,18.59,4,29.12,20.64,31.4a27.81,27.81,0,0,0,21.36-6.63,31.43,31.43,0,0,0-.25,7.38l17.89,2.53c-.34-3.29.35-9.66,7.23-28.66Zm-51.44,81.44c-2.92,4-11.41,9.24-16.08,8.58-5.43-.72-7.53-5-6.53-12.59,1.38-10,6.88-23.63,14-30.62,3.53-3.62,7.7-5.26,11.71-4.72,4.57.55,8,2.2,9.72,4.48h0Z" transform="translate(-13.7)"/><polygon class="cls-1" points="2165.95 1092.07 2165.95 1092.06 2165.92 1092.07 2165.95 1092.07"/><polygon class="cls-1" points="2136.23 1024.32 2165.95 1092.06 2179.53 1083.55 2156.23 1007.48 2136.23 1024.32"/><path class="cls-1" d="M1833.72,1232.1l6.74,55,19.63-6.71-6.5-53.24c3.32-10.61,8-15.53,12.72-17.17,3.55-1.19,5.55-.75,6.83,3a42,42,0,0,1,1.29,7.2l6.45,53,19.59-6.72-6.84-55.72a52.94,52.94,0,0,0-2.49-11.12c-3.16-9.24-10.79-13.09-20.45-9.74-11.12,3.78-17.77,11.16-21.77,20.22-.82-3.34-4-9.62-6.15-11.68v0l-16,13.63C1830.24,1216.67,1832.72,1223.23,1833.72,1232.1Z" transform="translate(-13.7)"/><polygon class="cls-1" points="1471.59 1290.12 1471.55 1290.12 1471.54 1290.14 1471.59 1290.12"/><path class="cls-1" d="M1350.7,1361.77l21-.32,10.44-52.79c6.47-8.71,11-11.1,15.07-11.17a11.27,11.27,0,0,1,6.14,1.45l8.84-18.62a13.2,13.2,0,0,0-7.25-1.67c-7.85.13-15.26,5.31-22.26,12.59a27.56,27.56,0,0,0-2.08-13l0,0-19.39,8c1.67,5.17,2.09,12.24,0,22.31Z" transform="translate(-13.7)"/><path class="cls-1" d="M1838.38,452.11l1.86-24c.14-2.05.41-6.51.41-6.51s.57,2.81,1.65,6.56l6.68,23.9h3.43l7.21-25.11c.65-2.21,1.32-5.3,1.32-5.3s.11,3.58.25,5.74l2,24.67h4l-2.9-33.65h-5.92L1852,440.79a54.43,54.43,0,0,0-1.24,5.49,49.75,49.75,0,0,0-1.32-5.9l-6.12-22h-5.88l0,.08-3,33.65Z" transform="translate(-13.7)"/><path class="cls-1" d="M1201.94,1378.64l12,12.56a66.93,66.93,0,0,0,22.53-33.67l17.59-64.88,14.25,1,9.5-13.82-20.4-1.48,3.18-11.24c1.65-5.74,6.14-8.71,11.47-8.33l0,0a18,18,0,0,1,8.28,2.94l10-12a34,34,0,0,0-17.53-6.31c-16.41-1.2-28.42,5.63-33.27,22.63a71.68,71.68,0,0,0-2.34,10.86l-7.38-.48-4.17,14.15,7.84.53L1215.65,1356C1213.32,1364.53,1206.64,1374.64,1201.94,1378.64Z" transform="translate(-13.7)"/><path class="cls-1" d="M1266.85,1333c-.5,18.41,9.54,28.75,27.74,29.29,31.87,1,47.78-26.54,48.6-54.81.54-17.58-10.32-27.81-28.37-28.35h0C1287.24,1278.35,1267.85,1302.74,1266.85,1333Zm53.77-26.19c-.46,15.71-8.45,40.77-21.93,40.39-6-.18-9.81-3.76-9.57-11.45.32-12.28,8-41.62,22.09-41.21l0,0C1317.54,1294.82,1320.91,1297.6,1320.62,1306.84Z" transform="translate(-13.7)"/><path class="cls-1" d="M2113.71,1095l6.92-4,14,42.29a48.87,48.87,0,0,0,4.29,9.57c4,6.75,12.95,8.42,23.38,2.3a50.3,50.3,0,0,0,13.71-12l-6.42-11a27.31,27.31,0,0,1-6,5.3c-4.05,2.37-6.8,2.34-9-1.45a32.12,32.12,0,0,1-2.91-6.5l-13-39.13,12-7-.77-16.3-16.13,9.49c-2.65-7.94-5.05-16.75-6.75-24.32L2110.62,1058c1.1,6.31,2.79,11.29,5.4,18.86l-6.92,4Z" transform="translate(-13.7)"/><path class="cls-1" d="M1548,1266.71a36.59,36.59,0,0,0-24.6,14.49,67.53,67.53,0,0,0,1.56-10l1.33-13.6c.72-8.45.06-19.63-1.72-23l0,.05-20.29,9.09c1.57,4.26,2.1,10.07.81,22.38l-8.76,89.64,20.76-2.33,5.16-53.2c4.38-7.17,12.58-14.27,18.21-14.94,5.91-.74,7.83,2.12,7,10.26l-5.26,55,20.42-2.31,5.49-57.28a43.93,43.93,0,0,0,.27-10.25C1567.17,1270.34,1560.6,1265.29,1548,1266.71Z" transform="translate(-13.7)"/><path class="cls-1" d="M1456.15,1258.62c-1.79,6.08-2.52,11.31-3.52,19.31l-8,.57-2.15,14.64,8-.6-6.21,44.24a56.62,56.62,0,0,0-.4,10.41c.57,7.83,7.86,13.33,19.93,12.47a50.7,50.7,0,0,0,17.62-4.71l-.9-12.65a25.71,25.71,0,0,1-7.7,2.08c-4.72.32-7.16-.91-7.45-5.29a30.14,30.14,0,0,1,.29-7.1l5.63-40.87,14-1,6.54-14.9-18.65,1.27a243.87,243.87,0,0,1,4.76-24.72Z" transform="translate(-13.7)"/><path class="cls-1" d="M989.68,1236.83c-26.84-6.63-51,13.13-58.21,42.57-4.4,17.86,3.23,30.07,20.9,34.43,31,7.67,52.3-15.87,59.09-43.32C1015.65,1253.51,1007.22,1241.16,989.68,1236.83Zm-.19,28.27c-3.78,15.25-16.86,38.1-30,34.81-5.78-1.42-8.77-5.68-6.9-13.16,2.92-11.93,16.55-39,30.27-35.56h0C989,1252.67,991.71,1256.12,989.49,1265.1Z" transform="translate(-13.7)"/><path class="cls-1" d="M2005.84,1151l7.08-3.45,16.7,65.17c2.18,8.58,1.35,20.64-.7,26.5l16.63,4.87a67.2,67.2,0,0,0,2.91-40.4l-17-65.07,12.89-6.18,1.39-16.7-18.42,8.84-2.85-11.29c-1.36-5.84,1-10.67,5.84-13v0a18.09,18.09,0,0,1,8.68-1.53l2.68-15.39a33.77,33.77,0,0,0-18.3,3.18c-14.86,7.23-21.9,19.07-17.64,36.23a70.93,70.93,0,0,0,3.35,10.54l-6.66,3.22Z" transform="translate(-13.7)"/><path class="cls-1" d="M2093.9,1064.13a12.82,12.82,0,0,0-17.36-5.23,13.11,13.11,0,0,0-5.34,17.7l0,0a12.94,12.94,0,0,0,17.52,5.29h.08a13,13,0,0,0,5.15-17.63v0Z" transform="translate(-13.7)"/><polygon class="cls-1" points="2136.98 1073.35 2136.98 1073.35 2136.98 1073.37 2136.98 1073.35"/><path class="cls-1" d="M1978.21,1237.32c29.28-12.59,32.09-44.21,20.9-70.18-7-16.16-21.09-20.86-37.69-13.72-25.4,10.92-32.69,41.27-20.7,69.14C1948,1239.43,1961.44,1244.56,1978.21,1237.32Zm-13.44-68.57-.1.22c5.78-2.49,10-1.39,13.65,7.07,6.23,14.42,9.61,40.51-2.82,45.88-5.5,2.33-10.44.72-13.51-6.31C1957.29,1204.1,1951.8,1174.31,1964.77,1168.75Z" transform="translate(-13.7)"/><polygon class="cls-1" points="1795.52 421.76 1804.52 421.76 1804.52 452.03 1808.41 452.03 1808.41 421.76 1817.52 421.76 1817.78 418.38 1795.52 418.38 1795.52 421.76"/><path class="cls-1" d="M1617.89,1342.08c11.12-1.88,20.93-7.06,30.36-16.25l-7.42-12.15h0c-6.56,6.5-13.5,10.89-20.6,12.06-8.73,1.48-14-1.48-15.5-10.44-.32-2-.42-7.26-.42-7.26a39.33,39.33,0,0,0,9.63-.5c26.34-4.43,38.09-19,35.57-34-2.62-15.53-15-19.79-30.61-17.17-10.57,1.77-18.89,6.15-25.5,15.12-8.8,12-13.26,30.1-10.48,46.47C1586.12,1337.26,1599,1345.27,1617.89,1342.08Zm1.2-70.13c6.18-1,9,2,9.76,6.78,1.3,7.89-8.56,12.75-17.52,14.27a28,28,0,0,1-6,.25h0C1606.09,1279,1611.16,1273.25,1619.09,1272Z" transform="translate(-13.7)"/><path class="cls-1" d="M1795.35,1273.33c-1.61,5.68-7.14,14.42-13.32,16.19-2.43.73-5.53-1.2-6.53-4.51a61.1,61.1,0,0,1-1.45-10.86l-3.54-52.73h0l-19.8,9.75,3.68,52.48a58,58,0,0,0,2,12.69c2.74,9.68,11.42,13.72,23.34,10.35,9.09-2.62,15.37-9.07,19.61-16.07a24.16,24.16,0,0,0,6.57,9.28l15.56-11.93c-3.3-3-5.73-9.81-6.14-15.27l-4.26-62.64-19.22,9.85Z" transform="translate(-13.7)"/><path class="cls-1" d="M1737.12,1214.26l6-14.46a33.74,33.74,0,0,0-18.55-.78c-16.07,3.73-25.47,13.89-25.07,31.49a76.49,76.49,0,0,0,1,11l-7.16,1.71.22,14.73,7.67-1.73,2.17,67.21c.29,8.84-3.15,20.45-6.43,25.69l15.21,8.43a67.43,67.43,0,0,0,11.55-38.88l-2.47-67.15,13.93-3.28,5-16-19.87,4.67-.33-11.74c-.1-6,3.27-10.13,8.48-11.36l-.08.07A18.26,18.26,0,0,1,1737.12,1214.26Z" transform="translate(-13.7)"/></svg>