<?xml version="1.0" encoding="UTF-8" standalone="no"?> <!-- Generator: Adobe Illustrator 18.0.0, SVG Export Plug-In . SVG Version: 6.00 Build 0) --> <svg xmlns:dc="http://purl.org/dc/elements/1.1/" xmlns:cc="http://creativecommons.org/ns#" xmlns:rdf="http://www.w3.org/1999/02/22-rdf-syntax-ns#" xmlns:svg="http://www.w3.org/2000/svg" xmlns="http://www.w3.org/2000/svg" xmlns:sodipodi="http://sodipodi.sourceforge.net/DTD/sodipodi-0.dtd" xmlns:inkscape="http://www.inkscape.org/namespaces/inkscape" id="Layer_1" x="0px" y="0px" viewBox="0 0 217.4 40.7" xml:space="preserve" sodipodi:docname="logo-white (2).svg" inkscape:version="0.92.3 (2405546, 2018-03-11)"><metadata id="metadata49"></metadata><defs id="defs47"></defs> <g id="g42" style="fill:#ffffff"> <g id="g20" style="fill:#ffffff"> <path fill="#FFFFFF" d="M21.1,28.1c-0.8,1-2,1.8-3.6,2.6c-1.6,0.7-3.5,1.1-5.9,1.1c-3,0-5.4-0.9-7.3-2.8c-1.9-1.8-2.8-4.2-2.8-7.2 v-5.1c0-2.9,0.9-5.3,2.7-7.2C6,7.8,8.4,6.8,11.3,6.8c3.1,0,5.5,0.7,7,2.2c1.6,1.4,2.4,3.4,2.7,5.9l0,0.1h-5.3 c-0.2-1.3-0.6-2.2-1.2-2.9s-1.6-1-2.9-1s-2.4,0.5-3.2,1.6c-0.8,1-1.2,2.4-1.2,4v5.1c0,1.7,0.4,3.1,1.2,4.1s1.9,1.5,3.3,1.5 c1,0,1.8-0.1,2.4-0.3c0.6-0.2,1.1-0.4,1.4-0.7v-3.8h-3.8V19h9.5V28.1z" id="path2" style="fill:#ffffff"></path> <path fill="#FFFFFF" d="M44.6,21.5c0,3-0.9,5.5-2.8,7.4c-1.9,1.9-4.4,2.9-7.4,2.9c-3.1,0-5.6-1-7.5-2.9C24.9,27,24,24.5,24,21.5 v-4.4c0-3,1-5.4,2.9-7.4c1.9-1.9,4.4-2.9,7.5-2.9c3,0,5.5,1,7.4,2.9c1.9,1.9,2.9,4.4,2.9,7.4V21.5z M39,17.1 c0-1.7-0.4-3.2-1.2-4.3c-0.8-1.1-2-1.7-3.5-1.7c-1.5,0-2.7,0.6-3.5,1.7s-1.2,2.5-1.2,4.3v4.4c0,1.8,0.4,3.2,1.2,4.3 c0.8,1.1,2,1.7,3.5,1.7c1.5,0,2.6-0.6,3.4-1.7c0.8-1.1,1.2-2.5,1.2-4.3V17.1z" id="path4" style="fill:#ffffff"></path> <path fill="#FFFFFF" d="M100.4,31.5V7.2h6.7c2.8,0,5.2,1,7.1,3c1.9,2,2.9,4.6,2.9,7.7v3c0,3.1-1,5.7-2.9,7.7c-1.9,2-4.3,3-7.1,3 H100.4z M101.3,8.1v22.5h5.8c2.5,0,4.7-0.9,6.5-2.8s2.7-4.2,2.7-7v-3c0-2.8-0.9-5.1-2.7-6.9c-1.8-1.8-3.9-2.8-6.5-2.8H101.3z" id="path6" style="fill:#ffffff"></path> <path fill="#FFFFFF" d="M124.3,31.5h-0.9V7.2h0.9V31.5z" id="path8" style="fill:#ffffff"></path> <path fill="#FFFFFF" d="M148.8,28.9c-0.5,0.7-1.5,1.4-2.9,2c-1.5,0.6-3.2,0.9-5.3,0.9c-2.8,0-5-1-6.8-3c-1.7-2-2.6-4.6-2.6-7.7v-4 c0-3,0.8-5.5,2.5-7.5s3.9-2.9,6.6-2.9c2.6,0,4.6,0.7,6.1,2c1.5,1.3,2.3,3,2.3,5.1l0,0.1h-0.8c-0.1-1.9-0.8-3.4-2.1-4.6 c-1.3-1.2-3.2-1.8-5.6-1.8c-2.5,0-4.4,0.9-5.9,2.6s-2.2,4-2.2,6.8v4c0,2.9,0.8,5.2,2.3,7.1c1.5,1.8,3.6,2.7,6.1,2.7 c1.8,0,3.4-0.3,4.7-0.8c1.3-0.5,2.2-1.1,2.7-1.7v-7.1h-7.4v-0.9h8.3V28.9z" id="path10" style="fill:#ffffff"></path> <path fill="#FFFFFF" d="M156.7,31.5h-0.9V7.2h0.9V31.5z" id="path12" style="fill:#ffffff"></path> <path fill="#FFFFFF" d="M179.7,8.1h-8.8v23.4H170V8.1h-8.8V7.2h18.6V8.1z" id="path14" style="fill:#ffffff"></path> <path fill="#FFFFFF" d="M195.4,24.2h-11.9l-2.7,7.3h-1L189,7.2h1.1l9.1,24.3h-1L195.4,24.2z M183.9,23.3h11.2L190,9.6l-0.5-1.4 h-0.1L189,9.6L183.9,23.3z" id="path16" style="fill:#ffffff"></path> <path fill="#FFFFFF" d="M204,30.6h12.5v0.9h-13.4V7.2h0.9V30.6z" id="path18" style="fill:#ffffff"></path> </g> <g id="g24" style="fill:#ffffff"> <path fill="#0CD459" d="M72.3,39.3c-8.6,0-15.7-7-15.7-15.7S63.7,8,72.3,8C81,8,88,15,88,23.7S81,39.3,72.3,39.3z M72.3,9 c-8.1,0-14.7,6.6-14.7,14.7s6.6,14.7,14.7,14.7S87,31.8,87,23.7S80.4,9,72.3,9z" id="path22" style="fill:#ffffff"></path> </g> <g id="g28" style="fill:#ffffff"> <path fill="#0CD459" d="M72.3,31.3c-8.6,0-15.7-7-15.7-15.7S63.7,0,72.3,0C81,0,88,7,88,15.7S81,31.3,72.3,31.3z M72.3,1 c-8.1,0-14.7,6.6-14.7,14.7s6.6,14.7,14.7,14.7S87,23.8,87,15.7S80.4,1,72.3,1z" id="path26" style="fill:#ffffff"></path> </g> <g id="g32" style="fill:#ffffff"> <path fill="#0CD459" d="M76.3,35.3c-8.6,0-15.7-7-15.7-15.7S67.7,4,76.3,4C85,4,92,11,92,19.7S85,35.3,76.3,35.3z M76.3,5 c-8.1,0-14.7,6.6-14.7,14.7s6.6,14.7,14.7,14.7S91,27.8,91,19.7S84.4,5,76.3,5z" id="path30" style="fill:#ffffff"></path> </g> <g id="g36" style="fill:#ffffff"> <path fill="#0CD459" d="M68.3,35.3c-8.6,0-15.7-7-15.7-15.7S59.7,4,68.3,4C77,4,84,11,84,19.7S77,35.3,68.3,35.3z M68.3,5 c-8.1,0-14.7,6.6-14.7,14.7s6.6,14.7,14.7,14.7S83,27.8,83,19.7S76.4,5,68.3,5z" id="path34" style="fill:#ffffff"></path> </g> <g id="g40" style="fill:#ffffff"> <path fill="#0CD459" d="M76.9,25.9H67v-2.1l4.5-4.8c0.6-0.7,1-1.2,1.3-1.8s0.4-1,0.4-1.3c0-0.5-0.1-1-0.4-1.3 c-0.3-0.3-0.7-0.5-1.2-0.5c-0.5,0-0.9,0.2-1.2,0.6c-0.3,0.4-0.4,0.9-0.4,1.6h-3.2l0-0.1c0-1.3,0.4-2.4,1.3-3.3 c0.9-0.9,2.1-1.4,3.5-1.4c1.5,0,2.8,0.4,3.6,1.1s1.3,1.8,1.3,3.1c0,0.9-0.2,1.7-0.7,2.4s-1.3,1.7-2.5,3l-1.9,2l0,0.1h5.5V25.9z" id="path38" style="fill:#ffffff"></path> </g> </g> </svg> 