<svg id="layer" xmlns="http://www.w3.org/2000/svg" viewBox="0 0 599.96 212.91"><defs><style>.cls-1{fill:#e01a16;}.cls-2{fill:#0655a3;}</style></defs><path class="cls-1" d="M157.6,267c13.1-10,19.8-15.6,24-23,6-10.4,2.4-19.3-5.2-22.7a14.28,14.28,0,0,0-18.8,6.8,14.28,14.28,0,0,0-18.8-6.8c-7.6,3.5-11.2,12.3-5.2,22.7,4.2,7.4,10.9,13,24,23" transform="translate(-27.24 -220.02)"/><path class="cls-2" d="M115.9,321.9c-2,5.4-4.1,10.8-6,16.2,6,2.8,12.2,5.8,16.9,10.6-3,7.6-5.9,15.1-9,22.6a48.23,48.23,0,0,0-16.2-10.9c-3.3,8.8-6.6,17.7-9.8,26.5H66.3c3.8-10.2,7.6-20.5,11.4-30.7a24.68,24.68,0,0,0-21.3,11.1,15.26,15.26,0,0,0-2.6,10.1,27.53,27.53,0,0,0,10.1,19.4c7.9,6.6,18.3,9.3,28.3,10,8.3.6,16.8.1,24.8-2.6a37.51,37.51,0,0,0,18.4-12.6c6.1-7.7,8.5-17.9,7.8-27.7-.7-7.5-2.5-14.7-3.8-22.1a133.23,133.23,0,0,1-2.9-25.1,76,76,0,0,1-20.6,5.2m-27.1-51a16.93,16.93,0,0,0-.1,14.1c2.3,4.8,6,9.4,10.9,11.6,1-2.3,1.8-4.7,2.8-7.1,1.4-3.7,3.1-7.5,3.6-11.5a12.44,12.44,0,0,0-2.2-9.7,8.81,8.81,0,0,0-15,2.6m6.5-30.5h5.9a34.17,34.17,0,0,1,16.7,5.5,29.52,29.52,0,0,1,11.9,17,43.6,43.6,0,0,1-1.8,26c-1,2.9-2.1,5.8-3.1,8.7,4.8-1.3,9.5-3.5,12.9-7.2,3.7-3.8,5.6-8.9,6.8-14h26.1c-4.5,12-7.8,24.6-7.6,37.5.1,14.9,5.5,29,7,43.7,1.1,10,.8,20.2-2.1,29.9a58.82,58.82,0,0,1-13.9,24.2,64.06,64.06,0,0,1-23.4,15.4,90.86,90.86,0,0,1-35.4,5.8c-14.3-.3-28.8-3.6-41.2-11.2-10.6-6.5-19.4-16.3-23.8-28.1A47.88,47.88,0,0,1,31.5,357a42.81,42.81,0,0,1,20.2-20.3c10.8-5.2,23.1-6.5,34.9-5.3,1.6-4.3,3.3-8.6,4.9-12.9-9.9-4.3-19-11.4-24.2-21-8-14.5-6.2-34.2,5.3-46.4a34.71,34.71,0,0,1,22.7-10.7m99.6,128.2H200V353.1l6.6,10.1h.1l6.7-10.2v15.6h5.2V344.7H213l-6.2,10.1-6.2-10.1H195v23.9Zm39.2-6.4v-.9a8.05,8.05,0,0,0-3.3-.7c-2.2,0-3.6.9-3.6,2.5v.1c0,1.4,1.2,2.2,2.8,2.2,2.5,0,4.1-1.4,4.1-3.2m-11.8,1.1h0c0-4.1,3-5.9,7.3-5.9a11.16,11.16,0,0,1,4.4.8v-.3c0-2.1-1.3-3.3-3.9-3.3a13.1,13.1,0,0,0-5,1l-1.3-4a15.92,15.92,0,0,1,7.1-1.5c2.8,0,4.9.7,6.1,2a7.89,7.89,0,0,1,2,5.8v10.6h-5v-2a7,7,0,0,1-5.5,2.3c-3.4.1-6.2-1.8-6.2-5.5m20.6,5.3h5.2V363l1.8-1.9,4.6,7.5h6l-7.2-11.1,6.9-7.2H254l-6,6.6V343.6h-5.2v25Zm19.8-18.3h5.2v18.3h-5.2Zm-.1-6.6H268v4.6h-5.4Zm9.6,24.9h5.2V358.4c0-2.5,1.3-3.7,3.2-3.7s3.1,1.3,3.1,3.7v10.2h5.2V356.8c0-4.2-2.3-6.8-6.2-6.8a6.47,6.47,0,0,0-5.3,2.9v-2.6h-5.2v18.3Zm33.9-10h0a4.4,4.4,0,0,0-8.8-.1v.1a4.15,4.15,0,0,0,4.4,4.2,4.21,4.21,0,0,0,4.4-4.2M293,372.2l1.8-3.9a11.41,11.41,0,0,0,6.1,1.7c3.5,0,5.2-1.7,5.2-5v-.9a7.2,7.2,0,0,1-5.9,3c-4.2,0-8.1-3.1-8.1-8.5v-.1c0-5.5,3.9-8.5,8.1-8.5a7.54,7.54,0,0,1,5.9,2.7v-2.4h5.2v14.1c0,3.3-.8,5.7-2.3,7.2-1.7,1.7-4.3,2.5-7.8,2.5a17.72,17.72,0,0,1-8.2-1.9m32.5-3.6h5.2v-9.2H342v-4.8H330.7v-5.1h12.9v-4.8H325.5Zm34.4-9h0a4.81,4.81,0,0,0-4.8-5.1c-3,0-4.7,2.3-4.7,5v.1a4.76,4.76,0,1,0,9.5,0m-14.6,0h0a9.61,9.61,0,0,1,9.9-9.6,9.48,9.48,0,0,1,9.8,9.4v.1a9.86,9.86,0,0,1-19.7.1m36.6,0h0a4.81,4.81,0,0,0-4.8-5.1c-3,0-4.7,2.3-4.7,5v.1a4.78,4.78,0,0,0,4.8,5,4.7,4.7,0,0,0,4.7-5m-14.6,0h0a9.61,9.61,0,0,1,9.9-9.6,9.48,9.48,0,0,1,9.8,9.4v.1a9.86,9.86,0,0,1-19.7.1m36.2-.1h0c0-3.1-2-5.1-4.4-5.1s-4.4,2-4.4,5v.1c0,3,2,5,4.4,5s4.4-2,4.4-5m-14.1,0h0c0-6.2,4-9.5,8.3-9.5a7.26,7.26,0,0,1,5.7,2.7v-9h5.2v24.9h-5.2V366a6.8,6.8,0,0,1-5.7,3c-4.2-.1-8.3-3.4-8.3-9.5m43.5-2.7c2.6,0,4.1-1.6,4.1-3.6v-.1c0-2.4-1.6-3.6-4.2-3.6h-4v7.3Zm-9.4-12h9.7c5.7,0,9.1,3.4,9.1,8.3v.1c0,5.5-4.3,8.4-9.6,8.4h-4v7.2h-5.2Zm33.4,13.3c-.3-2.3-1.7-3.9-3.8-3.9s-3.5,1.5-3.9,3.9Zm-12.8,1.5h0c0-5.3,3.7-9.6,9-9.6,6.1,0,8.9,4.7,8.9,9.9a7.08,7.08,0,0,1-.1,1.4H449.2a4.16,4.16,0,0,0,4.4,3.6A5.71,5.71,0,0,0,458,363l3,2.6a9,9,0,0,1-7.4,3.4c-5.5,0-9.5-3.8-9.5-9.4m34.9,0h0a4.81,4.81,0,0,0-4.8-5.1c-3,0-4.7,2.3-4.7,5v.1a4.78,4.78,0,0,0,4.8,5,4.7,4.7,0,0,0,4.7-5m-14.6,0h0a9.61,9.61,0,0,1,9.9-9.6,9.48,9.48,0,0,1,9.8,9.4v.1a9.59,9.59,0,0,1-9.9,9.5,9.48,9.48,0,0,1-9.8-9.4m36.8-.1h0c0-3.1-2-5.1-4.4-5.1s-4.4,2-4.4,5v.1c0,3,2,5,4.4,5s4.4-1.9,4.4-5m-13.9-9.2h5.2v2.6a6.8,6.8,0,0,1,5.7-3c4.2,0,8.3,3.3,8.3,9.4v.1c0,6.1-4,9.4-8.3,9.4a7.26,7.26,0,0,1-5.7-2.7v7.8h-5.2Zm22.6,18.3h5.2V343.7h-5.2v24.9Zm21.5-10.5c-.3-2.3-1.7-3.9-3.8-3.9s-3.5,1.5-3.9,3.9Zm-12.8,1.5h0c0-5.3,3.7-9.6,9-9.6,6.1,0,8.9,4.7,8.9,9.9a7.08,7.08,0,0,1-.1,1.4H523.7a4.16,4.16,0,0,0,4.4,3.6,5.71,5.71,0,0,0,4.4-1.9l3,2.6a9,9,0,0,1-7.4,3.4c-5.5,0-9.5-3.8-9.5-9.4m31.4,9h17v-4.8H555.2V344.7H550Zm33.3-9h0a4.81,4.81,0,0,0-4.8-5.1c-3,0-4.7,2.3-4.7,5v.1a4.78,4.78,0,0,0,4.8,5,4.7,4.7,0,0,0,4.7-5m-14.6,0h0a9.61,9.61,0,0,1,9.9-9.6,9.48,9.48,0,0,1,9.8,9.4v.1a9.59,9.59,0,0,1-9.9,9.5,9.48,9.48,0,0,1-9.8-9.4m27.4,9.2h4.7l7.2-18.4h-5.4l-4.1,12.2-4.1-12.2H589Zm25.3-10.7c-.3-2.3-1.7-3.9-3.8-3.9s-3.5,1.5-3.9,3.9Zm-12.9,1.5h0c0-5.3,3.7-9.6,9-9.6,6.1,0,8.9,4.7,8.9,9.9a7.08,7.08,0,0,1-.1,1.4H613.6a4.16,4.16,0,0,0,4.4,3.6,5.71,5.71,0,0,0,4.4-1.9l3,2.6a9.58,9.58,0,0,1-16.9-6m-416-58.2c0,14.1,10.2,24.6,25,24.6a30.59,30.59,0,0,0,20.3-7.6V297.6H217.1v9.1h10.5v6.8a17,17,0,0,1-9.9,2.9c-8.4,0-14.4-6.4-14.4-15.2v-.1c0-8.1,6-14.9,13.7-14.9,5.5,0,8.8,1.8,12.4,4.8l6.6-8c-5-4.2-10.1-6.6-18.7-6.6a24.42,24.42,0,0,0-24.9,24.7v.3m78.3,2.6c-.6-4.6-3.3-7.8-7.7-7.8s-7.1,3.1-7.9,7.8ZM245,307v-.1c0-10.4,7.4-19.1,18-19.1,12.2,0,17.7,9.5,17.7,19.9,0,.8-.1,1.8-.1,2.7H255.2a8.49,8.49,0,0,0,8.9,7.2c3.5,0,6-1.1,8.8-3.8l5.9,5.3c-3.4,4.2-8.3,6.8-14.9,6.8-10.8.1-18.9-7.7-18.9-18.9m43.4,18.1h10.3V304.7c0-4.9,2.5-7.4,6.5-7.4s6.3,2.5,6.3,7.4v20.4h10.3V301.4c0-8.4-4.6-13.6-12.4-13.6-5.2,0-8.3,2.8-10.7,5.9v-5.2H288.4v36.6ZM354.7,304c-.6-4.6-3.3-7.8-7.7-7.8s-7.1,3.1-7.9,7.8ZM329,307v-.1c0-10.4,7.4-19.1,18-19.1,12.2,0,17.7,9.5,17.7,19.9,0,.8-.1,1.8-.1,2.7H339.2a8.49,8.49,0,0,0,8.9,7.2c3.5,0,6-1.1,8.8-3.8l5.9,5.3c-3.4,4.2-8.3,6.8-14.9,6.8-10.8.1-18.9-7.7-18.9-18.9m43.5,18.1h10.3V311.6c0-8.7,4.2-12.9,11.1-12.9h.5V287.8c-6.1-.3-9.5,3-11.6,8.1v-7.4H372.5Zm48.2-12.9v-1.8a16.47,16.47,0,0,0-6.6-1.4c-4.4,0-7.1,1.8-7.1,5.1v.1c0,2.8,2.3,4.4,5.6,4.4,4.9.1,8.1-2.6,8.1-6.4M397,314.6v-.1c0-8,6-11.7,14.7-11.7a25.42,25.42,0,0,1,8.9,1.5v-.6c0-4.3-2.6-6.7-7.8-6.7a26,26,0,0,0-10.1,2l-2.6-7.9a31.46,31.46,0,0,1,14.1-2.9c5.6,0,9.7,1.5,12.3,4.1s3.9,6.8,3.9,11.7v21.2h-10v-4c-2.5,2.8-6,4.6-11,4.6-6.8,0-12.4-3.9-12.4-11.2m42.9,10.5h10.3V275.2H439.9Zm41.1,0h10.3v-31l13.3,20.2h.3l13.4-20.4v31.2h10.4V277.3H517.4l-12.5,20.2-12.5-20.2H481Zm58.4-36.6h10.3v36.6H539.4Zm-.2-13.2H550v9.2H539.1v-9.2ZM560,325.1h10.3V275.2H560Zm20.5,0h10.3V275.2H580.5Zm17.2-4.8a25.4,25.4,0,0,0,15.6,5.5c7.9,0,13.9-3.7,13.9-11.8v-.1c0-6.7-5.9-9.2-11-10.9-3.9-1.4-7.4-2.3-7.4-4.4v-.1c0-1.4,1.3-2.5,3.8-2.5s6.3,1.3,9.9,3.4l3.9-7.2a24.76,24.76,0,0,0-13.6-4.2c-7.3,0-13.3,4.2-13.3,11.6v.1c0,7.1,5.8,9.5,10.9,11,4,1.2,7.5,2,7.5,4.2v.1c0,1.6-1.4,2.7-4.3,2.7-3.4,0-7.5-1.5-11.5-4.4l-4.4,7" transform="translate(-27.24 -220.02)"/></svg>