<svg width="120" height="93" viewBox="0 0 120 93" fill="none" xmlns="http://www.w3.org/2000/svg">
<path d="M13.5024 74.5873H10.6523C10.6123 74.5861 10.5726 74.5932 10.5354 74.608C10.4982 74.6227 10.4645 74.645 10.4362 74.6732C10.4079 74.7015 10.3857 74.7353 10.3709 74.7725C10.3561 74.8096 10.349 74.8494 10.3502 74.8894V76.4002C9.61519 75.2351 8.14522 74.2851 6.16076 74.2851C2.96494 74.2851 0.199219 76.7024 0.199219 80.9789C0.199219 85.2554 2.83428 87.6292 6.2887 87.6292C8.14522 87.6292 9.61519 86.8533 10.4346 85.642V86.4586C10.4346 88.3151 9.52808 89.7824 6.62353 89.7824C5.27996 89.815 3.97716 89.3195 2.99488 88.4023C2.96625 88.3718 2.93099 88.3483 2.89184 88.3337C2.85268 88.319 2.81067 88.3136 2.76908 88.3178C2.72748 88.322 2.68742 88.3358 2.65199 88.358C2.61656 88.3802 2.58672 88.4102 2.56478 88.4458L1.27992 90.6235C1.1057 90.8821 1.14925 91.0564 1.23636 91.1408C2.57567 92.3086 4.26069 93 6.76508 93C12.2094 93 13.8046 89.9757 13.8046 86.6492V74.835C13.7945 74.7633 13.7578 74.6981 13.7018 74.6522C13.6459 74.6063 13.5747 74.5831 13.5024 74.5873ZM7.1108 84.5204C5.16717 84.5204 3.74076 83.1376 3.74076 81.066C3.74076 78.9945 5.16717 77.6089 7.1108 77.6089C9.05442 77.6089 10.4781 78.9482 10.4781 81.066C10.4781 83.1839 9.05442 84.5204 7.1108 84.5204ZM20.022 69.75V87.2399C20.0232 87.2799 20.0161 87.3197 20.0013 87.3568C19.9865 87.394 19.9643 87.4278 19.936 87.4561C19.9078 87.4843 19.874 87.5066 19.8368 87.5213C19.7997 87.5361 19.7599 87.5432 19.7199 87.542H16.8698C16.8298 87.5432 16.79 87.5361 16.7528 87.5213C16.7156 87.5066 16.6819 87.4843 16.6536 87.4561C16.6253 87.4278 16.6031 87.394 16.5883 87.3568C16.5735 87.3197 16.5665 87.2799 16.5676 87.2399V69.75C16.5665 69.71 16.5735 69.6702 16.5883 69.633C16.6031 69.5959 16.6253 69.5621 16.6536 69.5338C16.6819 69.5055 16.7156 69.4833 16.7528 69.4685C16.79 69.4537 16.8298 69.4467 16.8698 69.4478H19.7199C19.7599 69.4467 19.7997 69.4537 19.8368 69.4685C19.874 69.4833 19.9078 69.5055 19.936 69.5338C19.9643 69.5621 19.9865 69.5959 20.0013 69.633C20.0161 69.6702 20.0232 69.71 20.022 69.75ZM28.488 74.3287C25.7658 74.3287 23.7378 75.2351 22.8313 77.0045C22.809 77.064 22.8051 77.1288 22.8202 77.1904C22.8352 77.2521 22.8685 77.3078 22.9157 77.3503L24.99 78.8202C25.0208 78.8414 25.0557 78.856 25.0925 78.8631C25.1292 78.8703 25.1671 78.8697 25.2036 78.8615C25.2401 78.8534 25.2746 78.8377 25.3048 78.8156C25.335 78.7935 25.3604 78.7655 25.3793 78.7331C25.94 77.696 27.2358 77.3503 28.488 77.3503C29.9988 77.3503 30.7338 77.911 30.7338 78.646V78.8611C30.7338 79.1659 30.5623 79.3374 30.0423 79.381L26.5035 79.6832C24.1298 79.8982 22.3576 81.3682 22.3576 83.7419C22.3576 86.1156 24.1733 87.7598 26.7131 87.7598C28.7411 87.7598 30.0369 86.7662 30.6848 85.7291V87.1991C30.684 87.2389 30.6913 87.2786 30.7062 87.3156C30.7212 87.3525 30.7434 87.3862 30.7716 87.4144C30.7998 87.4426 30.8334 87.4648 30.8704 87.4797C30.9074 87.4946 30.947 87.502 30.9869 87.5012H33.837C33.8771 87.5023 33.9171 87.4953 33.9544 87.4805C33.9917 87.4658 34.0256 87.4436 34.0541 87.4154C34.0826 87.3871 34.1051 87.3534 34.1202 87.3162C34.1353 87.279 34.1427 87.2392 34.1419 87.1991V79.5089C34.1473 75.9674 32.2446 74.3287 28.488 74.3287ZM30.7338 82.3182C30.7338 83.7419 29.5687 84.9941 27.753 84.9941C26.5443 84.9941 25.94 84.4333 25.94 83.614C25.94 82.879 26.5008 82.3618 27.5379 82.1876L30.7338 81.7983V82.3182ZM47.7065 83.614C47.7065 86.5512 45.5478 87.8034 42.1369 87.8034C39.7605 87.8034 37.7297 87.1555 36.5646 85.8598C36.522 85.8038 36.4989 85.7354 36.4989 85.6651C36.4989 85.5948 36.522 85.5264 36.5646 85.4705L38.1979 83.3526C38.2252 83.3223 38.2586 83.2981 38.2959 83.2815C38.3332 83.2649 38.3735 83.2563 38.4143 83.2563C38.4552 83.2563 38.4955 83.2649 38.5328 83.2815C38.5701 83.2981 38.6034 83.3223 38.6308 83.3526C39.4937 84.2618 40.833 84.779 42.4745 84.779C43.4245 84.779 44.2003 84.5204 44.2003 83.7855C44.2003 83.094 43.5089 82.9225 41.3502 82.4462C39.4447 82.0596 37.0737 81.194 37.0737 78.3874C37.0737 75.7959 39.148 74.2851 42.518 74.2851C44.7638 74.2851 46.3644 74.9765 47.486 76.011C47.5149 76.0333 47.5391 76.0612 47.557 76.093C47.575 76.1249 47.5863 76.16 47.5904 76.1963C47.5944 76.2327 47.5912 76.2694 47.5807 76.3045C47.5702 76.3395 47.5528 76.3721 47.5295 76.4002L45.9752 78.431C45.8881 78.5589 45.673 78.6025 45.5859 78.4745C44.6562 77.7283 43.4949 77.3306 42.303 77.3503C41.2141 77.3503 40.6697 77.696 40.6697 78.2567C40.6697 78.9046 41.3611 79.0734 43.6504 79.5525C45.8064 80.0724 47.7065 80.8918 47.7065 83.614ZM60.8382 83.614C60.8382 86.5512 58.6768 87.8034 55.2659 87.8034C52.8895 87.8034 50.8615 87.1555 49.6936 85.8598C49.651 85.8038 49.628 85.7354 49.628 85.6651C49.628 85.5948 49.651 85.5264 49.6936 85.4705L51.3269 83.3526C51.3543 83.3223 51.3876 83.2981 51.4249 83.2815C51.4622 83.2649 51.5025 83.2563 51.5434 83.2563C51.5842 83.2563 51.6245 83.2649 51.6618 83.2815C51.6991 83.2981 51.7325 83.3223 51.7598 83.3526C52.6227 84.2618 53.962 84.779 55.6035 84.779C56.5535 84.779 57.3293 84.5204 57.3293 83.7855C57.3293 83.094 56.6406 82.9225 54.4792 82.4462C52.5737 82.0596 50.2054 81.194 50.2054 78.3874C50.2054 75.7959 52.277 74.2851 55.6497 74.2851C57.8955 74.2851 59.4934 74.9765 60.615 76.011C60.6439 76.0333 60.6681 76.0612 60.686 76.093C60.704 76.1249 60.7153 76.16 60.7194 76.1963C60.7234 76.2327 60.7202 76.2694 60.7097 76.3045C60.6992 76.3395 60.6818 76.3721 60.6585 76.4002L59.1042 78.431C59.0171 78.5589 58.802 78.6025 58.7149 78.4745C57.9391 77.7831 56.6842 77.3503 55.432 77.3503C54.3431 77.3503 53.7987 77.696 53.7987 78.2567C53.7987 78.9046 54.4901 79.0734 56.7794 79.5525C58.949 80.0724 60.8382 80.8918 60.8382 83.614ZM75.9952 69.4587H73.1451C73.1051 69.4576 73.0653 69.4646 73.0281 69.4794C72.991 69.4942 72.9572 69.5164 72.9289 69.5447C72.9006 69.573 72.8784 69.6067 72.8636 69.6439C72.8489 69.6811 72.8418 69.7209 72.8429 69.7609V76.4982C72.3628 75.8011 71.7168 75.2343 70.9632 74.8489C70.2095 74.4636 69.3718 74.2717 68.5256 74.2905C65.3706 74.2905 62.6947 76.7078 62.6947 81.0715C62.6947 85.4351 65.3706 87.8497 68.5664 87.8497C70.4719 87.8497 71.9365 87.033 72.8429 85.691V87.2045C72.8422 87.2444 72.8495 87.284 72.8644 87.321C72.8794 87.358 72.9016 87.3916 72.9298 87.4198C72.958 87.448 72.9916 87.4702 73.0286 87.4852C73.0656 87.5001 73.1052 87.5074 73.1451 87.5067H75.9952C76.0352 87.5078 76.075 87.5007 76.1122 87.486C76.1493 87.4712 76.1831 87.449 76.2114 87.4207C76.2397 87.3924 76.2619 87.3586 76.2767 87.3215C76.2915 87.2843 76.2985 87.2445 76.2974 87.2045V69.7064C76.2904 69.6325 76.255 69.5642 76.1986 69.5159C76.1422 69.4677 76.0693 69.4432 75.9952 69.4478V69.4587ZM69.6036 84.5313C67.6599 84.5313 66.2362 83.1485 66.2362 81.0769C66.2362 79.0053 67.6599 77.6198 69.6036 77.6198C71.5091 77.6198 72.9736 78.9591 72.9736 81.0769C72.9736 83.1947 71.5036 84.5204 69.6036 84.5204V84.5313ZM85.3241 74.2905C81.3524 74.2905 78.3717 77.0127 78.3717 81.0715C78.3717 85.0867 81.3524 87.8497 85.3241 87.8497C89.2957 87.8497 92.2792 85.1275 92.2792 81.0715C92.2792 77.0481 89.342 74.2905 85.3241 74.2905ZM85.3241 84.4823C83.3804 84.4823 81.8696 83.0995 81.8696 81.0279C81.8696 78.9563 83.3804 77.5708 85.3241 77.5708C87.2677 77.5708 88.7812 78.9536 88.7812 81.0279C88.7812 83.1022 87.2595 84.4769 85.3241 84.4769V84.4823ZM101.143 74.2905C97.1709 74.2905 94.1902 77.0127 94.1902 81.0715C94.1902 85.0867 97.1709 87.8497 101.143 87.8497C105.114 87.8497 108.098 85.1275 108.098 81.0715C108.087 77.0481 105.106 74.2905 101.143 74.2905ZM101.143 84.4823C99.199 84.4823 97.6881 83.0995 97.6881 81.0279C97.6881 78.9563 99.1881 77.5571 101.143 77.5571C103.097 77.5571 104.597 78.94 104.597 81.0143C104.597 83.0886 103.075 84.4769 101.143 84.4769V84.4823ZM119.24 74.8949C119.234 74.8243 119.211 74.756 119.174 74.6959C119.137 74.6357 119.085 74.5854 119.024 74.5492C118.752 74.4185 118.377 74.3341 117.555 74.3341C115.742 74.3341 114.144 75.2406 113.452 76.7078V74.8894C113.453 74.8494 113.446 74.8096 113.432 74.7725C113.417 74.7353 113.395 74.7015 113.366 74.6732C113.338 74.645 113.304 74.6227 113.267 74.608C113.23 74.5932 113.19 74.5861 113.15 74.5873H110.428C110.388 74.5861 110.348 74.5932 110.311 74.608C110.274 74.6227 110.24 74.645 110.212 74.6732C110.183 74.7015 110.161 74.7353 110.146 74.7725C110.132 74.8096 110.125 74.8494 110.126 74.8894V87.2399C110.125 87.2799 110.132 87.3197 110.146 87.3568C110.161 87.394 110.183 87.4278 110.212 87.4561C110.24 87.4843 110.274 87.5066 110.311 87.5213C110.348 87.5361 110.388 87.5432 110.428 87.542H113.278C113.318 87.5432 113.358 87.5361 113.395 87.5213C113.432 87.5066 113.466 87.4843 113.494 87.4561C113.522 87.4278 113.545 87.394 113.559 87.3568C113.574 87.3197 113.581 87.2799 113.58 87.2399V81.7139C113.58 79.2639 115.309 77.9981 117.555 77.9981C117.995 78.0063 118.431 78.0787 118.85 78.2132C118.892 78.2248 118.935 78.2265 118.977 78.2181C119.019 78.2097 119.059 78.1915 119.092 78.165C119.126 78.1385 119.153 78.1043 119.171 78.0654C119.189 78.0265 119.198 77.9838 119.196 77.941L119.24 74.8949Z" fill="#4DA74F"/>
<path d="M71.6323 0C73.7391 0.00216188 75.7589 0.840022 77.2486 2.32972C78.7383 3.81941 79.5762 5.83926 79.5783 7.946H47.8351V40.5113C47.8359 40.5512 47.8286 40.5908 47.8136 40.6278C47.7987 40.6648 47.7765 40.6984 47.7483 40.7266C47.7201 40.7548 47.6865 40.777 47.6495 40.7919C47.6125 40.8069 47.5729 40.8142 47.533 40.8134H40.1831C40.1432 40.8146 40.1034 40.8075 40.0662 40.7927C40.029 40.7779 39.9953 40.7557 39.967 40.7274C39.9387 40.6992 39.9165 40.6654 39.9017 40.6282C39.8869 40.5911 39.8798 40.5513 39.881 40.5113V7.946C39.8831 5.83926 40.721 3.81941 42.2107 2.32972C43.7004 0.840022 45.7202 0.00216188 47.827 0H71.6323ZM71.6323 47.6379H39.8919C39.894 49.7447 40.7319 51.7645 42.2216 53.2542C43.7113 54.7439 45.7311 55.5817 47.8379 55.5839H71.6323C73.7391 55.5817 75.7589 54.7439 77.2486 53.2542C78.7383 51.7645 79.5762 49.7447 79.5783 47.6379V15.0291C79.5794 14.9891 79.5724 14.9493 79.5576 14.9121C79.5428 14.875 79.5206 14.8412 79.4923 14.8129C79.464 14.7846 79.4303 14.7624 79.3931 14.7476C79.3559 14.7328 79.3161 14.7258 79.2762 14.7269H71.9263C71.8864 14.7262 71.8468 14.7335 71.8098 14.7484C71.7728 14.7633 71.7392 14.7856 71.711 14.8138C71.6828 14.842 71.6606 14.8756 71.6456 14.9126C71.6307 14.9496 71.6234 14.9892 71.6241 15.0291V47.6379H71.6323Z" fill="#4DA74F"/>
<path d="M80.381 54.5169V54.6911H80.0707V55.5077H79.8474V54.6911H79.5371V54.5223L80.381 54.5169ZM81.0534 55.0776C81.0534 55.1076 81.0534 55.1076 81.0833 55.1348C81.1132 55.162 81.0833 55.162 81.1105 55.1892C81.1105 55.162 81.1105 55.162 81.1377 55.1348C81.1398 55.1131 81.1494 55.0929 81.165 55.0776L81.4372 54.574C81.4368 54.5702 81.4372 54.5664 81.4384 54.5628C81.4396 54.5591 81.4416 54.5558 81.4441 54.553C81.4467 54.5502 81.4498 54.5479 81.4533 54.5464C81.4568 54.5448 81.4606 54.5441 81.4644 54.5441H81.6604V55.5567H81.4644V54.9088L81.4916 54.77L81.184 55.3308C81.1541 55.358 81.1541 55.3879 81.0996 55.3879H81.0724C81.0425 55.3879 81.0152 55.358 80.988 55.3308L80.6777 54.77V55.5077H80.4817V54.4978H80.6777L80.7049 54.525L81.0534 55.0776Z" fill="#4DA74F"/>
</svg>
