<svg id="Layer_1" data-name="Layer 1" xmlns="http://www.w3.org/2000/svg" viewBox="0 0 121.8 121.9"><path d="M100.2,56h21.6v9.9H100.2v.4L121.3,72c-.9,3.2-1.7,6.3-2.6,9.6L97.6,75.9l-.2.3,19,11-5,8.6L92.5,85l15.3,15.2-7.3,7.2-15-15-.5.3,10.8,18.6-8.6,5-11-19h-.3c1.9,7,3.7,14,5.6,21.2l-9.6,2.6-5.7-21.1h-.3v21.8H56V100.3h-.4c-1.9,6.9-3.7,13.8-5.6,20.9l-9.6-2.6c1.8-7,3.7-14,5.5-21h-.3L34.8,116.3l-8.7-5L36.8,93l-.3-.2L21.7,107.6l-7.2-7.2L29.8,85.2l-.3-.3L10.6,95.8l-5-8.6,18.8-11V76l-21,5.6L.8,72l21.1-5.7V66H0V56H21.8v-.4L.7,49.9l2.5-9.6,21.2,5.6v-.3l-19-11,5-8.6L29.6,37,14.3,21.8l7.3-7.2L36.2,29.3l.5-.3L26.1,10.5l8.6-5L45.6,24.3h.3c-1.8-7-3.7-13.9-5.5-21L50,.6l5.6,20.9H56V0h9.9V21.8h.4L72,.7l9.6,2.5c-1.9,7.2-3.8,14.2-5.7,21.3h.3l11-19,8.6,5L85.1,29.3h.2l14.9-14.9,7.2,7.2L92.5,36.4l.3.4,18.5-10.6,5,8.6L97.5,45.6v.3l21-5.6c.9,3.2,1.7,6.2,2.6,9.6l-21.1,5.7ZM74.9,27.5,27.5,47,47,94.4,94.4,74.9C87.9,59,81.5,43.3,74.9,27.5Z" transform="translate(0 0)" style="fill:#fff"/></svg>