<svg id="Layer_1" data-name="Layer 1" xmlns="http://www.w3.org/2000/svg" viewBox="0 0 317.5 121.9"><path d="M100.2,56h21.6v9.9H100.2v.4l21.1,5.6c-.9,3.2-1.7,6.4-2.6,9.7L97.5,75.9v.3l19,11-5,8.6L92.5,85l15.3,15.2-7.3,7.2-15-15-.5.3,10.8,18.6-8.6,5-11-19-.3.2c1.9,7,3.7,14,5.6,21.1l-9.6,2.6-5.7-21.1h-.3v21.8H56V100.4h-.4l-5.7,20.9-9.6-2.5c1.9-7.1,3.7-14,5.6-21l-.3-.2L34.8,116.3l-8.7-5L36.8,93l-.3-.2L21.7,107.6l-7.2-7.2L29.8,85.2l-.3-.3L10.6,95.8l-5-8.6L24.4,76.3V76l-21,5.6L.8,71.9l21.1-5.7v-.3H0V56H21.8v-.4L.7,49.9l2.5-9.6,21.2,5.6v-.3l-19-11,5-8.6L29.6,37,14.3,21.8l7.3-7.2L36.2,29.4l.5-.4L26.1,10.5l8.6-5L45.6,24.3h.3c-1.8-6.9-3.7-13.9-5.5-21L49.9.6l5.7,20.9h.3V0h9.9V21.8h.4c2-7,3.9-14.1,5.8-21.2l9.6,2.6L75.9,24.5h.3l11-19,8.6,5L85,29.3h.3l14.9-14.9,7.2,7.2L92.5,36.4l.3.4,18.5-10.6,5,8.6L97.5,45.6v.3l21-5.6c.9,3.2,1.7,6.3,2.6,9.6L100,55.6ZM74.9,27.5,27.5,47,47,94.4,94.4,74.9C87.9,59,81.5,43.4,74.9,27.5Z" style="fill:#fff"/><path d="M265.4,49.1c7.3,0,12.1,4.8,12.1,12s-4.8,12-12.2,12-12.1-4.7-12.1-11.9S258,49.1,265.4,49.1Zm9.4,12.2c0-5.9-4-10-9.5-10a9.2,9.2,0,0,0-9.5,8.9V61c0,5.9,3.9,9.9,9.6,9.9S274.8,66.9,274.8,61.3Z" style="fill:#fff"/><path d="M161.3,29.3c-2,0-3.9-.1-5.6,0s-2.4-.6-2.6-2.2h10.4V37.2a1.1,1.1,0,0,1-.6.7c-5,2.3-10.1,3.1-15.2.1s-6-8.2-4.6-13.6a11.1,11.1,0,0,1,10.2-8.1,24.4,24.4,0,0,1,9.7,1.1l-.5,2c-2-.2-3.8-.6-5.7-.7a15.5,15.5,0,0,0-4.8.2c-4.4,1.1-7,4.9-6.8,9.6s3.3,8.5,7.9,8.8c2.4.2,4.9-.5,7.3-1a1.2,1.2,0,0,0,.8-1.1C161.3,33.4,161.3,31.5,161.3,29.3Z" style="fill:#fff"/><path d="M255.9,39.5V16.3c4.4,0,8-.3,12.1.7s8.2,6.6,7.7,11.9-4,10-9.3,10.5C263,39.7,259.5,39.5,255.9,39.5Zm2.5-2.1h6.1a8.6,8.6,0,0,0,8.5-7.8c.6-5.1-1.8-9.4-6.2-10.3a33.9,33.9,0,0,0-8.4-.5Z" style="fill:#fff"/><path d="M146.3,84.8v20.7h-2.4c-.3,0-.3-23.2,0-23.2,4.2,0,7.4-.4,11.4.2s4.7,3.2,5.3,5.9-1.3,7.2-4.3,8c.3.4,2.8,6.6,3.8,9h-2.8l-3.5-8.1h-3.9l-1.1-2.2c1.4-.2,3.6.1,5.1-.2,3.2-.6,4.5-2.6,4.3-5.7s-1.7-4.2-4.7-4.4Z" style="fill:#fff"/><path d="M183.7,92.8v2.4H171.8v8.2h13.3v2.1H169.3V82.7h15.8v2.1H171.8v8Z" style="fill:#fff"/><path d="M159.5,52.4q-3.3-.6-6.6-.9a10.5,10.5,0,0,0-4.3.7,3.3,3.3,0,0,0-2.2,3.5,2.9,2.9,0,0,0,2.5,2.9l4.8,1.3,3.5,1.1a5.3,5.3,0,0,1,3.8,5.5,6,6,0,0,1-3.9,5.8c-3.4,1.4-6.8,1-10.2.2s-2.5-.6-3.2-3.1c2.4.5,4.8,1,7.3,1.3a14,14,0,0,0,5-.6,3.8,3.8,0,0,0,2.3-4.7,3.7,3.7,0,0,0-2.3-2.3c-1.7-.6-3.5-1-5.3-1.5a32,32,0,0,1-3.1-.8c-1-.4-3.8-2.1-3.9-4.7a6.2,6.2,0,0,1,3.5-6c3.4-1.7,7.1-1.1,10.6-.2C158.4,50.1,158.8,51.3,159.5,52.4Z" style="fill:#fff"/><path d="M255.3,82.6h2.2v20.8h12.8v2.1h-15Z" style="fill:#fff"/><path d="M285.4,72.5V49.6h2.3V72.5Z" style="fill:#fff"/><path d="M302.9,49.6h2.3v23h-2.3Z" style="fill:#fff"/><path d="M245.1,72.6h-2.3V49.7h2.3Z" style="fill:#fff"/><path d="M315.3,49.6h2.2v23h-2.2Z" style="fill:#fff"/><path d="M245.8,105.6h-2.3V82.7h2.3Z" style="fill:#fff"/><path d="M228.9,39.6h-2.2V16.7h2.2Z" style="fill:#fff"/><path d="M244.2,16.7h2.2V39.6h-2.2Z" style="fill:#fff"/><path d="M283.5,16.7h2.3V39.6h-2.3Z" style="fill:#fff"/><path d="M202.4,105.5h-2.3V87.3h2.3Z" style="fill:#fff"/><path d="M165.8,51.7v-2h20.3c.5,2.1.4,2.1-1.5,2.1H165.8Z" style="fill:#fff"/><path d="M191,82.6h20.5v2.2H191Z" style="fill:#fff"/><path d="M175,54.3h2.2V72.5H175Z" style="fill:#fff"/><path d="M200.8,28.1l-4.7,11.5h2.8c1-2.6,2.2-5.4,2.3-5.5h10.1l-1.1-2.3H202L207.8,18c2.6,6.5,6.3,15.2,8.8,21.6h2.8L210,16.7h-4.5C204.1,20.2,202.1,25,200.8,28.1Z" style="fill:#fff"/><path d="M233.2,16.7h-2.8c2.7,6.5,6.9,16.6,9.4,22.9h2.8C240,33.2,235.8,23.2,233.2,16.7Z" style="fill:#fff"/><path d="M183.4,31.2c.3.6,2.3,5.2,3.6,8.4h2.7l-3.8-9.2,1.4-.9a7,7,0,0,0,2.7-7.1c-.4-2.8-3.1-6-8-6h-8.9V39.6h2.4V18.8c2.5,0,4.7-.1,7,0s4.9,1.9,5.1,4.4a5.1,5.1,0,0,1-4.3,5.7,27.9,27.9,0,0,1-5,.2l.9,2.2Z" style="fill:#fff"/><path d="M192.7,60.9c-1,2.5-3,7.3-4.7,11.7h2.7c1.2-2.8,2.3-5.6,2.4-5.7h10.1a16.3,16.3,0,0,0-1.1-2.3h-8.2l5.7-13.8c2.7,6.5,6.3,15.1,9,21.8h2.7c-2.9-7-6.8-16.6-9.4-23.1h-4.5C196,53,194,57.8,192.7,60.9Z" style="fill:#fff"/><path d="M218.3,94.1c-1,2.5-3,7.3-4.6,11.4h2.7c1-2.5,2.2-5.3,2.3-5.4h10.1a16.3,16.3,0,0,0-1.1-2.3h-8.1c2-4.8,3.7-9.1,5.7-13.8l8.8,21.5h2.8c-2.8-6.8-6.8-16.3-9.4-22.8H223C221.6,86.2,219.6,91,218.3,94.1Z" style="fill:#fff"/><path d="M301.5,72.5c-3-7.1-7-16.7-9.5-23h-2.8l9.5,23Z" style="fill:#fff"/><path d="M221.4,68.8l12.1-15.6a3.6,3.6,0,0,0,.8-3.6H217.1v2.2h14L216.5,70.7v1.9h18V70.3H220.4Z" style="fill:#fff"/></svg>