<?xml version="1.0" encoding="utf-8"?>
<!-- Generator: Adobe Illustrator 25.4.1, SVG Export Plug-In . SVG Version: 6.00 Build 0)  -->
<svg version="1.1" id="Layer_1" xmlns="http://www.w3.org/2000/svg" xmlns:xlink="http://www.w3.org/1999/xlink" x="0px" y="0px"
	 viewBox="0 0 78 57" style="enable-background:new 0 0 78 57;" xml:space="preserve">
<style type="text/css">
	.st0{fill:#D9D9D9;filter:url(#Adobe_OpacityMaskFilter);}
	.st1{mask:url(#mask0_969_631_00000165210528150190753910000000403962366763054740_);}
	.st2{fill:#FFFFFF;}
</style>
<defs>
	<filter id="Adobe_OpacityMaskFilter" filterUnits="userSpaceOnUse" x="0" y="20" width="77.1" height="16.9">
		<feColorMatrix  type="matrix" values="1 0 0 0 0  0 1 0 0 0  0 0 1 0 0  0 0 0 1 0"/>
	</filter>
</defs>
<mask maskUnits="userSpaceOnUse" x="0" y="20" width="77.1" height="16.9" id="mask0_969_631_00000165210528150190753910000000403962366763054740_">
	<rect class="st0" width="77.1" height="57"/>
</mask>
<g class="st1">
	<path class="st2" d="M71,29.1c1.3,1.4,2.5,2.5,3.5,3.6c1,1,1.9,1.9,2.6,2.5c0,0.5-0.2,0.8-0.5,1c-0.3,0.2-0.6,0.4-1,0.4
		s-0.7-0.1-1-0.3c-0.3-0.2-0.5-0.5-0.8-0.7l-5.4-5.7v6.6c-0.1,0-0.3,0.1-0.5,0.1c-0.2,0-0.5,0.1-0.7,0.1c-0.5,0-0.9-0.1-1-0.3
		c-0.2-0.2-0.3-0.5-0.3-0.9V21.9c0.1,0,0.3,0,0.5-0.1c0.2,0,0.5,0,0.7,0c0.5,0,0.8,0.1,1,0.3s0.4,0.5,0.4,1v5.4l0-1.9L71,29.1z
		 M70,26.8l4.7-5c0.6,0,1,0.1,1.3,0.4c0.3,0.2,0.4,0.5,0.4,0.9c0,0.3-0.1,0.5-0.2,0.8c-0.1,0.2-0.4,0.5-0.6,0.8L72.1,28
		c-0.3,0.3-0.8,0.3-1.1,0L70,26.8z"/>
	<path class="st2" d="M30.1,32.8h-5.8v3.6c-0.1,0-0.3,0.1-0.5,0.1c-0.2,0-0.5,0-0.7,0c-0.5,0-0.9-0.1-1-0.3
		c-0.2-0.2-0.3-0.5-0.3-0.9V21.9c0.1,0,0.3,0,0.5-0.1c0.2,0,0.5,0,0.7,0c0.5,0,0.8,0.1,1,0.3s0.4,0.5,0.4,1v7.8h5.1
		c0.4,0,0.8,0.4,0.8,0.8L30.1,32.8z M30.9,28v-6.1c0.1,0,0.3,0,0.5-0.1c0.2,0,0.5,0,0.7,0c0.5,0,0.8,0.1,1,0.3
		c0.2,0.2,0.4,0.5,0.4,1v13.4c-0.1,0-0.3,0.1-0.5,0.1c-0.2,0-0.5,0-0.7,0c-0.5,0-0.9-0.1-1-0.3c-0.2-0.2-0.3-0.5-0.3-0.9v-5.2
		L30.9,28L30.9,28z"/>
	<path class="st2" d="M43.8,30.7c-0.2-0.6-0.4-1.3-0.6-1.9c-0.2-0.6-0.4-1.3-0.6-1.9c-0.2-0.6-0.4-1.1-0.5-1.7
		c-0.2-0.5-0.3-1-0.4-1.3h-0.1c-0.2,0.4-0.3,0.9-0.5,1.5c-0.2,0.5-0.4,1.1-0.6,1.7c-0.2,0.6-0.4,1.2-0.6,1.8
		c-0.2,0.6-0.4,1.2-0.6,1.8h3.3c0.4,0,0.6,0.2,0.7,0.5l0.4,1.5h-5l-1.2,3.6c-0.1,0-0.3,0.1-0.5,0.1c-0.2,0-0.4,0-0.6,0
		c-0.4,0-0.7-0.1-1-0.3c-0.3-0.2-0.4-0.5-0.4-0.8c0-0.2,0-0.4,0.1-0.5c0-0.2,0.1-0.4,0.2-0.5c0.2-0.7,0.5-1.5,0.9-2.6
		c0.4-1,0.8-2.2,1.2-3.4c0.4-1.2,0.9-2.3,1.3-3.5c0.4-1.1,0.8-2.1,1.1-2.9c0.2-0.1,0.4-0.2,0.7-0.3c0.3-0.1,0.7-0.1,1-0.1
		c0.5,0,0.9,0,1.2,0.2c0.4,0.1,0.6,0.4,0.7,0.7c0.4,0.9,0.7,2,1.1,3.1c0.4,1.1,0.8,2.4,1.2,3.6c0.4,1.2,0.8,2.4,1.2,3.6
		c0.4,1.2,0.7,2.2,1,3.2c-0.1,0.2-0.3,0.3-0.5,0.4c-0.2,0.1-0.5,0.1-0.8,0.1c-0.4,0-0.7-0.1-1-0.3c-0.2-0.2-0.4-0.5-0.5-0.9
		l-0.9-2.7"/>
	<path class="st2" d="M55,29c0.1,0.5,0.1,1,0,1.4c-0.2,0.8-0.5,1.5-0.6,2.2c-0.2,0.7-0.4,1.4-0.6,2c-0.2,0.6-0.4,1.1-0.5,1.5
		c-0.2,0.1-0.4,0.2-0.7,0.3c-0.3,0.1-0.6,0.1-1,0.1c-0.5,0-0.9-0.1-1.2-0.2c-0.3-0.1-0.5-0.3-0.6-0.5c-0.1-0.3-0.3-0.8-0.5-1.4
		c-0.2-0.6-0.4-1.3-0.5-2c-0.2-0.8-0.4-1.6-0.6-2.5c-0.2-0.9-0.4-1.8-0.6-2.6c-0.2-0.9-0.4-1.7-0.5-2.6c-0.2-0.8-0.3-1.6-0.4-2.2
		c0.1-0.1,0.3-0.3,0.6-0.4c0.2-0.1,0.5-0.2,0.8-0.2c0.7,0,1.2,0.4,1.3,1.1c0.2,1.1,0.4,2.2,0.6,3.1c0.2,1,0.4,1.9,0.5,2.8
		c0.2,0.9,0.4,1.8,0.5,2.7c0.2,0.9,0.4,1.8,0.6,2.7h0.1c0.2-0.7,0.4-1.4,0.6-2c0.2-0.6,0.4-1.3,0.6-1.9c0.2-0.7,0.4-1.4,0.6-2.1
		c0.2-0.7,0.4-1.5,0.7-2.3L55,29z M54.8,25.3c0.2,0,0.5-0.1,0.8-0.1c0.9,0,1.4,0.3,1.6,0.8c0.3,0.8,0.5,1.6,0.7,2.3
		c0.2,0.7,0.5,1.4,0.6,2c0.2,0.7,0.4,1.3,0.6,2c0.2,0.6,0.4,1.3,0.6,2h0.1c0.2-1,0.4-2.1,0.6-3c0.2-1,0.4-2,0.5-3c0.2-1,0.4-2,0.5-3
		c0.1-1,0.3-2,0.5-3.2c0.3-0.2,0.7-0.3,1.1-0.3c0.4,0,0.7,0.1,1,0.3c0.2,0.2,0.4,0.5,0.4,0.8c0,0.3,0,0.8-0.1,1.4
		c-0.1,0.6-0.2,1.4-0.3,2.1c-0.1,0.8-0.3,1.7-0.5,2.6c-0.2,0.9-0.4,1.8-0.6,2.7c-0.2,0.9-0.4,1.7-0.6,2.5c-0.2,0.8-0.4,1.4-0.6,2
		c-0.2,0.1-0.4,0.2-0.7,0.3c-0.3,0.1-0.6,0.1-1,0.1c-0.5,0-0.9,0-1.2-0.2c-0.3-0.1-0.5-0.3-0.6-0.5c-0.1-0.4-0.3-0.9-0.5-1.4
		c-0.2-0.5-0.4-1.2-0.6-1.8c-0.2-0.7-0.4-1.4-0.6-2.1c-0.2-0.7-0.4-1.5-0.6-2.2L54.8,25.3z"/>
	<path class="st2" d="M7.9,21.1c-1,0-2,0.2-3,0.6L2.7,20l0.2,1.5l-2-1.2l0,0.4c0.2,1.2,0.5,2.5,0.7,3.6c-1,1.3-1.5,3-1.5,4.7
		c0,4.4,3.6,7.9,7.9,7.9c4.4,0,7.9-3.6,7.9-7.9S12.2,21.1,7.9,21.1z M13.8,29.5l-0.6,0.3l0.1-0.1v0l-0.5-0.3
		c-0.1-0.1-0.3-0.2-0.5-0.2h-0.5c-0.1,0-2.2,1.7-2.2,1.7L9,32.2L9.3,33l0.1,0.1l0.9-0.2l0.9,0.3l-0.9,0l-0.5,0.2l0.1,0.4l-0.4-0.3
		l-0.2,0v-0.2l-1.6-1.5C7,32,6.6,32.2,6.5,32.2l-1.9-0.1c0,0,0-0.1,0-0.1l1.4-0.4c0,0,0.1-0.2,0.4-0.4l-0.8-0.1c0,0-0.8-0.5-1.1-0.8
		c0.5-0.2,2-0.8,2-0.8l-2.5,0.2c0,0-1-0.7-1.5-2.6c1.3,0.1,3.2,0.2,3.2,0.2s-3-1-3.5-1.1C1.9,26.2,1,20.8,1,20.8l2,1.1l-0.2-1.5
		L8,24.3l1.6,3.6l1.8-0.1l1,0l1.4,1V29l0.1,0.3C13.9,29.4,13.9,29.5,13.8,29.5z"/>
	<path class="st2" d="M13.3,28.7C13.2,28.7,13.2,28.7,13.3,28.7c0,0.1,0,0.1,0,0.1c0,0,0.2,0.1,0.2,0.1c0,0,0,0,0,0
		C13.4,28.8,13.3,28.7,13.3,28.7z"/>
	<path class="st2" d="M6.4,31.2c-0.2,0.2-0.4,0.4-0.4,0.4L4.6,32c0,0,0,0.1,0,0.1l1.9,0.1c0,0,0.5-0.2,1.1-0.5l-0.3-0.4L6.4,31.2z"
		/>
	<path class="st2" d="M9.4,27.9l0.2,0L8,24.3l-5.1-3.9l0.2,1.5l4.5,2.5L9.4,27.9z"/>
</g>
</svg>
