<svg width="78" height="57" viewBox="0 0 78 57" fill="none" xmlns="http://www.w3.org/2000/svg">
<mask id="mask0_969_631" style="mask-type:alpha" maskUnits="userSpaceOnUse" x="0" y="0" width="78" height="57">
<rect width="77.1" height="57" fill="#D9D9D9"/>
</mask>
<g mask="url(#mask0_969_631)">
<path d="M71.0471 29.0562C72.367 30.4216 73.5504 31.605 74.5062 32.6518C75.5075 33.6986 76.3722 34.5634 77.1004 35.2006C77.0549 35.6557 76.9184 35.9743 76.6453 36.2474C76.3722 36.4749 76.0536 36.6115 75.6895 36.6115C75.3254 36.6115 74.9613 36.5204 74.7337 36.2929C74.4607 36.0653 74.1876 35.8377 73.9145 35.5647L68.5439 29.8299V36.3839C68.4073 36.4294 68.2708 36.4749 68.0432 36.5204C67.8157 36.566 67.5881 36.6115 67.3605 36.6115C66.8599 36.6115 66.4958 36.5204 66.3137 36.3384C66.0862 36.1563 65.9951 35.8377 65.9951 35.4281V21.8651C66.1317 21.8195 66.3137 21.8195 66.4958 21.774C66.7233 21.7285 66.9509 21.7285 67.1785 21.7285C67.6336 21.7285 67.9977 21.8195 68.2253 22.0016C68.4529 22.1837 68.5894 22.5022 68.5894 22.9574V28.3735L68.5439 26.5074L71.0471 29.0562ZM69.9548 26.7805L74.6882 21.774C75.2799 21.774 75.735 21.9106 76.0081 22.1837C76.2812 22.4112 76.4177 22.7298 76.4177 23.0484C76.4177 23.3215 76.3267 23.5491 76.1902 23.8221C76.0536 24.0497 75.8261 24.3228 75.553 24.5959L72.1395 27.9639C71.8209 28.2825 71.3657 28.237 71.0471 27.9639L69.9548 26.7805Z" fill="#001464"/>
<path d="M30.085 32.7883H24.2592V36.3384C24.1227 36.3839 23.9861 36.4294 23.7586 36.4749C23.531 36.5204 23.3034 36.5204 23.0759 36.5204C22.5752 36.5204 22.2111 36.4294 22.029 36.2474C21.8015 36.0653 21.7104 35.7467 21.7104 35.3371V21.8651C21.847 21.8195 22.029 21.8195 22.2111 21.774C22.4387 21.7285 22.6662 21.7285 22.8938 21.7285C23.3489 21.7285 23.713 21.8195 23.9406 22.0016C24.1682 22.1837 24.3047 22.5022 24.3047 22.9574V30.7402H29.4023C29.8119 30.7402 30.176 31.1043 30.176 31.5139L30.085 32.7883ZM30.9042 28.0094V21.8651C30.9952 21.8195 31.1773 21.8195 31.4049 21.774C31.6324 21.7285 31.86 21.7285 32.0876 21.7285C32.5427 21.7285 32.9068 21.8195 33.1344 22.0016C33.3619 22.1837 33.4985 22.5022 33.4985 22.9574V36.3384C33.3619 36.3839 33.1799 36.4294 32.9978 36.4749C32.7703 36.5204 32.5427 36.5204 32.3151 36.5204C31.8145 36.5204 31.4504 36.4294 31.2683 36.2474C31.0407 36.0653 30.9497 35.7467 30.9497 35.3371V30.103V28.0094H30.9042Z" fill="#001464"/>
<path d="M43.7844 30.6947C43.5569 30.0575 43.3748 29.4203 43.1472 28.7831C42.9197 28.1459 42.7376 27.5087 42.5101 26.9171C42.328 26.3254 42.1004 25.7792 41.9639 25.2331C41.7818 24.7324 41.6453 24.2773 41.5543 23.9132H41.4177C41.2357 24.3228 41.0991 24.8234 40.8716 25.3696C40.6895 25.9158 40.4619 26.4619 40.2799 27.0991C40.0523 27.6908 39.8703 28.2825 39.6427 28.9197C39.4151 29.5113 39.2331 30.1485 39.051 30.6947H42.328C42.6921 30.6947 42.9652 30.9223 43.0562 31.2409L43.4658 32.7428H38.4593L37.276 36.3839C37.1395 36.4294 37.0029 36.4749 36.8209 36.5204C36.6388 36.566 36.4567 36.566 36.2292 36.566C35.8196 36.566 35.501 36.4749 35.2279 36.2929C34.9548 36.1108 34.8638 35.8377 34.8638 35.5191C34.8638 35.3371 34.9093 35.155 34.9548 35.0185C35.0003 34.8364 35.0458 34.6544 35.1369 34.4723C35.3644 33.7896 35.6375 32.9249 36.0016 31.8781C36.3657 30.8312 36.7753 29.6934 37.185 28.51C37.5946 27.3267 38.0497 26.1889 38.4593 25.051C38.869 23.9132 39.2786 22.9119 39.5972 22.1381C39.7792 22.0471 40.0068 21.9561 40.3254 21.8651C40.644 21.774 41.0081 21.7285 41.3722 21.7285C41.8274 21.7285 42.237 21.774 42.6011 21.9106C42.9652 22.0471 43.1928 22.2747 43.3293 22.5933C43.6934 23.5035 44.0575 24.5504 44.4671 25.6882C44.8768 26.826 45.2864 28.0549 45.696 29.2838C46.1056 30.5126 46.5153 31.696 46.8794 32.8794C47.2435 34.0627 47.6076 35.1095 47.9262 36.0653C47.7896 36.2474 47.6076 36.3384 47.38 36.4749C47.1525 36.566 46.8794 36.6115 46.5608 36.6115C46.1511 36.6115 45.8326 36.5204 45.605 36.3384C45.4229 36.1563 45.2409 35.8833 45.1043 35.4736L44.1941 32.7428" fill="#001464"/>
<path d="M55.0265 29.0101C55.163 29.4652 55.163 29.9659 55.0265 30.421C54.7989 31.1948 54.5713 31.923 54.3893 32.6057C54.1617 33.2884 53.9797 33.9711 53.7521 34.5628C53.57 35.1544 53.388 35.7006 53.2059 36.1102C53.0239 36.2013 52.7963 36.3378 52.5232 36.4288C52.2501 36.5199 51.886 36.5654 51.5219 36.5654C51.0668 36.5654 50.6572 36.4743 50.3386 36.3378C50.02 36.2013 49.7924 36.0192 49.7014 35.7916C49.5648 35.473 49.3828 35.0179 49.2007 34.4262C49.0187 33.8345 48.8366 33.1518 48.6546 32.3781C48.4725 31.6044 48.2449 30.7851 48.0629 29.8749C47.8353 29.0101 47.6533 28.0998 47.4712 27.2351C47.2891 26.3703 47.1071 25.5056 46.9706 24.6408C46.7885 23.8216 46.6975 23.0478 46.6064 22.4106C46.743 22.2741 46.925 22.1375 47.1981 22.001C47.4257 21.8645 47.6988 21.819 48.0174 21.819C48.7456 21.819 49.2007 22.1831 49.3373 22.9568C49.5648 24.0946 49.7469 25.1414 49.9289 26.0972C50.111 27.053 50.293 28.0088 50.4751 28.9191C50.6572 29.8294 50.8392 30.6941 51.0213 31.6044C51.2033 32.4691 51.3854 33.3794 51.6129 34.2897H51.704C51.9315 33.607 52.1136 32.9243 52.2956 32.3326C52.4777 31.7409 52.6598 31.0582 52.8873 30.421C53.0694 29.7383 53.2969 29.0556 53.5245 28.2819C53.7066 27.5992 53.9341 26.8255 54.2072 26.0062L55.0265 29.0101ZM54.7989 25.278C55.0265 25.2325 55.2995 25.187 55.5726 25.187C56.4374 25.187 56.9836 25.46 57.1656 25.9607C57.4387 26.7799 57.6663 27.5537 57.8938 28.2364C58.1214 28.9191 58.349 29.6018 58.531 30.2845C58.7586 30.9672 58.9406 31.6044 59.1227 32.2416C59.3047 32.8788 59.5323 33.5615 59.7144 34.2442H59.8509C60.0785 33.1974 60.2605 32.1505 60.4426 31.1948C60.6246 30.1935 60.8067 29.2377 60.9887 28.2364C61.1708 27.2351 61.3529 26.2338 61.4894 25.2325C61.6259 24.2312 61.808 23.1844 61.9901 22.0465C62.3087 21.8645 62.6728 21.7734 63.0824 21.7734C63.4465 21.7734 63.7651 21.8645 64.0382 22.0465C64.2657 22.2286 64.4023 22.5017 64.4023 22.8658C64.4023 23.1844 64.3568 23.6395 64.2657 24.2767C64.1747 24.9139 64.0837 25.6421 63.9471 26.4158C63.8106 27.2351 63.6285 28.0998 63.4465 29.0101C63.2644 29.9204 63.0369 30.8306 62.8548 31.6954C62.6272 32.5602 62.4452 33.3794 62.2176 34.1531C61.9901 34.9269 61.808 35.5641 61.6259 36.1102C61.4439 36.2468 61.2163 36.3378 60.8977 36.4288C60.5791 36.5199 60.2605 36.5654 59.8964 36.5654C59.4413 36.5654 59.0317 36.5199 58.7131 36.3833C58.3945 36.2468 58.2124 36.0647 58.1214 35.8371C57.9849 35.473 57.8028 34.9724 57.6207 34.4262C57.4387 33.8801 57.2111 33.2429 56.9836 32.6057C56.756 31.923 56.5739 31.2403 56.3464 30.5121C56.1188 29.7838 55.9367 29.0556 55.7092 28.3274L54.7989 25.278Z" fill="#001464"/>
<path d="M7.87386 21.1378C6.82705 21.1378 5.82574 21.3654 4.91547 21.7295L2.6853 20L2.86736 21.5475L0.819245 20.3641L0.864759 20.7282C1.04681 21.9116 1.3199 23.2315 1.54746 24.2783C0.591677 25.5982 0 27.2367 0 28.9662C0 33.3355 3.55006 36.8856 7.91937 36.8856C12.2887 36.8856 15.8387 33.3355 15.8387 28.9662C15.8387 24.5969 12.2432 21.1378 7.87386 21.1378ZM13.8361 29.5123L13.2445 29.8309L13.3355 29.6944V29.6489L12.8804 29.3303C12.7438 29.2393 12.5618 29.1482 12.3797 29.1482H11.8335C11.697 29.1482 9.60338 30.8778 9.60338 30.8778L8.96619 32.2432L9.28478 33.0169L9.42132 33.1534L10.2861 32.9259L11.1508 33.199L10.2406 33.1534L9.73992 33.3355L9.87646 33.7451L9.46684 33.472L9.23927 33.5175V33.3355L7.64629 31.788C7.0091 32.0156 6.55396 32.1977 6.50845 32.2432L4.64239 32.1521C4.59688 32.1521 4.59688 32.0611 4.64239 32.0611L6.05331 31.6515C6.05331 31.6515 6.18985 31.4694 6.41742 31.2874L5.64369 31.1508C5.64369 31.1508 4.82445 30.6957 4.55136 30.3316C5.0065 30.1495 6.59948 29.5579 6.59948 29.5579L4.14174 29.7854C4.14174 29.7854 3.09493 29.0572 2.6853 27.1912C4.0052 27.3277 5.91677 27.4187 5.91677 27.4187C5.91677 27.4187 2.91287 26.4629 2.41222 26.3264C1.91157 26.1899 1.04681 20.7737 1.04681 20.7737L3.09493 21.9116L2.91287 20.4096L8.0104 24.2783L9.60338 27.8739L11.4239 27.7373L12.4252 27.7828L13.7906 28.8296V29.0117L13.8817 29.2848C13.9272 29.3758 13.9272 29.4668 13.8361 29.5123Z" fill="#001464"/>
<path d="M13.2898 28.7392C13.2442 28.6937 13.1987 28.6937 13.1987 28.7392C13.2898 28.8758 13.2898 28.8758 13.2898 28.8758C13.3353 28.8758 13.5173 29.0123 13.5173 29.0123C13.5628 29.0123 13.5628 28.9668 13.5628 28.9668C13.4263 28.8302 13.2898 28.7392 13.2898 28.7392Z" fill="#001464"/>
<path d="M6.41757 31.2422C6.23551 31.4698 6.05346 31.6063 6.05346 31.6063L4.64253 32.0159C4.59702 32.0159 4.59702 32.1069 4.64253 32.1069L6.50859 32.198C6.55411 32.198 7.00924 32.0159 7.64643 31.7428L7.32784 31.3787L6.41757 31.2422Z" fill="#001464"/>
<path d="M9.42105 27.9199L9.6031 27.8744L8.01012 24.2788L2.9126 20.4102L3.09465 21.8666L7.55499 24.3698L9.42105 27.9199Z" fill="#001464"/>
</g>
</svg>
