<svg id="Layer_1" data-name="Layer 1" xmlns="http://www.w3.org/2000/svg" xmlns:xlink="http://www.w3.org/1999/xlink" viewBox="0 0 432 97.69"><defs><style>.cls-1,.cls-3{fill:#fff;fill-rule:evenodd;}.cls-2{mask:url(#mask);}.cls-3{opacity:0.5;}</style><mask id="mask" x="0" y="0" width="258.39" height="97.69" maskUnits="userSpaceOnUse"><g transform="translate(0 -0.31)"><g id="mask-2"><polygon id="path-1" class="cls-1" points="129.2 98 0 98 0 0.31 129.2 0.31 258.39 0.31 258.39 98 129.2 98"/></g></g></mask></defs><title>hellofresh_white</title><g id="Page-1"><g id="HelloFresh_RGB_2C_Horizontal" data-name="HelloFresh RGB 2C Horizontal"><path id="Fill-1" class="cls-1" d="M288.64,15.79H265.37a2.17,2.17,0,0,0-2.2,2.17V76.28a2.16,2.16,0,0,0,2.2,2.17h6.17a2.16,2.16,0,0,0,2.2-2.17V51.72a1,1,0,0,1,.89-.87h9.69a2.16,2.16,0,0,0,2.2-2.16V44.08a2.16,2.16,0,0,0-2.2-2.16h-9.69a1,1,0,0,1-.89-.87V25.69a.94.94,0,0,1,.89-.87h14a2.17,2.17,0,0,0,2.2-2.17V18a2.17,2.17,0,0,0-2.2-2.17" transform="translate(0 -0.31)"/><path id="Fill-2" class="cls-1" d="M310.56,44.08H307.3a.94.94,0,0,1-.88-.86V25.34a1,1,0,0,1,.88-.87h3.26c4.76,0,6.17,2.17,6.17,9.81S315.32,44.08,310.56,44.08Zm9.16,7.73a1,1,0,0,1,.53-1.22c4.85-2.51,6.88-6.24,6.88-16.05,0-10.68-2.47-18.75-14.81-18.75H298.05A2.17,2.17,0,0,0,295.84,18V76.28a2.16,2.16,0,0,0,2.21,2.17h6.16a2.16,2.16,0,0,0,2.21-2.17v-23a.94.94,0,0,1,.88-.86h2a1.19,1.19,0,0,1,1.14.86l6.35,23.09a2.91,2.91,0,0,0,2.82,2.08h5.9a1.63,1.63,0,0,0,1.59-2.08l-7.41-24.56Z" transform="translate(0 -0.31)"/><path id="Fill-3" class="cls-1" d="M358,69.17H343.66a1,1,0,0,1-.88-.87v-17a.94.94,0,0,1,.88-.87h9.26a2.16,2.16,0,0,0,2.2-2.17V43.83a2.17,2.17,0,0,0-2.2-2.18h-9.26a.94.94,0,0,1-.88-.86v-15a.94.94,0,0,1,.88-.86h13.66a2.17,2.17,0,0,0,2.2-2.17V18a2.17,2.17,0,0,0-2.2-2.17H334.5A2.16,2.16,0,0,0,332.3,18V76.28a2.16,2.16,0,0,0,2.2,2.17H358a2.16,2.16,0,0,0,2.2-2.17V71.34a2.16,2.16,0,0,0-2.2-2.17" transform="translate(0 -0.31)"/><path id="Fill-4" class="cls-1" d="M383.7,43.3c-5.56-5.38-9.26-8.93-9.26-13.8,0-3.21,1.59-5.81,5.11-5.81,3.35,0,5.11,2.26,5.11,8.59V34.1a1.73,1.73,0,0,0,1.68,1.65h6.17a1.93,1.93,0,0,0,1.93-1.91V31.76c0-11.71-5.64-17-14.89-17-10.75,0-15.24,7.2-15.24,15.19,0,8.94,5.73,14.67,11,19.7s9.78,8.94,9.78,14.75c0,4.69-2.82,6-5.64,6-4.14,0-5.81-2.77-5.81-7.64V59.19a2.16,2.16,0,0,0-2.2-2.17h-5.38a2.16,2.16,0,0,0-2.2,2.17v4.34c0,9.28,6,16,15.68,16,9.25,0,15.69-6.17,15.69-15.89,0-8.59-5-14-11.54-20.31" transform="translate(0 -0.31)"/><path id="Fill-5" class="cls-1" d="M429.8,15.79h-6.08A2.17,2.17,0,0,0,421.51,18V41.31a1,1,0,0,1-.88.87H411.2a1,1,0,0,1-.88-.87V18a2.17,2.17,0,0,0-2.2-2.17H402A2.17,2.17,0,0,0,399.83,18V76.28A2.16,2.16,0,0,0,402,78.45h6.08a2.16,2.16,0,0,0,2.2-2.17v-24a.94.94,0,0,1,.88-.86h9.43a.94.94,0,0,1,.88.86v24a2.16,2.16,0,0,0,2.21,2.17h6.08a2.16,2.16,0,0,0,2.2-2.17V18a2.17,2.17,0,0,0-2.2-2.17" transform="translate(0 -0.31)"/><g id="Group-10"><g class="cls-2"><path id="Fill-6" class="cls-1" d="M245.55,69.16a7.14,7.14,0,0,1-2.12,2.53,3.17,3.17,0,0,1-1.61.45,1.8,1.8,0,0,1-1.4-.56c-5.3-5.73-5.35-27.68-.09-36.69,1.78-3,4.08-3.37,5-3.37a2.73,2.73,0,0,1,.41,0c1.38.13,2.49,2.14,2.8,2.76C252.55,42.31,250.23,61,245.55,69.16ZM210,42.58c0-19.18,3.06-29.55,5.37-32a1.18,1.18,0,0,1,.71-.44c.57,0,1.43,1.6,1.5,6,0,0,0,.42,0,.53A85.45,85.45,0,0,1,215.5,35a69.18,69.18,0,0,1-5.24,14.88C210.1,47.53,210,45.06,210,42.58ZM187.92,12a1.39,1.39,0,0,1,.88-.52.66.66,0,0,1,.5.27c.89,1,1.82,4.42.89,11-2.55,18.07-7.67,25.87-7.67,25.87C181.93,27.92,184.9,15.14,187.92,12ZM148.31,50.37l0-.13c2.07-14.07,5.28-19.08,7.59-19.08a2.32,2.32,0,0,1,1.79,1.19c2.6,3.83,2.53,9.89-.15,14.09a8.71,8.71,0,0,1-7.67,4,11.52,11.52,0,0,1-1.45-.09ZM249.92,26.69a12.46,12.46,0,0,0-5.85-1.59,11.92,11.92,0,0,0-5.92,1.71c-5.55,3.13-8.93,10.46-10.63,21.53-2.22,10.72-7.89,21.19-10.73,21.16-2.39,0-4.22-4.16-5.37-10.19A106.87,106.87,0,0,0,222.7,21.94c.22-2.21.33-4.3.34-6.23v-.2c-.25-10-4.56-13.75-8.5-13.94h-.23c-1.88,0-3.82,1.13-5.62,3.28-3.54,4.24-6.2,11.78-7.5,21.23a99.68,99.68,0,0,0-.83,15.27h0a80.35,80.35,0,0,0,1.78,19.48c.15.93.28,1.86.45,2.8v.06l-.1.11a27.73,27.73,0,0,1-7.08,6.44l-.43.26v0l-.28.19,0,0-.38.18a6.74,6.74,0,0,1-2.88.75h-.09c-3.7-.07-6.37-4.8-8-14.07v0l.14-.28a104.81,104.81,0,0,0,9-21l.17-.67c4-13.08,4-24.15.14-29.62a6.56,6.56,0,0,0-5.15-3.08h-.28c-2.41,0-4.65,1.18-6.64,3.49-7.35,8.54-9.7,30.31-6,55.45v.06l0,0a34.54,34.54,0,0,1-8.2,7.18,18.5,18.5,0,0,1-7.84,2.73l-.57,0a7.46,7.46,0,0,1-5.5-2.28c-2.55-2.6-4-7.78-4.06-14.59v-.16l.16,0a19.58,19.58,0,0,0,4,.43A14.33,14.33,0,0,0,164,50.29a16.44,16.44,0,0,0,3.7-10.53c0-9-5.94-13.17-11.45-13.17a13.28,13.28,0,0,0-9.88,4.63c-3.23,3.47-5.56,8.66-6.94,15.44l0,.17-.16-.08a70.07,70.07,0,0,0-7-3.28l-.09,0v-.38c.13-6.73.35-13.87.56-20.85.15-4.85.3-9.76.42-14.61a6.55,6.55,0,0,0-1.62-5C129.73.7,127,.31,124.94.31a17.32,17.32,0,0,0-2,.12.89.89,0,0,0-.79,1c.62,5.4.85,21.42.56,39v.15l-.15,0c-1.29-.27-2.51-.48-3.74-.63l-.35,0a70.85,70.85,0,0,0-8-.75c-.65,0-1.3,0-1.94,0h-1v-.14c.38-10.12,1-19.66,1-19.75a6.83,6.83,0,0,0-1.68-5.27c-1.83-1.92-4.72-2.32-6.82-2.32a17.32,17.32,0,0,0-2,.12,1,1,0,0,0-.89,1.06c.38,3.84.58,15.53.48,27.19v.11l-.1,0a67.18,67.18,0,0,0-9,2.6c-.87.31-2.1.84-3.66,1.57-2.64,1.22-2.76,4.19-2.06,6.36A6.25,6.25,0,0,0,84.25,53a1.4,1.4,0,0,0,1,.37,1.56,1.56,0,0,0,.48-.08c.35-.13,2.65-1.12,3.41-1.46.24-.11.5-.21.83-.33l.57-.23.44-.17c.37-.15.75-.31,1.18-.45.65-.25,1.27-.51,2-.8,1-.42,2-.85,3.28-1.27l.18-.06v.19c0,1.5-.08,3-.12,4.4-.27,7.77-.79,32.17-.81,33.2-.22,4.68.52,7.84,2.25,9.65,1.93,2,4.8,2,6.9,2H107a.9.9,0,0,0,.69-.31.8.8,0,0,0,.21-.68c-1.18-9.12-.86-33.21-.67-43.15,0-2.14,0-4.59.1-7.31v-.11l.11,0c1.21-.15,2.32-.28,3.38-.37,1.66-.14,3.42-.22,5.22-.22,1.11,0,2.27,0,3.44.09h.2l.61,0,.51,0c.52,0,1.07.11,1.67.19h.11l0,1.76c-.14,6.44-.33,15.26-.6,20.79-.2,4.49.51,7.51,2.17,9.25s4.1,1.94,6.61,1.94h1.17a1,1,0,0,0,.74-.33.9.9,0,0,0,.23-.72c-.69-5.51-1-16.78-.86-30.14v-.19l.18.07a54.71,54.71,0,0,1,6.38,2.74l.07,0v.08c-.53,9.52,1.59,17.34,6,22a14.75,14.75,0,0,0,11,4.79c5.83,0,11.42-2.3,16.62-6.85a38.23,38.23,0,0,0,4-4l.14-.18.14.38c2.52,6.8,6.95,10.69,12.15,10.69h.19c.46,0,.93,0,1.47-.09h.15a16.91,16.91,0,0,0,4.89-1.38l.08,0c.41-.18.8-.38,1.19-.58l.91-.52.41-.25a27.54,27.54,0,0,0,6.46-5.71l.13-.16.09.18a17.71,17.71,0,0,0,4.24,5.87c5.73,5.88,13.27,2.71,19.35-13.51h0c1.32,7.27,4,14.3,11,15.78a12.24,12.24,0,0,0,3.21.42,12.79,12.79,0,0,0,3.43-.47c4.93-1.36,10.6-9.26,12.18-23.84,1.08-10.05-.4-23.24-8.16-27.34Z" transform="translate(0 -0.31)"/></g><g class="cls-2"><path id="Fill-9" class="cls-3" d="M13.09,66.35c-.69,0-1.55.39-2.1,2.12s-7,1.24-9.08-3C-.29,61.1.83,57.86,1,57.42c-.08.19-.12.31-.16.42.05-.14.1-.28.16-.42-.06.14-.11.29-.16.43-.15.4-.29.81-.4,1.22-.06.22-.12.45-.16.68,0,.07,0,.14-.05.21,0,.25-.09.49-.12.73,0-.24.08-.48.12-.73a11.2,11.2,0,0,0-.06,4.2C.9,68,3.71,69.94,7.24,71a30.24,30.24,0,0,1,6.66,2.45,61.76,61.76,0,0,0,5.73,3.07c8.63,3.68,18.72,3.4,27.43.16a39.24,39.24,0,0,0,21-18.09,43,43,0,0,0,4.36-13s-24.64,37-57.37,21.89C14.59,67.28,14.05,66.35,13.09,66.35Z" transform="translate(0 -0.31)"/></g></g><path class="cls-1" d="M72.66,25a5.61,5.61,0,0,0-3.47-2.62c-.36-.12-2.43-.87-2.42-.28,0,.12.85.88,1.25,1.57a5.82,5.82,0,0,1,.9,2c.07.46,0,.61-.25.61-1.2,0-7-8.86-18.53-12-6.47-1.77-15.47-2.46-22.89,0A37.46,37.46,0,0,0,10.88,25.59,35.71,35.71,0,0,0,2.21,45.85c-.25,3.11,0,6.31-.57,9.4A14.12,14.12,0,0,1,1,57.49c-.14.37-1.26,3.61.94,8,2.08,4.19,8.49,4.83,9.08,3s1.41-2.12,2.1-2.12c1,0,1.5.93,2,1.15C47.81,82.58,72.45,45.61,72.45,45.61A49.31,49.31,0,0,0,73.13,38a54.58,54.58,0,0,1,.21-6.89A9.76,9.76,0,0,0,72.66,25ZM28.18,26.48c-.39.15-3.37-4.16-1.87-5,10-5.57,25.3-2.12,32.75,2.6.58.37.84.58.84.68C60.79,26.26,43.05,20.92,28.18,26.48Z" transform="translate(0 -0.31)"/></g></g></svg>