<svg id="Layer_1" data-name="Layer 1" xmlns="http://www.w3.org/2000/svg" viewBox="0 0 432 97.7"><g id="Page-1"><g id="HelloFresh_RGB_2C_Horizontal" data-name="HelloFresh RGB 2C Horizontal"><path id="Fill-1" d="M288.6,15.5H265.4a2.1,2.1,0,0,0-2.2,2.1h0V76a2.1,2.1,0,0,0,2.1,2.1h6.2a2.1,2.1,0,0,0,2.2-2.1h0V51.4a1.2,1.2,0,0,1,.9-.9h9.7a2.1,2.1,0,0,0,2.2-2.1h0V43.8a2.1,2.1,0,0,0-2.1-2.2h-9.8a1.1,1.1,0,0,1-.9-.9V25.4a1.1,1.1,0,0,1,.9-.9h14a2.1,2.1,0,0,0,2.2-2.1h0V17.7a2.1,2.1,0,0,0-2.1-2.2h-.1" transform="translate(0)" style="fill:#91c11e;fill-rule:evenodd"/><path id="Fill-2" d="M310.6,43.8h-3.3a1.1,1.1,0,0,1-.9-.9V25a1,1,0,0,1,.9-.8h3.3c4.7,0,6.1,2.1,6.1,9.8S315.3,43.8,310.6,43.8Zm9.1,7.7a1,1,0,0,1,.6-1.2c4.8-2.5,6.8-6.3,6.8-16.1s-2.4-18.7-14.8-18.7H298a2.3,2.3,0,0,0-2.2,2.1h0V76a2.1,2.1,0,0,0,2.2,2.1h6.2a2.1,2.1,0,0,0,2.2-2.1h0V53c.1-.5.4-.9.9-.9h2a1.2,1.2,0,0,1,1.1.9l6.4,23.1a2.8,2.8,0,0,0,2.8,2h5.9a1.6,1.6,0,0,0,1.7-1.6c0-.1-.1-.3-.1-.4l-7.4-24.6Z" transform="translate(0)" style="fill:#91c11e;fill-rule:evenodd"/><path id="Fill-3" d="M358,68.9H343.7a1.1,1.1,0,0,1-.9-.9V51a.9.9,0,0,1,.9-.9h9.2a2.1,2.1,0,0,0,2.2-2.1h0V43.5a2.1,2.1,0,0,0-2.1-2.2h-9.3a.9.9,0,0,1-.9-.8v-15a.9.9,0,0,1,.9-.9h13.6a2.1,2.1,0,0,0,2.2-2.1h0V17.7a2.2,2.2,0,0,0-2.1-2.2H334.5a2.1,2.1,0,0,0-2.2,2.1h0V76a2.1,2.1,0,0,0,2.1,2.1H358a2.1,2.1,0,0,0,2.2-2.1h0V71a2.1,2.1,0,0,0-2.1-2.1H358" transform="translate(0)" style="fill:#91c11e;fill-rule:evenodd"/><path id="Fill-4" d="M383.7,43c-5.6-5.4-9.3-8.9-9.3-13.8,0-3.2,1.6-5.8,5.1-5.8s5.2,2.2,5.2,8.6v1.8a1.6,1.6,0,0,0,1.6,1.6h6.2a1.8,1.8,0,0,0,1.9-1.9v-2c0-11.8-5.6-17-14.9-17s-15.2,7.1-15.2,15.1,5.7,14.7,11,19.7,9.8,9,9.8,14.8-2.8,6-5.7,6-5.8-2.8-5.8-7.6V58.9a2.1,2.1,0,0,0-2.1-2.2h-5.4a2.1,2.1,0,0,0-2.2,2.1h0v4.3c0,9.3,6,16,15.6,16s15.7-6.1,15.7-15.9-5-14-11.5-20.3" transform="translate(0)" style="fill:#91c11e;fill-rule:evenodd"/><path id="Fill-5" d="M429.8,15.5h-6.1a2.1,2.1,0,0,0-2.2,2.1h0V41c0,.5-.4.8-.9.9h-9.4a1.1,1.1,0,0,1-.9-.9V17.7a2.2,2.2,0,0,0-2.1-2.2H402a2.2,2.2,0,0,0-2.2,2.2h0V76a2.1,2.1,0,0,0,2.2,2.1h6.1a2.1,2.1,0,0,0,2.2-2.1h0V52a.9.9,0,0,1,.9-.9h9.4c.5,0,.8.4.9.9V76a2.1,2.1,0,0,0,2.1,2.1h6.2A2.1,2.1,0,0,0,432,76h0V17.7a2.2,2.2,0,0,0-2.2-2.2h0" transform="translate(0)" style="fill:#91c11e;fill-rule:evenodd"/><g id="Group-10"><path id="Fill-6" d="M245.6,68.9a8.6,8.6,0,0,1-2.2,2.5,2.9,2.9,0,0,1-1.6.4,1.6,1.6,0,0,1-1.4-.5c-5.3-5.8-5.3-27.7-.1-36.7,1.8-3,4.1-3.4,5-3.4h.4c1.4.1,2.5,2.2,2.8,2.8C252.6,42,250.2,60.7,245.6,68.9ZM210,42.3c0-19.2,3.1-29.6,5.4-32,.1-.3.4-.4.7-.5s1.4,1.6,1.5,6v.6a80.9,80.9,0,0,1-2.1,18.3,73.2,73.2,0,0,1-5.2,14.9C210.1,47.2,210,44.8,210,42.3ZM187.9,11.7a1.2,1.2,0,0,1,.9-.5l.5.2c.9,1,1.8,4.5.9,11-2.6,18.1-7.7,25.9-7.7,25.9C181.9,27.6,184.9,14.8,187.9,11.7ZM148.3,50.1v-.2c2.1-14,5.3-19.1,7.6-19.1a2.6,2.6,0,0,1,1.8,1.2c2.6,3.9,2.5,9.9-.2,14.1a8.3,8.3,0,0,1-7.6,4h-1.6ZM249.9,26.4a12.1,12.1,0,0,0-5.8-1.6,11.6,11.6,0,0,0-6,1.7c-5.5,3.1-8.9,10.5-10.6,21.5s-7.9,21.2-10.7,21.2S212.6,65,211.4,59a106.7,106.7,0,0,0,11.3-37.4c.2-2.2.3-4.3.3-6.2v-.2c-.2-10-4.5-13.7-8.5-13.9h-.2c-1.9,0-3.8,1.1-5.6,3.2-3.5,4.3-6.2,11.8-7.5,21.3a85.6,85.6,0,0,0-.8,15.2h0a84.8,84.8,0,0,0,1.7,19.5c.2,1,.3,1.9.5,2.8h-.1a28.9,28.9,0,0,1-7.1,6.4l-.4.3h0l-.3.2h0l-.4.2a7.3,7.3,0,0,1-2.9.7h-.1c-3.7-.1-6.3-4.8-8-14.1h0l.2-.2a108,108,0,0,0,9-21l.2-.7c4-13.1,4-24.2.1-29.6a6.4,6.4,0,0,0-5.2-3.1h-.2c-2.4,0-4.7,1.2-6.7,3.5-7.3,8.5-9.7,30.3-6,55.4h0a35.4,35.4,0,0,1-8.2,7.2,17.7,17.7,0,0,1-7.8,2.7h-.6a7.6,7.6,0,0,1-5.5-2.3c-2.5-2.6-4-7.8-4-14.6h.1a18.1,18.1,0,0,0,4,.4A14.6,14.6,0,0,0,164,50a16.8,16.8,0,0,0,3.7-10.5c0-9-5.9-13.2-11.4-13.2a12.8,12.8,0,0,0-9.9,4.6c-3.3,3.5-5.6,8.7-7,15.4v.2h-.1a62.9,62.9,0,0,0-7-3.2h-.1v-.4c.1-6.8.3-13.9.5-20.9.2-4.8.3-9.7.5-14.6a6.7,6.7,0,0,0-1.7-5C129.7.4,127,0,124.9,0h-2a1.1,1.1,0,0,0-.8,1h.1c.6,5.4.8,21.4.5,39v.2h-.1l-3.8-.7h-.3a74.1,74.1,0,0,0-8-.7h-3c.4-10.2,1-19.7,1-19.8a7,7,0,0,0-1.7-5.3c-1.8-1.9-4.7-2.3-6.8-2.3H98a1.2,1.2,0,0,0-.9,1.1c.4,3.8.6,15.5.5,27.2h-.1a61,61,0,0,0-9,2.6,29.2,29.2,0,0,0-3.6,1.6c-2.7,1.2-2.8,4.2-2.1,6.3a5.7,5.7,0,0,0,1.5,2.3,1.5,1.5,0,0,0,1,.4h.4l3.4-1.5.9-.3.5-.2.5-.2,1.2-.5,2-.8,3.2-1.2h.2v.2c0,1.5-.1,3-.1,4.4-.3,7.8-.8,32.2-.8,33.2-.2,4.7.5,7.8,2.2,9.6s4.8,2,6.9,2H107c.3.1.5-.1.7-.3s.2-.4.2-.6c-1.2-9.2-.9-33.2-.7-43.2,0-2.1,0-4.6.1-7.3h.1l3.4-.4,5.2-.2h4.8l1.7.2h.1v1.7c-.2,6.5-.3,15.3-.6,20.8s.5,7.5,2.2,9.3,4.1,1.9,6.6,1.9h1.1a1.1,1.1,0,0,0,.8-.3,1.9,1.9,0,0,0,.2-.7c-.7-5.5-1-16.8-.9-30.2v-.2h.2a51.7,51.7,0,0,1,6.4,2.8h.1c-.6,9.6,1.6,17.4,6,22a14.4,14.4,0,0,0,11,4.8c5.8,0,11.4-2.3,16.6-6.8a50.3,50.3,0,0,0,4-4v-.2l.2.4c2.5,6.8,6.9,10.7,12.1,10.7h1.8a16.3,16.3,0,0,0,4.9-1.4h.1l1.2-.6.9-.5.4-.3a26.9,26.9,0,0,0,6.5-5.7h.1v.2a17.3,17.3,0,0,0,4.2,5.8c5.8,5.9,13.3,2.7,19.4-13.5h0c1.3,7.3,4,14.3,11,15.8a11.2,11.2,0,0,0,3.2.4,10,10,0,0,0,3.4-.5c5-1.3,10.6-9.2,12.2-23.8,1.1-10-.4-23.2-8.2-27.3Z" transform="translate(0)" style="fill:#91c11e;fill-rule:evenodd"/><path id="Fill-8" d="M66.8,21.7c0,.2.8.9,1.2,1.6a7.2,7.2,0,0,1,.9,2c.1.5,0,.6-.2.6s-7-8.8-18.6-12c-6.4-1.7-15.4-2.4-22.9,0A38.1,38.1,0,0,0,10.9,25.3,35.5,35.5,0,0,0,2.2,45.5c-.2,3.1,0,6.4-.6,9.4A8.6,8.6,0,0,1,1,57.2a10.2,10.2,0,0,0,1,8c2.1,4.2,8.5,4.8,9.1,3s1.4-2.1,2.1-2.1,1.5.9,2,1.1C47.8,82.3,72.4,45.3,72.4,45.3a39.1,39.1,0,0,0,.7-7.6c0-2.3,0-4.6.2-6.9a9.8,9.8,0,0,0-.6-6.1,5.4,5.4,0,0,0-3.5-2.6C68.8,21.9,66.8,21.2,66.8,21.7Z" transform="translate(0)" style="fill:#91c11e;fill-rule:evenodd"/><path id="Fill-9" d="M13.1,66c-.7,0-1.6.4-2.1,2.2s-7,1.2-9.1-3S.8,57.6,1,57.1s-.1.3-.2.4.1-.3.2-.4-.1.3-.2.4a9.3,9.3,0,0,1-.4,1.3c0,.2-.1.4-.1.6s0,.2-.1.2-.1.5-.1.8.1-.5.1-.8a9.9,9.9,0,0,0,0,4.2c.7,3.9,3.5,5.8,7,6.9a31.5,31.5,0,0,1,6.7,2.4,53.3,53.3,0,0,0,5.7,3.1c8.7,3.7,18.7,3.4,27.5.2a39.7,39.7,0,0,0,21-18.1,43.2,43.2,0,0,0,4.3-13S47.8,82.3,15,67.2C14.6,67,14.1,66,13.1,66Z" transform="translate(0)" style="fill:#659a41;fill-rule:evenodd"/></g><path id="Fill-11" d="M28.2,26.2c-.4.1-3.4-4.2-1.9-5,10-5.6,25.3-2.2,32.8,2.6l.8.6c.9,1.6-16.9-3.8-31.7,1.8" transform="translate(0)" style="fill:#fffffe;fill-rule:evenodd"/></g></g></svg>