<svg xmlns="http://www.w3.org/2000/svg" viewBox="0 0 254.75 136.19"><defs><style>.a{fill:#fff;}</style></defs><title>hmn_white</title><polygon class="a" points="166.75 0 66 0 44.5 0 44.5 17 44.5 59 21.5 59 21.5 29.26 0 29.26 0 106.94 21.5 106.94 21.5 76 44.5 76 44.5 106.94 66 106.94 66 17 166.75 17 166.75 0"/><polygon class="a" points="254.75 29.26 233.25 29.26 233.25 65.64 206.59 29.22 206.25 29.47 206.25 29.26 201 29.26 179.5 29.26 179.5 46.26 179.5 119.19 78.75 119.19 78.75 136.19 179.5 136.19 201 136.19 201 119.19 201 62.44 233.25 106.49 233.25 106.94 233.58 106.94 233.78 107.2 234.14 106.94 254.75 106.94 254.75 29.26"/><polygon class="a" points="145.25 29.26 134.33 29.26 134.33 29.59 134.33 29.59 123.35 66.06 111.77 30.5 111.44 30.61 111.44 29.26 95 29.26 78.75 29.26 78.75 46.26 78.75 106.94 95 106.94 95 48.44 108.77 90.71 113.16 106.94 128 106.94 128.58 104.99 128.61 105 145.25 49.69 145.25 106.94 166.75 106.94 166.75 46.26 166.75 29.26 145.25 29.26"/></svg>