<?xml version="1.0" encoding="utf-8"?>
<!-- Generator: Adobe Illustrator 23.0.6, SVG Export Plug-In . SVG Version: 6.00 Build 0)  -->
<svg version="1.1" id="Layer_1" xmlns="http://www.w3.org/2000/svg" xmlns:xlink="http://www.w3.org/1999/xlink" x="0px" y="0px"
	 viewBox="0 0 54 35" style="enable-background:new 0 0 54 35;" xml:space="preserve">
<style type="text/css">
	.st0{fill:#FFFFFF;}
</style>
<path class="st0" d="M6.5,28.7l0.8,0.1c0.4,0,0.4,0.3,0.4,0.5v0.9H3.9v-0.9c0-0.2,0-0.5,0.4-0.5l0.8-0.1v-0.8H0.3v0.8l0.8,0.1
	c0.4,0,0.4,0.3,0.4,0.5v3.1c0,0.2,0,0.5-0.4,0.5l-0.8,0.1V34h4.8v-0.8L4.4,33c-0.4,0-0.4-0.3-0.4-0.5v-0.9h3.7v0.9
	c0,0.2,0,0.5-0.4,0.5l-0.8,0.1V34h4.8v-0.8L10.5,33c-0.4,0-0.4-0.3-0.4-0.5v-3.1c0-0.2,0-0.5,0.4-0.5l0.8-0.1v-0.8H6.4L6.5,28.7
	L6.5,28.7z"/>
<path class="st0" d="M38.7,27.9h-6v0.8l0.7,0.1c0.3,0,0.4,0.1,0.4,0.5v3.2c0,0.2,0,0.5-0.4,0.5l-0.8,0.1v0.8h6c2.2,0,4-0.9,4-3
	C42.7,28.8,40.9,27.9,38.7,27.9z M38.3,32.8h-2v-3.7h2c1.2,0,1.6,0.6,1.6,1.9C39.9,32.2,39.5,32.8,38.3,32.8z"/>
<path class="st0" d="M52.8,33c-0.4,0-0.5-0.3-0.6-0.5l-2.8-4.3c-0.2-0.3-0.3-0.4-0.6-0.4h-4.6v0.8l1.1,0.1c0.2,0,0.4,0.2,0.2,0.5
	l-2.1,3.4C43.4,32.8,43.3,33,43,33l-0.8,0.1v0.8h3.9v-0.8l-0.7-0.1c-0.3,0-0.4-0.2-0.3-0.5l0.3-0.5h3.7l0.3,0.4
	c0.3,0.4-0.1,0.5-0.3,0.5l-0.7,0.1v0.8h5.2v-0.8L52.8,33z M46.1,31l1.1-1.9l1.2,1.9H46.1z"/>
<path class="st0" d="M28.4,28.7l0.8,0.1c0.4,0,0.4,0.3,0.4,0.5v3l-3.2-4.2c-0.1-0.2-0.3-0.3-0.6-0.3h-4.1v0.8l0.8,0.1
	c0.4,0,0.4,0.3,0.4,0.5v3.1c0,0.2,0,0.5-0.4,0.5l-0.8,0.1V34h3.9v-0.8L24.8,33c-0.4,0-0.4-0.3-0.4-0.5v-3l3.2,4.2
	c0.2,0.2,0.3,0.3,0.6,0.3h0h2.9v-4.6c0-0.2,0-0.5,0.4-0.5l0.8-0.1v-0.8h-3.9L28.4,28.7z"/>
<path class="st0" d="M16.5,27.7c-3.9,0-4.9,1.7-4.9,3.2c0,1.5,1,3.2,4.9,3.2c3.9,0,4.9-1.7,4.9-3.2C21.4,29.4,20.4,27.7,16.5,27.7z
	 M16.5,33c-1.5,0-2.2-0.6-2.2-2.1c0-1.4,0.6-2.1,2.2-2.1c1.5,0,2.2,0.6,2.2,2.1C18.6,32.4,18,33,16.5,33z"/>
<path class="st0" d="M33.7,2.4c-0.7,3-0.9,4.3-1.5,6.5c-0.5,2.1-0.9,4-1.6,4.9c-0.7,0.9-1.6,1.1-2.3,1.2c-0.3,0-0.6,0.1-1.3,0.1
	c-0.7,0-1,0-1.3-0.1c-0.6-0.1-1.6-0.3-2.3-1.2c-0.7-0.9-1.1-2.8-1.6-4.9c-0.5-2.2-0.8-3.5-1.5-6.5c0,0-0.7,0-0.9,0
	c-0.4,0-0.7,0.1-1,0.1c0,0,0.4,6.1,0.6,8.7c0.2,2.7,0.5,7.3,0.8,10.8c0,0,0.6,0.1,1.5,0.1c1,0.1,1.4,0.1,1.4,0.1
	c0.4-1.5,0.9-3.6,1.5-4.6c0.5-0.7,1.2-0.8,1.6-0.9c0.6-0.1,1.2-0.1,1.4-0.1c0.3,0,0.8,0,1.4,0.1c0.4,0.1,1.1,0.1,1.6,0.9
	c0.6,0.9,1.1,3,1.5,4.6c0,0,0.4,0,1.4-0.1c0.9-0.1,1.5-0.1,1.5-0.1c0.3-3.5,0.6-8,0.8-10.8c0.2-2.6,0.6-8.7,0.6-8.7
	c-0.3,0-0.7-0.1-1-0.1C34.3,2.4,33.7,2.4,33.7,2.4z"/>
<path class="st0" d="M41.4,6c-0.4-3.9-3-4.7-5.3-5.1c-1.1-0.2-3.2-0.3-4.5-0.4c-1.1-0.1-3.8-0.1-4.6-0.1s-3.5,0-4.6,0.1
	c-1.3,0.1-3.3,0.2-4.5,0.4C15.6,1.3,13,2.1,12.6,6c-0.1,1.1-0.1,2.4-0.1,3.9c0,2.5,0.3,4.1,0.4,5.3c0.1,0.8,0.4,3.2,0.8,4.4
	c0.6,1.7,1.1,2.2,1.7,2.7c1.1,0.9,3,1.2,3.4,1.3c2.1,0.4,6.3,0.4,8.2,0.4c1.9,0,6.1-0.1,8.2-0.4c0.4-0.1,2.2-0.3,3.4-1.3
	c0.6-0.5,1.1-1,1.7-2.7c0.4-1.2,0.8-3.6,0.8-4.4c0.1-1.1,0.3-2.8,0.4-5.3C41.5,8.4,41.5,7.1,41.4,6z M39.9,12.5
	c-0.2,3.1-0.5,5-0.9,6.3c-0.3,1.2-0.8,2-1.4,2.5c-1,0.9-2.5,1.1-3.3,1.3C32.5,22.9,29.4,23,27,23c-2.4,0-5.5-0.1-7.3-0.4
	c-0.9-0.1-2.3-0.3-3.3-1.3c-0.6-0.6-1-1.4-1.4-2.5c-0.4-1.3-0.7-3.2-0.9-6.3C13.9,10.7,14,7.6,14.2,6c0.3-2.4,1.5-3.7,4.1-4.1
	c1.2-0.2,2.8-0.4,4.4-0.4c1.2-0.1,3.3-0.1,4.4-0.1c1.1,0,3.2,0,4.4,0.1c1.5,0.1,3.2,0.2,4.4,0.4c2.6,0.5,3.8,1.7,4.1,4.1
	C40.1,7.6,40.1,10.7,39.9,12.5z"/>
</svg>
