<svg width="54" height="35" viewBox="0 0 54 35" fill="none" xmlns="http://www.w3.org/2000/svg">
<path d="M6.46358 28.7186L7.27764 28.8155C7.64591 28.8543 7.68467 29.1644 7.68467 29.3582V30.308H3.94386V29.3582C3.94386 29.1644 3.98262 28.8543 4.35089 28.8155L5.16495 28.7186V27.9045H0.319336V28.7186L1.1334 28.8155C1.50167 28.8543 1.54043 29.1644 1.54043 29.3582V32.4982C1.54043 32.692 1.50167 33.0021 1.1334 33.0409L0.319336 33.1378V33.9519H5.16495V33.1378L4.35089 33.0409C3.98262 33.0021 3.94386 32.692 3.94386 32.4982V31.5484H7.66529V32.4982C7.66529 32.692 7.62653 33.0021 7.25826 33.0409L6.44419 33.1378V33.9519H11.2898V33.1378L10.4757 33.0409C10.1075 33.0021 10.0687 32.692 10.0687 32.4982V29.3582C10.0687 29.1644 10.1075 28.8543 10.4757 28.8155L11.2898 28.7186V27.9045H6.44419V28.7186H6.46358Z" fill="#7C7D7D"/>
<path d="M38.7353 27.9045H32.7655V28.7186L33.4827 28.7961C33.7346 28.8349 33.9091 28.9318 33.9091 29.2807V32.4788C33.9091 32.6726 33.8703 32.9827 33.5021 33.0215L32.688 33.1184V33.9325H38.7353C40.9062 33.9325 42.6893 33.0603 42.6893 30.9088C42.6893 28.7574 40.9062 27.9045 38.7353 27.9045ZM38.2895 32.7889H36.2544V29.0675H38.2895C39.4912 29.0675 39.8983 29.6296 39.8983 30.9282C39.8983 32.2074 39.4912 32.7889 38.2895 32.7889Z" fill="#7C7D7D"/>
<path d="M52.8456 33.0409C52.4579 33.0021 52.3416 32.7502 52.2253 32.5757L49.4342 28.3116C49.2404 28.0015 49.0854 27.9045 48.7946 27.9045H44.2204V28.7186L45.3252 28.8349C45.4802 28.8543 45.6934 29.0675 45.519 29.3388L43.4451 32.692C43.3675 32.8277 43.2512 32.9827 43.0187 33.0215L42.2046 33.1184V33.9325H46.0617V33.1184L45.4027 33.0603C45.112 33.0215 44.9569 32.8277 45.112 32.5951L45.4221 32.0912H49.1435L49.4149 32.4982C49.6668 32.8665 49.3567 33.0215 49.0854 33.0409L48.407 33.1184V33.9325H53.6402V33.1184L52.8456 33.0409ZM46.0617 31.0251L47.2053 29.1644L48.4264 31.0251H46.0617Z" fill="#7C7D7D"/>
<path d="M28.4429 28.7186L29.2569 28.8155C29.6252 28.8543 29.6639 29.1644 29.6639 29.3582V32.3819L26.4658 28.1565C26.3302 27.9627 26.1945 27.9045 25.8456 27.9045H21.6978V28.7186L22.5118 28.8155C22.8801 28.8543 22.9188 29.1644 22.9188 29.3582V32.4982C22.9188 32.692 22.8801 33.0021 22.5118 33.0409L21.6978 33.1378V33.9518H25.5742V33.1378L24.7602 33.0409C24.3919 33.0021 24.3532 32.692 24.3532 32.4982V29.4745L27.5513 33.6805C27.7063 33.8743 27.8226 33.9325 28.1715 33.9325H28.2103H31.1176V29.3388C31.1176 29.145 31.1564 28.8349 31.5247 28.7961L32.3387 28.6992V27.8851H28.4816L28.4429 28.7186Z" fill="#7C7D7D"/>
<path d="M16.4845 27.6914C12.5499 27.6914 11.542 29.4164 11.542 30.9089C11.542 32.4013 12.5499 34.1458 16.4845 34.1458C20.4192 34.1458 21.427 32.4207 21.427 30.9283C21.427 29.4164 20.4192 27.6914 16.4845 27.6914ZM16.4845 33.0022C14.9533 33.0022 14.3331 32.3626 14.3331 30.9283C14.3331 29.494 14.9727 28.8544 16.4845 28.8544C18.0157 28.8544 18.636 29.494 18.636 30.9283C18.636 32.3626 18.0157 33.0022 16.4845 33.0022Z" fill="#7C7D7D"/>
<path d="M33.6764 2.4165C33.0173 5.38202 32.746 6.75818 32.2033 8.89025C31.68 10.9448 31.2729 12.8637 30.5752 13.794C29.8774 14.7438 28.9276 14.9376 28.288 15.0151C27.9585 15.0539 27.7066 15.0733 26.9894 15.0733C26.2723 15.0733 26.0203 15.0539 25.6908 15.0151C25.0512 14.9376 24.1014 14.7438 23.4036 13.794C22.7059 12.8637 22.2988 10.9448 21.7949 8.89025C21.2522 6.73879 20.9808 5.38202 20.3218 2.4165C20.3218 2.4165 19.6628 2.43589 19.3721 2.45527C18.9651 2.47465 18.6549 2.51342 18.3254 2.55218C18.3254 2.55218 18.7131 8.65766 18.8875 11.2549C19.062 13.9685 19.3915 18.5621 19.6822 22.0316C19.6822 22.0316 20.2443 22.1285 21.1747 22.1672C22.1438 22.2254 22.5896 22.2254 22.5896 22.2254C22.9966 20.6942 23.4812 18.5815 24.0433 17.6705C24.5084 16.934 25.2062 16.8564 25.6132 16.7983C26.2335 16.7208 26.7762 16.7014 27.0088 16.7014C27.2608 16.7014 27.7841 16.7014 28.4043 16.7983C28.8114 16.8564 29.5091 16.934 29.9743 17.6705C30.5364 18.5815 31.0403 20.6942 31.428 22.2254C31.428 22.2254 31.8544 22.2254 32.8235 22.1672C33.7539 22.1091 34.316 22.0316 34.316 22.0316C34.6067 18.5621 34.9362 13.9878 35.1107 11.2549C35.2851 8.67704 35.6727 2.55218 35.6727 2.55218C35.3432 2.51342 35.0137 2.47465 34.6261 2.45527C34.3354 2.43589 33.6764 2.4165 33.6764 2.4165Z" fill="#7C7D7D"/>
<path d="M41.3711 6.02158C40.9834 2.14508 38.3862 1.33102 36.1184 0.94337C34.9749 0.749546 32.9397 0.594486 31.6411 0.536339C30.4975 0.458809 27.8228 0.420044 27.0087 0.420044C26.1946 0.420044 23.5198 0.458809 22.3763 0.536339C21.0777 0.594486 19.0425 0.749546 17.8989 0.94337C15.6312 1.33102 13.0339 2.14508 12.6463 6.02158C12.53 7.08761 12.5106 8.46377 12.53 9.93684C12.5687 12.3984 12.782 14.0459 12.8983 15.2089C12.9758 16.0035 13.3053 18.3682 13.7317 19.5893C14.3132 21.2756 14.8365 21.7601 15.4567 22.2641C16.5809 23.1751 18.4416 23.4658 18.8293 23.5433C20.9226 23.9116 25.148 23.9891 27.0281 23.9891C28.8888 23.9891 33.1335 23.931 35.2269 23.5433C35.6145 23.4658 37.4752 23.1944 38.5994 22.2641C39.2196 21.7601 39.743 21.2756 40.3244 19.5893C40.7509 18.3682 41.0804 15.9842 41.1579 15.2089C41.2742 14.0653 41.4874 12.3984 41.5262 9.93684C41.5068 8.44439 41.468 7.06823 41.3711 6.02158ZM39.9368 12.5341C39.7042 15.6353 39.4328 17.496 39.0452 18.8334C38.6963 20.0157 38.2699 20.791 37.6497 21.3531C36.603 22.3029 35.1687 22.4967 34.3159 22.6324C32.4939 22.9037 29.4121 23.0006 27.0087 23.0006C24.5859 23.0006 21.5234 22.9037 19.7015 22.6324C18.8487 22.4967 17.4144 22.3029 16.3677 21.3531C15.7475 20.791 15.3211 19.9963 14.9722 18.8334C14.5845 17.496 14.2938 15.6353 14.0806 12.5341C13.9449 10.6734 13.9643 7.6497 14.1775 6.02158C14.4682 3.57939 15.6699 2.35829 18.2478 1.91249C19.4495 1.69929 21.0777 1.54423 22.6089 1.4667C23.8493 1.38917 25.8651 1.3504 27.0087 1.3504C28.1329 1.33102 30.168 1.38917 31.3891 1.4667C32.9203 1.54423 34.5485 1.69929 35.7502 1.91249C38.328 2.37767 39.5298 3.59877 39.8399 6.02158C40.0531 7.63032 40.0725 10.654 39.9368 12.5341Z" fill="#7C7D7D"/>
</svg>
