<svg id="svg8" xmlns="http://www.w3.org/2000/svg" viewBox="0 0 230.6 125"><g id="layer1"><g id="g1675"><polygon id="polygon1603" points="0.1 87.8 9.2 26.8 26.9 26.8 17.7 87.8 0.1 87.8" style="fill:#003da5"/><circle id="circle1605" cx="20.5" cy="10.8" r="10.8" style="fill:#003da5"/><path id="path1607" d="M91.1,87.8h18.1L86.5,5.4h-16L23.1,87.8H41.3L53.8,66.1H85.1ZM62.8,50.4l12.1-21,5.9,21Z" transform="translate(0 0)" style="fill:#003da5"/><path id="path1609" d="M214.4,0a16.1,16.1,0,0,1,16.2,16.1,17.3,17.3,0,0,1-.3,3.2L223,68.4v.5a2.7,2.7,0,0,0,2.7,2.7h2.7V82.4h-7.6A10.8,10.8,0,0,1,210,71.7h0V43H194.3a16.5,16.5,0,0,1-14.5-14.3,17.4,17.4,0,0,1,.1-5.1L183.5,0Z" transform="translate(0 0)" style="fill:#7c878e"/><path id="path1611" d="M177.1,5.4H154.2C137.9,5.4,124.6,18,122.6,34l-8,53.8h13.8l6-21.8h45V87.8h13.3l6-39.4h-5a22,22,0,0,1-19.3-19,20.8,20.8,0,0,1,0-6.1l2.7-17.8" transform="translate(0 0)" style="fill:#7c878e"/><polygon id="polygon1613" points="138.5 71.5 134 87.8 147.8 87.8 154.7 71.5 138.5 71.5" style="fill:#7c878e"/><path id="path1615" d="M0,99.4H15.9v4.2H4.6V108h9.9v4.2H4.6v8H0Z" transform="translate(0 0)" style="fill:#003da5"/><path id="path1617" d="M18.3,104.3h4.5v15.9H18.3Z" transform="translate(0 0)" style="fill:#003da5"/><path id="path1619" d="M26.4,104.3h4.5v2.3a5.7,5.7,0,0,1,4.7-2.6c3.4,0,5.4,2.3,5.4,5.9v10.3H36.5v-8.9c0-2.1-1-3.2-2.7-3.2s-2.9,1.1-2.9,3.2v8.9H26.4Z" transform="translate(0 0)" style="fill:#003da5"/><path id="path1621" d="M43.2,112.3h0c0-5.3,3.5-8.2,7.3-8.2a5.8,5.8,0,0,1,5,2.4v-2.1H60v15.9H55.5V118a6,6,0,0,1-5,2.6C46.8,120.5,43.2,117.6,43.2,112.3Zm12.3,0h0c0-2.6-1.7-4.4-3.8-4.4s-3.9,1.8-3.9,4.4h0c0,2.7,1.7,4.4,3.9,4.4S55.5,114.9,55.5,112.3Z" transform="translate(0 0)" style="fill:#003da5"/><path id="path1623" d="M63.3,104.3h4.5v2.3a5.7,5.7,0,0,1,4.7-2.6c3.4,0,5.4,2.3,5.4,5.9v10.3H73.4v-8.9c0-2.1-1-3.2-2.7-3.2s-2.9,1.1-2.9,3.2v8.9H63.3Z" transform="translate(0 0)" style="fill:#003da5"/><path id="path1625" d="M80.4,112.4h0a8.3,8.3,0,0,1,8.1-8.3h.3a8.2,8.2,0,0,1,6.4,2.7l-2.8,3a4.7,4.7,0,0,0-3.6-1.8,4.1,4.1,0,0,0-3.9,4.3h0a4.1,4.1,0,0,0,3.7,4.4h.3a4.8,4.8,0,0,0,3.7-1.7l2.7,2.7a8.3,8.3,0,0,1-6.6,2.9,8.2,8.2,0,0,1-8.3-8h0Z" transform="translate(0 0)" style="fill:#003da5"/><path id="path1627" d="M97.8,104.3h4.5v15.9H97.8Z" transform="translate(0 0)" style="fill:#003da5"/><path id="path1629" d="M104.8,112.3h0c0-5.3,3.5-8.2,7.3-8.2a5.8,5.8,0,0,1,5,2.4v-2.1h4.5v15.9h-4.5V118a5.9,5.9,0,0,1-5,2.6C108.4,120.5,104.8,117.6,104.8,112.3Zm12.3,0h0c0-2.6-1.7-4.4-3.8-4.4s-3.9,1.8-3.9,4.4h0c0,2.7,1.7,4.4,3.9,4.4S117.1,114.9,117.1,112.3Z" transform="translate(0 0)" style="fill:#003da5"/><path id="path1631" d="M125.1,98.5h4.5v21.7h-4.5Z" transform="translate(0 0)" style="fill:#003da5"/><path id="path1633" d="M141.1,109.9h0a10.6,10.6,0,0,1,10.6-10.7h.3a11.3,11.3,0,0,1,8.2,2.8l-2.9,3.5a7.8,7.8,0,0,0-5.4-2.1,6.1,6.1,0,0,0-6,6.5h0a6.2,6.2,0,0,0,5.8,6.6h.5a7.4,7.4,0,0,0,4.3-1.2v-3h-4.6v-4h9v9a14,14,0,0,1-8.9,3.3,10.4,10.4,0,0,1-10.9-9.7v-.9Z" transform="translate(0 0)" style="fill:#003da5"/><path id="path1635" d="M164.3,104.3h4.5v3.2c.9-2.2,2.4-3.6,5.1-3.5v4.7h-.3c-3,0-4.8,1.8-4.8,5.7v5.8h-4.6Z" transform="translate(0 0)" style="fill:#003da5"/><path id="path1637" d="M174.9,112.4h0a8.6,8.6,0,0,1,8.8-8.4,8.7,8.7,0,0,1,8.4,8.3h0a8.6,8.6,0,0,1-17.2.1Zm12.7,0h0a4.2,4.2,0,0,0-4-4.4h-.2a4.2,4.2,0,0,0-4.1,4v.3h0a4.2,4.2,0,0,0,4.1,4.4h.1a4.1,4.1,0,0,0,4.1-4Z" transform="translate(0 0)" style="fill:#003da5"/><path id="path1639" d="M194.6,114.6V104.3h4.6v8.9c0,2.1,1,3.2,2.7,3.2s2.8-1.1,2.8-3.2v-8.9h4.5v15.9h-4.5V118a5.8,5.8,0,0,1-4.6,2.6c-3.5,0-5.5-2.3-5.5-6Z" transform="translate(0 0)" style="fill:#003da5"/><path id="path1641" d="M212.6,104.3h4.6v2.3a5.6,5.6,0,0,1,5-2.6c3.7,0,7.2,2.9,7.2,8.2h0c0,5.3-3.5,8.2-7.2,8.2a6,6,0,0,1-5-2.3V125h-4.6Zm12.3,8h0a3.9,3.9,0,1,0-7.8,0h0c0,2.7,1.8,4.4,3.9,4.4S224.9,115,224.9,112.3Z" transform="translate(0 0)" style="fill:#003da5"/><path id="path1643" d="M100,98.1a2.4,2.4,0,0,1,2.5,2.5,2.5,2.5,0,0,1-2.5,2.6,2.6,2.6,0,0,1-2.6-2.6,2.5,2.5,0,0,1,2.6-2.5Z" transform="translate(0 0)" style="fill:#2f4995"/><path id="path1645" d="M20.5,98.1a2.6,2.6,0,1,1-2.6,2.5,2.6,2.6,0,0,1,2.6-2.5Z" transform="translate(0 0)" style="fill:#2f4995"/></g></g></svg>