<svg id="svg8" xmlns="http://www.w3.org/2000/svg" viewBox="0 0 230.6 125"><defs><style>.cls-1{fill:#fff;}</style></defs><title>ia_financial_group_white</title><g id="layer1"><g id="g1675"><polygon id="polygon1603" class="cls-1" points="0.06 87.83 9.23 26.75 26.88 26.75 17.69 87.83 0.06 87.83"/><circle id="circle1605" class="cls-1" cx="20.46" cy="10.77" r="10.77"/><path id="path1607" class="cls-1" d="M92.1,88.83h18.1L87.46,6.43h-16L24.1,88.83H42.32l12.5-21.76H86.08ZM63.83,51.39l12.11-21L81.75,51.4Z" transform="translate(-1 -1)"/><path id="path1609" class="cls-1" d="M215.44,1A16.15,16.15,0,0,1,231.3,20.25L224,69.38a4,4,0,0,0,0,.49,2.73,2.73,0,0,0,2.73,2.73h2.66V83.4h-7.58A10.75,10.75,0,0,1,211,72.71V44H197.2a16.26,16.26,0,0,1-1.85-.1A16.53,16.53,0,0,1,180.8,29.61a17.11,17.11,0,0,1,.15-5.15L184.47,1Z" transform="translate(-1 -1)"/><path id="path1611" class="cls-1" d="M178.12,6.43H155.18C138.93,6.43,125.55,19,123.64,35l-8.07,53.81h13.87l6-21.76h45V88.83h13.27l6-39.42h-2.52a22.57,22.57,0,0,1-2.47-.13,22,22,0,0,1-19.36-19,22.33,22.33,0,0,1,.07-6.11l2.66-17.75" transform="translate(-1 -1)"/><polygon id="polygon1613" class="cls-1" points="138.54 71.47 134 87.83 147.82 87.83 154.65 71.47 138.54 71.47"/><path id="path1615" class="cls-1" d="M1,100.42H16.85v4.16H5.58V109h9.93v4.16H5.58v8.06H1Z" transform="translate(-1 -1)"/><path id="path1617" class="cls-1" d="M19.26,105.3h4.52v15.94H19.26Z" transform="translate(-1 -1)"/><path id="path1619" class="cls-1" d="M27.41,105.3h4.52v2.26A5.64,5.64,0,0,1,36.59,105C40,105,42,107.26,42,110.92v10.32H37.49v-8.89c0-2.14-1-3.24-2.74-3.24s-2.83,1.1-2.83,3.24v8.89H27.41Z" transform="translate(-1 -1)"/><path id="path1621" class="cls-1" d="M44.24,113.3v-.06c0-5.32,3.48-8.24,7.26-8.24a6.1,6.1,0,0,1,5,2.38V105.3H61v15.94H56.46V119a5.84,5.84,0,0,1-5,2.59C47.78,121.54,44.24,118.62,44.24,113.3Zm12.28,0v-.06c0-2.65-1.75-4.4-3.87-4.4s-3.9,1.72-3.9,4.4v.06c0,2.65,1.78,4.4,3.9,4.4S56.52,115.94,56.52,113.3Z" transform="translate(-1 -1)"/><path id="path1623" class="cls-1" d="M64.31,105.3h4.52v2.26A5.64,5.64,0,0,1,73.5,105c3.42,0,5.41,2.26,5.41,5.92v10.32H74.39v-8.89c0-2.14-1-3.24-2.74-3.24s-2.82,1.1-2.82,3.24v8.89H64.31Z" transform="translate(-1 -1)"/><path id="path1625" class="cls-1" d="M81.44,113.36v-.06A8.18,8.18,0,0,1,89.5,105h.3a7.83,7.83,0,0,1,6.36,2.68l-2.77,3a4.66,4.66,0,0,0-3.63-1.75,4.06,4.06,0,0,0-3.87,4.26v.14a4.08,4.08,0,0,0,3.75,4.39h.25A5,5,0,0,0,93.6,116l2.65,2.68a8,8,0,0,1-6.51,2.91,8.14,8.14,0,0,1-8.3-8Z" transform="translate(-1 -1)"/><path id="path1627" class="cls-1" d="M98.77,105.3h4.52v15.94H98.77Z" transform="translate(-1 -1)"/><path id="path1629" class="cls-1" d="M105.85,113.3v-.06c0-5.32,3.48-8.24,7.26-8.24a6.1,6.1,0,0,1,5,2.38V105.3h4.52v15.94h-4.52V119a5.84,5.84,0,0,1-5,2.59C109.39,121.54,105.85,118.62,105.85,113.3Zm12.28,0v-.06c0-2.65-1.75-4.4-3.87-4.4s-3.9,1.72-3.9,4.4v.06c0,2.65,1.78,4.4,3.9,4.4S118.13,115.94,118.13,113.3Z" transform="translate(-1 -1)"/><path id="path1631" class="cls-1" d="M126.13,99.53h4.52v21.71h-4.52Z" transform="translate(-1 -1)"/><path id="path1633" class="cls-1" d="M142.13,110.89v-.06a10.67,10.67,0,0,1,10.6-10.76H153a11.43,11.43,0,0,1,8.18,2.85l-2.88,3.48a7.68,7.68,0,0,0-5.44-2.11,6.25,6.25,0,0,0-6,6.48v.06a6.24,6.24,0,0,0,5.87,6.59h.43a7.27,7.27,0,0,0,4.31-1.25v-3h-4.61v-4h9v9a13.52,13.52,0,0,1-8.89,3.3,10.26,10.26,0,0,1-10.84-10.59Z" transform="translate(-1 -1)"/><path id="path1635" class="cls-1" d="M165.26,105.3h4.52v3.21c.92-2.2,2.41-3.63,5.08-3.51v4.73h-.24c-3,0-4.85,1.81-4.85,5.62v5.89h-4.52Z" transform="translate(-1 -1)"/><path id="path1637" class="cls-1" d="M175.85,113.36v-.06a8.63,8.63,0,0,1,17.25-.06v.06a8.63,8.63,0,0,1-17.25.06Zm12.79,0v-.06a4.24,4.24,0,0,0-4.06-4.4h-.13a4.08,4.08,0,0,0-4.14,4c0,.11,0,.21,0,.32v.06a4.24,4.24,0,0,0,4.06,4.4h.13a4.08,4.08,0,0,0,4.14-4C188.65,113.57,188.65,113.47,188.64,113.36Z" transform="translate(-1 -1)"/><path id="path1639" class="cls-1" d="M195.63,115.62V105.3h4.52v8.89c0,2.14,1,3.24,2.74,3.24s2.83-1.1,2.83-3.24V105.3h4.52v15.94h-4.52V119a5.64,5.64,0,0,1-4.67,2.56c-3.43,0-5.42-2.28-5.42-5.94Z" transform="translate(-1 -1)"/><path id="path1641" class="cls-1" d="M213.65,105.3h4.52v2.29a5.84,5.84,0,0,1,5-2.59c3.72,0,7.26,2.91,7.26,8.24v.06c0,5.32-3.48,8.24-7.26,8.24a6.1,6.1,0,0,1-5-2.38V126h-4.52Zm12.22,8v-.06c0-2.65-1.78-4.4-3.9-4.4s-3.87,1.75-3.87,4.4v.06c0,2.65,1.75,4.4,3.87,4.4S225.87,116,225.87,113.3Z" transform="translate(-1 -1)"/><path id="path1643" class="cls-1" d="M101,99.06a2.57,2.57,0,1,1-2.59,2.59A2.57,2.57,0,0,1,101,99.06Z" transform="translate(-1 -1)"/><path id="path1645" class="cls-1" d="M21.52,99.06a2.57,2.57,0,1,1-2.59,2.59,2.57,2.57,0,0,1,2.59-2.59Z" transform="translate(-1 -1)"/></g></g></svg>