<svg xmlns="http://www.w3.org/2000/svg" viewBox="0 0 565.97 283.93"><defs><style>.a{fill:#c73d20;}</style></defs><title>iab</title><path d="M31.37,401.46q0-43.59-.05-87.17c0-2.16.53-2.63,2.64-2.62q25.44.15,50.89,0c1.82,0,2.25.45,2.25,2.26q-.09,87.66,0,175.31c0,1.91-.48,2.4-2.39,2.39q-25.56-.12-51.13,0c-1.86,0-2.25-.49-2.25-2.29Q31.42,445.4,31.37,401.46Z" transform="translate(-22.77 -209)"/><path class="a" d="M516.07,456.54c.08-20.3,16.33-36.22,36.83-36.11,19.61.1,36.17,16.58,35.83,36.22-.36,20.78-16.21,36.43-36.56,36.28A35.91,35.91,0,0,1,516.07,456.54Z" transform="translate(-22.77 -209)"/><path class="a" d="M59.11,214.14a36.25,36.25,0,1,1,0,72.5c-19.9,0-36.32-16.26-36.37-36A36.52,36.52,0,0,1,59.11,214.14Z" transform="translate(-22.77 -209)"/><path d="M480.9,350.86C454.83,310.3,403.44,299.67,365,326c-.31.21-.57.62-1.25.37v-2.53q0-56.13.05-112.27c0-2.2-.58-2.6-2.66-2.59q-25.2.13-50.41,0c-2.23,0-2.73.58-2.73,2.76q.09,111.54.05,223.08c0,18.1,0,36.2-.05,54.3,0,2.07.56,2.51,2.55,2.5q25.33-.13,50.66,0c2.25,0,2.66-.65,2.58-2.7-.16-4.16,0-8.34,0-12.88l1.74,1.15c30.45,20.4,69,18.54,97.31-4.69C498.13,443.52,506.11,390.07,480.9,350.86ZM399.76,437.5a36.25,36.25,0,1,1,36.46-36.08A36.23,36.23,0,0,1,399.76,437.5Z" transform="translate(-22.77 -209)"/><path d="M289.91,313.81c0-1.72-.44-2.13-2.14-2.12q-25.69.09-51.39,0c-1.88,0-2.28.52-2.22,2.29.13,4.24,0,8.49,0,13l-2.58-1.7A80.28,80.28,0,0,0,139,327.37c-42.92,31.36-49.39,96.45-13.14,136.2,20.77,22.76,46.7,31.68,77.21,26.05,11.23-2.08,21.4-6.88,31.14-13.74,0,4.8.11,9.17,0,13.52-.07,1.9.55,2.24,2.31,2.23q25.57-.11,51.15,0c1.75,0,2.3-.33,2.3-2.22Q289.84,401.6,289.91,313.81ZM197.77,437.5a36.25,36.25,0,1,1,36.37-36.16A36.28,36.28,0,0,1,197.77,437.5Z" transform="translate(-22.77 -209)"/></svg>