<svg xmlns="http://www.w3.org/2000/svg" viewBox="0 0 566 283.95"><defs><style>.a{fill:#fff;}</style></defs><title>iab_white</title><path class="a" d="M8.6,192.46q0-43.59,0-87.17c0-2.16.53-2.63,2.64-2.62q25.44.15,50.89,0c1.82,0,2.25.45,2.25,2.26q-.09,87.66,0,175.31c0,1.91-.48,2.4-2.39,2.39q-25.56-.12-51.13,0c-1.86,0-2.25-.49-2.25-2.29Q8.65,236.41,8.6,192.46Z" transform="translate(0.03 0.02)"/><path class="a" d="M493.3,247.54c.08-20.3,16.33-36.22,36.83-36.11,19.61.1,36.17,16.58,35.83,36.22-.36,20.78-16.21,36.43-36.56,36.28a35.9,35.9,0,0,1-36.1-35.72Z" transform="translate(0.03 0.02)"/><path class="a" d="M36.34,5.14a36.25,36.25,0,0,1,0,72.5C16.44,77.64,0,61.38,0,41.64A36.52,36.52,0,0,1,36.34,5.14Z" transform="translate(0.03 0.02)"/><path class="a" d="M458.13,141.86C432.06,101.3,380.67,90.67,342.23,117c-.31.21-.57.62-1.25.37v-2.53q0-56.13,0-112.27c0-2.2-.58-2.6-2.66-2.59Q313.17.12,288,0c-2.23,0-2.73.58-2.73,2.76q.09,111.54,0,223.08,0,27.15,0,54.3c0,2.07.56,2.51,2.55,2.5q25.34-.14,50.66,0c2.25,0,2.66-.65,2.58-2.7-.16-4.16,0-8.34,0-12.88l1.74,1.15c30.45,20.4,69,18.54,97.31-4.69C475.36,234.52,483.34,181.07,458.13,141.86ZM377,228.5a36.42,36.42,0,1,1,.08,0Z" transform="translate(0.03 0.02)"/><path class="a" d="M267.14,104.81c0-1.72-.44-2.13-2.14-2.12q-25.69.09-51.39,0c-1.88,0-2.28.52-2.22,2.29.13,4.24,0,8.49,0,13l-2.58-1.7a80.27,80.27,0,0,0-92.58,2.09c-42.92,31.36-49.39,96.45-13.14,136.2,20.77,22.76,46.7,31.68,77.21,26.05,11.23-2.08,21.4-6.88,31.14-13.74,0,4.8.11,9.17,0,13.52-.07,1.9.55,2.24,2.31,2.23q25.58-.11,51.15,0c1.75,0,2.3-.33,2.3-2.22Q267.07,192.6,267.14,104.81ZM175,228.5a36.25,36.25,0,1,1,36.37-36.16A36.25,36.25,0,0,1,175,228.5Z" transform="translate(0.03 0.02)"/></svg>