<svg xmlns="http://www.w3.org/2000/svg" viewBox="0 0 325.89 101.83"><defs><style>.a{fill:#fff;}</style></defs><title>ids_media_white</title><path class="a" d="M123,199.5c-.71.82-1.37,1.69-2.13,2.46Q97,225.9,73.15,249.68L123,299.25l-.61.87H16.17l50-50c-2-1.83-3.73-3.41-5.41-5.09Q38.89,223.2,17.07,201.32a11.11,11.11,0,0,1-1.26-1.82ZM69.92,254.66,29.1,295.37h81.54Z" transform="translate(-15.81 -199.5)"/><path class="a" d="M195.36,199.5q-.09,24-.17,47.94v4.12h-8.51l-.63-3.42a16.56,16.56,0,0,1-14.31,4.32,18.56,18.56,0,0,1-11.68-6.71c-5.51-6.78-5-18.23,1.14-24.81,6.44-6.88,15.91-7.44,25.15-1.07,0-3.88-.06-7.41,0-10.93.07-3.15.29-6.29.45-9.44Zm-9,34.33c-.07-6.28-4.62-10.85-10.75-10.78a11,11,0,0,0,.32,21.9C182,244.87,186.4,240.15,186.34,233.83Z" transform="translate(-15.81 -199.5)"/><path class="a" d="M146.69,199.5c.66.36,1.35.69,2,1.09a5.2,5.2,0,0,1,2.42,6c-.58,2.51-2.42,4.34-4.91,3.91a8.33,8.33,0,0,1-5.06-3.29c-1.37-2.07-.45-4.44,1.53-6.12.65-.56,1.37-1,2.05-1.55Z" transform="translate(-15.81 -199.5)"/><path class="a" d="M141.78,265.22h8.52l.32,3.75c3-3.38,6.37-5.12,10.5-4.86s7.46,1.7,9.7,5.67c.77-.66,1.41-1.17,2-1.74,4.31-4.23,9.37-4.91,14.85-2.92,5.08,1.85,7.18,6.09,7.38,11,.31,7.86.09,15.75.09,23.91h-8.85c0-5.87,0-11.64,0-17.42,0-1.53,0-3.07,0-4.6-.22-3.57-1.8-5.67-4.85-6.09s-5.79.77-7,3.67a19.91,19.91,0,0,0-1.46,7c-.21,5.58-.09,11.18-.11,16.76,0,.2-.15.39-.31.79h-8.56V292c0-4.16,0-8.33,0-12.49,0-5-2-7.54-5.72-7.7a7.55,7.55,0,0,0-7.5,7.28c-.32,5.13-.17,10.29-.22,15.43,0,1.75,0,3.49,0,5.51h-8.69Z" transform="translate(-15.81 -199.5)"/><path class="a" d="M272.34,268.78v-20h8.29v51.27h-8.09l-.5-3.44a16.4,16.4,0,0,1-14.11,4.53,17.72,17.72,0,0,1-12.61-7.47c-5-7.13-4.13-18.25,1.91-24.24C254,262.69,263.4,262.29,272.34,268.78Zm-21.32,14c0,6.37,4.52,10.89,10.66,10.81a10.91,10.91,0,0,0-.21-21.81C255.32,271.83,251,276.41,251,282.79Z" transform="translate(-15.81 -199.5)"/><path class="a" d="M333.25,268.65l.35-3.41h8.09v34.88h-8c-.14-1-.29-2.05-.5-3.51A17,17,0,0,1,317,300.77a17.26,17.26,0,0,1-10.27-6.58c-5.36-7.16-4.68-18.59,1.31-24.56C315,262.72,324.15,262.27,333.25,268.65Zm-10.77,25a10.91,10.91,0,0,0,.34-21.81c-6.13-.11-10.76,4.46-10.88,10.73A10.61,10.61,0,0,0,322.48,293.6Z" transform="translate(-15.81 -199.5)"/><path class="a" d="M237.26,284.93H209.33c-.19,5.18,4.12,9.3,9.62,9.08,2.1-.08,4.91-.46,6.09-1.83,3.3-3.82,7.31-3,11.36-2.88-.11,6.61-8.93,12.39-18.32,12-11-.45-18.77-9.09-18-20a18.44,18.44,0,0,1,20.46-17.17C231.27,265.16,238.44,273.8,237.26,284.93Zm-27.93-5.82h18.82c-.64-4.55-4.06-7.44-8.9-7.67S210.75,273.82,209.33,279.11Z" transform="translate(-15.81 -199.5)"/><path class="a" d="M200.94,241c2.73,0,4.69.08,6.65,0a3.58,3.58,0,0,1,3.68,1.9,7.07,7.07,0,0,0,9.31,2.15c1.19-.77,2.5-2.55,2.4-3.75s-1.77-2.67-3.07-3.13c-2.13-.76-4.53-.66-6.77-1.17a28.71,28.71,0,0,1-6.2-2,9.47,9.47,0,0,1-3.51-14.21c5.77-8.15,22-7,26.43,1.94a27.68,27.68,0,0,1,1.28,4.35c-2.76,0-5.06.13-7.32-.08a3.52,3.52,0,0,1-2.06-1.59c-1.92-2.81-6-4.11-8.91-2.39a4.84,4.84,0,0,0-2.22,3.23,3.93,3.93,0,0,0,2,3c1.61.78,3.54.91,5.34,1.31,2.65.58,5.43.82,7.92,1.81,6.76,2.68,8.37,10.48,3.46,15.87-6.21,6.82-20.8,5.81-25.91-1.87A43.09,43.09,0,0,1,200.94,241Z" transform="translate(-15.81 -199.5)"/><path class="a" d="M150.35,216.47v35.08h-8.62V216.47Z" transform="translate(-15.81 -199.5)"/><path class="a" d="M288.89,300.1V265.3h8.35v34.8Z" transform="translate(-15.81 -199.5)"/><path class="a" d="M292.89,259.28a5.63,5.63,0,0,1-5.26-5.59,5.46,5.46,0,0,1,5.46-5,5.21,5.21,0,0,1,5.35,5.37A5.42,5.42,0,0,1,292.89,259.28Z" transform="translate(-15.81 -199.5)"/></svg>