<svg id="svg855" xmlns="http://www.w3.org/2000/svg" viewBox="0 0 2226.5 832.8"><path d="M1113.4,0C466.8,0,0,189,0,416.4S466.5,832.8,1113.4,832.8s1113.1-189,1113.1-416.4S1759.9,0,1113.4,0Zm-683,579.5H203.3c5-10,5-19.6,5-29.6V265c0-10,0-19.6-5-29.6H430.4c-5,10-5,19.6-5,29.6V549.9c0,10,0,19.6,5,29.6Zm391.2,0c0-10-9.7-30.3-20.3-46.2S733.2,430,733.2,430V549.9c0,10,0,19.6,5,29.5H529.3c5-10,5-19.6,5-29.5V265c0-10,0-19.6-5-29.6H738.2c-5,10-5,19.6-5,29.6V389.5s66.7-86.7,82-107.3c11.6-15.2,25.9-36.8,25.9-46.8h217.8c-15,10-31.5,27.9-45.2,44.5L934,377.2l113.6,172.7a193.2,193.2,0,0,0,24.7,29.5Zm690-249.1c-10-4.7-19.6-4.7-29.6-4.7H1312.3v45.5h163V444h-163v45.2H1482c10,0,19.5,0,29.5-5v95.3H1108.4c5-10,5-19.6,5-29.6V265c0-10,0-19.6-5-29.6h403.1Zm356.2,249.1c1-10-2.6-19.6-6.6-29.6l-8-19.6-2-5H1725.4l-2,5.3s-3.7,9.6-7,19.6-7,19.6-5.7,29.6H1538.4a86,86,0,0,0,15.6-29.6l103.3-284.9c3.7-10,7.3-19.6,6-29.5h291.2c-2.6,10,2.7,19.5,6.3,29.5,8.7,21.6,102,265.3,109.3,284.6h0a83.6,83.6,0,0,0,16.2,29.5ZM2091,265v.2a45.3,45.3,0,0,1-90.6-2.5h0a3.2,3.2,0,0,1,.3-3v-.8a43.4,43.4,0,0,1,45.2-41.4h1.9a44.1,44.1,0,0,1,43.2,45.2h0Z" style="fill:#fff"/><path d="M1786.5,350.3a125.5,125.5,0,0,1-6,22.6c-1,3.3-14,38.2-28.9,79.7h72.1l-30.6-79.7A177.2,177.2,0,0,1,1786.5,350.3Z" style="fill:#fff"/><path d="M2057.5,253.7c0-5.3-3.7-10-9-10h-12V263h11v-.3a9.2,9.2,0,0,0,10-8.2h0Z" style="fill:#fff"/><path d="M2045.5,226.2h-2.7a34.9,34.9,0,0,0-33.5,36.2h0v2.3a36.2,36.2,0,0,0,72.4-2v-1.6A35.5,35.5,0,0,0,2045.5,226.2Zm13.2,63.8-10.6-19.3h-11.6V290h-8V235.4h20.2a17.4,17.4,0,0,1,17,17.6,18.5,18.5,0,0,1-9.7,16l11.7,21Z" style="fill:#fff"/></svg>