<svg id="svg855" xmlns="http://www.w3.org/2000/svg" viewBox="0 0 2317.1 941"><g id="layer1"><path id="path836" d="M2316.8,941.1H0V.1H2317.1v941Z" transform="translate(0 -0.1)" style="fill:#0058a3"/><path id="path838" d="M45.2,470.5c0,227.5,466.5,416.4,1113.4,416.4s1113-189,1113-416.4S1805.1,54.1,1158.6,54.1,45.2,243.1,45.2,470.5Z" transform="translate(0 -0.1)" style="fill:#ffdb00"/><path id="path840" d="M783.3,289.5c-5,10-5,19.6-5,29.6V443.6s66.8-86.6,82-107.2c11.7-15.3,25.9-36.9,25.9-46.9h217.9c-15,10-31.6,27.9-45.2,44.5l-79.7,97.3S1079.8,584.4,1092.8,604a188.6,188.6,0,0,0,24.6,29.6H866.7c0-10-9.7-30.2-20.3-46.2s-68-103.3-68-103.3V604c0,10,0,19.6,5,29.6H574.5c5-10,5-19.6,5-29.6V319.1c0-10,0-19.6-5-29.6Zm773.4,0H1153.6c5,10,5,19.6,5,29.6V604c0,10,0,19.6-5,29.6h403.1V538.3c-10,5-19.6,5-29.6,5H1357.5V498.1h163V425.4h-163V379.8h169.6c10,0,19.6,0,29.6,4.7ZM2115.2,604a84.2,84.2,0,0,0,16.3,29.6H1913c1-10-2.7-19.6-6.7-29.6l-8-19.6-2-5H1770.5l-2,5.3s-3.6,9.7-7,19.6-7,19.6-5.6,29.6H1583.6a89.5,89.5,0,0,0,15.6-29.6l103.3-284.9c3.6-10,7.3-19.6,6-29.5h291.2c-2.7,10,2.6,19.6,6.3,29.5,8.6,21.6,102,265.3,109.2,284.6m-246.4-97.3L1838.3,427a195.5,195.5,0,0,1-6.7-22.6,125.5,125.5,0,0,1-6,22.6c-1,3.3-14,38.2-28.8,79.7ZM470.5,319.1c0-10,0-19.6,5-29.6H248.4c5,10,5,19.6,5,29.6V604c0,10,0,19.6-5,29.6H475.5c-5-10-5-19.6-5-29.6Zm1575-2.3a45.4,45.4,0,1,0,90.7,2.5v-2.5a44.3,44.3,0,0,0-43.3-45.2H2091a43.4,43.4,0,0,0-45.2,41.4v.8a3.2,3.2,0,0,0-.3,3m81.3,0a36.2,36.2,0,0,1-72.4,2v-2.3a35,35,0,0,1,33.6-36.2h2.6a35.6,35.6,0,0,1,36.2,34.9v1.6m-13.9,27.3h-9l-10.6-19.3h-11.7v19.3h-8V289.5h20.3a17.4,17.4,0,0,1,16.9,17.6,18.2,18.2,0,0,1-9.6,16Zm-20.3-27.3a9.1,9.1,0,0,0,10-8.3v-.7c0-5.3-3.6-10-9-10h-12v19.3h11" transform="translate(0 -0.1)" style="fill:#0058a3"/></g></svg>