<svg id="Layer_1" data-name="Layer 1" xmlns="http://www.w3.org/2000/svg" viewBox="0 0 237 25.9"><path d="M102.3,8.1c-4.6,1.1-7.2,5.5-6.3,10.6a8.4,8.4,0,0,0,9.4,7c3.5-.4,6.1-2.4,6.6-5.3l-3.4-1c-1.6,2.3-3.1,2.9-5.2,2.4a3.8,3.8,0,0,1-3-3.7h10.8c.7,0,1.2,0,1.3-1a8.1,8.1,0,0,0-6.8-9.2A7.8,7.8,0,0,0,102.3,8.1Zm-1.7,6.8a3.2,3.2,0,0,1,3-3.3,3.7,3.7,0,0,1,4.3,2.7,1.3,1.3,0,0,0,.1.6Z" transform="translate(0 0)" style="fill:#fff"/><path d="M153.7,8.3c-3.4-.9-6.6-.4-8.9,2.4a9.1,9.1,0,0,0-1.3,10.2c1.4,3.3,4.2,4.8,7.7,4.9s7.2-2.3,7.7-5.4l-3.5-1c-1.7,2.3-3.2,2.9-5.2,2.4a3.8,3.8,0,0,1-3-3.7h10.7a1.7,1.7,0,0,0,1.3-.7A8,8,0,0,0,153.7,8.3Zm-6.2,6.5a3.2,3.2,0,0,1,2.8-3.2c2.4-.3,4,.8,4.4,3.2Z" transform="translate(0 0)" style="fill:#fff"/><path d="M210,7.9a9,9,0,0,0-.3,18,8.9,8.9,0,0,0,9.1-8.7v-.4a8.5,8.5,0,0,0-8.1-8.9H210Zm0,13.7a4.4,4.4,0,0,1-4.3-4.5v-.3c0-2.8,1.9-4.9,4.4-4.8s4.3,2.1,4.3,4.9S212.5,21.7,210,21.6Z" transform="translate(0 0)" style="fill:#fff"/><path d="M236.9,13c-.2-3.1-2.7-5-5.8-5.1a6.8,6.8,0,0,0-5,2.2c0-.7-.1-1.1-.1-1.6h-4.3V25.2h4.5V23.5c0-2.6-.1-5.3,0-8a3.2,3.2,0,0,1,2.9-3.5h.3c1.9,0,3,1.3,3,3.5v9.7h4.5C236.9,21,237.1,17,236.9,13Z" transform="translate(0 0)" style="fill:#fff"/><path d="M74.2,8a24.1,24.1,0,0,0-4.5,1.6,4.3,4.3,0,0,0-.2-1.1H65.3V25.2h4.5V18.7c0-1.2-.1-2.5,0-3.7A3.1,3.1,0,0,1,73,12h.2c1.8.1,2.8,1.2,2.9,3.2v10h4.4c0-4.2.3-8.2,0-12.1A5.6,5.6,0,0,0,75,7.9Z" transform="translate(0 0)" style="fill:#fff"/><path d="M169,21.5a4.5,4.5,0,0,1-3.3-4.5,4.6,4.6,0,0,1,3-4.7c2.1-.7,3.6,0,5.3,2.6l3.8-1.3c-1-4-4.7-6.2-9.2-5.6a9,9,0,0,0-7.2,10.5,9.1,9.1,0,0,0,8,7.3,7.7,7.7,0,0,0,8.5-5.7l-3.8-1.3C172.6,21.2,171,22,169,21.5Z" transform="translate(0 0)" style="fill:#fff"/><path d="M136.9,15.4a19.8,19.8,0,0,0-3.5-.8c-.9-.2-1.7-.6-1.6-1.7s1-1.5,1.9-1.6a3.1,3.1,0,0,1,3.2,2.3l3.6-.9c0-.2-.1-.5-.1-.7-1-3.1-4.4-4.7-8-4a5.8,5.8,0,0,0-4.8,5.3q0,3.9,4.5,5.1l2.8.6c.9.3,1.6.7,1.5,1.8s-.9,1.4-1.9,1.5a3.2,3.2,0,0,1-3.6-2.5l-3.7.8v.6c1,3.7,5.4,5.6,9.6,4.2a5.7,5.7,0,0,0,4-5.2A5.1,5.1,0,0,0,136.9,15.4Z" transform="translate(0 0)" style="fill:#fff"/><path d="M188.3,21.4c-.6-.3-1.5-.8-1.6-1.3-.1-2.5,0-5,0-7.7h3.2V8.5l-3.3-.2V3.5h-4c-.4,4.4-.4,4.4-3.4,5.1v3.8h3c0,2.6.1,5,0,7.5-.2,4.6,3.5,6.1,7.1,5.3a2.7,2.7,0,0,0,.8-.7c.1-1,0-2,0-3.1A5.4,5.4,0,0,1,188.3,21.4Z" transform="translate(0 0)" style="fill:#fff"/><path d="M92.1,21.5a1.6,1.6,0,0,1-1.6-1.4h0V12.4h3.2v-4H92.3c-1.8,0-1.8,0-1.8-2V3.3h-4C85.9,8,85.9,8,83,8.5v3.9h3v7.4c0,4.2,2.9,6.5,7,5.4a1.2,1.2,0,0,0,.8-.9,15,15,0,0,0,0-3Z" transform="translate(0 0)" style="fill:#fff"/><path d="M56.8,25.2h4.6V1.1H56.8Z" transform="translate(0 0)" style="fill:#fff"/><path d="M120,10.5c-.1-.8-.2-1.4-.3-2h-4.2V25.2H120v-8c0-2.9,1.6-4.4,4.5-4.4h1V8.3A5.8,5.8,0,0,0,120,10.5Z" transform="translate(0 0)" style="fill:#fff"/><path d="M193.5,25.2h4.4V8.5h-4.4Z" transform="translate(0 0)" style="fill:#fff"/><path d="M195.7,0a2.9,2.9,0,0,0-2.8,2.8h0a2.8,2.8,0,0,0,5.6,0A2.9,2.9,0,0,0,195.7,0Z" transform="translate(0 0)" style="fill:#fff"/><rect y="0.8" width="20.2" height="25.06" style="fill:#fff"/><rect x="25.4" y="0.8" width="20.2" height="25.06" style="fill:#fff"/></svg>