<svg id="Layer_1" data-name="Layer 1" xmlns="http://www.w3.org/2000/svg" viewBox="0 0 236.9 25.9"><path d="M100.4,18.1a3.7,3.7,0,0,0,3,3.6c2.1.6,3.6-.1,5.2-2.3l3.5,1c-.5,2.9-3.1,4.9-6.7,5.3a8.4,8.4,0,0,1-9.4-7c-.9-5.1,1.7-9.5,6.3-10.6a8.1,8.1,0,0,1,10,5.6,9.2,9.2,0,0,1,.2,3.3c-.1,1-.6,1-1.3,1H100.4Zm7.5-3.3a3.5,3.5,0,0,0-3.7-3.3h-.6a3.2,3.2,0,0,0-3,3.2Z" transform="translate(0 0)" style="fill:#616366"/><path d="M147.2,18a4.2,4.2,0,0,0,3,3.8c2,.5,3.5-.2,5.2-2.4l3.5,1c-.5,3.1-3.9,5.5-7.7,5.3s-6.3-1.6-7.7-4.9a9,9,0,0,1,1.3-10.1c2.3-2.8,5.5-3.4,8.9-2.5s6.4,5.5,5.5,9a1.7,1.7,0,0,1-1.3.7H147.2Zm7.5-3.2c-.4-2.4-2-3.5-4.4-3.2a3.2,3.2,0,0,0-2.8,3.2Z" transform="translate(0 0)" style="fill:#616366"/><path d="M218.8,16.8a8.9,8.9,0,1,1-8.9-8.9h0a8.6,8.6,0,0,1,8.9,8.3h0ZM210,21.6c2.5,0,4.3-1.9,4.4-4.7a4.4,4.4,0,0,0-4.3-4.9,4.5,4.5,0,0,0-4.4,4.8C205.7,19.6,207.4,21.6,210,21.6Z" transform="translate(0 0)" style="fill:#616366"/><path d="M236.9,25.2h-4.4V15.6c0-2.3-1.1-3.5-3-3.5a3.2,3.2,0,0,0-3.3,3.1v.4c-.1,2.7,0,5.3,0,8v1.6h-4.4V8.5H226c0,.5.1.9.1,1.6a6.4,6.4,0,0,1,5-2.1c3.1,0,5.5,1.9,5.7,5S236.9,21,236.9,25.2Z" transform="translate(0 0)" style="fill:#616366"/><path d="M80.6,25.3H76.1v-10A2.9,2.9,0,0,0,73.6,12h-.4a3.2,3.2,0,0,0-3.4,2.8V15c-.1,1.2,0,2.5,0,3.7v6.5H65.3V8.5h4.2l.2,1.1A17.2,17.2,0,0,1,74.2,8a5.4,5.4,0,0,1,6.2,4.2h0a2.2,2.2,0,0,1,.1.8C80.8,17.2,80.6,21.2,80.6,25.3Z" transform="translate(0 0)" style="fill:#616366"/><path d="M174,18.8l3.8,1.3a7.7,7.7,0,0,1-8.5,5.7A9,9,0,0,1,168.6,8c4.4-.6,8.1,1.6,9.1,5.6L174,14.9c-1.8-2.6-3.2-3.3-5.4-2.6a4.6,4.6,0,0,0-3,4.7,4.5,4.5,0,0,0,3.3,4.5C171,22,172.6,21.2,174,18.8Z" transform="translate(0 0)" style="fill:#616366"/><path d="M127.2,20.6l3.7-.8a3.2,3.2,0,0,0,3.6,2.5c.9-.1,1.7-.5,1.8-1.5s-.6-1.5-1.4-1.8l-2.8-.6q-4.5-1.2-4.5-5.1A5.6,5.6,0,0,1,132.4,8c3.6-.8,7,.9,8,4,0,.3.1.5.1.7l-3.6.9c-.6-1.5-1.6-2.4-3.2-2.2s-1.8.4-1.9,1.5.7,1.5,1.6,1.7a18.7,18.7,0,0,1,3.4.8,4.9,4.9,0,0,1,3.9,4.9,5.2,5.2,0,0,1-4,5.1c-4.2,1.4-8.5-.5-9.5-4.2Z" transform="translate(0 0)" style="fill:#616366"/><path d="M182.1,12.5h-3V8.6c3-.7,3-.7,3.4-5.1h4V8.3l3.3.2v3.9h-3.2c0,2.7-.1,5.2.1,7.7,0,.5.9,1,1.5,1.3a5.4,5.4,0,0,0,1.8,0v3.1c0,.3-.5.7-.8.8-3.6.7-7.3-.7-7.1-5.4C182.2,17.5,182.1,15.1,182.1,12.5Z" transform="translate(0 0)" style="fill:#616366"/><path d="M86,12.5H83v-4c2.8-.5,2.8-.5,3.5-5.2h3.9V6.4c0,2,0,2,1.9,2h1.4v4H90.5V20A1.5,1.5,0,0,0,92,21.5h1.8a15,15,0,0,1,0,3,1.1,1.1,0,0,1-.8.8c-4.1,1.1-7-1.2-7-5.4Z" transform="translate(0 0)" style="fill:#616366"/><path d="M61.4,25.2H56.8V1.1h4.6Z" transform="translate(0 0)" style="fill:#616366"/><path d="M115.5,25.2V8.5h4.2l.2,2a6,6,0,0,1,5.7-2.1v4.3h-1c-2.9,0-4.5,1.5-4.6,4.5v7.9Z" transform="translate(0 0)" style="fill:#616366"/><path d="M197.9,8.5V25.2h-4.4V8.5Z" transform="translate(0 0)" style="fill:#616366"/><path d="M198.4,2.9a2.8,2.8,0,0,1-2.6,2.9,2.9,2.9,0,0,1-2.9-2.7V2.8a2.8,2.8,0,0,1,5.6,0Z" transform="translate(0 0)" style="fill:#616366"/><rect y="0.8" width="20.2" height="25.06" style="fill:#60c7f2"/><rect x="25.4" y="0.8" width="20.2" height="25.06" style="fill:#fbe430"/><rect x="20.2" y="0.8" width="5.2" height="25.06" style="fill:#51aa49"/></svg>