<svg id="Layer_1" data-name="Layer 1" xmlns="http://www.w3.org/2000/svg" viewBox="0 0 2498.1 1275.7"><defs><style>.cls-1{fill:#fff;}</style></defs><path class="cls-1" d="M1583.1,1117.6c-15,62.2-62,88.4-140.6,88.4-53.3,0-100.2-10.7-124.4-34.9-26.2-25.7-30.1-61.1-30.1-99V886.5h59.7V1069c0,41.2,3.4,65.8,19.5,83.9,18.3,21.2,49.9,27.4,76.5,27.4,56.4,0,93.9-18.2,104.1-67.8,2.4-11.4,4.2-25.4,4.2-47v-179h36.8V1053c0,31.1-1.8,48.6-5.6,64.6" transform="translate(0 0)"/><path class="cls-1" d="M1583.1,1117.6c-15,62.2-62,88.4-140.6,88.4-53.3,0-100.2-10.7-124.4-34.9-26.2-25.7-30.1-61.1-30.1-99V886.5h59.7V1069c0,41.2,3.4,65.8,19.5,83.9,18.3,21.2,49.9,27.4,76.5,27.4,56.4,0,93.9-18.2,104.1-67.8,2.4-11.4,4.2-25.4,4.2-47v-179h36.8V1053c0,31.1-1.8,48.6-5.6,64.6" transform="translate(0 0)"/><path class="cls-1" d="M1885.8,945.8l-69.1,144.3h135l-65.9-144.3m115,253.3-39.3-87.8h-155l-42.2,87.8h-38l156-312.6h37.1L2072,1199.1Z" transform="translate(0 0)"/><path class="cls-1" d="M1885.8,945.8l-69.1,144.3h135l-65.9-144.3m115,253.3-39.3-87.8h-155l-42.2,87.8h-38l156-312.6h37.1L2072,1199.1Z" transform="translate(0 0)"/><path class="cls-1" d="M462.7,945.8l-69.1,144.3h135L462.7,945.8m115.1,253.3-39.3-87.8H383.4l-42.2,87.8H303.3L459.2,886.5h37.1L649,1199.1Z" transform="translate(0 0)"/><path class="cls-1" d="M462.7,945.8l-69.1,144.3h135L462.7,945.8m115.1,253.3-39.3-87.8H383.4l-42.2,87.8H303.3L459.2,886.5h37.1L649,1199.1Z" transform="translate(0 0)"/><path class="cls-1" d="M974.4,1206c-103.2,0-201.3-35.5-201.3-155.6,0-39,17.3-79,43.4-107.6,41-44.5,103.3-62.2,162-62.2,35.6,0,76.7,8,108.8,24.3V942c-29-21.6-67.3-36.5-104.5-36.5-85,0-143.5,53.1-143.5,141,0,79.5,51.7,134,131.1,134,20.3,0,48.3-3.6,67.5-11V1055.4h59.8v127.4c-35,15.8-84.8,23.2-123.3,23.2" transform="translate(0 0)"/><path class="cls-1" d="M974.4,1206c-103.2,0-201.3-35.5-201.3-155.6,0-39,17.3-79,43.4-107.6,41-44.5,103.3-62.2,162-62.2,35.6,0,76.7,8,108.8,24.3V942c-29-21.6-67.3-36.5-104.5-36.5-85,0-143.5,53.1-143.5,141,0,79.5,51.7,134,131.1,134,20.3,0,48.3-3.6,67.5-11V1055.4h59.8v127.4c-35,15.8-84.8,23.2-123.3,23.2" transform="translate(0 0)"/><path class="cls-1" d="M2327.7,908.2h-43.9v149.6h38.5c32.2,0,51.4-6,66.4-18.1s25.4-32.3,25.4-58.6c0-52.9-38.4-72.9-86.3-72.9m101.5,290.9-82.8-120h-62.7v120h-59.7V886.5h113c45.9,0,91.8,6.7,117.4,34.9,13.3,14.8,20.6,35.3,20.6,61.7,0,48.3-36.4,77.6-68.9,89.1l91.9,126.9Z" transform="translate(0 0)"/><path class="cls-1" d="M2327.7,908.2h-43.9v149.6h38.5c32.2,0,51.4-6,66.4-18.1s25.4-32.3,25.4-58.6c0-52.9-38.4-72.9-86.3-72.9m101.5,290.9-82.8-120h-62.7v120h-59.7V886.5h113c45.9,0,91.8,6.7,117.4,34.9,13.3,14.8,20.6,35.3,20.6,61.7,0,48.3-36.4,77.6-68.9,89.1l91.9,126.9Z" transform="translate(0 0)"/><path class="cls-1" d="M50.8,1263.4c-15.7,7.4-33,12.3-50.8,12.3,41-29.6,58.3-59.7,64.2-109.6,3.5-27.7,3.5-55.4,3.5-83V886.5h59.7v236.6c0,57.8-22.2,113.6-76.6,140.3" transform="translate(0 0)"/><path class="cls-1" d="M50.8,1263.4c-15.7,7.4-33,12.3-50.8,12.3,41-29.6,58.3-59.7,64.2-109.6,3.5-27.7,3.5-55.4,3.5-83V886.5h59.7v236.6c0,57.8-22.2,113.6-76.6,140.3" transform="translate(0 0)"/><path class="cls-1" d="M426.6,52.1c21.4.6,39.9-7.4,40-8.6s-23.8-3.4-23.8-3.4c-21.8.9-30.7,9-30.8,10s5.7,1.7,14.6,2" transform="translate(0 0)"/><path class="cls-1" d="M280.7,89a52.2,52.2,0,0,1,1.8-5.6c.6-1,3.7-11.5,18.8-12.7a47.4,47.4,0,0,1,16.3,2s-5,13-25.6,15.1A108.3,108.3,0,0,1,280.7,89M2298.5,674.4c-5.1,12.6-27.1,28.7-52.8,37.4s-84,9.3-113.1-.4c0,0-6.1-6.6-26.6-12.6-47.5-14-62.8-23.8-87-46.2-17-15.9-35.8-35.8-54-54.6-8.1-8.3-27.7-28-62.4-34s-124.8-13-157.4-24.6c-22-7.8-48-22.6-80.7-71.5-15.6-23.5-27.5-30.3-50.1-44.7,0,0,17.2,13.6,26.3,30.2,13.1,24,19.4,41.3,26.5,54s15.6,24.4,28.6,34.8c16.2,13,26.6,15.8,44.8,19.5s77,6.2,128,8.2,71.7,17.5,87.4,30.6,37.4,47,53.5,61.3c21.6,19,22.2,19.2,47.2,35a174.2,174.2,0,0,0,34.1,16.8c23,13.5,13.5,37.1,13.5,37.1-6.6,18.8-30.3,25.5-58,21.6-41.9-3.7-77.9-38.6-108.3-63.7-16.8-13.8-22.7-20.7-55-43.1-49.2-34.1-164.7-31.3-164.7-31.3l-84.6-.5c-164.8,2.4-225.1-130.2-241.6-158a211.8,211.8,0,0,0-16-23.9c-7.6-10.4-49-64.4-93.3-83.6,0,0,42.5,36.8,38.2,56.9-9.1-.1-19.4.5-31.8.8-166,4.9-200.6-4.3-226.8-9.5s-70.3-18.4-113.1-38c0,0,4.8-41-12.2-75,0,0,137.1,48.4,246.1,34.7,0,0-176-8.6-285.8-96.1,0,0,27.1,92.5,5.7,131.3,0,0-28.8,70.5-176.8,23.5,0,0-68-26.5-121-26.5,0,0-39.8,1.7-44.6,22.4,0,0-2.6,9.9,7.8,14.7,0,0,11.6,3.3,6.1,11.8-9,14.2-21.4,25.1-33.8,31.3-41.3-2-38.2-35.9-38.2-35.9.7-12,4.6-20.4,8.3-28.7,25.9-58,117.1-66.4,117.1-66.4,97-9.7,198.6,13.6,198.6,13.6-72.7-17.4-97.4-30.1-118.2-47.4-28-23.4-54.2-102-54.2-102-11.1,38.6,2.7,77.5,12,97.5-13.8-22-33.4-40.6-50.9-54.7-44.8-36-109.8-47.5-109.8-47.5-18.8-3.2-26.2-22.7-26.2-22.7-24.1-44.3-51.4-46.4-51.4-46.4,13.4,18.4,12,43.6,12,43.6,0,46.4-59.7,61.8-59.7,61.8-44.6,44.3-52.3,43.4-61.1,44s-15.1-8.4-15.1-8.4c-2.8-4.2,1.9-8,1.9-8A128.8,128.8,0,0,0,320.5,232c43.6-35,49.7-52.8,46.1-77.2-7-48.7-46.3-45.1-46.3-45.1a34,34,0,0,0-27.6,14.1c-7.1,8.4-22.7,35-22.7,35-13.7,22.6-26,19.3-26,19.3-15.2,1-26.1-12.5-26.1-12.5s-1-1.1-1.5-1.6c-11.2-12-1.6-26.6-1.6-26.6,18.5-32.6,50.3-35.8,54.7-36.1l19-1.4c36-2.6,59.5-37,59.5-37-15.2-7.3-42.3-3.4-42.3-3.4-26.4,1.8-33.3,29.8-33.4,29.8-22.8,3.3-21.7-14.2-16.8-18.9s17.5-26.5,105-39.6c0,0,46.4-9.2,128.8-.2,3,.3,6,3,2.1,7.6C481,50.3,448.6,77.3,396.6,64.3c0,0-.9,20.7,55.8,31.1,0,0,51.1,10.9,134.6,78,0,0-40.5-74.8-110.5-97.7,0,0-5.2-3.3-.4-8,0,0,33.1-29.6,91.5-26.5,0,0,193.3,9.9,301.9,123.3,0,0-3.7-18.9-20.3-46.3,0,0-3.3-3.3-1.4-5.7,0,0,1.4-4.7,20.3-1,0,0,69,11.4,229.1,69.9,0,0,120,42.1,185.5,69.3,98.4,40.7,345,140.7,500.7,227,27.8,15.3,143.6,72.5,143.6,72.5,86.5,53.8,166.2,92.7,166.2,92.7,78.4,36.2,135.4,19.6,135.4,19.6,18.3-6.9,53-25.8,66.6-12.3,6.9,6.8,7.4,15.8,3.3,24.2ZM2318,644c-10.2-23.9-43.3-18-43.3-18-15,.9-34.1,16.7-60.6,22.1-56.9,11.8-100.5-7.6-100.5-7.6C2029.7,603,1972.9,562,1936,540.9s-173.7-93-310.5-161.7c0,0-156.7-80.4-388.6-176.2,0,0-447.3-203-769-203,0,0-166.6-2.1-223,62,0,0-10,8.3-5.1,18.4a5,5,0,0,1-1.5,4.6s-24.8,16.3-45,39.7c0,0-10.8,11.1-2.1,27.6,0,0,10.8,18.8,17.6,26.9s20.6,22.1,41.5,20c9.3-1,9.6-3.3,9.6-3.3,9.6,9.7,26.4,10.3,26.4,10.3-1.7-6-8.1-17.8-8.6-24.7a34.6,34.6,0,0,1,2.4-14.9c3.5-8.4,10-19,16.7-24.2s20.7-9.5,31.7-1.8c8.9,6.2,18.3,26,7.7,52.1,0,0-12,20.6-23,22.9l-3,.2c-6.3-.1-20.4-7.9-20.4-7.9s-.6,1.7,1,8.8c.9,4,2.2,8.5,3.3,12l-2.9,2.3s-8.9,7.1-5,17.4c0,0,8.7,32.4,32.8,32.4,21.2.7,39-19.4,39-19.4,45.6-49.3,110-55.9,110-55.9,71.3-4.9,173.2,68.2,201,89.2-105.7-1.1-148.3,39.4-148.3,39.4-59.5,46.3-36.4,102.2-36.4,102.2,4.4,12.2,16.6,21,24.3,24.5,11.2,4.9,20.5,5.1,29.2,4.1,6.2-.7,13.1-3,16.6-5.4,8.1-4.8,22.6-14.3,29.6-24.3,4.6-5,9.3-17.4,6.2-29.1,0,0-1.9-9.5,6.6-11.4,0,0,28-7.1,84.6,17.9,0,0,61.4,35.8,141,42.9,0,0,90.6,9.2,112.5-39.9,0,0,52,21.3,128.2,30,0,0,74.3,7.7,194.7-1.4,23.6-1.8,51.5.2,51.5.2,38.5,4.6,63,24.7,72.7,40.4,39.4,64,86.5,189.7,279.3,184.8l87.2-2.4c53,0,96.2.4,138.6,23.1,18.5,9.9,67.5,58.5,97.6,74.8,89.2,60.1,140.7,32.2,140.7,32.2,30.3-17.7,28-49.2,20.6-66.8-9.2-2.9,110.5,17.5,161.5-49.4,12-15,14.1-28.6,10.5-37.2Z" transform="translate(0 0)"/></svg>