<svg id="Layer_1" data-name="Layer 1" xmlns="http://www.w3.org/2000/svg" viewBox="0 0 2499.6 1276"><path d="M1584.1,1117.6c-15,62.2-62,88.4-140.6,88.4-53.4,0-100.3-10.7-124.4-34.9-26.2-25.6-30.2-61.1-30.2-99V886.5h59.8V1069c0,41.2,3.4,65.8,19.5,83.9,18.3,21.2,49.8,27.4,76.5,27.4,56.3,0,93.9-18.2,104.1-67.8,2.3-11.4,4.2-25.4,4.2-47v-179h36.8V1053c0,31.1-1.8,48.6-5.7,64.6" transform="translate(0 0)" style="fill:#01422d"/><path d="M1584.1,1117.6c-15,62.2-62,88.4-140.6,88.4-53.4,0-100.3-10.7-124.4-34.9-26.2-25.6-30.2-61.1-30.2-99V886.5h59.8V1069c0,41.2,3.4,65.8,19.5,83.9,18.3,21.2,49.8,27.4,76.5,27.4,56.3,0,93.9-18.2,104.1-67.8,2.3-11.4,4.2-25.4,4.2-47v-179h36.8V1053c0,31.1-1.8,48.6-5.7,64.6" transform="translate(0 0)" style="fill:none;stroke:#01422d;stroke-miterlimit:12.4399995803833;stroke-width:0.5799999833106995px"/><path d="M1886.8,945.8l-69.2,144.3h135l-65.8-144.3m115,253.3-39.4-87.8h-155l-42.2,87.8h-37.9l155.9-312.6h37.2l152.5,312.6Z" transform="translate(0 0)" style="fill:#01422d"/><path d="M1886.8,945.8l-69.2,144.3h135l-65.8-144.3m115,253.3-39.4-87.8h-155l-42.2,87.8h-37.9l155.9-312.6h37.2l152.5,312.6Z" transform="translate(0 0)" style="fill:none;stroke:#01422d;stroke-miterlimit:12.4399995803833;stroke-width:0.5799999833106995px"/><path d="M463.7,945.8l-69.2,144.3h135L463.7,945.8m115.1,253.3-39.4-87.8h-155l-42.3,87.8H304.2L460.1,886.5h37.2l152.6,312.6Z" transform="translate(0 0)" style="fill:#01422d"/><path d="M463.7,945.8l-69.2,144.3h135L463.7,945.8m115.1,253.3-39.4-87.8h-155l-42.3,87.8H304.2L460.1,886.5h37.2l152.6,312.6Z" transform="translate(0 0)" style="fill:none;stroke:#01422d;stroke-miterlimit:12.4399995803833;stroke-width:0.5799999833106995px"/><path d="M975.3,1206c-103.2,0-201.3-35.5-201.3-155.6,0-39,17.3-79,43.4-107.6,41-44.5,103.3-62.2,162-62.2,35.6,0,76.7,8,108.8,24.3v37.2c-29-21.7-67.3-36.6-104.5-36.6-85,0-143.5,53.1-143.5,141,0,79.5,51.7,134,131.2,134,20.2,0,48.2-3.6,67.4-11V1055.4h59.8v127.5c-35,15.7-84.8,23.1-123.3,23.1" transform="translate(0 0)" style="fill:#01422d"/><path d="M975.3,1206c-103.2,0-201.3-35.5-201.3-155.6,0-39,17.3-79,43.4-107.6,41-44.5,103.3-62.2,162-62.2,35.6,0,76.7,8,108.8,24.3v37.2c-29-21.7-67.3-36.6-104.5-36.6-85,0-143.5,53.1-143.5,141,0,79.5,51.7,134,131.2,134,20.2,0,48.2-3.6,67.4-11V1055.4h59.8v127.5c-35,15.7-84.8,23.1-123.3,23.1" transform="translate(0 0)" style="fill:none;stroke:#01422d;stroke-miterlimit:12.4399995803833;stroke-width:0.5799999833106995px"/><path d="M2328.6,908.2h-43.8v149.6h38.4c32.2,0,51.5-6,66.5-18.1s25.3-32.3,25.3-58.6c0-52.9-38.4-72.9-86.3-72.9m101.5,290.9-82.8-120h-62.6v120H2225V886.5h113.1c45.8,0,91.7,6.7,117.3,34.9,13.4,14.8,20.6,35.3,20.6,61.7,0,48.3-36.4,77.6-68.8,89.1l91.8,126.9Z" transform="translate(0 0)" style="fill:#01422d"/><path d="M2328.6,908.2h-43.8v149.6h38.4c32.2,0,51.5-6,66.5-18.1s25.3-32.3,25.3-58.6c0-52.9-38.4-72.9-86.3-72.9m101.5,290.9-82.8-120h-62.6v120H2225V886.5h113.1c45.8,0,91.7,6.7,117.3,34.9,13.4,14.8,20.6,35.3,20.6,61.7,0,48.3-36.4,77.6-68.8,89.1l91.8,126.9Z" transform="translate(0 0)" style="fill:none;stroke:#01422d;stroke-miterlimit:12.4399995803833;stroke-width:0.5799999833106995px"/><path d="M51.8,1263.4c-15.8,7.4-33.1,12.3-50.9,12.3,41-29.6,58.3-59.7,64.2-109.6,3.5-27.7,3.5-55.3,3.5-83V886.5h59.8v236.6c0,57.8-22.3,113.6-76.6,140.3" transform="translate(0 0)" style="fill:#01422d"/><path d="M51.8,1263.4c-15.8,7.4-33.1,12.3-50.9,12.3,41-29.6,58.3-59.7,64.2-109.6,3.5-27.7,3.5-55.3,3.5-83V886.5h59.8v236.6c0,57.8-22.3,113.6-76.6,140.3" transform="translate(0 0)" style="fill:none;stroke:#01422d;stroke-miterlimit:12.4399995803833;stroke-width:0.5799999833106995px"/><path d="M427.5,52.1c21.4.6,39.9-7.4,40-8.5s-23.8-3.5-23.8-3.5c-21.8.9-30.7,9-30.8,10s5.7,1.7,14.6,2" transform="translate(0 0)" style="fill:#241f20"/><path d="M281.6,89a36.9,36.9,0,0,1,1.9-5.6c.5-1,3.6-11.5,18.7-12.7a47.4,47.4,0,0,1,16.3,2s-5,13-25.6,15.1A105.5,105.5,0,0,1,281.6,89M2299.4,674.4c-5.1,12.6-27,28.7-52.8,37.4s-84,9.3-113.1-.4c0,0-6.1-6.6-26.5-12.6-47.5-14-62.9-23.7-87-46.2-17-15.9-35.8-35.8-54-54.5-8.1-8.4-27.8-28.1-62.4-34.1-36.2-6.3-124.8-13-157.5-24.6-22-7.8-48-22.6-80.6-71.5-15.7-23.4-27.6-30.3-50.2-44.7,0,0,17.3,13.6,26.3,30.2,13.1,24,19.4,41.3,26.6,54.1s15.6,24.3,28.6,34.7c16.1,13,26.5,15.8,44.8,19.5s76.9,6.2,128,8.2,71.6,17.5,87.3,30.6,37.4,47,53.6,61.3c21.5,19,22.1,19.2,47.2,35a171.5,171.5,0,0,0,34.1,16.8c23,13.5,13.5,37.1,13.5,37.1-6.6,18.8-30.4,25.5-58,21.6-41.9-3.7-78-38.6-108.4-63.7-16.8-13.8-22.7-20.7-55-43.1-49.1-34.1-164.6-31.3-164.6-31.3l-84.6-.5c-164.9,2.4-225.2-130.2-241.6-158a226.2,226.2,0,0,0-16-23.9c-7.7-10.4-49-64.3-93.4-83.6,0,0,42.6,36.8,38.3,56.9-9.1-.1-19.5.5-31.9.8-166,4.9-200.5-4.3-226.8-9.5s-70.2-18.4-113-38c0,0,4.7-41-12.2-75,0,0,137,48.4,246.1,34.7,0,0-176-8.6-285.8-96.1,0,0,27.1,92.5,5.7,131.3,0,0-28.9,70.6-176.9,23.5,0,0-68-26.5-121-26.5,0,0-39.8,1.7-44.6,22.4a13,13,0,0,0,7.8,14.7s11.6,3.3,6.1,11.8c-9,14.2-21.4,25.2-33.8,31.3-41.2-2-38.2-35.9-38.2-35.9.8-12,4.6-20.4,8.3-28.7,26-58,117.1-66.4,117.1-66.4,97-9.7,198.7,13.6,198.7,13.6-72.8-17.4-97.5-30.1-118.3-47.4-28-23.4-54.1-101.9-54.1-101.9-11.2,38.5,2.6,77.4,12,97.4-13.8-22-33.5-40.6-51-54.6-44.8-36-109.8-47.6-109.8-47.6-18.8-3.2-26.2-22.7-26.2-22.7-24.1-44.3-51.3-46.4-51.3-46.4,13.4,18.4,12,43.6,12,43.6,0,46.4-59.7,61.8-59.7,61.8-44.7,44.4-52.4,43.4-61.1,44.1s-15.2-8.5-15.2-8.5c-2.8-4.2,1.9-8,1.9-8A139.6,139.6,0,0,0,321.5,232c43.5-35,49.6-52.8,46.1-77.2-7.1-48.7-46.4-45.1-46.4-45.1a34,34,0,0,0-27.6,14.1c-7.1,8.4-22.7,35-22.7,35-13.7,22.6-26,19.3-26,19.3-15.1,1-26.1-12.4-26.1-12.4l-1.5-1.7c-11.2-12-1.6-26.6-1.6-26.6a70.6,70.6,0,0,1,54.7-36.1l19-1.4c36-2.6,59.5-37,59.5-37-15.2-7.3-42.2-3.4-42.2-3.4-26.4,1.8-33.4,29.8-33.4,29.8-22.9,3.3-21.7-14.2-16.8-18.9s17.4-26.5,104.9-39.6c0,0,46.4-9.2,128.8-.2,3,.3,6,3,2.1,7.6-10.4,12.1-42.8,39.1-94.8,26.1,0,0-.9,20.8,55.8,31.1,0,0,51.1,10.9,134.6,78,0,0-40.5-74.8-110.4-97.7,0,0-5.2-3.2-.5-8,0,0,33.1-29.6,91.6-26.5,0,0,193.2,9.9,301.9,123.3,0,0-3.8-18.9-20.3-46.3,0,0-3.4-3.3-1.5-5.7,0,0,1.5-4.7,20.4-1,0,0,69,11.4,229.1,70,0,0,120,42,185.5,69.2,98.4,40.8,344.9,140.7,500.6,227,27.8,15.3,143.6,72.6,143.6,72.6,86.5,53.7,166.2,92.6,166.2,92.6,78.4,36.2,135.5,19.6,135.5,19.6,18.2-6.8,53-25.7,66.6-12.3,6.9,6.8,7.3,15.8,3.2,24.3Zm19.5-30.4c-10.2-23.9-43.2-18-43.2-18-15.1.9-34.2,16.7-60.6,22.2-57,11.7-100.5-7.7-100.5-7.7-83.9-37.5-140.7-78.5-177.7-99.6s-173.7-93-310.5-161.7c0,0-156.7-80.3-388.5-176.2,0,0-447.3-203-769-203,0,0-166.7-2.1-223.1,62,0,0-10,8.3-5.1,18.4a4.9,4.9,0,0,1-1.4,4.6s-24.8,16.3-45,39.7c0,0-10.9,11.1-2.1,27.6,0,0,10.7,18.8,17.5,26.9s20.6,22.1,41.6,20c9.2-1,9.5-3.3,9.5-3.3,9.6,9.7,26.5,10.3,26.5,10.3-1.7-6-8.1-17.8-8.7-24.7a34.4,34.4,0,0,1,2.4-14.9c3.5-8.4,10.1-19,16.7-24.2s20.7-9.5,31.7-1.8c8.9,6.2,18.3,26,7.7,52.1,0,0-12,20.6-23,22.9l-3,.2c-6.3-.1-20.4-7.9-20.4-7.9s-.6,1.7,1,8.8c.9,4,2.2,8.5,3.3,11.9l-2.9,2.4s-8.8,7.1-4.9,17.4c0,0,8.6,32.5,32.7,32.5,21.3.7,39-19.5,39-19.5,45.7-49.3,110-55.9,110-55.9,71.3-4.9,173.3,68.2,201,89.3-105.7-1.2-148.3,39.3-148.3,39.3-59.5,46.4-36.3,102.2-36.3,102.2,4.3,12.2,16.5,21,24.3,24.5,11.2,4.9,20.4,5.1,29.1,4.1,6.3-.7,13.1-3,16.6-5.4,8.1-4.8,22.6-14.2,29.6-24.3,4.6-5,9.3-17.4,6.2-29.1,0,0-1.9-9.5,6.6-11.4,0,0,28-7.1,84.6,17.9,0,0,61.4,35.8,141.1,42.9,0,0,90.6,9.2,112.4-39.9,0,0,52,21.3,128.3,30,0,0,74.2,7.7,194.6-1.4,23.7-1.7,51.5.2,51.5.2,38.5,4.6,63,24.7,72.7,40.4,39.5,64.1,86.5,189.8,279.3,184.8l87.2-2.4c53,0,96.3.4,138.7,23.1,18.5,9.9,67.4,58.5,97.5,74.9,89.2,60.1,140.7,32.1,140.7,32.1,30.4-17.7,28-49.1,20.6-66.8-9.1-2.9,110.5,17.6,161.5-49.4,12.1-14.9,14.2-28.6,10.5-37.2Z" transform="translate(0 0)" style="fill:#241f20"/></svg>