<svg id="svg5382" xmlns="http://www.w3.org/2000/svg" xmlns:xlink="http://www.w3.org/1999/xlink" viewBox="0 0 1000.8 380.2"><defs><linearGradient id="linear-gradient" x1="-19.78" y1="-1157.02" x2="1.3" y2="-1174.63" gradientTransform="matrix(-39.01, -3.69, 0.42, -4.41, 551.91, -5157.76)" gradientUnits="userSpaceOnUse"><stop offset="0" stop-opacity="0"/><stop offset="1" stop-color="#221e1f"/></linearGradient><linearGradient id="linear-gradient-2" x1="140.79" y1="615.46" x2="143.24" y2="638.22" gradientTransform="translate(-1065.6 -8158.8) rotate(5.4) scale(13.18)" gradientUnits="userSpaceOnUse"><stop offset="0"/><stop offset="1" stop-opacity="0"/></linearGradient></defs><g id="layer1"><path id="path59" d="M824.6,11.4l-813,.5V28.6l829.7-.5Z" transform="translate(-11.6 -11.4)" style="fill:url(#linear-gradient)"/><path id="path61" d="M28.3,28.6l.2,363H11.9L11.6,11.9Z" transform="translate(-11.6 -11.4)" style="fill:url(#linear-gradient-2)"/><path id="path67" d="M235.2,253.4c0,17.2-4.7,45.3-44.5,45.3-22.3,0-44.1-12.1-44.1-41.3V245.8h26.6v5.9c0,13,3.2,22.3,17.1,22.3,15.5,0,15.5-12.5,15.5-21.9V161.8h29.4Z" transform="translate(-11.6 -11.4)" style="fill:#221e1f"/><path id="path69" d="M341.5,206.7c-1.9-13.3-14.6-23.4-29.2-23.4-26.4,0-36.3,22.5-36.3,45.9s10,44.8,36.4,44.7c17.9,0,28-12.3,30.3-29.9h28.5c-3,33.4-26.1,54.7-58.8,54.7-41.4.1-65.8-30.8-65.8-69.4s24.3-70.6,65.7-70.6c29.4,0,54.1,17.2,57.7,48.1Z" transform="translate(-11.6 -11.4)" style="fill:#221e1f"/><path id="path71" d="M411,186.4h20.9c29.3,0,38.6,17.2,38.7,44.2,0,29.6-16.3,40.1-33.3,40.1H411.1V186.4m-29.4,109h57.7c40.9,0,60.7-28.9,60.6-67.6,0-44.4-26-66.1-60.6-66.1H381.6Z" transform="translate(-11.6 -11.4)" style="fill:#221e1f"/><path id="path73" d="M533.7,236.5c.4-7.5,5.2-20.6,22.1-20.6,12.9,0,18.7,7.1,21.1,20.6H533.7m69.8,16.8c1.9-29.7-14-57.5-47-57.4-29.4,0-49.4,22.1-49.4,51.1s18.9,51,49.5,50.9c21.9,0,37.8-9.7,45.2-32.6H578.4c-1.7,6-10.2,12.6-20.9,12.6-14.8,0-23.1-7.7-23.8-24.5Z" transform="translate(-11.6 -11.4)" style="fill:#221e1f"/><path id="path75" d="M679.4,232.5c-1.7-10.9-8.7-16.7-19.7-16.7-17.1.1-22.7,17.3-22.7,31.5s5.5,30.5,22.2,30.5c12.3,0,19.4-7.8,21.1-19.7H706c-3.4,25.7-21.2,39.7-46.6,39.8-29.3,0-48.9-20.6-48.9-49.6s17.9-52.5,49.4-52.5c22.8,0,43.8,12,45.5,36.7Z" transform="translate(-11.6 -11.4)" style="fill:#221e1f"/><path id="path77" d="M775.8,257.7c0,5.8-.7,22.3-21.5,22.3-8.6,0-16.3-2.4-16.3-12.3s7.5-12.6,15.8-14.3,17.5-1.7,22-5.6v9.9M741,228.2c.9-10.5,7.5-14.7,17.6-14.7s17.2,1.7,17.2,13.1-15.2,10.3-31.4,12.8-33,7.5-33,29.4c0,19.9,14.7,29,33,29,11.8,0,24.2-3.2,32.6-12a37.4,37.4,0,0,0,1.9,9.4h26.9c-2.4-3.9-3.3-12.7-3.4-21.5V223.2c0-23.2-23.2-27.5-42.5-27.4-21.7,0-44,7.5-45.5,32.4Z" transform="translate(-11.6 -11.4)" style="fill:#221e1f"/><path id="path79" d="M907.8,295.1H882.5V281.6h-.6a34.3,34.3,0,0,1-29.5,16.1c-28.3,0-35.4-15.8-35.4-39.8V198.3h26.6V253c0,15.9,4.6,23.8,17,23.8,14.4,0,20.6-8.1,20.6-27.8V198.3h26.6Z" transform="translate(-11.6 -11.4)" style="fill:#221e1f"/><path id="path81" d="M946.6,244.1l-31.8-45.8h30.3l17.1,25.3L979,198.2h29.4l-31.8,45.3,35.8,51.5H982.1l-20.3-30.5-20.2,30.6H911.9Z" transform="translate(-11.6 -11.4)" style="fill:#221e1f"/></g></svg>