<svg id="Layer_1" data-name="Layer 1" xmlns="http://www.w3.org/2000/svg" viewBox="0 0 1000.8 380.2"><path d="M813,0,0,.5V17.2l829.6-.5Z" transform="translate(0)" style="fill:#fff"/><path d="M16.7,17.2l.2,363H.3L0,.5Z" transform="translate(0)" style="fill:#fff"/><path d="M223.6,242c0,17.2-4.6,45.3-44.5,45.3-22.3,0-44-12.1-44-41.3V234.3h26.5v6c0,13,3.3,22.3,17.1,22.3,15.6,0,15.5-12.5,15.5-21.9V150.5h29.4Z" transform="translate(0)" style="fill:#fff"/><path d="M329.9,195.3c-1.9-13.3-14.6-23.4-29.2-23.4-26.4,0-36.3,22.5-36.3,45.9s10,44.7,36.4,44.7c18,0,28-12.4,30.3-30h28.5c-3,33.3-26,54.7-58.8,54.7-41.4.1-65.8-30.8-65.8-69.4s24.3-70.6,65.7-70.6c29.4,0,54.1,17.2,57.7,48Z" transform="translate(0)" style="fill:#fff"/><path d="M399.4,175h21c29.2,0,38.6,17.2,38.6,44.2,0,29.6-16.3,40.1-33.3,40.1H399.5V175M370.1,284h57.7c40.8,0,60.6-28.9,60.6-67.6,0-44.4-26.1-66.1-60.7-66.1H370Z" transform="translate(0)" style="fill:#fff"/><path d="M522.1,225.1c.3-7.5,5.2-20.6,22.1-20.6,12.9,0,18.7,7.1,21.1,20.6H522.1m69.8,16.8c1.9-29.8-14.1-57.5-47-57.5-29.4.1-49.4,22.2-49.4,51.2s19,50.9,49.5,50.9c21.9,0,37.8-9.7,45.3-32.6H566.9c-1.7,6-10.3,12.6-21,12.6-14.8,0-23-7.7-23.8-24.6Z" transform="translate(0)" style="fill:#fff"/><path d="M667.7,221.1c-1.6-10.9-8.6-16.7-19.6-16.7-17.1,0-22.7,17.3-22.7,31.5s5.5,30.5,22.2,30.5c12.3,0,19.4-7.9,21.1-19.7h25.7c-3.4,25.7-21.1,39.7-46.6,39.7-29.2,0-48.9-20.5-48.9-49.5s17.9-52.5,49.4-52.5c22.8,0,43.8,12,45.5,36.7Z" transform="translate(0)" style="fill:#fff"/><path d="M764.2,246.3c0,5.8-.7,22.3-21.5,22.3-8.6,0-16.3-2.4-16.3-12.3s7.5-12.6,15.7-14.3,17.6-1.7,22.1-5.6v9.9m-34.8-29.5c.9-10.5,7.5-14.7,17.6-14.7s17.2,1.7,17.2,13.1S749,225.5,732.8,228s-33,7.5-33,29.4c0,19.9,14.6,29,33,29,11.8,0,24.2-3.2,32.6-12a38.3,38.3,0,0,0,1.9,9.4h27c-2.4-3.9-3.4-12.8-3.4-21.6V211.9c0-23.3-23.2-27.5-42.5-27.5-21.7,0-44,7.5-45.5,32.4Z" transform="translate(0)" style="fill:#fff"/><path d="M896.2,283.7H870.9V270.2h-.6a34.1,34.1,0,0,1-29.5,16.1c-28.3,0-35.4-15.8-35.4-39.8V186.9h26.5v54.7c0,16,4.6,23.8,17,23.8,14.4,0,20.6-8.1,20.6-27.7V186.9h26.5Z" transform="translate(0)" style="fill:#fff"/><path d="M935,232.7l-31.8-45.8h30.3l17.1,25.2,16.8-25.3h29.4L965,232.2l35.8,51.4H970.5l-20.3-30.5L930,283.6H900.3Z" transform="translate(0)" style="fill:#fff"/></svg>