<svg id="Layer_1" data-name="Layer 1" xmlns="http://www.w3.org/2000/svg" viewBox="0 0 715.9 99.3"><path d="M716,37l-.3-2.5-.4-2.5-.6-2.4-.7-2.3-.9-2.3L712,22.8l-1.2-2.1-1.3-2.1L708,16.7l-1.6-1.9L704.7,13l-1.8-1.6-2-1.5-2-1.5-2.1-1.3-2.2-1.2-2.3-1.1-2.4-1-2.5-.9-2.5-.7-2.6-.7L679.7,1,676.9.6,674.1.3,671.3.1H69.3L66.4.3,63.5.6,60.6,1l-2.8.5L55,2.1l-2.8.7-2.8.8-2.7.9L44,5.5,41.4,6.6,38.8,7.7,36.2,9l-2.5,1.3-2.4,1.4-2.4,1.5-2.3,1.6-2.3,1.6-2.1,1.7-2.1,1.8L18,21.8l-1.9,1.9-1.9,2-1.8,2.1L10.7,30,9.1,32.2,7.7,34.4,6.3,36.8,5,39.2,3.9,41.6l-1,2.5L2,46.7l-.7,2.7L.7,52,.3,54.5.1,57.1v5.1l.2,2.6.5,2.4.5,2.4L2.1,72l.8,2.3L4,76.5l1.1,2.2,1.3,2,1.5,2,1.6,1.9,1.7,1.7L13,88l1.9,1.6,2,1.4L19,92.3l2.3,1.3,2.3,1.1,2.3,1,2.5.8,2.5.8,2.6.7,2.6.5,2.8.4,2.7.3,2.9.2h602l2.9-.2,2.9-.3,2.9-.4L658,98l2.8-.6,2.8-.7,2.8-.8,2.7-.9,2.7-1,2.7-1.1,2.6-1.1,2.6-1.3,2.5-1.3,2.4-1.5,2.4-1.5,2.4-1.5,2.2-1.7,2.2-1.7,2.2-1.9,2-1.8,2-2,1.9-2,1.8-2.1,1.7-2.1,1.6-2.3,1.4-2.3,1.4-2.3,1.3-2.5,1.1-2.5,1.1-2.5.8-2.6.7-2.6.6-2.6.4-2.6.2-2.5V37Zm-8.3,13.5c-7.1,23.3-35.8,42.2-64.1,42.2H47.4c-15,0-27.7-5.4-34.7-14.9-6-8-7.5-18.4-4.2-29.1C15.7,25.2,43.7,6.8,72.2,6.8H668.4c15.2,0,28,5.5,35.2,15.1C709.4,29.9,710.9,40,707.7,50.5Z" transform="translate(-0.1 -0.1)" style="fill:#015643;fill-rule:evenodd"/><path d="M594.3,24.9l-9.4-.2L575.7,48a13.9,13.9,0,0,1,4.1.3c9.8-.3,17-1.9,21.7-4.9s7-7,7-11.5S601.8,24.9,594.3,24.9Z" transform="translate(-0.1 -0.1)" style="fill:#015643;fill-rule:evenodd"/><polygon points="454.2 55.8 485.6 55.8 478.7 36 454.2 55.8" style="fill:#015643;fill-rule:evenodd"/><path d="M668.4,12.9H72.2c-25.5,0-51.5,16.9-57.9,37.6-2.7,8.9-1.6,17.1,3.3,23.7S34.3,86.6,47.4,86.6H643.6c25.8,0,51.9-17,58.2-37.9,2.7-8.7,1.6-16.7-3.2-23.2S681.7,12.9,668.4,12.9ZM132.5,79.3H66.4l23-59.5h28.3L96,71.8h40.3Zm91.5,0-6-17.7H177.5L158.6,79.3H142.5l72.4-59h12.9l23.3,59Zm150.4,0,8.8-40.1L332.6,79.3H321.9L300.1,41.6,277.5,79.3h-17l40-59h15.4l24.2,40.5,50-40.5h22l-9.7,59Zm118.6,0-6-17.7H446.4L427.6,79.3H411.5l72.4-59h12.9l23.2,59ZM621,48.9c-5.3,1.6-12.6,1.6-18.2,2.4l25.1,28h-32l-18-26.6h-5l-8.2,26.6H536.1l25.2-59h47.5c5.3,0,9.7-.4,14.8,1,8.5,2.2,11.3,4.4,11.6,9.6C635.2,38.6,630.8,45,621,48.9Z" transform="translate(-0.1 -0.1)" style="fill:#015643;fill-rule:evenodd"/><polygon points="185.2 55.8 216.7 55.8 209.7 36 185.2 55.8" style="fill:#015643;fill-rule:evenodd"/></svg>