<?xml version="1.0" encoding="utf-8"?>
<!-- Generator: Adobe Illustrator 21.0.2, SVG Export Plug-In . SVG Version: 6.00 Build 0)  -->
<svg version="1.1" id="Layer_1" xmlns="http://www.w3.org/2000/svg" xmlns:xlink="http://www.w3.org/1999/xlink" x="0px" y="0px"
	 viewBox="0 0 720 111.09" style="enable-background:new 0 0 720 111.09;" xml:space="preserve">
<style type="text/css">
	.st0{fill-rule:evenodd;clip-rule:evenodd;fill:#FFFFFF;}
</style>
<g>
	<path class="st0" d="M718.9,42.5l-0.26-2.49l-0.43-2.46l-0.59-2.41l-0.75-2.35l-0.91-2.29l-1.04-2.21l-1.2-2.14l-1.34-2.04
		l-1.46-1.95l-1.61-1.85l-1.71-1.76l-1.83-1.65l-1.92-1.54l-2.04-1.44l-2.13-1.33l-2.21-1.2l-2.3-1.1l-2.38-0.99l-2.46-0.87
		l-2.52-0.76l-2.6-0.65l-2.65-0.53l-2.73-0.42l-2.79-0.29l-2.83-0.18l-2.79-0.06H74.99L72.19,5.6l-2.91,0.17l-2.89,0.29l-2.86,0.4
		l-2.85,0.51l-2.81,0.6l-2.79,0.71l-2.77,0.81l-2.71,0.9l-2.69,0.99l-2.63,1.09l-2.6,1.16l-2.54,1.26l-2.5,1.33l-2.43,1.41
		l-2.38,1.5L29.5,20.3l-2.26,1.64l-2.17,1.71l-2.11,1.8l-2.04,1.86l-1.96,1.94l-1.86,1.99l-1.77,2.08l-1.7,2.14l-1.59,2.2
		l-1.48,2.27l-1.37,2.33l-1.26,2.39l-1.14,2.45l-1,2.51L4.9,52.22l-0.71,2.63l-0.56,2.6l-0.4,2.6l-0.23,2.59L2.92,65.2l0.08,2.54
		l0.24,2.51l0.41,2.46l0.57,2.43l0.73,2.36l0.88,2.3l1.02,2.22l1.18,2.16l1.31,2.05l1.46,1.97l1.58,1.87l1.69,1.77l1.81,1.67
		l1.92,1.55l2.03,1.45l2.11,1.33l2.22,1.23l2.29,1.1l2.37,0.99l2.45,0.88l2.53,0.76l2.59,0.66l2.66,0.53l2.72,0.42l2.78,0.3
		l2.84,0.18l2.79,0.06h596.42l2.8-0.06l2.91-0.18l2.89-0.29l2.87-0.4l2.85-0.5l2.82-0.61l2.8-0.7l2.76-0.81l2.74-0.9l2.69-1
		l2.66-1.07l2.62-1.18l2.56-1.25l2.51-1.35l2.45-1.42l2.41-1.5l2.33-1.58l2.27-1.66l2.2-1.73l2.13-1.82l2.04-1.87l1.98-1.96
		l1.88-2.01l1.8-2.1l1.7-2.15l1.61-2.23l1.47-2.3l1.39-2.36l1.26-2.42l1.15-2.49l1.01-2.54l0.86-2.59l0.7-2.58l0.57-2.6l0.39-2.59
		l0.24-2.57l0.07-2.57L718.9,42.5z M710.59,55.97c-7.06,23.29-35.81,42.25-64.08,42.25H50.3c-15.05,0-27.72-5.43-34.74-14.89
		c-5.96-8.05-7.45-18.39-4.2-29.13c7.24-23.51,35.23-41.92,63.74-41.92H671.3c15.23,0,28.05,5.51,35.15,15.12
		C712.33,35.37,713.81,45.51,710.59,55.97z"/>
	<path class="st0" d="M597.19,30.38c-3.14,0-6.29-0.21-9.44-0.21l-9.12,23.38c1.89,0,3.46,0,4.09,0.2c9.76-0.2,16.99-1.81,21.7-4.83
		c4.09-3.23,6.93-7.06,6.93-11.49C611.35,32.19,604.74,30.38,597.19,30.38z"/>
	<polygon class="st0" points="457.19,61.41 488.66,61.41 481.75,41.66 	"/>
	<path class="st0" d="M671.3,18.39H75.1c-25.54,0-51.52,16.86-57.89,37.59c-2.71,8.96-1.59,17.16,3.27,23.7
		C26.32,87.57,37.2,92.1,50.3,92.1h596.21c25.78,0,51.9-17.01,58.23-37.91c2.67-8.69,1.55-16.7-3.22-23.17
		C695.59,23,684.58,18.39,671.3,18.39z M135.39,84.79H69.32l22.97-59.45h28.31l-21.7,52h40.26L135.39,84.79z M226.92,84.79
		l-5.97-17.74h-40.59l-18.88,17.74h-16.04l72.36-59.04h12.9l23.28,59.04H226.92z M377.3,84.79l8.81-40.11l-50.65,40.11h-10.7
		l-21.71-37.69L280.4,84.79h-16.98l39.96-59.04h15.4L343,66.25l50.03-40.5h22.02l-9.76,59.04H377.3z M495.9,84.79l-5.98-17.74
		h-40.58l-18.88,17.74h-16.05l72.36-59.04h12.89l23.28,59.04H495.9z M623.92,54.36c-5.33,1.62-12.57,1.62-18.23,2.42l25.16,28.02
		h-32.07l-17.94-26.61h-5.04l-8.17,26.61H539l25.16-59.04h47.51c5.35,0,9.75-0.41,14.78,1c8.5,2.22,11.32,4.44,11.65,9.67
		C638.1,44.08,633.69,50.53,623.92,54.36z"/>
	<polygon class="st0" points="188.23,61.41 219.69,61.41 212.77,41.66 	"/>
</g>
</svg>
