<svg id="Layer_1" data-name="Layer 1" xmlns="http://www.w3.org/2000/svg" viewBox="0 0 125.8 203.1"><path d="M83.4,119.2H59.9a17.9,17.9,0,0,1-18-17.8h0V1.3A1.2,1.2,0,0,0,40.7,0a1.6,1.6,0,0,0-.9.3L.4,33.4a1.5,1.5,0,0,0-.4,1v84.8H0a42,42,0,0,0,41.9,42H83.5c11.5,0,21.4,9.4,21.4,21A21.1,21.1,0,0,1,85,203.1a41.9,41.9,0,0,0,40.8-41.5C126.1,138.3,106.7,119.2,83.4,119.2Z" transform="translate(0 0)" style="fill:#fff"/><path d="M82.8,203.1Z" transform="translate(0 0)" style="fill:#939598"/><path d="M104.9,182.1a21,21,0,0,0-21-21h-42a31.5,31.5,0,0,0,.4,5.3H83.9a18.3,18.3,0,0,1,18.3,18.3h0a18.5,18.5,0,0,1-18.3,18.4H85A21.1,21.1,0,0,0,104.9,182.1Z" transform="translate(0 0)" style="fill:#fff;isolation:isolate;opacity:0.5"/><path d="M102.3,184.7h0a18.5,18.5,0,0,0-18.4-18.3H42.3a42,42,0,0,0,40.5,36.7h1.1a18.4,18.4,0,0,0,18.4-18.4Z" transform="translate(0 0)" style="fill:#fff"/><path d="M45.5,73.4v27.9a14.3,14.3,0,0,0,14.4,14.4H82.7a1.2,1.2,0,0,0,1.3-1.2h0V43.3A1.3,1.3,0,0,0,82.7,42a1.1,1.1,0,0,0-.8.3l-36,30.2A1.1,1.1,0,0,0,45.5,73.4Z" transform="translate(0 0)" style="fill:#fff"/></svg>