<svg id="Layer_1" data-name="Layer 1" xmlns="http://www.w3.org/2000/svg" viewBox="0 0 472.1 381.4"><path d="M256.5,119.2H233a18,18,0,0,1-18-17.9h0V1.2a1.3,1.3,0,0,0-1.2-1.3,1.1,1.1,0,0,0-.8.3L173.5,33.3a1.3,1.3,0,0,0-.4,1v84.8h0a41.9,41.9,0,0,0,41.9,42h41.6c11.5,0,21.3,9.4,21.3,21A20.8,20.8,0,0,1,258,203a41.8,41.8,0,0,0,40.9-41.4C299.2,138.2,279.8,119.2,256.5,119.2Z" transform="translate(0 0.1)" style="fill:#e0e921"/><path d="M255.9,203h0Z" transform="translate(0 0.1)" style="fill:#939598"/><path d="M278,182.1a21,21,0,0,0-21-21H215a30.4,30.4,0,0,0,.4,5.2H257a18.4,18.4,0,0,1,18.4,18.4h0A18.3,18.3,0,0,1,257,203h1.1A21,21,0,0,0,278,182.1Z" transform="translate(0 0.1)" style="fill:#be2690"/><path d="M275.4,184.7h0A18.5,18.5,0,0,0,257,166.3H215.4A41.9,41.9,0,0,0,255.9,203H257A18.3,18.3,0,0,0,275.4,184.7Z" transform="translate(0 0.1)" style="fill:#f130ac"/><path d="M218.5,73.4v27.8A14.6,14.6,0,0,0,233,115.7h22.8a1.3,1.3,0,0,0,1.3-1.3h0V43.2a1.3,1.3,0,0,0-1.3-1.3,1.1,1.1,0,0,0-.8.3L219,72.4A1.6,1.6,0,0,0,218.5,73.4Z" transform="translate(0 0.1)" style="fill:#f130ac"/><path d="M132.9,320.7a29.5,29.5,0,0,0,4.8-17,28.8,28.8,0,0,0-2-11.2A31.7,31.7,0,0,0,106,271.9h-.1a31.8,31.8,0,0,0-1.1,63.6h1.1a15.1,15.1,0,0,0,3-.2,23,23,0,0,0,2.6-.3,1.7,1.7,0,0,1,1.2.2c6,2.8,9,7.6,9,14.3A16.1,16.1,0,0,1,106,365.4a15.9,15.9,0,0,1-15.6-13.5,16.3,16.3,0,0,1,.4-6.6,1.9,1.9,0,0,0-1.1-2.3l-11.3-4.6a2.1,2.1,0,0,0-2.6,1.2h0a30.8,30.8,0,0,0-1.6,10,31.7,31.7,0,0,0,5.4,17.6q9.5,14.1,26.4,14.1a31.8,31.8,0,0,0,17.7-5.4c9.4-6.1,14-14.9,14-26.3a30.2,30.2,0,0,0-8.5-21.7,2.1,2.1,0,0,1,0-2.6A32.4,32.4,0,0,0,132.9,320.7ZM117.1,315a15.4,15.4,0,0,1-11.1,4.7,15.8,15.8,0,1,1,15.7-15.9h0a15.3,15.3,0,0,1-4.6,11.2Z" transform="translate(0 0.1)" style="fill:#e0e921"/><path d="M444.4,285.9l8.3-12.9a2.5,2.5,0,0,1,1.8-1h14.8a2.2,2.2,0,0,1,2.1,2.1,2.8,2.8,0,0,1-.4,1.3l-18,25.3a2,2,0,0,0,0,2.3l18.7,27.5a2.1,2.1,0,0,1-.5,2.9,1.9,1.9,0,0,1-1.2.4H454.2a2.2,2.2,0,0,1-1.8-1l-8.6-14.3a2,2,0,0,0-2.8-.7,1.6,1.6,0,0,0-.7.7l-8.9,14.4a2.2,2.2,0,0,1-1.8,1H413.7a2.1,2.1,0,0,1-2.1-2.1,2,2,0,0,1,.4-1.3l19.6-27.4a2.1,2.1,0,0,0,0-2.4l-17.4-25.2a2.2,2.2,0,0,1,.6-3,2.1,2.1,0,0,1,1.2-.3h15a2.1,2.1,0,0,1,1.8,1l8.1,12.8a2,2,0,0,0,2.9.6A1.3,1.3,0,0,0,444.4,285.9Z" transform="translate(0 0.1)" style="fill:#f130ac"/><path d="M118.8,263.8a8,8,0,0,1,2.5-5.9,7.9,7.9,0,0,1,5.9-2.4,8.3,8.3,0,1,1-8.3,8.4c-.1-.1-.1-.1,0-.2Z" transform="translate(0 0.1)" style="fill:#e0e921"/><path d="M400.4,281.3a32.1,32.1,0,1,1-22.5-9.2A30.7,30.7,0,0,1,400.4,281.3Zm-11.5,11.5a15,15,0,0,0-11-4.7,15.3,15.3,0,0,0-11.2,4.6,14.8,14.8,0,0,0-4.6,11.1,15.7,15.7,0,0,0,15.7,15.8h.1a15.9,15.9,0,0,0,15.7-15.9A14.7,14.7,0,0,0,388.9,292.8Z" transform="translate(0 0.1)" style="fill:#f130ac"/><path d="M22,317.7a5.8,5.8,0,0,1-5.9-5.9h0V243a1.5,1.5,0,0,0-1.5-1.5,1.7,1.7,0,0,0-1,.3L.6,252.7a1.6,1.6,0,0,0-.6,1.2v63.8a16.1,16.1,0,0,0,16,16.1H30.5a1.6,1.6,0,0,0,1.6-1.6v-13a1.5,1.5,0,0,0-1.5-1.5H22Z" transform="translate(0 0.1)" style="fill:#e0e921"/><path d="M46.2,286.2v46.2a1.4,1.4,0,0,0,1.4,1.4H60.9a1.4,1.4,0,0,0,1.4-1.4V275a1.3,1.3,0,0,0-1.4-1.3,1.1,1.1,0,0,0-.8.3L46.7,285.2A1.2,1.2,0,0,0,46.2,286.2Z" transform="translate(0 0.1)" style="fill:#e0e921"/><path d="M206.3,281.3a30.9,30.9,0,0,0-22.6-9.2,33.5,33.5,0,0,0-13.2,2.7,1.7,1.7,0,0,1-2.4-.8,2.4,2.4,0,0,1-.2-.8V242.9a1.5,1.5,0,0,0-1.5-1.5,1.8,1.8,0,0,0-.9.4l-13.1,11a1.6,1.6,0,0,0-.5,1.1v77.9a2,2,0,0,0,2,2h12a2,2,0,0,0,2-2V304a16,16,0,0,1,4.6-11.4,15.4,15.4,0,0,1,11.3-4.6,15.8,15.8,0,0,1,15.7,15.7v28.2a1.9,1.9,0,0,0,1.9,1.8h12.3a1.8,1.8,0,0,0,1.9-1.8V303.7A31,31,0,0,0,206.3,281.3Z" transform="translate(0 0.1)" style="fill:#e0e921"/><path d="M258.8,284V273.8a1.8,1.8,0,0,0-1.7-1.7H244.8a1.8,1.8,0,0,1-1.8-1.8V242.6a1.4,1.4,0,0,0-1.4-1.4,1.1,1.1,0,0,0-.8.3l-13.3,11.2a1,1,0,0,0-.5,1V302a31.8,31.8,0,0,0,29.7,31.7,2,2,0,0,0,2.1-1.9h0V319.6a1.9,1.9,0,0,0-1.8-1.9,16,16,0,0,1-9.4-4.5A15.2,15.2,0,0,1,243,302V287.5a1.8,1.8,0,0,1,1.8-1.8H257a1.7,1.7,0,0,0,1.8-1.7Z" transform="translate(0 0.1)" style="fill:#e0e921"/><path d="M327.9,281.2a32.6,32.6,0,0,0-35.9-6.4,1.7,1.7,0,0,1-2.3-.8,1.5,1.5,0,0,1-.1-.7V242.7a1.4,1.4,0,0,0-1.4-1.4,1.4,1.4,0,0,0-.9.3L274,252.7a1.2,1.2,0,0,0-.5,1v50a31.8,31.8,0,1,0,54.4-22.4Zm-11.4,33.7a14.9,14.9,0,0,1-11.1,4.6,15.8,15.8,0,0,1-15.8-15.8,14.9,14.9,0,0,1,4.6-11.1,15.3,15.3,0,0,1,11.2-4.6A15.8,15.8,0,0,1,321,303.7a15.2,15.2,0,0,1-4.5,11.2Z" transform="translate(0 0.1)" style="fill:#f130ac"/><path d="M156.4,368.2a9,9,0,0,1-3.3-3.4,8.7,8.7,0,0,1-1-2.4,11.5,11.5,0,0,1-.3-2.6h0a11.6,11.6,0,0,1,1.1-4.8,8.9,8.9,0,0,1,3.2-3.5,7.4,7.4,0,0,1,2.4-1.1,9.2,9.2,0,0,1,2.9-.4,9.1,9.1,0,0,1,8.2,4.7,10.1,10.1,0,0,1,1,2.4,12.4,12.4,0,0,1,.3,2.7h0a10.5,10.5,0,0,1-1.1,4.7,10.2,10.2,0,0,1-3.2,3.6,8.6,8.6,0,0,1-2.4,1.1,9.7,9.7,0,0,1-2.9.4A8.6,8.6,0,0,1,156.4,368.2Zm9.1-1a9,9,0,0,0,2.8-3,6.7,6.7,0,0,0,.9-2.1,9.1,9.1,0,0,0,.3-2.3h0a9.9,9.9,0,0,0-.3-2.4,18.9,18.9,0,0,0-.9-2.1,9.2,9.2,0,0,0-2.9-3,8.1,8.1,0,0,0-4.1-1.1,5.9,5.9,0,0,0-2.3.4,7.2,7.2,0,0,0-2,.9,7.7,7.7,0,0,0-2.7,3,9,9,0,0,0-1,4.2h0a8.9,8.9,0,0,0,1.2,4.5,7.1,7.1,0,0,0,2.8,2.9,6.7,6.7,0,0,0,4.1,1.1A7.6,7.6,0,0,0,165.5,367.2Z" transform="translate(0 0.1)" style="fill:#590059"/><path d="M179.5,368.2a9,9,0,0,1-3.3-3.4,8.7,8.7,0,0,1-1-2.4,11.5,11.5,0,0,1-.3-2.6h0a11.6,11.6,0,0,1,1.1-4.8,10.7,10.7,0,0,1,3.2-3.5,8.6,8.6,0,0,1,2.4-1.1,9.7,9.7,0,0,1,2.9-.4,9.1,9.1,0,0,1,8.2,4.7,10.1,10.1,0,0,1,1,2.4,12.4,12.4,0,0,1,.3,2.7h0a10.8,10.8,0,0,1-1.1,4.7,10.2,10.2,0,0,1-3.2,3.6,8.6,8.6,0,0,1-2.4,1.1,9.7,9.7,0,0,1-2.9.4A8.6,8.6,0,0,1,179.5,368.2Zm9.1-1a9,9,0,0,0,2.8-3,6.7,6.7,0,0,0,.9-2.1,9.1,9.1,0,0,0,.3-2.3h0a9.9,9.9,0,0,0-.3-2.4,18.9,18.9,0,0,0-.9-2.1,9.2,9.2,0,0,0-2.9-3,8.1,8.1,0,0,0-4.1-1.1,5.9,5.9,0,0,0-2.3.4,7.2,7.2,0,0,0-2,.9,7.7,7.7,0,0,0-2.7,3,9,9,0,0,0-1,4.2h0a8.9,8.9,0,0,0,1.2,4.5,7.1,7.1,0,0,0,2.8,2.9,6.7,6.7,0,0,0,4.1,1.1A7.6,7.6,0,0,0,188.6,367.2Z" transform="translate(0 0.1)" style="fill:#590059"/><path d="M198.8,350.2h1.5V359h12.1v-8.8h1.4v19h-1.4v-8.9H200.3v8.9h-1.5Z" transform="translate(0 0.1)" style="fill:#590059"/><path d="M226,350.2h1.6l7.4,17.5c3.8-8.8,6.3-14.6,7.5-17.5H244c-4.2,9.6-7,16-8.3,19.2h-1.3Z" transform="translate(0 0.1)" style="fill:#590059"/><path d="M248.2,350.2h1.4v19h-1.4Z" transform="translate(0 0.1)" style="fill:#590059"/><path d="M255.5,350.2h6.3a15.3,15.3,0,0,1,3,.3,9.4,9.4,0,0,1,5.9,4.4,9,9,0,0,1,1.2,4.8h0a8.9,8.9,0,0,1-4.6,8.1,7.7,7.7,0,0,1-2.5,1,10.3,10.3,0,0,1-3,.4h-6.3Zm6.3,17.7a10.9,10.9,0,0,0,2.6-.3,8.5,8.5,0,0,0,2.2-.9,8.1,8.1,0,0,0,2.9-2.9,9.1,9.1,0,0,0,1-4h0a9.2,9.2,0,0,0-1-4.1,8.1,8.1,0,0,0-2.9-2.9,8.5,8.5,0,0,0-2.2-.9,7.5,7.5,0,0,0-2.6-.4h-4.9V368Z" transform="translate(0 0.1)" style="fill:#590059"/><path d="M276.7,350.2h13.6v1.3H278.2V359H289v1.3H278.2v7.6h12.2v1.3H276.7Z" transform="translate(0 0.1)" style="fill:#590059"/><path d="M298.8,368.2a9.2,9.2,0,0,1-3.4-3.4,13.3,13.3,0,0,1-1-2.4,11.5,11.5,0,0,1-.3-2.6h0a10.3,10.3,0,0,1,1.2-4.8,8.9,8.9,0,0,1,3.2-3.5,6.6,6.6,0,0,1,2.4-1.1,8.6,8.6,0,0,1,2.8-.4,9,9,0,0,1,8.2,4.7,7.2,7.2,0,0,1,1,2.4,8.4,8.4,0,0,1,.4,2.7h0a9.4,9.4,0,0,1-1.2,4.7,8.6,8.6,0,0,1-3.2,3.6,6.6,6.6,0,0,1-2.4,1.1,9,9,0,0,1-2.8.4A8.2,8.2,0,0,1,298.8,368.2Zm9-1a9,9,0,0,0,2.8-3,6.7,6.7,0,0,0,.9-2.1,17.9,17.9,0,0,0,.2-2.3h0a19.4,19.4,0,0,0-.2-2.4,18.9,18.9,0,0,0-.9-2.1,9.2,9.2,0,0,0-2.9-3,8.1,8.1,0,0,0-4.1-1.1,5.9,5.9,0,0,0-2.3.4,7.2,7.2,0,0,0-2,.9,7.7,7.7,0,0,0-2.7,3,9,9,0,0,0-1,4.2h0a10,10,0,0,0,1.1,4.5,8.1,8.1,0,0,0,11.1,2.9Z" transform="translate(0 0.1)" style="fill:#590059"/><path d="M326.2,350.2h1.4c6.5,8.3,10.9,13.8,13.1,16.5V350.2H342v19h-1l-13.4-16.9v16.9h-1.4Z" transform="translate(0 0.1)" style="fill:#590059"/><path d="M347.7,350.2h13.5v1.3H349.1V359H360v1.3H349.1v7.6h12.3v1.3H347.7Z" transform="translate(0 0.1)" style="fill:#590059"/><path d="M371.2,351.5h-6.7v-1.3h14.7v1.3h-6.6v17.7h-1.4Z" transform="translate(0 0.1)" style="fill:#590059"/><path d="M382.1,350.2h1.6l6,16.9c2.7-8.5,4.6-14.1,5.6-17h1l5.6,17,6-16.9h1.5q-5.2,14.4-6.9,19.2h-1.2c-2.8-8.3-4.6-13.8-5.5-16.6-2.8,8.3-4.7,13.8-5.6,16.6H389C385.6,359.8,383.2,353.4,382.1,350.2Z" transform="translate(0 0.1)" style="fill:#590059"/><path d="M417.3,368.2a9,9,0,0,1-3.3-3.4,6.4,6.4,0,0,1-1-2.4,7.8,7.8,0,0,1-.4-2.6h0a10.3,10.3,0,0,1,1.2-4.8,8.9,8.9,0,0,1,3.2-3.5,6.6,6.6,0,0,1,2.4-1.1,9,9,0,0,1,2.8-.4,9.2,9.2,0,0,1,8.3,4.7,17.3,17.3,0,0,1,1,2.4,12.4,12.4,0,0,1,.3,2.7h0a9.4,9.4,0,0,1-1.2,4.7,8.6,8.6,0,0,1-3.2,3.6,6.6,6.6,0,0,1-2.4,1.1,9.9,9.9,0,0,1-7.7-.9Zm9-1a8.3,8.3,0,0,0,2.9-3,6.6,6.6,0,0,0,.8-2.1,9.1,9.1,0,0,0,.3-2.3h0a9.9,9.9,0,0,0-.3-2.4,9.5,9.5,0,0,0-.9-2.1,8,8,0,0,0-2.8-3,8.4,8.4,0,0,0-4.1-1.1,5.9,5.9,0,0,0-2.3.4,6.1,6.1,0,0,0-2,.9,8.9,8.9,0,0,0-2.8,3,10.4,10.4,0,0,0-1,4.2h0a8.9,8.9,0,0,0,1.2,4.5,8.1,8.1,0,0,0,2.9,2.9,6.5,6.5,0,0,0,4.1,1.1A7,7,0,0,0,426.3,367.2Z" transform="translate(0 0.1)" style="fill:#590059"/><path d="M436.6,350.2h8a8.4,8.4,0,0,1,3.1.5,5.2,5.2,0,0,1,2.2,1.4,3.1,3.1,0,0,1,1.1,1.6,4.1,4.1,0,0,1,.4,1.9h0a4.4,4.4,0,0,1-1.6,3.7,8,8,0,0,1-4,1.7q4.8,6,6.3,8.1h-1.8l-6.1-7.9H438v7.9h-1.4Zm7.8,9.8a6.4,6.4,0,0,0,4-1.1,3.6,3.6,0,0,0,1.6-3.2h0a3.7,3.7,0,0,0-1.4-3,5.9,5.9,0,0,0-4-1.2H438v8.6Z" transform="translate(0 0.1)" style="fill:#590059"/><path d="M456.2,350.2h1.5v12.5l12.1-12.5h1.9l-8.3,8.4,8.7,10.6h-1.9l-7.8-9.6c-2.4,2.4-4,3.9-4.7,4.8v4.8h-1.5Z" transform="translate(0 0.1)" style="fill:#590059"/></svg>