<svg id="Layer_1" data-name="Layer 1" xmlns="http://www.w3.org/2000/svg" viewBox="0 0 472.1 140.1"><path d="M132.9,79.5a29.5,29.5,0,0,0,4.8-17,28.8,28.8,0,0,0-2-11.2A31.7,31.7,0,0,0,106,30.7h-.1a31.8,31.8,0,0,0-1.1,63.6h1.1a15.1,15.1,0,0,0,3-.2,11.5,11.5,0,0,0,2.6-.3,1.7,1.7,0,0,1,1.2.2c6,2.8,9,7.6,9,14.3a14.7,14.7,0,0,1-4.7,11.2,15,15,0,0,1-11,4.7,15.9,15.9,0,0,1-15.6-13.5,16.4,16.4,0,0,1,.4-6.6,1.9,1.9,0,0,0-1.1-2.3L78.4,97.2a2.1,2.1,0,0,0-2.6,1.2h0a30.8,30.8,0,0,0-1.6,10A31.5,31.5,0,0,0,79.6,126q9.5,14.1,26.4,14.1a31.7,31.7,0,0,0,17.7-5.3c9.4-6.2,14-15,14-26.4a30.2,30.2,0,0,0-8.5-21.7,2,2,0,0,1,0-2.5A40.1,40.1,0,0,0,132.9,79.5Zm-15.8-5.7A15.4,15.4,0,0,1,106,78.5a15.8,15.8,0,1,1,15.7-15.9h0a15.3,15.3,0,0,1-4.6,11.2Z" transform="translate(0)" style="fill:#e0e921"/><path d="M444.4,44.8l8.3-12.9a2,2,0,0,1,1.8-1h14.8a2,2,0,0,1,2.1,2,2.8,2.8,0,0,1-.4,1.3L453,59.5a2.1,2.1,0,0,0,0,2.4l18.7,27.4a2.2,2.2,0,0,1-.5,3,2.7,2.7,0,0,1-1.2.3H454.2a2.2,2.2,0,0,1-1.8-1l-8.6-14.3a2,2,0,0,0-2.8-.7,1.6,1.6,0,0,0-.7.7l-8.9,14.4a2.2,2.2,0,0,1-1.8,1H413.7a2.1,2.1,0,0,1-2.1-2.1,2,2,0,0,1,.4-1.3l19.6-27.4a2.1,2.1,0,0,0,0-2.4L414.2,34.3a2.2,2.2,0,0,1,.6-3A2.1,2.1,0,0,1,416,31h15a2.1,2.1,0,0,1,1.8,1l8.1,12.8a2,2,0,0,0,2.9.6A1.2,1.2,0,0,0,444.4,44.8Z" transform="translate(0)" style="fill:#f130ac"/><path d="M118.8,22.6a8.2,8.2,0,0,1,2.5-5.9,7.9,7.9,0,0,1,5.9-2.4,8.3,8.3,0,0,1,8.2,8.3,8.3,8.3,0,1,1-16.5.1c-.1,0-.1-.1,0-.2Z" transform="translate(0)" style="fill:#e0e921"/><path d="M400.4,40.1a32.1,32.1,0,1,1-22.5-9.2A30.7,30.7,0,0,1,400.4,40.1ZM388.9,51.6a15,15,0,0,0-11-4.7,15.3,15.3,0,0,0-11.2,4.6,14.9,14.9,0,0,0-4.6,11.1,15.8,15.8,0,0,0,15.7,15.9h.1a15.9,15.9,0,0,0,15.7-15.9A14.7,14.7,0,0,0,388.9,51.6Z" transform="translate(0)" style="fill:#f130ac"/><path d="M22,76.5a5.8,5.8,0,0,1-5.9-5.9h0V1.8A1.5,1.5,0,0,0,14.6.3a1.3,1.3,0,0,0-1,.4L.6,11.6A1.3,1.3,0,0,0,0,12.7V76.5A16.1,16.1,0,0,0,16,92.6H30.5A1.6,1.6,0,0,0,32.1,91V78a1.5,1.5,0,0,0-1.5-1.5H22Z" transform="translate(0)" style="fill:#e0e921"/><path d="M46.2,45V91.2a1.4,1.4,0,0,0,1.4,1.4H60.9a1.4,1.4,0,0,0,1.4-1.4V33.8a1.3,1.3,0,0,0-1.4-1.3,1.1,1.1,0,0,0-.8.3L46.7,44A1.2,1.2,0,0,0,46.2,45Z" transform="translate(0)" style="fill:#e0e921"/><path d="M206.3,40.1a30.9,30.9,0,0,0-22.6-9.2,33.5,33.5,0,0,0-13.2,2.7,1.7,1.7,0,0,1-2.4-.8,2.4,2.4,0,0,1-.2-.8V1.7A1.4,1.4,0,0,0,166.4.3a1.6,1.6,0,0,0-.9.3l-13.1,11a1.6,1.6,0,0,0-.5,1.1V90.6a2,2,0,0,0,2,2h12a2,2,0,0,0,2-2V62.8a16,16,0,0,1,4.6-11.4,15.4,15.4,0,0,1,11.3-4.6,15.8,15.8,0,0,1,15.7,15.7V90.7a1.9,1.9,0,0,0,1.9,1.8h12.3a1.8,1.8,0,0,0,1.9-1.8V62.5A31,31,0,0,0,206.3,40.1Z" transform="translate(0)" style="fill:#e0e921"/><path d="M258.8,42.8V32.6a1.8,1.8,0,0,0-1.7-1.7H244.8a1.8,1.8,0,0,1-1.8-1.8V1.4A1.4,1.4,0,0,0,241.6,0a1.1,1.1,0,0,0-.8.3L227.5,11.5a1,1,0,0,0-.5,1V60.8a31.7,31.7,0,0,0,29.7,31.7,2,2,0,0,0,2.1-1.9h0V78.4a1.9,1.9,0,0,0-1.8-1.9,16,16,0,0,1-9.4-4.5A15.2,15.2,0,0,1,243,60.8V46.3a1.8,1.8,0,0,1,1.8-1.8H257a1.7,1.7,0,0,0,1.8-1.7Z" transform="translate(0)" style="fill:#e0e921"/><path d="M327.9,40A32.6,32.6,0,0,0,292,33.6a1.7,1.7,0,0,1-2.3-.8,1.5,1.5,0,0,1-.1-.7V1.5A1.4,1.4,0,0,0,288.2.1a1.4,1.4,0,0,0-.9.3L274,11.5a1.2,1.2,0,0,0-.5,1v50a31.8,31.8,0,1,0,54.4-22.4ZM316.5,73.7a14.9,14.9,0,0,1-11.1,4.6,15.8,15.8,0,0,1-15.8-15.8,14.9,14.9,0,0,1,4.6-11.1,15.3,15.3,0,0,1,11.2-4.6A15.8,15.8,0,0,1,321,62.5a15.2,15.2,0,0,1-4.5,11.2Z" transform="translate(0)" style="fill:#f130ac"/><path d="M156.4,127a9,9,0,0,1-3.3-3.4,8.7,8.7,0,0,1-1-2.4,10.9,10.9,0,0,1-.3-2.6h0a10.8,10.8,0,0,1,1.1-4.7,8.6,8.6,0,0,1,3.2-3.6,7.4,7.4,0,0,1,2.4-1.1,9.2,9.2,0,0,1,2.9-.4,9.1,9.1,0,0,1,8.2,4.7,12.2,12.2,0,0,1,1,2.4,12.4,12.4,0,0,1,.3,2.7h0a10.5,10.5,0,0,1-1.1,4.7,10.2,10.2,0,0,1-3.2,3.6,8.6,8.6,0,0,1-2.4,1.1,9.7,9.7,0,0,1-2.9.4A8.6,8.6,0,0,1,156.4,127Zm9.1-1a8.6,8.6,0,0,0,2.8-2.9,9.1,9.1,0,0,0,1.2-4.5h0a9.9,9.9,0,0,0-.3-2.4,18.9,18.9,0,0,0-.9-2.1,8.1,8.1,0,0,0-2.9-2.9,7.3,7.3,0,0,0-4.1-1.2,8.5,8.5,0,0,0-2.3.4,7.2,7.2,0,0,0-2,.9,7.7,7.7,0,0,0-2.7,3,9,9,0,0,0-1,4.2h0a8.9,8.9,0,0,0,1.2,4.5,7.1,7.1,0,0,0,2.8,2.9,6.7,6.7,0,0,0,4.1,1.1A7.6,7.6,0,0,0,165.5,126Z" transform="translate(0)" style="fill:#590059"/><path d="M179.5,127a9,9,0,0,1-3.3-3.4,8.7,8.7,0,0,1-1-2.4,10.9,10.9,0,0,1-.3-2.6h0a10.8,10.8,0,0,1,1.1-4.7,10.2,10.2,0,0,1,3.2-3.6,8.6,8.6,0,0,1,2.4-1.1,9.7,9.7,0,0,1,2.9-.4,9.1,9.1,0,0,1,8.2,4.7,12.2,12.2,0,0,1,1,2.4,12.4,12.4,0,0,1,.3,2.7h0a10.5,10.5,0,0,1-1.1,4.7,10.2,10.2,0,0,1-3.2,3.6,8.6,8.6,0,0,1-2.4,1.1,9.7,9.7,0,0,1-2.9.4A8.6,8.6,0,0,1,179.5,127Zm9.1-1a8.6,8.6,0,0,0,2.8-2.9,9.1,9.1,0,0,0,1.2-4.5h0a9.9,9.9,0,0,0-.3-2.4,18.9,18.9,0,0,0-.9-2.1,8.1,8.1,0,0,0-2.9-2.9,7.3,7.3,0,0,0-4.1-1.2,8.5,8.5,0,0,0-2.3.4,7.2,7.2,0,0,0-2,.9,7.7,7.7,0,0,0-2.7,3,9,9,0,0,0-1,4.2h0a8.9,8.9,0,0,0,1.2,4.5,7.1,7.1,0,0,0,2.8,2.9,6.7,6.7,0,0,0,4.1,1.1A7.6,7.6,0,0,0,188.6,126Z" transform="translate(0)" style="fill:#590059"/><path d="M198.8,109h1.5v8.8h12.1V109h1.4v19h-1.4v-8.9H200.3V128h-1.5Z" transform="translate(0)" style="fill:#590059"/><path d="M226,109h1.6l7.4,17.5c3.8-8.8,6.3-14.6,7.5-17.5H244c-4.2,9.6-7,16-8.3,19.2h-1.3Z" transform="translate(0)" style="fill:#590059"/><path d="M248.2,109h1.4v19h-1.4Z" transform="translate(0)" style="fill:#590059"/><path d="M255.5,109h6.3a10.3,10.3,0,0,1,3,.4,8.9,8.9,0,0,1,5.9,4.3,9,9,0,0,1,1.2,4.8h0a8.9,8.9,0,0,1-4.6,8.1,7.7,7.7,0,0,1-2.5,1,10.3,10.3,0,0,1-3,.4h-6.3Zm6.3,17.7a10.9,10.9,0,0,0,2.6-.3,8.5,8.5,0,0,0,2.2-.9,8.1,8.1,0,0,0,2.9-2.9,9.1,9.1,0,0,0,1-4h0a9.2,9.2,0,0,0-1-4.1,8.1,8.1,0,0,0-2.9-2.9,8.5,8.5,0,0,0-2.2-.9,7.5,7.5,0,0,0-2.6-.4h-4.9v16.5Z" transform="translate(0)" style="fill:#590059"/><path d="M276.7,109h13.6v1.3H278.2v7.5H289v1.3H278.2v7.6h12.2V128H276.7Z" transform="translate(0)" style="fill:#590059"/><path d="M298.8,127a9.2,9.2,0,0,1-3.4-3.4,13.3,13.3,0,0,1-1-2.4,10.9,10.9,0,0,1-.3-2.6h0a9.7,9.7,0,0,1,1.2-4.7,8.6,8.6,0,0,1,3.2-3.6,6.6,6.6,0,0,1,2.4-1.1,8.6,8.6,0,0,1,2.8-.4,9,9,0,0,1,8.2,4.7,7.2,7.2,0,0,1,1,2.4,8.4,8.4,0,0,1,.4,2.7h0a9.4,9.4,0,0,1-1.2,4.7,8.6,8.6,0,0,1-3.2,3.6,6.6,6.6,0,0,1-2.4,1.1,9,9,0,0,1-2.8.4A8.2,8.2,0,0,1,298.8,127Zm9-1a8.6,8.6,0,0,0,2.8-2.9,8.5,8.5,0,0,0,.9-2.2,16.4,16.4,0,0,0,.2-2.3h0a19.4,19.4,0,0,0-.2-2.4,18.9,18.9,0,0,0-.9-2.1,8.1,8.1,0,0,0-2.9-2.9,7.3,7.3,0,0,0-4.1-1.2,8.5,8.5,0,0,0-2.3.4,7.2,7.2,0,0,0-2,.9,7.7,7.7,0,0,0-2.7,3,9,9,0,0,0-1,4.2h0a10,10,0,0,0,1.1,4.5,8.1,8.1,0,0,0,11.1,2.9Z" transform="translate(0)" style="fill:#590059"/><path d="M326.2,109h1.4c6.5,8.3,10.9,13.8,13.1,16.5V109H342v19h-1l-13.4-16.9V128h-1.4Z" transform="translate(0)" style="fill:#590059"/><path d="M347.7,109h13.5v1.3H349.1v7.5H360v1.3H349.1v7.6h12.3V128H347.7Z" transform="translate(0)" style="fill:#590059"/><path d="M371.2,110.3h-6.7V109h14.7v1.3h-6.6V128h-1.4Z" transform="translate(0)" style="fill:#590059"/><path d="M382.1,109h1.6l6,16.9c2.7-8.5,4.6-14.1,5.6-17h1l5.6,17,6-16.9h1.5q-5.2,14.4-6.9,19.2h-1.2c-2.8-8.3-4.6-13.8-5.5-16.6-2.8,8.3-4.7,13.8-5.6,16.6H389C385.6,118.6,383.2,112.2,382.1,109Z" transform="translate(0)" style="fill:#590059"/><path d="M417.3,127a9,9,0,0,1-3.3-3.4,6.4,6.4,0,0,1-1-2.4,7.5,7.5,0,0,1-.4-2.6h0a9.7,9.7,0,0,1,1.2-4.7,8.6,8.6,0,0,1,3.2-3.6,6.6,6.6,0,0,1,2.4-1.1,9,9,0,0,1,2.8-.4,9.2,9.2,0,0,1,8.3,4.7,24.4,24.4,0,0,1,1,2.4,12.4,12.4,0,0,1,.3,2.7h0a9.4,9.4,0,0,1-1.2,4.7,8.6,8.6,0,0,1-3.2,3.6,6.6,6.6,0,0,1-2.4,1.1,9.9,9.9,0,0,1-7.7-.9Zm9-1a8.1,8.1,0,0,0,2.9-2.9,8.3,8.3,0,0,0,.8-2.2,8.5,8.5,0,0,0,.3-2.3h0a9.9,9.9,0,0,0-.3-2.4,9.5,9.5,0,0,0-.9-2.1,7.1,7.1,0,0,0-2.8-2.9,7.5,7.5,0,0,0-4.1-1.2,8.5,8.5,0,0,0-2.3.4,6.1,6.1,0,0,0-2,.9,8.9,8.9,0,0,0-2.8,3,10.4,10.4,0,0,0-1,4.2h0a8.9,8.9,0,0,0,1.2,4.5,8.1,8.1,0,0,0,2.9,2.9,6.5,6.5,0,0,0,4.1,1.1A7,7,0,0,0,426.3,126Z" transform="translate(0)" style="fill:#590059"/><path d="M436.6,109h8a8.4,8.4,0,0,1,3.1.5,6.4,6.4,0,0,1,2.2,1.4,3.6,3.6,0,0,1,1.1,1.6,4.1,4.1,0,0,1,.4,1.9h0a4.4,4.4,0,0,1-1.6,3.7,7.2,7.2,0,0,1-4,1.7c3.2,4,5.3,6.8,6.3,8.1h-1.8l-6.1-7.9H438V128h-1.4Zm7.8,9.9a7.2,7.2,0,0,0,4-1.2,3.6,3.6,0,0,0,1.6-3.2h0a3.7,3.7,0,0,0-1.4-3,5.9,5.9,0,0,0-4-1.2H438v8.6Z" transform="translate(0)" style="fill:#590059"/><path d="M456.2,109h1.5v12.5L469.8,109h1.9l-8.3,8.4,8.7,10.6h-1.9l-7.8-9.6-4.7,4.8V128h-1.5Z" transform="translate(0)" style="fill:#590059"/></svg>