<svg id="svg5463" xmlns="http://www.w3.org/2000/svg" viewBox="0 0 213.7 37.21"><defs><style>.cls-1{fill:#fff;}</style></defs><g id="layer1"><path id="path5474" class="cls-1" d="M38,21.12H28.81C15.29,21.39,16,9.9,16,9.9V0H0V15.86c0,2.21,2.08,21.35,22,21.35H38V21.12"/><path id="path5476" class="cls-1" d="M17.68,0V8.84S16.35,19.62,28,19.53H38v-7H33.54S24.92,13.63,25,7V0H17.68"/><path id="path5478" class="cls-1" d="M26.87,0V5.88s-.67,5.21,6.18,5h5V5.75H35.22A3.14,3.14,0,0,1,31.9,2.21V0h-5"/><path id="path5480" class="cls-1" d="M33.75,0H38V4.11s-4.24.64-4.24-1.68V0"/><path id="path5482" class="cls-1" d="M204.64,19.53c-4.46-1-8.84-1.37-8.84-4.11,0-2.21,2.57-2.56,4.34-2.56,2.78,0,5.12.79,5.34,3.76h7.43c-.62-6.81-6.32-8.87-12.55-8.87a18.46,18.46,0,0,0-8.09,1.59l.27-.84h-8l-5.22,18.74h-.13L174.33,8.53h-7.58L162,27.31h-.09L156.75,8.53h-8.27l.27.71a21.44,21.44,0,0,0-8.49-1.49,6.61,6.61,0,0,0-.89,0c-5.56.18-11,2.08-12.28,7.56V0h-7.82V14.8a11.22,11.22,0,0,0-10.3-7,14.34,14.34,0,0,0-2.69.26,9.79,9.79,0,0,0-6.23,3.85h-.14V0H92.09V14.18c-2.34-4-6.85-6.43-12.55-6.43-8.92,0-14.71,5.79-14.71,14.62a16.61,16.61,0,0,0,1,5.84h-8c-6.41,0-6.32-3-6.32-5.44V0H43.75s.09,22.58,0,27c0,8.75,6.85,9,12.86,9H70V34a15.17,15.17,0,0,0,9.59,3c5.7,0,10.17-2.38,12.55-6.4v5.65h7.43V32.66h.13c1.32,2.38,3.71,3.67,6.63,4.11a18.6,18.6,0,0,0,2.69.17,11.22,11.22,0,0,0,10.3-7v6.27h7.82V33c1.63,2.65,4.86,3.93,8.57,3.93a17.77,17.77,0,0,0,3.71-.39,11.18,11.18,0,0,0,5.88-3,11.76,11.76,0,0,0,.53,2.69h8c-.71-1.1-1-3.62-1-6.14V21.75l4.73,14.45h8.08l4.87-18.56h.08l5,18.56h8.09l5.26-16.31c1.54,2.44,4.81,3.45,8.13,4.16,5.61,1.19,8.88,2,8.88,4.28,0,2.7-2.87,3.54-5.17,3.54-3,0-5.92-1.33-6-4.64h-7.42c.36,7.29,6.76,9.72,13.39,9.72,6.45,0,13-2.34,13-9.63,0-5.13-4.5-6.76-9.06-7.78ZM79.54,31.2c-5.3,0-6.89-4.42-6.89-8.8s1.59-8.88,6.89-8.88S86.39,18,86.39,22.4,84.8,31.2,79.54,31.2Zm26.78,0h0c-4.6,0-6.63-4.24-6.63-8.8s2-8.88,6.63-8.88h0c4.6,0,6.63,4.2,6.63,8.88S110.92,31.2,106.32,31.2Zm38.62-5.7c0,1.59-.22,5.92-5.56,6.32h-.8c-2.52,0-4.77-.71-4.77-3.53s2.21-3.58,4.59-4.07l1-.13c2.16-.31,4.42-.49,5.56-1.46v2.83Zm-5.56-5.7c-1.15.13-2.44.26-3.72.48-3.4.45-6.85,1.33-8.57,4V17.06h7.6c.27-2.83,2-4.07,4.69-4.2h.48c2.74,0,5.08.53,5.08,3.75C144.94,18.91,142.56,19.4,139.38,19.8Z"/></g></svg>