<svg id="svg5463" xmlns="http://www.w3.org/2000/svg" viewBox="0 0 213.7 37.21"><defs><style>.cls-1{fill:red;}.cls-2{fill:#ff7f00;}</style></defs><g id="layer1"><path id="path5474" class="cls-1" d="M38.25,21.37H29.06c-13.52.27-12.81-11.22-12.81-11.22V.25H.25V16.11c0,2.21,2.08,21.35,22,21.35h16V21.37" transform="translate(-0.25 -0.25)"/><path id="path5476" class="cls-2" d="M17.93.25V9.09S16.6,19.87,28.22,19.78h10v-7H33.79s-8.62,1.1-8.53-5.52v-7H17.93" transform="translate(-0.25 -0.25)"/><path id="path5478" class="cls-2" d="M27.12.25V6.13s-.67,5.21,6.18,5h5V6H35.47a3.14,3.14,0,0,1-3.32-3.54V.25h-5" transform="translate(-0.25 -0.25)"/><path id="path5480" class="cls-2" d="M34,.25h4.24V4.36S34,5,34,2.68V.25" transform="translate(-0.25 -0.25)"/><path id="path5482" d="M204.89,19.78c-4.46-1-8.84-1.37-8.84-4.11,0-2.21,2.57-2.56,4.34-2.56,2.78,0,5.12.79,5.34,3.76h7.43C212.54,10.06,206.84,8,200.61,8a18.48,18.48,0,0,0-8.09,1.59l.27-.84h-8l-5.22,18.74h-.13L174.58,8.78H167l-4.73,18.78h-.09L157,8.78h-8.27l.27.71A21.41,21.41,0,0,0,140.51,8a6.34,6.34,0,0,0-.89,0c-5.56.18-11,2.08-12.28,7.56V.25h-7.82v14.8a11.21,11.21,0,0,0-10.3-7,14,14,0,0,0-2.69.26,9.75,9.75,0,0,0-6.23,3.85h-.14V.25H92.34V14.43C90,10.41,85.49,8,79.79,8c-8.92,0-14.71,5.79-14.71,14.62a16.45,16.45,0,0,0,1,5.84h-8c-6.41,0-6.32-3-6.32-5.44V.25H44s.09,22.58,0,27c0,8.75,6.85,9,12.86,9H70.2v-2a15.19,15.19,0,0,0,9.59,3c5.7,0,10.17-2.38,12.55-6.4v5.65h7.43V32.91h.13c1.32,2.38,3.71,3.67,6.63,4.11a17.9,17.9,0,0,0,2.69.17,11.21,11.21,0,0,0,10.3-7v6.27h7.82V33.26c1.63,2.65,4.86,3.93,8.57,3.93a17.92,17.92,0,0,0,3.71-.39,11.22,11.22,0,0,0,5.88-3,11.35,11.35,0,0,0,.53,2.69h8c-.71-1.1-1-3.62-1-6.14V22l4.73,14.45h8.08l4.87-18.56h.08l5,18.56h8.09l5.26-16.31c1.54,2.44,4.81,3.45,8.13,4.16,5.61,1.19,8.88,2,8.88,4.28,0,2.7-2.87,3.54-5.17,3.54-3.05,0-5.92-1.33-6-4.64h-7.42c.36,7.29,6.76,9.72,13.39,9.72,6.45,0,13-2.34,13-9.63,0-5.13-4.5-6.76-9.06-7.78ZM79.79,31.45c-5.3,0-6.89-4.42-6.89-8.8s1.59-8.88,6.89-8.88,6.85,4.47,6.85,8.88S85.05,31.45,79.79,31.45Zm26.78,0h0c-4.6,0-6.63-4.24-6.63-8.8s2-8.88,6.63-8.88h0c4.6,0,6.63,4.2,6.63,8.88S111.17,31.45,106.57,31.45Zm38.62-5.7c0,1.59-.22,5.92-5.56,6.32-.27,0-.53,0-.8,0-2.52,0-4.77-.71-4.77-3.53s2.21-3.58,4.59-4.07l1-.13c2.16-.31,4.42-.49,5.56-1.46v2.83Zm-5.56-5.7c-1.15.13-2.44.26-3.72.48-3.4.45-6.85,1.33-8.57,4V17.31h7.6c.27-2.83,2-4.07,4.69-4.2h.48c2.74,0,5.08.53,5.08,3.75C145.19,19.16,142.81,19.65,139.63,20.05Z" transform="translate(-0.25 -0.25)"/></g></svg>