<?xml version="1.0" encoding="utf-8"?>
<!-- Generator: Adobe Illustrator 23.0.6, SVG Export Plug-In . SVG Version: 6.00 Build 0)  -->
<svg version="1.1" id="Layer_1" xmlns="http://www.w3.org/2000/svg" xmlns:xlink="http://www.w3.org/1999/xlink" x="0px" y="0px"
	 viewBox="0 0 91 17" style="enable-background:new 0 0 91 17;" xml:space="preserve">
<style type="text/css">
	.st0{fill:#FFFFFF;}
</style>
<path class="st0" d="M49.2,15.4h11.6V14h-9.6V9.5h7.2V8h-7.2V3.9h9.6V2.4H49.2V15.4z"/>
<path class="st0" d="M55.2,0.3l-1.6,1.8l4.9-1.8H55.2z"/>
<path class="st0" d="M80.3,14V2.4h-1.8v13h11.7V14H80.3z"/>
<path class="st0" d="M68.3,2.4l-6.6,13H64l1.7-3.4h7.9l1.7,3.4h2.2l-6.6-13H68.3z M66.5,10.4l3.1-6.2l3.1,6.2H66.5z"/>
<path class="st0" d="M42.9,10c3-0.8,3.3-3,3.3-3.8c-0.2-2.3-1.7-3.8-4.6-3.8h-8.2v13h1.9V10h5.3l3.9,5.5h2.4
	C46.9,15.4,44.1,11.8,42.9,10z M41.3,8.5h-6.1V4h6.3c1.4,0,2.3,0.7,2.6,1.5c0.2,0.6,0.1,1.4-0.3,1.9C43.3,8.3,42.3,8.5,41.3,8.5z"/>
<path class="st0" d="M22.2,0.2c-5.3,0-8.9,3.7-8.9,8.2c0,4.7,4,8.1,8.9,8.1c4.9,0,8.9-3.3,8.9-8.1C31,4,27.4,0.2,22.2,0.2z
	 M22.1,14.9c-3.6,0-6.6-2.9-6.6-6.5c0-3.5,2.9-6.6,6.8-6.6c3.8,0,6.6,3.1,6.6,6.6C28.9,12,25.8,14.9,22.1,14.9z"/>
<path class="st0" d="M8.6,7H10l2.4-4.6h-2L8.6,7z"/>
<path class="st0" d="M2,14V2.4H0.2v13H12V14H2z"/>
</svg>
