<svg width="91" height="17" viewBox="0 0 91 17" fill="none" xmlns="http://www.w3.org/2000/svg">
<path d="M49.2002 15.4402H60.8172V14.0212H51.1917V9.48068H58.4216V8.04493H51.1917V3.86168H60.8172V2.44788H49.2002V15.4402Z" fill="#7C7D7D"/>
<path d="M55.2376 0.347534L53.6648 2.11446L58.6022 0.347534H55.2376Z" fill="#7C7D7D"/>
<path d="M80.3187 14.0212V2.44788H78.5029V15.4402H90.2467V14.0212H80.3187Z" fill="#7C7D7D"/>
<path d="M68.345 2.44788L61.7388 15.4402H63.9718L65.6619 12.0774H73.585L75.2895 15.4402H77.4994L70.8879 2.44788H68.345ZM66.498 10.4489L69.611 4.24316L72.7605 10.4489H66.498Z" fill="#7C7D7D"/>
<path d="M42.8965 10.0074C45.873 9.2132 46.1622 6.99853 46.1471 6.20678C45.9694 3.88576 44.4056 2.44788 41.5957 2.44788H33.407V15.4402H35.2737V9.9901H40.6048L44.5267 15.4402H46.8796C46.8795 15.4402 44.0571 11.7722 42.8965 10.0074ZM41.3408 8.45498H35.2737V3.98569H41.5522C42.9978 3.98569 43.8109 4.66052 44.1038 5.51777C44.2976 6.10539 44.1734 6.87677 43.8528 7.40194C43.3281 8.27021 42.3313 8.45498 41.3408 8.45498Z" fill="#7C7D7D"/>
<path d="M22.1887 0.247803C16.9192 0.247803 13.3276 3.96316 13.3276 8.46002C13.3276 13.1941 17.2951 16.5361 22.1887 16.5361C27.0791 16.5361 31.0449 13.2418 31.0449 8.46002C31.0449 3.96316 27.4089 0.247803 22.1887 0.247803ZM22.1255 14.9233C18.4798 14.9233 15.4759 11.9936 15.4759 8.46441C15.4759 4.94002 18.338 1.87001 22.2668 1.87001C26.0983 1.87001 28.9147 4.94002 28.9147 8.46441C28.9147 11.9935 25.7696 14.9233 22.1255 14.9233Z" fill="#7C7D7D"/>
<path d="M8.62622 7.0441H9.97319L12.4181 2.44788H10.4506L8.62622 7.0441Z" fill="#7C7D7D"/>
<path d="M2.04114 14.0212V2.44788H0.224365V15.4402H11.9677V14.0212H2.04114Z" fill="#7C7D7D"/>
</svg>
