<svg id="Layer_1" data-name="Layer 1" xmlns="http://www.w3.org/2000/svg" viewBox="0 0 143.8 30"><defs><style>.cls-1{fill:#415866;}.cls-2{fill:#006ea1;}</style></defs><polygon class="cls-1" points="33.5 2.5 37.8 2.5 40.8 11 40.8 11 43.8 2.5 48 2.5 48 15.6 45.2 15.6 45.2 5.5 45.2 5.5 41.8 15.6 39.6 15.6 36.4 5.5 36.3 5.5 36.3 15.6 33.5 15.6 33.5 2.5"/><path class="cls-1" d="M55.9,2.5h2.3l5.6,13.1H60.6l-1.1-2.8h-5l-1.1,2.8H50.3ZM57,6.3l-1.6,4.1h3.1Z" transform="translate(0)"/><path class="cls-1" d="M74.1,5.9a3,3,0,0,0-2.4-1.1C69.6,4.8,68,6.6,68,9s1.6,4.2,3.6,4.2a3.19,3.19,0,0,0,2.7-1.4l2.4,1.8a5.78,5.78,0,0,1-4.6,2.3A6.56,6.56,0,0,1,65.2,9C65,4.8,68,2.2,72,2.2a5.37,5.37,0,0,1,4.3,1.9Zm5.2-3.4H88V5.2H82.1V7.6h5.6v2.7H82.1V13h6.2v2.7H79.2V2.5Zm12.3,0h5c2.6,0,4.8.9,4.8,4a3.47,3.47,0,0,1-2.8,3.6l3.3,5.5H98.5l-2.7-5.2H94.4v5.2H91.6Zm2.8,5.4h1.7c1,0,2.4,0,2.4-1.5,0-1.3-1.2-1.5-2.2-1.5H94.4Zm9.9-5.4h2.8V15.6h-2.8Zm14.8,3.4a3,3,0,0,0-2.4-1.1c-2.1,0-3.7,1.8-3.7,4.2s1.6,4.2,3.6,4.2a3.19,3.19,0,0,0,2.7-1.4l2.4,1.8a5.82,5.82,0,0,1-4.7,2.3A6.56,6.56,0,0,1,110.1,9,6.56,6.56,0,0,1,117,2.1,5.37,5.37,0,0,1,121.3,4Zm5-3.4h2.8V7.4h5.5V2.5h2.8V15.6h-2.8V9.9h-5.5v5.6h-2.8Z" transform="translate(0)"/><path class="cls-2" d="M16.5,2.3H10.2C12.1,19.7,25.5,27.3,30,30H43.2C26.8,24,15.9,12.8,16.5,2.3" transform="translate(0)"/><path class="cls-2" d="M14.6,22.7a33.9,33.9,0,0,1-3.4-5.3A35.88,35.88,0,0,1,9.5,14,35.67,35.67,0,0,1,6.7,2.3H2.6C4,20.6,12.1,28.2,14.4,30h7.3a41,41,0,0,1-7.1-7.3" transform="translate(0)"/><path class="cls-2" d="M.6,8.7C-.3,12.3-.8,20,3.8,30H9.7A28.36,28.36,0,0,1,.6,8.7" transform="translate(0)"/><path class="cls-1" d="M141.3,0a2.48,2.48,0,0,1,2.5,2.5,2.5,2.5,0,0,1-5,0A2.48,2.48,0,0,1,141.3,0Zm0,4.6a2.1,2.1,0,0,0,0-4.2,2.05,2.05,0,0,0-2.1,2.1A2.05,2.05,0,0,0,141.3,4.6Zm-1-3.5h1.1c.7,0,1,.3,1,.9a.77.77,0,0,1-.7.8l.8,1.2H142l-.7-1.2h-.4V4h-.5V1.1Zm.5,1.2h.4c.3,0,.7,0,.7-.4s-.4-.4-.7-.4h-.4Z" transform="translate(0)"/></svg>