<?xml version="1.0" encoding="utf-8"?>
<!-- Generator: Adobe Illustrator 23.0.6, SVG Export Plug-In . SVG Version: 6.00 Build 0)  -->
<svg version="1.1" id="Layer_1" xmlns="http://www.w3.org/2000/svg" xmlns:xlink="http://www.w3.org/1999/xlink" x="0px" y="0px"
	 viewBox="0 0 43 41" style="enable-background:new 0 0 43 41;" xml:space="preserve">
<style type="text/css">
	.st0{fill:#FFFFFF;}
	.st1{fill-rule:evenodd;clip-rule:evenodd;fill:#FFFFFF;}
</style>
<path class="st0" d="M29.3,38.6h2.5c0,0,1.1,0,1.1-1.6c0-1.7-1.1-1.7-1.1-1.7h-2.5V38.6z M13.6,37.5c-0.3,0-0.5,0.2-0.5,0.5
	s0.2,0.5,0.5,0.5l2.9,0v-1.1L13.6,37.5z M37.5,37.5c-0.3,0-0.5,0.2-0.5,0.5s0.2,0.5,0.5,0.5l2.9,0v-1.1L37.5,37.5z M36.5,36.1l4,0
	c0-0.4,0-1-0.9-1c-0.9,0-4.1,0-4.1,0v-1.7c0,0,3.1,0,5,0c1.2,0,2.2,0.5,2.2,1.9l0,5h-6.1l0.1,0c-0.8,0-1.5-0.7-1.7-1.6
	c-0.5,1.6-1.9,1.6-2.9,1.6l-4.9,0V35l-7,5.4h-7.5l0.1,0c-0.7,0-1.3-0.5-1.6-1.2l0,1.1H8.9v-4.4c0,0,0-0.6-0.7-0.6H6.7v5H4.5v-5H2.3
	v5H0.1l0-6.9l9,0c1,0,2,0.6,2,1.9l0,1.9c0.3-0.7,0.9-1.1,1.5-1.1l-0.1,0h4c0-0.4,0-1-0.9-1c-0.9,0-4.1,0-4.1,0v-1.7c0,0,3.1,0,5,0
	c1.2,0,2.2,0.5,2.2,1.9l0,3.4l7-5.3H27h5c1.3,0,3.1,0,3.1,3.4l0,0.1C35.4,36.5,36,36.1,36.5,36.1L36.5,36.1L36.5,36.1z M19.4,33.5h5
	l-2.2,1.9h-2.8L19.4,33.5L19.4,33.5z M26.4,40.4h-5l2.2-1.9h2.8L26.4,40.4"/>
<path class="st1" d="M9.8,24.9c-1-0.6-1.4-1.5-3-2.1c-1.6-2.1-2.2-4.6-2.2-7.2c0-1.9,0.3-3.8,0.8-5.4l1.6,3.2C7,14,7,14.8,7,15.6
	c0,10.5,7,12.6,14.3,12.6c7.4,0,14.3-2.1,14.3-12.6c0-1.1-0.1-2.1-0.2-3l1.1-2.3c1.6,3.9,1.3,10.7-2.5,13.1c-0.6,1-1.2,1.7-2.1,2.4
	c-3.3,2.6-8,2.9-12,2.8c-3.4-0.1-7.1-0.8-9.7-3.2L9.8,24.9z M5.5,6L5.3,5.8c-1.9,2.3-3.1,5.4-3.1,9.8C2.2,28.9,13,31,21.3,31
	c8.2,0,19.1-2.1,19.1-15.4c0-4.4-1.2-7.5-3.1-9.8h0L37.1,6c0,1.2-0.2,2.4-0.4,3.5c0.8,1.8,1.2,3.9,1.3,6.1
	c0.1,6.6-3.2,13.5-16.6,13.9c-8.4-0.1-13.7-2.7-15.9-8.1c-1.4-0.9-2.1-2.6-2.8-4.2C2.3,13.8,2.8,10,4.7,7l0.4-0.6
	c0.2,1.1,0.4,2.6,0.7,2.9c4.3,3.6,11.8,3.1,15.4,10.3c3.9-8,10.9-7,15.1-10.6l0.4-3.4C31.8,11,25,9.2,21.2,17.3
	C17.2,9.4,10.5,11.3,5.5,6z M8.8,7.9C11.4,4,16.3,3,21.3,3c4.9,0,9.7,0.9,12.3,4.8l3.1-2.3l0,0l0.2-0.1C33,1.1,26.6,0.2,21.3,0.2
	c-5.4,0-12,0.9-15.8,5.4l0.1,0.1l0,0l0.2,0.1l0,0c0.8,0.8,1.7,1.7,2.7,2.1C8.5,8,8.7,8,8.8,7.9L8.8,7.9z M36.4,5.3L35,6.1
	c-4.1-3.6-8.5-4.5-13.7-4.5c-5.3,0-9.9,0.9-14,4.8L5.9,5.5C7.4,4,9,2.9,11,2.2c4.3-1.7,10.5-2,15.1-1.4c3.7,0.5,7.5,1.7,10.2,4.3
	L36.4,5.3z M21.2,22.1c-1.8-3.8-3.7-5.5-6.6-6.7v0l-7.4-2.5l-1-2.8c1.8,1.4,4.5,2.3,7,3.3c3.9,1.5,6,3.4,8,7.3h0V22.1z M21.2,22.1
	c1.8-3.8,3.7-5.7,6.6-6.9l7.3-2.6l1-2.7c-1.8,1.4-4.7,2.4-7.2,3.4c-3.9,1.5-5.8,3.6-7.7,7.5h0V22.1z M34.1,10.2
	c0.6-0.3,1.2-0.6,1.7-1l0.3-0.2l0.3-2.5c-2.4,2.2-4.7,3-7.7,4.3h0c-0.4,0.2-1.6,0.7-2,1c-1.2,1-1.8,2-2.1,3.1c1.5-1.2,3.2-2,5-2.8
	C31.1,11.4,32.6,10.9,34.1,10.2z M25.3,12.6c-0.3,0.2-1.3,1.1-1.5,1.4c-0.4,0.8-0.6,1.5-0.6,2.2l0,0l0.8-0.9l0.2-0.2
	C24.3,14.3,24.7,13.5,25.3,12.6L25.3,12.6z M14.6,11.4c-1-0.5-2.6-1.1-3.7-1.5c-2.2-1-3.8-1.8-5.5-3.5c0.1,0.4,0.1,0.9,0.2,1.3
	C5.7,8,5.8,8.9,6.1,9.1c0.3,0.3,1.3,0.9,1.7,1.1c1.8,1,3.8,1.6,5.6,2.4v0c1.2,0.5,2.4,1.1,3.5,1.8C16.2,13.4,15.5,12.4,14.6,11.4
	L14.6,11.4z"/>
</svg>
