<svg width="43" height="41" viewBox="0 0 43 41" fill="none" xmlns="http://www.w3.org/2000/svg">
<path d="M29.2906 38.6127H31.8139C31.8139 38.6127 32.9167 38.604 32.9167 36.9633C32.9167 35.289 31.8139 35.2865 31.8139 35.2865H29.2906V38.6127ZM13.5503 37.4932C13.2819 37.4932 13.0642 37.7291 13.0642 38.02C13.0642 38.3109 13.2817 38.5466 13.5503 38.5466L16.4926 38.5461V37.4936L13.5503 37.4932ZM37.4966 37.4934C37.2282 37.4934 37.0105 37.7291 37.0105 38.02C37.0105 38.3109 37.228 38.5467 37.4966 38.5467L40.439 38.5462V37.4936L37.4966 37.4934ZM36.4691 36.1331L40.4817 36.1332C40.4823 35.7624 40.4553 35.1753 39.5387 35.1749C38.592 35.1744 35.4231 35.1749 35.4231 35.1749V33.5032C35.4231 33.5032 38.4827 33.5039 40.439 33.5036C41.6605 33.5034 42.6259 33.9756 42.626 35.3597L42.6252 40.3696H36.4827L36.5527 40.3739C35.7393 40.3739 35.0553 39.6947 34.8634 38.7766C34.3165 40.3693 32.994 40.3687 31.971 40.3663L27.0262 40.3664V34.9877L20.0682 40.3694H12.5364L12.6064 40.3737C11.9309 40.3737 11.3445 39.9053 11.0553 39.2205L11.0544 40.3693H8.90525V35.9499C8.90525 35.9499 8.89851 35.3612 8.23902 35.3598H6.65022V40.3693H4.52412V35.3598H2.29469V40.3693H0.0908203L0.0953216 33.5031L9.06651 33.5028C10.0566 33.5028 11.0589 34.1194 11.0589 35.3598L11.0581 37.2795C11.3477 36.5971 11.9323 36.1306 12.6064 36.1306L12.5243 36.1323H16.5369C16.5374 35.7615 16.5103 35.1746 15.5938 35.1741C14.6471 35.1737 11.4783 35.1741 11.4783 35.1741V33.5023C11.4783 33.5023 14.5378 33.503 16.494 33.5027C17.7156 33.5024 18.6811 33.9747 18.6811 35.3588L18.6805 38.8045L25.7065 33.5023H27.0274H31.9894C33.295 33.5023 35.1185 33.5024 35.1185 36.9253L35.1177 37.0487C35.4319 36.4938 35.9574 36.1301 36.5527 36.1301L36.4705 36.1318L36.4691 36.1331ZM19.4497 33.5031H24.4648L22.2441 35.36H19.4483L19.4501 33.5031H19.4497ZM26.3747 40.3642H21.3596L23.5804 38.5075H26.3761L26.3743 40.3642" fill="#7D7D7D"/>
<path fill-rule="evenodd" clip-rule="evenodd" d="M9.81103 24.9343C8.76714 24.2923 8.4348 23.4776 6.84847 22.824C5.26833 20.7541 4.65535 18.1789 4.6556 15.6023C4.6556 13.7216 4.9825 11.8403 5.49776 10.1538L7.09102 13.3254C6.99577 14.0303 6.95365 14.7946 6.95365 15.609C6.95365 26.1183 13.9251 28.2387 21.2784 28.2147C28.6318 28.2385 35.6033 26.1184 35.6033 15.609C35.6034 14.5308 35.5299 13.5402 35.39 12.632L36.5297 10.2863C38.0989 14.1919 37.7922 20.9493 34.0179 23.342C33.372 24.3019 32.7864 25.0126 31.8711 25.735C28.6098 28.309 23.8861 28.6381 19.895 28.4897C16.5416 28.3649 12.7626 27.679 10.2062 25.3298L9.81103 24.9343ZM5.50429 6.00958L5.28541 5.79129C3.40802 8.06794 2.22656 11.2324 2.22656 15.609C2.22656 28.8593 13.0418 31.008 21.2785 31.008C29.5153 31.0079 40.3305 28.8593 40.3305 15.609C40.3306 11.2327 39.1491 8.06801 37.2718 5.79142H37.2719L37.0536 6.00247C37.0135 7.16071 36.8136 8.3606 36.6469 9.49364C37.4691 11.2655 37.8578 13.3707 37.9134 15.6088C38.0339 22.1909 34.6886 29.1063 21.2785 29.5564C12.8483 29.4901 7.55066 26.8903 5.38622 21.4579C3.95309 20.5469 3.25324 18.8696 2.58897 17.2417C2.32196 13.8112 2.81663 9.95717 4.7448 7.02725L5.1547 6.45593C5.31098 7.57217 5.50484 9.05373 5.8501 9.33782C10.1166 12.9201 17.6254 12.4582 21.2384 19.6779C25.1647 11.6716 32.0967 12.6831 36.3631 9.10081L36.7601 5.66948C31.7849 11.0477 25.0228 9.22348 21.2384 17.2676C17.1608 9.3702 10.4919 11.3191 5.50429 6.00958ZM8.84695 7.93141C11.4061 3.97204 16.253 2.98677 21.2785 3.00312C26.2188 2.98585 30.9869 3.93889 33.5896 7.77771L36.668 5.44684L36.6673 5.44591L36.8497 5.30776C32.9866 1.10734 26.5961 0.210083 21.2783 0.210083C15.8486 0.210061 9.30015 1.14519 5.46642 5.57695L5.53872 5.63587L5.538 5.6364L5.69767 5.76532L5.69802 5.76505C6.52536 6.57484 7.44004 7.42512 8.36789 7.91111C8.51787 7.97677 8.68721 8.00336 8.84685 7.93273L8.84695 7.93141ZM36.3851 5.25227L34.9971 6.12387C30.8823 2.50456 26.4983 1.61983 21.2785 1.65577C16.0046 1.6197 11.3776 2.55854 7.31674 6.42153L5.89401 5.54953C7.35928 3.98916 8.98539 2.94068 10.9716 2.1509C15.3041 0.428027 21.4542 0.197966 26.0581 0.790758C29.7453 1.26552 33.5673 2.44338 36.2652 5.12466L36.3851 5.25227ZM21.2385 22.1153C19.4774 18.3362 17.5541 16.6296 14.6149 15.4105V15.4103L7.25984 12.9317L6.24398 10.1278C8.05444 11.5155 10.7182 12.4566 13.2605 13.4383C17.1792 14.9354 19.3104 16.8389 21.2384 20.7337H21.2385V22.1153ZM21.2385 22.1153C22.9995 18.3362 24.9229 16.3856 27.862 15.1666L35.1359 12.5659L36.1471 9.8518C34.3365 11.2396 31.4743 12.2941 28.9321 13.2757C25.0132 14.7729 23.1664 16.8389 21.2384 20.7337H21.2385V22.1153ZM34.0574 10.2308C34.6531 9.91889 35.2387 9.5904 35.7779 9.1861L36.0821 8.94433L36.3666 6.48638C33.9915 8.679 31.636 9.46639 28.6724 10.7408H28.6725C28.2362 10.9423 27.0765 11.4499 26.6822 11.7213C25.4786 12.7469 24.8761 13.7412 24.6296 14.7921C26.1564 13.5495 27.7807 12.7543 29.5994 12.029C31.0933 11.4331 32.6081 10.9255 34.0574 10.2308ZM25.2655 12.6417C24.9377 12.8761 23.9541 13.7104 23.7415 14.0134C23.322 14.8038 23.136 15.5273 23.1545 16.2275H23.1545L23.9829 15.361L24.1928 15.1717C24.3099 14.3386 24.6678 13.5042 25.2654 12.6418L25.2655 12.6417ZM14.6373 11.3966C13.5979 10.8896 12.0558 10.3306 10.9579 9.88317C8.72318 8.91056 7.17814 8.1224 5.43532 6.36484C5.4977 6.79427 5.56142 7.22222 5.62988 7.64905C5.69316 7.99811 5.8125 8.871 6.06438 9.12849C6.35974 9.4304 7.33904 10.0362 7.73303 10.2553C9.49258 11.234 11.5134 11.8922 13.3663 12.6435V12.6434C14.5694 13.1637 15.751 13.7001 16.8585 14.406C16.2379 13.3745 15.4539 12.3844 14.6376 11.3966H14.6373Z" fill="#7C7D7D"/>
</svg>
