<svg id="Layer_1" data-name="Layer 1" xmlns="http://www.w3.org/2000/svg" viewBox="0 0 2037.02 1397.76"><defs><style>.cls-1{fill:#e8ae30;}.cls-1,.cls-2{fill-rule:evenodd;}.cls-2{fill:#c23c40;}</style></defs><path class="cls-1" d="M1190.79,1421.75c31.19-502.42,119.29-763.56,217.06-763.53,86.37,0,197.57,325.88,249.91,763.53h192c-87-476.73-278.18-899-447.33-899-195,0-297.26,413.63-328.27,643-31.27-229.4-133.55-642.91-328.27-643-228-.09-494.85,764.13-495,1397.77H460.75c0-663.9,162.54-1262.32,279.34-1262.32,98.3,0,186.09,261.12,217.13,763.53Z" transform="translate(-250.82 -522.77)"/><path class="cls-1" d="M967.26,1666.11q1.88,83.85,1.89,174.46H1178.8q0-90.6,1.9-174.46Z" transform="translate(-250.82 -522.77)"/><path class="cls-1" d="M1679.72,1666.11c5,82.92,7.79,168.12,7.79,254.43h210c0-83.22-4.61-168.71-13.15-254.43Z" transform="translate(-250.82 -522.77)"/><path class="cls-2" d="M1806.36,1441.41h60.86v200.17h-60.86Zm284.64,0h41.41L2118.35,1496h-30.11l2.76-54.55Zm112.82,29.65c40.48,0,78.51,10.22,78.7,50h-57.8c0-13.7-8-19.91-21.48-19.91-8,0-18.82,3.32-18.79,15.87,0,20.81,32.9,16.66,60.86,25,25.11,7.44,42.53,22.42,42.53,46.61,0,37-29.08,57.56-84,57.78-57.6.23-79.26-20.53-79.47-57.78h58.57c0,14.07,8.75,22.42,21.08,22.42,14.8,0,21.48-5.61,21.48-16,0-21.77-40.35-21.21-64.14-29-16.18-5.29-30.9-17.29-30.9-42.77,0-21.3,16-52.1,73.39-52.1ZM957.66,1580.92c-10.09,39.79-43.1,65.6-84.28,65.62-49.71,0-87.53-37.61-87.48-92.06s33.65-92,87.48-92c44.63,0,75.37,25.89,84.58,65.73l-57,0c-4.36-12-12.75-21.33-27.64-21.34-25.12,0-31.75,26.63-31.74,47.63s6.62,47.63,31.74,47.63c14.83,0,23.2-9.27,27.57-21.18ZM537.9,1441.43h72.69l31.65,118.25,31.64-118.25h72.75l31.79,205.09h-60l-15.84-119.85-32.78,119.85H614.66l-32.77-119.85L566,1646.52H506Zm932.44,102.1v98.09h-60.16V1466.74h60.16v13.65c15.23-11.85,29-18,60.2-18,33.91,0,61.23,22.66,61.25,46.45v132.74H1531.2v-96.27c0-16-14.3-29-29.87-29-20.07,0-30,17.73-31,27.2ZM2007,1484.08v-42.67h60.84V1641.6H2007v-9.72c-8,7.23-18.47,14.59-44.68,14.59-29.51,0-76.41-16.4-76.43-86.82s46.86-88.58,80.23-88.58c24.21,0,35.67,8.35,40.88,13Zm-63.12,75.56c0,27.37,12.71,44.86,33.64,44.86,12.54,0,23-5.47,29.5-16.87v-52.52c-3.24-11.59-14.48-20.14-29.5-20.15-21,0-33.64,17.31-33.64,44.68Zm-735.66-5.15c0-54.37,35.3-92,91.78-92.06s91.73,37.68,91.75,92.06-35.31,92-91.75,92S1208.19,1608.93,1208.24,1554.49Zm126.63,0c0-21-7.27-47.62-34.86-47.64s-34.87,26.63-34.87,47.64,7.27,47.63,34.87,47.63S1334.87,1575.5,1334.87,1554.49Zm-356-113.06H1083.4c65.4,0,110,40.63,110,102.54s-44.56,102.55-110,102.55H978.87V1441.43ZM1048,1598h31.61c20.48,0,45.41-12.49,45.41-54.07s-24.93-54.06-45.41-54.06H1048Zm652.29-135.58c43.16,0,78.75,15.85,81.54,50.7V1641.6H1721v-17.33c-14.8,12.68-29.51,22.18-56.14,22.18-31,0-56-24.5-56-53.23s17.7-60.65,88.5-60.63c18.26,0,23.58-7.19,23.61-15.74,0-10.5-12.12-16.38-22.24-16.38s-21.64,4.23-21.64,15.22h-57C1620,1489.91,1637.36,1462.52,1700.31,1462.46Zm-3.4,98.54c-14,0-27,7.5-27,21.87,0,9.3,5.5,17.33,19.86,17.33,13.74,0,28.39-8.15,31.21-25v-16c-4.66,2.53-15.15,1.84-24,1.84Z" transform="translate(-250.82 -522.77)"/><path class="cls-2" d="M1990.53,1784h37.4c18.49,0,30.83,9.94,30.83,23.06,0,12.14-9.36,20.09-20.87,21.09v.39c17.68,6,20.26,18.3,20.46,35h-16.69c-.61-20.09-5-28.85-22.67-28.85h-13.73v28.85h-14.73V1784Zm14.71,38h17.51c13.74,0,19.27-4.77,19.27-13.74,0-6.75-4.15-11.54-16.89-11.54h-19.89Zm15.92-65.63a68.28,68.28,0,0,1,68.41,68.16v.26a68.42,68.42,0,1,1-68.67-68.42Zm0,129.48a61.06,61.06,0,1,0-61.06-61.06A61.08,61.08,0,0,0,2021.16,1885.87Z" transform="translate(-250.82 -522.77)"/></svg>