<svg id="Layer_1" data-name="Layer 1" xmlns="http://www.w3.org/2000/svg" viewBox="0 0 129.13 28.83"><defs><style>.cls-1{fill:#fff;fill-rule:evenodd;}</style></defs><g id="Symbols"><g id="Navigation-_-Desktop-Header-White-Page" data-name="Navigation- -Desktop-Header-White-Page"><g id="Group"><g id="Menu"><g id="Logo-_-Logo-Mobilia" data-name="Logo- -Logo-Mobilia"><g id="Logo"><path id="Fill-1" class="cls-1" d="M6.18,12.94h.06a6.48,6.48,0,0,1,5.51-2.75,6.37,6.37,0,0,1,5.95,3.33,6.68,6.68,0,0,1,5.91-3.33c4.42,0,5.95,2.89,5.95,6.91V28.21H23.38V19.88c0-1.8.06-4.76-2.56-4.76-2.85,0-2.95,2.69-2.95,4.76v8.33H11.68V19.88c0-1.93,0-4.89-2.75-4.89s-2.75,3-2.75,4.89v8.33H0V10.78H6.18Z"/><path id="Fill-3" class="cls-1" d="M53.31,19.51c0,5.91-4.89,9.28-10.5,9.28s-10.5-3.33-10.5-9.28,4.9-9.32,10.5-9.32,10.5,3.37,10.5,9.32m-14.48,0a3.74,3.74,0,0,0,3.56,3.92h.44a3.73,3.73,0,0,0,4-3.47,2.14,2.14,0,0,0,0-.44,4,4,0,1,0-8,0"/><path id="Fill-5" class="cls-1" d="M55.89,0h6.19V12.47a7.2,7.2,0,0,1,5.4-2.28c5.16,0,8.74,4.28,8.74,9.28s-3.61,9.32-8.81,9.32a6.18,6.18,0,0,1-5.27-2.49h-.06v1.94H55.89Zm6,19.51a4,4,0,1,0,4-4A4,4,0,0,0,61.89,19.51Z"/><path id="Fill-7" class="cls-1" d="M85.83,4.08A3.47,3.47,0,1,1,82.36.61h0A3.48,3.48,0,0,1,85.83,4.08ZM79.27,28.21h6.19V10.78H79.27Z"/><polygon id="Fill-9" class="cls-1" points="89.53 28.21 95.72 28.21 95.72 0 89.53 0 89.53 28.21"/><path id="Fill-11" class="cls-1" d="M106.36,4.08A3.47,3.47,0,1,1,102.89.61a3.47,3.47,0,0,1,3.47,3.47ZM99.81,28.21H106V10.78H99.81Z"/><path id="Fill-12" class="cls-1" d="M129.13,28.21h-6.19V26.3h-.07a6.14,6.14,0,0,1-5.27,2.52c-5.16,0-8.8-4.32-8.8-9.32s3.57-9.28,8.74-9.28a7.13,7.13,0,0,1,5.4,2.28V10.78h6.19Zm-13.94-8.7a4,4,0,1,0,4-4A4,4,0,0,0,115.19,19.51Z"/></g></g></g></g></g></g></svg>