<svg width="73" height="20" viewBox="0 0 73 20" fill="none" xmlns="http://www.w3.org/2000/svg">
<path fill-rule="evenodd" clip-rule="evenodd" d="M57.1757 1.607C57.1757 1.04449 56.676 0.544312 56.0507 0.544312H54.4873C53.862 0.544312 53.3618 1.04449 53.3618 1.607L53.4246 18.3655C53.4246 18.928 53.862 19.4282 54.4873 19.4282H56.0507C56.676 19.4282 57.1757 18.928 57.1757 18.3655V1.607Z" fill="#7C7D7D"/>
<path fill-rule="evenodd" clip-rule="evenodd" d="M59.1777 2.10721V2.85771C59.1777 3.23224 59.4281 3.48257 59.8031 3.48257H70.8079C71.3085 3.48257 71.7459 3.0457 71.7459 2.54553V1.23154C71.7459 0.731367 71.3085 0.231195 70.8079 0.294501C70.8079 0.294501 60.1776 1.35719 59.8031 1.41953C59.4276 1.41953 59.1777 1.73172 59.1777 2.10721Z" fill="#7C7D7D"/>
<path fill-rule="evenodd" clip-rule="evenodd" d="M50.2355 19.4282C47.4843 19.4282 45.7958 17.3647 45.7958 15.0513V8.36008H44.9824C44.6074 8.36008 44.2319 7.98459 44.2319 7.60958V6.48358C44.2319 6.04671 44.6069 5.73308 44.9824 5.73308H45.7958V1.60651C45.7958 1.04399 46.2331 0.543823 46.8585 0.543823H48.4218C48.9843 0.543823 49.4222 1.04399 49.4222 1.60651V5.73308H51.8607C52.2985 5.73308 52.6112 6.04623 52.6112 6.48358V7.60958C52.6112 7.98411 52.299 8.36008 51.8607 8.36008H49.4222V14.5511C49.4222 15.7385 50.1727 16.6147 51.4857 16.6147H51.736C52.1738 16.6147 52.5493 16.9268 52.5493 17.4275V18.6158C52.5493 19.0537 52.1743 19.4287 51.736 19.4287H50.2355V19.4283V19.4282Z" fill="#7C7D7D"/>
<path fill-rule="evenodd" clip-rule="evenodd" d="M31.4761 12.3625C31.4761 8.79843 29.3502 5.23438 24.535 5.23438C20.0953 5.23438 17.6567 8.73512 17.6567 12.3625C17.6567 16.2387 20.2828 19.6786 24.5973 19.6786C27.5365 19.6786 30.4129 18.178 30.9754 15.6143C31.0377 15.3022 30.7879 14.8015 30.3501 14.8015H28.2242C27.8492 14.8015 27.5365 14.9885 27.3485 15.3017C26.7232 16.1769 25.848 16.6147 24.5973 16.6147C22.7213 16.6147 21.4706 15.176 21.3455 13.5508H30.2872C31.1011 13.5508 31.4761 13.113 31.4761 12.3625ZM21.4083 10.862C21.5335 9.29909 22.9088 8.11075 24.535 8.11075C26.2235 8.11075 27.5989 9.29909 27.7869 10.862H21.4083Z" fill="#7C7D7D"/>
<path fill-rule="evenodd" clip-rule="evenodd" d="M72.1211 12.3625C72.1211 8.79843 69.9952 5.23438 65.18 5.23438C60.7403 5.23438 58.3022 8.73512 58.3022 12.3625C58.3022 16.2387 60.9288 19.6786 65.2428 19.6786C68.182 19.6786 71.0579 18.178 71.6209 15.6143C71.6837 15.3022 71.4329 14.8015 70.9956 14.8015H68.8697C68.4947 14.8015 68.182 14.9885 67.994 15.3017C67.3687 16.1769 66.4935 16.6147 65.18 16.6147C63.3668 16.6147 62.1161 15.176 61.991 13.5508H70.9332C71.7461 13.5508 72.1211 13.113 72.1211 12.3625ZM62.0538 10.862C62.1785 9.29909 63.5538 8.11075 65.18 8.11075C66.8685 8.11075 68.2444 9.29909 68.3695 10.862H62.0538Z" fill="#7C7D7D"/>
<path fill-rule="evenodd" clip-rule="evenodd" d="M42.7941 0.731496H13.9048C13.2171 0.731496 12.7169 1.29498 12.7169 1.91983L12.7793 13.3011C12.7793 13.3011 6.58868 2.04548 6.27601 1.482C5.96382 0.919483 5.27566 0.419312 4.40048 0.419312H2.02428C1.3366 0.419312 0.836426 0.982793 0.836426 1.60765V18.2405C0.836426 18.9287 1.3366 19.4289 2.02428 19.4289H3.52481C4.21249 19.4289 4.71314 18.9287 4.71314 18.2405L4.6508 6.61036C4.6508 6.61036 10.9037 17.9283 11.2164 18.3662C11.5291 18.991 12.1544 19.4289 13.0296 19.4289H15.2183C15.906 19.4289 16.4061 18.9287 16.4061 18.2405V3.54649H42.7941C43.2314 3.54649 43.6069 3.171 43.6069 2.73364V1.54531C43.6069 1.10699 43.2319 0.731496 42.7941 0.731496Z" fill="#7C7D7D"/>
<path fill-rule="evenodd" clip-rule="evenodd" d="M38.1043 7.9846C39.355 7.9846 40.293 8.42244 40.6685 9.23528C40.7937 9.61078 41.1058 9.67312 41.5442 9.67312H43.295C43.5453 9.67312 43.9204 9.42279 43.9204 9.04826C43.9204 7.04708 41.4813 5.23389 38.1048 5.23389C34.6031 5.23389 32.2897 6.92143 32.2897 9.54844C32.2897 11.612 33.9154 12.8003 35.8538 13.3628C36.7918 13.5508 38.3551 13.9253 39.1051 14.1757C39.8557 14.3636 40.6057 14.6135 40.6057 15.3017C40.6057 16.4267 39.4802 16.7394 38.1671 16.7394C36.9788 16.7394 35.7909 16.2392 35.4783 15.364C35.2908 14.8638 34.9153 14.8015 34.4151 14.8015H32.6642C32.3516 14.8015 31.9766 15.1137 31.9766 15.4887V15.739C31.9766 17.6779 34.6031 19.6786 38.2295 19.6786C40.7308 19.6786 44.2954 18.6159 44.2954 15.2383C44.2954 13.2372 42.9819 11.8623 40.7937 11.2998C39.9803 11.1118 37.9796 10.5493 37.5418 10.486C36.7285 10.2356 35.9784 9.98579 35.9784 9.36093C35.9784 8.29824 36.9165 7.9846 38.1043 7.9846Z" fill="#7C7D7D"/>
</svg>
