<?xml version="1.0" encoding="utf-8"?>
<!-- Generator: Adobe Illustrator 23.0.6, SVG Export Plug-In . SVG Version: 6.00 Build 0)  -->
<svg version="1.1" id="Layer_1" xmlns="http://www.w3.org/2000/svg" xmlns:xlink="http://www.w3.org/1999/xlink" x="0px" y="0px"
	 viewBox="0 0 73 20" style="enable-background:new 0 0 73 20;" xml:space="preserve">
<style type="text/css">
	.st0{fill-rule:evenodd;clip-rule:evenodd;fill:#FFFFFF;}
</style>
<path class="st0" d="M57.2,1.6c0-0.6-0.5-1.1-1.1-1.1h-1.6c-0.6,0-1.1,0.5-1.1,1.1l0.1,16.8c0,0.6,0.4,1.1,1.1,1.1h1.6
	c0.6,0,1.1-0.5,1.1-1.1V1.6z"/>
<path class="st0" d="M59.2,2.1v0.8c0,0.4,0.3,0.6,0.6,0.6h11c0.5,0,0.9-0.4,0.9-0.9V1.2c0-0.5-0.4-1-0.9-0.9c0,0-10.6,1.1-11,1.1
	C59.4,1.4,59.2,1.7,59.2,2.1z"/>
<path class="st0" d="M50.2,19.4c-2.8,0-4.4-2.1-4.4-4.4V8.4H45c-0.4,0-0.8-0.4-0.8-0.8V6.5c0-0.4,0.4-0.8,0.8-0.8h0.8V1.6
	c0-0.6,0.4-1.1,1.1-1.1h1.6c0.6,0,1,0.5,1,1.1v4.1h2.4c0.4,0,0.8,0.3,0.8,0.8v1.1c0,0.4-0.3,0.8-0.8,0.8h-2.4v6.2
	c0,1.2,0.8,2.1,2.1,2.1h0.3c0.4,0,0.8,0.3,0.8,0.8v1.2c0,0.4-0.4,0.8-0.8,0.8L50.2,19.4L50.2,19.4L50.2,19.4z"/>
<path class="st0" d="M31.5,12.4c0-3.6-2.1-7.1-6.9-7.1c-4.4,0-6.9,3.5-6.9,7.1c0,3.9,2.6,7.3,6.9,7.3c2.9,0,5.8-1.5,6.4-4.1
	c0.1-0.3-0.2-0.8-0.6-0.8h-2.1c-0.4,0-0.7,0.2-0.9,0.5c-0.6,0.9-1.5,1.3-2.8,1.3c-1.9,0-3.1-1.4-3.3-3.1h8.9
	C31.1,13.6,31.5,13.1,31.5,12.4z M21.4,10.9c0.1-1.6,1.5-2.8,3.1-2.8c1.7,0,3.1,1.2,3.3,2.8H21.4z"/>
<path class="st0" d="M72.1,12.4c0-3.6-2.1-7.1-6.9-7.1c-4.4,0-6.9,3.5-6.9,7.1c0,3.9,2.6,7.3,6.9,7.3c2.9,0,5.8-1.5,6.4-4.1
	c0.1-0.3-0.2-0.8-0.6-0.8h-2.1c-0.4,0-0.7,0.2-0.9,0.5c-0.6,0.9-1.5,1.3-2.8,1.3c-1.8,0-3.1-1.4-3.2-3.1h8.9
	C71.7,13.6,72.1,13.1,72.1,12.4z M62.1,10.9c0.1-1.6,1.5-2.8,3.1-2.8c1.7,0,3.1,1.2,3.2,2.8H62.1z"/>
<path class="st0" d="M42.8,0.7H13.9c-0.7,0-1.2,0.6-1.2,1.2l0.1,11.4c0,0-6.2-11.3-6.5-11.8C6,0.9,5.3,0.4,4.4,0.4H2
	C1.3,0.4,0.8,1,0.8,1.6v16.6c0,0.7,0.5,1.2,1.2,1.2h1.5c0.7,0,1.2-0.5,1.2-1.2L4.7,6.6c0,0,6.3,11.3,6.6,11.8
	c0.3,0.6,0.9,1.1,1.8,1.1h2.2c0.7,0,1.2-0.5,1.2-1.2V3.5h26.4c0.4,0,0.8-0.4,0.8-0.8V1.5C43.6,1.1,43.2,0.7,42.8,0.7z"/>
<path class="st0" d="M38.1,8c1.3,0,2.2,0.4,2.6,1.3c0.1,0.4,0.4,0.4,0.9,0.4h1.8c0.3,0,0.6-0.3,0.6-0.6c0-2-2.4-3.8-5.8-3.8
	c-3.5,0-5.8,1.7-5.8,4.3c0,2.1,1.6,3.3,3.6,3.8c0.9,0.2,2.5,0.6,3.3,0.8c0.8,0.2,1.5,0.4,1.5,1.1c0,1.1-1.1,1.4-2.4,1.4
	c-1.2,0-2.4-0.5-2.7-1.4c-0.2-0.5-0.6-0.6-1.1-0.6h-1.8c-0.3,0-0.7,0.3-0.7,0.7v0.3c0,1.9,2.6,3.9,6.3,3.9c2.5,0,6.1-1.1,6.1-4.4
	c0-2-1.3-3.4-3.5-3.9c-0.8-0.2-2.8-0.8-3.3-0.8C36.7,10.2,36,10,36,9.4C36,8.3,36.9,8,38.1,8z"/>
</svg>
