<svg width="96" height="15" viewBox="0 0 96 15" fill="none" xmlns="http://www.w3.org/2000/svg">
<path d="M5.1251 4.63782C6.44156 4.63782 7.56331 5.10157 8.49015 6.02813C9.4169 6.94332 9.88056 8.06211 9.88056 9.3845V13.7502H6.27627V9.45529C6.27627 8.94768 6.16401 8.51364 5.93987 8.15354C5.71525 7.79373 5.44382 7.61326 5.1251 7.61326C4.81201 7.61326 4.54354 7.79373 4.31911 8.15354C4.09468 8.51364 3.98252 8.94768 3.98252 9.45529V13.7503H0.378418V9.3845C0.378418 8.06211 0.841888 6.94342 1.76883 6.02813C2.68975 5.10148 3.80844 4.63782 5.1251 4.63782Z" fill="#7C7D7D"/>
<path d="M13.3496 3.92069C12.9658 4.29856 12.768 4.57907 12.7562 4.76212V4.7798C12.7562 4.96888 12.9245 5.22865 13.261 5.55923L13.6595 5.95782C14.0137 6.31801 14.1908 6.749 14.1908 7.25059V13.7506H10.5512V7.2504C10.5512 6.7426 10.7283 6.31161 11.0825 5.95744L11.4899 5.55903C11.8204 5.22846 11.986 4.96553 11.986 4.77072V4.75305C11.9681 4.57582 11.7704 4.29846 11.3925 3.9206L10.9585 3.47767C10.563 3.08805 10.3652 2.61589 10.3652 2.0607C10.3652 1.50589 10.563 1.0364 10.9585 0.652611C11.3422 0.25707 11.8116 0.0592041 12.3667 0.0592041C12.9276 0.0592041 13.3997 0.254108 13.7836 0.643916C14.179 1.03353 14.3769 1.50579 14.3769 2.0607C14.3769 2.62162 14.179 3.09388 13.7836 3.47767L13.3496 3.92069Z" fill="#7C7D7D"/>
<path d="M20.2171 10.9159C20.3765 10.6147 20.4797 10.2607 20.5272 9.85333H24.1225C24.022 10.9926 23.5675 11.9608 22.7587 12.7579V12.767C21.8376 13.6935 20.7277 14.1571 19.429 14.1571H19.3848C18.08 14.1571 16.9672 13.6935 16.0462 12.767V12.7579C15.1193 11.843 14.6558 10.7329 14.6558 9.42827V9.38384C14.6558 8.07923 15.1191 6.96913 16.0462 6.05423C16.9671 5.12748 18.086 4.66382 19.4024 4.66382C20.7131 4.66382 21.8318 5.12748 22.7588 6.05423C23.5676 6.85725 24.022 7.82528 24.1226 8.95878H20.5271C20.4797 8.55139 20.3765 8.19722 20.217 7.89617C19.9868 7.48286 19.7151 7.2763 19.4022 7.2763C19.0894 7.2763 18.8207 7.48295 18.5965 7.89617C18.372 8.3155 18.2599 8.82005 18.2599 9.4105C18.2599 9.99492 18.372 10.4967 18.5965 10.9161C18.8207 11.3293 19.0894 11.5391 19.4022 11.5448C19.7152 11.539 19.9869 11.3292 20.2171 10.9159Z" fill="#7C7D7D"/>
<path d="M31.6764 9.78309L33.5007 12.5726C33.6542 12.8029 33.731 13.0096 33.731 13.1925C33.731 13.2693 33.7191 13.3402 33.6955 13.4051C33.6128 13.6353 33.4357 13.7504 33.1641 13.7504H30.1887L28.3112 10.8724V13.7416H24.707V6.43561C24.707 5.93956 24.8842 5.51459 25.2384 5.16014C25.5867 4.81189 26.0089 4.63762 26.5047 4.63762C27.0065 4.63762 27.4316 4.81189 27.7799 5.16014C28.1342 5.51459 28.3113 5.93947 28.3113 6.43561V8.38398L29.9409 5.47036C30.1946 5.03928 30.5636 4.76192 31.0477 4.63772C31.2073 4.59654 31.3636 4.57581 31.517 4.57581C31.83 4.57581 32.1281 4.65864 32.4116 4.82374C32.8424 5.08351 33.1199 5.45555 33.2439 5.93947C33.2851 6.0931 33.3058 6.24663 33.3058 6.39997C33.3058 6.71297 33.2202 7.01106 33.049 7.29443L31.6764 9.78309Z" fill="#7C7D7D"/>
<path d="M37.9398 4.66418C39.2328 4.66418 40.3485 5.13664 41.2873 6.08106C41.9251 6.7188 42.3059 7.54819 42.4297 8.56953C42.4592 8.81746 42.4739 9.04771 42.4739 9.26039C42.4739 9.49647 42.4563 9.70905 42.4209 9.89803H36.833C36.8803 10.2698 36.9805 10.5947 37.1341 10.8724C37.3586 11.2855 37.627 11.495 37.9401 11.5011C38.2589 11.5011 38.5569 11.3152 38.8345 10.9431C38.9703 10.7544 39.0763 10.5654 39.153 10.3764H42.3677C42.3322 11.1911 41.9837 11.9763 41.3226 12.7321C40.384 13.6767 39.2651 14.1491 37.9666 14.1491C36.6381 14.1491 35.5104 13.6854 34.5835 12.7586C33.6567 11.8376 33.1934 10.7191 33.1934 9.40246C33.1934 8.09173 33.6567 6.97313 34.5835 6.04638C35.5104 5.1246 36.6293 4.66418 37.9398 4.66418ZM38.985 8.56074C38.9199 8.2594 38.8433 8.02924 38.7546 7.86978C38.5184 7.44491 38.2469 7.23214 37.9399 7.23214C37.5975 7.23214 37.3289 7.43899 37.1341 7.85201C37.0338 8.06459 36.954 8.30087 36.8949 8.56045L38.985 8.56074Z" fill="#7C7D7D"/>
<path d="M44.6743 0.0506592C45.1759 0.0506592 45.6009 0.227793 45.9495 0.582059C46.3037 0.930403 46.4809 1.35556 46.4809 1.85753V13.7505H42.8765V1.85734C42.8765 1.35556 43.0505 0.930403 43.399 0.581964C43.7533 0.227793 44.1783 0.0506592 44.6743 0.0506592Z" fill="#7C7D7D"/>
<path d="M55.0854 6.03646C56.0121 6.9635 56.4757 8.08248 56.4757 9.39282C56.4757 10.7093 56.0121 11.8312 55.0854 12.7579C55.0555 12.7877 54.9997 12.8406 54.9169 12.9174C54.8462 12.9824 54.811 13.0179 54.811 13.0235C53.9194 13.7734 52.8951 14.1485 51.738 14.1485H51.6937C50.5425 14.1485 49.5241 13.7703 48.6386 13.0149C48.5795 12.9794 48.4851 12.8939 48.3552 12.7581C47.4284 11.8313 46.9648 10.7095 46.9648 9.39292C46.9648 8.08238 47.4284 6.96369 48.3552 6.03665C49.282 5.10398 50.4035 4.63745 51.7205 4.63745C53.0368 4.63736 54.1585 5.10379 55.0854 6.03646ZM52.5261 10.9072C52.7561 10.4881 52.8715 9.98356 52.8715 9.39292C52.8715 8.80849 52.7561 8.30662 52.5261 7.88738C52.3014 7.46815 52.0332 7.25862 51.7202 7.25862C51.4071 7.25862 51.1358 7.46815 50.9055 7.88738C50.6871 8.31254 50.5777 8.81423 50.5777 9.39292C50.5777 9.97734 50.6871 10.4821 50.9055 10.9072C51.1358 11.3268 51.4071 11.536 51.7202 11.536C52.0332 11.536 52.3016 11.3264 52.5261 10.9072Z" fill="#7C7D7D"/>
<path d="M64.9652 12.767C64.044 13.6937 62.9251 14.1573 61.6088 14.1573C60.2923 14.1573 59.1736 13.6937 58.2527 12.767C57.3259 11.8402 56.8623 10.7211 56.8623 9.41066C56.8623 8.10021 57.3259 6.98143 58.2527 6.05448C59.1737 5.12774 60.2923 4.66407 61.6088 4.66407C61.9982 4.66407 62.3791 4.71165 62.7513 4.80605V1.85679C62.7513 1.355 62.9283 0.930036 63.2826 0.581407C63.6367 0.227426 64.0617 0.050293 64.5578 0.050293C65.0538 0.050293 65.4786 0.227426 65.8331 0.581502C66.1814 0.930036 66.3582 1.35204 66.3644 1.8479V9.41056C66.3643 10.7213 65.8977 11.8401 64.9652 12.767ZM61.6088 11.545C61.9216 11.545 62.1903 11.3356 62.4147 10.9162C62.6389 10.5031 62.7513 9.99823 62.7513 9.40177C62.7513 8.81152 62.6388 8.30964 62.4147 7.89633C62.19 7.47709 61.9217 7.26757 61.6088 7.26757C61.2899 7.26757 61.0214 7.47709 60.803 7.89633C60.5784 8.30964 60.4664 8.81142 60.4664 9.40177C60.4664 9.99212 60.5785 10.4969 60.803 10.9162C61.0214 11.3353 61.29 11.545 61.6088 11.545Z" fill="#7C7D7D"/>
<path d="M71.5227 4.66418C72.8158 4.66418 73.9315 5.13664 74.8702 6.08106C75.5081 6.7188 75.8886 7.54819 76.0125 8.56953C76.042 8.81746 76.0567 9.04771 76.0567 9.26039C76.0567 9.49647 76.0391 9.70905 76.0037 9.89803H70.4158C70.4629 10.2698 70.5632 10.5947 70.7169 10.8724C70.9414 11.2855 71.2098 11.495 71.5227 11.5011C71.8415 11.5011 72.1397 11.3152 72.4172 10.9431C72.5528 10.7544 72.6591 10.5654 72.7356 10.3764H75.9505C75.9151 11.1911 75.5663 11.9763 74.9055 12.7321C73.9669 13.6767 72.8478 14.1491 71.5491 14.1491C70.2209 14.1491 69.0932 13.6854 68.1663 12.7586C67.2394 11.8376 66.7759 10.7191 66.7759 9.40246C66.7759 8.09173 67.2394 6.97313 68.1663 6.04638C69.0932 5.1246 70.212 4.66418 71.5227 4.66418ZM72.5678 8.56074C72.5027 8.2594 72.4259 8.02924 72.3375 7.86978C72.1012 7.44491 71.8296 7.23214 71.5228 7.23214C71.1802 7.23214 70.9118 7.43899 70.717 7.85201C70.6163 8.06459 70.5368 8.30087 70.4778 8.56045L72.5678 8.56074Z" fill="#7C7D7D"/>
<path d="M84.627 6.03646C85.5539 6.9635 86.0174 8.08248 86.0174 9.39282C86.0174 10.7093 85.5539 11.8312 84.627 12.7579C84.5974 12.7877 84.5413 12.8406 84.4587 12.9174C84.3876 12.9824 84.3526 13.0179 84.3526 13.0235C83.4612 13.7734 82.4362 14.1485 81.2798 14.1485H81.2354C80.0842 14.1485 79.0658 13.7703 78.1801 13.0149C78.1211 12.9794 78.0267 12.8939 77.8969 12.7581C76.9698 11.8313 76.5063 10.7095 76.5063 9.39292C76.5063 8.08238 76.9698 6.96369 77.8969 6.03665C78.8233 5.10398 79.9455 4.63745 81.2619 4.63745C82.5784 4.63736 83.7001 5.10379 84.627 6.03646ZM82.0677 10.9072C82.298 10.4881 82.4131 9.98356 82.4131 9.39292C82.4131 8.80849 82.298 8.30662 82.0677 7.88738C81.8432 7.46815 81.5748 7.25862 81.2618 7.25862C80.949 7.25862 80.6772 7.46815 80.4471 7.88738C80.2286 8.31254 80.1195 8.81423 80.1195 9.39292C80.1195 9.97734 80.2286 10.4821 80.4471 10.9072C80.6772 11.3268 80.949 11.536 81.2618 11.536C81.5745 11.536 81.8432 11.3264 82.0677 10.9072Z" fill="#7C7D7D"/>
<path d="M91.185 4.63782C92.5012 4.63782 93.6231 5.10157 94.55 6.02813C95.477 6.94332 95.9404 8.06211 95.9404 9.3845V13.7502H92.3362V9.45529C92.3362 8.94768 92.224 8.51364 91.9997 8.15354C91.7752 7.79373 91.5038 7.61326 91.1851 7.61326C90.8721 7.61326 90.6035 7.79373 90.3792 8.15354C90.1546 8.51364 90.0427 8.94768 90.0427 9.45529V13.7503H86.4385V9.3845C86.4385 8.06211 86.9019 6.94323 87.8288 6.02813C88.7494 5.10148 89.8682 4.63782 91.185 4.63782Z" fill="#7C7D7D"/>
</svg>
