<?xml version="1.0" encoding="utf-8"?>
<!-- Generator: Adobe Illustrator 23.0.6, SVG Export Plug-In . SVG Version: 6.00 Build 0)  -->
<svg version="1.1" id="Layer_1" xmlns="http://www.w3.org/2000/svg" xmlns:xlink="http://www.w3.org/1999/xlink" x="0px" y="0px"
	 viewBox="0 0 96 15" style="enable-background:new 0 0 96 15;" xml:space="preserve">
<style type="text/css">
	.st0{fill:#FFFFFF;}
</style>
<path class="st0" d="M5.1,4.6c1.3,0,2.4,0.5,3.4,1.4c0.9,0.9,1.4,2,1.4,3.4v4.4H6.3V9.5c0-0.5-0.1-0.9-0.3-1.3
	C5.7,7.8,5.4,7.6,5.1,7.6c-0.3,0-0.6,0.2-0.8,0.5C4.1,8.5,4,8.9,4,9.5v4.3H0.4V9.4c0-1.3,0.5-2.4,1.4-3.4C2.7,5.1,3.8,4.6,5.1,4.6z"
	/>
<path class="st0" d="M13.3,3.9c-0.4,0.4-0.6,0.7-0.6,0.8v0c0,0.2,0.2,0.4,0.5,0.8L13.7,6c0.4,0.4,0.5,0.8,0.5,1.3v6.5h-3.6V7.3
	c0-0.5,0.2-0.9,0.5-1.3l0.4-0.4C11.8,5.2,12,5,12,4.8v0c0-0.2-0.2-0.5-0.6-0.8L11,3.5c-0.4-0.4-0.6-0.9-0.6-1.4c0-0.6,0.2-1,0.6-1.4
	c0.4-0.4,0.9-0.6,1.4-0.6c0.6,0,1,0.2,1.4,0.6c0.4,0.4,0.6,0.9,0.6,1.4c0,0.6-0.2,1-0.6,1.4L13.3,3.9z"/>
<path class="st0" d="M20.2,10.9c0.2-0.3,0.3-0.7,0.3-1.1h3.6C24,11,23.6,12,22.8,12.8v0c-0.9,0.9-2,1.4-3.3,1.4h0
	c-1.3,0-2.4-0.5-3.3-1.4v0c-0.9-0.9-1.4-2-1.4-3.3v0c0-1.3,0.5-2.4,1.4-3.3c0.9-0.9,2-1.4,3.4-1.4c1.3,0,2.4,0.5,3.4,1.4
	C23.6,6.9,24,7.8,24.1,9h-3.6c0-0.4-0.2-0.8-0.3-1.1c-0.2-0.4-0.5-0.6-0.8-0.6c-0.3,0-0.6,0.2-0.8,0.6c-0.2,0.4-0.3,0.9-0.3,1.5
	c0,0.6,0.1,1.1,0.3,1.5c0.2,0.4,0.5,0.6,0.8,0.6C19.7,11.5,20,11.3,20.2,10.9z"/>
<path class="st0" d="M31.7,9.8l1.8,2.8c0.2,0.2,0.2,0.4,0.2,0.6c0,0.1,0,0.1,0,0.2c-0.1,0.2-0.3,0.3-0.5,0.3h-3l-1.9-2.9v2.9h-3.6
	V6.4c0-0.5,0.2-0.9,0.5-1.3c0.3-0.3,0.8-0.5,1.3-0.5c0.5,0,0.9,0.2,1.3,0.5c0.4,0.4,0.5,0.8,0.5,1.3v1.9l1.6-2.9
	C30.2,5,30.6,4.8,31,4.6c0.2,0,0.3-0.1,0.5-0.1c0.3,0,0.6,0.1,0.9,0.2c0.4,0.3,0.7,0.6,0.8,1.1c0,0.2,0.1,0.3,0.1,0.5
	c0,0.3-0.1,0.6-0.3,0.9L31.7,9.8z"/>
<path class="st0" d="M37.9,4.7c1.3,0,2.4,0.5,3.3,1.4c0.6,0.6,1,1.5,1.1,2.5c0,0.2,0,0.5,0,0.7c0,0.2,0,0.4-0.1,0.6h-5.6
	c0,0.4,0.1,0.7,0.3,1c0.2,0.4,0.5,0.6,0.8,0.6c0.3,0,0.6-0.2,0.9-0.6c0.1-0.2,0.2-0.4,0.3-0.6h3.2c0,0.8-0.4,1.6-1,2.4
	c-0.9,0.9-2.1,1.4-3.4,1.4c-1.3,0-2.5-0.5-3.4-1.4c-0.9-0.9-1.4-2-1.4-3.4c0-1.3,0.5-2.4,1.4-3.4C35.5,5.1,36.6,4.7,37.9,4.7z
	 M39,8.6c-0.1-0.3-0.1-0.5-0.2-0.7c-0.2-0.4-0.5-0.6-0.8-0.6c-0.3,0-0.6,0.2-0.8,0.6C37,8.1,37,8.3,36.9,8.6L39,8.6z"/>
<path class="st0" d="M44.7,0.1c0.5,0,0.9,0.2,1.3,0.5c0.4,0.3,0.5,0.8,0.5,1.3v11.9h-3.6V1.9c0-0.5,0.2-0.9,0.5-1.3
	C43.8,0.2,44.2,0.1,44.7,0.1z"/>
<path class="st0" d="M55.1,6c0.9,0.9,1.4,2,1.4,3.4c0,1.3-0.5,2.4-1.4,3.4c0,0-0.1,0.1-0.2,0.2C54.8,13,54.8,13,54.8,13
	c-0.9,0.7-1.9,1.1-3.1,1.1h0c-1.2,0-2.2-0.4-3.1-1.1c-0.1,0-0.2-0.1-0.3-0.3c-0.9-0.9-1.4-2-1.4-3.4C47,8.1,47.4,7,48.4,6
	c0.9-0.9,2-1.4,3.4-1.4C53,4.6,54.2,5.1,55.1,6z M52.5,10.9c0.2-0.4,0.3-0.9,0.3-1.5c0-0.6-0.1-1.1-0.3-1.5
	c-0.2-0.4-0.5-0.6-0.8-0.6c-0.3,0-0.6,0.2-0.8,0.6c-0.2,0.4-0.3,0.9-0.3,1.5c0,0.6,0.1,1.1,0.3,1.5c0.2,0.4,0.5,0.6,0.8,0.6
	C52,11.5,52.3,11.3,52.5,10.9z"/>
<path class="st0" d="M65,12.8c-0.9,0.9-2,1.4-3.4,1.4c-1.3,0-2.4-0.5-3.4-1.4c-0.9-0.9-1.4-2-1.4-3.4c0-1.3,0.5-2.4,1.4-3.4
	c0.9-0.9,2-1.4,3.4-1.4c0.4,0,0.8,0,1.1,0.1V1.9c0-0.5,0.2-0.9,0.5-1.3c0.4-0.4,0.8-0.5,1.3-0.5c0.5,0,0.9,0.2,1.3,0.5
	c0.3,0.3,0.5,0.8,0.5,1.3v7.6C66.4,10.7,65.9,11.8,65,12.8z M61.6,11.5c0.3,0,0.6-0.2,0.8-0.6c0.2-0.4,0.3-0.9,0.3-1.5
	c0-0.6-0.1-1.1-0.3-1.5c-0.2-0.4-0.5-0.6-0.8-0.6c-0.3,0-0.6,0.2-0.8,0.6c-0.2,0.4-0.3,0.9-0.3,1.5c0,0.6,0.1,1.1,0.3,1.5
	C61,11.3,61.3,11.5,61.6,11.5z"/>
<path class="st0" d="M71.5,4.7c1.3,0,2.4,0.5,3.3,1.4c0.6,0.6,1,1.5,1.1,2.5c0,0.2,0,0.5,0,0.7c0,0.2,0,0.4-0.1,0.6h-5.6
	c0,0.4,0.1,0.7,0.3,1c0.2,0.4,0.5,0.6,0.8,0.6c0.3,0,0.6-0.2,0.9-0.6c0.1-0.2,0.2-0.4,0.3-0.6H76c0,0.8-0.4,1.6-1,2.4
	c-0.9,0.9-2.1,1.4-3.4,1.4c-1.3,0-2.5-0.5-3.4-1.4c-0.9-0.9-1.4-2-1.4-3.4c0-1.3,0.5-2.4,1.4-3.4C69.1,5.1,70.2,4.7,71.5,4.7z
	 M72.6,8.6c-0.1-0.3-0.1-0.5-0.2-0.7c-0.2-0.4-0.5-0.6-0.8-0.6c-0.3,0-0.6,0.2-0.8,0.6c-0.1,0.2-0.2,0.4-0.2,0.7L72.6,8.6z"/>
<path class="st0" d="M84.6,6C85.6,7,86,8.1,86,9.4c0,1.3-0.5,2.4-1.4,3.4c0,0-0.1,0.1-0.2,0.2C84.4,13,84.4,13,84.4,13
	c-0.9,0.7-1.9,1.1-3.1,1.1h0c-1.2,0-2.2-0.4-3.1-1.1c-0.1,0-0.2-0.1-0.3-0.3c-0.9-0.9-1.4-2-1.4-3.4C76.5,8.1,77,7,77.9,6
	c0.9-0.9,2-1.4,3.4-1.4C82.6,4.6,83.7,5.1,84.6,6z M82.1,10.9c0.2-0.4,0.3-0.9,0.3-1.5c0-0.6-0.1-1.1-0.3-1.5
	c-0.2-0.4-0.5-0.6-0.8-0.6c-0.3,0-0.6,0.2-0.8,0.6c-0.2,0.4-0.3,0.9-0.3,1.5c0,0.6,0.1,1.1,0.3,1.5c0.2,0.4,0.5,0.6,0.8,0.6
	C81.6,11.5,81.8,11.3,82.1,10.9z"/>
<path class="st0" d="M91.2,4.6c1.3,0,2.4,0.5,3.4,1.4c0.9,0.9,1.4,2,1.4,3.4v4.4h-3.6V9.5c0-0.5-0.1-0.9-0.3-1.3
	c-0.2-0.4-0.5-0.5-0.8-0.5c-0.3,0-0.6,0.2-0.8,0.5C90.2,8.5,90,8.9,90,9.5v4.3h-3.6V9.4c0-1.3,0.5-2.4,1.4-3.4
	C88.7,5.1,89.9,4.6,91.2,4.6z"/>
</svg>
