<svg id="Nissan_Logo" data-name="Nissan Logo" xmlns="http://www.w3.org/2000/svg" viewBox="0 0 200 171.2"><defs><style>.cls-1{fill:#fff;}</style></defs><path class="cls-1" d="M134.6,79.8c-.1-.1-.3-.1-.6-.1s-.6,0-.7.1a.61.61,0,0,0-.6.3c0,.1-1.6,3.9-3.3,7.8h8.9c-1.3-3.3-2.8-6.6-3.2-7.7A.51.51,0,0,0,134.6,79.8Z" transform="translate(0 0)"/><path class="cls-1" d="M193.1,64.9a55,55,0,0,0-7.67-1.25.69.69,0,0,1,0-.25C175.3,26.8,141,0,100.3,0S25.1,27,15.1,63.6a55.53,55.53,0,0,0-8.2,1.3C1.2,66.2,0,68.2,0,72.3V100c0,4,4.3,6.8,7.3,7.3a69.3,69.3,0,0,0,8,1.1h0A41,41,0,0,0,16.8,113h0c11.81,33.87,44.68,58.2,83.5,58.2,40.54,0,74.7-26.63,85-62.85a71.78,71.78,0,0,0,7.45-1c3-.5,7.3-3.3,7.3-7.3V72.3C200,68.2,198.8,66.2,193.1,64.9ZM100.3,12.7c34.3,0,63.3,22.4,72.2,53,0,.1.1.2.1.3h-1.1c0-.1-.1-.2-.1-.3C160.6,34,132,14.8,99.8,14.8a73.9,73.9,0,0,0-70,51,12.07,12.07,0,0,1-1.8.1C36.9,35.2,66,12.7,100.3,12.7Zm49.08,117.74a68.68,68.68,0,0,1-96.52,1.66l.34.2a65.36,65.36,0,0,1-15.47-22.64c18.07.92,41.46,1.84,62.27,1.84,21.06,0,44.73-.94,62.89-1.87,0,.12-.19.38-.19.47a66.19,66.19,0,0,1-13.4,20.4ZM52.8,96.1v-21c0-.4.1-.6.5-.6h5.4c.5,0,.6.2.6.6v21c0,.5-.1.7-.7.7H53.5C52.9,96.8,52.8,96.7,52.8,96.1ZM71.4,82.3c1.8.3,7.6.7,9.8.9,3.9.4,6.8,1.1,7.6,4.8,0,.3.1,1.3.1,2.4a10.16,10.16,0,0,1-.2,2.4C88,96.3,85.4,97,81.2,97H64.7c-.6,0-.7-.1-.7-.7V92.8c0-.6.1-.7.7-.7H81.4c.7,0,.9-.2,1-.7V89.9c-.1-.4-.2-1-1.1-1.1-1.9-.1-7.4-.6-11.1-1-4.8-.5-6-2.5-6.2-4.3a13.43,13.43,0,0,1-.1-2.1,18,18,0,0,1,.1-2.2c.7-3.1,3-4.6,7.2-4.6h16c.6,0,.8.1.8.6v3.6c0,.5-.2.7-.8.6H71.5c-.7,0-1,.3-1.1,1v.9C70.4,81.8,70.7,82.2,71.4,82.3Zm28.4,0c1.8.3,7.6.7,9.7.9,3.9.4,6.8,1.1,7.6,4.8,0,.3.1,1.3.1,2.4a10.16,10.16,0,0,1-.2,2.4c-.7,3.5-3.3,4.2-7.5,4.2H93.1c-.6,0-.7-.1-.7-.7V92.8c0-.6.1-.7.7-.7h16.7c.7,0,.9-.2,1-.7V89.9a1.25,1.25,0,0,0-1.1-1.1c-1.9-.1-7.4-.6-11.1-1-4.8-.5-5.9-2.5-6.2-4.3a13.43,13.43,0,0,1-.1-2.1,18,18,0,0,1,.1-2.2c.7-3.1,3-4.6,7.2-4.6h16c.6,0,.8.1.8.6v3.6c0,.5-.2.7-.8.6H99.9c-.7,0-1,.3-1.1,1v.9C98.8,81.8,99,82.2,99.8,82.3ZM148.2,97h-5.5a.67.67,0,0,1-.7-.4c0-.1-.7-1.7-1.7-4H127.4c-1,2.3-1.8,4-1.8,4a.73.73,0,0,1-.7.4h-5.3c-.8,0-1.1,0-.6-1l.1-.2c2.5-5.5,8.4-18.7,8.4-18.7,1.2-2.5.6-2.3,4-2.3a14.73,14.73,0,0,1,2.2-.1,10.82,10.82,0,0,1,2.2.1c3.6.1,3-.3,4.7,3.4h0c.9,2.1,7.3,15.8,8.3,18.2C149.2,97.1,149,97,148.2,97ZM100,61.1c-15.77,0-42.11.83-62.7,1.6h0c9.6-24.8,34.2-42.5,63.1-42.5s53.4,17.6,63,42.3a.35.35,0,0,0,.1.2l.09,0C142.87,62,116,61.1,100,61.1ZM27,96.3c0,.6-.1.7-.7.7H21.9c-.6,0-.7-.1-.7-.7V75.4c0-.5.1-.7.7-.7H27c3.8,0,4.3-.1,5.7,1.9,1.1,1.8,10,15.5,10,15.5V75.4c0-.5.1-.7.7-.7h4.4c.6,0,.7.2.7.7V96.3c0,.6-.1.7-.7.7h-6c-3.5,0-3.8,0-5-2C34.4,91.2,27,79.9,27,79.9Zm73.4,62.2c-34.1,0-62.8-22.1-72-52.3a4.83,4.83,0,0,0,1.2.1c11,31.2,39.3,50.1,71.3,50.1a73.89,73.89,0,0,0,69.6-50.1c.6,0,1.2-.1,1.9-.1C163.2,136.4,134.5,158.5,100.4,158.5Zm79.1-62.2c0,.6-.1.7-.7.7h-6c-3.5,0-3.8,0-5-2-2.5-3.8-9.8-15.1-9.8-15.1V96.3c0,.6-.1.7-.7.7h-4.4c-.6,0-.7-.1-.7-.7V75.4c0-.5.1-.7.7-.7H158c3.8,0,4.3-.1,5.7,1.9,1.2,1.8,10,15.5,10,15.5V75.4c0-.5.1-.7.7-.7h4.4c.6,0,.7.2.7.7Z" transform="translate(0 0)"/></svg>