<svg id="Nissan_Logo" data-name="Nissan Logo" xmlns="http://www.w3.org/2000/svg" xmlns:xlink="http://www.w3.org/1999/xlink" viewBox="0 0 200 171.2"><defs><linearGradient id="linear-gradient" x1="302.6" y1="-928.39" x2="302.6" y2="-1067.79" gradientTransform="matrix(1, 0, 0, -1, -202.6, -925.9)" gradientUnits="userSpaceOnUse"><stop offset="0.19" stop-color="#fff"/><stop offset="0.21" stop-color="#f8f8f8"/><stop offset="0.37" stop-color="#aeaeae"/><stop offset="0.51" stop-color="#707070"/><stop offset="0.65" stop-color="#404040"/><stop offset="0.76" stop-color="#1d1d1d"/><stop offset="0.86" stop-color="#080808"/><stop offset="0.92"/></linearGradient><radialGradient id="radial-gradient" cx="246.46" cy="-891.43" r="139.46" gradientTransform="matrix(1, 0, 0, -1, -202.6, -925.9)" gradientUnits="userSpaceOnUse"><stop offset="0.2" stop-color="#fff"/><stop offset="0.38" stop-color="#fdfdfd"/><stop offset="0.49" stop-color="#f4f4f4"/><stop offset="0.57" stop-color="#e6e6e6"/><stop offset="0.65" stop-color="#d2d2d2"/><stop offset="0.69" stop-color="#c4c4c4"/><stop offset="1" stop-color="#333"/></radialGradient><radialGradient id="radial-gradient-2" cx="583.97" cy="-1114.81" r="290.45" gradientTransform="matrix(1, 0, 0, -1, -202.6, -925.9)" gradientUnits="userSpaceOnUse"><stop offset="0.2" stop-color="#fff"/><stop offset="0.37" stop-color="#e4e4e4"/><stop offset="0.59" stop-color="#c4c4c4"/><stop offset="1" stop-color="#333"/></radialGradient><radialGradient id="radial-gradient-3" cx="279.96" cy="1593.28" r="89.17" gradientTransform="translate(-5 -2030.9)" xlink:href="#radial-gradient-2"/><radialGradient id="radial-gradient-4" cx="351.91" cy="1502.1" r="169.19" gradientTransform="translate(-5 -2030.9)" xlink:href="#radial-gradient-2"/><radialGradient id="radial-gradient-5" cx="301.26" cy="-943.5" r="134.45" gradientTransform="matrix(1, 0, 0, -1, -202.6, -925.9)" gradientUnits="userSpaceOnUse"><stop offset="0.2" stop-color="#fff"/><stop offset="0.4" stop-color="#fdfdfd"/><stop offset="0.51" stop-color="#f4f4f4"/><stop offset="0.6" stop-color="#e6e6e6"/><stop offset="0.68" stop-color="#d2d2d2"/><stop offset="0.73" stop-color="#c4c4c4"/><stop offset="1" stop-color="#4d4d4d"/></radialGradient><radialGradient id="radial-gradient-6" cx="304.38" cy="-956.97" r="90.56" gradientTransform="matrix(1, 0, 0, -1, -202.6, -925.9)" gradientUnits="userSpaceOnUse"><stop offset="0.11" stop-color="#4d4d4d"/><stop offset="0.25" stop-color="#494949"/><stop offset="0.35" stop-color="#404040"/><stop offset="0.45" stop-color="#2f2f2f"/><stop offset="0.54" stop-color="#181818"/><stop offset="0.61"/></radialGradient></defs><path d="M193.1,64.9a56,56,0,0,0-8.2-1.3c-18-.8-62.3-2.5-84.9-2.5s-66.9,1.7-84.9,2.5a56,56,0,0,0-8.2,1.3C1.2,66.2,0,68.2,0,72.3V100c0,4,4.3,6.8,7.3,7.3a70,70,0,0,0,8,1.1c16,1,53.3,3.1,84.7,3.1s68.6-2.1,84.7-3.1a70,70,0,0,0,8-1.1c3-.5,7.3-3.3,7.3-7.3V72.3C200,68.2,198.8,66.2,193.1,64.9Z" style="fill:url(#linear-gradient)"/><path d="M28,66c8.8-30.7,37.8-53.2,72.3-53.2s63.3,22.4,72.2,53a.4.4,0,0,0,.1.3,116.4,116.4,0,0,0,12.9-2.3.6.6,0,0,1-.1-.4C175.3,26.8,141,0,100.3,0S25.1,27,15.1,63.6A91.7,91.7,0,0,0,28,66Z" style="fill:url(#radial-gradient)"/><path d="M172.3,106.2a1.9,1.9,0,0,0-.2.7c-9.4,29.9-38,51.6-71.8,51.6s-62.8-22-72-52.3c-5.6,1-7.5,1.4-13,2.1,10.3,36.3,44.4,62.9,85,62.9s74.8-26.7,85-63C180.4,107.7,177.6,107.2,172.3,106.2Z" style="fill:url(#radial-gradient-2)"/><path d="M29.9,65.9c2.1-.9,4.2-2.3,7.4-3.2,9.6-24.8,34.2-42.5,63.1-42.5s53.4,17.6,63,42.3c0,.1,0,.1.1.2,1.7.6,6.5,2.5,8,3.2h1.1c0-.1-.1-.2-.1-.3-8.9-30.6-37.9-53-72.2-53S36.9,35.1,28,65.8A6.1,6.1,0,0,0,29.9,65.9Z" style="fill:url(#radial-gradient-3)"/><path d="M99.8,14.8c32.2,0,60.8,19.2,71.6,50.9V66h1.1v-.3c-8.9-30.6-37.9-53-72.2-53S36.9,35.2,28,65.9h1.8A73.8,73.8,0,0,1,99.8,14.8Z" style="fill:#fff"/><path d="M170.5,106.3a50.2,50.2,0,0,1-7.5,3.3c0,.1-.2.4-.2.5-10,24-34.2,41-62.5,41s-52.8-17.2-62.7-41.4a40.5,40.5,0,0,1-8.1-3.3H28.3c9.2,30.2,37.9,52.3,72,52.3s62.6-21.8,71.8-51.8v-.4A4.4,4.4,0,0,0,170.5,106.3Z" style="fill:url(#radial-gradient-4)"/><path d="M191.5,66.9c-4.8-.6-8-.5-19.6-.9h-1.6c-21-.7-52.5-1.7-70.3-1.7s-49.4,1-70.3,1.7H28.1c-11.6.4-14.8.3-19.6.9S0,69.5,0,73.1V98.8c0,3.5,4.5,6.4,8.5,6.4,0,0,50.7,3.1,91.5,3.2s91.5-3.2,91.5-3.2c4,0,8.5-2.9,8.5-6.4V73.1C200,69.5,196.3,67.5,191.5,66.9Z" style="fill:url(#radial-gradient-5)"/><path d="M170.5,106.3a74.1,74.1,0,0,1-69.6,50.1c-32,0-60.3-18.9-71.3-50.1H28.4c9.2,30.2,37.9,52.3,72,52.3s62.8-22.1,72-52.3Z" style="fill:#fff"/><path d="M170.5,106.3h0a51.3,51.3,0,0,1-7.6,3.3c0,.1-.2.4-.2.5a66.3,66.3,0,0,1-13.4,20.4A72.5,72.5,0,0,0,170.5,106.3Z" style="fill:#8c8c8c"/><path d="M53.2,132.3a65.6,65.6,0,0,1-15.5-22.7,40.5,40.5,0,0,1-8.1-3.3,69.6,69.6,0,0,0,5.6,9.5A75.9,75.9,0,0,0,51,131Z" style="fill:#4d4d4d"/><path d="M28.3,106.2h0c-5.6,1-7.5,1.4-13,2.1a36.8,36.8,0,0,0,1.5,4.7Z" style="fill:#252525"/><path id="NISSAN" d="M140.6,78.2c-1.7-3.7-1.1-3.3-4.7-3.4h-4.4c-3.4,0-2.8-.2-4,2.3l-8.4,18.7V96c-.5,1-.2,1,.6,1H125a.7.7,0,0,0,.7-.4l1.8-4h12.9l1.7,4a.7.7,0,0,0,.7.4h5.5c.8,0,1,.1.7-.6-1-2.4-7.4-16.1-8.3-18.2Zm-11.2,9.7c1.7-3.9,3.3-7.7,3.3-7.8a.7.7,0,0,1,.6-.3h1.3a.7.7,0,0,1,.5.4c.4,1.1,1.9,4.4,3.2,7.7ZM58.7,74.5c.5,0,.6.2.6.6v21c0,.5-.1.7-.7.7H53.5c-.6,0-.7-.1-.7-.7v-21c0-.4.1-.6.5-.6Zm-10.9.2c.6,0,.7.2.7.7V96.3c0,.6-.1.7-.7.7h-6c-3.5,0-3.8,0-5-2C34.4,91.2,27,79.9,27,79.9V96.3c0,.6-.1.7-.7.7H21.9c-.6,0-.7-.1-.7-.7V75.4c0-.5.1-.7.7-.7H27c3.8,0,4.3-.1,5.7,1.9l10,15.5V75.4c0-.5.1-.7.7-.7Zm131,0c.6,0,.7.2.7.7V96.3c0,.6-.1.7-.7.7h-6c-3.5,0-3.8,0-5-2L158,79.9V96.3c0,.6-.1.7-.7.7h-4.4c-.6,0-.7-.1-.7-.7V75.4c0-.5.1-.7.7-.7H158c3.8,0,4.3-.1,5.7,1.9l10,15.5V75.4c0-.5.1-.7.7-.7ZM81.2,83.2c3.9.4,6.8,1.1,7.6,4.8,0,.3.1,1.3.1,2.4a9.7,9.7,0,0,1-.2,2.4C88,96.3,85.4,97,81.2,97H64.7c-.6,0-.7-.1-.7-.7V92.8c0-.6.1-.7.7-.7H81.4c.7,0,.9-.2,1-.7V89.9c-.1-.4-.2-1-1.1-1.1l-11.1-1c-4.8-.5-6-2.5-6.2-4.3a14.8,14.8,0,0,1-.1-2.1,16.2,16.2,0,0,1,.1-2.2c.7-3.1,3-4.6,7.2-4.6h16c.6,0,.8.1.8.6v3.6c0,.5-.2.7-.8.6H71.5c-.7,0-1,.3-1.1,1v.9c0,.5.3.9,1,1Zm28.3,0c3.9.4,6.8,1.1,7.6,4.8,0,.3.1,1.3.1,2.4a9.7,9.7,0,0,1-.2,2.4c-.7,3.5-3.3,4.2-7.5,4.2H93.1c-.6,0-.7-.1-.7-.7V92.8c0-.6.1-.7.7-.7h16.7c.7,0,.9-.2,1-.7V89.9a1.3,1.3,0,0,0-1.1-1.1l-11.1-1c-4.8-.5-5.9-2.5-6.2-4.3a14.8,14.8,0,0,1-.1-2.1,16.2,16.2,0,0,1,.1-2.2c.7-3.1,3-4.6,7.2-4.6h16c.6,0,.8.1.8.6v3.6c0,.5-.2.7-.8.6H99.9c-.7,0-1,.3-1.1,1v.9c0,.5.2.9,1,1Z" style="fill:url(#radial-gradient-6)"/></svg>