<svg id="Layer_1" data-name="Layer 1" xmlns="http://www.w3.org/2000/svg" viewBox="0 0 1425.65 307.97"><defs><style>.cls-1{fill:#e12726;}.cls-2{fill:#fbe7df;}.cls-3{fill:#ea7461;}.cls-4{fill:#ee9781;}.cls-5{fill:#eb7f6c;}.cls-6{fill:#e55848;}.cls-7{fill:#e9725f;}.cls-8{fill:#707270;}</style></defs><path class="cls-1" d="M248.09,2.09a179,179,0,0,0-24.77,14.59,187.75,187.75,0,0,0-29.58,26.17,163.53,163.53,0,0,0-22.55,31.24,155.69,155.69,0,0,0-16.65,46c-1.24,6.33-2,12.73-2.61,19.16-.48,4.94-.59,9.89-.62,14.82-.15,24.07,3.94,47.35,13.71,69.48a161.78,161.78,0,0,0,24.69,39.25,177.06,177.06,0,0,0,39.59,34.94,155.52,155.52,0,0,0,15.89,8.91c.54.26,1.21.35,1.66,1.17-.88,0-1.64.11-2.39.11H23.69a10.53,10.53,0,0,1-4-.76C10.36,303.54,4,297,.31,287.74A7.13,7.13,0,0,1,0,284.91V25.74a9.59,9.59,0,0,1,.81-3.92C5.59,10.65,14.06,4.11,25.88,1.75a13.49,13.49,0,0,1,2.62-.2H245.2c1,0,1.91.05,2.87.08.16.11.21.21.16.31S248.14,2.09,248.09,2.09Z" transform="translate(0.04 0.01)"/><path class="cls-1" d="M408.44,155.09a104.49,104.49,0,0,1-3.63,29.6,88.19,88.19,0,0,1-19.66,36.63,86.59,86.59,0,0,1-22.82,18.47,85.68,85.68,0,0,1-33,10.18,97.79,97.79,0,0,1-14.11.57c-20.86-1-39.54-7.48-55.21-21.76a87.32,87.32,0,0,1-25.81-41.89,107.54,107.54,0,0,1-3.87-23.3c-.67-12.51,0-24.86,3.24-37a89.42,89.42,0,0,1,23.29-40.72,83.69,83.69,0,0,1,47.58-24.14,96.35,96.35,0,0,1,19.57-1c14.92.67,29.14,4.21,41.9,12.13,19,11.8,31.89,28.53,38.23,50.11a107,107,0,0,1,4.17,23.75C408.44,149.53,408.44,152.32,408.44,155.09Z" transform="translate(0.04 0.01)"/><path class="cls-1" d="M479.87,109.2a194.09,194.09,0,0,0-8-22A164.53,164.53,0,0,0,388.63,3c-.72-.34-1.43-.7-2.56-1.25.92-.09,1.47-.2,2-.2,21,0,42.05-.1,63.07.1,5.78,0,11,2.45,15.75,5.81A32,32,0,0,1,479.48,25.6a7.31,7.31,0,0,0,.78,2.49c.55.42.35,1,.35,1.55,0,26.42.06,52.83,0,79.25a.51.51,0,0,1-.61.37Z" transform="translate(0.04 0.01)"/><path class="cls-1" d="M389.17,307.33A169.33,169.33,0,0,0,426,284.16a164,164,0,0,0,38.59-47,168.2,168.2,0,0,0,14.95-36,6.68,6.68,0,0,1,.37-.87q.27-.33.51,0c0,.39.09.79.09,1.19V278c0,7.42-2.83,13.83-7.44,19.51a33.12,33.12,0,0,1-14.61,10.1,6.68,6.68,0,0,1-2.35.36H389.92c-.23,0-.47,0-.71-.07S388.94,307.54,389.17,307.33Z" transform="translate(0.04 0.01)"/><path class="cls-2" d="M480.44,109.16v-78c0-1-.08-2.07-.13-3.1,1,.6.59,1.57.6,2.39V109c0,1.07.26,2.22-.66,3.13-.46-.29-.26-.72-.28-1.09C480.44,110.48,479.9,109.7,480.44,109.16Z" transform="translate(0.04 0.01)"/><path class="cls-3" d="M480.44,109.16c.06.67.28,1.37-.44,1.86l-.09-1.82Z" transform="translate(0.04 0.01)"/><path class="cls-4" d="M480,199.41c0-.38-.27-1,.32-1,.32,0,.24.61.17,1S480.13,199.61,480,199.41Z" transform="translate(0.04 0.01)"/><path class="cls-5" d="M248.09,2.09V1.62c.31-.11.73-.08.74.2S248.44,2.16,248.09,2.09Z" transform="translate(0.04 0.01)"/><path class="cls-6" d="M480,199.41h.49v1h-.51Z" transform="translate(0.04 0.01)"/><path class="cls-7" d="M389.17,307.33v.56c-.31.1-.72.07-.75-.21S388.86,307.31,389.17,307.33Z" transform="translate(0.04 0.01)"/><path class="cls-8" d="M819.75,244.09H798.44c-1.6,0-3.2,0-4.79-.08-6.21-.44-10-4.27-10.36-10.46-.07-1.2-.07-2.4-.07-3.6V123.39c0-5,0-9.92-.21-14.88a157.2,157.2,0,0,0-3-26.4,106.15,106.15,0,0,0-13.1-34.32c-11.11-18.17-27-30.5-46.75-38-16-6.1-32.74-8.48-49.77-9A211.2,211.2,0,0,0,649,1.14,182.24,182.24,0,0,0,626.7,3.91a235.28,235.28,0,0,0-38.82,11.38,169.33,169.33,0,0,0-37.86,20c-1.83,1.29-1.83,1.3-.86,3.13Q561.56,61.7,574,85c.92,1.74,1,1.75,2.53.7a158.29,158.29,0,0,1,22.19-12.36c16.63-7.49,33.7-13.36,52.17-14.26A87.38,87.38,0,0,1,678,61.51c18.25,4.91,29.44,17.77,32,36.53a131.63,131.63,0,0,1,.8,18.19c0,2.76.18,2.53-2.63,2.56-10.32.09-20.63-.18-31,.38-8.7.47-17.4.92-26.06,1.94a260.81,260.81,0,0,0-39,7.36c-11.57,3.19-23,6.87-33.7,12.37-13.41,6.87-25.22,15.71-34.34,27.87a72.46,72.46,0,0,0-14.28,33.36,108.66,108.66,0,0,0-.85,22,81.48,81.48,0,0,0,5.47,26.16c8.64,21.44,23.57,37,44.79,46,23.2,9.89,47.29,11.8,71.87,6.12,20.72-4.78,37.76-15.72,51.7-31.64a98.79,98.79,0,0,0,13.18-19.41c.37-.71.47-1.72,1.49-1.92.64.59.2,1.14.11,1.63a69.41,69.41,0,0,0-1,20.29c1.12,11,6.58,19,16.83,23.5a43.78,43.78,0,0,0,17.74,3.53h68.64c2,0,2,0,2-1.93V246C821.76,244.09,821.73,244.09,819.75,244.09ZM700.3,213.25c-7.15,13-16.84,23.47-29.77,30.84a53.13,53.13,0,0,1-30.41,6.82,43.46,43.46,0,0,1-21.45-6.82c-10.44-6.82-15.72-16.71-16.86-29-.94-10,1.42-19,8.11-26.74a50.27,50.27,0,0,1,11.46-9.76c7.61-4.75,15.92-7.73,24.56-9.93a184.51,184.51,0,0,1,30-4.89c7.34-.64,14.68-1,22-1h11.75c1.1,0,1.52.31,1.57,1.5C712.12,181.64,708.7,198,700.3,213.25Z" transform="translate(0.04 0.01)"/><path class="cls-8" d="M1124.14,295.09V244.72c.06-1-.44-1.27-1.31-1.22h-24a23.86,23.86,0,0,1-4.77-.44,9.69,9.69,0,0,1-7.94-7.11,22.43,22.43,0,0,1-.6-6.43V120.33c0-7-.12-13.91-.68-20.86a135.43,135.43,0,0,0-5.32-28.93c-8.84-29-27.12-49.37-55.29-60.73C1008.93,3.64,992.89,1,976.51.26a220.77,220.77,0,0,0-27.1.32q-9.33.71-18.55,2.28a217.07,217.07,0,0,0-30.09,8,180,180,0,0,0-47.28,23,12.87,12.87,0,0,0-2.85,2.24c.24.51.47,1,.73,1.51q3.93,7.41,7.88,14.82l16.8,31.54c1.3,2.44,1.13,2.19,3.28.77,3.34-2.2,6.74-4.31,10.26-6.2,19.09-10.27,39-18.11,60.84-19.88,10.11-.82,20.16-.46,30,2.26,17.37,4.82,27.89,16.1,31.45,33.81,1.46,7.27,1.26,14.63,1.29,22,0,1.41-.77,1.51-1.84,1.5H996.69c-11-.08-21.91.41-32.84,1.24a274.92,274.92,0,0,0-33.69,4.7c-15.07,3.06-29.83,7.21-43.91,13.47s-26.81,14.67-36.81,26.63c-7.54,9-13.31,18.95-16,30.5a96,96,0,0,0-2.27,26.66,87,87,0,0,0,3.83,23.1c8,24.18,23.79,41.32,47.1,51.39,18.15,7.83,37.23,10,56.83,8.28a96.82,96.82,0,0,0,33.56-9.06c20-9.65,35.15-24.48,45.61-44.08.34-.64.68-1.27,1-1.88a.48.48,0,0,1,.63-.17.42.42,0,0,1,.3.5l0,0c-.08.31-.11.63-.17,1a67,67,0,0,0-1,20.52c1.17,10.82,6.57,18.64,16.6,23.14,6.42,2.87,13.19,3.72,20.12,3.72h65.83C1124.34,297.79,1124.14,298.09,1124.14,295.09Zm-137.7-61.62c-7.43,7.09-16,12.57-26.07,15.11-11.54,2.91-23,2.8-34-2.23-13.54-6.21-20.7-17-22.24-31.74a39.64,39.64,0,0,1,.74-12.62,32.47,32.47,0,0,1,7.45-14.31c6.3-7.37,14.36-12.13,23.25-15.61a135,135,0,0,1,28.25-7.21c15.77-2.48,31.66-2.86,47.57-2.78,2.21,0,2.22,0,2.23,2.24v5.27C1013.25,194.57,1004.65,216.09,986.44,233.47Z" transform="translate(0.04 0.01)"/><path class="cls-8" d="M1425.6,245.69c0-2.15,0-2.16-2.28-2.16H1400a21.13,21.13,0,0,1-4.76-.48,9.68,9.68,0,0,1-7.74-7.33,23,23,0,0,1-.52-6.19V117.22A204.63,204.63,0,0,0,1385.8,94a126,126,0,0,0-7.36-30.91A90.79,90.79,0,0,0,1354,27.15c-11.13-9.93-24.08-16.49-38.28-20.74A153,153,0,0,0,1281.53.56a223.2,223.2,0,0,0-38.08.75,168.85,168.85,0,0,0-28.17,5.61c-15.11,4.28-29.85,9.48-43.75,16.89A170,170,0,0,0,1153.35,35c-1,.73-1.4,1.4-.57,2.5a11.66,11.66,0,0,1,.79,1.48l23.8,44.66c1.35,2.52,1.32,2.48,3.67,1,22.13-14,45.7-23.94,72.09-26,10.69-.86,21.29-.19,31.53,3.18,13.8,4.53,23,13.71,27.38,27.64,2.83,9,2.61,18.3,2.57,27.58,0,.93-.43,1.28-1.31,1.24h-1.92c-11,.09-22.07-.14-33.11.46-10.54.58-21,1.38-31.5,2.88a254.86,254.86,0,0,0-46.55,11.13c-15.51,5.34-29.83,12.77-42,24A79.8,79.8,0,0,0,1137.73,186c-3.73,9.32-5.1,19.09-5.19,29.09-.11,11.53,1.12,22.86,5.31,33.67,8.93,23,25.06,39.06,47.93,48.21,17.7,7.08,36.15,9.14,55.08,7.32a96.79,96.79,0,0,0,32-8.58c20.46-9.56,35.9-24.49,46.57-44.38.37-.7.75-1.41,1.16-2.09a.5.5,0,0,1,.64-.17.43.43,0,0,1,.28.54v0c-.1.39-.15.79-.23,1.18a68.93,68.93,0,0,0-1,19.81c1,10.82,6.22,18.8,16.21,23.43a44.79,44.79,0,0,0,19.12,3.88q33.83.06,67.67,0c2.21,0,2.23,0,2.23-2.22Q1425.62,270.66,1425.6,245.69Zm-138.36-11.52c-7.77,7.23-16.71,12.65-27.23,14.93-9.55,2.06-19.07,2-28.39-1.2-15.6-5.36-25.14-18.38-26.07-34.76-.76-13.2,4.53-23.42,14.58-31.48,7.61-6.11,16.41-9.82,25.71-12.48a175.75,175.75,0,0,1,32.74-5.86c11.4-1,22.83-1.21,34.26-1.2,2.26,0,2.27,0,2.28,2.23v5.76C1314.6,195.28,1305.79,216.9,1287.24,234.17Z" transform="translate(0.04 0.01)"/></svg>