<svg xmlns="http://www.w3.org/2000/svg" viewBox="0 0 1425.61 307.98"><defs><style>.a{fill:#fff;}</style></defs><title>oaaa_white</title><path class="a" d="M-181.35,185a179,179,0,0,0-24.77,14.59,187.31,187.31,0,0,0-29.58,26.17A163.27,163.27,0,0,0-258.25,257a155.8,155.8,0,0,0-16.65,46c-1.24,6.33-2,12.73-2.61,19.16-.48,4.94-.59,9.89-.62,14.82-.15,24.07,3.94,47.35,13.71,69.48a161.59,161.59,0,0,0,24.69,39.25,177.09,177.09,0,0,0,39.59,34.94,155.52,155.52,0,0,0,15.89,8.91c.54.26,1.21.35,1.66,1.17-.88,0-1.64.11-2.39.11q-110.39,0-220.77,0a10.53,10.53,0,0,1-4-.76c-9.33-3.63-15.68-10.19-19.38-19.43a7.24,7.24,0,0,1-.33-2.83q0-81.11,0-162.22,0-48.47,0-96.95a9.56,9.56,0,0,1,.81-3.92c4.8-11.17,13.27-17.71,25.09-20.07a13.49,13.49,0,0,1,2.62-.2l109.91,0h106.79c.95,0,1.91.05,2.87.08.16.11.21.21.16.31S-181.3,185-181.35,185Z" transform="translate(429.44 -182.91)"/><path class="a" d="M-21,338a104.36,104.36,0,0,1-3.63,29.6,88.14,88.14,0,0,1-19.66,36.63,86.51,86.51,0,0,1-22.82,18.47,85.73,85.73,0,0,1-33,10.18,96.49,96.49,0,0,1-14.11.57c-20.86-1-39.54-7.48-55.21-21.76a87.33,87.33,0,0,1-25.81-41.89,107.44,107.44,0,0,1-3.87-23.3c-.67-12.51,0-24.86,3.24-37a89.39,89.39,0,0,1,23.29-40.72A83.7,83.7,0,0,1-125,244.64a96.39,96.39,0,0,1,19.57-1c14.92.67,29.14,4.21,41.9,12.13,19,11.8,31.89,28.53,38.23,50.11a107.51,107.51,0,0,1,4.17,23.75C-21,332.44-21,335.23-21,338Z" transform="translate(429.44 -182.91)"/><path class="a" d="M50.43,292.11a194.09,194.09,0,0,0-8-22.05,166.34,166.34,0,0,0-25.29-40.53,167.31,167.31,0,0,0-57.95-43.6c-.72-.34-1.43-.7-2.56-1.25.92-.09,1.47-.2,2-.2,21,0,42.05-.1,63.07.1,5.78,0,11,2.45,15.75,5.81a32.06,32.06,0,0,1,12.59,18.12,7.31,7.31,0,0,0,.78,2.49c.55.42.35,1,.35,1.55,0,26.42.06,52.83,0,79.25A.5.5,0,0,1,50.43,292.11Z" transform="translate(429.44 -182.91)"/><path class="a" d="M-40.27,490.24A169.33,169.33,0,0,0-3.46,467.07a164,164,0,0,0,38.59-46.95,168.5,168.5,0,0,0,14.95-36,7.32,7.32,0,0,1,.37-.87q.27-.33.51,0c0,.39.09.79.09,1.19q0,38.23,0,76.46c0,7.42-2.83,13.83-7.44,19.51A33.14,33.14,0,0,1,29,490.51a6.56,6.56,0,0,1-2.35.36H-39.52c-.23,0-.47-.05-.71-.07C-40.49,490.63-40.5,490.45-40.27,490.24Z" transform="translate(429.44 -182.91)"/><path class="a" d="M51,292.07c0-.32,0-.64,0-1q0-38.51,0-77c0-1-.08-2.07-.13-3.1,1,.6.59,1.57.6,2.39,0,5.66,0,11.33,0,17q0,30.75,0,61.51c0,1.07.26,2.22-.66,3.13-.46-.29-.26-.72-.28-1.09C51,293.39,50.46,292.61,51,292.07Z" transform="translate(429.44 -182.91)"/><path class="a" d="M51,292.07c.06.67.28,1.37-.44,1.86l-.09-1.82Z" transform="translate(429.44 -182.91)"/><path class="a" d="M50.51,382.32c0-.38-.27-1,.32-1,.32,0,.24.61.17,1S50.69,382.52,50.51,382.32Z" transform="translate(429.44 -182.91)"/><path class="a" d="M-181.35,185v-.47c.31-.11.73-.08.74.2S-181,185.07-181.35,185Z" transform="translate(429.44 -182.91)"/><path class="a" d="M50.51,382.32l.49,0c0,.32,0,.65,0,1l-.51,0Z" transform="translate(429.44 -182.91)"/><path class="a" d="M-40.27,490.24l0,.56c-.31.1-.72.07-.75-.21S-40.58,490.22-40.27,490.24Z" transform="translate(429.44 -182.91)"/><path class="a" d="M390.31,427H369c-1.6,0-3.2,0-4.79-.08-6.21-.44-10-4.27-10.36-10.46-.07-1.2-.07-2.4-.07-3.6V306.3c0-5,0-9.92-.21-14.88a157.1,157.1,0,0,0-3-26.4,106.29,106.29,0,0,0-13.1-34.32c-11.11-18.17-27-30.5-46.75-38-16-6.1-32.74-8.48-49.77-9a211.25,211.25,0,0,0-21.35.35,182.24,182.24,0,0,0-22.34,2.77,235,235,0,0,0-38.82,11.38,169.39,169.39,0,0,0-37.86,20c-1.83,1.29-1.83,1.3-.86,3.13q12.41,23.28,24.83,46.56c.92,1.74,1,1.75,2.53.7a158.86,158.86,0,0,1,22.19-12.36c16.63-7.49,33.7-13.36,52.17-14.26a87.3,87.3,0,0,1,27.1,2.45c18.25,4.91,29.44,17.77,32,36.53a131.7,131.7,0,0,1,.8,18.19c0,2.76.18,2.53-2.63,2.56-10.32.09-20.63-.18-31,.38-8.7.47-17.4.92-26.06,1.94a260.19,260.19,0,0,0-39,7.36c-11.57,3.19-23,6.87-33.7,12.37-13.41,6.87-25.22,15.71-34.34,27.87a72.42,72.42,0,0,0-14.28,33.36,108.79,108.79,0,0,0-.85,22,81.37,81.37,0,0,0,5.47,26.16c8.64,21.44,23.57,37,44.79,46,23.2,9.89,47.29,11.8,71.87,6.12,20.72-4.78,37.76-15.72,51.7-31.64a98.79,98.79,0,0,0,13.18-19.41c.37-.71.47-1.72,1.49-1.92.64.59.2,1.14.11,1.63a69.44,69.44,0,0,0-1,20.29c1.12,11,6.58,19,16.83,23.5a43.75,43.75,0,0,0,17.74,3.53q34.32,0,68.64,0c2,0,2,0,2-1.93q0-25.2,0-50.4C392.32,427,392.29,427,390.31,427ZM270.86,396.16c-7.15,13-16.84,23.47-29.77,30.84a53.14,53.14,0,0,1-30.41,6.82A43.48,43.48,0,0,1,189.23,427c-10.44-6.82-15.72-16.71-16.86-29-.94-10,1.42-19,8.11-26.74a50.27,50.27,0,0,1,11.46-9.76c7.61-4.75,15.92-7.73,24.56-9.93a184.51,184.51,0,0,1,30-4.89c7.34-.64,14.68-.95,22-1,3.92,0,7.84,0,11.75,0,1.1,0,1.52.31,1.57,1.5C282.68,364.55,279.26,380.91,270.86,396.16Z" transform="translate(429.44 -182.91)"/><path class="a" d="M694.7,478V429.07c0-.48,0-1,0-1.44.06-1-.44-1.27-1.31-1.22-.56,0-1.12,0-1.68,0-7.44,0-14.88,0-22.32,0a23.79,23.79,0,0,1-4.77-.44,9.68,9.68,0,0,1-7.94-7.11,22.47,22.47,0,0,1-.6-6.43q0-54.6,0-109.19c0-7-.12-13.91-.68-20.86a135.43,135.43,0,0,0-5.32-28.93c-8.84-29-27.12-49.37-55.29-60.73-15.3-6.17-31.34-8.81-47.72-9.55a220.8,220.8,0,0,0-27.1.32q-9.33.7-18.55,2.28a217.07,217.07,0,0,0-30.09,7.95,180.19,180.19,0,0,0-47.28,23,12.91,12.91,0,0,0-2.85,2.24c.24.51.47,1,.73,1.51q3.93,7.41,7.88,14.82l16.8,31.54c1.3,2.44,1.13,2.19,3.28.77,3.34-2.2,6.74-4.31,10.26-6.2,19.09-10.27,39-18.11,60.84-19.88,10.11-.82,20.16-.46,30,2.26,17.37,4.82,27.89,16.1,31.45,33.81,1.46,7.27,1.26,14.63,1.29,22,0,1.41-.77,1.51-1.84,1.5-4.88,0-9.76,0-14.64,0-11-.08-21.91.41-32.84,1.24a273.27,273.27,0,0,0-33.69,4.7c-15.07,3.06-29.83,7.21-43.91,13.47S430,335.17,420,347.13c-7.54,9-13.31,18.95-16,30.5a95.87,95.87,0,0,0-2.27,26.66,86.78,86.78,0,0,0,3.83,23.1c8,24.18,23.79,41.32,47.1,51.39,18.15,7.83,37.23,10,56.83,8.28A96.76,96.76,0,0,0,543.05,478c20-9.65,35.15-24.48,45.61-44.08.34-.64.68-1.27,1.05-1.88a.48.48,0,0,1,.63-.17.41.41,0,0,1,.28.55c-.08.31-.11.63-.17.95a67,67,0,0,0-1,20.52c1.17,10.82,6.57,18.64,16.6,23.14,6.42,2.87,13.19,3.72,20.12,3.72H692C694.9,480.7,694.7,481,694.7,478ZM557,416.38c-7.43,7.09-16,12.57-26.07,15.11-11.54,2.91-23,2.8-34-2.23-13.54-6.21-20.7-17-22.24-31.74a39.9,39.9,0,0,1,.74-12.62,32.47,32.47,0,0,1,7.45-14.31c6.3-7.37,14.36-12.13,23.25-15.61a134.83,134.83,0,0,1,28.25-7.21c15.77-2.48,31.66-2.86,47.57-2.78,2.21,0,2.22,0,2.23,2.24,0,1.76,0,3.52,0,5.27C583.81,377.48,575.21,399,557,416.38Z" transform="translate(429.44 -182.91)"/><path class="a" d="M996.16,428.6c0-2.15,0-2.16-2.28-2.16-7.76,0-15.52,0-23.28,0a21.66,21.66,0,0,1-4.76-.48,9.68,9.68,0,0,1-7.74-7.33,23,23,0,0,1-.52-6.19q0-31,0-61.91,0-25.2,0-50.4a204.75,204.75,0,0,0-1.22-23.22A125.85,125.85,0,0,0,949,246a90.76,90.76,0,0,0-24.45-35.94c-11.13-9.93-24.08-16.49-38.28-20.74a152.87,152.87,0,0,0-34.18-5.85,223.16,223.16,0,0,0-38.08.75,169,169,0,0,0-28.17,5.61c-15.11,4.28-29.85,9.48-43.75,16.89a170,170,0,0,0-18.18,11.17c-1,.73-1.4,1.4-.57,2.5a12.28,12.28,0,0,1,.79,1.48l23.8,44.66c1.35,2.52,1.32,2.48,3.67,1,22.13-14,45.7-23.94,72.09-26,10.69-.86,21.29-.19,31.53,3.18,13.8,4.53,23,13.71,27.38,27.64,2.83,9,2.61,18.3,2.57,27.58,0,.93-.43,1.28-1.31,1.24-.64,0-1.28,0-1.92,0-11,.09-22.07-.14-33.11.46-10.54.58-21.05,1.38-31.5,2.88a254.86,254.86,0,0,0-46.55,11.13c-15.51,5.34-29.83,12.77-42,24a79.8,79.8,0,0,0-20.49,29.23c-3.73,9.32-5.1,19.09-5.19,29.09-.11,11.53,1.12,22.86,5.31,33.67,8.93,23,25.06,39.06,47.93,48.21,17.7,7.08,36.15,9.14,55.08,7.32a96.94,96.94,0,0,0,32-8.58c20.46-9.56,35.9-24.49,46.57-44.38.37-.7.75-1.41,1.16-2.09a.5.5,0,0,1,.64-.17.43.43,0,0,1,.27.56c-.1.39-.15.79-.23,1.18a69,69,0,0,0-1,19.81c1,10.82,6.22,18.8,16.21,23.43a44.82,44.82,0,0,0,19.12,3.88q33.82.06,67.67,0c2.21,0,2.23,0,2.23-2.22Q996.18,453.57,996.16,428.6ZM857.8,417.08c-7.77,7.23-16.71,12.65-27.23,14.93-9.55,2.06-19.07,2-28.39-1.2-15.6-5.36-25.14-18.38-26.07-34.76-.76-13.2,4.53-23.42,14.58-31.48,7.61-6.11,16.41-9.82,25.71-12.48a175.61,175.61,0,0,1,32.74-5.86c11.4-1,22.83-1.21,34.26-1.2,2.26,0,2.27,0,2.28,2.23,0,1.92,0,3.84,0,5.76C885.16,378.19,876.35,399.81,857.8,417.08Z" transform="translate(429.44 -182.91)"/></svg>