<svg id="Layer_1" data-name="Layer 1" xmlns="http://www.w3.org/2000/svg" viewBox="0 0 652.98 129.39"><defs><style>.cls-1{fill:#64676b;}.cls-2{fill:#ff6c2f;}</style></defs><path class="cls-1" d="M8,38.54a16.39,16.39,0,0,0,1,5.72,13.31,13.31,0,0,0,2.74,4.53,12.5,12.5,0,0,0,4.22,3,13.13,13.13,0,0,0,5.39,1.07,13.36,13.36,0,0,0,5.43-1.07,12.39,12.39,0,0,0,4.24-3,13.34,13.34,0,0,0,2.75-4.53,16.39,16.39,0,0,0,1-5.72,16.12,16.12,0,0,0-1-5.59A13.71,13.71,0,0,0,31,28.46a12.45,12.45,0,0,0-4.21-3,13.37,13.37,0,0,0-5.48-1.09,13.18,13.18,0,0,0-5.46,1.09,12.67,12.67,0,0,0-4.19,3A13.69,13.69,0,0,0,9,33a15.89,15.89,0,0,0-1,5.59m-7.51,0a21.69,21.69,0,0,1,1.56-8.41,18.63,18.63,0,0,1,4.33-6.39,19.27,19.27,0,0,1,6.58-4,23.48,23.48,0,0,1,8.3-1.42,23.85,23.85,0,0,1,8.38,1.42,19.4,19.4,0,0,1,6.63,4,18.2,18.2,0,0,1,4.36,6.39,21.69,21.69,0,0,1,1.56,8.41,21.42,21.42,0,0,1-1.56,8.3,19.09,19.09,0,0,1-4.36,6.47,19.61,19.61,0,0,1-6.63,4.21A22.62,22.62,0,0,1,21.29,59,22.24,22.24,0,0,1,13,57.52,19.07,19.07,0,0,1,2.08,46.84a21.42,21.42,0,0,1-1.56-8.3" transform="translate(-0.52)"/><path class="cls-1" d="M59.38,36a20.9,20.9,0,0,0,2.95-.21A8.46,8.46,0,0,0,65,34.92a5.27,5.27,0,0,0,2-1.72,5.09,5.09,0,0,0,.76-2.88,4.44,4.44,0,0,0-.71-2.6,5.13,5.13,0,0,0-1.81-1.62,7.68,7.68,0,0,0-2.49-.82A17,17,0,0,0,60,25.06H53.73V36ZM46.82,19.25H60.31a23.94,23.94,0,0,1,5.31.58,13.45,13.45,0,0,1,4.57,1.89,9.76,9.76,0,0,1,3.21,3.45,10.48,10.48,0,0,1,1.21,5.21,9.89,9.89,0,0,1-2.39,6.87,12,12,0,0,1-6.49,3.59L76.08,58.05H67.75l-9-16.44h-5V58.05h-6.9V19.25Z" transform="translate(-0.52)"/><path class="cls-1" d="M102.55,43.25l-6-15.78L90.5,43.25Zm-8.77-24h6l16.72,38.8h-7.89L105,49.17H88.14l-3.5,8.88H76.91Z" transform="translate(-0.52)"/><polygon class="cls-1" points="119.78 19.25 128.93 19.25 146.96 48.29 147.07 48.29 147.07 19.25 153.97 19.25 153.97 58.05 145.21 58.05 126.8 28.07 126.69 28.07 126.69 58.05 119.78 58.05 119.78 19.25"/><path class="cls-1" d="M196.18,56a30.31,30.31,0,0,1-6.5,2.22,37.94,37.94,0,0,1-8.14.79,23.75,23.75,0,0,1-8.6-1.5,19.87,19.87,0,0,1-6.68-4.22,19.24,19.24,0,0,1-4.36-6.47,21.42,21.42,0,0,1-1.56-8.3A21,21,0,0,1,162,30.13a18.87,18.87,0,0,1,4.43-6.39,19.92,19.92,0,0,1,6.66-4,23.77,23.77,0,0,1,8.33-1.43,25.9,25.9,0,0,1,8.52,1.34,17.43,17.43,0,0,1,6.22,3.54l-4.77,5.15a11.52,11.52,0,0,0-4.13-2.79,14.39,14.39,0,0,0-5.79-1.16,13.64,13.64,0,0,0-5.55,1.1,12.53,12.53,0,0,0-4.25,3,13.76,13.76,0,0,0-2.72,4.5,16.12,16.12,0,0,0-1,5.59,16.62,16.62,0,0,0,1,5.72,13.57,13.57,0,0,0,2.74,4.53,12.41,12.41,0,0,0,4.33,3,14.89,14.89,0,0,0,5.78,1.07,20.07,20.07,0,0,0,7.73-1.37V41.61h-8.16v-5.7h14.85V56Z" transform="translate(-0.52)"/><polygon class="cls-1" points="204.04 19.25 229.74 19.25 229.74 25.28 210.95 25.28 210.95 35.14 228.76 35.14 228.76 40.95 210.95 40.95 210.95 51.91 230.72 51.91 230.72 58.05 204.04 58.05 204.04 19.25"/><path class="cls-1" d="M258.59,52.24h6.19a24.61,24.61,0,0,0,2.85-.19,9.13,9.13,0,0,0,2.82-.8,5.51,5.51,0,0,0,2.14-1.75,5.1,5.1,0,0,0,.85-3.07c0-2-.7-3.47-2.08-4.27A12.85,12.85,0,0,0,265.05,41h-6.46V52.24Zm0-17.21h6.14A8.64,8.64,0,0,0,270,33.66a4.6,4.6,0,0,0,1.81-3.89,4,4,0,0,0-1.87-3.72,11.71,11.71,0,0,0-5.8-1.1h-5.54V35Zm-6.9-15.78h15.12a18.12,18.12,0,0,1,4.33.52,11,11,0,0,1,3.8,1.7A8.74,8.74,0,0,1,278.7,29a8,8,0,0,1-1.86,5.43A10.44,10.44,0,0,1,272,37.5v.1a10.23,10.23,0,0,1,6,2.85,8.56,8.56,0,0,1,2.36,6.31,10.47,10.47,0,0,1-1.27,5.34,10.13,10.13,0,0,1-3.31,3.48,14.29,14.29,0,0,1-4.72,1.89,25.5,25.5,0,0,1-5.39.58h-14V19.25Z" transform="translate(-0.52)"/><path class="cls-1" d="M308.07,43.25l-6-15.78L296,43.25Zm-8.77-24h6L322,58.05H314.1l-3.62-8.88H293.65l-3.5,8.88h-7.73Z" transform="translate(-0.52)"/><path class="cls-1" d="M338.37,36a21.15,21.15,0,0,0,3-.21,8.46,8.46,0,0,0,2.66-.83,5.16,5.16,0,0,0,1.94-1.72,5,5,0,0,0,.77-2.88,4.44,4.44,0,0,0-.71-2.6,5.31,5.31,0,0,0-1.81-1.62,7.68,7.68,0,0,0-2.49-.82,17.08,17.08,0,0,0-2.72-.22h-6.24V36ZM325.82,19.25H339.3a24,24,0,0,1,5.32.58,13.53,13.53,0,0,1,4.57,1.89,9.82,9.82,0,0,1,3.2,3.45,10.38,10.38,0,0,1,1.21,5.21,9.93,9.93,0,0,1-2.38,6.87,12,12,0,0,1-6.49,3.59l10.35,17.21h-8.33l-9-16.44h-5V58.05h-6.9V19.25Z" transform="translate(-0.52)"/><path class="cls-1" d="M372.84,36a21.15,21.15,0,0,0,3-.21,8.4,8.4,0,0,0,2.65-.83,5.12,5.12,0,0,0,1.95-1.72,5,5,0,0,0,.76-2.88,4.37,4.37,0,0,0-.71-2.6,5.19,5.19,0,0,0-1.8-1.62,7.77,7.77,0,0,0-2.49-.82,17.18,17.18,0,0,0-2.72-.22H367.2V36ZM360.29,19.25h13.48a23.87,23.87,0,0,1,5.31.58,13.5,13.5,0,0,1,4.58,1.89,9.94,9.94,0,0,1,3.21,3.45,10.48,10.48,0,0,1,1.2,5.21,9.93,9.93,0,0,1-2.38,6.87,12,12,0,0,1-6.49,3.59l10.35,17.21h-8.33l-9-16.44h-5V58.05h-6.9V19.25Z" transform="translate(-0.52)"/><polygon class="cls-1" points="394.24 19.25 419.93 19.25 419.93 25.28 401.14 25.28 401.14 35.14 418.95 35.14 418.95 40.95 401.14 40.95 401.14 51.91 420.92 51.91 420.92 58.05 394.24 58.05 394.24 19.25"/><polygon class="cls-1" points="427.66 19.25 434.56 19.25 434.56 51.91 451.06 51.91 451.06 58.05 427.66 58.05 427.66 19.25"/><polygon class="cls-1" points="503.11 51.36 503.17 51.36 516.16 19.25 522.18 19.25 522.18 58.05 518.24 58.05 518.24 24.35 518.13 24.35 504.1 58.05 502.02 58.05 487.99 24.35 487.88 24.35 487.88 58.05 483.93 58.05 483.93 19.25 489.96 19.25 503.11 51.36"/><polygon class="cls-1" points="536.42 54.54 557.2 54.54 557.2 58.05 532.48 58.05 532.48 19.25 556.54 19.25 556.54 22.76 536.42 22.76 536.42 36.07 555.22 36.07 555.22 39.58 536.42 39.58 536.42 54.54"/><path class="cls-1" d="M569.39,54.54h7.84a19.7,19.7,0,0,0,7.64-1.37,16,16,0,0,0,5.4-3.59,14.69,14.69,0,0,0,3.2-5.07,16.58,16.58,0,0,0,0-11.72,14.69,14.69,0,0,0-3.2-5.07,16,16,0,0,0-5.4-3.59,19.67,19.67,0,0,0-7.64-1.37h-7.84Zm-3.95-35.29h12.88a22.84,22.84,0,0,1,7.26,1.21,19.8,19.8,0,0,1,6.57,3.64,18.29,18.29,0,0,1,4.74,6.09,18.72,18.72,0,0,1,1.81,8.46,18.7,18.7,0,0,1-1.81,8.49,18.34,18.34,0,0,1-4.74,6,19.82,19.82,0,0,1-6.57,3.65,22.84,22.84,0,0,1-7.26,1.21H565.44V19.25Z" transform="translate(-0.52)"/><rect class="cls-1" x="606.07" y="19.25" width="3.95" height="38.8"/><path class="cls-1" d="M634.81,23.64l8.55,20.6H626.27ZM633,19.25l-16.77,38.8h4.33l4.22-10.2h20.05l4.27,10.2h4.39l-16.65-38.8Z" transform="translate(-0.52)"/><rect class="cls-2" x="466.06" width="2.89" height="76.15"/><polygon class="cls-1" points="271.59 118.92 282.96 118.92 282.96 121.12 269.11 121.12 269.11 96.73 271.59 96.73 271.59 118.92"/><path class="cls-1" d="M300.67,110.69a4,4,0,0,0-1.1-3.11,4.52,4.52,0,0,0-3.21-1,6.78,6.78,0,0,0-2.68.52,6.19,6.19,0,0,0-2.1,1.38l-1.32-1.55a7.8,7.8,0,0,1,2.64-1.66,10,10,0,0,1,3.7-.65,8.06,8.06,0,0,1,2.45.36,5.88,5.88,0,0,1,2,1.09,4.94,4.94,0,0,1,1.34,1.82,6.47,6.47,0,0,1,.48,2.59v7.06c0,.62,0,1.26.07,1.93a14.63,14.63,0,0,0,.21,1.69h-2.1c-.07-.39-.13-.82-.17-1.28a12.28,12.28,0,0,1-.07-1.34h-.07a6.74,6.74,0,0,1-2.5,2.32,7.38,7.38,0,0,1-3.36.71,7.62,7.62,0,0,1-1.91-.26,5.18,5.18,0,0,1-1.79-.85,4.7,4.7,0,0,1-1.34-1.52,4.47,4.47,0,0,1-.54-2.28,4.37,4.37,0,0,1,.95-3,5.71,5.71,0,0,1,2.53-1.62,14.63,14.63,0,0,1,3.64-.69c1.36-.1,2.78-.16,4.25-.16Zm-.69,2.37q-1.44,0-2.91.12a12.77,12.77,0,0,0-2.65.48,5.06,5.06,0,0,0-1.95,1,2.37,2.37,0,0,0-.76,1.82A2.88,2.88,0,0,0,292,118a2.6,2.6,0,0,0,.88,1,3.69,3.69,0,0,0,1.22.52,6.3,6.3,0,0,0,1.36.15,5.31,5.31,0,0,0,2.21-.43,4.82,4.82,0,0,0,1.62-1.17,5.31,5.31,0,0,0,1-1.71,5.93,5.93,0,0,0,.34-2v-1.2Z" transform="translate(-0.52)"/><path class="cls-1" d="M313.33,105c.05.44.08.92.11,1.44s0,1,0,1.32h.07a5.38,5.38,0,0,1,2.24-2.3,6.56,6.56,0,0,1,3.27-.87,5.65,5.65,0,0,1,4.6,1.82,7.25,7.25,0,0,1,1.53,4.82v9.89h-2.34V112.2a11.69,11.69,0,0,0-.2-2.31,4.87,4.87,0,0,0-.71-1.77,3.27,3.27,0,0,0-1.34-1.15,4.77,4.77,0,0,0-2.12-.42,4.39,4.39,0,0,0-1.81.38,4.46,4.46,0,0,0-1.57,1.15,5.65,5.65,0,0,0-1.1,2,8.42,8.42,0,0,0-.42,2.8v8.27h-2.34V108.55c0-.44,0-1,0-1.69s-.06-1.31-.11-1.86Z" transform="translate(-0.52)"/><path class="cls-1" d="M346.1,118.4a6.54,6.54,0,0,1-2.69,2.34,7.74,7.74,0,0,1-3.41.79,8.63,8.63,0,0,1-3.43-.65,7.78,7.78,0,0,1-2.61-1.79,8,8,0,0,1-1.69-2.69,9.6,9.6,0,0,1,0-6.68A7.93,7.93,0,0,1,334,107a7.58,7.58,0,0,1,2.62-1.79,8.55,8.55,0,0,1,3.42-.66,7.66,7.66,0,0,1,3.41.81,6.7,6.7,0,0,1,2.7,2.4h.06V95.07h2.35v26.05h-2.35V118.4Zm-12-5.34a7.54,7.54,0,0,0,.41,2.53,6.23,6.23,0,0,0,1.19,2.07,5.43,5.43,0,0,0,1.91,1.37,6.27,6.27,0,0,0,2.59.51,6,6,0,0,0,2.48-.51,5.9,5.9,0,0,0,2-1.36,6.06,6.06,0,0,0,1.29-2,6.94,6.94,0,0,0,.47-2.56,7,7,0,0,0-.47-2.57,6.31,6.31,0,0,0-1.29-2.06,5.81,5.81,0,0,0-2-1.38,6.55,6.55,0,0,0-5.07,0,5.61,5.61,0,0,0-1.91,1.39,6.23,6.23,0,0,0-1.19,2.07,7.76,7.76,0,0,0-.41,2.53" transform="translate(-0.52)"/><path class="cls-1" d="M362,105.46a6,6,0,0,1,3.19-.88,7.12,7.12,0,0,1,1.35.14,4.13,4.13,0,0,1,1.38.54,4.89,4.89,0,0,1,1.25,1,6.2,6.2,0,0,1,1,1.68,6.11,6.11,0,0,1,2.25-2.53,6.44,6.44,0,0,1,3.4-.88,5.68,5.68,0,0,1,4.6,1.83,7.25,7.25,0,0,1,1.53,4.82v9.89h-2.34V112.2a7.86,7.86,0,0,0-.95-4.11,3.47,3.47,0,0,0-3.22-1.54,4,4,0,0,0-3.57,1.87,6.23,6.23,0,0,0-.77,1.91,10,10,0,0,0-.24,2.21v8.58h-2.34v-9.41a11.6,11.6,0,0,0-.18-2.13,4.31,4.31,0,0,0-.6-1.64,2.78,2.78,0,0,0-1.19-1,4.34,4.34,0,0,0-1.93-.37,4.13,4.13,0,0,0-1.67.38,4.38,4.38,0,0,0-1.51,1.16,5.93,5.93,0,0,0-1.09,2,8.45,8.45,0,0,0-.41,2.81v8.27h-2.35V108.54q0-.65,0-1.68c0-.69-.06-1.31-.11-1.86h2.24c.05.43.08.92.11,1.44s0,1,0,1.31h.07a5.54,5.54,0,0,1,2.12-2.29" transform="translate(-0.52)"/><path class="cls-1" d="M400.19,110.69a4,4,0,0,0-1.1-3.11,4.54,4.54,0,0,0-3.21-1,6.78,6.78,0,0,0-2.68.52,6.19,6.19,0,0,0-2.1,1.38l-1.31-1.55a7.66,7.66,0,0,1,2.63-1.66,10,10,0,0,1,3.71-.65,8,8,0,0,1,2.44.36,5.88,5.88,0,0,1,2,1.09,4.83,4.83,0,0,1,1.34,1.82,6.47,6.47,0,0,1,.48,2.59v7.06c0,.62,0,1.26.07,1.93a14.63,14.63,0,0,0,.21,1.69h-2.1c-.07-.39-.13-.82-.17-1.28a12.28,12.28,0,0,1-.07-1.34h-.07a6.81,6.81,0,0,1-2.5,2.32,7.38,7.38,0,0,1-3.36.71,7.56,7.56,0,0,1-1.91-.26,5.1,5.1,0,0,1-1.79-.85,4.7,4.7,0,0,1-1.34-1.52,4.47,4.47,0,0,1-.54-2.28,4.37,4.37,0,0,1,.95-3,5.77,5.77,0,0,1,2.53-1.62,14.63,14.63,0,0,1,3.64-.69c1.36-.1,2.78-.16,4.25-.16v-.51Zm-.69,2.37q-1.44,0-2.91.12a12.77,12.77,0,0,0-2.65.48,5.06,5.06,0,0,0-1.95,1,2.37,2.37,0,0,0-.76,1.82,2.88,2.88,0,0,0,.33,1.45,2.6,2.6,0,0,0,.88,1,3.6,3.6,0,0,0,1.22.52,6.3,6.3,0,0,0,1.36.15,5.31,5.31,0,0,0,2.21-.43,4.82,4.82,0,0,0,1.62-1.17,5.21,5.21,0,0,0,1-1.71,5.93,5.93,0,0,0,.34-2v-1.2Z" transform="translate(-0.52)"/><path class="cls-1" d="M411.07,106.86c0-.69-.06-1.31-.1-1.86h2.23c.05.44.09.92.11,1.44s0,1,0,1.31h.07a5.62,5.62,0,0,1,2.07-2.29,5.69,5.69,0,0,1,3.1-.88c.3,0,.57,0,.81,0a4.17,4.17,0,0,1,.74.14l-.31,2.23a4.76,4.76,0,0,0-.69-.13,6.2,6.2,0,0,0-1-.07,4.8,4.8,0,0,0-1.8.34,3.87,3.87,0,0,0-1.5,1.09,5.84,5.84,0,0,0-1,1.89,8.69,8.69,0,0,0-.39,2.77v8.25H411.1V108.55c0-.44,0-1,0-1.69" transform="translate(-0.52)"/><polygon class="cls-1" points="428.56 112.27 428.66 112.27 436.1 105 439.48 105 431.35 112.37 440.31 121.12 436.86 121.12 428.66 112.65 428.56 112.65 428.56 121.12 426.22 121.12 426.22 95.08 428.56 95.08 428.56 112.27"/><path class="cls-1" d="M459.09,121.12h-2.72l10.54-24.39h2.41l10.47,24.39H477l-2.69-6.41H461.74Zm3.58-8.68h10.75l-5.37-13Z" transform="translate(-0.52)"/><path class="cls-1" d="M497.6,118.4a6.54,6.54,0,0,1-2.69,2.34,7.77,7.77,0,0,1-3.41.79,8.63,8.63,0,0,1-3.43-.65,7.92,7.92,0,0,1-2.62-1.79,8,8,0,0,1-1.68-2.69,9.48,9.48,0,0,1,0-6.69,7.81,7.81,0,0,1,4.3-4.48,8.77,8.77,0,0,1,3.43-.65,7.66,7.66,0,0,1,3.41.81,6.61,6.61,0,0,1,2.69,2.4h.07V95.07H500v26.05h-2.34V118.4Zm-12-5.34a7.54,7.54,0,0,0,.41,2.53,6.23,6.23,0,0,0,1.19,2.07,5.34,5.34,0,0,0,1.91,1.37,6.25,6.25,0,0,0,2.58.51,6.09,6.09,0,0,0,5.74-3.92,6.93,6.93,0,0,0,.46-2.56,7,7,0,0,0-.46-2.57,6.17,6.17,0,0,0-1.3-2.06,5.71,5.71,0,0,0-2-1.38,6.53,6.53,0,0,0-5.06,0,5.51,5.51,0,0,0-1.91,1.39,6.06,6.06,0,0,0-1.19,2.07,7.5,7.5,0,0,0-.41,2.53" transform="translate(-0.52)"/><polygon class="cls-1" points="514.44 121.12 511.86 121.12 505.28 105 507.9 105 513.13 118.64 513.2 118.64 518.47 105 520.99 105 514.44 121.12"/><path class="cls-1" d="M541.22,112.58v.52c0,.18,0,.37,0,.58H527.81a6.36,6.36,0,0,0,.49,2.27,5.42,5.42,0,0,0,1.24,1.86,5.88,5.88,0,0,0,1.86,1.26,5.7,5.7,0,0,0,2.3.47,5.81,5.81,0,0,0,3.16-.85,6.35,6.35,0,0,0,2-1.94l1.76,1.37a8.71,8.71,0,0,1-3.19,2.62,8.87,8.87,0,0,1-3.74.79,8.65,8.65,0,0,1-3.32-.63,7.79,7.79,0,0,1-2.63-1.78,8.11,8.11,0,0,1-1.74-2.69,8.68,8.68,0,0,1-.64-3.37,8.91,8.91,0,0,1,.62-3.38,8.37,8.37,0,0,1,1.72-2.69,8,8,0,0,1,5.79-2.41,8.29,8.29,0,0,1,3.34.64,6.91,6.91,0,0,1,2.41,1.72,7.46,7.46,0,0,1,1.47,2.54,9.46,9.46,0,0,1,.5,3.1m-2.38-.76a5.77,5.77,0,0,0-1.47-3.77,4.94,4.94,0,0,0-3.87-1.5,5.36,5.36,0,0,0-2.17.43,5.81,5.81,0,0,0-3,2.86,5.47,5.47,0,0,0-.51,2Z" transform="translate(-0.52)"/><path class="cls-1" d="M546.9,106.86c0-.69-.06-1.31-.1-1.86H549c.05.44.08.92.11,1.44s0,1,0,1.31h.07a5.62,5.62,0,0,1,2.07-2.29,5.69,5.69,0,0,1,3.1-.88c.3,0,.56,0,.81,0a4,4,0,0,1,.74.14l-.31,2.23a4.76,4.76,0,0,0-.69-.13,6.2,6.2,0,0,0-1-.07,4.84,4.84,0,0,0-1.8.34,3.76,3.76,0,0,0-1.49,1.09,5.67,5.67,0,0,0-1,1.89,8.69,8.69,0,0,0-.39,2.77v8.25h-2.35V108.55c0-.44,0-1,0-1.69" transform="translate(-0.52)"/><path class="cls-1" d="M570.33,107h-4.55v9.4a5.6,5.6,0,0,0,.17,1.49,2.14,2.14,0,0,0,.5.91,1.71,1.71,0,0,0,.78.45,3.6,3.6,0,0,0,1,.12,4.23,4.23,0,0,0,1-.14,5.12,5.12,0,0,0,1-.38l.11,2a6.54,6.54,0,0,1-1.29.37,8.41,8.41,0,0,1-1.47.12,5.69,5.69,0,0,1-1.38-.18,3.41,3.41,0,0,1-1.34-.65,3.48,3.48,0,0,1-1-1.31,5.14,5.14,0,0,1-.39-2.17V107h-3.35v-2h3.35v-4.55h2.34V105h4.55v2Z" transform="translate(-0.52)"/><path class="cls-1" d="M580.28,98.8a1.51,1.51,0,0,1-.51,1.18,1.69,1.69,0,0,1-1.14.47,1.67,1.67,0,0,1-1.14-.47A1.52,1.52,0,0,1,577,98.8a1.54,1.54,0,0,1,.52-1.19,1.66,1.66,0,0,1,1.14-.46,1.68,1.68,0,0,1,1.14.46,1.53,1.53,0,0,1,.51,1.19m-.48,22.32h-2.34V105h2.34Z" transform="translate(-0.52)"/><path class="cls-1" d="M596.68,108.82a4.08,4.08,0,0,0-1.56-1.64,4.58,4.58,0,0,0-2.4-.64,5.82,5.82,0,0,0-1.24.14,3.27,3.27,0,0,0-1.1.45,2.45,2.45,0,0,0-.78.79,2.19,2.19,0,0,0-.29,1.14,2,2,0,0,0,.93,1.74,9.11,9.11,0,0,0,2.93,1,9.6,9.6,0,0,1,4.22,1.7,3.69,3.69,0,0,1,1.36,3,4.75,4.75,0,0,1-.53,2.33,4.64,4.64,0,0,1-1.4,1.55,5.59,5.59,0,0,1-1.94.86,9.63,9.63,0,0,1-2.19.26,8.65,8.65,0,0,1-3.55-.76,6.42,6.42,0,0,1-2.82-2.38l1.85-1.38a5.25,5.25,0,0,0,4.48,2.52,6.8,6.8,0,0,0,1.45-.14,3.22,3.22,0,0,0,1.2-.48,2.65,2.65,0,0,0,.83-.87,2.59,2.59,0,0,0,.31-1.33,2,2,0,0,0-1.22-1.91,15.39,15.39,0,0,0-3.53-1.19c-.48-.12-1-.26-1.53-.44a5.27,5.27,0,0,1-1.5-.75,4.3,4.3,0,0,1-1.14-1.26,3.69,3.69,0,0,1-.44-1.9,4.12,4.12,0,0,1,1.77-3.56,5.86,5.86,0,0,1,1.84-.85,8.42,8.42,0,0,1,2.14-.27,7.59,7.59,0,0,1,3.27.75,5.36,5.36,0,0,1,2.38,2.14Z" transform="translate(-0.52)"/><path class="cls-1" d="M608.32,98.8a1.51,1.51,0,0,1-.51,1.18,1.62,1.62,0,0,1-2.28,0A1.51,1.51,0,0,1,605,98.8a1.53,1.53,0,0,1,.51-1.19,1.64,1.64,0,0,1,2.28,0,1.53,1.53,0,0,1,.51,1.19m-.47,22.32H605.5V105h2.35Z" transform="translate(-0.52)"/><path class="cls-1" d="M618.25,105c0,.44.08.92.1,1.44s0,1,0,1.32h.07a5.27,5.27,0,0,1,2.24-2.3,6.56,6.56,0,0,1,3.27-.87,5.66,5.66,0,0,1,4.6,1.82,7.25,7.25,0,0,1,1.53,4.82v9.89h-2.34V112.2a11.65,11.65,0,0,0-.21-2.31,4.86,4.86,0,0,0-.7-1.77A3.36,3.36,0,0,0,625.5,107a4.71,4.71,0,0,0-2.12-.42,4.42,4.42,0,0,0-1.81.38,4.64,4.64,0,0,0-1.57,1.15,5.82,5.82,0,0,0-1.1,2,8.7,8.7,0,0,0-.41,2.8v8.27h-2.34V108.55c0-.44,0-1,0-1.69s-.06-1.31-.1-1.86Z" transform="translate(-0.52)"/><path class="cls-1" d="M637.71,124.36a7.84,7.84,0,0,0,2.64,2.1,7.52,7.52,0,0,0,3.53.86,7.73,7.73,0,0,0,2.93-.5,5,5,0,0,0,1.94-1.36,5.3,5.3,0,0,0,1.09-2,8.57,8.57,0,0,0,.35-2.47v-3h-.07a6.15,6.15,0,0,1-2.64,2.34,7.72,7.72,0,0,1-3.46.83,9.19,9.19,0,0,1-3.43-.62,7.86,7.86,0,0,1-2.62-1.7,7.67,7.67,0,0,1-1.68-2.6,8.7,8.7,0,0,1-.61-3.28,8.48,8.48,0,0,1,.61-3.23A8.13,8.13,0,0,1,638,107a7.92,7.92,0,0,1,2.62-1.79,8.6,8.6,0,0,1,3.43-.65,7.73,7.73,0,0,1,3.44.82,6.33,6.33,0,0,1,2.66,2.38h.07V105h2.34v16a11.73,11.73,0,0,1-.36,2.78,7.13,7.13,0,0,1-1.35,2.73,7.56,7.56,0,0,1-2.67,2.06,10,10,0,0,1-4.37.83,10.86,10.86,0,0,1-4.27-.86,10.31,10.31,0,0,1-3.48-2.38Zm.45-11.51a6.86,6.86,0,0,0,.42,2.41,6,6,0,0,0,1.18,2,5.5,5.5,0,0,0,1.91,1.36,6.43,6.43,0,0,0,2.59.5,6.71,6.71,0,0,0,2.48-.45,5.53,5.53,0,0,0,2-1.27,5.85,5.85,0,0,0,1.29-2,6.8,6.8,0,0,0,.47-2.57,6.31,6.31,0,0,0-.47-2.41,6.48,6.48,0,0,0-1.29-2,6.23,6.23,0,0,0-2-1.37,5.86,5.86,0,0,0-2.48-.52,6.11,6.11,0,0,0-2.59.52,5.7,5.7,0,0,0-1.91,1.37,6,6,0,0,0-1.18,2,6.9,6.9,0,0,0-.42,2.41" transform="translate(-0.52)"/></svg>