<svg width="85" height="57" viewBox="0 0 85 57" fill="none" xmlns="http://www.w3.org/2000/svg">
<mask id="mask0_969_638" style="mask-type:alpha" maskUnits="userSpaceOnUse" x="0" y="0" width="85" height="57">
<rect width="85" height="57" fill="#D9D9D9"/>
</mask>
<g mask="url(#mask0_969_638)">
<path d="M80.8461 34.9424C77.9743 34.9424 76.1931 33.2124 76.1931 30.4262C76.1931 27.7778 78.0003 25.9985 80.6907 25.9985C82.0866 25.9985 83.2144 26.4275 83.9533 27.239C84.7425 28.1063 85.097 29.4268 84.977 31.06L84.9705 31.153H78.1883L78.2032 31.2656C78.3567 32.4373 79.4083 33.1938 80.8805 33.1938C81.5496 33.1938 82.5379 32.9723 83.1288 32.4847L83.1977 32.428L84.4261 33.6377L84.3498 33.7084C83.5122 34.4808 82.202 34.9424 80.8461 34.9424ZM83.1177 29.5785L83.1037 29.4668C82.9641 28.3575 82.0884 27.6987 80.7586 27.6987C79.4921 27.6987 78.5503 28.3557 78.2413 29.4556L78.206 29.5822H83.1177V29.5785ZM62.0676 34.908C59.4815 34.908 57.6752 33.0943 57.6752 30.497C57.6752 27.9416 59.515 26.086 62.049 26.086C64.6147 26.086 66.4768 27.9406 66.4768 30.497C66.4777 33.0933 64.6621 34.9071 62.0676 34.9071V34.908ZM62.0676 27.8355C60.4586 27.8355 59.6174 29.1746 59.6174 30.497C59.6174 31.77 60.3842 33.1408 62.0676 33.1408C63.7511 33.1408 64.5188 31.77 64.5188 30.497C64.5188 29.1876 63.6012 27.8345 62.0676 27.8345V27.8355ZM52.3457 34.908C49.7596 34.908 47.9533 33.0943 47.9533 30.497C47.9533 27.9416 49.7931 26.086 52.3271 26.086C54.8937 26.086 56.7558 27.9406 56.7558 30.497C56.7521 33.0933 54.943 34.9071 52.3466 34.9071L52.3457 34.908ZM52.3457 27.8355C50.7367 27.8355 49.8955 29.1746 49.8955 30.497C49.8955 31.77 50.6623 33.1408 52.3457 33.1408C54.0292 33.1408 54.7978 31.7691 54.7978 30.496C54.7978 29.1876 53.8803 27.8345 52.3466 27.8345L52.3457 27.8355ZM20.9335 34.854C18.8192 34.854 17.4531 33.2264 17.4531 30.7064V26.259H19.3953V30.6868C19.3953 32.1544 20.2533 33.1064 21.5831 33.1064C22.9129 33.1064 23.8938 32.0222 23.8938 30.5854V26.259H25.8173V34.7274H24.0883L23.9338 33.4386L23.7895 33.58C22.8617 34.4985 22.0596 34.854 20.9335 34.854ZM31.2734 34.8205C29.4717 34.8205 28.4378 33.7038 28.4378 31.7579V27.9229H26.8242V26.2786H28.4388V24.0405L30.3819 23.8339V26.2795H32.7679V27.9239H30.3632V31.7607C30.3632 32.6048 30.809 33.0887 31.5851 33.0887C31.8868 33.0804 32.1845 33.0173 32.4636 32.9026L32.5613 32.8635L33.0945 34.4911L33.0015 34.5246C32.5021 34.7132 31.9737 34.8134 31.4399 34.8205C31.385 34.8205 31.3283 34.8205 31.2734 34.8205ZM70.2066 34.747L66.5894 26.2414H68.7065L69.8734 29.0434L71.2991 32.9454L72.708 29.0741L73.875 26.2432H75.9921L72.3916 34.7488H70.2066V34.747ZM44.7242 34.7274V25.6188L40.5737 31.1521H40.2173L36.1543 25.5955V34.7274H34.0372V22.6465H36.5582L40.4518 27.9983L44.3454 22.6465H46.8413V34.7274H44.7242Z" fill="#001464"/>
<path d="M3.86221 22C3.75689 22.0002 3.65597 22.0422 3.5815 22.1167C3.50703 22.1911 3.46509 22.2921 3.46484 22.3974V22.8292C3.46509 22.9345 3.50703 23.0354 3.5815 23.1099C3.65597 23.1843 3.75689 23.2263 3.86221 23.2265H9.89804V22H3.86221Z" fill="#001464"/>
<path d="M9.61516 22C8.25534 22.0001 6.93 22.4279 5.82672 23.2228C5.89925 23.2529 5.96127 23.3037 6.00499 23.369C6.0487 23.4342 6.07215 23.5109 6.0724 23.5895V24.025C6.07215 24.1303 6.03021 24.2312 5.95574 24.3057C5.88127 24.3801 5.78034 24.4221 5.67503 24.4223H4.55088C3.60512 25.5819 3.089 27.0327 3.08984 28.529C3.08984 32.1891 6.01749 35.167 9.61423 35.167C13.211 35.167 16.1396 32.1891 16.1396 28.529C16.1386 26.7985 15.451 25.1391 14.2278 23.915C13.0046 22.691 11.3457 22.0022 9.61516 22ZM9.61516 33.3337C7.02625 33.3309 4.91846 31.1766 4.91846 28.5253C4.91846 27.2775 5.41417 26.0807 6.29655 25.1983C7.17892 24.316 8.37568 23.8202 9.62354 23.8202C10.8714 23.8202 12.0682 24.316 12.9505 25.1983C13.8329 26.0807 14.3286 27.2775 14.3286 28.5253C14.3305 31.1766 12.2152 33.3309 9.61516 33.3309V33.3337Z" fill="#001464"/>
<path d="M3.18936 24.4121C3.08404 24.4124 2.98312 24.4543 2.90865 24.5288C2.83418 24.6032 2.79224 24.7042 2.79199 24.8095V25.2413C2.79224 25.3466 2.83418 25.4475 2.90865 25.522C2.98312 25.5964 3.08404 25.6384 3.18936 25.6386H5.87412V24.4121H3.18936Z" fill="#001464"/>
<path d="M0.397363 24.4453H1.41264V25.6718H0.397363C0.292051 25.6716 0.191123 25.6296 0.116656 25.5552C0.0421896 25.4807 0.000245769 25.3798 0 25.2745V24.8427C0.000245769 24.7374 0.0421896 24.6364 0.116656 24.562C0.191123 24.4875 0.292051 24.4456 0.397363 24.4453Z" fill="#001464"/>
<path d="M1.74575 25.6718H0.730469V24.4453H1.74668C1.85191 24.4458 1.9527 24.4878 2.02711 24.5622C2.10153 24.6367 2.14355 24.7374 2.14404 24.8427V25.2745C2.14379 25.3799 2.10172 25.481 2.02705 25.5555C1.95239 25.63 1.85122 25.6718 1.74575 25.6718Z" fill="#001464"/>
</g>
</svg>
