<?xml version="1.0" encoding="utf-8"?>
<!-- Generator: Adobe Illustrator 25.4.1, SVG Export Plug-In . SVG Version: 6.00 Build 0)  -->
<svg version="1.1" id="Layer_1" xmlns="http://www.w3.org/2000/svg" xmlns:xlink="http://www.w3.org/1999/xlink" x="0px" y="0px"
	 viewBox="0 0 85 57" style="enable-background:new 0 0 85 57;" xml:space="preserve">
<style type="text/css">
	.st0{fill:#D9D9D9;filter:url(#Adobe_OpacityMaskFilter);}
	.st1{mask:url(#mask0_969_638_00000132777481858633947240000003923199318913112457_);}
	.st2{fill:#7D7D7D;}
</style>
<defs>
	<filter id="Adobe_OpacityMaskFilter" filterUnits="userSpaceOnUse" x="0" y="22" width="85" height="13.2">
		<feColorMatrix  type="matrix" values="1 0 0 0 0  0 1 0 0 0  0 0 1 0 0  0 0 0 1 0"/>
	</filter>
</defs>
<mask maskUnits="userSpaceOnUse" x="0" y="22" width="85" height="13.2" id="mask0_969_638_00000132777481858633947240000003923199318913112457_">
	<rect class="st0" width="85" height="57"/>
</mask>
<g class="st1">
	<path class="st2" d="M80.8,34.9c-2.9,0-4.7-1.7-4.7-4.5c0-2.6,1.8-4.4,4.5-4.4c1.4,0,2.5,0.4,3.3,1.2c0.8,0.9,1.1,2.2,1,3.8l0,0.1
		h-6.8l0,0.1c0.2,1.2,1.2,1.9,2.7,1.9c0.7,0,1.7-0.2,2.2-0.7l0.1-0.1l1.2,1.2l-0.1,0.1C83.5,34.5,82.2,34.9,80.8,34.9z M83.1,29.6
		l0-0.1c-0.1-1.1-1-1.8-2.3-1.8c-1.3,0-2.2,0.7-2.5,1.8l0,0.1L83.1,29.6L83.1,29.6z M62.1,34.9c-2.6,0-4.4-1.8-4.4-4.4
		c0-2.6,1.8-4.4,4.4-4.4c2.6,0,4.4,1.9,4.4,4.4C66.5,33.1,64.7,34.9,62.1,34.9L62.1,34.9z M62.1,27.8c-1.6,0-2.5,1.3-2.5,2.7
		c0,1.3,0.8,2.6,2.5,2.6c1.7,0,2.5-1.4,2.5-2.6C64.5,29.2,63.6,27.8,62.1,27.8L62.1,27.8z M52.3,34.9c-2.6,0-4.4-1.8-4.4-4.4
		c0-2.6,1.8-4.4,4.4-4.4c2.6,0,4.4,1.9,4.4,4.4C56.8,33.1,54.9,34.9,52.3,34.9L52.3,34.9z M52.3,27.8c-1.6,0-2.5,1.3-2.5,2.7
		c0,1.3,0.8,2.6,2.5,2.6c1.7,0,2.5-1.4,2.5-2.6C54.8,29.2,53.9,27.8,52.3,27.8L52.3,27.8z M20.9,34.9c-2.1,0-3.5-1.6-3.5-4.1v-4.4
		h1.9v4.4c0,1.5,0.9,2.4,2.2,2.4c1.3,0,2.3-1.1,2.3-2.5v-4.3h1.9v8.5h-1.7l-0.2-1.3l-0.1,0.1C22.9,34.5,22.1,34.9,20.9,34.9z
		 M31.3,34.8c-1.8,0-2.8-1.1-2.8-3.1v-3.8h-1.6v-1.6h1.6V24l1.9-0.2v2.4h2.4v1.6h-2.4v3.8c0,0.8,0.4,1.3,1.2,1.3
		c0.3,0,0.6-0.1,0.9-0.2l0.1,0l0.5,1.6l-0.1,0c-0.5,0.2-1,0.3-1.6,0.3C31.4,34.8,31.3,34.8,31.3,34.8z M70.2,34.7l-3.6-8.5h2.1
		l1.2,2.8l1.4,3.9l1.4-3.9l1.2-2.8H76l-3.6,8.5L70.2,34.7L70.2,34.7z M44.7,34.7v-9.1l-4.2,5.5h-0.4l-4.1-5.6v9.1H34V22.6h2.5
		l3.9,5.4l3.9-5.4h2.5v12.1H44.7z"/>
	<path class="st2" d="M3.9,22c-0.1,0-0.2,0-0.3,0.1c-0.1,0.1-0.1,0.2-0.1,0.3v0.4c0,0.1,0,0.2,0.1,0.3c0.1,0.1,0.2,0.1,0.3,0.1h6V22
		H3.9z"/>
	<path class="st2" d="M9.6,22c-1.4,0-2.7,0.4-3.8,1.2c0.1,0,0.1,0.1,0.2,0.1c0,0.1,0.1,0.1,0.1,0.2V24c0,0.1,0,0.2-0.1,0.3
		c-0.1,0.1-0.2,0.1-0.3,0.1H4.6c-0.9,1.2-1.5,2.6-1.5,4.1c0,3.7,2.9,6.6,6.5,6.6c3.6,0,6.5-3,6.5-6.6c0-1.7-0.7-3.4-1.9-4.6
		C13,22.7,11.3,22,9.6,22z M9.6,33.3c-2.6,0-4.7-2.2-4.7-4.8c0-1.2,0.5-2.4,1.4-3.3c0.9-0.9,2.1-1.4,3.3-1.4s2.4,0.5,3.3,1.4
		c0.9,0.9,1.4,2.1,1.4,3.3C14.3,31.2,12.2,33.3,9.6,33.3L9.6,33.3z"/>
	<path class="st2" d="M3.2,24.4c-0.1,0-0.2,0-0.3,0.1c-0.1,0.1-0.1,0.2-0.1,0.3v0.4c0,0.1,0,0.2,0.1,0.3c0.1,0.1,0.2,0.1,0.3,0.1
		h2.7v-1.2H3.2z"/>
	<path class="st2" d="M0.4,24.4h1v1.2h-1c-0.1,0-0.2,0-0.3-0.1C0,25.5,0,25.4,0,25.3v-0.4c0-0.1,0-0.2,0.1-0.3
		C0.2,24.5,0.3,24.4,0.4,24.4z"/>
	<path class="st2" d="M1.7,25.7h-1v-1.2h1c0.1,0,0.2,0,0.3,0.1c0.1,0.1,0.1,0.2,0.1,0.3v0.4c0,0.1,0,0.2-0.1,0.3
		C2,25.6,1.9,25.7,1.7,25.7z"/>
</g>
</svg>
