<?xml version="1.0" encoding="utf-8"?>
<!-- Generator: Adobe Illustrator 23.0.6, SVG Export Plug-In . SVG Version: 6.00 Build 0)  -->
<svg version="1.1" id="Layer_1" xmlns="http://www.w3.org/2000/svg" xmlns:xlink="http://www.w3.org/1999/xlink" x="0px" y="0px"
	 viewBox="0 0 94 9" style="enable-background:new 0 0 94 9;" xml:space="preserve">
<style type="text/css">
	.st0{fill:#FFFFFF;}
</style>
<path class="st0" d="M0.5,0.9v7.8h2.2V6.3h1.9c4.1,0,6.2-1.3,6.2-2.8c0-1.6-2.3-2.6-6.1-2.6H0.5z M2.6,5.4V1.7h1.7
	c1.8,0,4.1,0.3,4.1,1.7c0,1-0.8,2-4.3,2H2.6z"/>
<path class="st0" d="M23.1,8.7v-1h-5.3c-1.1,0-1.5-0.5-1.5-1.4V5.2h6.2v-1h-6.2V1.8h6.5v-1h-8.7v5.5c0,1.5,0.6,2.3,2.6,2.3H23.1z"/>
<path class="st0" d="M36.9,0.9h-2.2v6.6c-0.6,0.2-1.4,0.4-2.5,0.4c-1.7,0-3.3-0.4-3.3-1.9V0.9h-2.2v5.3c0,2.2,2.2,2.8,4.5,2.8
	c2.3,0,4.1-0.5,5.6-1.1V0.9z"/>
<path class="st0" d="M42.9,4.8c0-2.2,1.8-3.2,4.1-3.2c1.8,0,3.3,0.5,4.6,1V1.3c-1.4-0.4-2.8-0.7-4.6-0.7c-3.6,0-6.5,1.7-6.5,4.2
	c0,2.7,2.9,4.1,6.5,4.1c1.8,0,3.7-0.4,4.8-0.7V5.2h-2.1v2.3c-0.8,0.3-1.3,0.5-2.6,0.5C44.7,7.9,42.9,6.7,42.9,4.8z"/>
<path class="st0" d="M64.7,8.7v-1h-5.3c-1.1,0-1.5-0.5-1.5-1.4V5.2h6.2v-1h-6.2V1.8h6.5v-1h-8.7v5.5c0,1.5,0.6,2.3,2.6,2.3H64.7z"/>
<path class="st0" d="M74,0.6c-3.6,0-6.6,1.7-6.6,4.2c0,2.6,3,4.1,6.6,4.1c3.6,0,6.5-1.5,6.5-4.1C80.6,2.3,77.6,0.6,74,0.6z M74,8.1
	c-2.5,0-4.1-1.3-4.1-3.2c0-2.2,1.8-3.2,4.1-3.2c2.2,0,4.1,1.1,4.1,3.2C78.1,6.8,76.5,8.1,74,8.1z"/>
<path class="st0" d="M82.3,2h4.3v6.7h2.2V2h4.3V0.9H82.3V2z"/>
</svg>
