<svg width="94" height="9" viewBox="0 0 94 9" fill="none" xmlns="http://www.w3.org/2000/svg">
<path d="M0.473633 0.854339V8.67981H2.62847V6.27242H4.55883C8.6978 6.27242 10.807 4.94421 10.807 3.47569C10.807 1.89844 8.5423 0.854339 4.7459 0.854339H0.473633ZM2.62847 5.42826V1.72773H4.32382C6.07528 1.72773 8.38679 2.02354 8.38679 3.47569C8.38679 4.46133 7.63617 5.42826 4.04321 5.42826H2.62847Z" fill="#7C7D7D"/>
<path d="M23.0942 8.68347V7.699H17.7837C16.6426 7.699 16.314 7.18222 16.314 6.30765V5.16183H22.547V4.1797H16.314V1.84013H22.8288V0.858001H14.1592V6.35442C14.1592 7.82411 14.7683 8.68347 16.7525 8.68347H23.0942Z" fill="#7C7D7D"/>
<path d="M36.8846 0.858055H34.7298V7.46288C34.1358 7.66866 33.3408 7.85456 32.1832 7.85456C30.5277 7.85456 28.8873 7.43365 28.8873 5.97916V0.858055H26.7324V6.13583C26.7324 8.29301 28.8873 8.9314 31.2619 8.9314C33.5267 8.9314 35.3705 8.46255 36.8846 7.82416V0.858055Z" fill="#7C7D7D"/>
<path d="M42.8766 4.79279C42.8766 2.62158 44.7205 1.60437 46.9688 1.60437C48.8115 1.60437 50.2344 2.13636 51.5778 2.59118V1.27817C50.1561 0.858422 48.8115 0.622243 46.9688 0.622243C43.3618 0.622243 40.4248 2.27783 40.4248 4.79279C40.4248 7.45038 43.3618 8.93176 46.9688 8.93176C48.7671 8.93176 50.6565 8.55879 51.8128 8.26298V5.16109H49.6884V7.48078C48.9074 7.74502 48.3438 7.94963 47.1267 7.94963C44.6737 7.94963 42.8766 6.73249 42.8766 4.79279Z" fill="#7C7D7D"/>
<path d="M64.6753 8.68347V7.699H59.3624C58.2236 7.699 57.8951 7.18222 57.8951 6.30765V5.16183H64.1293V4.1797H57.8951V1.84013H64.4099V0.858001H55.7402V6.35442C55.7402 7.82411 56.3482 8.68347 58.3324 8.68347H64.6753Z" fill="#7C7D7D"/>
<path d="M74.0265 0.621999C70.4195 0.621999 67.4673 2.30916 67.4673 4.83347C67.4673 7.48054 70.4195 8.93152 74.0265 8.93152C77.6358 8.93152 80.5717 7.48054 80.5717 4.83347C80.5717 2.30916 77.6358 0.621999 74.0265 0.621999ZM74.0265 8.05812C71.5747 8.05812 69.9191 6.79305 69.9191 4.83347C69.9191 2.6833 71.7629 1.60413 74.0265 1.60413C76.2761 1.60413 78.1187 2.6833 78.1187 4.83347C78.1187 6.79305 76.4631 8.05812 74.0265 8.05812Z" fill="#7C7D7D"/>
<path d="M82.3403 1.98056H86.636V8.68359H88.792V1.98056H93.0876V0.858124H82.3403V1.98056Z" fill="#7C7D7D"/>
</svg>
