<svg width="85" height="57" viewBox="0 0 85 57" fill="none" xmlns="http://www.w3.org/2000/svg">
<mask id="mask0_969_637" style="mask-type:alpha" maskUnits="userSpaceOnUse" x="0" y="0" width="85" height="57">
<rect width="85" height="57" fill="#D9D9D9"/>
</mask>
<g mask="url(#mask0_969_637)">
<path d="M63.1341 25.487C63.0809 25.2359 62.8603 25.061 62.6093 25.0686H61.2173C61.1108 25.0686 61.0043 25.0914 60.9054 25.1447C60.7609 25.2283 60.662 25.3653 60.624 25.525L59.2548 30.203L57.8932 26.955C57.7867 26.6508 57.6422 26.4378 57.4521 26.2932C57.2619 26.1487 56.9957 26.0727 56.6686 26.0727H55.6417C55.3907 26.0651 55.1473 26.1335 54.9343 26.2704C54.7289 26.4073 54.5768 26.6355 54.4627 26.955L53.1392 30.1802L51.732 25.5098C51.6635 25.2512 51.4353 25.0686 51.1691 25.0686H49.7847C49.5337 25.061 49.3131 25.2359 49.2598 25.4794C49.2294 25.6087 49.2446 25.7456 49.2827 25.8749L51.1767 32.0666C51.2223 32.2263 51.2832 32.3785 51.3516 32.5306C51.4201 32.6751 51.519 32.8044 51.6407 32.9109C51.7624 33.0098 51.8993 33.0859 52.0514 33.1239C52.1883 33.1543 52.3253 33.1695 52.4546 33.1695H53.6336C53.9226 33.1771 54.1965 33.0783 54.4095 32.8805C54.5768 32.7208 54.7137 32.4697 54.843 32.1046L56.1742 28.9403L57.4901 32.1046C57.6194 32.4773 57.7563 32.7208 57.9237 32.8805C58.129 33.0783 58.4105 33.1771 58.6995 33.1695H59.909C60.1904 33.1771 60.4642 33.0783 60.6772 32.8957C60.8598 32.736 60.9967 32.4697 61.1184 32.0818L63.0961 25.8901C63.1493 25.7532 63.1569 25.6163 63.1341 25.487Z" fill="#001464"/>
<path d="M73.9276 32.2951L70.5047 26.0729C70.2917 25.6926 70.0711 25.434 69.8201 25.2895C69.5463 25.1373 69.242 25.0613 68.9301 25.0689H68.3216C68.0326 25.0613 67.7511 25.1449 67.5077 25.2971C67.2795 25.4416 67.0665 25.7002 66.8536 26.0805L63.4687 32.2799L63.4611 32.2951C63.3698 32.4548 63.3546 32.645 63.4154 32.8199C63.4534 32.9264 63.5904 33.1698 63.9859 33.1698H65.3323C65.5909 33.1774 65.8343 33.0329 65.956 32.8047L66.6634 31.4736L67.31 30.2793L68.6867 27.7083L70.7329 31.4812L71.4555 32.8047C71.5696 33.0405 71.8206 33.185 72.0792 33.1774H73.3876C73.7831 33.1774 73.9124 32.9112 73.9504 32.8275C74.0265 32.645 74.0113 32.4548 73.9276 32.2951Z" fill="#001464"/>
<path d="M80.6903 25.8826C80.6294 25.8826 80.5761 25.8826 80.5153 25.8902L79.0929 27.8071L78.492 28.621L76.0883 25.373C75.9514 25.1752 75.7232 25.0611 75.4798 25.0687H74.103C73.8748 25.0611 73.6618 25.198 73.5782 25.4186C73.5097 25.6012 73.5325 25.8142 73.6542 25.9739L77.2293 30.6747V32.5079C77.2293 32.8958 77.5107 33.1773 77.9063 33.1773H79.032C79.3819 33.1925 79.6786 32.9186 79.7014 32.5687C79.7014 32.5459 79.7014 32.5307 79.7014 32.5079V30.6823L80.888 29.1458L82.318 27.2898C82.1811 26.4759 81.4965 25.8826 80.6903 25.8826Z" fill="#001464"/>
<path d="M84.6227 26.6131C84.4629 26.6131 84.3184 26.5066 84.2652 26.3545C83.7631 24.8027 82.3179 23.753 80.6901 23.753C80.6292 23.753 80.576 23.753 80.5227 23.7607C80.3174 23.7683 80.1424 23.6085 80.1272 23.4031C80.1196 23.1978 80.2793 23.0228 80.4847 23.0076C80.5532 23.0076 80.6216 23 80.6901 23C82.645 23 84.3793 24.2551 84.9802 26.1187C85.0486 26.3164 84.9345 26.5294 84.7368 26.5979C84.7063 26.6055 84.6683 26.6131 84.6227 26.6131Z" fill="#001464"/>
<path d="M83.5041 27.2602C83.3291 27.2602 83.177 27.1385 83.139 26.9636C82.8803 25.8226 81.8611 25.0087 80.6897 25.0011C80.6364 25.0011 80.5832 25.0011 80.5223 25.0087C80.3169 25.0239 80.1344 24.8642 80.1192 24.6588C80.104 24.4534 80.2637 24.2709 80.4691 24.2557C80.5375 24.248 80.606 24.248 80.6821 24.248C82.2034 24.2557 83.5193 25.313 83.8616 26.7962C83.9072 27.0016 83.7779 27.1994 83.5801 27.245C83.5573 27.2526 83.5345 27.2602 83.5041 27.2602Z" fill="#001464"/>
<g opacity="0.6">
<path d="M46.3925 29.996V28.2921C46.4001 27.7901 46.3241 27.2881 46.1719 26.8089C46.0578 26.4438 45.8525 26.1091 45.571 25.8504C45.2668 25.5766 44.9093 25.3788 44.5137 25.2724C43.9737 25.1278 43.4184 25.0594 42.8631 25.067H36.9985C36.9833 25.067 36.9757 25.0746 36.9604 25.0822C36.9604 25.0898 36.9604 25.1202 36.9604 25.1354V33.1603C36.9604 33.1755 36.9604 33.1907 36.9604 33.206C36.9757 33.206 36.9833 33.2136 36.9985 33.2136H42.8631C43.4184 33.2212 43.9737 33.1527 44.5137 33.0158C44.9017 32.9169 45.2668 32.7191 45.571 32.4529C45.8525 32.1867 46.0578 31.8596 46.1796 31.4869C46.3241 31.0001 46.4001 30.498 46.3925 29.996ZM45.0994 29.8363C45.107 30.1786 45.0766 30.5132 45.0005 30.8479C44.9321 31.137 44.7876 31.3956 44.5822 31.6086C44.3692 31.814 44.1106 31.9509 43.8291 32.0269C43.5021 32.1106 43.1598 32.1486 42.8175 32.1486H38.7023C38.4209 32.1563 38.1851 31.9357 38.1775 31.6542C38.1775 31.6466 38.1775 31.639 38.1775 31.6314V26.672C38.1699 26.3753 38.4057 26.1319 38.6947 26.1319H42.8099C43.1522 26.1319 43.4945 26.1699 43.8215 26.2612C44.103 26.3297 44.3692 26.4742 44.5746 26.6796C44.7799 26.8925 44.9245 27.1512 44.9853 27.4402C45.0614 27.7749 45.0994 28.1172 45.0842 28.4595V29.8363H45.0994Z" fill="#001464"/>
<path d="M29.8102 25.9869C29.6276 25.6598 29.4451 25.424 29.2701 25.3175C29.0647 25.2034 28.8365 25.1426 28.6007 25.1426H27.9009C27.6956 25.1426 27.4978 25.2034 27.3304 25.3175C27.1631 25.424 26.9882 25.6522 26.8056 25.9793L22.9339 33.0838C22.9339 33.0914 22.9263 33.1142 22.9263 33.1142L22.9339 33.1294H24.4704C24.5236 33.1294 24.5693 33.099 24.5921 33.0534L25.406 31.5244L26.1514 30.1477L28.0074 26.6867C28.0607 26.5802 28.1672 26.5118 28.2889 26.5118H28.3573C28.4714 26.5118 28.5855 26.5726 28.6388 26.6791L30.5176 30.1401L31.263 31.5092L32.0997 33.0305V33.0381V33.0534C32.1149 33.099 32.1682 33.1294 32.2138 33.1218H33.7123C33.7123 33.1218 33.7047 33.099 33.7047 33.0914L29.8102 25.9869Z" fill="#001464"/>
<path d="M14.6425 31.9903C14.3915 31.937 14.1557 31.8077 13.9732 31.6252C13.7982 31.435 13.6765 31.1992 13.6233 30.9482C13.5548 30.6515 13.5244 30.3397 13.532 30.0354V25.0684H12.3149V30.2256C12.3149 30.7885 12.3606 31.2753 12.4823 31.6632C12.5736 31.9979 12.7561 32.3022 12.9995 32.5456C13.2658 32.789 13.5852 32.9563 13.9351 33.04C14.4372 33.1617 14.9468 33.2149 15.4564 33.2073H20.53V32.0664H15.5325C15.2358 32.074 14.9392 32.0511 14.6425 31.9903Z" fill="#001464"/>
<path d="M9.12022 27.3427C9.12022 26.5821 8.95287 25.9964 8.59537 25.6312C8.23786 25.2661 7.64455 25.0684 6.78502 25.0684H0.0532455C0.0380325 25.0684 0.0228196 25.076 0.00760655 25.0836C2.89032e-08 25.0988 0 25.1216 0 25.1368V33.2073H1.29311V30.5451H6.79262C7.65216 30.5451 8.25307 30.3473 8.60297 29.9822C8.95287 29.6171 9.12782 29.0314 9.12782 28.2707L9.12022 27.3427ZM7.90317 28.0805C7.90317 28.5445 7.78147 28.9173 7.54567 29.1607C7.30986 29.4041 6.92193 29.5486 6.39708 29.5486H1.2855V26.6429C1.2855 26.3539 1.46045 26.1333 1.75711 26.1333H6.39708C6.92193 26.1333 7.30226 26.2702 7.54567 26.5212C7.78908 26.7798 7.90317 27.1373 7.90317 27.6013V28.0805Z" fill="#001464"/>
</g>
</g>
</svg>
