<?xml version="1.0" encoding="utf-8"?>
<!-- Generator: Adobe Illustrator 25.4.1, SVG Export Plug-In . SVG Version: 6.00 Build 0)  -->
<svg version="1.1" id="Layer_1" xmlns="http://www.w3.org/2000/svg" xmlns:xlink="http://www.w3.org/1999/xlink" x="0px" y="0px"
	 viewBox="0 0 85 57" style="enable-background:new 0 0 85 57;" xml:space="preserve">
<style type="text/css">
	.st0{fill:#D9D9D9;filter:url(#Adobe_OpacityMaskFilter);}
	.st1{mask:url(#mask0_969_637_00000052788057870120120030000001097747709617795244_);}
	.st2{fill:#FFFFFF;}
	.st3{opacity:0.6;}
</style>
<defs>
	<filter id="Adobe_OpacityMaskFilter" filterUnits="userSpaceOnUse" x="0" y="23" width="85" height="10.2">
		<feColorMatrix  type="matrix" values="1 0 0 0 0  0 1 0 0 0  0 0 1 0 0  0 0 0 1 0"/>
	</filter>
</defs>
<mask maskUnits="userSpaceOnUse" x="0" y="23" width="85" height="10.2" id="mask0_969_637_00000052788057870120120030000001097747709617795244_">
	<rect class="st0" width="85" height="57"/>
</mask>
<g class="st1">
	<path class="st2" d="M63.1,25.5c-0.1-0.3-0.3-0.4-0.5-0.4h-1.4c-0.1,0-0.2,0-0.3,0.1c-0.1,0.1-0.2,0.2-0.3,0.4l-1.4,4.7L57.9,27
		c-0.1-0.3-0.3-0.5-0.4-0.7c-0.2-0.1-0.5-0.2-0.8-0.2h-1c-0.3,0-0.5,0.1-0.7,0.2c-0.2,0.1-0.4,0.4-0.5,0.7l-1.3,3.2l-1.4-4.7
		c-0.1-0.3-0.3-0.4-0.6-0.4h-1.4c-0.3,0-0.5,0.2-0.5,0.4c0,0.1,0,0.3,0,0.4l1.9,6.2c0,0.2,0.1,0.3,0.2,0.5c0.1,0.1,0.2,0.3,0.3,0.4
		c0.1,0.1,0.3,0.2,0.4,0.2c0.1,0,0.3,0,0.4,0h1.2c0.3,0,0.6-0.1,0.8-0.3c0.2-0.2,0.3-0.4,0.4-0.8l1.3-3.2l1.3,3.2
		c0.1,0.4,0.3,0.6,0.4,0.8c0.2,0.2,0.5,0.3,0.8,0.3h1.2c0.3,0,0.6-0.1,0.8-0.3c0.2-0.2,0.3-0.4,0.4-0.8l2-6.2
		C63.1,25.8,63.2,25.6,63.1,25.5z"/>
	<path class="st2" d="M73.9,32.3l-3.4-6.2c-0.2-0.4-0.4-0.6-0.7-0.8c-0.3-0.2-0.6-0.2-0.9-0.2h-0.6c-0.3,0-0.6,0.1-0.8,0.2
		c-0.2,0.1-0.4,0.4-0.7,0.8l-3.4,6.2l0,0c-0.1,0.2-0.1,0.3,0,0.5c0,0.1,0.2,0.3,0.6,0.3h1.3c0.3,0,0.5-0.1,0.6-0.4l0.7-1.3l0.6-1.2
		l1.4-2.6l2,3.8l0.7,1.3c0.1,0.2,0.4,0.4,0.6,0.4h1.3c0.4,0,0.5-0.3,0.6-0.3C74,32.6,74,32.5,73.9,32.3z"/>
	<path class="st2" d="M80.7,25.9c-0.1,0-0.1,0-0.2,0l-1.4,1.9l-0.6,0.8l-2.4-3.2c-0.1-0.2-0.4-0.3-0.6-0.3h-1.4
		c-0.2,0-0.4,0.1-0.5,0.3c-0.1,0.2,0,0.4,0.1,0.6l3.6,4.7v1.8c0,0.4,0.3,0.7,0.7,0.7H79c0.3,0,0.6-0.3,0.7-0.6c0,0,0,0,0-0.1v-1.8
		l1.2-1.5l1.4-1.9C82.2,26.5,81.5,25.9,80.7,25.9z"/>
	<path class="st2" d="M84.6,26.6c-0.2,0-0.3-0.1-0.4-0.3c-0.5-1.6-1.9-2.6-3.6-2.6c-0.1,0-0.1,0-0.2,0c-0.2,0-0.4-0.2-0.4-0.4
		c0-0.2,0.2-0.4,0.4-0.4c0.1,0,0.1,0,0.2,0c2,0,3.7,1.3,4.3,3.1c0.1,0.2,0,0.4-0.2,0.5C84.7,26.6,84.7,26.6,84.6,26.6z"/>
	<path class="st2" d="M83.5,27.3c-0.2,0-0.3-0.1-0.4-0.3c-0.3-1.1-1.3-2-2.4-2c-0.1,0-0.1,0-0.2,0c-0.2,0-0.4-0.1-0.4-0.3
		c0-0.2,0.1-0.4,0.3-0.4c0.1,0,0.1,0,0.2,0c1.5,0,2.8,1.1,3.2,2.5C83.9,27,83.8,27.2,83.5,27.3C83.6,27.3,83.5,27.3,83.5,27.3z"/>
	<g class="st3">
		<path class="st2" d="M46.4,30v-1.7c0-0.5-0.1-1-0.2-1.5c-0.1-0.4-0.3-0.7-0.6-1c-0.3-0.3-0.7-0.5-1.1-0.6
			c-0.5-0.1-1.1-0.2-1.7-0.2H37c0,0,0,0,0,0c0,0,0,0,0,0.1v8c0,0,0,0,0,0c0,0,0,0,0,0h5.9c0.6,0,1.1-0.1,1.7-0.2
			c0.4-0.1,0.8-0.3,1.1-0.6c0.3-0.3,0.5-0.6,0.6-1C46.3,31,46.4,30.5,46.4,30z M45.1,29.8c0,0.3,0,0.7-0.1,1
			c-0.1,0.3-0.2,0.5-0.4,0.8c-0.2,0.2-0.5,0.3-0.8,0.4c-0.3,0.1-0.7,0.1-1,0.1h-4.1c-0.3,0-0.5-0.2-0.5-0.5c0,0,0,0,0,0v-5
			c0-0.3,0.2-0.5,0.5-0.5h4.1c0.3,0,0.7,0,1,0.1c0.3,0.1,0.5,0.2,0.8,0.4c0.2,0.2,0.3,0.5,0.4,0.8c0.1,0.3,0.1,0.7,0.1,1L45.1,29.8
			L45.1,29.8z"/>
		<path class="st2" d="M29.8,26c-0.2-0.3-0.4-0.6-0.5-0.7c-0.2-0.1-0.4-0.2-0.7-0.2h-0.7c-0.2,0-0.4,0.1-0.6,0.2
			c-0.2,0.1-0.3,0.3-0.5,0.7l-3.9,7.1c0,0,0,0,0,0l0,0h1.5c0.1,0,0.1,0,0.1-0.1l0.8-1.5l0.7-1.4l1.9-3.5c0.1-0.1,0.2-0.2,0.3-0.2
			h0.1c0.1,0,0.2,0.1,0.3,0.2l1.9,3.5l0.7,1.4l0.8,1.5v0v0c0,0,0.1,0.1,0.1,0.1h1.5c0,0,0,0,0,0L29.8,26z"/>
		<path class="st2" d="M14.6,32c-0.3-0.1-0.5-0.2-0.7-0.4c-0.2-0.2-0.3-0.4-0.3-0.7c-0.1-0.3-0.1-0.6-0.1-0.9v-5h-1.2v5.2
			c0,0.6,0,1,0.2,1.4c0.1,0.3,0.3,0.6,0.5,0.9c0.3,0.2,0.6,0.4,0.9,0.5c0.5,0.1,1,0.2,1.5,0.2h5.1v-1.1h-5
			C15.2,32.1,14.9,32.1,14.6,32z"/>
		<path class="st2" d="M9.1,27.3c0-0.8-0.2-1.3-0.5-1.7c-0.4-0.4-1-0.6-1.8-0.6H0.1c0,0,0,0,0,0c0,0,0,0,0,0.1v8.1h1.3v-2.7h5.5
			c0.9,0,1.5-0.2,1.8-0.6c0.3-0.4,0.5-1,0.5-1.7L9.1,27.3z M7.9,28.1c0,0.5-0.1,0.8-0.4,1.1c-0.2,0.2-0.6,0.4-1.1,0.4H1.3v-2.9
			c0-0.3,0.2-0.5,0.5-0.5h4.6c0.5,0,0.9,0.1,1.1,0.4c0.2,0.3,0.4,0.6,0.4,1.1V28.1z"/>
	</g>
</g>
</svg>
