<?xml version="1.0" encoding="utf-8"?>
<!-- Generator: Adobe Illustrator 25.4.1, SVG Export Plug-In . SVG Version: 6.00 Build 0)  -->
<svg version="1.1" id="Layer_1" xmlns="http://www.w3.org/2000/svg" xmlns:xlink="http://www.w3.org/1999/xlink" x="0px" y="0px"
	 viewBox="0 0 104 57" style="enable-background:new 0 0 104 57;" xml:space="preserve">
<style type="text/css">
	.st0{fill:#D9D9D9;filter:url(#Adobe_OpacityMaskFilter);}
	.st1{mask:url(#mask0_969_644_00000090257311777402060940000015573216488681083065_);}
	.st2{fill:#FFFFFF;}
</style>
<defs>
	<filter id="Adobe_OpacityMaskFilter" filterUnits="userSpaceOnUse" x="0" y="21" width="104" height="15.7">
		<feColorMatrix  type="matrix" values="1 0 0 0 0  0 1 0 0 0  0 0 1 0 0  0 0 0 1 0"/>
	</filter>
</defs>
<mask maskUnits="userSpaceOnUse" x="0" y="21" width="104" height="15.7" id="mask0_969_644_00000090257311777402060940000015573216488681083065_">
	<rect class="st0" width="104" height="57"/>
</mask>
<g class="st1">
	<path class="st2" d="M25.6,21c0.3,0.1,0.3,0.4,0.3,0.6c0,2,0,3.9,0,5.9c0,0.7,0.1,1.3,0,2c-0.3,2.1-1.3,3.7-3.2,4.8
		c-0.8,0.4-1.7,0.7-2.6,0.7c-0.9,0.1-1.8-0.1-2.7-0.4c-0.8-0.3-1.6-0.8-2.2-1.5c-0.6-0.7-1.1-1.4-1.4-2.3c-0.3-0.9-0.4-1.8-0.3-2.7
		c0.1-0.9,0.4-1.8,0.8-2.5c0.5-0.8,1.1-1.4,1.8-2c0.7-0.5,1.6-0.9,2.5-1c0.4-0.1,0.8-0.1,1.2-0.1c0.8,0,1.6,0,2.4,0
		c0.1,0,0.2,0,0.3-0.1c0.8-0.5,1.6-0.9,2.4-1.4l0.3-0.1L25.6,21z"/>
	<path class="st2" d="M0,28.3c0.1-0.3,0.1-0.7,0.2-1c0.3-1.1,0.9-2.1,1.6-2.9c0.8-0.8,1.8-1.3,2.9-1.6C5.8,22.5,7,22.5,8,22.9
		c1.1,0.3,2,0.9,2.8,1.8c0.8,0.8,1.3,1.8,1.5,2.9c0.2,1.1,0.2,2.2-0.2,3.3c-0.4,1.1-1,2-1.9,2.7c-0.9,0.7-1.9,1.2-3,1.4
		c-0.3,0.1-0.6,0.1-1,0.1c-0.9,0-1.7,0-2.6,0c-0.1,0-0.2,0-0.3,0.1c-0.8,0.5-1.6,0.9-2.4,1.4c-0.1,0.1-0.2,0.1-0.3,0.1
		c-0.4,0-0.5,0-0.6-0.4L0,28.3z"/>
	<path class="st2" d="M85.1,27.6c-0.1,0.5-0.3,0.9-0.4,1.4c-0.3,1-0.6,2.1-1,3.1c0,0.2-0.1,0.2-0.3,0.2c-0.3,0-0.6,0-1,0
		c0,0-0.1,0-0.1,0s-0.1,0-0.1,0c0,0,0,0-0.1-0.1c0,0,0-0.1,0-0.1c-0.4-1.5-0.9-2.9-1.3-4.4c0-0.1,0-0.1-0.1-0.2
		c-0.1,0.9-0.3,1.8-0.4,2.7c-0.1,0.6-0.2,1.3-0.3,1.9c0,0.1,0,0.2-0.2,0.2c-0.4,0-0.8,0-1.2,0c-0.1,0-0.1,0-0.1-0.2
		c0.2-1.1,0.3-2.2,0.5-3.4c0.2-1.1,0.3-2.1,0.5-3.2c0-0.3,0-0.3,0.3-0.3c0.4,0,0.9,0,1.3,0c0.2,0,0.2,0.1,0.2,0.2
		c0.5,1.5,0.9,3.1,1.4,4.6c0,0.1,0.1,0.1,0.1,0.2c0.1-0.3,0.2-0.6,0.3-1c0.4-1.3,0.8-2.6,1.1-3.8c0,0,0-0.1,0-0.1c0,0,0,0,0.1-0.1
		c0,0,0.1,0,0.1,0c0,0,0.1,0,0.1,0c0.5,0,1,0,1.4,0c0.1,0,0.2,0,0.2,0.2c0.1,0.8,0.2,1.7,0.4,2.5l0.5,3.4c0,0.3,0.1,0.5,0.1,0.8
		c0,0.1,0,0.1-0.1,0.1c-0.4,0-0.8,0-1.3,0c-0.1,0-0.1,0-0.1-0.1c-0.2-1.2-0.3-2.4-0.5-3.5C85.2,28.3,85.2,28,85.1,27.6L85.1,27.6z"
		/>
	<path class="st2" d="M66.4,25.3c2.1,0,3.6,1.6,3.6,3.7c0,2-1.6,3.5-3.7,3.5c-2.1,0-3.6-1.6-3.6-3.8C62.8,26.8,64.4,25.3,66.4,25.3z
		 M68.5,28.8c0-0.4-0.1-0.7-0.2-1c-0.6-1.3-2.5-1.6-3.4-0.5c-0.5,0.6-0.6,1.2-0.5,1.9c0,0.3,0.1,0.6,0.3,0.9
		c0.2,0.3,0.4,0.5,0.7,0.7c0.3,0.2,0.6,0.3,0.9,0.3c0.3,0,0.6,0,0.9-0.1C68,30.7,68.5,29.9,68.5,28.8L68.5,28.8z"/>
	<path class="st2" d="M77.2,32.4h-1.7c-0.1,0-0.1-0.1-0.2-0.1c-0.5-0.7-1-1.3-1.4-2C73.8,30,73.6,30,73.4,30c-0.3,0-0.3,0-0.3,0.3
		c0,0.6,0,1.2,0,1.9c0,0.2,0,0.2-0.2,0.2c-0.4,0-0.8,0-1.1,0c-0.1,0-0.2,0-0.2-0.2c0-2.2,0-4.4,0-6.6c0-0.1,0-0.2,0.1-0.2
		c1-0.1,2-0.2,3,0c1,0.2,1.6,0.9,1.8,1.9c0.1,0.5,0,0.9-0.2,1.3c-0.2,0.4-0.5,0.8-1,1c-0.1,0.1-0.1,0.1,0,0.2
		c0.6,0.8,1.2,1.6,1.8,2.4C77.1,32.3,77.2,32.3,77.2,32.4z M73.1,27.7c0,0.3,0,0.6,0,1c0,0.1,0,0.2,0.1,0.1c0.4,0,0.7,0,1.1-0.1
		c0.2-0.1,0.4-0.2,0.5-0.4c0.1-0.2,0.2-0.4,0.2-0.6c0-0.5-0.2-0.9-0.7-1c-0.4-0.1-0.7-0.2-1.1-0.1c-0.1,0-0.1,0.1-0.1,0.1
		C73.1,27.1,73.1,27.4,73.1,27.7L73.1,27.7z"/>
	<path class="st2" d="M46.2,25.4c0.2,0,0.5,0,0.7,0c0.1,0,0.1,0,0.1,0c0,0,0.1,0.1,0.1,0.1c0.6,1.6,1.3,3.3,1.9,4.9l0.7,1.7
		c0.1,0.2,0.1,0.2-0.2,0.2c-0.4,0-0.8,0-1.2,0c-0.1,0-0.1,0-0.1,0c0,0-0.1-0.1-0.1-0.1c-0.1-0.4-0.3-0.8-0.4-1.2
		c0-0.1,0-0.1-0.1-0.1c0,0-0.1,0-0.1,0c-0.9,0-1.7,0-2.6,0c-0.1,0-0.1,0-0.1,0c0,0-0.1,0.1-0.1,0.1c-0.1,0.4-0.3,0.8-0.4,1.2
		c0,0,0,0.1-0.1,0.1s-0.1,0-0.1,0c-0.4,0-0.8,0-1.2,0c-0.1,0-0.2,0-0.1-0.2c0.9-2.2,1.7-4.4,2.6-6.7c0,0,0-0.1,0.1-0.1
		c0,0,0.1,0,0.1,0C45.7,25.4,46,25.4,46.2,25.4z M46.2,26.9L46.2,26.9c-0.4,0.9-0.7,1.7-1,2.6c-0.1,0.1,0,0.1,0.1,0.1
		c0.6,0,1.1,0,1.7,0c0.2,0,0.2-0.1,0.1-0.2c-0.2-0.5-0.4-1-0.5-1.5L46.2,26.9z"/>
	<path class="st2" d="M31.2,29.3c0-0.9,0-1.8,0-2.7c0-0.8,0.3-1.1,1.1-1.2c0.7-0.1,1.4-0.1,2.1,0.1c1.4,0.4,1.9,1.5,1.8,2.7
		c-0.1,1.3-1,1.9-2.1,2.1c-0.4,0.1-0.8,0.1-1.1,0c-0.2,0-0.2,0-0.2,0.2c0,0.6,0,1.1,0,1.7c0,0.2-0.1,0.2-0.2,0.2c-0.4,0-0.7,0-1.1,0
		c-0.1,0-0.2,0-0.2-0.2C31.2,31.2,31.2,30.2,31.2,29.3z M32.7,27.8c0,0.3,0,0.7,0,1c0,0.1,0,0.2,0.1,0.2c0.3,0,0.6,0,0.9,0
		c0.2,0,0.5-0.1,0.6-0.3c0.2-0.2,0.3-0.4,0.3-0.6c0-0.2,0-0.5-0.1-0.7c-0.1-0.2-0.3-0.4-0.5-0.5c-0.4-0.2-0.8-0.2-1.3-0.2
		c-0.1,0-0.1,0.1-0.1,0.2C32.7,27.2,32.7,27.5,32.7,27.8L32.7,27.8z"/>
	<path class="st2" d="M97.4,27.8c0.5-0.1,1-0.1,1.5,0.1c0.5,0.2,0.9,0.5,1.1,1c0.7,1.3,0.2,3.3-1.7,3.6c-0.5,0.1-1,0.1-1.5-0.1
		c-1.2-0.4-1.7-1.5-1.6-2.6c0.1-0.8,0.4-1.4,0.8-2.1c0.4-0.7,0.8-1.4,1.2-2c0,0,0.1-0.1,0.1-0.1c0,0,0.1,0,0.1,0c0.4,0,0.8,0,1.2,0
		c0.2,0,0.2,0,0.1,0.2c-0.4,0.7-0.8,1.4-1.3,2C97.5,27.7,97.5,27.7,97.4,27.8z M98.8,30c0-0.7-0.5-1.2-1.2-1.2
		c-0.7,0-1.1,0.5-1.1,1.2c0,0.2,0,0.3,0.1,0.5c0.1,0.1,0.1,0.3,0.2,0.4c0.1,0.1,0.2,0.2,0.4,0.3c0.1,0.1,0.3,0.1,0.5,0.1
		C98.4,31.2,98.8,30.8,98.8,30L98.8,30z"/>
	<path class="st2" d="M57.4,28.9c0-1.1,0-2.2,0-3.3c0-0.2,0-0.2,0.2-0.2c1.2,0,2.5,0,3.7,0c0.2,0,0.2,0,0.2,0.2c0,0.3,0,0.6,0,0.9
		c0,0.2-0.1,0.2-0.2,0.2c-0.7,0-1.4,0-2.1,0c-0.2,0-0.2,0.1-0.2,0.2c0,0.4,0,0.9,0,1.3c0,0.2,0.1,0.2,0.2,0.2c0.6,0,1.3,0,1.9,0
		c0.2,0,0.2,0,0.2,0.2c0,0.3,0,0.6,0,0.9c0,0.1,0,0.2-0.2,0.2c-0.6,0-1.3,0-1.9,0c-0.2,0-0.2,0-0.2,0.2c0,0.7,0,1.5,0,2.2
		c0,0.2,0,0.2-0.2,0.2c-0.4,0-0.7,0-1.1,0c-0.2,0-0.2-0.1-0.2-0.2C57.4,31.1,57.4,30,57.4,28.9z"/>
	<path class="st2" d="M52.8,25.4c0.9,0,1.8,0,2.7,0c0.2,0,0.2,0,0.2,0.2c0,0.3,0,0.6,0,1c0,0.1,0,0.2-0.2,0.2c-0.6,0-1.2,0-1.8,0
		c-0.2,0-0.2,0.1-0.2,0.2c0,1.7,0,3.5,0,5.2c0,0.2,0,0.2-0.2,0.2c-0.4,0-0.7,0-1.1,0c-0.2,0-0.2-0.1-0.2-0.2c0-1.7,0-3.5,0-5.2
		c0-0.3,0-0.3-0.3-0.3c-0.6,0-1.1,0-1.7,0c-0.1,0-0.2,0-0.2-0.2c0-0.3,0-0.6,0-0.9c0-0.2,0-0.2,0.2-0.2C51,25.4,51.9,25.4,52.8,25.4
		z"/>
	<path class="st2" d="M38.9,28.2c0,0.9,0,1.7,0,2.6c0,0.2,0.1,0.2,0.3,0.2c0.8,0,1.5,0,2.3,0c0.2,0,0.2,0,0.2,0.2c0,0.3,0,0.7,0,1
		c0,0.1,0,0.1-0.1,0.1c-1.3,0-2.6,0-3.9,0c-0.1,0-0.1-0.1-0.1-0.2c0-0.6,0-1.1,0-1.7c0-1.6,0-3.2,0-4.9c0-0.2,0-0.2,0.2-0.2
		c0.4,0,0.7,0,1.1,0c0.2,0,0.2,0.1,0.2,0.2C38.9,26.5,38.9,27.4,38.9,28.2z"/>
	<path class="st2" d="M93.4,29.2c0,1,0,1.9,0,2.9c0,0.2,0,0.2-0.2,0.2c-0.4,0-0.7,0-1.1,0c-0.2,0-0.2-0.1-0.2-0.2c0-1.8,0-3.5,0-5.3
		c0-0.2,0-0.3-0.2-0.2c-0.2,0-0.5,0-0.7,0c-0.1,0-0.2,0-0.2-0.2c0-0.3,0-0.6,0-0.9c0-0.1,0-0.2,0.1-0.2c0.6,0,1.1,0,1.7,0
		c0.6,0.1,0.8,0.3,0.8,0.9C93.4,27.3,93.4,28.2,93.4,29.2z"/>
	<path class="st2" d="M104,29.1c0,1,0,2,0,3c0,0.2,0,0.2-0.2,0.2c-0.4,0-0.7,0-1.1,0c-0.2,0-0.2-0.1-0.2-0.2c0-1.8,0-3.5,0-5.3
		c0-0.2,0-0.3-0.2-0.2c-0.2,0-0.5,0-0.7,0c-0.1,0-0.2,0-0.2-0.2c0-0.3,0-0.6,0-0.9c0-0.1,0-0.2,0.1-0.2c0.6,0,1.2,0,1.8,0
		c0.1,0,0.2,0,0.3,0.1c0.1,0,0.2,0.1,0.2,0.2c0.1,0.1,0.1,0.2,0.1,0.3c0,0.1,0,0.2,0,0.3C104,27.2,104,28.1,104,29.1z"/>
</g>
</svg>
