<svg width="104" height="57" viewBox="0 0 104 57" fill="none" xmlns="http://www.w3.org/2000/svg">
<mask id="mask0_969_644" style="mask-type:alpha" maskUnits="userSpaceOnUse" x="0" y="0" width="104" height="57">
<rect width="104" height="57" fill="#D9D9D9"/>
</mask>
<g mask="url(#mask0_969_644)">
<path d="M25.5808 21.005C25.8377 21.1418 25.9028 21.3703 25.9028 21.6405C25.9028 23.602 25.9028 25.5634 25.9028 27.5249C25.9028 28.1921 25.9561 28.8726 25.8694 29.5431C25.5959 31.6664 24.5351 33.2826 22.6586 34.3067C21.8636 34.74 20.9835 34.9948 20.0799 35.0532C19.1763 35.1116 18.2708 34.9722 17.4266 34.6449C16.5823 34.3175 15.8196 33.81 15.1916 33.1577C14.5636 32.5053 14.0853 31.7239 13.7902 30.8679C13.4951 30.0118 13.3902 29.1017 13.4829 28.2009C13.5755 27.3002 13.8635 26.4305 14.3266 25.6524C14.7898 24.8743 15.4171 24.2066 16.1647 23.6958C16.9124 23.1849 17.7624 22.8433 18.6556 22.6946C19.0572 22.6316 19.4634 22.6031 19.8699 22.6095C20.6705 22.6095 21.4711 22.6095 22.2717 22.6095C22.3779 22.6107 22.4824 22.5824 22.5736 22.5278C23.382 22.063 24.192 21.601 25.0037 21.1418L25.2623 21L25.5808 21.005Z" fill="#001464"/>
<path d="M0.00166788 28.2897C0.0750565 27.9561 0.108415 27.6092 0.193479 27.2723C0.474657 26.1859 1.04406 25.1956 1.84153 24.4061C2.639 23.6166 3.63493 23.0572 4.72407 22.7869C5.81322 22.5166 6.95515 22.5456 8.02921 22.8707C9.10326 23.1958 10.0696 23.805 10.826 24.6339C11.5825 25.4628 12.101 26.4806 12.3267 27.5798C12.5525 28.6791 12.4772 29.8189 12.1087 30.8788C11.7402 31.9388 11.0923 32.8795 10.2333 33.6016C9.37435 34.3238 8.33628 34.8005 7.22878 34.9814C6.91288 35.0336 6.59324 35.0598 6.27306 35.0598C5.39907 35.0598 4.52507 35.0598 3.65108 35.0598C3.54516 35.0577 3.44072 35.0848 3.34919 35.1382C2.53635 35.6019 1.72519 36.0633 0.915689 36.5226C0.82246 36.5877 0.716885 36.6331 0.605456 36.656C0.250188 36.696 0.155117 36.6327 0 36.2557L0.00166788 28.2897Z" fill="#001464"/>
<path d="M85.1125 27.5942C84.9646 28.069 84.8173 28.5438 84.6705 29.0186C84.347 30.0677 84.0217 31.1168 83.7048 32.1676C83.6581 32.3227 83.5931 32.3795 83.4279 32.3711C83.1077 32.3561 82.7874 32.3594 82.4672 32.3711C82.4389 32.3763 82.4097 32.3757 82.3816 32.3693C82.3535 32.3629 82.327 32.3508 82.3038 32.3337C82.2805 32.3167 82.261 32.2951 82.2463 32.2703C82.2317 32.2455 82.2223 32.2179 82.2187 32.1893C81.7739 30.7182 81.3241 29.2482 80.8693 27.7793C80.851 27.7176 80.8276 27.6559 80.7926 27.5508C80.6508 28.4932 80.5157 29.3855 80.3823 30.2812C80.2856 30.9261 80.191 31.5716 80.0988 32.2177C80.0854 32.3144 80.0554 32.3728 79.932 32.3711C79.5383 32.3644 79.1447 32.3644 78.7511 32.3711C78.6276 32.3711 78.6043 32.3227 78.621 32.216C78.7878 31.0963 78.9546 29.9771 79.1214 28.8585C79.2759 27.8043 79.4294 26.748 79.5817 25.6894C79.6234 25.3992 79.6167 25.3975 79.9153 25.3975C80.3623 25.3975 80.8093 25.3975 81.2496 25.3975C81.3997 25.3975 81.4548 25.4476 81.4948 25.5827C81.9585 27.1183 82.4261 28.6522 82.8975 30.1845C82.9171 30.2607 82.9529 30.3319 83.0026 30.393C83.0993 30.076 83.1961 29.7591 83.2895 29.4406C83.6698 28.1574 84.0478 26.8742 84.4237 25.591C84.4273 25.5607 84.4371 25.5314 84.4524 25.5049C84.4677 25.4785 84.4882 25.4555 84.5127 25.4372C84.5372 25.4189 84.5652 25.4059 84.5949 25.3988C84.6246 25.3916 84.6554 25.3907 84.6855 25.3959C85.1659 25.4075 85.6463 25.4059 86.1266 25.3959C86.2651 25.3959 86.3118 25.4442 86.3301 25.5627C86.4502 26.3966 86.5736 27.2222 86.6971 28.0512L87.1974 31.4488C87.2358 31.7123 87.2708 31.9758 87.3159 32.2393C87.3325 32.3311 87.3159 32.3611 87.2208 32.3594C86.8005 32.3594 86.3868 32.3594 85.9598 32.3594C85.8648 32.3594 85.8347 32.3144 85.8214 32.2293C85.6479 31.0507 85.4728 29.872 85.296 28.6933C85.2415 28.3253 85.1859 27.9578 85.1292 27.5908L85.1125 27.5942Z" fill="#001464"/>
<path d="M66.3916 25.2833C68.5049 25.2949 70.0243 26.8378 70.0093 28.9527C69.996 30.9642 68.4048 32.502 66.3399 32.4737C64.2216 32.4453 62.7072 30.8408 62.7622 28.7192C62.8106 26.7944 64.3817 25.2716 66.3916 25.2833ZM68.4665 28.8409C68.4716 28.4889 68.3999 28.14 68.2563 27.8185C67.6592 26.4692 65.7428 26.2006 64.8104 27.3415C64.3467 27.9086 64.2416 28.5691 64.3234 29.2796C64.3563 29.599 64.4629 29.9064 64.6349 30.1776C64.8069 30.4488 65.0395 30.6763 65.3144 30.8422C65.5893 31.0082 65.8991 31.108 66.2191 31.1338C66.5392 31.1596 66.8609 31.1106 67.1588 30.9909C67.9811 30.6707 68.4665 29.8901 68.4665 28.8393V28.8409Z" fill="#001464"/>
<path d="M77.1982 32.3684H75.5053C75.4019 32.3684 75.3769 32.2833 75.3385 32.2216C74.8615 31.5545 74.3744 30.8873 73.9208 30.2201C73.7873 30.0216 73.6372 30.02 73.4487 30.0233C73.1435 30.0233 73.1435 30.0233 73.1435 30.3302C73.1435 30.9507 73.1435 31.5711 73.1435 32.1916C73.1435 32.3434 73.1001 32.3834 72.9534 32.3801C72.5731 32.3701 72.1928 32.3801 71.8125 32.3801C71.6924 32.3801 71.6457 32.3484 71.6457 32.2233C71.6457 30.0094 71.6457 27.795 71.6457 25.58C71.6457 25.4999 71.6357 25.4265 71.7575 25.4132C72.7582 25.3048 73.759 25.1897 74.7597 25.4132C75.7922 25.65 76.3776 26.2872 76.521 27.3063C76.5914 27.765 76.5167 28.2342 76.3074 28.6484C76.0981 29.0625 75.7646 29.401 75.3535 29.6163C75.2151 29.6947 75.2518 29.7464 75.3201 29.8398C75.9173 30.6415 76.5127 31.4449 77.1065 32.25C77.1348 32.2717 77.1532 32.3 77.1982 32.3684ZM73.1368 27.6799C73.1368 27.999 73.1368 28.3187 73.1368 28.6389C73.1368 28.714 73.1285 28.789 73.2419 28.7857C73.6005 28.7757 73.9608 28.8157 74.311 28.6973C74.5212 28.6373 74.7051 28.5086 74.8333 28.3317C74.9615 28.1547 75.0266 27.9399 75.0182 27.7216C75.0283 27.2212 74.8031 26.8609 74.3511 26.6958C73.9895 26.5766 73.605 26.544 73.2286 26.6007C73.1285 26.6124 73.1352 26.6741 73.1352 26.7408C73.1363 27.0533 73.1368 27.3657 73.1368 27.6782V27.6799Z" fill="#001464"/>
<path d="M46.2167 25.4034C46.4569 25.4034 46.6971 25.4034 46.9372 25.4034C46.9895 25.3962 47.0426 25.4095 47.0852 25.4406C47.1279 25.4718 47.1567 25.5182 47.1658 25.5702C47.8007 27.2093 48.4395 28.8471 49.0822 30.4839L49.7377 32.1519C49.8228 32.3704 49.8228 32.3704 49.5826 32.3704C49.1756 32.3704 48.7686 32.3704 48.3617 32.3704C48.309 32.3785 48.2553 32.3656 48.2122 32.3344C48.1691 32.3031 48.1401 32.2561 48.1315 32.2036C47.998 31.8133 47.8479 31.428 47.7128 31.036C47.7034 30.9839 47.6742 30.9374 47.6313 30.9063C47.5884 30.8752 47.5351 30.8619 47.4827 30.8692C46.6153 30.8748 45.748 30.8748 44.8807 30.8692C44.8284 30.862 44.7754 30.8753 44.7327 30.9064C44.6901 30.9375 44.6612 30.984 44.6522 31.036C44.5171 31.433 44.3653 31.8249 44.2269 32.2202C44.2179 32.2653 44.192 32.3052 44.1544 32.3316C44.1168 32.358 44.0705 32.3689 44.0251 32.362C43.6114 32.362 43.1911 32.362 42.7841 32.362C42.6423 32.362 42.6173 32.3337 42.664 32.1952C43.5269 29.9713 44.387 27.7474 45.2443 25.5235C45.2535 25.4815 45.2787 25.4447 45.3144 25.4208C45.3501 25.3968 45.3938 25.3876 45.4361 25.3951C45.6963 25.4068 45.9565 25.4034 46.2167 25.4034ZM46.2167 26.9329H46.1633C45.8442 27.8014 45.5245 28.6692 45.2043 29.5366C45.1542 29.6733 45.2293 29.6783 45.3294 29.6783C45.8965 29.6783 46.4636 29.6783 47.0307 29.6783C47.1974 29.6783 47.1974 29.6233 47.1491 29.4932C46.9639 28.9928 46.7871 28.5058 46.607 28.0121L46.2167 26.9329Z" fill="#001464"/>
<path d="M31.1518 29.2909C31.1518 28.3847 31.1518 27.4779 31.1518 26.5705C31.1518 25.8 31.4854 25.4347 32.2526 25.3613C32.9395 25.2662 33.6375 25.2911 34.3159 25.4347C35.7536 25.7966 36.259 26.8991 36.1206 28.1784C35.9821 29.4577 35.1115 30.0582 34.019 30.2483C33.6461 30.3219 33.2641 30.3377 32.8865 30.295C32.733 30.275 32.678 30.3167 32.6813 30.4835C32.6913 31.0372 32.6813 31.591 32.6896 32.1514C32.6896 32.3349 32.6329 32.3766 32.4611 32.3716C32.0875 32.3599 31.7139 32.3616 31.342 32.3716C31.1935 32.3716 31.1468 32.3299 31.1485 32.1798C31.1618 31.2107 31.1518 30.25 31.1518 29.2909ZM32.6863 27.8348C32.6863 28.1684 32.6863 28.5137 32.6863 28.8539C32.6863 28.944 32.698 29.0074 32.8114 29.009C33.1106 29.0303 33.4113 29.0158 33.7071 28.9657C33.9443 28.9329 34.1633 28.8204 34.3282 28.6468C34.493 28.4731 34.594 28.2485 34.6144 28.01C34.6592 27.7832 34.631 27.5481 34.534 27.3384C34.4369 27.1286 34.2759 26.955 34.074 26.8424C33.6778 26.6607 33.2361 26.6025 32.8064 26.6756C32.698 26.6873 32.6863 26.7507 32.6863 26.8424C32.6946 27.1677 32.693 27.5012 32.693 27.8348H32.6863Z" fill="#001464"/>
<path d="M97.4166 27.7766C97.9002 27.6283 98.4198 27.6484 98.8906 27.8335C99.3613 28.0186 99.7554 28.3578 100.009 28.7957C100.696 30.13 100.175 32.0648 98.2623 32.4117C97.7563 32.5122 97.233 32.4806 96.7428 32.32C95.5385 31.9114 95.0432 30.7788 95.1716 29.678C95.2617 28.9058 95.6036 28.2286 95.9955 27.5731C96.4025 26.8926 96.8195 26.2171 97.2248 25.5366C97.2456 25.4924 97.2794 25.4557 97.3218 25.4315C97.3642 25.4073 97.4131 25.3968 97.4616 25.4015C97.8686 25.4081 98.2756 25.4081 98.6826 25.4015C98.8494 25.4015 98.8644 25.4382 98.7793 25.5683C98.354 26.2454 97.9337 26.9259 97.5134 27.6048C97.4833 27.6565 97.46 27.7015 97.4166 27.7766ZM98.8494 30.0433C98.8494 29.3177 98.3957 28.8441 97.6985 28.8441C97.0313 28.8441 96.5676 29.3261 96.5593 30.0233C96.5489 30.1786 96.5708 30.3344 96.6237 30.4808C96.6765 30.6272 96.7592 30.761 96.8664 30.8739C96.9736 30.9867 97.1031 31.0761 97.2466 31.1364C97.3901 31.1967 97.5445 31.2266 97.7002 31.2242C98.3873 31.2258 98.8477 30.7538 98.8494 30.045V30.0433Z" fill="#001464"/>
<path d="M57.4098 28.8847C57.4098 27.7906 57.4098 26.6964 57.4098 25.6023C57.4098 25.4471 57.4465 25.3988 57.6083 25.4004C58.8315 25.4071 60.059 25.4071 61.2911 25.4004C61.4429 25.4004 61.4862 25.4438 61.4812 25.5922C61.4712 25.8991 61.4679 26.206 61.4812 26.5129C61.4812 26.6881 61.4195 26.7214 61.2611 26.7198C60.5539 26.7198 59.8467 26.7198 59.1395 26.7198C58.9476 26.7198 58.906 26.7815 58.911 26.9583C58.9221 27.3919 58.9221 27.8256 58.911 28.2593C58.911 28.426 58.9627 28.4594 59.1161 28.4577C59.7499 28.4577 60.3837 28.4577 61.0175 28.4577C61.1843 28.4577 61.2194 28.5061 61.2144 28.6596C61.2027 28.9731 61.206 29.2867 61.2144 29.6003C61.2144 29.7254 61.1743 29.757 61.0476 29.7554C60.4004 29.7554 59.7533 29.7554 59.1061 29.7554C58.9393 29.7554 58.9043 29.8038 58.906 29.9589C58.906 30.6994 58.906 31.44 58.906 32.1805C58.906 32.3473 58.8609 32.399 58.6925 32.394C58.3255 32.3824 57.9586 32.3807 57.5916 32.394C57.4248 32.394 57.3965 32.3373 57.3965 32.1889C57.4132 31.073 57.4098 29.9789 57.4098 28.8847Z" fill="#001464"/>
<path d="M52.7812 25.4023C53.6752 25.4023 54.5692 25.4023 55.4615 25.4023C55.6116 25.4023 55.6567 25.4407 55.6517 25.5925C55.64 25.9127 55.6417 26.233 55.6517 26.5532C55.6517 26.6883 55.6083 26.72 55.4849 26.72C54.8978 26.72 54.3173 26.72 53.7236 26.72C53.5568 26.72 53.5151 26.7734 53.5167 26.9352C53.5167 28.6765 53.5167 30.4161 53.5167 32.1574C53.5167 32.3242 53.4817 32.3893 53.2982 32.3809C52.9446 32.3659 52.591 32.3659 52.2374 32.3809C52.0707 32.3809 52.0323 32.3259 52.0323 32.1658C52.0378 30.4389 52.0378 28.7115 52.0323 26.9835C52.0323 26.6966 52.069 26.725 51.7804 26.725C51.2133 26.725 50.6462 26.725 50.0792 26.725C49.9357 26.725 49.8757 26.6916 49.8823 26.5365C49.894 26.223 49.894 25.9094 49.8823 25.5958C49.8823 25.4457 49.9224 25.404 50.0725 25.4057C50.9798 25.4057 51.8805 25.4023 52.7812 25.4023Z" fill="#001464"/>
<path d="M38.911 28.2328C38.911 29.0935 38.9194 29.9524 38.911 30.8131C38.911 31.0266 38.9761 31.0599 39.1662 31.0566C39.9268 31.0466 40.6857 31.0566 41.4463 31.0483C41.6131 31.0483 41.6481 31.095 41.6414 31.2484C41.6297 31.582 41.6414 31.9022 41.6414 32.2292C41.6414 32.3292 41.6147 32.3693 41.5063 32.3693C40.1931 32.3693 38.8799 32.3693 37.5667 32.3693C37.4182 32.3693 37.4299 32.2859 37.4299 32.1891C37.4299 31.6154 37.4299 31.0422 37.4299 30.4695C37.4299 28.8499 37.4299 27.2287 37.4299 25.6092C37.4299 25.4424 37.4716 25.3923 37.6401 25.399C38.0003 25.4124 38.3606 25.4124 38.7192 25.399C38.886 25.399 38.926 25.4524 38.9244 25.6125C38.9077 26.4865 38.911 27.3605 38.911 28.2328Z" fill="#001464"/>
<path d="M93.4188 29.2292C93.4188 30.2033 93.4188 31.1757 93.4188 32.1497C93.4188 32.3265 93.3721 32.3799 93.1936 32.3716C92.8334 32.3582 92.4731 32.3582 92.1145 32.3716C91.9477 32.3716 91.9093 32.3149 91.9093 32.1564C91.9093 30.3968 91.9093 28.6354 91.9093 26.8758C91.9093 26.6873 91.871 26.6156 91.6708 26.6306C91.4323 26.6489 91.1905 26.6306 90.9519 26.6306C90.8285 26.6306 90.7852 26.5872 90.7852 26.4638C90.7852 26.1502 90.7852 25.8367 90.7852 25.5231C90.7852 25.4314 90.7985 25.3663 90.9119 25.3696C91.4773 25.3813 92.0461 25.3363 92.6099 25.3913C93.1736 25.4464 93.3971 25.7249 93.3988 26.2787C93.4205 27.2694 93.4188 28.2485 93.4188 29.2292Z" fill="#001464"/>
<path d="M104 29.1292C104 30.1433 104 31.1557 104 32.1698C104 32.3233 103.966 32.3783 103.803 32.3717C103.443 32.3583 103.082 32.3583 102.724 32.3717C102.557 32.3717 102.517 32.3166 102.517 32.1565C102.517 30.3968 102.517 28.6372 102.517 26.8758C102.517 26.689 102.482 26.614 102.28 26.629C102.042 26.6473 101.8 26.629 101.561 26.629C101.44 26.629 101.395 26.589 101.395 26.4622C101.395 26.1486 101.395 25.8351 101.395 25.5215C101.395 25.4314 101.405 25.3647 101.521 25.3664C102.113 25.3814 102.709 25.3314 103.299 25.3931C103.397 25.3967 103.492 25.4202 103.58 25.4621C103.668 25.5039 103.746 25.5633 103.811 25.6365C103.875 25.7097 103.923 25.7953 103.953 25.8879C103.983 25.9806 103.994 26.0784 103.985 26.1753C103.995 27.165 104 28.1496 104 29.1292Z" fill="#001464"/>
</g>
</svg>
