<svg xmlns="http://www.w3.org/2000/svg" viewBox="0 0 583.77 118.73"><defs><style>.a{fill:#fff;}</style></defs><title>primesight_white</title><path class="a" d="M36.62,419.32v7.26a30.88,30.88,0,0,1,9.68-6.72,27.92,27.92,0,0,1,11.14-2.24,28.75,28.75,0,0,1,21.9,9.74q9,9.75,9,25,0,14.7-9.32,24.6T57,486.85a27.48,27.48,0,0,1-10.59-2,32.34,32.34,0,0,1-9.74-6.62v31H20.22V419.32ZM54,432.87a17.23,17.23,0,0,0-13,5.33q-5.15,5.32-5.15,13.91,0,8.77,5.15,14.2a17.08,17.08,0,0,0,13,5.41,16.74,16.74,0,0,0,12.73-5.51q5.18-5.5,5.18-14t-5.08-13.88A16.86,16.86,0,0,0,54,432.87Z" transform="translate(-20.22 -392.2)"/><path class="a" d="M98.16,419.32h14.16v8.29a17.74,17.74,0,0,1,6.12-7.45,14.76,14.76,0,0,1,8.35-2.54,15.46,15.46,0,0,1,6.71,1.7l-5.14,14.22a11.38,11.38,0,0,0-4.78-1.46c-2.54,0-4.69,1.58-6.45,4.72s-2.63,9.32-2.63,18.52l.06,3.21v26.63H98.16Z" transform="translate(-20.22 -392.2)"/><path class="a" d="M146.88,392.2a10.08,10.08,0,0,1,7.45,3.15,10.47,10.47,0,0,1,3.11,7.63,10.34,10.34,0,0,1-3.08,7.53,10,10,0,0,1-7.36,3.12,10.11,10.11,0,0,1-7.51-3.18,10.64,10.64,0,0,1-3.11-7.72,10.53,10.53,0,0,1,10.5-10.53Zm-8.26,27.12h16.52v65.84H138.62Z" transform="translate(-20.22 -392.2)"/><path class="a" d="M165.32,419.32h16.52v7.56a28,28,0,0,1,9.41-7,27.61,27.61,0,0,1,11.3-2.3,21,21,0,0,1,11.14,3,21.86,21.86,0,0,1,8,8.83,26,26,0,0,1,22.16-11.86,23.13,23.13,0,0,1,12.35,3.27,18.81,18.81,0,0,1,7.66,8.53q2.34,5.26,2.34,17.13v38.61H249.55V451.75q0-11.19-2.78-15.16t-8.35-4a12.72,12.72,0,0,0-7.6,2.42,14.33,14.33,0,0,0-5,6.69q-1.64,4.26-1.63,13.7v29.72H207.56v-31.9q0-8.82-1.31-12.79a11.54,11.54,0,0,0-3.91-5.9,10.23,10.23,0,0,0-6.31-1.94,12.44,12.44,0,0,0-7.49,2.45,14.52,14.52,0,0,0-5,6.87q-1.68,4.41-1.67,13.92v29.29H165.32Z" transform="translate(-20.22 -392.2)"/><path class="a" d="M344.3,457H291.23a17.61,17.61,0,0,0,6.14,11.16q5,4.15,12.74,4.15A22,22,0,0,0,326,465.85l13.92,6.54a32.81,32.81,0,0,1-12.47,10.92,39,39,0,0,1-17.24,3.54q-15.5,0-25.24-9.77t-9.74-24.48q0-15.08,9.71-25t24.36-10q15.56,0,25.3,10t9.74,26.29Zm-16.52-13a16.52,16.52,0,0,0-6.46-9,18.7,18.7,0,0,0-11.18-3.45A19.81,19.81,0,0,0,298,435.47Q294.74,437.9,292,444Z" transform="translate(-20.22 -392.2)"/><path class="a" d="M393.76,428.51l-10.22,10.23q-6.24-6.17-11.32-6.17a7.1,7.1,0,0,0-4.36,1.18,3.51,3.51,0,0,0-.57,5.38,18.41,18.41,0,0,0,4.93,3.06l6,3q9.56,4.71,13.13,9.62A20,20,0,0,1,388.53,481q-6.45,5.86-17.28,5.87-14.4,0-23-11.26l10.17-11.07a23.54,23.54,0,0,0,6.81,5.48,15.06,15.06,0,0,0,6.93,2.08,8.24,8.24,0,0,0,5.26-1.57,4.57,4.57,0,0,0,2-3.63q0-3.81-7.2-7.44l-5.57-2.79q-16-8-16-20.15a17.47,17.47,0,0,1,6-13.34q6-5.54,15.4-5.54a26.69,26.69,0,0,1,21.66,10.89Z" transform="translate(-20.22 -392.2)"/><path class="a" d="M410.09,392.2a10.08,10.08,0,0,1,7.45,3.15,10.47,10.47,0,0,1,3.11,7.63,10.3,10.3,0,0,1-3.08,7.53,10,10,0,0,1-7.36,3.12,10.12,10.12,0,0,1-7.51-3.18,10.64,10.64,0,0,1-3.11-7.72,10.53,10.53,0,0,1,10.5-10.53Zm-8.26,27.12h16.52v65.84H401.83Z" transform="translate(-20.22 -392.2)"/><path class="a" d="M478.05,419.32h16.46v56.4q0,16.69-6.72,24.57-9,10.65-27.17,10.65a47.68,47.68,0,0,1-16.28-2.42,29.24,29.24,0,0,1-11.13-7.12,28.82,28.82,0,0,1-6.72-11.4H444.7a15.19,15.19,0,0,0,6.24,4.2,25.69,25.69,0,0,0,9,1.43q6.66,0,10.72-2.06a12.4,12.4,0,0,0,5.71-5.33Q478,485,478.05,477a27.44,27.44,0,0,1-9.14,6.26,29.08,29.08,0,0,1-10.83,1.91,29.75,29.75,0,0,1-22.39-9.57q-9.15-9.55-9.14-24.2,0-15.67,9.68-25.18a28.92,28.92,0,0,1,20.94-8.59,27.89,27.89,0,0,1,10.74,2.09,34,34,0,0,1,10.14,6.87Zm-17.13,13.73A17.21,17.21,0,0,0,448,438.29,18.11,18.11,0,0,0,443,451.45a18.36,18.36,0,0,0,5.2,13.49,17.63,17.63,0,0,0,13.07,5.27,16.94,16.94,0,0,0,12.68-5.14q5-5.15,5-13.5t-5-13.37A17.3,17.3,0,0,0,460.92,433.05Z" transform="translate(-20.22 -392.2)"/><path class="a" d="M505.32,393.9h16.4V426a37.83,37.83,0,0,1,9.74-6.26,25.19,25.19,0,0,1,9.93-2.09,22.36,22.36,0,0,1,16.52,6.78q5.75,5.87,5.75,17.25v43.51H547.38V456.29q0-11.43-1.09-15.49a10.85,10.85,0,0,0-3.72-6.05,10.47,10.47,0,0,0-6.51-2,12.25,12.25,0,0,0-8.62,3.33,17.64,17.64,0,0,0-5,9.08q-.74,3-.73,13.55v26.45h-16.4Z" transform="translate(-20.22 -392.2)"/><path class="a" d="M577.67,395.05h16.52v24.27H604v14.22h-9.8v51.62H577.67V433.54h-8.48V419.32h8.48Z" transform="translate(-20.22 -392.2)"/></svg>