<svg id="Layer_1" data-name="Layer 1" xmlns="http://www.w3.org/2000/svg" viewBox="0 0 231.97 225.94"><defs><style>.cls-1{fill:#1b1c1b;}.cls-2{fill:#ba9764;}</style></defs><title>publicis_color</title><path class="cls-1" d="M217.1,244.14c0-4-2-8.68-11.28-8.68H189.4v28.41h5.72v-11h10.7C215.14,252.86,217.1,248.12,217.1,244.14Zm-22-3.32H205c6,0,6.51,1.59,6.51,3.36S211,247.5,205,247.5H195.1Z" transform="translate(-189.37 -87.16)"/><path class="cls-1" d="M252.28,252V235.46h-5.72V252c0,4.94-2.9,7.34-8.86,7.34s-8.86-2.4-8.86-7.34V235.46h-5.71V252c0,8.1,5.17,12.55,14.57,12.55S252.28,260.05,252.28,252Z" transform="translate(-189.37 -87.16)"/><path class="cls-1" d="M289.13,255.33a7.35,7.35,0,0,0-3.45-6.45,6.31,6.31,0,0,0,2.56-5.38c0-8-8.51-8-11.31-8H260.69v28.37h14.5C279.71,263.87,289.13,263.87,289.13,255.33ZM275,240.68c5.64,0,7.51.41,7.51,2.86,0,.8,0,2.93-6.44,2.93H266.4v-5.79Zm2.2,17.83H266.4v-6.82h11.17c5.77,0,5.77,2.47,5.77,3.53,0,2-1,3.29-6.13,3.29Z" transform="translate(-189.37 -87.16)"/><polygon class="cls-1" points="133.34 171.34 113.77 171.34 113.77 148.3 108.05 148.3 108.05 176.7 133.34 176.7 133.34 171.34"/><rect class="cls-1" x="138.94" y="148.3" width="5.71" height="28.4"/><path class="cls-1" d="M371.9,256.31l.61-1.18-5.08-2.47-.59,1.09c-2,3.63-5.12,5.39-9.65,5.39-6.59,0-10.53-3.37-10.53-9,0-6.59,3.54-10.07,10.24-10.07,4.87,0,8.09,1.75,9.57,5.22l.53,1.22,5.06-2.33-.51-1.17c-2.25-5.11-7.73-8.16-14.68-8.16-9.87,0-16,5.71-16,14.9,0,7.15,4.22,14.78,16,14.78C364.12,264.5,369,261.82,371.9,256.31Z" transform="translate(-189.37 -87.16)"/><rect class="cls-1" x="189.7" y="148.3" width="5.71" height="28.4"/><path class="cls-1" d="M407.28,246.47c-5.25-.48-8.43-.93-8.43-3.11,0-2.89,4.73-3.32,7.55-3.32,6.08,0,8.34,2.61,9.43,3.87l1,1.13,4.18-3.39-.71-1c-1-1.37-4.86-5.84-13.83-5.84-11.66,0-13.41,5.66-13.41,9,0,6.79,7.57,7.52,13.65,8.11,5.35.52,8.87,1,8.87,3.32,0,3.75-7.29,3.85-8.12,3.85-7.13,0-9.27-2.85-10.68-4.73l-.83-1.11-3.46,3-1,.89.88,1c2.28,2.53,5.72,6.36,14.72,6.36,6.57,0,14.25-2.41,14.25-9.21C421.36,247.75,413.55,247,407.28,246.47Z" transform="translate(-189.37 -87.16)"/><path class="cls-1" d="M215,302.7h10.22c-1.09,3.69-5.16,5-8.61,5-6.5,0-10.39-3.37-10.39-9,0-6.59,3.5-10.07,10.11-10.07,2.06,0,7.06.49,9.07,5.08L226,295l4.93-2.6-.49-1.11c-2.18-4.92-7.4-7.87-14-7.87-9.86,0-16,5.71-16,14.9,0,7.14,4.21,14.78,16,14.78,4.37,0,7.18-1.16,9.07-2.52v2.1h5.39V297.34H215Z" transform="translate(-189.37 -87.16)"/><path class="cls-1" d="M268.18,292.56c0-3.87-2-8.5-11.45-8.5H240.52v28.4h5.72V301h8.2l8.31,11.43h7.15l-8.75-11.8C264.74,299.85,268.18,297.42,268.18,292.56Zm-21.94-3.14H256c5.51,0,6.59,1.14,6.59,3.11s-1,3.14-6.59,3.14h-9.78Z" transform="translate(-189.37 -87.16)"/><path class="cls-1" d="M290.38,283.42c-9.82,0-16.42,6-16.42,15,0,10.09,8.52,14.68,16.42,14.68s16.42-4.59,16.42-14.68C306.8,289.45,300.21,283.42,290.38,283.42Zm0,24.32c-2.49,0-10.63-.71-10.63-9.89,0-5.42,4.37-9.21,10.63-9.21S301,292.43,301,297.85c0,9.18-8.12,9.89-10.64,9.89Z" transform="translate(-189.37 -87.16)"/><path class="cls-1" d="M336.52,300.55c0,4.94-2.9,7.34-8.86,7.34s-8.86-2.4-8.86-7.34V284.06h-5.72v16.49c0,8.1,5.18,12.55,14.58,12.55s14.57-4.45,14.57-12.55V284.06h-5.71Z" transform="translate(-189.37 -87.16)"/><path class="cls-1" d="M366.28,284.06H349.9v28.4h5.72v-11h10.7c9.32,0,11.27-4.74,11.27-8.72S375.6,284.06,366.28,284.06Zm-10.7,5.36h9.89c6,0,6.51,1.59,6.51,3.36s-.5,3.32-6.51,3.32h-9.89Z" transform="translate(-189.37 -87.16)"/><polygon class="cls-1" points="199.57 213.27 216.19 213.27 216.19 207.91 199.57 207.91 199.57 202.26 219.45 202.26 219.45 196.9 193.86 196.9 193.86 225.3 219.88 225.3 219.88 219.94 199.57 219.94 199.57 213.27"/><path class="cls-2" d="M381.15,221l-17-10.06c3.4.44,6.38-1.07,9.15-3.07l5.19,6.32-3.17-7.84c3.44-2.7,6.26-5.61,9.78-5.69,9.6-.24,2.88,11.29,6.39,11.33,3.92,0,8.18-12.84-1.23-18.49-9.75-5.9-18.26,2.61-25.15,1.16l25.79-11.53H353.19l-1.29-2.53c6.83,3.07,11.69.22,15-3l10.74,1.54-8.88-3.47c2.12-2.22,3.92-3.94,6.16-3.08,3.19,1.21,5.05,4,10.59,4.08,9.34.1,16.14-16.5,3.79-23.71.94,11.84-4.57,12.43-14.14,6.14l3.28-5.35-4.9,4.31c-9.19-4.09-13.67,4-17.54,6.67s-7.42-2.63-12.12,3.62c7-2.31,10.59,4.4,15.2,0-1.92,11.88-8.74-3.62-15.54,2.31,5.9.44,9,5.72,13.67,5.72,8.64,0,.94-16.64,13.11-16.64l-2-1.3c6.9-.65,7.25,6.25,17.66,6.38,1.07,1.57-2.72,1.69-5.39.78-.43,2.21,14.13,7.17,10.63-9.38,4.58,2.48,3.58,12.89-.71,16.85-.83.77-1.61,1.14-2.13.34-1.17-1.77,1.84-1.74,2.69-4.42-3.26,2.84-8.81,2.6-12.61-.91s-9.46-7.81-11.9-.4-4.46,10.88-8.93,11c-6.16.1-12.69-10.22-19.52-4.51,13.06,1.21,16.14,22,27.64,22.23,8.93,0,10.94-3.92,16.75-3.92s11.93,3.07,11.93,10.73a11.11,11.11,0,0,1-2.44,7.24,15.07,15.07,0,0,0,.89-8.55c-.86-4.57-4.76-7.36-9.86-7.36-7.17,0-12.94,11.75-20.92,11.75-16,0-20.07-30.78-36.77-26.05,12.3,8.31,13.65,21.6,20.26,26.69s14.69,3,19.11,6.95c1.8,1.57,2.56,4.24,3.15,7.15h-1.52a9.45,9.45,0,0,0-2.67-4c-3.83-4-15.32-2.26-20.6-8s-9.14-22.84-19.54-25.47c9.07,5.81,11.08,20.81,17.58,28.17s15,3.45,19,7.31a21.46,21.46,0,0,1,1.82,2h-7.44a12.94,12.94,0,0,0-2.15-.21c-1.2,0-2.42.09-3.64.21H338.3a8.54,8.54,0,0,1-3.7-2.28c-5.15-5.44-4.67-11.15-4.26-17.9,1,6.34,2.22,20.92,13.12,19.29C329.75,215.5,337.72,192,321,186c-1.81-.67-1.19-6.57,3.38-7.45-9,1.74-9-1.57-2.6-8.22-3.94,2.5-8.24,1.78-9.19,4.62,0,0,7.42,11.64,7.42,13.92s-4.89,11.44-5.43,11.74c-1.83,1-7.78,1-9.29.58s-3.42-5.48-2.7-7c1.13-2.43,10.31-4.42,10.48-8,.11-2.82-3.7-3.09-3.58-1.61,2.22.74,3.17,4-3.32,5.51l1.47-2.34s-4.81,3.84-5.05,4a3.68,3.68,0,0,1-2.08,0c-.71-.22-7.65-3.56-6.46-6.86,0,0,2.11.92,7.35.92s5.76-2.28,5.76-2.28a23,23,0,0,1-11.37,0c-2.28-.53.13-3.41.94-3.45h5.46c.33,0,.8-.76.05-.8-.55,0-4-.11-4.3-1-.47-1.46-1.4-10.61-1.4-10.61s1.19-2.84.19-3.79-1.46-.45-1.46-.45c2.27,12.7-7.47,20.6-13,19.07l-.66-.11a17.74,17.74,0,0,0,4.95,2.5c-10.39,2.2-14.62-4.12-16.29-8-.9.46-.93,2.93-.81,4.5-2.17-2.37-3.46-6-1.49-8.65-2.64,1.27-2.75,1.68-2.75,1.68.11-2.18,3.92-3.61,5.85-6.14s1.52-6.45-2.59-8.1c.27,3.92-1.67,6.6-5.63,7.92s-3.19-2.21-6.75-1.44c5.82,1.33,5.51,9.37,11.32,12.68-7.76-1.82-9.1-12.37-18.54-11.33,5.43-7.73,14-1.09,17.57-6.45-9.19,2.11-15.45-5.65-16.52-14.16-1.62-13-12.62-6.6-12.44-13,5.54,2.49,17.81-7,21.42,3.81,3.8,11.3,11.45,15.9,18.34,10.68l-30-30.47,3.8,12.77c-7.85,1.55-17.3-3.13-12.17-14.09-7.42-3.45-17.25,8.89-8.18,18.55,4.19,4.46,14.41,2.82,17.1,11.94l-9.73-.79,10,2.62,3,8.85-23.34-11.49L242,163.44c-8.37,4.43-10.45-8.25-21.28-8-7.57.18-16,8-12.52,17.1,11.32-6.86,15-2,19.78,2.8l-7,3.72,8.25-2.5a15.39,15.39,0,0,0,12.48,4.59c9.79-.73,18.42-3.88,20.64-1.22,1.7,2-.26,3.22-3.79,3.22H211.82l18.76,10c-1.81,1.4-7,7.82-10.65,7.82s-11.71-5.55-13.86,4.17c8.34-1.43,12.56,16.79,30.09,2.26L228,221H189.37v4.66H421.1V221ZM372,166c4.31,1.85-9,14.82-13.1,14.34C367.4,177.76,367.69,164.08,372,166Zm1.75,38.27c3-8,12.46-11.48,16.37-4.45.19.35-.11.62-.79-.06-4.89-4.89-11.15-.24-15.07,4.86-.56.7-.74.25-.51-.37ZM237,118.24c-2.47,4.29-2,12.12,7.88,14.44-16.54,3.69-16.12-15.09-7.88-14.43Zm-13.39,51.08c-7.62-4.19-14.37.79-14.37.79,2.27-7.55,16.37-8.14,14.37-.78Zm3.34-3c-1.15-1.52-2.13-2.84-3.36-3.26a14.17,14.17,0,0,0-4.94-.39c-1.94.1-3.62.18-4.13-1-.35-.78,0-1.61,1-2.35a8.16,8.16,0,0,1,4.08-1.33,5.59,5.59,0,0,1,4.19,1.17c1,.86,1.35.93,1.52.85s.18-.69.15-1.07-.08-.51.09-.48c2.72.44,4,2.12,5.43,3.8,2.33,2.8,5.91,7.05,14.63,5.56-2.17,7.74-14.66,5.44-18.66-1.49Zm7,10.58c-.46-3.4,16.58-5.91,16.71-1.05.17,4.25-16.16,4.8-16.71,1.06Zm88,20.92c-5.62,12.15,8.3,19.74,10.91,22.15a7.46,7.46,0,0,1,.89,1.06H329c-1.37-2.89-2.84-5.09-4.49-5.85a25.31,25.31,0,0,1,2.72,5.85H325c-3.24-6.41-8.62-11.31-3.1-23.2ZM320.49,221h-2l-2.31-6.63c1.85.93,3.17,3.41,4.34,6.64Zm-5.68,0h-2.17c.94-3.64,1.42-7.52-.86-12.21,3.67,3,3.63,7.64,3.06,12.22ZM311,221H309c.85-2.86,1.09-5.9-1.34-10.23,3.62,3,3.87,6.6,3.32,10.24Zm-14.42,0c1.15-5-.92-6.55-5.16-11.07,6.36,4.37,8.65,7.39,8.23,11.07Zm5.17-8.8c3.17,3.68,4.09,6.35,4.13,8.8H303.9a17.52,17.52,0,0,0-2.17-8.79Zm-.34-8.62c2.78,0,8.06-.15,8.21-.15.75,0,.9.25.93.38,0,.28-.35,1.69-.91,1.83a31.94,31.94,0,0,1-16.47,0c-.55-.14-.94-1.55-.89-1.83,0-.13.16-.38.9-.38,0,0,5.47.16,8.26.16Zm-8.05-19.15c-2.25.74-2.63,4.39,3.91,5.87-2.13.31-7.34-.66-7.5-4.26-.11-2.81,3.71-3.1,3.62-1.6Zm-6.41,6.23a39.6,39.6,0,0,1,12.54,3.41c.73,1.56-1.11,6.56-2.71,7s-8.83-.33-9.89-3.45c4.41,1.19,4.7-.46,4.7-.46s-4,0-5.64-2.76c3.14,1.12,4.65-.05,4.65-.05s-6.11-2.33-6.29-3.73Zm-6,6.78.14-1.19c.41,14.56,11,16.87,11,24.11V221h-1.87A5.43,5.43,0,0,0,289,217.1c-6.9-9.2-7.19-11.18-7.19-11.18.59,7,5,7.87,6.1,15.12h-2.86C283.9,215.61,278.42,213.49,280.9,197.47Zm.63,23.57h-5.11l2.72-4.37a11.1,11.1,0,0,1,2.34,4.37Zm-8.27,0H269.9c5-9.32,2.21-24.46,6.53-29.12-3,5.4,1.71,18.44-3.22,29.12Zm1.37-35.1c-2,1.82-11.37,10-8.46,32.31,2.94-4.82.42-23.07,9.12-29.68C269.2,196,272.43,209.13,268,221h-4.28c1.16-9.6-4.16-24,10.84-35.07ZM257.46,221h-2a40.58,40.58,0,0,0,3.61-7.07,15.63,15.63,0,0,1-1.66,7.07Zm9.65-38.45c1.77,2-9.4,7-14.88,5.1,9.13.12,13-7.09,14.83-5.1ZM254.32,190c6.32,0,10.06-2.09,11.65-3.68-.62,4.55-5.46,6.12-11.59,6.12s-11.79-6.77-16.46-2.25c8.21-1,9.43,7.72,18.71,4.8-8,8.63-13.9-6.59-23.12-2.19C238.18,181.59,248,190,254.32,190Zm-45.68,13.89c4.78-7.09,8.51,2.67,16.47-2.75,2.64,4.17-3.85,6.77-7.64,4.45s-6.84-2.47-8.83-1.73Zm23.26,5c-3.51,2.72-12.48,5.48-12.35-.38,9.32,1.8,11.46-11.43,19.76-7.53C237.24,201.36,235.38,206.2,231.9,208.88Zm26-3a29.14,29.14,0,0,1-1.87,11.37L242.61,221h-12Z" transform="translate(-189.37 -87.16)"/><path class="cls-2" d="M309,150.51c-6.5.71-5.47,9.52-.59,9.52s5.6-2.27,9.3-2.27,5,2.42,8,2.42,4.71-2.12,3.38-4c-1.92,3.13-5.32-1.14-7.82-1.14-3.84,0-5.48,1.58-8,2.84-2.8,1.43-5.48.08-4.44-1.57C306.68,156.3,305.29,153.63,309,150.51Z" transform="translate(-189.37 -87.16)"/><path class="cls-2" d="M332.51,123.48c-6.28,9.32,2,18.9-11.14,22.21,15.65.16,7.51-13.19,13.23-20.87s12.19-4.85,14.3-13.73C345.58,118.32,336.1,118.12,332.51,123.48Z" transform="translate(-189.37 -87.16)"/><path class="cls-2" d="M314.51,141.19c-3.59-3.52-2-9.84-2-9.84S306.9,138.44,314.51,141.19Z" transform="translate(-189.37 -87.16)"/><path class="cls-2" d="M336.69,126.57c-5,7.47.77,18.29-9.78,21.42,13.29.33,6.91-15.05,11.71-20.38,4.19-6.12,8-5.07,10-11.59C345.83,121.23,339.55,122.3,336.69,126.57Z" transform="translate(-189.37 -87.16)"/><path class="cls-2" d="M355.36,149.53c-11-4.5-17.5,5.86-17.5,9,2.66-1.27,7-6.05,8.66-7.11C349.51,149.43,354.13,150.62,355.36,149.53Z" transform="translate(-189.37 -87.16)"/><path class="cls-2" d="M329.54,165.78c.79,1.76,4.06-2.17,9-.66C336.15,163.5,329.1,163.51,329.54,165.78Z" transform="translate(-189.37 -87.16)"/><path class="cls-2" d="M365.79,144c-2.32,10.76-22.51,2.8-22.35,18.13C347.72,154.57,367.55,155.24,365.79,144Z" transform="translate(-189.37 -87.16)"/><path class="cls-2" d="M325.84,170.84c.38,2.31,4.43-2.48,12.18.85C335.36,167.83,325.26,167.46,325.84,170.84Z" transform="translate(-189.37 -87.16)"/><path class="cls-2" d="M310,141.15c-7.82-12.85,10.52-15.81,5.34-26.41C316,123,298.39,131.59,310,141.15Z" transform="translate(-189.37 -87.16)"/><path class="cls-2" d="M312,191c-1.06.75-3.58,1.48-5.55,2.81-.2.34-.54,1.56-1,1.84C307.5,196,311.84,193.09,312,191Z" transform="translate(-189.37 -87.16)"/><path class="cls-2" d="M286.9,161.22c-3-.61-6.68,2.45-10.21,4.09,3.32,4.78,11,5.17,14.11,6.87C291.44,171.12,293.79,162.6,286.9,161.22ZM283.3,169c-3.16-1.19-1.84-7.26,2.36-6.38C285.41,163.1,283.48,166.8,283.3,169Zm2.4.73c1.38-1.48,2.36-5.06,2.59-5.62,3,2.36,0,6.64-2.59,5.64Z" transform="translate(-189.37 -87.16)"/><path class="cls-2" d="M297.9,156.32c-3.35,4-5.73-.38-10-.38-3.65,0-7.89,4-8.63,1.41-.58-2,3.17-5.47,8.07-5.84-4.17-1.16-11,2.68-12.23,6.9a6.56,6.56,0,0,1-2.45-.23c1.71,7.18,9-.16,12.36-.16C288.11,158,297.71,165,297.9,156.32Z" transform="translate(-189.37 -87.16)"/><path class="cls-2" d="M296.9,112.66l3.64,9.5A17.37,17.37,0,0,0,297.25,133c0,13.54,11.11,14.8,10.34,9.34-7.81,3.57-8.18-7.72-6-10.11,0,0-1.43,5.92,3.79,8.07-7-11.52,6.75-15.91,6.75-25.1,0-7.67-4.71-10.16-4.61-17.19.13-8.47,12.58-10.68,12.71-7.42.1,2.33-9.05,2.59-9.2,11.33-.14,8.18,9,10.14,8.81,18.1-.15,5.2-9.48,10-3.66,19.79l13.26-37.39-10.16,11.46c-3.25-4-5.8-4.43-5.8-11.7s8.11-8.35,8.11-11.74c0-2.73-4.07-3.11-7-3.24C310,87,301.88,90.94,301.88,99.39s5.73,12.77,0,20.72Zm12-1.83c3.62,11.47-8.31,14.51-9.3,22.08C298.9,123.76,310.33,119.42,308.9,110.83Z" transform="translate(-189.37 -87.16)"/><path class="cls-2" d="M288.34,173.47c-1.88-1.26-8.57-1.07-12.32-4.91a2,2,0,0,0,.08,1.45,5.12,5.12,0,0,0-3.32,6.23s3-3.66,4.93-3.6c0,0-.42,2.94.43,4.28l.4.62C276.9,171.47,288.34,173.47,288.34,173.47Z" transform="translate(-189.37 -87.16)"/><path class="cls-2" d="M254.21,120.21l8.35,4c.25,2.87,1.46,5.91,4.35,9.29,3.24,3.79,12.07,4.91,12.44,13.82,2.69-2.71.58-9-5.41-12.51-22.4-13.16,15.3-33.77-8.91-41.16,20.92-1.41,12,17.51,13.67,25.1,2.31,10.47,12,7.94,17.15,14.5l-5.68-31.8-5.4,22.16c-7.13-1-4.61-11.16-4.42-20.32.35-17.37-29.37-12.4-25.34-2.61,1.52,3.71,11.58-4.6,11.64,4.19.05,6-3.68,11.16-4.1,17ZM257,99.28c-2-2.47,8-5.23,9.86,1C261.9,97,258,100.44,257,99.28Z" transform="translate(-189.37 -87.16)"/><path class="cls-2" d="M274.9,117.45c-9.87,18.67,24.27,10.18,19.83,26.06C301.9,126.34,271.13,135.9,274.9,117.45Z" transform="translate(-189.37 -87.16)"/><path class="cls-2" d="M363.34,203c5.67-.12,10.16-5.71,13.38-7.76-4.62,1.06-7,5.16-13.38,5.31-10.41.2-15.83-29.2-33.55-23.2C348.05,178.82,347.63,203.4,363.34,203Z" transform="translate(-189.37 -87.16)"/><path class="cls-2" d="M287.1,141.6a2.6,2.6,0,0,1-1.38-.42c-2.35-1.49-3.6-5.54-6-5.1,1.38,1.06.76,4.88,2.72,7a5.07,5.07,0,0,0,7.56-6.76,5.17,5.17,0,0,0-.64-.6c-1.79-1.4-4.34-2.33-11.78-4.86-17.68-6,8.79-23.94-3.39-34,6.69,14.45-12.85,23-2.69,33.16,4.4,4.58,14,3.89,17.35,7.15a2.57,2.57,0,0,1-1.77,4.43Z" transform="translate(-189.37 -87.16)"/><path class="cls-2" d="M271.9,152.31c-3.19-.08-8.3-1.6-10.08-5.88C260.13,150.33,265.2,160.81,271.9,152.31Z" transform="translate(-189.37 -87.16)"/><path class="cls-2" d="M313.59,193.83c-.2.51-1.63,1.07-4.53,2.17a7.86,7.86,0,0,1-2.17,2.28C310.35,199.23,314.18,195.72,313.59,193.83Z" transform="translate(-189.37 -87.16)"/><path class="cls-2" d="M328.32,162.74c.72,1.19,1.79-1.08,3.75-2.16C329.51,160.23,327.9,162.09,328.32,162.74Z" transform="translate(-189.37 -87.16)"/><path class="cls-2" d="M326.17,164.38c-3.52-1.63-7.14-4.71-10.18-4.09-7,1.38-4.62,9.89-3.93,11C315.17,169.54,322.9,169.16,326.17,164.38ZM319.52,168s-2.1-5.9-2.36-6.39C321.36,160.65,322.66,166.73,319.52,168Zm-5-4.9c.25.56,1.22,4.14,2.6,5.62-2.61.95-5.62-3.33-2.61-5.67Z" transform="translate(-189.37 -87.16)"/><path class="cls-2" d="M341.46,143.74c-3.12,3.42-2.9,6.22-7.56,9.21,6.09,2.61,6.24-5.44,12.32-7.19,4.14-1.21,7.29,3.8,13.22,1.08s3.81-13.72,6.68-18.57,10.84-9.36,16.47.41c0,0-9.51-9.35-14,1.81,3.1-2.58,7.71-3.38,7.71-.9-2.44.78-6.37,2.21-6.5,10.94-.14,10.16-4.25,12.35-7.44,14.45-4.61,3.05-15.33,2.89-17.71,9.81L381.9,148.2H370.51c1.47-8.32-1.76-20.71,13.78-17.83,1.9-4.13-11-17.39-22.27-2.27L361,124.29C358.59,144.43,348,136.62,341.46,143.74Zm19.67-10.08c1.91,3.29-3.8,9.22-3.8,9.22,1.5.54,1.43,2.69-.43,3.24-3.38,1-6.06-2.8-10.38-1.69C347.42,142.88,356.42,143.21,361.13,133.66Z" transform="translate(-189.37 -87.16)"/><path class="cls-2" d="M269.23,157.4c-15.68.26-4.14-16.94-15.84-19.47,6,4.07,2.73,7.72,2.77,14.3C256.21,160.16,265.71,162.56,269.23,157.4Z" transform="translate(-189.37 -87.16)"/><path class="cls-2" d="M324.08,134.23c-1.82,4.9-6.84,6.29-9.29,10.54,1.37,0,8.65-1.61,11.35-6.18,2.59-4.41.05-17.28,8.41-20.42,8.73-3.3,17.87-8.15,7.54-18.68,15.84,4,6.94,20.9,5.07,23.38-1.8,2.3-7.63,6.92-7.63,14.34,0,5.5-4.93,11.77-8.78,12.53,4.06,1.65,10.13-7.65,10.13-7.65l19.74-25.53-11.36,5.86s3.12-2.68,3.12-11.58c0-12.6-13.52-14.85-13.4-10.94.11,2.6,4.6,4.44,4.75,8.72s-5.87,6.71-10.56,8.07l-2.09-7v7.92C323.4,121.53,326,129.07,324.08,134.23Z" transform="translate(-189.37 -87.16)"/></svg>