<svg id="svg2" xmlns="http://www.w3.org/2000/svg" viewBox="0 0 800.01 386.53"><defs><style>.cls-1{fill:#daa44b;}.cls-2{fill:#ba2132;}</style></defs><path id="path1877" class="cls-1" d="M388.07,386c-20.49-2.86-41.45-14.54-53.83-30l-4.73-5.91-2.25,2.88c-1.76,2.25-3.38,3-7.49,3.59a66.46,66.46,0,0,0-12.42,3.6c-4,1.58-9.07,2.87-11.41,2.87-3.64,0-4.74-.55-7.83-3.9-2-2.14-4.7-4.05-6-4.25-1.62-.23-3.35-1.85-5.17-4.85-5-8.3-3.31-11.4,6.51-11.67,9.4-.25,13.82-1.84,10.63-3.81-1.44-.89-33.11-1.14-36.16-.28-1.7.48-3.25,2.07-4.37,4.5-2.42,5.22-5.15,8-11,11-4.5,2.38-6,2.63-14.39,2.46-8.82-.18-9.58,0-12.5,2.44-4.29,3.61-9,5.4-12.32,4.73-2.4-.48-3.41.08-6.62,3.65l-3.78,4.22-6.7-.62c-3.68-.33-7.35-.2-8.14.29-1.59,1-5.85-.79-8-3.33-1-1.22-.84-2.61.9-7.41s3.37-7,8.2-11.22c6.6-5.81,10.22-6.73,13.77-3.52,2.4,2.17,4.46.95,5.51-3.26,1.15-4.63,4.36-7.21,9-7.21,2.28,0,5-.61,6-1.36,1.65-1.21,1.73-1.86.74-5.75-.61-2.41-1.39-6.12-1.73-8.24l-.62-3.86-4.46.67a20.9,20.9,0,0,1-22.88-13.38c-2.76-7.83,0-15.57,8.38-23.39a58.69,58.69,0,0,0,5.09-5.1,10.84,10.84,0,0,0-3.51-.9,16.18,16.18,0,0,1-11-7.72c-1.89-3.64-1.92-10-.07-12.53,1.39-1.9,1.57-1.87,7.88,1.24a52.4,52.4,0,0,0,10.33,3.89c8.47,1.53,12.39,5.32,12.34,11.9,0,5.43-1.79,8.22-8.12,13.06-9.37,7.16-12.24,14.08-7.72,18.6,1.82,1.82,2.94,2.05,7.82,1.61,6.08-.55,13-3.5,17-7.28,4.47-4.15,13.87-8.46,18.45-8.46a20.73,20.73,0,0,0,14.76-5.61c4.94-4.41,11-7.39,15-7.4,3.6,0,5.39-.89,11.71-5.68,2.32-1.75,8.36-4.57,13.43-6.26s10.87-4.19,12.89-5.57c5.27-3.58,12.74-5.13,17.5-3.64l3.76,1.17,5.26-5.9a89.16,89.16,0,0,1,42.74-26.21c9.63-2.57,29.59-3.09,39-1a94,94,0,0,1,28.71,12c7,4.58,18.37,15,21.43,19.7,1.36,2.07,1.68,2.13,4.17.84,4.78-2.5,12.71-1.18,19.11,3.17,1.94,1.32,7.66,3.77,12.73,5.46s11.11,4.51,13.43,6.26c6.32,4.79,8.11,5.66,11.71,5.68,4,0,10.06,3,15,7.4A20.69,20.69,0,0,0,558.56,284c4.58,0,14,4.31,18.45,8.46,4.08,3.78,11,6.73,17,7.28,4.88.44,6,.21,7.82-1.61,4.53-4.52,1.65-11.44-7.72-18.6-6.33-4.84-8.07-7.63-8.11-13.06-.06-6.58,3.86-10.37,12.33-11.9a52.17,52.17,0,0,0,10.33-3.89c6.31-3.11,6.49-3.14,7.88-1.24,1.85,2.53,1.82,8.89-.06,12.53a16.2,16.2,0,0,1-11,7.72c-1.93.32-3.51.73-3.51.92a44.86,44.86,0,0,0,4.57,4.56c8.59,7.92,11.65,16.13,8.9,23.91a20.9,20.9,0,0,1-22.88,13.38l-4.46-.67-.62,3.86c-.33,2.12-1.11,5.83-1.73,8.24-1,3.89-.91,4.54.74,5.75,1,.75,3.72,1.36,6,1.36,4.64,0,7.86,2.58,9,7.21,1,4.21,3.1,5.43,5.5,3.26,3.56-3.21,7.17-2.29,13.77,3.52,4.83,4.25,6.48,6.5,8.2,11.22s1.92,6.19.9,7.41c-2.11,2.54-6.37,4.32-8,3.33-.79-.49-4.45-.62-8.14-.29l-6.7.62-3.78-4.22c-3.21-3.57-4.22-4.13-6.62-3.65-3.36.67-8-1.12-12.31-4.73-2.93-2.47-3.69-2.62-12.5-2.44-8.43.17-9.9-.08-14.4-2.46-5.84-3.08-8.57-5.82-11-11-1.13-2.43-2.68-4-4.38-4.5-3-.86-34.72-.61-36.16.28-3.19,2,1.24,3.56,10.63,3.81,6.31.18,9.42,1.68,9.38,4.54,0,.9-1.25,3.88-2.75,6.63-2,3.61-3.42,5.1-5.23,5.35-1.37.2-4.11,2.11-6.09,4.25-3.09,3.34-4.2,3.9-7.81,3.9-2.31,0-7.66-1.32-11.9-2.94a70.48,70.48,0,0,0-12.42-3.56c-3.65-.47-5.26-1.3-7.06-3.6l-2.34-3L466,355.54C456.1,368,437.63,379.88,421.57,384,412.58,386.28,397,387.21,388.07,386Z"/><path id="path1875" class="cls-2" d="M183.15,364.11c-2.42-1.54-.38-7,3.46-9.3,1.87-1.1,3.4-2.39,3.4-2.86s2-2.25,4.51-4a22,22,0,0,0,7-7.95c2.34-4.62,2.69-4.88,7.55-5.54a16.48,16.48,0,0,0,7.75-3c2.42-2.08,2.54-2.52,1.39-5a46.06,46.06,0,0,1-2.13-9.7,48.69,48.69,0,0,0-1.23-7.3c-.2-.2-2.83,0-5.84.37-10.8,1.43-16.76-1.11-20.72-8.86-4.27-8.35-2.19-14.27,8.35-23.78,7.7-6.95,7.86-8.66.87-9.45-5.72-.64-9.36-3.15-11.84-8.15-1.48-3-1.65-4.26-.79-6.14l1.08-2.37,4.7,2.63a35.14,35.14,0,0,0,9.77,3.43c11.91,1.88,15.33,11,6.85,18.23-10.52,9-13.31,12.15-13.9,15.85-1.34,8.38,4,13.43,13.23,12.47,6.06-.62,9.93-2.41,17.15-7.92,6.05-4.61,15.4-8.72,19.91-8.76,4.94,0,11.57-2.81,15.37-6.44,4.69-4.48,7.12-5.61,14.17-6.6,5-.71,6.69-1.51,10.3-4.84,3.15-2.91,6.29-4.58,11.51-6.13a99.75,99.75,0,0,0,14.64-6.07c8.31-4.38,14.15-5.09,19.78-2.42,5.19,2.46,24,17.94,28.2,23.16,2.11,2.65,5.3,6.49,7.08,8.52a33.93,33.93,0,0,1,8.42,18.7c1.26,9.25,5.69,22.77,8.42,25.72a28.94,28.94,0,0,1,4,6A21,21,0,0,0,391.2,343c3.2,2.31,3.72,3.07,2.44,3.56-2.61,1-6.69-.48-9-3.25-6.16-7.4-9-10.34-9.41-9.89-.28.28,0,1.17.73,2a21,21,0,0,1,2.48,5.78c1,3.38,2.2,4.91,5.85,7.28,5.41,3.52,5.8,4.5,1.77,4.5-3.82,0-7.73-1.72-11.83-5.21-3.9-3.31-4.47-3.37-8-.89-1.84,1.29-5.12,2.07-10.21,2.43a45.19,45.19,0,0,0-11.22,2.09c-4.7,2-7.22,2-9.21,0s-2-5.84.05-9c1.53-2.34,1.51-2.46-.47-2.46-2.52,0-2-2.22,1.38-6a31.13,31.13,0,0,0,3.88-5.75l1.64-3.25h-4a39.7,39.7,0,0,0-8.49,1.2c-2.47.66-4.78.9-5.15.53s.12-2.31,1.08-4.34c2.21-4.63,3.33-12,1.67-11a3.93,3.93,0,0,0-1.15,3c0,1.26-1.35,4.16-3,6.44-2.38,3.29-3.63,4.15-6,4.15-3.36,0-4.88,2.26-3.29,4.88,5.73,9.42,6.71,12.24,5.66,16.18-1.17,4.38-.26,5.11,2.11,1.72s1.92-6.83-1.44-13.12a49.64,49.64,0,0,1-3-6.21c0-.32,1.22-.44,2.72-.27,4.08.48,8.78,7.92,8.78,13.9,0,6.17-4,11.55-9.27,12.53-2.05.38-7.53,2-12.17,3.54-11.27,3.81-13.1,3.71-17.12-.9-1.8-2.06-4.15-4-5.22-4.26-2.06-.55-8.44-8.6-7.53-9.51.3-.3,2.79-.81,5.55-1.14,5.43-.64,4.91-.95,11.38,6.91,2.15,2.61,3.89,3.75,5.73,3.75,3,0,8.95-3.31,9.77-5.45.91-2.36-2.41-6.79-8.24-11-3-2.18-6.47-5.55-7.68-7.5l-2.2-3.54L291,329l-.5,3.5-5-.27c-2.75-.15-10.4-.43-17-.63s-12.58-.41-13.3-.48c-2.28-.21-4.44-7-3.72-11.8.38-2.55.25-4.32-.32-4.32s-1.27,2.69-1.66,6c-1.59,13.72-7.7,19.2-23.5,21.08a82.47,82.47,0,0,0-13.59,2.61c-4.15,1.5-9.41,5.62-9.41,7.37,0,1.4,1.11,1.18,2.39-.47.61-.79,3.32-2.59,6-4,4.07-2.14,6.25-2.57,12.88-2.57,11.25,0,15.25-1.44,21.38-7.67,3.8-3.85,5.43-4.92,6.14-4,1.24,1.54-3.45,10.56-6.29,12.12-1.1.6-3.35,2-5,3.09-2.58,1.72-4.4,2-12.8,1.74l-9.8-.26-4.6,3.51c-3.86,2.95-5.41,3.51-9.68,3.51-4.66,0-5.39.34-8.74,4-2.89,3.16-4.36,4-7,4A11.51,11.51,0,0,1,183.15,364.11Zm175.42-23.54c1.51-1.12,1.68-1.7.74-2.65s-1.75-.85-3.78.48c-2.53,1.66-2.62,3.6-.15,3.6A7.17,7.17,0,0,0,358.57,340.57ZM368,318.68c0-3.54-5.36-11.68-7.69-11.68-.7,0-2.19,1.8-3.31,4q-3.22,6.31,1.05,2.46c1.54-1.4,2-1.3,4.83,1.09,1.9,1.6,3.12,3.57,3.12,5s.45,2.41,1,2.41S368,320.51,368,318.68Zm-39-35.85c-1-3.73-3.5-6.62-4.67-5.45-.36.36.43,2.87,1.77,5.58C328.8,288.45,330.51,288.38,329,282.83ZM605.12,361c-3.34-3.66-4.08-4-8.74-4-4.27,0-5.81-.56-9.68-3.51L582.1,350l-9.79.26c-8.41.22-10.23,0-12.8-1.74-1.66-1.1-3.91-2.49-5-3.09-2.85-1.56-7.54-10.58-6.3-12.12.72-.88,2.34.19,6.14,4,6.11,6.21,10.14,7.67,21.21,7.67,8.21,0,13.73,1.82,18.22,6,2.37,2.21,3.23,2.49,3.23,1,0-1.75-5.25-5.87-9.41-7.37a82.62,82.62,0,0,0-13.45-2.62c-16.65-2-21.84-6.68-23.66-21.3-.39-3.16-1.14-5.75-1.66-5.75s-.67,1.82-.29,4.32c.71,4.76-1.45,11.59-3.73,11.8-.71.07-6.7.28-13.3.48s-14.25.48-17,.63l-5,.27L509,329l-.5-3.5-2.2,3.54c-1.21,1.95-4.67,5.32-7.68,7.5-5.83,4.22-9.15,8.65-8.24,11,.82,2.14,6.74,5.44,9.77,5.45,1.84,0,3.58-1.14,5.73-3.75,6.47-7.86,5.95-7.55,11.38-6.91,2.76.33,5.25.84,5.55,1.14.91.91-5.47,9-7.53,9.51-1.07.28-3.42,2.2-5.21,4.26-4,4.61-5.86,4.71-17.13.9-4.64-1.56-10.12-3.16-12.17-3.54-5.3-1-9.27-6.36-9.27-12.53,0-6,4.71-13.42,8.78-13.9,1.5-.17,2.72-.05,2.72.27a49.64,49.64,0,0,1-3,6.21c-3.35,6.29-3.74,9.83-1.44,13.12s3.28,2.65,2.09-1.82c-.76-2.81-.77-4.56,0-5.75,4-6.58,6.56-12.33,6.05-13.65-.36-.94-1.81-1.56-3.62-1.56-2.4,0-3.65-.86-6-4.15-1.66-2.28-3-5.18-3-6.44a3.93,3.93,0,0,0-1.15-3c-1.65-1-.53,6.35,1.67,11,1,2,1.44,4,1.08,4.34s-2.68.13-5.15-.53A39.7,39.7,0,0,0,462,325h-4l1.64,3.25a31.63,31.63,0,0,0,3.88,5.75c3.39,3.78,3.9,6,1.38,6-2,0-2,.12-.46,2.46,2,3.13,2.06,6.94,0,9s-4.51,2-9.21,0A45.09,45.09,0,0,0,444,349.33c-5.09-.36-8.37-1.14-10.21-2.43-3.54-2.48-4.11-2.42-8,.89-4.11,3.49-8,5.21-11.84,5.21-4,0-3.64-1,1.78-4.5,3.64-2.37,4.87-3.9,5.85-7.28a21.09,21.09,0,0,1,2.47-5.78c.68-.82,1-1.71.73-2-.45-.45-3.25,2.49-9.41,9.89-2.31,2.77-6.39,4.25-9,3.25-1.29-.49-.77-1.25,2.43-3.56a21.14,21.14,0,0,0,5.72-6.44,28.52,28.52,0,0,1,3.95-6c2.73-2.95,7.16-16.47,8.43-25.72a33.92,33.92,0,0,1,8.41-18.7c1.78-2,5-5.87,7.08-8.52,4.17-5.22,23-20.7,28.2-23.16,5.63-2.67,11.48-2,19.78,2.42A99.4,99.4,0,0,0,505,263c5.22,1.55,8.35,3.22,11.51,6.13,3.6,3.32,5.33,4.13,10.26,4.83,7,1,10.62,2.71,14.61,6.91,3,3.17,8.82,5.48,16.55,6.58,5.94.84,12.34,3.77,18.49,8.45,7,5.38,11,7.17,17,7.79,9.21,1,14.57-4.09,13.23-12.47-.59-3.7-3.38-6.89-13.9-15.85-8.48-7.23-5-16.35,6.85-18.23a35.14,35.14,0,0,0,9.77-3.43l4.71-2.63,1.08,2.37c.85,1.88.68,3.16-.8,6.14-2.48,5-6.12,7.51-11.84,8.15-7,.79-6.83,2.5.87,9.45C614,286.71,616,292.63,611.76,301c-4,7.75-9.91,10.29-20.72,8.86-3-.4-5.64-.57-5.83-.37a48,48,0,0,0-1.24,7.3,44.82,44.82,0,0,1-2.13,9.7c-1.15,2.52-1,3,1.39,5a16.53,16.53,0,0,0,7.75,3c4.86.66,5.21.92,7.55,5.54a22.12,22.12,0,0,0,7,7.95c2.48,1.71,4.51,3.49,4.51,4s1.53,1.76,3.4,2.86a7.89,7.89,0,0,1,4.11,5.22c.83,3.8-.39,4.93-5.37,5C609.49,365,608,364.16,605.12,361ZM446.48,341c.33-.52-.57-1.71-2-2.64-2-1.33-2.84-1.43-3.78-.48s-.77,1.53.74,2.65C443.7,342.23,445.64,342.41,446.48,341ZM434,319.59c0-1.47,1.22-3.44,3.13-5,2.84-2.39,3.28-2.49,4.83-1.09q4.26,3.85,1-2.46c-1.12-2.2-2.61-4-3.31-4-2.33,0-7.69,8.14-7.69,11.68,0,1.83.45,3.32,1,3.32S434,320.92,434,319.59Zm41.73-42.2c-1.17-1.17-3.65,1.68-4.67,5.37-1.57,5.67-.06,5.86,2.76.36C475.25,280.34,476.11,277.77,475.74,277.39ZM174.27,363.18c-1-.63-1-1.7,0-5.23,1.07-3.71,1.7-4.45,3.75-4.45s2.41.44,2.19,2.5c-.38,3.71-2.32,8-3.61,8A5.43,5.43,0,0,1,174.27,363.18Zm446.87-1.93a23.31,23.31,0,0,1-1.37-5.25c-.21-2.06.18-2.5,2.2-2.5s2.67.74,3.74,4.45c1,3.53,1,4.6,0,5.23C623.54,364.59,622.28,364.06,621.14,361.25Zm-8.57-12.33c-3.58-3.15-3.86-4.95-.75-4.89,2.27.05,6.19,3.42,6.19,5.32C618,352.2,616.14,352.06,612.57,348.92Zm-430.38,0c.41-2.63,5-5.46,7.35-4.56,1.61.62,1.5,1-1.06,3.66C185.1,351.56,181.71,352.05,182.19,348.93Zm114.14-2.68c-.94-2.06-1.9-4.11-2.12-4.56s1.75-.67,4.38-.5c4.35.28,4.86.58,5.57,3.25.94,3.53-.43,5.56-3.76,5.56C298.64,350,297.6,349,296.33,346.25Zm199.84,2.44c-.67-.8-.79-2.45-.31-4.25.71-2.67,1.22-3,5.57-3.25,2.63-.17,4.6.06,4.38.5s-1.17,2.5-2.11,4.56c-1.28,2.79-2.32,3.75-4.08,3.75A5.07,5.07,0,0,1,496.17,348.69ZM620.51,188.07c-19.53-3.18-34.11-12.44-40.72-25.87l-3.28-6.65-.28-38.28L575.94,79H610v32.27c0,32,0,32.29,2.38,36.75a20.87,20.87,0,0,0,32.36,5.63c7-6.16,7.21-7.32,7.24-42.9L652,79h34.07l-.28,38.25-.29,38.25-2.76,5.62c-8.23,16.75-25.39,26.72-47.24,27.44A102.56,102.56,0,0,1,620.51,188.07Zm-447-3.7c-21.67-3.37-40.08-20.92-47-44.84-2-6.8-1.55-19,1-28.48,5.37-20,20.44-34.36,41.54-39.66,9-2.28,27-1.5,36,1.56,13.52,4.57,23.71,13.62,29.44,26.13,3.49,7.62,5.71,19.26,5.36,28l-.3,7.38-38.75.26L162,135l0,2.74c.1,11.52,15.42,22,28.14,19.3,7.27-1.56,11.28-3.69,15.3-8.15L209,145l14,6.15,14,6.16-1.71,3c-5.42,9.54-18.15,18.68-30.77,22.11C198.54,184.06,179.22,185.26,173.51,184.37ZM205,111.46c0-6.69-7.65-15.26-15.61-17.49-12-3.37-25.14,4.58-27.06,16.39l-.59,3.64H205Zm93,71.72a55,55,0,0,1-23.58-14.57c-8.29-8.32-12.58-16.33-14.88-27.82-4.31-21.54.23-38.57,13.94-52.34,12.39-12.45,23.37-17,39.41-16.23,11.25.53,18.38,2.79,27.08,8.6,3.26,2.18,6.17,3.71,6.48,3.4s.55-16.34.56-35.64.29-38.12.64-41.83L348.3,0H381V182H346v-5.5c0-6-.68-6.62-3.59-3.4C334.32,182.05,310.66,187.42,298,183.18Zm33.78-30.76c19.7-9.81,19.9-39.41.34-49.63-20-10.44-42.31,9.85-35.73,32.48C301.13,151.53,317.58,159.5,331.79,152.42ZM706.26,93.25l.25-90.75,16.75-.27L740,2V184H706ZM766,93V2h34V184H766ZM468.76,182.26,432,182V9.84l38.75.4c33.78.35,39.46.63,44.25,2.19,17.17,5.59,25.51,13.84,30.67,30.36,2.11,6.76,2.5,9.63,2.12,15.61A40.5,40.5,0,0,1,537.15,83c-2.27,2.4-4.13,4.62-4.12,4.94s2.35,1.94,5.19,3.59c8.36,4.86,17.32,14.28,21,22.13,2.94,6.22,3.25,7.72,3.19,15.87-.07,11.15-1.67,18-6.19,26.76-6.27,12.08-18.31,21-32.61,24.18C514.81,182.4,509.63,182.58,468.76,182.26Zm43.53-31.61c4.34-1.83,9.4-7.19,10.91-11.57,1.72-5,1.48-14.94-.43-18.58a25.91,25.91,0,0,0-10.46-9.88c-3.76-1.9-21.75-4.05-28-3.35l-4.33.48V78.29l7.25-.61c9.69-.83,15.74-3,19.81-7.24,3-3.14,3.42-4.16,3.76-10.3.48-8.38-1.88-13.77-7.54-17.29-3.48-2.17-5-2.38-20-2.7L467,39.79V152h21C503.46,152,509.93,151.64,512.29,150.65ZM81.55,177.25c-1.63-2.61-10.07-15.94-18.75-29.62L47,122.75V83.14l5.75-.59c7.34-.77,15.84-3.21,20-5.74,10.59-6.44,11.12-24.56,1-33.46-5.71-5-12.42-6.75-26.25-6.8l-12,0-.26,71.75L35,180H0L.26,94.25.51,8.5,36,8.19C60.19,8,73.27,8.26,77,9,91.83,12.16,104.56,22.36,111.87,37c12.16,24.3,6,47.39-16.67,62.4a95.12,95.12,0,0,1-12.65,6.93c-3.29,1.38-6.09,2.89-6.24,3.36s11,16.6,24.72,35.85,25,35.34,25,35.75-9.34.75-20.75.75H84.51Z"/></svg>