<?xml version="1.0" encoding="utf-8"?>
<!-- Generator: Adobe Illustrator 25.4.1, SVG Export Plug-In . SVG Version: 6.00 Build 0)  -->
<svg version="1.1" id="Layer_1" xmlns="http://www.w3.org/2000/svg" xmlns:xlink="http://www.w3.org/1999/xlink" x="0px" y="0px"
	 viewBox="0 0 47 57" style="enable-background:new 0 0 47 57;" xml:space="preserve">
<style type="text/css">
	.st0{fill:#D9D9D9;filter:url(#Adobe_OpacityMaskFilter);}
	.st1{mask:url(#mask0_969_620_00000016034784903242427840000001016364127933043364_);}
	.st2{fill:#FFFFFF;}
</style>
<defs>
	<filter id="Adobe_OpacityMaskFilter" filterUnits="userSpaceOnUse" x="0" y="21" width="46.5" height="14.4">
		<feColorMatrix  type="matrix" values="1 0 0 0 0  0 1 0 0 0  0 0 1 0 0  0 0 0 1 0"/>
	</filter>
</defs>
<mask maskUnits="userSpaceOnUse" x="0" y="21" width="46.5" height="14.4" id="mask0_969_620_00000016034784903242427840000001016364127933043364_">
	<rect class="st0" width="46.5" height="57"/>
</mask>
<g class="st1">
	<path class="st2" d="M7.3,25.8c0-1.3-1.1-2.4-2.4-2.4H3.8v4.8H5c0.6,0,1.2-0.3,1.7-0.7C7.1,27,7.3,26.4,7.3,25.8L7.3,25.8z
		 M12.7,35.2H8.4l-3.4-4.7H3.8v4.7H0V21h5.4c3.1,0,5.7,2.1,5.7,4.8c0,1.6-1,3-2.5,3.9L12.7,35.2"/>
	<path class="st2" d="M16.9,26.6c-1,0-1.9,1.4-1.9,3c0,1.7,0.9,3,1.9,3c1,0,1.9-1.4,1.9-3C18.8,28,18,26.6,16.9,26.6z M22.8,29.6
		c0,3.2-2.6,5.8-5.8,5.8c-0.8,0-1.5-0.1-2.2-0.4c-0.7-0.3-1.4-0.7-1.9-1.3c-0.5-0.5-1-1.2-1.3-1.9c-0.3-0.7-0.4-1.5-0.4-2.2
		c0-0.8,0.2-1.5,0.4-2.2c0.3-0.7,0.7-1.3,1.3-1.9c0.5-0.5,1.2-1,1.9-1.3c0.7-0.3,1.5-0.4,2.2-0.4C20.2,23.9,22.8,26.4,22.8,29.6z"/>
	<path class="st2" d="M31.7,24.1l-4.4,4.4v-4.4h-3.8v11.1h3.8v-4.5l4.6,4.5h4.8l-5.8-5.8l4.8-4.8v6.6c0,2.2,1.3,4.2,4.6,4.2
		c1.6,0,3-0.9,3.7-1.7l1.7,1.5h0.8V24.1h-3.8v7.2c-0.4,0.7-1,1.2-1.9,1.2c-0.9,0-1.4-0.6-1.4-2.3v-6.1H31.7z"/>
</g>
</svg>
