<svg width="47" height="57" viewBox="0 0 47 57" fill="none" xmlns="http://www.w3.org/2000/svg">
<mask id="mask0_969_620" style="mask-type:alpha" maskUnits="userSpaceOnUse" x="0" y="0" width="47" height="57">
<rect width="46.53" height="57" fill="#D9D9D9"/>
</mask>
<g mask="url(#mask0_969_620)">
<path d="M7.32832 25.7503C7.32832 24.4285 6.26498 23.3637 4.96457 23.3637H3.79225V28.1145H4.96457C5.59108 28.1124 6.19131 27.8625 6.63418 27.4194C7.07706 26.9763 7.3266 26.3759 7.32832 25.7494V25.7503ZM12.6608 35.2226H8.35766L4.94129 30.4815H3.79225V35.2123H0V21H5.43267C8.56446 21 11.121 23.1295 11.121 25.7508C11.121 27.3488 10.1429 28.7783 8.64923 29.6497L12.6608 35.223" fill="#001464"/>
<path d="M16.9372 26.6017C15.9358 26.6017 15.084 27.9626 15.084 29.6478C15.084 31.3329 15.9358 32.6962 16.9372 32.6962C17.9619 32.6962 18.8124 31.3329 18.8124 29.6478C18.8124 27.9626 17.9619 26.6017 16.9372 26.6017ZM22.7742 29.6478C22.7742 32.8671 20.1566 35.4451 16.9372 35.4451C16.1716 35.452 15.4123 35.3071 14.703 35.0189C13.9936 34.7306 13.3485 34.3048 12.8047 33.7658C12.2609 33.2269 11.8292 32.5855 11.5346 31.8788C11.24 31.1721 11.0884 30.4141 11.0884 29.6485C11.0884 28.8828 11.24 28.1248 11.5346 27.4181C11.8292 26.7114 12.2609 26.0701 12.8047 25.5311C13.3485 24.9922 13.9936 24.5663 14.703 24.278C15.4123 23.9898 16.1716 23.8449 16.9372 23.8518C20.1566 23.8518 22.7742 26.4312 22.7742 29.6478Z" fill="#001464"/>
<path d="M31.6739 24.0906L27.3055 28.4585V24.0762H23.5142V35.214H27.3055V30.6961L31.8662 35.214H36.6384L30.8429 29.4175L35.6436 24.6202V31.2284C35.6436 33.4226 36.9631 35.4478 40.2863 35.4478C41.8643 35.4478 43.3138 34.5531 44.0157 33.7436L45.7204 35.214H46.5299V24.0906H42.7381V31.2922C42.3114 32.0375 41.7162 32.506 40.7968 32.506C39.8653 32.506 39.4358 31.9532 39.4358 30.1842V24.0906H31.6739Z" fill="#001464"/>
</g>
</svg>
