<svg xmlns="http://www.w3.org/2000/svg" viewBox="0 0 217.22 29.38"><title>logo_rouge_media</title><path d="M72.19,43.92A10,10,0,0,1,68,48.13a13.24,13.24,0,0,1-6.4,1.46,13.35,13.35,0,0,1-6.4-1.46A10.1,10.1,0,0,1,51,43.92a13.59,13.59,0,0,1-1.46-6.5A13.7,13.7,0,0,1,51,30.92a10.1,10.1,0,0,1,4.18-4.21,13.24,13.24,0,0,1,6.4-1.46A13.35,13.35,0,0,1,68,26.71a10.1,10.1,0,0,1,4.18,4.21,13.59,13.59,0,0,1,1.46,6.5A13.68,13.68,0,0,1,72.19,43.92Zm-7-11.13a4.58,4.58,0,0,0-7.19,0,7.78,7.78,0,0,0-1.22,4.54A7.91,7.91,0,0,0,58,41.92a4.55,4.55,0,0,0,7.19,0,8,8,0,0,0,1.2-4.59A7.83,7.83,0,0,0,65.21,32.79Z" transform="translate(-21.42 -20.25)" style="fill:#fff"/><path d="M97.17,25.62V39.83a13.5,13.5,0,0,1-.59,4.31,7.63,7.63,0,0,1-1.88,3A8,8,0,0,1,91.49,49a18.33,18.33,0,0,1-9.38,0,7.63,7.63,0,0,1-3.17-1.86,7.85,7.85,0,0,1-1.89-3,12.91,12.91,0,0,1-.61-4.31V25.62h7.11V40.13a5.07,5.07,0,0,0,.2,1.55,2.22,2.22,0,0,0,.66,1,3,3,0,0,0,1.09.56,4.65,4.65,0,0,0,1.32.2,4.77,4.77,0,0,0,1.33-.2,2.92,2.92,0,0,0,1.1-.56,2.12,2.12,0,0,0,.66-1,5,5,0,0,0,.2-1.55V25.62Z" transform="translate(-21.42 -20.25)" style="fill:#fff"/><path d="M117.35,47.4c0,.07-.24.29-.71.66a7.52,7.52,0,0,1-2.2,1,12.31,12.31,0,0,1-3.8.49,10.26,10.26,0,0,1-9.12-5.47A13.43,13.43,0,0,1,100,37.52a12.71,12.71,0,0,1,1.66-6.68,11,11,0,0,1,4.41-4.18,12.94,12.94,0,0,1,6-1.41,12.12,12.12,0,0,1,6.25,1.37,11.2,11.2,0,0,1,3.16,2.55l-3.78,4.28a7.4,7.4,0,0,0-2.27-1.64,6.73,6.73,0,0,0-3-.66,5.35,5.35,0,0,0-2.52.63,4.82,4.82,0,0,0-2,2,7.41,7.41,0,0,0-.76,3.55,7.38,7.38,0,0,0,.76,3.57,4.67,4.67,0,0,0,2,2,5.35,5.35,0,0,0,2.52.63,7.36,7.36,0,0,0,1.81-.2,4.43,4.43,0,0,0,1.15-.43,1.61,1.61,0,0,0,.39-.26V40.56h-3.19V35.43h9.94V49.25h-4.61Z" transform="translate(-21.42 -20.25)" style="fill:#fff"/><path d="M125.86,25.62h17.2v5.53H133v3.26h9.37V40H133v3.59h10.42v5.66H125.85V25.62Z" transform="translate(-21.42 -20.25)" style="fill:#fff"/><polygon points="0 10.37 7.97 18.34 0.01 18.34 0.01 28.98 7.97 28.98 7.97 18.34 7.97 18.34 7.97 7.98 0 0.01 0 10.37" style="fill:#fff"/><path d="M42.22,41.05h0A11.65,11.65,0,0,0,35,20.26H29.36l0,8H39.75V38.59H29.39L40,49.23H50.4Z" transform="translate(-21.42 -20.25)" style="fill:#fff"/><path d="M154.07,25.58h2.7l8.61,12.9L174,25.58h2.7V49.22H174V30.08l-8.61,12.67h-.14l-8.61-12.63V49.24h-2.6V25.58Z" transform="translate(-21.42 -20.25)" style="fill:#fff"/><path d="M188.47,47.37A7.23,7.23,0,0,0,194,44.9l1.62,1.45a9,9,0,0,1-7.19,3.28c-4.8,0-8.71-3.68-8.71-9.12,0-5.07,3.55-9.12,8.38-9.12,5.17,0,8.14,4.12,8.14,9.25,0,.24,0,.51,0,.91H182.34A6.09,6.09,0,0,0,188.47,47.37Zm5.1-7.91c-.3-3.17-2.13-5.88-5.57-5.88-3,0-5.3,2.5-5.67,5.88Z" transform="translate(-21.42 -20.25)" style="fill:#fff"/><path d="M197.49,40.55v-.07c0-5.71,4.15-9.09,8.34-9.09a7.89,7.89,0,0,1,6.69,3.72V24.57h2.6V49.23h-2.6V45.72a7.86,7.86,0,0,1-6.69,3.88C201.64,49.6,197.49,46.29,197.49,40.55Zm15.13,0v-.07a6.49,6.49,0,0,0-6.32-6.72c-3.38,0-6.15,2.5-6.15,6.72v.07c0,4.12,2.84,6.75,6.15,6.75A6.51,6.51,0,0,0,212.62,40.51Z" transform="translate(-21.42 -20.25)" style="fill:#fff"/><path d="M218.45,25.08h3V28h-3Zm.17,6.68h2.6V49.22h-2.6Z" transform="translate(-21.42 -20.25)" style="fill:#fff"/><path d="M223.28,44.16v-.07c0-3.75,3-5.71,7.46-5.71a18.33,18.33,0,0,1,5.34.74v-.54c0-3.11-1.89-4.73-5.17-4.73a12.17,12.17,0,0,0-5.3,1.25L224.83,33a14.3,14.3,0,0,1,6.35-1.49,7.74,7.74,0,0,1,5.64,1.93,6.88,6.88,0,0,1,1.82,5.13V49.21h-2.57v-2.6a7.67,7.67,0,0,1-6.28,3C226.52,49.6,223.28,47.74,223.28,44.16Zm12.83-1.35V41.19a18,18,0,0,0-5.1-.74c-3.24,0-5.1,1.42-5.1,3.51V44c0,2.2,2,3.48,4.39,3.48C233.51,47.5,236.11,45.58,236.11,42.81Z" transform="translate(-21.42 -20.25)" style="fill:#fff"/></svg>