<svg id="Layer_1" data-name="Layer 1" xmlns="http://www.w3.org/2000/svg" viewBox="0 0 217.2 29.4"><defs><style>.cls-1{fill:#ff0023;}.cls-2{fill:#323232;}</style></defs><path class="cls-1" d="M50.8,23.7a10.6,10.6,0,0,1-4.2,4.2,13,13,0,0,1-6.4,1.4,13,13,0,0,1-6.4-1.4,10,10,0,0,1-4.2-4.2,14.7,14.7,0,0,1-1.5-6.5,14.4,14.4,0,0,1,1.5-6.5,9.5,9.5,0,0,1,4.2-4.2A11.7,11.7,0,0,1,40.2,5a12.1,12.1,0,0,1,6.4,1.5,10,10,0,0,1,4.2,4.2,13.2,13.2,0,0,1,1.4,6.5A13.4,13.4,0,0,1,50.8,23.7Zm-7-11.2a4.7,4.7,0,0,0-6.5-.7l-.7.7a7.6,7.6,0,0,0-1.2,4.6,7.6,7.6,0,0,0,1.2,4.6,4.6,4.6,0,0,0,6.4.8l.8-.8a9.4,9.4,0,0,0,0-9.2Z" transform="translate(0 0)"/><path class="cls-1" d="M75.7,5.4V19.6a12.7,12.7,0,0,1-.5,4.3,8.5,8.5,0,0,1-1.9,3,8,8,0,0,1-3.2,1.9,18.7,18.7,0,0,1-9.4,0,8,8,0,0,1-3.2-1.9,9.5,9.5,0,0,1-1.9-3,15.9,15.9,0,0,1-.6-4.3V5.4h7.1V19.9a7.7,7.7,0,0,0,.2,1.5,2.6,2.6,0,0,0,.7,1,2.4,2.4,0,0,0,1.1.6l1.3.2,1.3-.2a2.4,2.4,0,0,0,1.1-.6,1.8,1.8,0,0,0,.7-1,7.7,7.7,0,0,0,.2-1.5V5.4Z" transform="translate(0 0)"/><path class="cls-1" d="M95.9,27.2l-.7.6a6.2,6.2,0,0,1-2.2,1,12,12,0,0,1-3.8.5,10.3,10.3,0,0,1-9.1-5.5,12.2,12.2,0,0,1-1.5-6.5,12.8,12.8,0,0,1,1.6-6.7,11.4,11.4,0,0,1,4.5-4.2,13.6,13.6,0,0,1,6-1.4,12.3,12.3,0,0,1,6.2,1.4,11.1,11.1,0,0,1,3.2,2.5l-3.8,4.3A7.3,7.3,0,0,0,94,11.6a6.3,6.3,0,0,0-3-.7,5.4,5.4,0,0,0-2.5.6,4.8,4.8,0,0,0-2,2,7.6,7.6,0,0,0-.8,3.6,7.2,7.2,0,0,0,.8,3.5,3.9,3.9,0,0,0,2,2,4.5,4.5,0,0,0,2.5.7l1.8-.2,1.2-.5.4-.2V20.3H91.2V15.2h9.9V29H96.5Z" transform="translate(0 0)"/><path class="cls-1" d="M104.4,5.4h17.2v5.5h-10v3.3h9.3v5.6h-9.3v3.5H122V29H104.4V5.4Z" transform="translate(0 0)"/><polygon class="cls-1" points="0 10.4 8 18.3 0 18.3 0 29 8 29 8 18.3 8 18.3 8 8 0 0 0 10.4"/><path class="cls-1" d="M20.8,20.8h0A11.7,11.7,0,0,0,13.6,0H7.9V8H18.3V18.3H8L18.6,29H29Z" transform="translate(0 0)"/><path class="cls-2" d="M132.7,5.3h2.7L144,18.2l8.6-12.9h2.7V29h-2.7V9.8L144,22.5h-.2L135.2,9.9V29h-2.6V5.3Z" transform="translate(0 0)"/><path class="cls-2" d="M167.1,27.1a7.6,7.6,0,0,0,5.5-2.4l1.6,1.4a9.1,9.1,0,0,1-7.2,3.3c-4.8,0-8.7-3.7-8.7-9.1s3.5-9.2,8.4-9.2,8.1,4.2,8.1,9.3v.9H160.9A6.2,6.2,0,0,0,167.1,27.1Zm5.1-7.9c-.3-3.2-2.2-5.9-5.6-5.9s-5.3,2.5-5.7,5.9Z" transform="translate(0 0)"/><path class="cls-2" d="M176.1,20.3h0c0-5.7,4.1-9.1,8.3-9.1a7.8,7.8,0,0,1,6.7,3.8V4.3h2.6V29h-2.6V25.5a8.2,8.2,0,0,1-6.7,3.9C180.2,29.3,176.1,26,176.1,20.3Zm15.1,0h0a6.5,6.5,0,0,0-6.3-6.7h0c-3.4,0-6.2,2.5-6.2,6.7h0c0,4.1,2.9,6.7,6.2,6.7a6.4,6.4,0,0,0,6.3-6.6Z" transform="translate(0 0)"/><path class="cls-2" d="M197,4.8h3v3h-3Zm.2,6.7h2.6V29h-2.6Z" transform="translate(0 0)"/><path class="cls-2" d="M201.9,23.9h0c0-3.7,3-5.7,7.4-5.7a20.2,20.2,0,0,1,5.4.8v-.6c0-3.1-1.9-4.7-5.2-4.7a10.9,10.9,0,0,0-5.3,1.3l-.8-2.1a14.3,14.3,0,0,1,6.4-1.5,7.3,7.3,0,0,1,5.6,1.9,6.8,6.8,0,0,1,1.8,5.1V29h-2.5V26.4a8.1,8.1,0,0,1-6.3,3C205.1,29.3,201.9,27.5,201.9,23.9Zm12.8-1.3V20.9a17.9,17.9,0,0,0-5.1-.7c-3.3,0-5.1,1.4-5.1,3.5h0c0,2.2,2,3.4,4.4,3.4S214.7,25.3,214.7,22.6Z" transform="translate(0 0)"/></svg>