<svg width="69" height="20" viewBox="0 0 69 20" fill="none" xmlns="http://www.w3.org/2000/svg">
<path d="M66.5961 1.69537C66.5961 2.59603 65.8543 3.39073 64.9007 3.39073C64 3.39073 63.2053 2.64901 63.2053 1.69537C63.2186 0.781458 63.9735 0 64.9139 0C65.8146 0 66.5961 0.741723 66.5961 1.69537Z" fill="#001464"/>
<path d="M0 10.5696C0 7.77492 2.27815 5.45703 5.11259 5.45703V6.91399C3.07285 6.91399 1.49669 8.52988 1.49669 10.5299V15.6027H0V10.5696Z" fill="#001464"/>
<path d="M15.2848 5.45703H16.7417V10.7286C16.7417 13.5233 14.4636 15.8014 11.6689 15.8014C8.83442 15.8014 6.63574 13.5233 6.63574 10.7286V5.45703H8.05296V10.7286C8.05296 12.7683 9.66886 14.3445 11.6689 14.3445C13.6689 14.3445 15.2848 12.7286 15.2848 10.7286V5.45703Z" fill="#001464"/>
<path d="M31.9072 5.45703H30.4502V15.669H31.9072V5.45703Z" fill="#001464"/>
<path d="M38.8611 5.45703C41.1393 5.45703 43.0995 6.99346 43.6956 9.07293H42.1591C41.6028 7.81465 40.3181 6.91399 38.8611 6.91399C36.8214 6.91399 35.2452 8.52988 35.2452 10.5299C35.2452 12.5299 36.8611 14.1458 38.8611 14.1458C40.3181 14.1458 41.6161 13.2451 42.1591 11.9868H43.6956C43.1128 14.0663 41.0995 15.6027 38.8611 15.6027C36.0267 15.6027 33.7485 13.3246 33.7485 10.4902C33.7883 7.77491 36.0664 5.45703 38.8611 5.45703Z" fill="#001464"/>
<path d="M49.9339 5.41602C52.7286 5.41602 55.0465 7.77363 55.0465 10.5286C55.0465 13.363 52.6888 15.6412 49.9339 15.6412C47.0994 15.6412 44.8213 13.3233 44.8213 10.5286C44.8345 7.77363 47.1127 5.41602 49.9339 5.41602ZM49.9339 14.224C51.9339 14.224 53.5895 12.5683 53.5895 10.5286C53.5895 8.56834 51.9339 6.87297 49.9339 6.87297C47.9339 6.87297 46.2385 8.56834 46.2385 10.5286C46.2518 12.5683 47.9339 14.224 49.9339 14.224Z" fill="#001464"/>
<path d="M57.8412 15.6817H56.3843V10.3307C56.3843 7.49623 58.6624 5.25781 61.4969 5.25781C64.2916 5.25781 66.5697 7.53596 66.5697 10.3307V15.6684H65.1128V10.3307C65.1128 8.33066 63.4969 6.71477 61.4969 6.71477C59.4571 6.71477 57.8015 8.33066 57.8015 10.3307V15.6684H57.8412V15.6817Z" fill="#001464"/>
<path d="M23.4966 5.45603H19.8012V2.51562H18.3442V10.5289C18.3442 13.4031 20.6224 15.6415 23.4568 15.6415C26.2913 15.6415 28.5694 13.3633 28.5694 10.5289C28.6092 7.73418 26.331 5.45603 23.4966 5.45603ZM23.4966 14.2243C21.4171 14.2243 19.8012 12.5289 19.8012 10.5289V6.87325H23.4966C25.4966 6.87325 27.1522 8.52888 27.1522 10.5289C27.1522 12.5289 25.4966 14.2243 23.4966 14.2243Z" fill="#001464"/>
<path d="M55.6028 0C54.6492 0 53.9075 0.741723 53.9075 1.69537C53.9075 2.64901 54.6492 3.39073 55.6028 3.39073C56.5035 3.39073 57.2982 2.64901 57.2982 1.69537C57.2452 0.741723 56.5035 0 55.6028 0ZM55.6028 3.05961C54.8214 3.05961 54.1856 2.43709 54.1856 1.64239C54.1856 0.847683 54.8081 0.225166 55.6028 0.225166C56.3975 0.225166 57.0201 0.847683 57.0201 1.64239C57.0201 2.43709 56.3843 3.05961 55.6028 3.05961Z" fill="#001464"/>
<path d="M60.2386 0C59.3247 0 58.5432 0.741723 58.5432 1.69537C58.5432 2.59603 59.2849 3.39073 60.2386 3.39073C61.1392 3.39073 61.9339 2.64901 61.9339 1.69537C61.9339 0.741723 61.179 0 60.2386 0ZM60.2386 2.47682C59.8015 2.47682 59.4174 2.11921 59.4174 1.69537C59.4174 1.27153 59.775 0.874173 60.2386 0.874173C60.6757 0.874173 61.02 1.23179 61.02 1.69537C61.0598 2.11921 60.7022 2.47682 60.2386 2.47682Z" fill="#001464"/>
<path d="M41.0994 17.959H41.8411C42.1988 17.959 42.4637 18.2371 42.4637 18.5815C42.4637 18.9789 42.1855 19.204 41.8411 19.204H41.4438V19.8663H41.0862V17.959H41.0994ZM41.7617 18.9391C41.9604 18.9391 42.0796 18.8199 42.0796 18.5815C42.0796 18.3828 41.9604 18.2636 41.7617 18.2636H41.4041V18.9259H41.7617V18.9391Z" fill="#001464"/>
<path d="M44.9935 17.959H45.616C45.8147 17.959 45.9339 17.959 46.0133 17.9987C46.212 18.0782 46.3312 18.2769 46.3312 18.555C46.3312 18.7934 46.212 19.0318 46.0133 19.1113C46.0133 19.1113 46.0531 19.151 46.0928 19.1908L46.4902 19.9325H46.0928L45.6955 19.1908H45.3378V19.9325H44.9802L44.9935 17.959ZM45.6557 18.8596C45.8544 18.8596 45.9736 18.7404 45.9736 18.5418C45.9736 18.3431 45.8941 18.2239 45.616 18.2239H45.3378V18.8464H45.6557V18.8596Z" fill="#001464"/>
<path d="M49.9074 17.9199C50.4901 17.9199 50.9272 18.357 50.9272 18.9001C50.9272 19.4828 50.4901 19.9199 49.9074 19.9199C49.3246 19.9199 48.8875 19.4828 48.8875 18.9001C48.8743 18.3438 49.3113 17.9199 49.9074 17.9199ZM49.9074 19.602C50.265 19.602 50.5299 19.2842 50.5299 18.9001C50.5299 18.5159 50.2517 18.2378 49.9074 18.2378C49.5498 18.2378 49.2849 18.5159 49.2849 18.9001C49.2319 19.3371 49.5498 19.602 49.9074 19.602Z" fill="#001464"/>
<path d="M53.2849 19.2173H53.6425V19.2967C53.6425 19.5351 53.7617 19.6146 53.9207 19.6146C54.0399 19.6146 54.1591 19.5351 54.1591 19.3365V18.2769V17.959H54.5167V19.3365C54.5167 19.7736 54.1988 19.959 53.8942 19.959C53.5895 19.959 53.3114 19.7603 53.3114 19.3365L53.2849 19.2173Z" fill="#001464"/>
<path d="M57.2053 17.959H58.3841V18.2636H57.5629V18.7802H58.2252V19.0981H57.5629V19.6014H58.4239V19.9193H57.2053V17.959Z" fill="#001464"/>
<path d="M61.8411 17.9199C62.3179 17.9199 62.5431 18.1981 62.5431 18.1981L62.3841 18.4762C62.3841 18.4762 62.1457 18.2775 61.8279 18.2775C61.3908 18.2775 61.1656 18.5954 61.1656 18.9398C61.1656 19.2974 61.404 19.6418 61.8279 19.6418C62.1855 19.6418 62.3841 19.4034 62.3841 19.4034L62.5828 19.6815C62.5828 19.6815 62.3047 19.9994 61.8014 19.9994C61.2186 19.9994 60.7815 19.5623 60.7815 18.9795C60.861 18.3438 61.2981 17.9199 61.8411 17.9199Z" fill="#001464"/>
<path d="M65.5761 18.2636H64.9536V17.959H66.596V18.2636H65.9337V19.9193H65.5761V18.2636Z" fill="#001464"/>
<path d="M67.3908 5.23242C67.8677 5.23242 68.212 5.62977 68.212 6.09335C68.212 6.57017 67.8147 6.95428 67.3908 6.95428C66.914 6.95428 66.5697 6.55693 66.5697 6.09335C66.5564 5.61653 66.9538 5.23242 67.3908 5.23242ZM67.3908 6.83507C67.7882 6.83507 68.0928 6.51719 68.0928 6.09335C68.0928 5.696 67.775 5.35163 67.3908 5.35163C67.0067 5.35163 66.6889 5.66951 66.6889 6.09335C66.7154 6.47746 66.9935 6.83507 67.3908 6.83507ZM67.1127 5.61653H67.4306C67.5895 5.61653 67.7087 5.73573 67.7087 5.89467C67.7087 6.01388 67.6293 6.13309 67.5498 6.13309C67.5498 6.13309 67.5498 6.13309 67.5895 6.17282L67.7485 6.53044H67.5895L67.3908 6.17282H67.2319V6.53044H67.1127V5.61653ZM67.4306 6.09335C67.5498 6.09335 67.5895 6.01388 67.5895 5.93441C67.5895 5.8152 67.5101 5.77547 67.4306 5.77547H67.2716V6.09335C67.2716 6.09335 67.4306 6.09335 67.4306 6.09335Z" fill="#001464"/>
</svg>
