<svg id="svg22366" xmlns="http://www.w3.org/2000/svg" xmlns:xlink="http://www.w3.org/1999/xlink" viewBox="0 0 999 299.6"><defs><style>.cls-1{fill:#e18e22;fill-rule:evenodd;}.cls-2{fill:url(#linear-gradient);}</style><linearGradient id="linear-gradient" x1="210.68" y1="-317.13" x2="833.42" y2="-317.13" gradientTransform="matrix(1.6, 0, 0, -1.6, -337.47, -282.67)" gradientUnits="userSpaceOnUse"><stop offset="0" stop-color="#fff"/><stop offset="0.1" stop-color="#eec982"/><stop offset="0.2" stop-color="#e8b356"/><stop offset="0.3" stop-color="#e49e32"/><stop offset="0.4" stop-color="#e18e22"/><stop offset="0.5" stop-color="#e58d23"/><stop offset="0.6" stop-color="#dd8f22"/><stop offset="0.7" stop-color="#e08d22"/><stop offset="0.8" stop-color="#e38d23"/><stop offset="0.9" stop-color="#e08d22"/><stop offset="1" stop-color="#fefcfd"/></linearGradient></defs><g id="g22374"><g id="g24338"><path id="path24340" class="cls-1" d="M886.5,1.5H875.7c-2.5,0-2.9,1.8-2.9,3.2s6.8,9.6,6.8,19-3.7,13-3.7,15.9c0,1.2,1.2,2.1,2.8,2.1h4.8c10.7,0,22.8-40.2,3-40.2m20.7,59.7c0-14.7,28.4-13.4,44.7-2.2a10,10,0,0,0,4.4,1.8c2.3,0,3.6-.9,3.6-4.1V49.2c0-2.5-.6-4.8-3.4-5.9-29.5-12.3-69-5.7-69,26.3,0,36.1,57.2,28.6,57.2,48.2,0,15.6-27.1,17.3-46.5,2.3a6.7,6.7,0,0,0-4.4-1.9c-2.2,0-3.6,1-3.6,4.1v8.9c0,2.5.7,4.5,3.4,5.9,25.2,11.3,71.6,11.6,71.6-30.2,0-35.9-58-27.7-58-45.7m49.3-17.9.4.2-.4-.2m.8.3.4.2-.4-.2M340.8,36.7c-12.6,0-25.8,6.1-32.6,10.2l-.5-5.2A2.6,2.6,0,0,0,305,39H283.8a2.6,2.6,0,0,0-2.3,2.7v96.6a2.7,2.7,0,0,0,2.3,2.8h21.8a2.7,2.7,0,0,0,2.8-2.8V60.4c4.4-2.5,13.5-7.1,21.2-7.1,15.1,0,16,9.2,16,16.9v68.1a2.6,2.6,0,0,0,2.2,2.8h21.9a2.7,2.7,0,0,0,2.8-2.8V67.9c0-18.4-9.8-31.2-31.7-31.2m417.9,1.7a35.6,35.6,0,0,0-10-1.1c-12.7,0-22.9,10.4-27.2,16.7L721,41.8a2.6,2.6,0,0,0-2.7-2.7H697.1a2.5,2.5,0,0,0-2.2,2.7v96.3a2.5,2.5,0,0,0,2.2,2.7H719a2.6,2.6,0,0,0,2.7-2.7V76.8c0-19.5,18.5-20.2,30.9-17.8,2.9.7,5.2,1.7,7.6,1.7a3.3,3.3,0,0,0,3-3.2V43.2c0-2.3-1.6-4.1-4.5-4.8m0,0,1.1.2-1.1-.2m-86.1.7H650.9a2.5,2.5,0,0,0-2.3,2.7v66.1c0,14.7-4.5,22.7-18.7,22.7-11.5,0-18.4-6.6-18.4-17.3V41.8a2.6,2.6,0,0,0-2.7-2.7H587a2.6,2.6,0,0,0-2.3,2.7v66.3c0,25.4,22.7,35,45.2,35s45.4-9.6,45.4-37.7V41.8a2.6,2.6,0,0,0-2.7-2.7M245.3.5c-10,0-14.8,5.9-14.8,12.7s5.9,13.7,14.8,13.7,14.3-5.5,14.3-13.7S254.8.5,245.3.5m11.1,38.9H234.6a2.5,2.5,0,0,0-2.2,2.7v96.2a2.6,2.6,0,0,0,2.2,2.8h21.8a2.7,2.7,0,0,0,2.7-2.8V42.1a2.6,2.6,0,0,0-2.7-2.7m262.3,92c-6.6,0-10-1.2-12.3-2.5a6.4,6.4,0,0,1-3.2-5.9V61.7c3.4-2.5,9.3-7,17.5-7,20.7,0,22.8,26.8,22.8,36.3,0,25.4-10.3,40.4-24.8,40.4M533,37.9c-15.5,0-25.5,7.9-29.8,11.5V4.2a2.6,2.6,0,0,0-2.7-2.7H478.7a2.6,2.6,0,0,0-2.2,2.7V121.4c0,3.7.7,8,4.1,10.5,7.9,6.1,19.9,11.8,36.3,11.8,29.9,0,54.2-23.2,54.2-58.2,0-27.2-14.7-47.6-38.1-47.6M41.6,32.4c0-10.4,10-17.5,22.7-17.5s20,3.9,29.1,10.5c2.5,1.8,4.1,2.9,6.2,2.9s3.1-1.6,3.1-3.6V11.5c0-2-.4-3.2-2.5-4.1-7.7-3-21.3-5.9-36.3-5.9-30.2,0-46.6,18.6-46.6,39.7,0,45.9,70.8,36.4,70.8,67.5,0,18.8-27.2,32-58.7,10-3-2-4.3-3.2-6.4-3.2-3.8,0-4.5,2-4.5,4.1v11.6c0,2,.4,3.1,2.7,4.5,38.1,18,92.4,7.5,92.4-38.1,0-42-72-39.3-72-65.2M186,118.7c0,3-7.7,10.9-18.2,10.9s-16.5-8.6-16.5-17.2c0-12.3,9.5-23.7,34.7-23.7ZM171,36.5c-12.2,0-26.3,2.5-35.4,7.1a5.8,5.8,0,0,0-3.4,5.4V59.2a4.3,4.3,0,0,0,3.9,4.6c2.7,0,4.7-2.5,6.1-3.4,8.4-5.7,16.8-9.6,27.9-9.6C184,50.8,186,59.9,186,71c0,5.3-1.8,6.6-21.5,9.1-12.1,1.6-39.6,7-39.6,31.8,0,20.5,16.4,31.3,35.5,31.3,10.4,0,19-4.5,26.3-10.8l.5,5.9a2.5,2.5,0,0,0,2.2,2.7h20.7a2.6,2.6,0,0,0,2.7-2.7V67.6c0-18.4-9.7-31.1-41.8-31.1m285.4,7.1.3.2-.3-.2M406.3,61.2c0-14.7,28.4-13.4,44.7-2.2a10,10,0,0,0,4.4,1.8c2.2,0,3.6-.9,3.6-4.1V49.2c0-2.5-.7-4.8-3.4-5.9C426,31,386.5,37.6,386.5,69.6c0,36.1,57.2,28.6,57.2,48.2,0,15.6-27,17.3-46.5,2.3a6.5,6.5,0,0,0-4.3-1.9c-2.3,0-3.7,1-3.7,4.1v8.9c0,2.5.7,4.5,3.5,5.9,25.1,11.3,71.5,11.6,71.5-30.2,0-35.9-57.9-27.7-57.9-45.7M862.7,39.1H852.3a3.2,3.2,0,0,0-3.3,2.5l-22.4,61.3-1.4,4.3-1.4-4.3L800.7,41.6a3.3,3.3,0,0,0-3.6-2.5H772.3a1.8,1.8,0,0,0-2.1,2c0,.7.3,1.4,1.2,3.6l41.4,95.6c-.5,16.8-16.4,22.6-34.4,17.5a26,26,0,0,0-7-1.3,3.2,3.2,0,0,0-2.9,3.1v13c0,2.3,1.5,4,4.5,4.7a28.4,28.4,0,0,0,9.5,1.2c17.5,0,33.9-12.3,39.5-27L863.8,44.1a9.6,9.6,0,0,0,.9-3,2,2,0,0,0-2-2" transform="translate(-0.5 -0.5)"/></g><path id="path24690" class="cls-2" d="M302.7,184.1c-132.2,0-256.3,22.2-301.6,100.7L.5,300.1c44.2-71.5,130.7-106.2,301.9-106.2,218.4,0,339.8,76.2,463.5,76.2,97.9,0,191.7-53.8,233.6-103.4V152C945.8,214.4,855.7,260.3,766,260.3c-126,0-236.3-76.2-463.3-76.2Z" transform="translate(-0.5 -0.5)"/></g></svg>