<svg width="48" height="45" viewBox="0 0 48 45" fill="none" xmlns="http://www.w3.org/2000/svg">
<path fill-rule="evenodd" clip-rule="evenodd" d="M21.105 42.9725C21.105 42.9725 21.9752 44.0765 23.6682 44.0765C25.3621 44.0765 26.2323 42.9725 26.2323 42.9725C27.6237 42.912 38.498 42.9422 38.498 42.9422L39.5566 34.0061C39.5566 34.0061 46.2544 29.2851 46.7988 28.7407C50.0138 14.1557 38.3932 0.251343 23.6687 0.251343C8.94415 0.251343 -2.67646 14.1557 0.538503 28.7407C1.08297 29.2851 7.78069 34.0061 7.78069 34.0061L8.83938 42.9422C8.83938 42.9422 19.7136 42.912 21.105 42.9725ZM22.6545 4.69185L23.682 30.4867L24.6916 4.69185C25.9307 4.43896 29.0919 4.74243 30.7862 6.00688L25.8549 30.5879L32.5818 7.01845C34.1944 6.99868 37.4485 9.72533 37.6902 10.5336L27.878 31.4477L38.904 12.3292C39.9915 12.7338 42.3687 17.1088 41.9893 17.6172L29.6988 32.6616L42.3434 19.8147C42.3434 19.8147 43.9872 22.3184 42.9152 26.5591L35.773 31.7169L34.8788 38.7635H26.1222C26.1222 38.7635 24.6895 40.1214 23.673 40.1214C22.6565 40.1214 21.2239 38.7635 21.2239 38.7635H12.4673L11.5731 31.7169L4.43089 26.5591C3.35893 22.3184 5.00272 19.8147 5.00272 19.8147L17.6473 32.6616L5.35677 17.6172C4.97743 17.1088 7.35461 12.7338 8.44204 12.3292L19.4681 31.4477L9.65592 10.5336C9.89763 9.72533 13.1517 6.99868 14.7643 7.01845L21.4912 30.5879L16.5598 6.00688C18.2542 4.74243 21.4154 4.43896 22.6545 4.69185Z" fill="#7C7D7D"/>
</svg>
