<?xml version="1.0" encoding="utf-8"?>
<!-- Generator: Adobe Illustrator 23.0.6, SVG Export Plug-In . SVG Version: 6.00 Build 0)  -->
<svg version="1.1" id="Layer_1" xmlns="http://www.w3.org/2000/svg" xmlns:xlink="http://www.w3.org/1999/xlink" x="0px" y="0px"
	 viewBox="0 0 48 45" style="enable-background:new 0 0 48 45;" xml:space="preserve">
<style type="text/css">
	.st0{fill-rule:evenodd;clip-rule:evenodd;fill:#FFFFFF;}
</style>
<path class="st0" d="M21.1,43c0,0,0.9,1.1,2.6,1.1c1.7,0,2.6-1.1,2.6-1.1c1.4-0.1,12.3,0,12.3,0l1.1-8.9c0,0,6.7-4.7,7.2-5.3
	C50,14.2,38.4,0.3,23.7,0.3C8.9,0.3-2.7,14.2,0.5,28.7C1.1,29.3,7.8,34,7.8,34l1.1,8.9C8.8,42.9,19.7,42.9,21.1,43z M22.7,4.7
	l1,25.8l1-25.8c1.2-0.3,4.4,0.1,6.1,1.3l-4.9,24.6L32.6,7c1.6,0,4.9,2.7,5.1,3.5l-9.8,20.9l11-19.1c1.1,0.4,3.5,4.8,3.1,5.3
	l-12.3,15l12.6-12.8c0,0,1.6,2.5,0.6,6.7l-7.1,5.2l-0.9,7h-8.8c0,0-1.4,1.4-2.4,1.4s-2.4-1.4-2.4-1.4h-8.8l-0.9-7l-7.1-5.2
	C3.4,22.3,5,19.8,5,19.8l12.6,12.8l-12.3-15c-0.4-0.5,2-4.9,3.1-5.3l11,19.1L9.7,10.5C9.9,9.7,13.2,7,14.8,7l6.7,23.6L16.6,6
	C18.3,4.7,21.4,4.4,22.7,4.7z"/>
</svg>
