<svg width="68" height="57" viewBox="0 0 68 57" fill="none" xmlns="http://www.w3.org/2000/svg">
<mask id="mask0_969_625" style="mask-type:alpha" maskUnits="userSpaceOnUse" x="0" y="0" width="68" height="57">
<rect width="67.62" height="57" fill="#D9D9D9"/>
</mask>
<g mask="url(#mask0_969_625)">
<path d="M0.0354839 28.5699C-0.30411 25.0204 1.8044 21.0104 5.90628 19.5311C9.92326 18.0878 14.1193 19.7253 16.1953 22.7642C15.9848 22.7828 15.8068 22.6909 15.6219 22.656C14.3471 22.4318 13.0498 22.3634 11.7585 22.4525C10.307 22.5339 8.86145 22.6432 7.45539 23.0189C6.99941 23.1258 6.5633 23.3044 6.1633 23.5481C6.00871 23.64 5.87391 23.7618 5.76672 23.9063C5.62716 24.1075 5.63414 24.2924 5.82719 24.461C6.07518 24.6608 6.35461 24.818 6.65408 24.9262C8.01828 25.4891 9.45108 25.8229 10.8769 26.1846C12.1213 26.5009 13.339 26.8998 14.4554 27.5557C14.807 27.7466 15.122 27.9982 15.3858 28.2989C15.772 28.7641 15.8057 29.1432 15.4847 29.6642C15.1637 30.1853 14.695 30.4993 14.1833 30.7761C13.439 31.1796 13.4413 31.1703 12.8377 30.6051C11.5282 29.3921 9.96513 28.6536 8.27646 28.1512C6.82039 27.7232 5.3399 27.4266 3.81173 27.4906C2.53243 27.5488 1.31594 27.8395 0.194814 28.4815C0.143592 28.5142 0.0903788 28.5437 0.0354839 28.5699Z" fill="#001464"/>
<path d="M29.6244 25.6063C30.394 25.0527 31.3277 24.7746 32.2748 24.8167C33.3001 24.8517 34.2727 25.2791 34.9919 26.0106C35.7111 26.7421 36.1219 27.7219 36.1395 28.7476C36.1592 30.841 34.4368 32.6041 32.3016 32.7018C31.4314 32.759 30.5663 32.5312 29.8372 32.0528C29.6395 31.9214 29.6116 31.9854 29.6127 32.1807C29.6127 33.0065 29.6127 33.8334 29.6197 34.6591C29.6197 34.8812 29.5651 34.9522 29.3371 34.9452C28.7696 34.9289 28.202 34.9336 27.6345 34.9452C27.4554 34.9452 27.3856 34.8987 27.3937 34.7126C27.4096 34.4027 27.4096 34.0921 27.3937 33.7822C27.381 33.5635 27.4414 33.4577 27.6729 33.4984C27.9043 33.5391 27.9857 33.4438 27.9845 33.1937C27.9737 31.053 27.9737 28.9127 27.9845 26.7728C27.9845 26.5181 27.9136 26.4239 27.6705 26.4728C27.4275 26.5216 27.3821 26.4042 27.3937 26.189C27.411 25.8907 27.411 25.5917 27.3937 25.2935C27.3798 25.0748 27.4658 25.0295 27.6659 25.0341C28.2137 25.0469 28.7614 25.0516 29.308 25.0341C29.5569 25.026 29.6569 25.0981 29.6162 25.347C29.6115 25.4335 29.6142 25.5203 29.6244 25.6063ZM32.0573 31.0852C33.4274 31.0852 34.4996 30.0641 34.4996 28.7592C34.4996 27.4799 33.4192 26.4332 32.0829 26.4332C30.7467 26.4332 29.6406 27.4729 29.6337 28.7592C29.6267 30.0455 30.7176 31.0852 32.0585 31.0852H32.0573Z" fill="#001464"/>
<path d="M20.2597 30.9241C20.2597 30.6659 20.2679 30.4066 20.2597 30.1484C20.2528 29.9926 20.2993 29.9414 20.4586 29.9461C20.8362 29.9569 21.2142 29.9569 21.5925 29.9461C21.7646 29.9461 21.8077 29.9972 21.81 30.1659C21.817 30.7334 21.824 30.7357 22.3775 30.8927C22.8837 31.0472 23.4168 31.0928 23.9418 31.0265C24.4837 30.9497 24.9536 30.7334 25.1048 30.1577C25.1907 29.8889 25.1913 29.6 25.1066 29.3308C25.0218 29.0616 24.8558 28.8251 24.6314 28.654C24.236 28.3225 23.765 28.1376 23.2893 27.9562C22.4543 27.6456 21.6611 27.2665 21.0494 26.585C20.3004 25.7442 20.0678 24.7684 20.44 23.7054C20.8028 22.6727 21.6379 22.1935 22.6683 21.997C23.779 21.7911 24.8408 22.0389 25.8909 22.3715C26.1736 22.461 26.5376 22.4878 26.7132 22.6739C26.8888 22.8599 26.7574 23.2426 26.7678 23.538C26.7783 23.8334 26.7678 24.1357 26.7678 24.4335C26.7678 24.5788 26.719 24.6207 26.5783 24.6184C26.1898 24.6114 25.8014 24.6091 25.4153 24.6184C25.2466 24.6184 25.2234 24.5474 25.2199 24.4032C25.2048 23.8717 25.2013 23.8659 24.6814 23.7124C24.1878 23.5522 23.6631 23.5124 23.1509 23.5961C22.6857 23.6822 22.3043 23.8903 22.1868 24.3683C22.1246 24.5966 22.1307 24.8381 22.2043 25.063C22.2779 25.2879 22.4157 25.4863 22.6008 25.6337C22.9614 25.943 23.3952 26.1233 23.8313 26.2908C24.4401 26.5103 25.0232 26.7958 25.57 27.1421C26.8423 27.9818 27.2261 29.3076 26.9423 30.5927C26.7004 31.6882 25.7118 32.4604 24.4616 32.6477C23.4556 32.7977 22.5043 32.5837 21.5541 32.3186C21.1913 32.2174 20.8366 32.086 20.4726 31.9871C20.4367 31.9825 20.4022 31.9705 20.3713 31.9517C20.3404 31.9329 20.3137 31.9079 20.2931 31.8782C20.2725 31.8485 20.2584 31.8147 20.2516 31.7792C20.2449 31.7437 20.2456 31.7071 20.2539 31.6719C20.2702 31.4219 20.2597 31.1753 20.2597 30.9241Z" fill="#001464"/>
<path d="M12.3877 24.2681C13.2192 25.2218 16.1209 25.3148 17.1199 24.4181C18.7481 27.1186 17.5851 32.737 15.0265 34.4408C14.9381 34.1559 14.8556 33.8756 14.7625 33.5977C14.5832 33.0592 14.3333 32.5469 14.0194 32.0741C13.9135 31.916 13.938 31.8532 14.0926 31.7578C14.8172 31.3159 15.501 30.8274 16.036 30.1494C16.7338 29.2795 16.6791 28.4119 15.8767 27.628C15.1638 26.9302 14.2799 26.5185 13.3553 26.1952C12.1644 25.7788 10.9235 25.5276 9.73024 25.1159C9.03245 24.8764 8.33465 24.6507 7.695 24.2786C7.56126 24.1995 7.37053 24.1274 7.37867 23.9529C7.38797 23.7552 7.57987 23.6715 7.74734 23.604C8.38001 23.34 9.05571 23.2714 9.72443 23.211C11.3095 23.0603 12.9041 23.0378 14.4927 23.1435C15.0191 23.1677 15.5417 23.2457 16.0523 23.3761C16.1768 23.4101 16.2985 23.4537 16.4163 23.5064C16.6059 23.5924 16.7571 23.7099 16.7408 23.9541C16.7257 24.1797 16.5547 24.2507 16.3919 24.3111C15.9744 24.4623 15.5347 24.4786 15.0986 24.4891C14.2832 24.4924 13.469 24.4275 12.6645 24.2949C12.5796 24.2809 12.4924 24.2774 12.3877 24.2681Z" fill="#001464"/>
<path d="M54.9181 29.6802C54.9181 30.5025 54.9088 31.3247 54.9181 32.147C54.9181 32.4063 54.8728 32.5087 54.5832 32.4959C53.9075 32.4714 53.2294 32.4819 52.5537 32.4959C52.3677 32.4959 52.3118 32.4412 52.3211 32.2633C52.3351 31.9353 52.3328 31.6062 52.3211 31.2782C52.3211 31.1189 52.3712 31.0758 52.5247 31.0758C52.7503 31.0758 53.048 31.1782 53.1829 31.0316C53.3178 30.8851 53.2271 30.5769 53.2271 30.3408C53.2271 28.242 53.2294 26.1424 53.2341 24.0421C53.2341 23.8095 53.1794 23.7397 52.941 23.7455C52.3235 23.7606 52.3188 23.7455 52.3246 23.1349C52.3246 22.8791 52.2153 22.5453 52.3723 22.386C52.5293 22.2266 52.8643 22.3406 53.1201 22.3359C53.5853 22.329 54.0505 22.3359 54.5227 22.3359C54.9681 22.3359 54.9088 22.2883 54.91 22.7093V27.4275C55.1289 27.2805 55.3303 27.1088 55.5101 26.9158C56.1303 26.3428 56.7475 25.7656 57.3616 25.1841C57.4058 25.1387 57.4592 25.1032 57.5181 25.0797C57.577 25.0563 57.6401 25.0455 57.7035 25.048C58.1508 25.0558 58.5986 25.0558 59.0467 25.048C59.2026 25.048 59.2793 25.0701 59.2793 25.2551C59.2654 25.604 59.27 25.9529 59.2793 26.3018C59.2793 26.4448 59.2305 26.5146 59.0898 26.4855C58.442 26.3494 58.0117 26.689 57.5907 27.1147C57.1697 27.5403 56.7161 27.9288 56.2683 28.3207C56.1299 28.437 56.1323 28.5056 56.2683 28.6359C57.0569 29.379 57.8349 30.1338 58.6129 30.8898C58.6739 30.9608 58.751 31.0161 58.8379 31.0509C58.9248 31.0857 59.0187 31.0991 59.1119 31.0898C59.2596 31.0724 59.4119 31.1003 59.5585 31.0828C59.7911 31.0561 59.8748 31.1328 59.8573 31.3747C59.8411 31.6847 59.8411 31.9952 59.8573 32.3051C59.8573 32.4633 59.8038 32.5121 59.6515 32.511C59.1142 32.511 58.5769 32.511 58.0396 32.511C57.995 32.5126 57.9507 32.5036 57.9103 32.4848C57.8699 32.466 57.8345 32.4379 57.807 32.4028C56.9254 31.4166 55.9101 30.5827 54.9181 29.6802Z" fill="#001464"/>
<path d="M6.81348 36.6484C5.47867 36.3106 4.23671 35.6775 3.17912 34.7958C2.50074 34.2267 1.91016 33.5604 1.42649 32.8187C1.36456 32.7527 1.32934 32.6661 1.32764 32.5756C1.86449 32.7502 2.41033 32.8958 2.96281 33.0117C4.86111 33.367 6.80047 33.4488 8.72195 33.2548C10.1036 33.128 11.4573 32.8803 12.7587 32.3884C12.7816 32.3751 12.8071 32.3669 12.8335 32.3642C12.8599 32.3616 12.8865 32.3646 12.9116 32.3731C12.9367 32.3815 12.9597 32.3953 12.9791 32.4134C12.9984 32.4315 13.0137 32.4535 13.0239 32.4779C13.5241 33.232 13.9381 34.0399 14.2578 34.8865C14.3241 35.0598 14.2578 35.1342 14.1322 35.2249C13.2709 35.8352 12.3104 36.2917 11.2933 36.574C11.177 36.6054 11.0677 36.6461 10.9549 36.6822C9.58722 36.9603 8.17645 36.9488 6.81348 36.6484Z" fill="#001464"/>
<path d="M4.66908 28.3831C6.49847 28.3947 8.11503 28.7041 9.62692 29.4728C10.5404 29.9442 11.3664 30.5684 12.0692 31.3185C12.2181 31.4743 12.2111 31.5371 11.9936 31.5987C10.5557 31.9998 9.07941 32.2474 7.58936 32.3373C5.92046 32.4535 4.30157 32.1884 2.71757 31.6778C2.27751 31.5429 1.86789 31.3237 1.51155 31.0324C0.827709 30.4602 0.856784 29.6007 1.58947 29.089C2.17097 28.6831 2.84783 28.5598 3.52934 28.4622C3.90663 28.4063 4.28769 28.3799 4.66908 28.3831Z" fill="#001464"/>
<path d="M63.7712 30.0492L64.6412 27.4627C64.8877 26.7289 65.1378 25.995 65.3738 25.253C65.3794 25.2176 65.3918 25.1837 65.4105 25.1531C65.4291 25.1226 65.4537 25.096 65.4826 25.0749C65.5116 25.0539 65.5444 25.0387 65.5792 25.0304C65.614 25.022 65.6502 25.0206 65.6855 25.0262C66.2321 25.0379 66.7799 25.0367 67.3277 25.0262C67.4975 25.0262 67.5533 25.0763 67.5475 25.246C67.5358 25.5845 67.5393 25.9229 67.5475 26.2613C67.5475 26.4149 67.4998 26.4707 67.3416 26.4684C67.1253 26.4684 66.8508 26.3753 66.7055 26.5056C66.5601 26.6358 66.5194 26.9115 66.4403 27.1254C65.4773 29.7437 64.5175 32.3636 63.5607 34.985C63.4793 35.2094 63.3747 35.292 63.1351 35.2757C62.7864 35.2567 62.437 35.2567 62.0884 35.2757C61.8756 35.285 61.8639 35.2106 61.9244 35.035C62.2012 34.2279 62.4629 33.4161 62.7385 32.6101C62.7861 32.4806 62.7861 32.3384 62.7385 32.2089C62.112 30.3675 61.4918 28.5245 60.8777 26.68C60.8103 26.4777 60.6916 26.4684 60.5218 26.4695C59.9403 26.4695 59.9334 26.4695 59.9403 25.8787C59.9403 25.6124 59.8531 25.26 59.988 25.1007C60.1462 24.9146 60.5102 25.0507 60.7847 25.0402C61.1022 25.0286 61.422 25.0542 61.7395 25.0321C61.9721 25.0158 62.0663 25.1007 62.1372 25.3147C62.6575 26.901 63.1839 28.4838 63.7166 30.0632L63.7712 30.0492Z" fill="#001464"/>
<path d="M50.5409 25.3791C50.4677 25.043 50.641 25.0302 50.8677 25.0384C51.1562 25.0535 51.4492 25.05 51.733 25.0384C51.8982 25.0384 51.9656 25.0791 51.9575 25.2535C51.9482 25.9199 51.9505 26.5875 51.9575 27.2539C51.9575 27.3934 51.9168 27.4469 51.7714 27.4434C51.4027 27.4341 51.034 27.433 50.6665 27.4434C50.607 27.441 50.5486 27.4259 50.4953 27.3992C50.442 27.3726 50.3949 27.3349 50.3572 27.2888C49.8001 26.7991 49.1942 26.4247 48.4161 26.4235C47.0206 26.4235 45.8959 27.5028 45.9483 28.8169C46.0006 30.1532 47.202 31.1604 48.6022 31.0452C48.941 31.0262 49.2704 30.9266 49.5629 30.7545C49.7395 30.6453 49.9451 30.5922 50.1525 30.6021C50.734 30.6126 51.3074 30.6021 51.8854 30.6021C51.5516 32.028 48.9965 33.0561 47.1659 32.5071C44.99 31.8558 43.7932 29.5101 44.5573 27.4074C45.3063 25.3722 47.8777 23.9649 50.5409 25.3791Z" fill="#001464"/>
<path d="M39.0506 26.7122V30.7734C39.0506 30.9932 39.0879 31.0874 39.3402 31.0816C39.9775 31.0665 39.9834 31.0816 39.9752 31.7294C39.9752 31.9748 40.0915 32.2934 39.9275 32.4458C39.7636 32.5981 39.453 32.4888 39.2065 32.49C38.3808 32.49 37.5539 32.49 36.7281 32.497C36.5176 32.497 36.4211 32.4632 36.4386 32.2237C36.4552 31.9138 36.4552 31.6032 36.4386 31.2933C36.4386 31.1339 36.4665 31.0607 36.6479 31.0607C36.8735 31.0607 37.1701 31.1642 37.3073 31.0176C37.4445 30.8711 37.3538 30.5629 37.3538 30.3268C37.3538 28.2265 37.3565 26.1265 37.362 24.0269C37.362 23.7943 37.298 23.7268 37.0642 23.7315C36.4409 23.7454 36.4374 23.7315 36.4432 23.0953C36.4432 22.8476 36.3385 22.5289 36.4862 22.3731C36.6339 22.2173 36.9584 22.3266 37.205 22.3231C37.7225 22.315 38.24 22.3324 38.7576 22.315C38.9902 22.308 39.0611 22.3719 39.0588 22.6115C39.0448 23.985 39.0506 25.3492 39.0506 26.7122Z" fill="#001464"/>
<path d="M43.1467 28.0721C43.1467 28.9874 43.1537 29.9026 43.1467 30.8191C43.1467 31.0319 43.2072 31.0842 43.413 31.0808C44.0375 31.0726 44.0433 31.0808 44.0352 31.7192C44.0352 31.9646 44.1515 32.2821 43.9852 32.438C43.8189 32.5938 43.5107 32.4833 43.2641 32.4857C42.4687 32.4857 41.672 32.4857 40.8765 32.4926C40.6637 32.4926 40.6009 32.4275 40.6113 32.2217C40.6276 31.9135 40.623 31.6041 40.6113 31.2913C40.6113 31.1261 40.6532 31.0587 40.8265 31.0668C41.0417 31.0668 41.3231 31.1645 41.458 31.0261C41.5929 30.8877 41.5069 30.59 41.508 30.3632C41.508 29.1595 41.508 27.9546 41.515 26.7509C41.515 26.5346 41.4696 26.4602 41.2382 26.4648C40.6148 26.4765 40.6079 26.4648 40.6183 25.8508C40.6183 25.5868 40.502 25.2367 40.6776 25.0844C40.8323 24.9541 41.1707 25.039 41.4278 25.0378C41.9151 25.0378 42.4035 25.0471 42.8908 25.0378C43.0943 25.0378 43.1606 25.082 43.1583 25.2972C43.1339 26.2206 43.1467 27.1417 43.1467 28.0721Z" fill="#001464"/>
<path d="M42.1872 24.453C41.9237 24.4344 41.6774 24.3157 41.4987 24.1212C41.32 23.9267 41.2225 23.6712 41.2262 23.4071C41.2299 23.143 41.3345 22.8903 41.5187 22.701C41.7028 22.5116 41.9524 22.3998 42.2163 22.3887C42.764 22.3968 43.1804 22.8539 43.1699 23.4354C43.1595 24.0169 42.7396 24.4588 42.1872 24.453Z" fill="#001464"/>
<path d="M35.5636 36.3923V38.0205C35.5636 38.1252 35.6253 38.2787 35.4252 38.2868C35.2031 38.2961 35.2647 38.1275 35.2647 38.0135C35.2647 37.3971 35.2647 36.7807 35.2647 36.1632C35.2647 36.055 35.1787 35.8806 35.3973 35.8643C35.5857 35.8503 35.7579 35.8317 35.8346 36.0969C36.0056 36.6784 36.2114 37.2471 36.4289 37.9007C36.6534 37.2587 36.8662 36.6772 37.0488 36.0957C37.1093 35.905 37.2104 35.855 37.3977 35.8631C37.5419 35.8713 37.5849 35.9236 37.5838 36.0608C37.5838 36.7369 37.5838 37.4134 37.5838 38.0903C37.5838 38.2159 37.5675 38.3031 37.4093 38.2961C37.2511 38.2891 37.2465 38.1798 37.2465 38.0705V36.4842C37.16 36.5704 37.1023 36.6813 37.0813 36.8017C36.9302 37.2215 36.7848 37.6448 36.6371 38.0658C36.5987 38.1752 36.5882 38.2984 36.4184 38.2984C36.2486 38.2984 36.2335 38.1821 36.1951 38.0658C36.0277 37.5669 35.8555 37.0703 35.6857 36.5726C35.6602 36.5132 35.6613 36.4388 35.5636 36.3923Z" fill="#001464"/>
<path d="M24.2898 36.7464C24.3836 36.6739 24.4831 36.6094 24.5876 36.5534C24.9783 36.3812 25.3516 36.5987 25.3749 37.0186C25.3947 37.3849 25.3749 37.7536 25.3749 38.1223C25.3749 38.2281 25.3458 38.2909 25.2249 38.2932C25.1039 38.2955 25.0469 38.2455 25.0481 38.1176V37.1442C25.0481 36.9383 24.9934 36.7825 24.7632 36.7732C24.7178 36.7666 24.6716 36.769 24.6272 36.7803C24.5827 36.7916 24.541 36.8115 24.5043 36.8389C24.4675 36.8664 24.4366 36.9008 24.4132 36.9402C24.3897 36.9796 24.3743 37.0232 24.3677 37.0686C24.3677 37.0771 24.3677 37.0856 24.3677 37.0942C24.3387 37.4 24.3526 37.7094 24.3387 38.0164C24.3387 38.1327 24.4038 38.2955 24.1852 38.3025C23.9665 38.3095 24.027 38.1443 24.0247 38.0292C24.0189 37.7408 24.0247 37.4477 24.0247 37.1639C24.0247 36.9697 23.9909 36.7918 23.7549 36.7743C23.6594 36.7627 23.5631 36.7878 23.4855 36.8446C23.408 36.9014 23.355 36.9857 23.3373 37.0802C23.2699 37.3244 23.3164 37.5745 23.3048 37.8222V38.1804C23.3048 38.2967 23.2292 38.2967 23.1431 38.2967C23.0571 38.2967 23.0059 38.2711 23.0059 38.1804C23.0059 37.664 22.9896 37.1453 23.0164 36.6301C23.0257 36.4603 23.1955 36.4917 23.2699 36.5976C23.3292 36.6813 23.3443 36.6673 23.4187 36.6278C23.8049 36.4243 23.9851 36.4534 24.2898 36.7464Z" fill="#001464"/>
<path d="M21.38 38.321C20.8381 38.3117 20.5078 38.1105 20.4043 37.7395C20.3799 37.6511 20.3217 37.5406 20.4718 37.4952C20.5985 37.4569 20.6578 37.5034 20.7125 37.6313C20.8741 38.0093 21.4231 38.1616 21.7766 37.9453C21.8382 37.9118 21.8886 37.8607 21.9212 37.7986C21.9539 37.7366 21.9676 37.6662 21.9604 37.5964C21.9569 37.5306 21.9324 37.4677 21.8906 37.4169C21.8487 37.366 21.7917 37.3299 21.7278 37.3138C21.5208 37.2464 21.3079 37.1975 21.0986 37.1347C20.6334 36.9986 20.4183 36.7695 20.4578 36.4369C20.5008 36.081 20.8416 35.8298 21.2928 35.8205C21.7173 35.8124 22.086 36.031 22.1744 36.3497C22.1953 36.4253 22.2674 36.5369 22.1209 36.5637C22.0337 36.58 21.9406 36.6067 21.872 36.4765C21.8354 36.3995 21.7839 36.3304 21.7206 36.2733C21.6573 36.2162 21.5833 36.1722 21.503 36.1436C21.4226 36.1151 21.3374 36.1027 21.2523 36.1072C21.1671 36.1116 21.0837 36.1327 21.0067 36.1694H20.9998C20.9379 36.1898 20.8837 36.2287 20.8448 36.281C20.8059 36.3332 20.784 36.3962 20.7823 36.4613C20.7744 36.5273 20.7916 36.5939 20.8303 36.6479C20.8691 36.7019 20.9266 36.7395 20.9916 36.7533C21.2103 36.8184 21.4324 36.8696 21.651 36.9358C22.1162 37.0719 22.3232 37.3243 22.2837 37.6767C22.2442 38.0291 21.9057 38.2942 21.4638 38.314L21.38 38.321Z" fill="#001464"/>
<path d="M67.2754 38.1427C67.0893 38.2055 66.9265 38.3206 66.7311 38.2869C66.5815 38.2689 66.4412 38.2047 66.3299 38.1031C66.2185 38.0016 66.1417 37.8678 66.11 37.7205C66.0077 37.3251 66.0426 36.9378 66.3717 36.654C66.4836 36.5522 66.6278 36.493 66.779 36.4869C66.9302 36.4807 67.0788 36.5279 67.1986 36.6203C67.2905 36.6808 67.3149 36.6796 67.3533 36.5703C67.3789 36.4912 67.4696 36.5226 67.5382 36.5331C67.6068 36.5436 67.6173 36.6133 67.615 36.6738C67.601 37.239 67.6475 37.8054 67.5882 38.3695C67.5833 38.4999 67.5372 38.6254 67.4566 38.7279C67.3759 38.8305 67.2648 38.9049 67.1393 38.9405C66.9992 38.9938 66.8479 39.0111 66.6994 38.9908C66.5508 38.9705 66.4098 38.9132 66.2891 38.8242C66.2427 38.787 66.2053 38.7396 66.1798 38.6858C66.1426 38.6079 66.0868 38.4997 66.1798 38.4532C66.2003 38.441 66.2231 38.433 66.2467 38.4296C66.2703 38.4263 66.2944 38.4276 66.3175 38.4335C66.3407 38.4395 66.3624 38.4499 66.3815 38.4643C66.4005 38.4786 66.4166 38.4966 66.4287 38.5172L66.4357 38.5311C66.5752 38.7928 66.8113 38.7707 67.0311 38.6997C67.287 38.6172 67.3056 38.3927 67.2754 38.1427ZM66.3787 37.4228C66.371 37.5456 66.3955 37.6682 66.4496 37.7787C66.4826 37.8517 66.5361 37.9136 66.6036 37.9568C66.6712 37.9999 66.7498 38.0225 66.8299 38.0217C66.9146 38.0313 67.0002 38.014 67.0745 37.9723C67.1488 37.9305 67.2081 37.8665 67.244 37.7891C67.3042 37.6683 67.3355 37.5351 67.3355 37.4001C67.3355 37.2651 67.3042 37.1319 67.244 37.0111C67.2102 36.9324 67.1533 36.8659 67.0808 36.8204C67.0083 36.7748 66.9236 36.7525 66.8381 36.7564C66.7529 36.7573 66.6699 36.7834 66.5995 36.8314C66.5291 36.8794 66.4746 36.9472 66.4427 37.0262C66.3896 37.1513 66.3677 37.2874 66.3787 37.4228Z" fill="#001464"/>
<path d="M50.1744 38.261C49.9011 38.3587 49.7836 38.2528 49.7092 38.0284C49.6557 37.8656 49.6557 37.6097 49.4766 37.576C49.1842 37.5176 48.8828 37.5204 48.5915 37.5841C48.409 37.6295 48.4217 37.9179 48.345 38.097C48.295 38.2133 48.2601 38.3133 48.1019 38.304C47.9856 38.297 47.9286 38.2784 47.9786 38.1493C48.2585 37.4275 48.5369 36.7049 48.8137 35.9815C48.8637 35.8489 48.9683 35.8873 49.0614 35.8768C49.1882 35.8617 49.2347 35.942 49.2742 36.0408C49.5696 36.77 49.8673 37.5039 50.1744 38.261ZM48.6357 37.2841H49.4266L49.023 36.1839L48.6357 37.2841Z" fill="#001464"/>
<path d="M51.8203 36.641V36.0595C51.8203 35.9432 51.8436 35.8711 51.9831 35.8711C52.1227 35.8711 52.1459 35.9444 52.1459 36.0595V38.1192C52.1459 38.2692 52.0634 38.3518 51.9494 38.2866C51.7935 38.2041 51.6726 38.2483 51.5342 38.3018C51.4766 38.3172 51.4168 38.3223 51.3574 38.3169C51.2066 38.3207 51.0588 38.2747 50.9368 38.186C50.8149 38.0973 50.7256 37.9707 50.6829 37.8261C50.5491 37.4272 50.5666 37.0353 50.8562 36.7038C51.0539 36.4793 51.3551 36.4526 51.6796 36.5945C51.7133 36.6061 51.7528 36.6154 51.8203 36.641ZM50.9073 37.3923C50.9225 37.483 50.9329 37.5714 50.9515 37.6575C51.0027 37.8901 51.1295 38.0657 51.3865 38.0692C51.6621 38.0692 51.7842 37.8831 51.8412 37.6423C51.8837 37.4479 51.8662 37.2452 51.7912 37.0608C51.7639 36.9692 51.7062 36.8896 51.6275 36.8353C51.5488 36.7809 51.454 36.7551 51.3586 36.7619C51.2684 36.7654 51.1819 36.7982 51.112 36.8553C51.0421 36.9124 50.9927 36.9906 50.9713 37.0783C50.9428 37.1806 50.9211 37.2848 50.9062 37.39L50.9073 37.3923Z" fill="#001464"/>
<path d="M32.0832 36.6987C32.2138 36.5857 32.3764 36.5162 32.5484 36.4999C32.9112 36.4789 33.1299 36.6557 33.181 37.0186C33.2322 37.3814 33.195 37.7536 33.2078 38.1199C33.2078 38.2467 33.1624 38.299 33.0333 38.2967C32.9042 38.2944 32.881 38.2048 32.8821 38.0978V37.1674C32.8821 36.9418 32.8007 36.7767 32.5484 36.7581C32.4931 36.7533 32.4374 36.7594 32.3845 36.7762C32.3315 36.793 32.2825 36.82 32.24 36.8557C32.1976 36.8915 32.1626 36.9353 32.1371 36.9846C32.1115 37.0339 32.096 37.0877 32.0913 37.143C32.0913 37.1515 32.0913 37.1597 32.0913 37.1674C32.075 37.4745 32.0843 37.7838 32.0913 38.0978C32.0913 38.2048 32.0913 38.2955 31.9413 38.2967C31.7913 38.2979 31.7715 38.2304 31.7715 38.1118V36.0544C31.7715 35.9381 31.7971 35.866 31.9366 35.8672C32.0762 35.8684 32.0913 35.9544 32.0901 36.0626C32.0808 36.2591 32.0832 36.4545 32.0832 36.6987Z" fill="#001464"/>
<path d="M40.8509 36.6112C40.9602 36.6461 41.0079 36.5786 41.0695 36.5542C41.2309 36.4839 41.4135 36.4795 41.578 36.5421C41.7426 36.6047 41.8761 36.7293 41.9499 36.8892C42.0289 37.0448 42.0708 37.2166 42.0722 37.3912C42.0736 37.5657 42.0345 37.7382 41.958 37.8951C41.8916 38.0477 41.7737 38.172 41.6249 38.2464C41.4761 38.3208 41.3058 38.3406 41.144 38.3022C41.0044 38.2685 40.8834 38.058 40.7078 38.2813C40.6578 38.3452 40.5566 38.251 40.5566 38.1371C40.5566 37.4323 40.5566 36.7271 40.5566 36.0216C40.5566 35.9309 40.5811 35.8715 40.6904 35.8692C40.7997 35.8669 40.8486 35.9215 40.8474 36.0309C40.8497 36.2274 40.8509 36.4251 40.8509 36.6112ZM41.7708 37.4253C41.7652 37.3473 41.7555 37.2697 41.7417 37.1927C41.6847 36.9601 41.5801 36.7531 41.2963 36.7577C41.0125 36.7624 40.9067 36.9485 40.8462 37.1915C40.8046 37.3658 40.8102 37.5481 40.8625 37.7195C40.8804 37.8155 40.9304 37.9026 41.0044 37.9663C41.0784 38.03 41.1719 38.0666 41.2695 38.0699C41.3671 38.0733 41.4629 38.0433 41.5412 37.9849C41.6194 37.9265 41.6754 37.8431 41.6999 37.7486C41.7316 37.6427 41.7557 37.5347 41.772 37.4253H41.7708Z" fill="#001464"/>
<path d="M45.7515 37.4873C45.6026 37.4873 45.4526 37.4954 45.3049 37.4873C45.0723 37.4733 45.0839 37.5896 45.1479 37.7466C45.3026 38.1293 45.7585 38.199 45.9969 37.8629C46.0946 37.7234 46.2051 37.685 46.3121 37.7676C46.4191 37.8501 46.3004 37.9641 46.2458 38.0409C46.0504 38.3153 45.6643 38.4084 45.3026 38.2735C44.9676 38.1572 44.7699 37.828 44.7781 37.4198C44.7909 36.8209 45.127 36.4813 45.6759 36.5139C45.7804 36.5225 45.8822 36.5517 45.9753 36.5998C46.0685 36.6479 46.1512 36.714 46.2188 36.7942C46.2864 36.8744 46.3374 36.9671 46.369 37.0671C46.4005 37.1671 46.412 37.2724 46.4028 37.3768C46.3911 37.478 46.3365 37.485 46.2644 37.485L45.7515 37.4873ZM45.5887 37.2372H45.8213C45.8957 37.2372 45.9934 37.2768 46.0388 37.1989C46.0841 37.1209 46.0225 37.0267 45.976 36.9535C45.9403 36.9025 45.895 36.8591 45.8425 36.8257C45.7901 36.7923 45.7316 36.7695 45.6703 36.7587C45.6091 36.7479 45.5463 36.7493 45.4856 36.7627C45.4249 36.7762 45.3675 36.8015 45.3165 36.8372L45.2782 36.8674C45.1851 36.9488 45.1002 37.064 45.1281 37.1733C45.163 37.3094 45.3119 37.2151 45.4084 37.2361C45.4683 37.243 45.5287 37.2434 45.5887 37.2372Z" fill="#001464"/>
<path d="M55.7825 37.4869H55.4255C55.3406 37.4869 55.2254 37.4427 55.1766 37.5253C55.1149 37.6288 55.1905 37.7381 55.244 37.83C55.2813 37.8978 55.3347 37.9554 55.3995 37.9977C55.4643 38.04 55.5386 38.0657 55.6156 38.0726C55.6927 38.0795 55.7703 38.0674 55.8416 38.0372C55.9129 38.0071 55.9756 37.9599 56.0244 37.8998C56.057 37.8626 56.0756 37.8149 56.1058 37.7753C56.1756 37.68 56.2733 37.716 56.3477 37.7498C56.464 37.7986 56.3896 37.8823 56.3558 37.9498C56.1616 38.3359 55.529 38.4499 55.1545 38.1673C54.8509 37.9347 54.7439 37.4206 54.9102 36.9903C55.044 36.6414 55.3615 36.4705 55.7778 36.5147C55.9748 36.5505 56.1521 36.6568 56.2766 36.8136C56.4011 36.9704 56.4644 37.1671 56.4547 37.3671C56.4407 37.4834 56.3721 37.4834 56.2907 37.4834L55.7825 37.4869ZM55.6394 37.2369C55.717 37.2369 55.7945 37.2369 55.872 37.2369C55.9453 37.2299 56.043 37.2799 56.086 37.1892C56.1291 37.0985 56.0732 37.0147 56.0209 36.9415C55.9781 36.8836 55.9225 36.8363 55.8585 36.8033C55.7946 36.7702 55.7239 36.7523 55.6519 36.7508C55.5799 36.7493 55.5085 36.7644 55.4433 36.7948C55.378 36.8253 55.3206 36.8703 55.2754 36.9264C55.215 37.0043 55.1405 37.1031 55.1835 37.1938C55.2266 37.2846 55.3429 37.2287 55.4266 37.2369C55.4979 37.241 55.5693 37.241 55.6406 37.2369H55.6394Z" fill="#001464"/>
<path d="M26.8203 36.5117C27.3297 36.5117 27.6541 36.8455 27.6611 37.384C27.6681 37.955 27.3599 38.3074 26.847 38.3144C26.3341 38.3213 26.0062 37.9759 26.0073 37.4096C26.0085 36.8432 26.3155 36.5152 26.8203 36.5117ZM27.3297 37.4189C27.3297 37.1397 27.2692 36.9618 27.1285 36.8513C27.0317 36.7797 26.9122 36.7459 26.7923 36.7562C26.6724 36.7665 26.5603 36.8201 26.4772 36.9071C26.2713 37.1293 26.2806 37.7212 26.4923 37.9364C26.5774 38.0218 26.6916 38.0721 26.8121 38.077C26.9326 38.082 27.0506 38.0413 27.1424 37.9631C27.311 37.8178 27.3297 37.6212 27.3297 37.4189Z" fill="#001464"/>
<path d="M28.2066 37.4014C28.2066 36.8443 28.5159 36.5117 29.0207 36.5117C29.5254 36.5117 29.8545 36.8606 29.8545 37.3944C29.8545 37.9759 29.5335 38.3248 28.9974 38.3155C28.5054 38.3074 28.2042 37.9585 28.2066 37.4014ZM29.5277 37.4014C29.5353 37.272 29.5113 37.1427 29.4579 37.0246C29.4137 36.9227 29.3336 36.8405 29.2329 36.7936C29.1322 36.7467 29.0178 36.7383 28.9113 36.7699C28.6648 36.8211 28.5148 37.0607 28.5148 37.3979C28.5148 37.6794 28.5741 37.9469 28.8788 38.0527C28.9831 38.0924 29.0983 38.0921 29.2025 38.052C29.3066 38.0118 29.3922 37.9346 29.4428 37.8352C29.5146 37.7022 29.5442 37.5505 29.5277 37.4002V37.4014Z" fill="#001464"/>
<path d="M38.2432 37.4189C38.2432 36.8583 38.5409 36.5164 39.0433 36.5118C39.5457 36.5071 39.8807 36.8386 39.8946 37.377C39.9086 37.9585 39.5864 38.3144 39.0561 38.3156C38.5514 38.3156 38.2455 37.9783 38.2432 37.4189ZM39.5632 37.4329C39.5725 37.191 39.5318 36.9793 39.3306 36.8339C39.2346 36.7695 39.1187 36.7417 39.0039 36.7553C38.8892 36.769 38.7831 36.8233 38.7049 36.9083C38.4932 37.134 38.4886 37.6689 38.6967 37.9108C38.7709 38 38.8757 38.0583 38.9906 38.0742C39.1055 38.0901 39.2222 38.0626 39.3178 37.9969C39.4061 37.934 39.4756 37.8483 39.5191 37.749C39.5625 37.6496 39.5781 37.5404 39.5643 37.4329H39.5632Z" fill="#001464"/>
<path d="M61.4988 38.3177C61.3741 38.3334 61.2476 38.312 61.1351 38.2561C61.0225 38.2003 60.929 38.1125 60.8661 38.0037C60.8219 37.9292 60.7207 37.8269 60.858 37.7525C60.88 37.7359 60.9057 37.725 60.9329 37.7208C60.9601 37.7166 60.9879 37.7191 61.0139 37.7282C61.0399 37.7373 61.0633 37.7526 61.0819 37.7729C61.1005 37.7932 61.1139 37.8177 61.1208 37.8443C61.2371 38.0897 61.4557 38.1014 61.6825 38.056C61.7432 38.0509 61.7999 38.0234 61.8415 37.9789C61.8832 37.9345 61.9069 37.8762 61.9081 37.8153C61.9081 37.6827 61.8116 37.6304 61.7 37.5978C61.5092 37.5408 61.3173 37.4896 61.1313 37.4222C61.0375 37.3974 60.9555 37.3406 60.8994 37.2615C60.8432 37.1824 60.8167 37.0862 60.8242 36.9895C60.826 36.8941 60.857 36.8015 60.9132 36.7243C60.9694 36.6471 61.048 36.5891 61.1382 36.5581C61.4232 36.4418 61.8767 36.5057 62.0349 36.7C62.1 36.779 62.2024 36.8872 62.0919 36.9791C62.0713 36.9977 62.0464 37.011 62.0195 37.0178C61.9925 37.0246 61.9643 37.0247 61.9373 37.018C61.9103 37.0113 61.8854 36.9982 61.8647 36.9796C61.844 36.9611 61.8282 36.9377 61.8186 36.9116C61.7929 36.8624 61.7536 36.8215 61.7053 36.7939C61.6571 36.7662 61.602 36.753 61.5465 36.7558C61.379 36.7558 61.1696 36.7255 61.1324 36.9442C61.0952 37.1628 61.2999 37.1512 61.4395 37.1919L61.8105 37.3082C62.043 37.3815 62.2268 37.5117 62.2291 37.785C62.2291 38.0269 62.0116 38.2502 61.7314 38.3049C61.6542 38.314 61.5765 38.3183 61.4988 38.3177Z" fill="#001464"/>
<path d="M63.9884 37.3874V36.7012C63.9884 36.4931 64.15 36.4686 64.221 36.5663C64.3268 36.7094 64.3721 36.6326 64.4629 36.5861C64.942 36.3396 65.3793 36.5861 65.4037 37.1246C65.4188 37.4514 65.4037 37.7805 65.413 38.1085C65.413 38.2248 65.3898 38.2992 65.2502 38.2945C65.1106 38.2899 65.1095 38.2143 65.1106 38.1154C65.1106 37.8177 65.12 37.5188 65.1106 37.2211C65.0967 36.8943 64.9723 36.7559 64.7269 36.7559C64.4815 36.7559 64.3035 36.9315 64.2919 37.2211C64.2803 37.5107 64.2919 37.8026 64.2919 38.0864C64.2919 38.191 64.2919 38.2852 64.1442 38.2864C63.9965 38.2876 63.9872 38.2062 63.9884 38.0945C63.9907 37.8642 63.9884 37.6258 63.9884 37.3874Z" fill="#001464"/>
<path d="M53.5483 37.8607C53.7041 37.435 53.8309 37.0827 53.9623 36.7326C53.9949 36.6454 54.003 36.5302 54.1414 36.5267C54.2577 36.5267 54.3496 36.5372 54.2915 36.6896C54.1031 37.1803 53.9123 37.6711 53.7274 38.1631C53.7143 38.2058 53.6863 38.2424 53.6486 38.2663C53.6108 38.2901 53.5658 38.2997 53.5216 38.2933C53.4053 38.2933 53.3704 38.2236 53.3366 38.1328C53.1668 37.6769 52.9877 37.2245 52.8238 36.7675C52.7993 36.6989 52.6679 36.5826 52.847 36.5349C52.875 36.5241 52.905 36.5197 52.9349 36.5221C52.9648 36.5245 52.9937 36.5336 53.0196 36.5486C53.0455 36.5637 53.0677 36.5844 53.0845 36.6092C53.1014 36.634 53.1124 36.6623 53.1168 36.6919C53.218 37.0036 53.3332 37.3106 53.4436 37.6223C53.4634 37.67 53.489 37.7246 53.5483 37.8607Z" fill="#001464"/>
<path d="M30.8816 35.9638V36.2883C30.8816 36.3941 30.8665 36.5372 31.0537 36.5209C31.1398 36.5209 31.1793 36.5662 31.1782 36.6511C31.1808 36.6687 31.1793 36.6867 31.1739 36.7037C31.1684 36.7206 31.1592 36.7361 31.1468 36.7489C31.1345 36.7617 31.1193 36.7715 31.1026 36.7775C31.0858 36.7836 31.0679 36.7857 31.0502 36.7837C30.8956 36.7837 30.8804 36.8837 30.8828 37.0047V37.7502C30.8828 37.8874 30.8828 38.013 31.077 38.0165C31.1851 38.0165 31.1933 38.1072 31.1933 38.1898C31.1933 38.3061 31.1037 38.3061 31.0235 38.3061C30.7455 38.3317 30.585 38.2119 30.5583 37.9281C30.5385 37.6711 30.5583 37.4117 30.5432 37.1535C30.5362 37.0093 30.6188 36.8221 30.3897 36.7581C30.3687 36.7581 30.3606 36.6918 30.3513 36.6546C30.3106 36.4941 30.5269 36.5488 30.5385 36.4325C30.5344 36.3247 30.5486 36.2169 30.5804 36.1138C30.6125 36.064 30.6574 36.0238 30.7104 35.9974C30.7634 35.971 30.8225 35.9594 30.8816 35.9638Z" fill="#001464"/>
<path d="M58.9131 35.9512V36.3291C58.9131 36.4385 58.9236 36.5478 59.0829 36.5327C59.1666 36.5245 59.2108 36.5652 59.2108 36.649C59.2108 36.7327 59.1585 36.7722 59.0782 36.7653C58.9119 36.7501 58.9108 36.8571 58.9131 36.9758V37.6631C58.9131 37.8259 58.8666 38.019 59.1364 38.0271C59.2318 38.0271 59.2178 38.126 59.2213 38.1911C59.2248 38.2562 59.1713 38.2865 59.105 38.3074C59.0503 38.325 58.9922 38.3297 58.9354 38.3212C58.8785 38.3127 58.8244 38.2912 58.7772 38.2583C58.7301 38.2254 58.6911 38.1821 58.6635 38.1317C58.6358 38.0813 58.6201 38.0252 58.6177 37.9678C58.6014 37.7003 58.6177 37.4305 58.6049 37.1618C58.5968 37.0072 58.7061 36.7955 58.427 36.7362C58.3688 36.7234 58.37 36.5734 58.427 36.5629C58.6491 36.5245 58.6026 36.3664 58.6037 36.2268C58.6142 36.0535 58.7456 36.0291 58.9131 35.9512Z" fill="#001464"/>
<path d="M57.1258 37.4148V36.6996C57.1258 36.5728 57.2118 36.467 57.2898 36.5379C57.4491 36.6856 57.5433 36.5961 57.6782 36.5275C57.7635 36.5013 57.8546 36.5013 57.9399 36.5275C58.0004 36.5403 58.0922 36.567 58.0492 36.6635C58.0178 36.7321 58.0411 36.8671 57.8957 36.8322C57.5328 36.7438 57.463 36.995 57.4375 37.2543C57.4119 37.5137 57.4282 37.7905 57.4212 38.058C57.4212 38.1591 57.4596 38.2906 57.2805 38.2906C57.1014 38.2906 57.1281 38.1743 57.1281 38.0661C57.1258 37.8506 57.125 37.6335 57.1258 37.4148Z" fill="#001464"/>
<path d="M43.8035 37.0561V36.0757C43.8035 35.9768 43.7895 35.8745 43.9419 35.8675C44.0943 35.8605 44.1059 35.9652 44.1059 36.0803V38.1005C44.1059 38.2168 44.0943 38.2958 43.9512 38.2947C43.8082 38.2935 43.8012 38.2028 43.8023 38.0958C43.8047 37.7492 43.8035 37.4027 43.8035 37.0561Z" fill="#001464"/>
<path d="M59.8204 37.3997V36.7158C59.8204 36.5995 59.8355 36.5251 59.9774 36.5216C60.1193 36.5181 60.1565 36.5995 60.1554 36.7263V38.094C60.1554 38.2172 60.1403 38.3045 59.9821 38.3033C59.8239 38.3021 59.8193 38.1986 59.8204 38.0835C59.8216 37.8544 59.8204 37.6276 59.8204 37.3997Z" fill="#001464"/>
<path d="M42.7349 37.386V36.7021C42.7349 36.5858 42.7721 36.5195 42.9047 36.5195C43.0373 36.5195 43.071 36.5881 43.0699 36.7056V38.1326C43.0699 38.2396 43.0327 38.2977 42.9152 38.3001C42.7977 38.3024 42.7326 38.2594 42.7349 38.1291C42.7384 37.8814 42.7349 37.6337 42.7349 37.386Z" fill="#001464"/>
<path d="M63.2142 37.3885V38.1317C63.2142 38.241 63.1793 38.2956 63.0619 38.2956C62.9444 38.2956 62.9095 38.2386 62.9107 38.1305V36.6791C62.9107 36.5837 62.9421 36.5337 63.0467 36.5314C63.1514 36.529 63.2142 36.5593 63.2119 36.6802C63.2107 36.9117 63.2142 37.1512 63.2142 37.3885Z" fill="#001464"/>
<path d="M60.152 36.0595C60.1636 36.1897 60.0903 36.2211 59.9729 36.2211C59.8321 36.2211 59.8217 36.1374 59.8193 36.0292C59.8193 35.8978 59.8821 35.8652 60.0008 35.8652C60.1415 35.8641 60.1589 35.9432 60.152 36.0595Z" fill="#001464"/>
<path d="M43.066 36.0502C43.0788 36.1746 43.0218 36.2211 42.8962 36.2223C42.7706 36.2234 42.7346 36.1537 42.7334 36.0385C42.7323 35.9234 42.7811 35.8652 42.9067 35.8652C43.0323 35.8652 43.0765 35.9327 43.066 36.0502Z" fill="#001464"/>
<path d="M63.2142 36.0463C63.2235 36.151 63.1968 36.2138 63.0723 36.2173C62.9479 36.2208 62.9095 36.151 62.9107 36.0359C62.9118 35.9207 62.9304 35.8696 63.0549 35.8672C63.1793 35.8649 63.227 35.9312 63.2142 36.0463Z" fill="#001464"/>
</g>
</svg>
