<?xml version="1.0" encoding="utf-8"?>
<!-- Generator: Adobe Illustrator 24.2.1, SVG Export Plug-In . SVG Version: 6.00 Build 0)  -->
<svg version="1.1" id="_x37_0c0c323-7dc8-453e-819a-dc8a0502cfd3"
	 xmlns="http://www.w3.org/2000/svg" xmlns:xlink="http://www.w3.org/1999/xlink" x="0px" y="0px" viewBox="0 0 581.4 172"
	 style="enable-background:new 0 0 581.4 172;" xml:space="preserve">
<style type="text/css">
	.st0{fill:#7D7D7D;}
</style>
<path class="st0" d="M0.3,82.3c-2.9-30.5,15.2-65,50.5-77.7c34.5-12.4,70.6,1.7,88.5,27.8c-1.8,0.2-3.3-0.6-4.9-0.9
	c-11-1.9-22.1-2.5-33.2-1.8c-12.5,0.7-24.9,1.6-37,4.9c-3.9,0.9-7.7,2.5-11.1,4.6c-1.3,0.8-2.5,1.8-3.4,3.1
	c-1.2,1.7-1.1,3.3,0.5,4.8c2.1,1.7,4.5,3.1,7.1,4c11.7,4.8,24.1,7.7,36.3,10.8c10.7,2.7,21.2,6.2,30.8,11.8c3,1.6,5.7,3.8,8,6.4
	c3.3,4,3.6,7.3,0.9,11.7s-6.8,7.2-11.2,9.6c-6.4,3.5-6.4,3.4-11.6-1.5C99.1,89.4,85.7,83,71.2,78.7C58.7,75,45.9,72.5,32.8,73
	c-11,0.5-21.5,3-31.1,8.5C1.2,81.8,0.8,82.1,0.3,82.3z"/>
<path class="st0" d="M254.7,56.8c6.6-4.8,14.6-7.2,22.8-6.8c18.3,0.6,32.9,15.5,33.2,33.8c0.2,18-14.6,33.2-33,34
	c-7.5,0.5-14.9-1.5-21.2-5.6c-1.7-1.1-1.9-0.6-1.9,1.1c0,7.1,0,14.2,0.1,21.3c0,1.9-0.5,2.5-2.4,2.5c-4.9-0.1-9.8-0.1-14.6,0
	c-1.5,0-2.1-0.4-2.1-2c0.1-2.7,0.1-5.3,0-8c-0.1-1.9,0.4-2.8,2.4-2.4s2.7-0.5,2.7-2.6c-0.1-18.4-0.1-36.8,0-55.2
	c0-2.2-0.6-3-2.7-2.6c-2.1,0.4-2.5-0.6-2.4-2.4c0.1-2.6,0.1-5.1,0-7.7c-0.1-1.9,0.6-2.3,2.3-2.2c4.7,0.1,9.4,0.2,14.1,0
	c2.1-0.1,3,0.5,2.6,2.7C254.6,55.3,254.6,56.1,254.7,56.8z M275.6,103.9c11.8,0,21-8.8,21-20c0-11-9.3-20-20.8-20s-21,8.9-21.1,20
	S264.1,103.9,275.6,103.9L275.6,103.9z"/>
<path class="st0" d="M174.2,102.5c0-2.2,0.1-4.4,0-6.7c-0.1-1.3,0.3-1.8,1.7-1.7c3.2,0.1,6.5,0.1,9.8,0c1.5,0,1.9,0.4,1.9,1.9
	c0.1,4.9,0.1,4.9,4.9,6.3c4.4,1.3,8.9,1.7,13.4,1.2c4.7-0.7,8.7-2.5,10-7.5c1.5-4.7-0.1-9.9-4.1-12.9c-3.4-2.8-7.4-4.4-11.5-6
	c-7.2-2.7-14-5.9-19.3-11.8c-6.4-7.2-8.4-15.6-5.2-24.8c3.1-8.9,10.3-13,19.2-14.7c9.6-1.8,18.7,0.4,27.7,3.2c2.4,0.8,5.6,1,7.1,2.6
	s0.4,4.9,0.5,7.4s0,5.1,0,7.7c0,1.3-0.4,1.6-1.6,1.6c-3.3-0.1-6.7-0.1-10,0c-1.4,0-1.6-0.6-1.7-1.8c-0.1-4.6-0.2-4.6-4.6-5.9
	c-4.2-1.4-8.8-1.7-13.2-1c-4,0.7-7.3,2.5-8.3,6.6c-1.1,4,0.3,8.3,3.6,10.9c3.1,2.7,6.8,4.2,10.6,5.7c5.2,1.9,10.2,4.3,14.9,7.3
	c10.9,7.2,14.2,18.6,11.8,29.7c-2.1,9.4-10.6,16.1-21.3,17.7c-8.6,1.3-16.8-0.6-25-2.8c-3.1-0.9-6.2-2-9.3-2.8
	c-1.2-0.2-2.1-1.3-1.9-2.5c0-0.1,0-0.2,0-0.2C174.3,106.8,174.2,104.7,174.2,102.5z"/>
<path class="st0" d="M106.5,45.3c7.2,8.2,32.1,9,40.7,1.3c14,23.2,4,71.5-18,86.2c-0.8-2.4-1.5-4.9-2.3-7.2c-1.5-4.6-3.7-9-6.4-13.1
	c-0.9-1.4-0.7-1.9,0.6-2.7c6.2-3.8,12.1-8,16.7-13.8c6-7.5,5.5-14.9-1.4-21.7c-6.1-6-13.7-9.5-21.7-12.3
	c-10.2-3.6-20.9-5.7-31.2-9.3c-6-2.1-12-4-17.5-7.2c-1.2-0.7-2.8-1.3-2.7-2.8c0.1-1.7,1.7-2.4,3.2-3c5.4-2.3,11.3-2.9,17-3.4
	c13.6-1.3,27.3-1.5,41-0.6c4.5,0.2,9,0.9,13.4,2c1.1,0.3,2.1,0.7,3.1,1.1c1.6,0.7,2.9,1.8,2.8,3.8c-0.1,1.9-1.6,2.5-3,3.1
	c-3.6,1.3-7.4,1.4-11.1,1.5c-7,0-14-0.5-20.9-1.7C108.2,45.4,107.4,45.4,106.5,45.3z"/>
<path class="st0" d="M472.2,91.8c0,7.1-0.1,14.1,0,21.2c0,2.2-0.4,3.1-2.9,3c-5.8-0.2-11.6-0.1-17.5,0c-1.6,0-2.1-0.5-2-2
	c0.1-2.8,0.1-5.7,0-8.5c0-1.4,0.4-1.7,1.8-1.7c1.9,0,4.5,0.9,5.7-0.4s0.4-3.9,0.4-5.9c0-18,0-36.1,0.1-54.2c0-2-0.5-2.6-2.5-2.5
	c-5.3,0.1-5.4,0-5.3-5.3c0-2.2-0.9-5.1,0.4-6.4s4.2-0.4,6.4-0.4c4-0.1,8,0,12.1,0c3.8,0,3.3-0.4,3.3,3.2v40.6
	c1.9-1.3,3.6-2.7,5.2-4.4c5.3-4.9,10.6-9.9,15.9-14.9c0.8-0.8,1.8-1.2,2.9-1.2c3.8,0.1,7.7,0.1,11.5,0c1.3,0,2,0.2,2,1.8
	c-0.1,3-0.1,6,0,9c0,1.2-0.4,1.8-1.6,1.6c-5.6-1.2-9.3,1.8-12.9,5.4s-7.5,7-11.4,10.4c-1.2,1-1.2,1.6,0,2.7
	c6.8,6.4,13.5,12.9,20.2,19.4c1.1,1.2,2.7,1.9,4.3,1.7c1.3-0.2,2.6,0.1,3.8-0.1c2-0.2,2.7,0.4,2.6,2.5c-0.1,2.7-0.1,5.3,0,8
	c0,1.4-0.5,1.8-1.8,1.8c-4.6,0-9.2,0-13.9,0c-0.8,0-1.5-0.3-2-0.9C489.5,106.8,480.8,99.6,472.2,91.8z"/>
<path class="st0" d="M58.6,151.8c-11.5-2.9-22.2-8.3-31.3-15.9c-5.8-4.9-10.9-10.6-15.1-17c-0.5-0.6-0.8-1.3-0.9-2.1
	c4.6,1.5,9.3,2.8,14.1,3.8c16.3,3.1,33,3.8,49.5,2.1c11.9-1.1,23.5-3.2,34.7-7.4c0.8-0.4,1.7-0.2,2.2,0.6c0,0.1,0.1,0.1,0.1,0.2
	c4.3,6.5,7.9,13.4,10.6,20.7c0.6,1.5,0,2.1-1.1,2.9c-7.4,5.2-15.7,9.2-24.4,11.6c-1,0.3-1.9,0.6-2.9,0.9
	C82.4,154.4,70.3,154.3,58.6,151.8z"/>
<path class="st0" d="M40.2,80.7c15.7,0.1,29.6,2.8,42.6,9.4c7.9,4.1,15,9.4,21,15.9c1.3,1.3,1.2,1.9-0.7,2.4
	c-12.4,3.4-25.1,5.6-37.9,6.3c-14.3,1-28.3-1.3-41.9-5.7c-3.8-1.2-7.3-3-10.4-5.6c-5.9-4.9-5.6-12.3,0.7-16.7
	c5-3.5,10.8-4.6,16.7-5.4C33.6,80.9,36.9,80.7,40.2,80.7z"/>
<path class="st0" d="M548.3,95l7.5-22.2c2.1-6.3,4.3-12.6,6.3-19c0.2-1.3,1.4-2.2,2.7-2c0,0,0,0,0,0l0,0c4.7,0.1,9.4,0.1,14.1,0
	c1.5,0,1.9,0.4,1.9,1.9c-0.1,2.9-0.1,5.8,0,8.7c0,1.3-0.4,1.8-1.8,1.8c-1.9,0-4.2-0.8-5.5,0.3c-1.3,1.1-1.6,3.5-2.3,5.3
	c-8.3,22.5-16.5,45-24.8,67.6c-0.7,1.9-1.6,2.6-3.7,2.5c-3-0.2-6-0.2-9,0c-1.8,0.1-1.9-0.6-1.4-2.1c2.4-6.9,4.6-13.9,7-20.8
	c0.4-1.1,0.4-2.3,0-3.4c-5.4-15.8-10.7-31.7-16-47.5c-0.6-1.7-1.6-1.8-3.1-1.8c-5,0-5.1,0-5-5.1c0-2.3-0.8-5.3,0.4-6.7
	c1.4-1.6,4.5-0.4,6.8-0.5c2.7-0.1,5.5,0.1,8.2-0.1c2-0.1,2.8,0.6,3.4,2.4c4.5,13.6,9,27.3,13.6,40.8L548.3,95z"/>
<path class="st0" d="M434.6,54.8c-0.6-2.9,0.9-3,2.8-2.9c2.5,0.1,5,0.1,7.4,0c1.4,0,2,0.3,1.9,1.8c-0.1,5.7-0.1,11.5,0,17.2
	c0,1.2-0.4,1.7-1.6,1.6c-3.2-0.1-6.3-0.1-9.5,0c-1,0-2-0.5-2.7-1.3c-4.8-4.2-10-7.4-16.7-7.4c-12,0-21.7,9.3-21.2,20.6
	c0.5,11.5,10.8,20.2,22.8,19.2c2.9-0.2,5.7-1,8.3-2.5c1.5-0.9,3.3-1.4,5.1-1.3c5,0.1,9.9,0,14.9,0c-2.9,12.3-24.8,21.1-40.6,16.4
	c-18.7-5.6-29-25.8-22.4-43.8C389.6,54.8,411.7,42.7,434.6,54.8z"/>
<path class="st0" d="M335.8,66.3v34.9c0,1.9,0.3,2.7,2.5,2.7c5.5-0.1,5.5,0,5.5,5.6c0,2.1,1,4.8-0.4,6.2s-4.1,0.4-6.2,0.4
	c-7.1,0-14.2,0-21.3,0.1c-1.8,0-2.6-0.3-2.5-2.3c0.1-2.7,0.1-5.3,0-8c0-1.4,0.2-2,1.8-2c1.9,0,4.5,0.9,5.7-0.4s0.4-3.9,0.4-5.9
	c0-18.1,0-36.1,0.1-54.2c0-2-0.5-2.6-2.6-2.5c-5.4,0.1-5.4,0-5.3-5.5c0-2.1-0.9-4.9,0.4-6.2s4.1-0.4,6.2-0.4
	c4.5-0.1,8.9,0.1,13.4-0.1c2-0.1,2.6,0.5,2.6,2.5C335.7,42.9,335.8,54.6,335.8,66.3z"/>
<path class="st0" d="M371,78c0,7.9,0.1,15.7,0,23.6c0,1.8,0.5,2.3,2.3,2.3c5.4-0.1,5.4,0,5.4,5.5c0,2.1,1,4.8-0.4,6.2
	s-4.1,0.4-6.2,0.4c-6.8,0-13.7,0-20.5,0.1c-1.8,0-2.4-0.6-2.3-2.3c0.1-2.7,0.1-5.3,0-8c0-1.4,0.4-2,1.9-1.9c1.9,0,4.3,0.8,5.4-0.3
	s0.4-3.8,0.4-5.7c0-10.3,0-20.7,0.1-31.1c0-1.9-0.4-2.5-2.4-2.5c-5.4,0.1-5.4,0-5.3-5.3c0-2.3-1-5.3,0.5-6.6
	c1.3-1.1,4.2-0.4,6.5-0.4c4.2,0,8.4,0.1,12.6,0c1.8,0,2.3,0.4,2.3,2.2C370.9,62.1,371,70,371,78z"/>
<path class="st0" d="M362.8,46.9c-4.9-0.3-8.6-4.6-8.2-9.5c0.3-4.5,4-8.1,8.5-8.3c4.7,0.1,8.3,4,8.2,9S367.5,46.9,362.8,46.9z"/>
<path class="st0" d="M305.8,149.6v14c0,0.9,0.5,2.2-1.2,2.3c-1.9,0.1-1.4-1.4-1.4-2.4c0-5.3,0-10.6,0-15.9c0-0.9-0.7-2.4,1.1-2.6
	c1.6-0.1,3.1-0.3,3.8,2c1.5,5,3.2,9.9,5.1,15.5c1.9-5.5,3.8-10.5,5.3-15.5c0.5-1.6,1.4-2.1,3-2c1.2,0.1,1.6,0.5,1.6,1.7
	c0,5.8,0,11.6,0,17.4c0,1.1-0.1,1.8-1.5,1.8s-1.4-1-1.4-1.9v-13.6c-0.7,0.7-1.2,1.7-1.4,2.7c-1.3,3.6-2.5,7.3-3.8,10.9
	c-0.3,0.9-0.4,2-1.9,2s-1.6-1-1.9-2c-1.4-4.3-2.9-8.6-4.4-12.8C306.6,150.6,306.6,150,305.8,149.6z"/>
<path class="st0" d="M208.9,152.6c0.8-0.6,1.7-1.2,2.6-1.7c3.4-1.5,6.6,0.4,6.8,4c0.2,3.1,0,6.3,0,9.5c0,0.9-0.3,1.4-1.3,1.5
	s-1.5-0.4-1.5-1.5V156c0-1.8-0.5-3.1-2.4-3.2c-1.6-0.2-3.2,0.9-3.4,2.5c0,0,0,0,0,0c0,0.1,0,0.1,0,0.2c-0.3,2.6-0.1,5.3-0.3,7.9
	c0,1,0.6,2.4-1.3,2.5s-1.4-1.4-1.4-2.4c-0.1-2.5,0-5,0-7.4c0-1.7-0.3-3.2-2.3-3.4c-1.7-0.2-3.3,0.9-3.6,2.6
	c-0.6,2.1-0.2,4.3-0.3,6.4v3.1c0,1-0.6,1-1.4,1s-1.2-0.2-1.2-1c0-4.4-0.1-8.9,0.1-13.3c0.1-1.5,1.5-1.2,2.2-0.3
	c0.5,0.7,0.6,0.6,1.3,0.3C204.7,149.8,206.2,150.1,208.9,152.6z"/>
<path class="st0" d="M183.8,166.1c-4.7-0.1-7.5-1.8-8.4-5c-0.2-0.8-0.7-1.7,0.6-2.1c1.1-0.3,1.6,0.1,2.1,1.2
	c1.4,3.3,6.1,4.6,9.1,2.7c1.1-0.6,1.7-1.8,1.6-3c-0.1-1.2-0.9-2.1-2-2.4c-1.8-0.6-3.6-1-5.4-1.5c-4-1.2-5.9-3.1-5.5-6
	c0.4-3.1,3.3-5.2,7.2-5.3c3.6-0.1,6.8,1.8,7.6,4.6c0.2,0.6,0.8,1.6-0.5,1.8c-0.8,0.1-1.6,0.4-2.1-0.8c-1.3-2.8-4.7-4-7.4-2.6
	c0,0,0,0,0,0h-0.1c-1.1,0.4-1.8,1.4-1.9,2.5c-0.1,1.2,0.6,2.3,1.8,2.5c1.9,0.6,3.8,1,5.7,1.6c4,1.2,5.8,3.3,5.4,6.4
	s-3.3,5.3-7.1,5.5L183.8,166.1z"/>
<path class="st0" d="M578.5,164.6c-1.6,0.5-3,1.5-4.7,1.2c-2.6-0.3-4.8-2.3-5.3-4.9c-0.9-3.4-0.6-6.7,2.3-9.2c2-1.8,5-1.9,7.1-0.3
	c0.8,0.5,1,0.5,1.3-0.4c0.2-0.7,1-0.4,1.6-0.3s0.7,0.7,0.7,1.2c-0.1,4.9,0.3,9.7-0.2,14.6c-0.1,2.3-1.6,4.3-3.9,4.9
	c-2.4,0.9-5.2,0.6-7.3-1c-0.4-0.3-0.7-0.7-0.9-1.2c-0.3-0.7-0.8-1.6,0-2c0.7-0.4,1.7-0.2,2.1,0.5c0,0,0,0,0,0l0.1,0.1
	c1.2,2.3,3.2,2.1,5.1,1.4C578.6,168.7,578.7,166.8,578.5,164.6z M570.8,158.4c-0.1,1.1,0.1,2.1,0.6,3.1c0.6,1.3,1.9,2.1,3.3,2.1
	c1.5,0.2,2.9-0.6,3.6-2c1-2.1,1-4.6,0-6.7c-0.6-1.4-2-2.3-3.5-2.2c-1.5,0-2.8,0.9-3.4,2.3C570.9,156.1,570.7,157.3,570.8,158.4z"/>
<path class="st0" d="M431.4,165.6c-2.4,0.8-3.4-0.1-4-2c-0.5-1.4-0.5-3.6-2-3.9c-2.5-0.5-5.1-0.5-7.6,0.1c-1.6,0.4-1.5,2.9-2.1,4.4
	c-0.4,1-0.7,1.9-2.1,1.8c-1-0.1-1.5-0.2-1.1-1.3c2.4-6.2,4.8-12.4,7.2-18.6c0.4-1.1,1.3-0.8,2.1-0.9c1.1-0.1,1.5,0.6,1.8,1.4
	C426.2,152.8,428.8,159.1,431.4,165.6z M418.2,157.2h6.8l-3.5-9.5L418.2,157.2z"/>
<path class="st0" d="M445.6,151.7v-5c0-1,0.2-1.6,1.4-1.6s1.4,0.6,1.4,1.6v17.7c0,1.3-0.7,2-1.7,1.4c-1.3-0.7-2.4-0.3-3.6,0.1
	c-0.5,0.1-1,0.2-1.5,0.1c-2.7,0.1-5-1.7-5.8-4.2c-1.1-3.4-1-6.8,1.5-9.6c1.7-1.9,4.3-2.2,7.1-0.9C444.7,151.4,445,151.5,445.6,151.7
	z M437.7,158.1c0.1,0.8,0.2,1.5,0.4,2.3c0.4,2,1.5,3.5,3.7,3.5c2.4,0,3.4-1.6,3.9-3.7c0.4-1.7,0.2-3.4-0.4-5c-0.5-1.6-2-2.7-3.7-2.6
	c-1.6,0.1-3,1.2-3.3,2.7C438,156.3,437.8,157.2,437.7,158.1L437.7,158.1z"/>
<path class="st0" d="M275.9,152.2c1.1-1,2.5-1.6,4-1.7c3.1-0.2,5,1.3,5.4,4.5s0.1,6.3,0.2,9.5c0,1.1-0.4,1.5-1.5,1.5
	s-1.3-0.8-1.3-1.7v-8c0-1.9-0.7-3.4-2.9-3.5c-2-0.2-3.8,1.3-3.9,3.3c0,0,0,0,0,0c0,0.1,0,0.1,0,0.2c-0.1,2.6-0.1,5.3,0,8
	c0,0.9,0,1.7-1.3,1.7s-1.5-0.6-1.5-1.6v-17.7c0-1,0.2-1.6,1.4-1.6s1.3,0.8,1.3,1.7C275.9,148.4,275.9,150.1,275.9,152.2z"/>
<path class="st0" d="M351.3,151.4c0.9,0.3,1.4-0.3,1.9-0.5c2.9-1.3,6.2,0,7.6,2.9c1.4,2.7,1.4,5.9,0.1,8.6c-1.2,2.7-4.1,4.2-7,3.5
	c-1.2-0.3-2.2-2.1-3.8-0.2c-0.4,0.6-1.3-0.3-1.3-1.2c0-6.1,0-12.1,0-18.2c0-0.8,0.2-1.3,1.1-1.3s1.4,0.4,1.4,1.4
	C351.3,148.1,351.3,149.8,351.3,151.4z M359.2,158.4c0-0.7-0.1-1.3-0.3-2c-0.5-2-1.4-3.8-3.8-3.7s-3.4,1.6-3.9,3.7
	c-0.4,1.5-0.3,3.1,0.1,4.5c0.4,2,2.3,3.3,4.3,3c1.4-0.3,2.5-1.3,2.9-2.7C358.8,160.3,359,159.4,359.2,158.4L359.2,158.4z"/>
<path class="st0" d="M393.4,159c-1.3,0-2.6,0.1-3.8,0c-2-0.1-1.9,0.9-1.4,2.2c1.3,3.3,5.3,3.9,7.3,1c0.8-1.2,1.8-1.5,2.7-0.8
	s-0.1,1.7-0.6,2.4c-1.7,2.4-5,3.2-8.1,2c-2.9-1-4.6-3.8-4.5-7.3c0.1-5.1,3-8.1,7.7-7.8c3.8,0.3,6.6,3.6,6.3,7.4c0,0,0,0,0,0l0,0
	c-0.1,0.9-0.6,0.9-1.2,0.9L393.4,159z M392,156.8h2c0.6,0,1.5,0.3,1.9-0.3s-0.1-1.5-0.5-2.1c-1.3-1.8-3.8-2.3-5.7-1c0,0,0,0,0,0
	l-0.3,0.3c-0.8,0.7-1.5,1.7-1.3,2.6c0.3,1.2,1.6,0.4,2.4,0.5C391,156.9,391.5,156.9,392,156.8z"/>
<path class="st0" d="M479.6,159h-3.1c-0.7,0-1.7-0.4-2.1,0.3c-0.5,0.9,0.1,1.8,0.6,2.6c1.1,2,3.6,2.7,5.5,1.6c0.5-0.3,0.9-0.6,1.2-1
	c0.3-0.3,0.4-0.7,0.7-1.1c0.6-0.8,1.4-0.5,2.1-0.2c1,0.4,0.4,1.1,0.1,1.7c-1.7,3.3-7.1,4.3-10.3,1.9c-2.6-2-3.5-6.4-2.1-10.1
	c1.1-3,3.9-4.5,7.5-4.1c3.5,0.6,6,3.8,5.8,7.3c-0.1,1-0.7,1-1.4,1L479.6,159z M478.4,156.8c0.7,0,1.3,0,2,0c0.6-0.1,1.5,0.4,1.8-0.4
	s-0.1-1.5-0.6-2.1c-1.3-1.8-3.9-2.2-5.7-0.8c-0.3,0.2-0.5,0.4-0.7,0.7c-0.5,0.7-1.2,1.5-0.8,2.3s1.4,0.3,2.1,0.4
	C477.2,156.8,477.8,156.8,478.4,156.8L478.4,156.8z"/>
<path class="st0" d="M230.6,150.6c4.4,0,7.2,2.9,7.2,7.5c0.1,4.9-2.6,7.9-7,8s-7.2-2.9-7.2-7.8S226.3,150.6,230.6,150.6z M235,158.4
	c0-2.4-0.5-3.9-1.7-4.9c-1.7-1.3-4.1-1.1-5.6,0.5c-1.8,1.9-1.7,7,0.1,8.9c1.5,1.5,4,1.6,5.6,0.2C234.8,161.8,235,160.1,235,158.4z"
	/>
<path class="st0" d="M242.5,158.2c0-4.8,2.7-7.6,7-7.6s7.2,3,7.2,7.6c0,5-2.8,8-7.4,7.9C245.1,166,242.5,163,242.5,158.2z
	 M253.9,158.2c0.1-1.1-0.1-2.2-0.6-3.2c-0.8-1.8-2.8-2.8-4.7-2.2c-2.1,0.4-3.4,2.5-3.4,5.4c0,2.4,0.5,4.7,3.1,5.6
	c1.9,0.7,3.9-0.1,4.9-1.9C253.8,160.8,254,159.5,253.9,158.2L253.9,158.2z"/>
<path class="st0" d="M328.8,158.4c0-4.8,2.6-7.8,6.9-7.8s7.2,2.8,7.3,7.4c0.1,5-2.6,8.1-7.2,8.1
	C331.5,166.1,328.9,163.2,328.8,158.4z M340.2,158.5c0.1-2.1-0.3-3.9-2-5.1c-1.7-1.1-4-0.9-5.4,0.6c-1.8,1.9-1.9,6.5-0.1,8.6
	c1.3,1.6,3.6,1.9,5.3,0.7C339.6,162.2,340.4,160.4,340.2,158.5L340.2,158.5z"/>
<path class="st0" d="M528.8,166.1c-2.2,0.3-4.3-0.8-5.4-2.7c-0.4-0.6-1.3-1.5-0.1-2.2c0.6-0.5,1.5-0.4,2,0.3
	c0.1,0.2,0.2,0.3,0.2,0.5c1,2.1,2.9,2.2,4.8,1.8c1.1-0.1,1.9-1,1.9-2.1c0-1.1-0.8-1.6-1.8-1.9c-1.6-0.5-3.3-0.9-4.9-1.5
	c-1.7-0.4-2.8-2-2.6-3.7c0-1.7,1.1-3.2,2.7-3.7c2.5-1,6.3-0.4,7.7,1.2c0.6,0.7,1.4,1.6,0.5,2.4c-0.6,0.5-1.5,0.5-2.1-0.1
	c-0.1-0.1-0.2-0.3-0.3-0.5c-0.5-0.9-1.4-1.4-2.3-1.3c-1.4,0-3.2-0.3-3.6,1.6s1.4,1.8,2.6,2.1l3.2,1c2,0.6,3.6,1.8,3.6,4.1
	c0,2.1-1.9,4-4.3,4.5C530.1,166.1,529.5,166.1,528.8,166.1z"/>
<path class="st0" d="M550.2,158.1v-5.9c0-1.8,1.4-2,2-1.2c0.9,1.2,1.3,0.6,2.1,0.2c4.1-2.1,7.9,0,8.1,4.6c0.1,2.8,0,5.6,0.1,8.5
	c0,1-0.2,1.6-1.4,1.6s-1.2-0.7-1.2-1.5c0-2.6,0.1-5.1,0-7.7c-0.1-2.8-1.2-4-3.3-4s-3.6,1.5-3.7,4s0,5,0,7.4c0,0.9,0,1.7-1.3,1.7
	s-1.3-0.7-1.3-1.6C550.2,162.2,550.2,160.2,550.2,158.1z"/>
<path class="st0" d="M460.4,162.2c1.3-3.7,2.4-6.7,3.6-9.7c0.3-0.8,0.4-1.7,1.5-1.8c1,0,1.8,0.1,1.3,1.4c-1.6,4.2-3.3,8.4-4.9,12.7
	c-0.2,0.8-1,1.2-1.8,1.1c-1,0-1.3-0.6-1.6-1.4c-1.5-3.9-3-7.8-4.4-11.7c-0.2-0.6-1.3-1.6,0.2-2c0.9-0.3,1.9,0.1,2.2,1
	c0,0.1,0.1,0.2,0.1,0.4c0.9,2.7,1.9,5.3,2.8,8C459.7,160.5,459.9,161,460.4,162.2z"/>
<path class="st0" d="M265.5,145.9v2.8c0,0.9-0.1,2.1,1.5,2c0.7,0,1.1,0.4,1.1,1.1c0.1,0.5-0.3,1.1-0.8,1.1c-0.1,0-0.2,0-0.3,0
	c-1.3,0-1.5,0.9-1.4,1.9v6.4c0,1.2,0,2.3,1.7,2.3c0.9,0,1,0.8,1,1.5c0,1-0.8,1-1.5,1c-2.4,0.2-3.8-0.8-4-3.3c-0.2-2.2,0-4.4-0.1-6.7
	c-0.1-1.2,0.6-2.9-1.3-3.4c-0.2,0-0.3-0.6-0.3-0.9c-0.4-1.4,1.5-0.9,1.6-1.9c0-0.9,0.1-1.9,0.4-2.7
	C263.5,146.3,264.5,145.8,265.5,145.9z"/>
<path class="st0" d="M506.6,145.8v3.3c0,0.9,0.1,1.9,1.5,1.8c0.7-0.1,1.1,0.3,1.1,1s-0.5,1.1-1.1,1c-1.4-0.1-1.4,0.8-1.4,1.8v5.9
	c0,1.4-0.4,3.1,1.9,3.1c0.8,0,0.7,0.9,0.7,1.4s-0.4,0.8-1,1c-1.7,0.5-3.5-0.4-4-2.1c-0.1-0.3-0.1-0.6-0.2-0.8
	c-0.1-2.3,0-4.6-0.1-6.9c-0.1-1.3,0.9-3.1-1.5-3.7c-0.5-0.1-0.5-1.4,0-1.5c1.9-0.3,1.5-1.7,1.5-2.9
	C504,146.6,505.1,146.4,506.6,145.8z"/>
<path class="st0" d="M491.2,158.3v-6.1c0-1.1,0.7-2,1.4-1.4c1.4,1.3,2.2,0.5,3.3-0.1c0.7-0.2,1.5-0.2,2.3,0c0.5,0.1,1.3,0.3,0.9,1.2
	c-0.3,0.6-0.1,1.8-1.3,1.4c-3.1-0.8-3.7,1.4-3.9,3.6s-0.1,4.6-0.1,6.9c0,0.9,0.3,2-1.2,2s-1.3-1-1.3-1.9
	C491.2,162.1,491.2,160.2,491.2,158.3z"/>
<path class="st0" d="M376.6,155.3v-8.4c0-0.9-0.1-1.7,1.2-1.8s1.4,0.8,1.4,1.8v17.4c0,1-0.1,1.7-1.3,1.7s-1.3-0.8-1.3-1.7
	C376.7,161.2,376.6,158.2,376.6,155.3z"/>
<path class="st0" d="M514.4,158.2v-5.9c0-1,0.1-1.6,1.3-1.7s1.5,0.7,1.5,1.8v11.8c0,1.1-0.1,1.8-1.5,1.8s-1.4-0.9-1.4-1.9
	C514.4,162.1,514.4,160.2,514.4,158.2z"/>
<path class="st0" d="M367.5,158.1v-5.9c0-1,0.3-1.6,1.5-1.6s1.4,0.6,1.4,1.6v12.3c0,0.9-0.3,1.4-1.3,1.4s-1.6-0.4-1.5-1.5
	C367.5,162.4,367.5,160.2,367.5,158.1z"/>
<path class="st0" d="M543.5,158.1v6.4c0,0.9-0.3,1.4-1.3,1.4s-1.3-0.5-1.3-1.4V152c0-0.8,0.3-1.3,1.2-1.3s1.4,0.2,1.4,1.3
	C543.5,154,543.5,156.1,543.5,158.1z"/>
<path class="st0" d="M517.2,146.7c0.1,1.1-0.5,1.4-1.5,1.4c-1.2,0-1.3-0.7-1.3-1.6c0-1.1,0.5-1.4,1.6-1.4
	C517.1,145,517.3,145.7,517.2,146.7z"/>
<path class="st0" d="M370.3,146.6c0.1,1.1-0.4,1.5-1.5,1.5s-1.4-0.6-1.4-1.6s0.4-1.5,1.5-1.5S370.4,145.6,370.3,146.6z"/>
<path class="st0" d="M543.5,146.6c0.1,0.9-0.2,1.4-1.2,1.5s-1.4-0.6-1.4-1.6s0.2-1.4,1.2-1.4S543.7,145.6,543.5,146.6z"/>
</svg>
