<svg id="70c0c323-7dc8-453e-819a-dc8a0502cfd3" data-name="da889ea4-ab1e-40d4-844e-7aed156faf5a" xmlns="http://www.w3.org/2000/svg" width="581.42" height="171.97" viewBox="0 0 581.42 171.97"><defs><style>.b4f8f447-4311-4291-9dd1-01284322e2dc{fill:#fff;}</style></defs><title>logo-splicky-white</title><path class="b4f8f447-4311-4291-9dd1-01284322e2dc" d="M.31,82.28c-2.92-30.52,15.21-65,50.48-77.72,34.54-12.41,70.62,1.67,88.47,27.8-1.81.16-3.34-.63-4.93-.93a137.22,137.22,0,0,0-33.22-1.75c-12.48.7-24.91,1.64-37,4.87A38.07,38.07,0,0,0,53,39.1a11.69,11.69,0,0,0-3.41,3.08c-1.2,1.73-1.14,3.32.52,4.77a24.74,24.74,0,0,0,7.11,4c11.73,4.84,24.05,7.71,36.31,10.82,10.7,2.72,21.17,6.15,30.77,11.79a29.16,29.16,0,0,1,8,6.39c3.32,4,3.61,7.26.85,11.74s-6.79,7.18-11.19,9.56c-6.4,3.47-6.38,3.39-11.57-1.47C99.13,89.35,85.69,83,71.17,78.68,58.65,75,45.92,72.45,32.78,73c-11,.5-21.46,3-31.1,8.52A12.58,12.58,0,0,1,.31,82.28Z" transform="translate(0 0.01)"/><path class="b4f8f447-4311-4291-9dd1-01284322e2dc" d="M254.73,56.79A36.27,36.27,0,0,1,277.52,50a34.41,34.41,0,0,1,33.23,33.8c.17,18-14.64,33.16-33,34a34.5,34.5,0,0,1-21.19-5.58c-1.7-1.13-1.94-.58-1.93,1.1,0,7.1,0,14.21.06,21.31,0,1.91-.47,2.52-2.43,2.46-4.88-.14-9.76-.1-14.64,0-1.54,0-2.14-.4-2.07-2a78.43,78.43,0,0,0,0-8c-.11-1.88.41-2.79,2.4-2.44s2.69-.47,2.68-2.62q-.14-27.61,0-55.21c0-2.19-.61-3-2.7-2.58s-2.48-.59-2.38-2.44a66.71,66.71,0,0,0,0-7.7c-.12-1.88.62-2.27,2.34-2.23,4.71.11,9.42.15,14.12,0,2.14-.07,3,.55,2.65,2.69A13,13,0,0,0,254.73,56.79Zm20.92,47.11c11.78,0,21-8.78,21-20,0-11-9.29-20-20.78-20s-21,8.94-21.06,20,9.32,20,20.85,20Z" transform="translate(0 0.01)"/><path class="b4f8f447-4311-4291-9dd1-01284322e2dc" d="M174.21,102.52c0-2.22.07-4.45,0-6.67-.06-1.34.34-1.78,1.71-1.74q4.87.14,9.75,0c1.48,0,1.85.44,1.87,1.89.06,4.88.12,4.9,4.88,6.25a32.23,32.23,0,0,0,13.45,1.15c4.66-.66,8.7-2.52,10-7.47A11.76,11.76,0,0,0,211.8,83c-3.4-2.85-7.45-4.44-11.54-6-7.18-2.67-14-5.93-19.26-11.79-6.44-7.23-8.44-15.62-5.24-24.76,3.12-8.88,10.3-13,19.16-14.69,9.55-1.77,18.68.36,27.71,3.22,2.43.77,5.56,1,7.07,2.6s.38,4.89.47,7.43,0,5.14,0,7.7c0,1.25-.42,1.61-1.63,1.59-3.34-.06-6.68-.08-10,0-1.45,0-1.65-.61-1.68-1.85-.13-4.57-.16-4.62-4.63-5.94a28,28,0,0,0-13.16-1c-4,.74-7.28,2.53-8.29,6.64a10.41,10.41,0,0,0,3.56,10.88c3.1,2.66,6.83,4.21,10.58,5.65A76.37,76.37,0,0,1,219.87,70c10.94,7.22,14.24,18.62,11.8,29.67-2.08,9.42-10.58,16.06-21.33,17.67-8.65,1.29-16.83-.55-25-2.83-3.12-.87-6.17-2-9.3-2.85a2.22,2.22,0,0,1-1.88-2.71C174.3,106.8,174.21,104.68,174.21,102.52Z" transform="translate(0 0.01)"/><path class="b4f8f447-4311-4291-9dd1-01284322e2dc" d="M106.52,45.29c7.15,8.2,32.1,9,40.69,1.29,14,23.22,4,71.53-18,86.18-.76-2.45-1.47-4.86-2.27-7.25a55.24,55.24,0,0,0-6.39-13.1c-.91-1.36-.7-1.9.63-2.72,6.23-3.8,12.11-8,16.71-13.83,6-7.48,5.53-14.94-1.37-21.68-6.13-6-13.73-9.54-21.68-12.32-10.24-3.58-20.91-5.74-31.17-9.28-6-2.06-12-4-17.5-7.2-1.15-.68-2.79-1.3-2.72-2.8.08-1.7,1.73-2.42,3.17-3,5.44-2.27,11.25-2.86,17-3.38a254.62,254.62,0,0,1,41-.58,66.54,66.54,0,0,1,13.41,2,21.67,21.67,0,0,1,3.13,1.12c1.63.74,2.93,1.75,2.79,3.85-.13,1.94-1.6,2.55-3,3.07-3.59,1.3-7.37,1.44-11.12,1.53a125.54,125.54,0,0,1-20.93-1.67C108.17,45.4,107.42,45.37,106.52,45.29Z" transform="translate(0 0.01)"/><path class="b4f8f447-4311-4291-9dd1-01284322e2dc" d="M472.22,91.83c0,7.07-.08,14.14,0,21.21,0,2.23-.39,3.11-2.88,3-5.81-.21-11.64-.12-17.45,0-1.6,0-2.08-.47-2-2,.12-2.82.1-5.65,0-8.47,0-1.37.43-1.74,1.75-1.74,1.94,0,4.5.88,5.66-.38s.38-3.91.38-5.94q0-27.07.06-54.16c0-2-.47-2.6-2.52-2.55-5.31.13-5.35,0-5.3-5.25,0-2.2-.94-5.07.41-6.44s4.23-.39,6.43-.43c4-.06,8,0,12.06,0,3.83,0,3.32-.41,3.33,3.21V72.46a29.63,29.63,0,0,0,5.16-4.4q8-7.39,15.92-14.89A3.89,3.89,0,0,1,496.17,52q5.77.1,11.55,0c1.34,0,2,.19,2,1.78-.12,3-.08,6,0,9,0,1.23-.42,1.83-1.63,1.58-5.57-1.17-9.27,1.75-12.89,5.41s-7.52,7-11.37,10.37c-1.19,1-1.17,1.59,0,2.71,6.78,6.39,13.47,12.88,20.16,19.38a5,5,0,0,0,4.29,1.72c1.27-.15,2.58.09,3.84-.06,2-.23,2.72.43,2.57,2.51a76.23,76.23,0,0,0,0,8c0,1.36-.46,1.78-1.77,1.77-4.62,0-9.24,0-13.86,0a2.43,2.43,0,0,1-2-.93C489.48,106.76,480.75,99.59,472.22,91.83Z" transform="translate(0 0.01)"/><path class="b4f8f447-4311-4291-9dd1-01284322e2dc" d="M58.59,151.74a79.12,79.12,0,0,1-31.25-15.93,77.31,77.31,0,0,1-15.07-17,3.14,3.14,0,0,1-.85-2.09,135.53,135.53,0,0,0,14.06,3.75A174.12,174.12,0,0,0,75,122.56c11.88-1.09,23.52-3.22,34.71-7.45a1.6,1.6,0,0,1,2.28.77,103.81,103.81,0,0,1,10.61,20.71c.57,1.49,0,2.13-1.08,2.91a78.56,78.56,0,0,1-24.41,11.6c-1,.27-1.94.62-2.91.93A85.91,85.91,0,0,1,58.59,151.74Z" transform="translate(0 0.01)"/><path class="b4f8f447-4311-4291-9dd1-01284322e2dc" d="M40.15,80.68c15.73.1,29.63,2.76,42.63,9.37a77.45,77.45,0,0,1,21,15.87c1.28,1.34,1.22,1.88-.65,2.41a181.67,181.67,0,0,1-37.87,6.35c-14.35,1-28.27-1.28-41.89-5.67A30.51,30.51,0,0,1,13,103.46c-5.88-4.92-5.63-12.31.67-16.71,5-3.49,10.82-4.55,16.68-5.39A63.32,63.32,0,0,1,40.15,80.68Z" transform="translate(0 0.01)"/><path class="b4f8f447-4311-4291-9dd1-01284322e2dc" d="M548.34,95l7.48-22.24c2.12-6.31,4.27-12.62,6.3-19a2.34,2.34,0,0,1,2.68-1.95h0c4.7.1,9.41.09,14.12,0,1.46,0,1.94.43,1.89,1.89-.1,2.91-.07,5.82,0,8.73,0,1.32-.41,1.8-1.77,1.78-1.86,0-4.22-.8-5.47.32s-1.6,3.49-2.28,5.33q-12.42,33.77-24.76,67.58c-.7,1.93-1.6,2.64-3.66,2.5a82.5,82.5,0,0,0-9,0c-1.83.08-1.93-.56-1.41-2.07,2.38-6.94,4.63-13.92,7-20.85a5,5,0,0,0,0-3.45q-8.08-23.75-16-47.54c-.58-1.74-1.6-1.82-3.06-1.81-5,0-5.06,0-5-5.08,0-2.29-.75-5.32.41-6.69,1.36-1.6,4.49-.43,6.85-.52,2.73-.1,5.48.12,8.21-.07,2-.14,2.81.59,3.42,2.43Q541,74.75,547.87,95.12Z" transform="translate(0 0.01)"/><path class="b4f8f447-4311-4291-9dd1-01284322e2dc" d="M434.58,54.84c-.63-2.89.86-3,2.81-2.93,2.48.13,5,.1,7.44,0,1.42,0,2,.35,1.93,1.85-.08,5.73-.06,11.47,0,17.2,0,1.2-.35,1.66-1.6,1.63-3.17-.08-6.34-.09-9.5,0A3.63,3.63,0,0,1,433,71.26c-4.79-4.21-10-7.43-16.69-7.44-12,0-21.67,9.28-21.22,20.58.45,11.49,10.78,20.15,22.82,19.16a18.31,18.31,0,0,0,8.26-2.5,8.84,8.84,0,0,1,5.07-1.31c5,.09,9.93,0,14.9,0-2.87,12.26-24.84,21.1-40.58,16.38-18.71-5.6-29-25.77-22.43-43.85C389.57,54.78,411.68,42.68,434.58,54.84Z" transform="translate(0 0.01)"/><path class="b4f8f447-4311-4291-9dd1-01284322e2dc" d="M335.78,66.3v34.92c0,1.89.32,2.7,2.49,2.65,5.48-.13,5.53,0,5.46,5.57,0,2.11,1,4.85-.41,6.16s-4.08.37-6.2.38c-7.1,0-14.21,0-21.31.06-1.81,0-2.64-.29-2.49-2.35a74.6,74.6,0,0,0,0-8c0-1.37.24-2,1.8-2,1.94,0,4.49.89,5.67-.37s.4-3.91.4-5.94q0-27.09.07-54.17c0-2-.55-2.58-2.56-2.54-5.36.12-5.39,0-5.34-5.47,0-2.13-.9-4.87.37-6.21s4.06-.4,6.18-.43c4.45-.07,8.9.08,13.35-.07,2-.06,2.61.49,2.59,2.55C335.73,42.85,335.78,54.58,335.78,66.3Z" transform="translate(0 0.01)"/><path class="b4f8f447-4311-4291-9dd1-01284322e2dc" d="M371,78c0,7.87.06,15.74,0,23.62,0,1.83.52,2.28,2.29,2.25,5.37-.07,5.42,0,5.35,5.49,0,2.11,1,4.84-.43,6.18s-4.08.39-6.2.41c-6.84,0-13.69,0-20.53.06-1.83,0-2.37-.56-2.28-2.33.14-2.65.1-5.31,0-8,0-1.42.36-2,1.85-1.93,1.85,0,4.27.84,5.43-.35s.42-3.75.43-5.7c0-10.35,0-20.71.06-31.06,0-1.86-.39-2.5-2.38-2.46-5.36.1-5.42,0-5.33-5.28,0-2.27-1-5.28.51-6.59,1.33-1.12,4.24-.39,6.45-.4,4.19,0,8.39.08,12.58,0,1.75,0,2.32.38,2.3,2.23C370.89,62.08,371,70,371,78Z" transform="translate(0 0.01)"/><path class="b4f8f447-4311-4291-9dd1-01284322e2dc" d="M362.75,46.88A8.89,8.89,0,0,1,363,29.13c4.71.07,8.29,4,8.2,9S367.5,46.93,362.75,46.88Z" transform="translate(0 0.01)"/><path class="b4f8f447-4311-4291-9dd1-01284322e2dc" d="M305.8,149.55v14c0,.9.53,2.22-1.19,2.29-1.91.08-1.38-1.37-1.38-2.35,0-5.3,0-10.6,0-15.91,0-.93-.74-2.43,1.14-2.57,1.62-.12,3.1-.28,3.76,2,1.47,5,3.24,9.89,5.11,15.51C315.17,157,317,152,318.57,147c.52-1.64,1.39-2.07,3-2,1.24.07,1.61.52,1.6,1.7q0,8.72,0,17.45c0,1.08-.14,1.83-1.5,1.77s-1.4-1-1.4-1.94V150.34a5.09,5.09,0,0,0-1.42,2.73c-1.3,3.61-2.55,7.25-3.82,10.87-.33.94-.42,2-1.88,2s-1.59-1-1.92-2c-1.44-4.29-2.92-8.56-4.38-12.84C306.63,150.59,306.64,149.95,305.8,149.55Z" transform="translate(0 0.01)"/><path class="b4f8f447-4311-4291-9dd1-01284322e2dc" d="M208.86,152.58a18.39,18.39,0,0,1,2.56-1.66c3.36-1.48,6.57.39,6.77,4,.17,3.15,0,6.32,0,9.49,0,.91-.25,1.45-1.29,1.47s-1.53-.41-1.52-1.51V156c0-1.77-.47-3.11-2.45-3.19a3,3,0,0,0-3.4,2.54q0,.11,0,.22c-.25,2.63-.13,5.29-.25,7.93,0,1,.56,2.4-1.32,2.46s-1.36-1.36-1.38-2.35c-.05-2.48,0-5,0-7.44,0-1.67-.29-3.2-2.32-3.35a3.25,3.25,0,0,0-3.59,2.63c-.58,2.1-.18,4.25-.28,6.38v3.08c0,1-.65,1-1.39,1s-1.18-.22-1.18-1c0-4.44-.14-8.9.09-13.33.08-1.46,1.54-1.19,2.18-.28.51.72.64.6,1.28.26C204.69,149.81,206.24,150.06,208.86,152.58Z" transform="translate(0 0.01)"/><path class="b4f8f447-4311-4291-9dd1-01284322e2dc" d="M183.84,166.13c-4.66-.08-7.5-1.81-8.39-5-.21-.76-.71-1.71.58-2.1,1.09-.33,1.6.07,2.07,1.17,1.39,3.25,6.11,4.56,9.15,2.7a3.06,3.06,0,0,0,1.58-3,2.65,2.65,0,0,0-2-2.43c-1.78-.58-3.61-1-5.41-1.54-4-1.17-5.85-3.14-5.51-6,.37-3.06,3.3-5.22,7.18-5.3,3.65-.07,6.82,1.81,7.58,4.55.18.65.8,1.61-.46,1.84-.75.14-1.55.37-2.14-.75a5.58,5.58,0,0,0-7.44-2.64l-.06,0a2.72,2.72,0,0,0-1.87,2.51,2.29,2.29,0,0,0,1.8,2.51c1.88.56,3.79,1,5.67,1.57,4,1.17,5.78,3.34,5.44,6.37s-3.25,5.31-7.05,5.48Z" transform="translate(0 0.01)"/><path class="b4f8f447-4311-4291-9dd1-01284322e2dc" d="M578.47,164.6c-1.6.54-3,1.53-4.68,1.24a6.22,6.22,0,0,1-5.34-4.87c-.88-3.4-.58-6.73,2.25-9.17a5.54,5.54,0,0,1,7.11-.29c.79.52,1,.51,1.33-.43.22-.68,1-.41,1.59-.32s.68.69.66,1.21c-.12,4.86.28,9.73-.23,14.58a5.31,5.31,0,0,1-3.86,4.91,7.7,7.7,0,0,1-7.31-1,3.37,3.37,0,0,1-.94-1.19c-.32-.67-.8-1.6,0-2a1.56,1.56,0,0,1,2.14.55l.06.12c1.2,2.25,3.23,2.06,5.12,1.45C578.57,168.68,578.73,166.75,578.47,164.6Zm-7.71-6.19a6.09,6.09,0,0,0,.61,3.06,3.55,3.55,0,0,0,3.27,2.09,3.49,3.49,0,0,0,3.56-2,7.5,7.5,0,0,0,0-6.69,3.62,3.62,0,0,0-3.49-2.19,3.71,3.71,0,0,0-3.4,2.32,7.23,7.23,0,0,0-.55,3.41Z" transform="translate(0 0.01)"/><path class="b4f8f447-4311-4291-9dd1-01284322e2dc" d="M431.43,165.6c-2.35.84-3.36-.07-4-2-.46-1.4-.46-3.6-2-3.89a18.59,18.59,0,0,0-7.61.07c-1.57.39-1.46,2.87-2.12,4.41-.43,1-.73,1.86-2.09,1.78-1-.06-1.49-.22-1.06-1.33q3.61-9.31,7.18-18.64c.43-1.14,1.33-.81,2.13-.9,1.09-.13,1.49.56,1.83,1.41C426.23,152.78,428.79,159.09,431.43,165.6Zm-13.23-8.4H425l-3.47-9.46Z" transform="translate(0 0.01)"/><path class="b4f8f447-4311-4291-9dd1-01284322e2dc" d="M445.58,151.68v-5c0-1,.2-1.62,1.4-1.62s1.4.63,1.4,1.62v17.71c0,1.29-.71,2-1.69,1.44-1.34-.71-2.38-.33-3.57.13a4.33,4.33,0,0,1-1.52.13,5.89,5.89,0,0,1-5.8-4.22c-1.15-3.43-1-6.8,1.49-9.65,1.7-1.93,4.29-2.16,7.08-.94C444.66,151.38,445,151.46,445.58,151.68Zm-7.85,6.46c.13.78.22,1.54.38,2.28.44,2,1.53,3.51,3.74,3.54,2.37,0,3.42-1.6,3.91-3.67a8.47,8.47,0,0,0-.43-5,3.61,3.61,0,0,0-3.72-2.57,3.57,3.57,0,0,0-3.33,2.72,21,21,0,0,0-.56,2.68Z" transform="translate(0 0.01)"/><path class="b4f8f447-4311-4291-9dd1-01284322e2dc" d="M275.87,152.17a7.14,7.14,0,0,1,4-1.71c3.12-.18,5,1.34,5.44,4.46s.12,6.32.23,9.47c0,1.09-.39,1.54-1.5,1.52s-1.31-.79-1.3-1.71v-8c0-1.94-.7-3.36-2.87-3.52a3.63,3.63,0,0,0-3.93,3.31q0,.11,0,.21c-.14,2.64-.06,5.3,0,8,0,.92,0,1.7-1.29,1.71s-1.46-.57-1.46-1.59V146.63c0-1,.22-1.62,1.42-1.61s1.33.75,1.32,1.68C275.85,148.39,275.87,150.07,275.87,152.17Z" transform="translate(0 0.01)"/><path class="b4f8f447-4311-4291-9dd1-01284322e2dc" d="M351.26,151.43c.94.3,1.35-.28,1.88-.49a5.79,5.79,0,0,1,7.57,2.88,9.71,9.71,0,0,1,.07,8.65,6.1,6.1,0,0,1-7,3.5c-1.2-.29-2.24-2.1-3.75-.18-.43.55-1.3-.26-1.3-1.24q0-9.09,0-18.19c0-.78.21-1.29,1.15-1.31s1.36.45,1.35,1.39C351.25,148.13,351.26,149.83,351.26,151.43Zm7.91,7a19.26,19.26,0,0,0-.25-2c-.49-2-1.39-3.78-3.83-3.74s-3.35,1.64-3.87,3.73a8.66,8.66,0,0,0,.14,4.54,3.69,3.69,0,0,0,7.2.25,19.91,19.91,0,0,0,.62-2.78Z" transform="translate(0 0.01)"/><path class="b4f8f447-4311-4291-9dd1-01284322e2dc" d="M393.4,158.95c-1.28,0-2.57.07-3.84,0-2-.12-1.9.88-1.35,2.23,1.33,3.29,5.25,3.89,7.3,1,.84-1.2,1.79-1.53,2.71-.82s-.1,1.69-.57,2.35c-1.68,2.36-5,3.16-8.11,2-2.88-1-4.58-3.83-4.51-7.34.11-5.15,3-8.07,7.72-7.79A6.84,6.84,0,0,1,399,158v0c-.1.87-.57.93-1.19.93ZM392,156.8h2c.64,0,1.48.34,1.87-.33s-.14-1.48-.54-2.11a4.07,4.07,0,0,0-5.67-1l-.33.26c-.8.7-1.53,1.69-1.29,2.63.3,1.17,1.58.36,2.41.54A7.16,7.16,0,0,0,392,156.8Z" transform="translate(0 0.01)"/><path class="b4f8f447-4311-4291-9dd1-01284322e2dc" d="M479.65,158.95h-3.07c-.73,0-1.72-.38-2.14.33-.53.89.12,1.83.58,2.62a4.06,4.06,0,0,0,6.71.6c.28-.32.44-.73.7-1.07.6-.82,1.44-.51,2.08-.22,1,.42.36,1.14.07,1.72-1.67,3.32-7.11,4.3-10.33,1.87-2.61-2-3.53-6.42-2.1-10.12,1.15-3,3.88-4.47,7.46-4.09a7.1,7.1,0,0,1,5.82,7.33c-.12,1-.71,1-1.41,1Zm-1.23-2.15q1,0,2,0c.63-.06,1.47.37,1.84-.41s-.11-1.5-.56-2.13a4.05,4.05,0,0,0-6.41-.13c-.52.67-1.16,1.52-.79,2.3s1.37.3,2.09.37a16.1,16.1,0,0,0,1.84,0Z" transform="translate(0 0.01)"/><path class="b4f8f447-4311-4291-9dd1-01284322e2dc" d="M230.62,150.56c4.38,0,7.17,2.87,7.23,7.5.06,4.91-2.59,7.94-7,8s-7.23-2.91-7.22-7.78S226.28,150.59,230.62,150.56Zm4.38,7.8c0-2.4-.52-3.93-1.73-4.88a4.25,4.25,0,0,0-5.6.48c-1.77,1.91-1.69,7,.13,8.85a4.12,4.12,0,0,0,5.59.23C234.84,161.79,235,160.1,235,158.36Z" transform="translate(0 0.01)"/><path class="b4f8f447-4311-4291-9dd1-01284322e2dc" d="M242.54,158.21c0-4.79,2.66-7.65,7-7.65s7.17,3,7.17,7.59c0,5-2.76,8-7.37,7.92C245.11,166,242.52,163,242.54,158.21Zm11.36,0a6.89,6.89,0,0,0-.6-3.24,3.91,3.91,0,0,0-4.7-2.19c-2.12.44-3.41,2.5-3.41,5.4,0,2.42.51,4.72,3.13,5.63a3.89,3.89,0,0,0,4.85-1.87,6.41,6.41,0,0,0,.73-3.74Z" transform="translate(0 0.01)"/><path class="b4f8f447-4311-4291-9dd1-01284322e2dc" d="M328.84,158.36c0-4.82,2.56-7.76,6.88-7.8s7.2,2.81,7.32,7.44c.12,5-2.65,8.06-7.21,8.07C331.49,166.07,328.86,163.17,328.84,158.36Zm11.35.12c.08-2.08-.27-3.9-2-5.15a4.16,4.16,0,0,0-5.38.64c-1.82,1.94-1.86,6.54-.07,8.62a4,4,0,0,0,5.34.74,5.15,5.15,0,0,0,2.12-4.85Z" transform="translate(0 0.01)"/><path class="b4f8f447-4311-4291-9dd1-01284322e2dc" d="M528.8,166.1a5.49,5.49,0,0,1-5.44-2.7c-.38-.64-1.25-1.52-.07-2.16a1.44,1.44,0,0,1,2.26.79c1,2.11,2.88,2.21,4.83,1.82a2.12,2.12,0,0,0,1.94-2.07c0-1.14-.83-1.59-1.79-1.87-1.64-.49-3.29-.93-4.89-1.51a3.56,3.56,0,0,1-2.64-3.72,4,4,0,0,1,2.7-3.71c2.45-1,6.35-.45,7.71,1.22.56.68,1.44,1.61.49,2.4a1.46,1.46,0,0,1-2.35-.58,2.5,2.5,0,0,0-2.34-1.34c-1.44,0-3.24-.26-3.56,1.62s1.44,1.78,2.64,2.13l3.19,1c2,.63,3.58,1.75,3.6,4.1,0,2.08-1.87,4-4.28,4.47A16.07,16.07,0,0,1,528.8,166.1Z" transform="translate(0 0.01)"/><path class="b4f8f447-4311-4291-9dd1-01284322e2dc" d="M550.21,158.1v-5.9c0-1.79,1.39-2,2-1.16.91,1.23,1.3.57,2.08.17,4.12-2.12,7.88,0,8.09,4.63.13,2.81,0,5.64.08,8.46,0,1-.2,1.64-1.4,1.6s-1.21-.69-1.2-1.54c0-2.56.08-5.13,0-7.69-.12-2.81-1.19-4-3.3-4s-3.64,1.51-3.74,4,0,5,0,7.44c0,.9,0,1.71-1.27,1.72s-1.35-.69-1.34-1.65C550.23,162.2,550.21,160.15,550.21,158.1Z" transform="translate(0 0.01)"/><path class="b4f8f447-4311-4291-9dd1-01284322e2dc" d="M460.44,162.17c1.34-3.66,2.43-6.69,3.56-9.7.28-.75.35-1.74,1.54-1.77,1,0,1.79.09,1.29,1.4-1.62,4.22-3.26,8.44-4.85,12.67a1.61,1.61,0,0,1-1.77,1.12c-1,0-1.3-.6-1.59-1.38-1.46-3.92-3-7.81-4.41-11.74-.21-.59-1.34-1.59.2-2a1.72,1.72,0,0,1,2.32,1.35c.87,2.68,1.86,5.32,2.81,8C459.71,160.53,459.93,161,460.44,162.17Z" transform="translate(0 0.01)"/><path class="b4f8f447-4311-4291-9dd1-01284322e2dc" d="M265.54,145.86v2.79c0,.91-.13,2.14,1.48,2,.74,0,1.08.39,1.07,1.12a1,1,0,0,1-1.1,1.14c-1.33,0-1.46.86-1.44,1.9v6.41c0,1.18,0,2.26,1.67,2.29.93,0,1,.78,1,1.49,0,1-.77,1-1.46,1-2.39.22-3.77-.81-4-3.25-.17-2.21,0-4.44-.13-6.66-.06-1.24.65-2.85-1.32-3.4-.18,0-.25-.57-.33-.89-.35-1.38,1.51-.91,1.61-1.91a8.22,8.22,0,0,1,.36-2.74A2.83,2.83,0,0,1,265.54,145.86Z" transform="translate(0 0.01)"/><path class="b4f8f447-4311-4291-9dd1-01284322e2dc" d="M506.57,145.75V149c0,.94.09,1.88,1.46,1.75.72-.07,1.1.28,1.1,1s-.45,1.06-1.14,1c-1.43-.13-1.44.79-1.42,1.81v5.91c0,1.4-.4,3.06,1.92,3.13.82,0,.7.85.73,1.41s-.43.82-1,1a3.21,3.21,0,0,1-4.19-2.92c-.14-2.3,0-4.62-.11-6.93-.07-1.33.87-3.15-1.53-3.66-.5-.11-.49-1.4,0-1.49,1.91-.33,1.51-1.69,1.52-2.89C504,146.63,505.13,146.42,506.57,145.75Z" transform="translate(0 0.01)"/><path class="b4f8f447-4311-4291-9dd1-01284322e2dc" d="M491.2,158.33v-6.15c0-1.09.74-2,1.41-1.39,1.37,1.27,2.18.5,3.34-.09a3.83,3.83,0,0,1,2.25,0c.52.11,1.31.34.94,1.17-.27.59-.07,1.75-1.32,1.45-3.12-.76-3.72,1.4-3.94,3.63s-.08,4.61-.14,6.91c0,.87.33,2-1.21,2s-1.31-1-1.31-1.93Q491.19,161.15,491.2,158.33Z" transform="translate(0 0.01)"/><path class="b4f8f447-4311-4291-9dd1-01284322e2dc" d="M376.65,155.25v-8.43c0-.85-.12-1.73,1.19-1.79s1.41.84,1.41,1.83v17.37c0,1-.1,1.68-1.33,1.67s-1.29-.79-1.28-1.71C376.66,161.21,376.65,158.23,376.65,155.25Z" transform="translate(0 0.01)"/><path class="b4f8f447-4311-4291-9dd1-01284322e2dc" d="M514.37,158.2v-5.88c0-1,.13-1.64,1.35-1.67s1.54.67,1.53,1.76v11.76c0,1.06-.13,1.81-1.49,1.8s-1.4-.9-1.39-1.89C514.38,162.11,514.37,160.16,514.37,158.2Z" transform="translate(0 0.01)"/><path class="b4f8f447-4311-4291-9dd1-01284322e2dc" d="M367.46,158.09v-5.88c0-1,.32-1.57,1.46-1.57s1.43.59,1.42,1.6v12.27c0,.92-.32,1.42-1.33,1.44s-1.57-.35-1.55-1.47C367.49,162.35,367.46,160.22,367.46,158.09Z" transform="translate(0 0.01)"/><path class="b4f8f447-4311-4291-9dd1-01284322e2dc" d="M543.55,158.1v6.39c0,.94-.3,1.41-1.31,1.41s-1.31-.49-1.3-1.42V152c0-.82.27-1.25,1.17-1.27s1.44.24,1.42,1.28C543.52,154,543.55,156.06,543.55,158.1Z" transform="translate(0 0.01)"/><path class="b4f8f447-4311-4291-9dd1-01284322e2dc" d="M517.22,146.68c.1,1.12-.53,1.39-1.54,1.39-1.21,0-1.3-.72-1.32-1.65,0-1.13.54-1.41,1.56-1.41C517.13,145,517.28,145.68,517.22,146.68Z" transform="translate(0 0.01)"/><path class="b4f8f447-4311-4291-9dd1-01284322e2dc" d="M370.31,146.59c.11,1.07-.38,1.47-1.46,1.48s-1.39-.59-1.4-1.58.41-1.49,1.49-1.49S370.4,145.58,370.31,146.59Z" transform="translate(0 0.01)"/><path class="b4f8f447-4311-4291-9dd1-01284322e2dc" d="M543.55,146.57c.08.9-.15,1.44-1.22,1.47s-1.4-.57-1.39-1.56.17-1.43,1.24-1.45S543.66,145.58,543.55,146.57Z" transform="translate(0 0.01)"/></svg>