<?xml version="1.0" encoding="utf-8"?>
<!-- Generator: Adobe Illustrator 25.4.1, SVG Export Plug-In . SVG Version: 6.00 Build 0)  -->
<svg version="1.1" id="Layer_1" xmlns="http://www.w3.org/2000/svg" xmlns:xlink="http://www.w3.org/1999/xlink" x="0px" y="0px"
	 viewBox="0 0 68 57" style="enable-background:new 0 0 68 57;" xml:space="preserve">
<style type="text/css">
	.st0{fill:#D9D9D9;filter:url(#Adobe_OpacityMaskFilter);}
	.st1{mask:url(#mask0_969_625_00000165945519982040346980000014564144012151249030_);}
	.st2{fill:#FFFFFF;}
</style>
<defs>
	<filter id="Adobe_OpacityMaskFilter" filterUnits="userSpaceOnUse" x="0" y="19" width="67.6" height="20">
		<feColorMatrix  type="matrix" values="1 0 0 0 0  0 1 0 0 0  0 0 1 0 0  0 0 0 1 0"/>
	</filter>
</defs>
<mask maskUnits="userSpaceOnUse" x="0" y="19" width="67.6" height="20" id="mask0_969_625_00000165945519982040346980000014564144012151249030_">
	<rect class="st0" width="67.6" height="57"/>
</mask>
<g class="st1">
	<path class="st2" d="M0,28.6c-0.3-3.5,1.8-7.6,5.9-9c4-1.4,8.2,0.2,10.3,3.2c-0.2,0-0.4-0.1-0.6-0.1c-1.3-0.2-2.6-0.3-3.9-0.2
		c-1.5,0.1-2.9,0.2-4.3,0.6c-0.5,0.1-0.9,0.3-1.3,0.5c-0.2,0.1-0.3,0.2-0.4,0.4c-0.1,0.2-0.1,0.4,0.1,0.6c0.2,0.2,0.5,0.4,0.8,0.5
		c1.4,0.6,2.8,0.9,4.2,1.3c1.2,0.3,2.5,0.7,3.6,1.4c0.4,0.2,0.7,0.4,0.9,0.7c0.4,0.5,0.4,0.8,0.1,1.4c-0.3,0.5-0.8,0.8-1.3,1.1
		c-0.7,0.4-0.7,0.4-1.3-0.2c-1.3-1.2-2.9-2-4.6-2.5c-1.5-0.4-2.9-0.7-4.5-0.7c-1.3,0.1-2.5,0.3-3.6,1C0.1,28.5,0.1,28.5,0,28.6z"/>
	<path class="st2" d="M29.6,25.6c0.8-0.6,1.7-0.8,2.7-0.8c1,0,2,0.5,2.7,1.2c0.7,0.7,1.1,1.7,1.1,2.7c0,2.1-1.7,3.9-3.8,4
		c-0.9,0.1-1.7-0.2-2.5-0.6c-0.2-0.1-0.2-0.1-0.2,0.1c0,0.8,0,1.7,0,2.5c0,0.2-0.1,0.3-0.3,0.3c-0.6,0-1.1,0-1.7,0
		c-0.2,0-0.2,0-0.2-0.2c0-0.3,0-0.6,0-0.9c0-0.2,0-0.3,0.3-0.3c0.2,0,0.3-0.1,0.3-0.3c0-2.1,0-4.3,0-6.4c0-0.3-0.1-0.3-0.3-0.3
		c-0.2,0-0.3-0.1-0.3-0.3c0-0.3,0-0.6,0-0.9c0-0.2,0.1-0.3,0.3-0.3c0.5,0,1.1,0,1.6,0c0.2,0,0.3,0.1,0.3,0.3
		C29.6,25.4,29.6,25.5,29.6,25.6z M32.1,31.1c1.4,0,2.4-1,2.4-2.3c0-1.3-1.1-2.3-2.4-2.3c-1.3,0-2.4,1-2.4,2.3
		C29.6,30,30.7,31.1,32.1,31.1L32.1,31.1z"/>
	<path class="st2" d="M20.3,30.9c0-0.3,0-0.5,0-0.8c0-0.2,0-0.2,0.2-0.2c0.4,0,0.8,0,1.1,0c0.2,0,0.2,0.1,0.2,0.2
		c0,0.6,0,0.6,0.6,0.7c0.5,0.2,1,0.2,1.6,0.1c0.5-0.1,1-0.3,1.2-0.9c0.1-0.3,0.1-0.6,0-0.8c-0.1-0.3-0.3-0.5-0.5-0.7
		c-0.4-0.3-0.9-0.5-1.3-0.7c-0.8-0.3-1.6-0.7-2.2-1.4c-0.7-0.8-1-1.8-0.6-2.9c0.4-1,1.2-1.5,2.2-1.7c1.1-0.2,2.2,0,3.2,0.4
		c0.3,0.1,0.6,0.1,0.8,0.3c0.2,0.2,0,0.6,0.1,0.9c0,0.3,0,0.6,0,0.9c0,0.1,0,0.2-0.2,0.2c-0.4,0-0.8,0-1.2,0c-0.2,0-0.2-0.1-0.2-0.2
		c0-0.5,0-0.5-0.5-0.7c-0.5-0.2-1-0.2-1.5-0.1c-0.5,0.1-0.8,0.3-1,0.8c-0.1,0.2-0.1,0.5,0,0.7c0.1,0.2,0.2,0.4,0.4,0.6
		c0.4,0.3,0.8,0.5,1.2,0.7c0.6,0.2,1.2,0.5,1.7,0.9c1.3,0.8,1.7,2.2,1.4,3.5c-0.2,1.1-1.2,1.9-2.5,2.1c-1,0.1-2-0.1-2.9-0.3
		c-0.4-0.1-0.7-0.2-1.1-0.3c0,0-0.1,0-0.1,0c0,0-0.1,0-0.1-0.1c0,0,0-0.1,0-0.1c0,0,0-0.1,0-0.1C20.3,31.4,20.3,31.2,20.3,30.9z"/>
	<path class="st2" d="M12.4,24.3c0.8,1,3.7,1,4.7,0.1c1.6,2.7,0.5,8.3-2.1,10c-0.1-0.3-0.2-0.6-0.3-0.8c-0.2-0.5-0.4-1.1-0.7-1.5
		c-0.1-0.2-0.1-0.2,0.1-0.3c0.7-0.4,1.4-0.9,1.9-1.6c0.7-0.9,0.6-1.7-0.2-2.5c-0.7-0.7-1.6-1.1-2.5-1.4c-1.2-0.4-2.4-0.7-3.6-1.1
		c-0.7-0.2-1.4-0.5-2-0.8c-0.1-0.1-0.3-0.2-0.3-0.3c0-0.2,0.2-0.3,0.4-0.3c0.6-0.3,1.3-0.3,2-0.4c1.6-0.2,3.2-0.2,4.8-0.1
		c0.5,0,1,0.1,1.6,0.2c0.1,0,0.2,0.1,0.4,0.1c0.2,0.1,0.3,0.2,0.3,0.4c0,0.2-0.2,0.3-0.3,0.4c-0.4,0.2-0.9,0.2-1.3,0.2
		c-0.8,0-1.6-0.1-2.4-0.2C12.6,24.3,12.5,24.3,12.4,24.3z"/>
	<path class="st2" d="M54.9,29.7c0,0.8,0,1.6,0,2.5c0,0.3,0,0.4-0.3,0.3c-0.7,0-1.4,0-2,0c-0.2,0-0.2-0.1-0.2-0.2c0-0.3,0-0.7,0-1
		c0-0.2,0.1-0.2,0.2-0.2c0.2,0,0.5,0.1,0.7,0c0.1-0.1,0-0.5,0-0.7c0-2.1,0-4.2,0-6.3c0-0.2-0.1-0.3-0.3-0.3c-0.6,0-0.6,0-0.6-0.6
		c0-0.3-0.1-0.6,0-0.7c0.2-0.2,0.5,0,0.7-0.1c0.5,0,0.9,0,1.4,0c0.4,0,0.4,0,0.4,0.4v4.7c0.2-0.1,0.4-0.3,0.6-0.5
		c0.6-0.6,1.2-1.2,1.9-1.7c0,0,0.1-0.1,0.2-0.1c0.1,0,0.1,0,0.2,0c0.4,0,0.9,0,1.3,0c0.2,0,0.2,0,0.2,0.2c0,0.3,0,0.7,0,1
		c0,0.1,0,0.2-0.2,0.2c-0.6-0.1-1.1,0.2-1.5,0.6c-0.4,0.4-0.9,0.8-1.3,1.2c-0.1,0.1-0.1,0.2,0,0.3c0.8,0.7,1.6,1.5,2.3,2.3
		c0.1,0.1,0.1,0.1,0.2,0.2c0.1,0,0.2,0,0.3,0c0.1,0,0.3,0,0.4,0c0.2,0,0.3,0,0.3,0.3c0,0.3,0,0.6,0,0.9c0,0.2-0.1,0.2-0.2,0.2
		c-0.5,0-1.1,0-1.6,0c0,0-0.1,0-0.1,0c0,0-0.1,0-0.1-0.1C56.9,31.4,55.9,30.6,54.9,29.7z"/>
	<path class="st2" d="M6.8,36.6c-1.3-0.3-2.6-1-3.6-1.9c-0.7-0.6-1.3-1.2-1.8-2c-0.1-0.1-0.1-0.2-0.1-0.2C1.9,32.8,2.4,32.9,3,33
		c1.9,0.4,3.8,0.4,5.8,0.2c1.4-0.1,2.7-0.4,4-0.9c0,0,0,0,0.1,0c0,0,0.1,0,0.1,0c0,0,0,0,0.1,0c0,0,0,0,0,0.1
		c0.5,0.8,0.9,1.6,1.2,2.4c0.1,0.2,0,0.2-0.1,0.3c-0.9,0.6-1.8,1.1-2.8,1.3c-0.1,0-0.2,0.1-0.3,0.1C9.6,37,8.2,36.9,6.8,36.6z"/>
	<path class="st2" d="M4.7,28.4c1.8,0,3.4,0.3,5,1.1c0.9,0.5,1.7,1.1,2.4,1.8c0.1,0.2,0.1,0.2-0.1,0.3c-1.4,0.4-2.9,0.6-4.4,0.7
		c-1.7,0.1-3.3-0.1-4.9-0.7c-0.4-0.1-0.8-0.4-1.2-0.6c-0.7-0.6-0.7-1.4,0.1-1.9c0.6-0.4,1.3-0.5,1.9-0.6C3.9,28.4,4.3,28.4,4.7,28.4
		z"/>
	<path class="st2" d="M63.8,30l0.9-2.6c0.2-0.7,0.5-1.5,0.7-2.2c0,0,0-0.1,0-0.1c0,0,0-0.1,0.1-0.1c0,0,0.1,0,0.1,0c0,0,0.1,0,0.1,0
		c0.5,0,1.1,0,1.6,0c0.2,0,0.2,0.1,0.2,0.2c0,0.3,0,0.7,0,1c0,0.2,0,0.2-0.2,0.2c-0.2,0-0.5-0.1-0.6,0c-0.1,0.1-0.2,0.4-0.3,0.6
		c-1,2.6-1.9,5.2-2.9,7.9c-0.1,0.2-0.2,0.3-0.4,0.3c-0.3,0-0.7,0-1,0c-0.2,0-0.2-0.1-0.2-0.2c0.3-0.8,0.5-1.6,0.8-2.4
		c0-0.1,0-0.3,0-0.4c-0.6-1.8-1.2-3.7-1.9-5.5c-0.1-0.2-0.2-0.2-0.4-0.2c-0.6,0-0.6,0-0.6-0.6c0-0.3-0.1-0.6,0-0.8
		c0.2-0.2,0.5-0.1,0.8-0.1c0.3,0,0.6,0,1,0c0.2,0,0.3,0.1,0.4,0.3C62.7,26.9,63.2,28.5,63.8,30L63.8,30z"/>
	<path class="st2" d="M50.5,25.4C50.5,25,50.6,25,50.9,25c0.3,0,0.6,0,0.9,0c0.2,0,0.2,0,0.2,0.2c0,0.7,0,1.3,0,2
		c0,0.1,0,0.2-0.2,0.2c-0.4,0-0.7,0-1.1,0c-0.1,0-0.1,0-0.2,0c-0.1,0-0.1-0.1-0.1-0.1c-0.6-0.5-1.2-0.9-1.9-0.9
		c-1.4,0-2.5,1.1-2.5,2.4c0.1,1.3,1.3,2.3,2.7,2.2c0.3,0,0.7-0.1,1-0.3c0.2-0.1,0.4-0.2,0.6-0.2c0.6,0,1.2,0,1.7,0
		c-0.3,1.4-2.9,2.5-4.7,1.9c-2.2-0.7-3.4-3-2.6-5.1C45.3,25.4,47.9,24,50.5,25.4z"/>
	<path class="st2" d="M39.1,26.7v4.1c0,0.2,0,0.3,0.3,0.3c0.6,0,0.6,0,0.6,0.6c0,0.2,0.1,0.6,0,0.7c-0.2,0.2-0.5,0-0.7,0
		c-0.8,0-1.7,0-2.5,0c-0.2,0-0.3,0-0.3-0.3c0-0.3,0-0.6,0-0.9c0-0.2,0-0.2,0.2-0.2c0.2,0,0.5,0.1,0.7,0c0.1-0.1,0-0.5,0-0.7
		c0-2.1,0-4.2,0-6.3c0-0.2-0.1-0.3-0.3-0.3c-0.6,0-0.6,0-0.6-0.6c0-0.2-0.1-0.6,0-0.7c0.1-0.2,0.5,0,0.7-0.1c0.5,0,1,0,1.6,0
		c0.2,0,0.3,0.1,0.3,0.3C39,24,39.1,25.3,39.1,26.7z"/>
	<path class="st2" d="M43.1,28.1c0,0.9,0,1.8,0,2.7c0,0.2,0.1,0.3,0.3,0.3c0.6,0,0.6,0,0.6,0.6c0,0.2,0.1,0.6,0,0.7
		c-0.2,0.2-0.5,0-0.7,0c-0.8,0-1.6,0-2.4,0c-0.2,0-0.3-0.1-0.3-0.3c0-0.3,0-0.6,0-0.9c0-0.2,0-0.2,0.2-0.2c0.2,0,0.5,0.1,0.6,0
		c0.1-0.1,0-0.4,0-0.7c0-1.2,0-2.4,0-3.6c0-0.2,0-0.3-0.3-0.3c-0.6,0-0.6,0-0.6-0.6c0-0.3-0.1-0.6,0.1-0.8c0.2-0.1,0.5,0,0.8,0
		c0.5,0,1,0,1.5,0c0.2,0,0.3,0,0.3,0.3C43.1,26.2,43.1,27.1,43.1,28.1z"/>
	<path class="st2" d="M42.2,24.5c-0.3,0-0.5-0.1-0.7-0.3s-0.3-0.5-0.3-0.7c0-0.3,0.1-0.5,0.3-0.7c0.2-0.2,0.4-0.3,0.7-0.3
		c0.5,0,1,0.5,1,1C43.2,24,42.7,24.5,42.2,24.5z"/>
	<path class="st2" d="M35.6,36.4V38c0,0.1,0.1,0.3-0.1,0.3c-0.2,0-0.2-0.2-0.2-0.3c0-0.6,0-1.2,0-1.9c0-0.1-0.1-0.3,0.1-0.3
		c0.2,0,0.4,0,0.4,0.2c0.2,0.6,0.4,1.2,0.6,1.8c0.2-0.6,0.4-1.2,0.6-1.8c0.1-0.2,0.2-0.2,0.3-0.2c0.1,0,0.2,0.1,0.2,0.2
		c0,0.7,0,1.4,0,2c0,0.1,0,0.2-0.2,0.2c-0.2,0-0.2-0.1-0.2-0.2v-1.6c-0.1,0.1-0.1,0.2-0.2,0.3c-0.2,0.4-0.3,0.8-0.4,1.3
		c0,0.1,0,0.2-0.2,0.2s-0.2-0.1-0.2-0.2c-0.2-0.5-0.3-1-0.5-1.5C35.7,36.5,35.7,36.4,35.6,36.4z"/>
	<path class="st2" d="M24.3,36.7c0.1-0.1,0.2-0.1,0.3-0.2c0.4-0.2,0.8,0,0.8,0.5c0,0.4,0,0.7,0,1.1c0,0.1,0,0.2-0.2,0.2
		c-0.1,0-0.2,0-0.2-0.2v-1c0-0.2-0.1-0.4-0.3-0.4c0,0-0.1,0-0.1,0c0,0-0.1,0-0.1,0.1c0,0-0.1,0.1-0.1,0.1c0,0,0,0.1,0,0.1
		c0,0,0,0,0,0c0,0.3,0,0.6,0,0.9c0,0.1,0.1,0.3-0.2,0.3C24,38.3,24,38.1,24,38c0-0.3,0-0.6,0-0.9c0-0.2,0-0.4-0.3-0.4
		c-0.1,0-0.2,0-0.3,0.1c-0.1,0.1-0.1,0.1-0.1,0.2c-0.1,0.2,0,0.5,0,0.7v0.4c0,0.1-0.1,0.1-0.2,0.1c-0.1,0-0.1,0-0.1-0.1
		c0-0.5,0-1,0-1.6c0-0.2,0.2-0.1,0.3,0c0.1,0.1,0.1,0.1,0.1,0C23.8,36.4,24,36.5,24.3,36.7z"/>
	<path class="st2" d="M21.4,38.3c-0.5,0-0.9-0.2-1-0.6c0-0.1-0.1-0.2,0.1-0.2c0.1,0,0.2,0,0.2,0.1c0.2,0.4,0.7,0.5,1.1,0.3
		c0.1,0,0.1-0.1,0.1-0.1c0-0.1,0-0.1,0-0.2c0-0.1,0-0.1-0.1-0.2c0-0.1-0.1-0.1-0.2-0.1c-0.2-0.1-0.4-0.1-0.6-0.2
		c-0.5-0.1-0.7-0.4-0.6-0.7c0-0.4,0.4-0.6,0.8-0.6c0.4,0,0.8,0.2,0.9,0.5c0,0.1,0.1,0.2-0.1,0.2c-0.1,0-0.2,0-0.2-0.1
		c0-0.1-0.1-0.1-0.2-0.2s-0.1-0.1-0.2-0.1c-0.1,0-0.2,0-0.3,0c-0.1,0-0.2,0-0.2,0.1h0c-0.1,0-0.1,0.1-0.2,0.1c0,0.1-0.1,0.1-0.1,0.2
		c0,0.1,0,0.1,0,0.2c0,0.1,0.1,0.1,0.2,0.1c0.2,0.1,0.4,0.1,0.7,0.2c0.5,0.1,0.7,0.4,0.6,0.7C22.2,38,21.9,38.3,21.4,38.3L21.4,38.3
		z"/>
	<path class="st2" d="M67.3,38.1c-0.2,0.1-0.3,0.2-0.5,0.1c-0.1,0-0.3-0.1-0.4-0.2c-0.1-0.1-0.2-0.2-0.2-0.4
		c-0.1-0.4-0.1-0.8,0.3-1.1c0.1-0.1,0.3-0.2,0.4-0.2c0.2,0,0.3,0,0.4,0.1c0.1,0.1,0.1,0.1,0.2,0c0-0.1,0.1,0,0.2,0
		c0.1,0,0.1,0.1,0.1,0.1c0,0.6,0,1.1,0,1.7c0,0.1-0.1,0.3-0.1,0.4c-0.1,0.1-0.2,0.2-0.3,0.2C67,39,66.8,39,66.7,39
		c-0.1,0-0.3-0.1-0.4-0.2c0,0-0.1-0.1-0.1-0.1c0-0.1-0.1-0.2,0-0.2c0,0,0,0,0.1,0c0,0,0,0,0.1,0c0,0,0,0,0.1,0c0,0,0,0,0,0.1l0,0
		c0.1,0.3,0.4,0.2,0.6,0.2C67.3,38.6,67.3,38.4,67.3,38.1z M66.4,37.4c0,0.1,0,0.2,0.1,0.4c0,0.1,0.1,0.1,0.2,0.2
		c0.1,0,0.1,0.1,0.2,0.1c0.1,0,0.2,0,0.2,0c0.1,0,0.1-0.1,0.2-0.2c0.1-0.1,0.1-0.3,0.1-0.4c0-0.1,0-0.3-0.1-0.4
		c0-0.1-0.1-0.1-0.2-0.2c-0.1,0-0.2-0.1-0.2-0.1c-0.1,0-0.2,0-0.2,0.1c-0.1,0-0.1,0.1-0.2,0.2C66.4,37.2,66.4,37.3,66.4,37.4z"/>
	<path class="st2" d="M50.2,38.3c-0.3,0.1-0.4,0-0.5-0.2c-0.1-0.2-0.1-0.4-0.2-0.5c-0.3-0.1-0.6-0.1-0.9,0c-0.2,0-0.2,0.3-0.2,0.5
		c-0.1,0.1-0.1,0.2-0.2,0.2c-0.1,0-0.2,0-0.1-0.2c0.3-0.7,0.6-1.4,0.8-2.2c0-0.1,0.2-0.1,0.2-0.1c0.1,0,0.2,0.1,0.2,0.2
		C49.6,36.8,49.9,37.5,50.2,38.3z M48.6,37.3h0.8L49,36.2L48.6,37.3z"/>
	<path class="st2" d="M51.8,36.6v-0.6c0-0.1,0-0.2,0.2-0.2c0.1,0,0.2,0.1,0.2,0.2v2.1c0,0.1-0.1,0.2-0.2,0.2c-0.2-0.1-0.3,0-0.4,0
		c-0.1,0-0.1,0-0.2,0c-0.2,0-0.3,0-0.4-0.1c-0.1-0.1-0.2-0.2-0.3-0.4c-0.1-0.4-0.1-0.8,0.2-1.1c0.2-0.2,0.5-0.3,0.8-0.1
		C51.7,36.6,51.8,36.6,51.8,36.6z M50.9,37.4c0,0.1,0,0.2,0,0.3c0.1,0.2,0.2,0.4,0.4,0.4c0.3,0,0.4-0.2,0.5-0.4c0-0.2,0-0.4-0.1-0.6
		c0-0.1-0.1-0.2-0.2-0.2c-0.1-0.1-0.2-0.1-0.3-0.1c-0.1,0-0.2,0-0.2,0.1C51,36.9,51,37,51,37.1C50.9,37.2,50.9,37.3,50.9,37.4
		L50.9,37.4z"/>
	<path class="st2" d="M32.1,36.7c0.1-0.1,0.3-0.2,0.5-0.2c0.4,0,0.6,0.2,0.6,0.5c0.1,0.4,0,0.7,0,1.1c0,0.1,0,0.2-0.2,0.2
		c-0.1,0-0.2-0.1-0.2-0.2v-0.9c0-0.2-0.1-0.4-0.3-0.4c-0.1,0-0.1,0-0.2,0c-0.1,0-0.1,0-0.1,0.1c0,0-0.1,0.1-0.1,0.1c0,0,0,0.1,0,0.2
		c0,0,0,0,0,0c0,0.3,0,0.6,0,0.9c0,0.1,0,0.2-0.2,0.2c-0.1,0-0.2-0.1-0.2-0.2v-2.1c0-0.1,0-0.2,0.2-0.2c0.1,0,0.2,0.1,0.2,0.2
		C32.1,36.3,32.1,36.5,32.1,36.7z"/>
	<path class="st2" d="M40.9,36.6c0.1,0,0.2,0,0.2-0.1c0.2-0.1,0.3-0.1,0.5,0c0.2,0.1,0.3,0.2,0.4,0.3c0.1,0.2,0.1,0.3,0.1,0.5
		c0,0.2,0,0.3-0.1,0.5c-0.1,0.2-0.2,0.3-0.3,0.4c-0.1,0.1-0.3,0.1-0.5,0.1c-0.1,0-0.3-0.2-0.4,0c-0.1,0.1-0.2,0-0.2-0.1
		c0-0.7,0-1.4,0-2.1c0-0.1,0-0.2,0.1-0.2c0.1,0,0.2,0.1,0.2,0.2C40.8,36.2,40.9,36.4,40.9,36.6z M41.8,37.4c0-0.1,0-0.2,0-0.2
		c-0.1-0.2-0.2-0.4-0.4-0.4c-0.3,0-0.4,0.2-0.5,0.4c0,0.2,0,0.4,0,0.5c0,0.1,0.1,0.2,0.1,0.2c0.1,0.1,0.2,0.1,0.3,0.1
		c0.1,0,0.2,0,0.3-0.1c0.1-0.1,0.1-0.1,0.2-0.2C41.7,37.6,41.8,37.5,41.8,37.4L41.8,37.4z"/>
	<path class="st2" d="M45.8,37.5c-0.1,0-0.3,0-0.4,0c-0.2,0-0.2,0.1-0.2,0.3c0.2,0.4,0.6,0.5,0.8,0.1c0.1-0.1,0.2-0.2,0.3-0.1
		c0.1,0.1,0,0.2-0.1,0.3c-0.2,0.3-0.6,0.4-0.9,0.2c-0.3-0.1-0.5-0.4-0.5-0.9c0-0.6,0.3-0.9,0.9-0.9c0.1,0,0.2,0,0.3,0.1
		c0.1,0,0.2,0.1,0.2,0.2s0.1,0.2,0.2,0.3c0,0.1,0,0.2,0,0.3c0,0.1-0.1,0.1-0.1,0.1L45.8,37.5z M45.6,37.2h0.2c0.1,0,0.2,0,0.2,0
		c0-0.1,0-0.2-0.1-0.2c0-0.1-0.1-0.1-0.1-0.1c-0.1,0-0.1-0.1-0.2-0.1c-0.1,0-0.1,0-0.2,0c-0.1,0-0.1,0-0.2,0.1l0,0
		c-0.1,0.1-0.2,0.2-0.2,0.3c0,0.1,0.2,0,0.3,0.1C45.5,37.2,45.5,37.2,45.6,37.2z"/>
	<path class="st2" d="M55.8,37.5h-0.4c-0.1,0-0.2,0-0.2,0c-0.1,0.1,0,0.2,0.1,0.3c0,0.1,0.1,0.1,0.2,0.2c0.1,0,0.1,0.1,0.2,0.1
		c0.1,0,0.2,0,0.2,0c0.1,0,0.1-0.1,0.2-0.1c0,0,0.1-0.1,0.1-0.1c0.1-0.1,0.2-0.1,0.2,0c0.1,0,0,0.1,0,0.2c-0.2,0.4-0.8,0.5-1.2,0.2
		c-0.3-0.2-0.4-0.7-0.2-1.2c0.1-0.3,0.5-0.5,0.9-0.5c0.2,0,0.4,0.1,0.5,0.3c0.1,0.2,0.2,0.4,0.2,0.6c0,0.1-0.1,0.1-0.2,0.1
		L55.8,37.5z M55.6,37.2c0.1,0,0.2,0,0.2,0c0.1,0,0.2,0,0.2,0c0-0.1,0-0.2-0.1-0.2c0-0.1-0.1-0.1-0.2-0.1c-0.1,0-0.1-0.1-0.2-0.1
		c-0.1,0-0.1,0-0.2,0c-0.1,0-0.1,0.1-0.2,0.1c-0.1,0.1-0.1,0.2-0.1,0.3c0,0.1,0.2,0,0.2,0C55.5,37.2,55.6,37.2,55.6,37.2L55.6,37.2z
		"/>
	<path class="st2" d="M26.8,36.5c0.5,0,0.8,0.3,0.8,0.9c0,0.6-0.3,0.9-0.8,0.9c-0.5,0-0.8-0.3-0.8-0.9C26,36.8,26.3,36.5,26.8,36.5z
		 M27.3,37.4c0-0.3-0.1-0.5-0.2-0.6c-0.1-0.1-0.2-0.1-0.3-0.1c-0.1,0-0.2,0.1-0.3,0.2c-0.2,0.2-0.2,0.8,0,1c0.1,0.1,0.2,0.1,0.3,0.1
		c0.1,0,0.2,0,0.3-0.1C27.3,37.8,27.3,37.6,27.3,37.4z"/>
	<path class="st2" d="M28.2,37.4c0-0.6,0.3-0.9,0.8-0.9c0.5,0,0.8,0.3,0.8,0.9c0,0.6-0.3,0.9-0.9,0.9C28.5,38.3,28.2,38,28.2,37.4z
		 M29.5,37.4c0-0.1,0-0.3-0.1-0.4c0-0.1-0.1-0.2-0.2-0.2c-0.1,0-0.2-0.1-0.3,0c-0.2,0.1-0.4,0.3-0.4,0.6c0,0.3,0.1,0.5,0.4,0.7
		c0.1,0,0.2,0,0.3,0c0.1,0,0.2-0.1,0.2-0.2C29.5,37.7,29.5,37.6,29.5,37.4L29.5,37.4z"/>
	<path class="st2" d="M38.2,37.4c0-0.6,0.3-0.9,0.8-0.9c0.5,0,0.8,0.3,0.9,0.9c0,0.6-0.3,0.9-0.8,0.9C38.6,38.3,38.2,38,38.2,37.4z
		 M39.6,37.4c0-0.2,0-0.5-0.2-0.6c-0.1-0.1-0.2-0.1-0.3-0.1c-0.1,0-0.2,0.1-0.3,0.2c-0.2,0.2-0.2,0.8,0,1c0.1,0.1,0.2,0.1,0.3,0.2
		s0.2,0,0.3-0.1c0.1-0.1,0.2-0.1,0.2-0.2C39.6,37.6,39.6,37.5,39.6,37.4L39.6,37.4z"/>
	<path class="st2" d="M61.5,38.3c-0.1,0-0.3,0-0.4-0.1c-0.1-0.1-0.2-0.1-0.3-0.3c0-0.1-0.1-0.2,0-0.3c0,0,0,0,0.1,0s0.1,0,0.1,0
		c0,0,0,0,0.1,0c0,0,0,0,0,0.1c0.1,0.2,0.3,0.3,0.6,0.2c0.1,0,0.1,0,0.2-0.1c0,0,0.1-0.1,0.1-0.2c0-0.1-0.1-0.2-0.2-0.2
		c-0.2-0.1-0.4-0.1-0.6-0.2c-0.1,0-0.2-0.1-0.2-0.2c-0.1-0.1-0.1-0.2-0.1-0.3c0-0.1,0-0.2,0.1-0.3c0.1-0.1,0.1-0.1,0.2-0.2
		c0.3-0.1,0.7-0.1,0.9,0.1c0.1,0.1,0.2,0.2,0.1,0.3c0,0,0,0-0.1,0c0,0-0.1,0-0.1,0c0,0-0.1,0-0.1,0c0,0,0,0,0-0.1
		c0,0-0.1-0.1-0.1-0.1c0,0-0.1,0-0.2,0c-0.2,0-0.4,0-0.4,0.2c0,0.2,0.2,0.2,0.3,0.2l0.4,0.1c0.2,0.1,0.4,0.2,0.4,0.5
		c0,0.2-0.2,0.5-0.5,0.5C61.7,38.3,61.6,38.3,61.5,38.3z"/>
	<path class="st2" d="M64,37.4v-0.7c0-0.2,0.2-0.2,0.2-0.1c0.1,0.1,0.2,0.1,0.2,0c0.5-0.2,0.9,0,0.9,0.5c0,0.3,0,0.7,0,1
		c0,0.1,0,0.2-0.2,0.2c-0.1,0-0.1-0.1-0.1-0.2c0-0.3,0-0.6,0-0.9c0-0.3-0.1-0.5-0.4-0.5s-0.4,0.2-0.4,0.5c0,0.3,0,0.6,0,0.9
		c0,0.1,0,0.2-0.1,0.2c-0.1,0-0.2-0.1-0.2-0.2C64,37.9,64,37.6,64,37.4z"/>
	<path class="st2" d="M53.5,37.9c0.2-0.4,0.3-0.8,0.4-1.1c0-0.1,0-0.2,0.2-0.2c0.1,0,0.2,0,0.2,0.2c-0.2,0.5-0.4,1-0.6,1.5
		c0,0,0,0.1-0.1,0.1c0,0-0.1,0-0.1,0c-0.1,0-0.2-0.1-0.2-0.2c-0.2-0.5-0.3-0.9-0.5-1.4c0-0.1-0.2-0.2,0-0.2c0,0,0.1,0,0.1,0
		c0,0,0.1,0,0.1,0c0,0,0,0,0.1,0.1c0,0,0,0.1,0,0.1c0.1,0.3,0.2,0.6,0.3,0.9C53.5,37.7,53.5,37.7,53.5,37.9z"/>
	<path class="st2" d="M30.9,36v0.3c0,0.1,0,0.2,0.2,0.2c0.1,0,0.1,0,0.1,0.1c0,0,0,0,0,0.1c0,0,0,0,0,0c0,0,0,0,0,0c0,0,0,0-0.1,0
		c-0.2,0-0.2,0.1-0.2,0.2v0.7c0,0.1,0,0.3,0.2,0.3c0.1,0,0.1,0.1,0.1,0.2c0,0.1-0.1,0.1-0.2,0.1c-0.3,0-0.4-0.1-0.5-0.4
		c0-0.3,0-0.5,0-0.8c0-0.1,0.1-0.3-0.2-0.4c0,0,0-0.1,0-0.1c0-0.2,0.2-0.1,0.2-0.2c0-0.1,0-0.2,0-0.3c0,0,0.1-0.1,0.1-0.1
		C30.8,36,30.8,36,30.9,36z"/>
	<path class="st2" d="M58.9,36v0.4c0,0.1,0,0.2,0.2,0.2c0.1,0,0.1,0,0.1,0.1c0,0.1-0.1,0.1-0.1,0.1c-0.2,0-0.2,0.1-0.2,0.2v0.7
		c0,0.2,0,0.4,0.2,0.4c0.1,0,0.1,0.1,0.1,0.2c0,0.1,0,0.1-0.1,0.1c-0.1,0-0.1,0-0.2,0c-0.1,0-0.1,0-0.2-0.1c0,0-0.1-0.1-0.1-0.1
		c0-0.1,0-0.1,0-0.2c0-0.3,0-0.5,0-0.8c0-0.2,0.1-0.4-0.2-0.4c-0.1,0-0.1-0.2,0-0.2c0.2,0,0.2-0.2,0.2-0.3
		C58.6,36.1,58.7,36,58.9,36z"/>
	<path class="st2" d="M57.1,37.4v-0.7c0-0.1,0.1-0.2,0.2-0.2c0.2,0.1,0.3,0.1,0.4,0c0.1,0,0.2,0,0.3,0c0.1,0,0.2,0,0.1,0.1
		c0,0.1,0,0.2-0.2,0.2c-0.4-0.1-0.4,0.2-0.5,0.4c0,0.3,0,0.5,0,0.8c0,0.1,0,0.2-0.1,0.2s-0.2-0.1-0.2-0.2
		C57.1,37.9,57.1,37.6,57.1,37.4z"/>
	<path class="st2" d="M43.8,37.1v-1c0-0.1,0-0.2,0.1-0.2c0.2,0,0.2,0.1,0.2,0.2v2c0,0.1,0,0.2-0.2,0.2c-0.1,0-0.1-0.1-0.1-0.2
		C43.8,37.7,43.8,37.4,43.8,37.1z"/>
	<path class="st2" d="M59.8,37.4v-0.7c0-0.1,0-0.2,0.2-0.2c0.1,0,0.2,0.1,0.2,0.2v1.4c0,0.1,0,0.2-0.2,0.2c-0.2,0-0.2-0.1-0.2-0.2
		C59.8,37.9,59.8,37.6,59.8,37.4z"/>
	<path class="st2" d="M42.7,37.4v-0.7c0-0.1,0-0.2,0.2-0.2c0.1,0,0.2,0.1,0.2,0.2v1.4c0,0.1,0,0.2-0.2,0.2c-0.1,0-0.2,0-0.2-0.2
		C42.7,37.9,42.7,37.6,42.7,37.4z"/>
	<path class="st2" d="M63.2,37.4v0.7c0,0.1,0,0.2-0.2,0.2c-0.1,0-0.2-0.1-0.2-0.2v-1.5c0-0.1,0-0.1,0.1-0.1c0.1,0,0.2,0,0.2,0.1
		C63.2,36.9,63.2,37.2,63.2,37.4z"/>
	<path class="st2" d="M60.2,36.1c0,0.1-0.1,0.2-0.2,0.2c-0.1,0-0.2-0.1-0.2-0.2c0-0.1,0.1-0.2,0.2-0.2
		C60.1,35.9,60.2,35.9,60.2,36.1z"/>
	<path class="st2" d="M43.1,36.1c0,0.1,0,0.2-0.2,0.2c-0.1,0-0.2-0.1-0.2-0.2c0-0.1,0-0.2,0.2-0.2S43.1,35.9,43.1,36.1z"/>
	<path class="st2" d="M63.2,36c0,0.1,0,0.2-0.1,0.2c-0.1,0-0.2-0.1-0.2-0.2c0-0.1,0-0.2,0.1-0.2C63.2,35.9,63.2,35.9,63.2,36z"/>
</g>
</svg>
