<svg width="35" height="30" viewBox="0 0 35 30" fill="none" xmlns="http://www.w3.org/2000/svg">
<path d="M32.8125 1.09375H30.0781V0.546875C30.0781 0.246092 29.832 0 29.5312 0C29.2305 0 28.9844 0.246092 28.9844 0.546875V1.09375H6.01562V0.546875C6.01562 0.246092 5.76953 0 5.46875 0C5.16797 0 4.92188 0.246092 4.92188 0.546875V1.09375H2.1875C0.984375 1.09375 0 2.07812 0 3.28125V20.7812C0 21.9844 0.984375 22.9688 2.1875 22.9688H14.2188V28.9062H6.01545C5.71467 28.9062 5.46858 29.1523 5.46858 29.4531C5.46858 29.7539 5.71467 30 6.01545 30H28.9842C29.285 30 29.5311 29.7539 29.5311 29.4531C29.5311 29.1523 29.285 28.9062 28.9842 28.9062H20.7809V22.9688H32.8121C34.0153 22.9688 34.9996 21.9844 34.9996 20.7812V3.28125C34.9996 2.07812 34.0156 1.09375 32.8125 1.09375ZM30.2969 4.92205C30.4883 4.92205 30.625 5.05877 30.625 5.19549C30.625 5.33221 30.4609 5.46892 30.2969 5.46892H28.793C28.6016 5.46892 28.4648 5.33221 28.4648 5.19549C28.4648 5.05877 28.6289 4.92205 28.793 4.92205H30.2969ZM6.23438 4.92205C6.42578 4.92205 6.5625 5.05877 6.5625 5.19549C6.5625 5.33221 6.39844 5.46892 6.23438 5.46892H4.73046C4.53905 5.46892 4.40234 5.33221 4.40234 5.19549C4.40234 5.05877 4.5664 4.92205 4.73046 4.92205H6.23438ZM19.6877 28.9062H15.3127V22.9688H19.6877V28.9062ZM33.9064 20.7812C33.9064 21.3828 33.4143 21.875 32.8127 21.875H2.18767C1.5861 21.875 1.09392 21.3828 1.09392 20.7812V3.28125C1.09392 2.67967 1.5861 2.1875 2.18767 2.1875H4.92205V3.82812H4.7033C3.91034 3.82812 3.28142 4.4297 3.28142 5.19529C3.28142 5.96089 3.93767 6.56247 4.7033 6.56247H6.20721C7.00017 6.56247 7.62909 5.96089 7.62909 5.19529C7.62909 4.4297 6.97284 3.82812 6.20721 3.82812H6.01581V2.1875H28.9846V3.82812H28.7658C27.9728 3.82812 27.3439 4.4297 27.3439 5.19529C27.3439 5.96089 28.0002 6.56247 28.7658 6.56247H30.2697C31.0627 6.56247 31.6916 5.96089 31.6916 5.19529C31.6916 4.4297 31.0353 3.82812 30.2697 3.82812H30.0783V2.1875H32.8127C33.4143 2.1875 33.9064 2.67967 33.9064 3.28125L33.9064 20.7812Z" fill="#035FD2"/>
<path d="M31.172 7.65625H19.4141C19.1133 7.65625 18.8672 7.90234 18.8672 8.20312C18.8672 8.50391 19.1133 8.75 19.4141 8.75H31.172C31.4727 8.75 31.7188 8.50391 31.7188 8.20312C31.7188 7.90234 31.4727 7.65625 31.172 7.65625Z" fill="#035FD2"/>
<path d="M31.172 9.84375H19.4141C19.1133 9.84375 18.8672 10.0898 18.8672 10.3906C18.8672 10.6914 19.1133 10.9375 19.4141 10.9375H31.172C31.4727 10.9375 31.7188 10.6914 31.7188 10.3906C31.7188 10.0898 31.4727 9.84375 31.172 9.84375Z" fill="#035FD2"/>
<path d="M31.172 12.0312H19.4141C19.1133 12.0312 18.8672 12.2773 18.8672 12.5781C18.8672 12.8789 19.1133 13.125 19.4141 13.125H31.172C31.4727 13.125 31.7188 12.8789 31.7188 12.5781C31.7188 12.2773 31.4727 12.0312 31.172 12.0312Z" fill="#035FD2"/>
<path d="M31.172 14.2188H19.4141C19.1133 14.2188 18.8672 14.4648 18.8672 14.7656C18.8672 15.0664 19.1133 15.3125 19.4141 15.3125H31.172C31.4727 15.3125 31.7188 15.0664 31.7188 14.7656C31.7188 14.4648 31.4727 14.2188 31.172 14.2188Z" fill="#035FD2"/>
<path d="M31.172 16.4062H19.4141C19.1133 16.4062 18.8672 16.6523 18.8672 16.9531C18.8672 17.2539 19.1133 17.5 19.4141 17.5H31.172C31.4727 17.5 31.7188 17.2539 31.7188 16.9531C31.7188 16.6523 31.4727 16.4062 31.172 16.4062Z" fill="#035FD2"/>
<path d="M31.172 18.5938H19.4141C19.1133 18.5938 18.8672 18.8398 18.8672 19.1406C18.8672 19.4414 19.1133 19.6875 19.4141 19.6875H31.172C31.4727 19.6875 31.7188 19.4414 31.7188 19.1406C31.7188 18.8398 31.4727 18.5938 31.172 18.5938Z" fill="#035FD2"/>
<path d="M14.4921 7.65625H5.46875C4.26563 7.65625 3.28125 8.64062 3.28125 9.84375V18.5938C3.28125 19.7969 4.26563 20.7812 5.46875 20.7812H14.4921C15.6952 20.7812 16.6796 19.7969 16.6796 18.5938V9.84375C16.6796 8.64062 15.6952 7.65625 14.4921 7.65625ZM15.5858 18.5938C15.5858 19.1953 15.0937 19.6875 14.4921 19.6875H5.46875C4.86717 19.6875 4.375 19.1953 4.375 18.5938V9.84375C4.375 9.24217 4.86717 8.75 5.46875 8.75H14.4921C15.0937 8.75 15.5858 9.24217 15.5858 9.84375V18.5938Z" fill="#035FD2"/>
</svg>
