<?xml version="1.0" encoding="utf-8"?>
<!-- Generator: Adobe Illustrator 22.1.0, SVG Export Plug-In . SVG Version: 6.00 Build 0)  -->
<svg version="1.1" id="Layer_1" xmlns="http://www.w3.org/2000/svg" xmlns:xlink="http://www.w3.org/1999/xlink" x="0px" y="0px"
	 viewBox="0 0 904.8 260.5" style="enable-background:new 0 0 904.8 260.5;" xml:space="preserve">
<style type="text/css">
	.st0{fill:#FFFFFF;}
	.st1{clip-path:url(#SVGID_2_);}
	.st2{clip-path:url(#SVGID_4_);}
</style>
<title>stingray_white</title>
<path class="st0" d="M337.2,102.1H363v72.5h17.3v-72.5h25.6V85.9h-68.7"/>
<path class="st0" d="M423.8,174.6h17.6V85.9h-17.6V174.6z"/>
<path class="st0" d="M525.8,143.8l-43.3-57.9h-16.8v88.7h17.3v-57.8l43.4,57.8h16.8V85.9h-17.3"/>
<path class="st0" d="M613.8,144.7h16.5c-2.9,9.9-11.1,15.5-22.9,15.5c-19.8,0-28.8-15.4-28.8-29.7c0-14.7,9.7-30.3,27.8-30.3
	c10.2,0,18.6,5.2,20.5,12.6l0.7,2.5h17.2l-0.6-3.8c-2.4-16-18.4-27.6-38-27.6c-29.3,0-45,24-45,46.6c0,22.8,15.8,45.9,46,45.9
	c21.3,0,37.1-12.1,41.4-31.8h9.4v-16.2h-44.1"/>
<path class="st0" d="M885.7,85.9l-17.6,34.9l-21.9-34.9h-20.2l33.1,53l-18,35.7h19.1l44.6-88.7"/>
<path class="st0" d="M706.7,128.9h-17v-26.8h16.8c7.4,0.2,13.3,6.3,13.1,13.7C719.5,122.9,713.8,128.6,706.7,128.9 M721.6,140.9
	c14-8.4,18.6-26.6,10.2-40.6c-5.3-8.8-14.8-14.3-25.1-14.4h-34.3v88.5h17.2v-29.3h14.4l13.5,29.4H737"/>
<path class="st0" d="M778.6,140.3l9.3-28.2l9.3,28.2H778.6z M795.8,86.6l-0.3-0.8h-15.3l-30.7,88.7h18.8l6.6-19.8h26l6.6,19.8h18.8"
	/>
<path class="st0" d="M304.5,123.6l-16-3.7c-6.6-1.6-9.9-4.6-9.9-9.6c0-6.3,5.6-10.3,13.8-10.3c9.1,0,14.1,4.6,16.2,10.4h18.2
	C323.9,95.6,312.4,85,292.4,85c-18.4,0-31.5,11.1-31.5,27c0,14.4,9.7,21.1,22.3,24l15.7,3.6c7.6,1.7,10.7,4.6,10.7,9.9
	c0,7-5.9,11-14.7,11c-8.6,0-15-3.6-17.4-11.3h-18.9c3,16.7,16.9,26.4,36.4,26.4c18.6,0,32.6-10.3,32.6-27.3
	C327.5,135,318.8,126.9,304.5,123.6"/>
<path class="st0" d="M112.3,0c0.9,12.7,10.5,78,58.3,138.1c10.7,13.3,22.8,25.4,36.1,36.2l-94.4,86.2l-94.5-86.2
	c13.3-10.8,25.3-22.9,36.1-36.2C101.8,78.1,111.3,12.7,112.3,0"/>
<path class="st0" d="M224.5,81L112.3,0l0,0L0,81c20.1,16.9,38.2,36.1,53.9,57.1l0,0c47,63,57.4,108.5,58.3,122.4l0,0
	c1-13.9,11.4-59.4,58.4-122.4l0,0C186.3,117,204.4,97.9,224.5,81"/>
<g>
	<defs>
		<path id="SVGID_1_" d="M17.8,174.3l94.4,86.2c-1-13.9-11.4-59.4-58.4-122.4l0,0C43.1,151.4,31.1,163.5,17.8,174.3"/>
	</defs>
	<use xlink:href="#SVGID_1_"  style="overflow:visible;fill:#FFFFFF;"/>
	<clipPath id="SVGID_2_">
		<use xlink:href="#SVGID_1_"  style="overflow:visible;"/>
	</clipPath>
	<g class="st1">
		<path class="st0" d="M17.8,174.3l94.4,86.2c-1-13.9-11.4-59.4-58.4-122.4l0,0C43.1,151.4,31.1,163.5,17.8,174.3"/>
	</g>
</g>
<g>
	<defs>
		<path id="SVGID_3_" d="M112.3,0c0.9,12.7,10.5,78,58.3,138.1l0,0c15.7-21,33.8-40.2,53.9-57.1l0,0L112.3,0L112.3,0z"/>
	</defs>
	<use xlink:href="#SVGID_3_"  style="overflow:visible;fill:#FFFFFF;"/>
	<clipPath id="SVGID_4_">
		<use xlink:href="#SVGID_3_"  style="overflow:visible;"/>
	</clipPath>
	<g class="st2">
		<path class="st0" d="M112.3,0c0.9,12.7,10.5,78,58.3,138.1l0,0c15.7-21,33.8-40.2,53.9-57.1l0,0L112.3,0L112.3,0z"/>
	</g>
</g>
</svg>
