<svg xmlns="http://www.w3.org/2000/svg" xmlns:xlink="http://www.w3.org/1999/xlink" viewBox="0 0 904.8 260.51"><defs><style>.a{fill:none;}.b{fill:#4b4c4c;}.c{fill:#0e8dcd;}.d{fill:#0eb5ea;}.e{clip-path:url(#a);}.f{fill:url(#b);}.g{clip-path:url(#c);}.h{fill:url(#d);}</style><clipPath id="a" transform="translate(-93.2 -273.07)"><path class="a" d="M111,447.34l94.45,86.25c-1-13.94-11.37-59.41-58.36-122.44h0A246.09,246.09,0,0,1,111,447.34"/></clipPath><linearGradient id="b" x1="226.66" y1="800.97" x2="227.66" y2="800.97" gradientTransform="matrix(-34.64, 20, 20, 34.64, -7980.82, -31814.11)" gradientUnits="userSpaceOnUse"><stop offset="0" stop-color="#3e71b8"/><stop offset="1" stop-color="#0e8ece"/></linearGradient><clipPath id="c" transform="translate(-93.2 -273.07)"><path class="a" d="M205.47,273.08c.91,12.7,10.47,78,58.34,138.07h0a342.73,342.73,0,0,1,53.91-57.08h0l-112.25-81Z"/></clipPath><linearGradient id="d" x1="218.72" y1="806.27" x2="219.72" y2="806.27" gradientTransform="matrix(47.44, -29.18, -29.18, -47.44, 13377.1, 44979.86)" gradientUnits="userSpaceOnUse"><stop offset="0" stop-color="#0ba6df"/><stop offset="1" stop-color="#0eb6eb"/></linearGradient></defs><title>stingray2</title><path class="b" d="M430.36,375.19h25.8v72.45h17.28V375.19h25.62V359h-68.7" transform="translate(-93.2 -273.07)"/><path class="b" d="M517,447.64h17.63V359H517Z" transform="translate(-93.2 -273.07)"/><path class="b" d="M619,416.88,575.66,359h-16.8v88.69h17.27V389.86l43.37,57.78h16.8V359H619" transform="translate(-93.2 -273.07)"/><path class="b" d="M707,417.74h16.53c-2.87,9.91-11.14,15.55-22.9,15.55-19.82,0-28.84-15.42-28.84-29.74,0-14.67,9.74-30.25,27.79-30.25,10.18,0,18.6,5.2,20.46,12.64l.65,2.5h17.19l-.57-3.81c-2.43-16-18.41-27.56-38-27.56-29.25,0-45,24-45,46.59,0,22.79,15.79,45.85,46,45.85,21.28,0,37.07-12.14,41.42-31.77h9.37V401.52H707" transform="translate(-93.2 -273.07)"/><path class="b" d="M978.87,359l-17.61,34.92L939.36,359H919.13l33.13,53-18,35.72H953.4L998,359" transform="translate(-93.2 -273.07)"/><path class="b" d="M799.91,401.94h-17V375.19h16.84a13.38,13.38,0,0,1,.16,26.75M814.82,414a29.6,29.6,0,0,0-14.9-55H765.67v88.55h17.24V418.2h14.36l13.46,29.44h19.44" transform="translate(-93.2 -273.07)"/><path class="b" d="M871.8,413.34l9.34-28.2,9.34,28.2ZM889,359.71l-.25-.75H873.47l-30.66,88.69H861.6l6.56-19.79h26l6.56,19.79h18.79" transform="translate(-93.2 -273.07)"/><path class="b" d="M397.67,396.67l-16-3.71c-6.59-1.57-9.86-4.57-9.86-9.58,0-6.28,5.57-10.28,13.84-10.28,9.14,0,14.14,4.57,16.15,10.43H420c-2.86-14.87-14.43-25.44-34.43-25.44-18.44,0-31.55,11.15-31.55,27,0,14.42,9.7,21.12,22.27,24L392,412.66c7.58,1.72,10.71,4.56,10.71,9.85,0,7-5.87,11-14.7,11-8.57,0-15-3.57-17.41-11.28H351.68c3,16.71,16.86,26.41,36.42,26.41,18.57,0,32.56-10.28,32.56-27.28,0-13.27-8.7-21.42-23-24.69" transform="translate(-93.2 -273.07)"/><path class="c" d="M205.47,273.08c.91,12.69,10.46,78,58.34,138.07a246.17,246.17,0,0,0,36.1,36.19l-94.44,86.25L111,447.34a246.58,246.58,0,0,0,36.09-36.19c47.88-60,57.44-125.38,58.35-138.07" transform="translate(-93.2 -273.07)"/><path class="d" d="M317.72,354.06l-112.26-81h0l-112.25,81a342.75,342.75,0,0,1,53.91,57.09h0c47,63,57.36,108.5,58.34,122.44v0c1-13.94,11.37-59.41,58.35-122.44h0a342.75,342.75,0,0,1,53.91-57.09" transform="translate(-93.2 -273.07)"/><g class="e"><path class="f" d="M111,447.34l94.45,86.25c-1-13.94-11.37-59.41-58.36-122.44h0A246.09,246.09,0,0,1,111,447.34" transform="translate(-93.2 -273.07)"/></g><g class="g"><path class="h" d="M205.47,273.08c.91,12.7,10.47,78,58.34,138.07h0a342.73,342.73,0,0,1,53.91-57.08h0l-112.25-81Z" transform="translate(-93.2 -273.07)"/></g></svg>