<svg xmlns="http://www.w3.org/2000/svg" viewBox="0 0 2204.69 500.02"><title>logo_stroer</title><path d="M773.46,448.09c1.67-4.68,4.83-8.17,10.33-8.17,12,0,12.32,16.45,12.32,24.66s-.33,24.51-12.32,24.51-12.37-16.3-12.37-24.51c0-5.87.41-11.88,2-16.49M783.79,505c28.18,0,38.43-19.09,38.43-40.44S812,424,783.79,424s-38.44,19.24-38.44,40.59S755.56,505,783.79,505" transform="translate(-2.4 -5)" style="fill:#fff"/><path d="M890.59,425.83v44.89c0,5.94-1.71,14.67-11.11,14.67-6.79,0-9.28-4.9-9.28-12.81V425.83H845.36v54.73c0,16.9,9.95,24.44,22.87,24.44,11.25,0,18.2-5.65,21.65-15.23h2.71v1.41c0,3.9.11,8.73.45,12h23.09a94.53,94.53,0,0,1-.66-11.81V425.83Z" transform="translate(-2.4 -5)" style="fill:#fff"/><path d="M952,441.77v41.1c0,14,9.66,22.13,24.29,22.13a92.51,92.51,0,0,0,16.86-1.56l-.67-15.59a19.81,19.81,0,0,1-5.13.59c-5.64,0-10.47-3.49-10.47-11.1V441.77h15.52V425.83H976.86V400.77L952,408.53v17.3h-13.7v15.94Z" transform="translate(-2.4 -5)" style="fill:#fff"/><path d="M1086.43,448.09c1.67-4.68,4.83-8.17,10.33-8.17,12,0,12.32,16.45,12.32,24.66s-.33,24.51-12.32,24.51-12.37-16.3-12.37-24.51c0-5.87.41-11.88,2-16.49M1096.76,505c28.18,0,38.43-19.09,38.43-40.44S1124.94,424,1096.76,424s-38.44,19.24-38.44,40.59S1068.53,505,1096.76,505" transform="translate(-2.4 -5)" style="fill:#fff"/><path d="M1191.64,503.17V441.75h15.08V425.82h-15.08v-8c0-7.69,3.38-11.89,10.66-11.89a17.06,17.06,0,0,1,4.49.6l1.23.37.52-16.56a79.33,79.33,0,0,0-16.57-1.56c-15.52,0-25.17,6.57-25.17,24.28v12.78h-14.19v15.93h14.19l0,61.42Z" transform="translate(-2.4 -5)" style="fill:#fff"/><path d="M1300.24,503.17v-42.6c0-8.31,3.12-17,11.4-17,6.53,0,9,4.94,9,12.81v46.76h24.88V448.43c0-16.9-10-24.43-22.91-24.43-9.43,0-15.63,3.82-20.27,12h-2.86a103.75,103.75,0,0,0,.78-11.29V390.58h-24.88V503.17Z" transform="translate(-2.4 -5)" style="fill:#fff"/><path d="M1396.9,448.09c1.67-4.68,4.83-8.17,10.32-8.17,12,0,12.33,16.45,12.33,24.66s-.33,24.51-12.33,24.51-12.33-16.3-12.33-24.51c0-5.87.38-11.88,2-16.49M1407.22,505c28.19,0,38.44-19.09,38.44-40.44S1435.41,424,1407.22,424s-38.43,19.24-38.43,40.59S1379,505,1407.22,505" transform="translate(-2.4 -5)" style="fill:#fff"/><path d="M1494,503.17v-42.6c0-8.31,3.12-17,11.4-17,6.53,0,9,4.94,9,12.81v46.76h24.87v-44.9c0-5.94,1.68-14.67,11.11-14.67,6.76,0,9.24,4.9,9.24,12.81v46.76h24.88V447c0-16.34-9.87-23-22.13-23-12.07,0-18.16,5.31-24.21,14.92-4.75-10.43-10.29-14.92-21.8-14.92-11.25,0-18.19,5.64-21.61,15.22H1492v-1.41c0-3.9-.11-8.73-.44-12h-23.14a151.67,151.67,0,0,1,.71,15.82v61.53Z" transform="translate(-2.4 -5)" style="fill:#fff"/><path d="M1679.38,464.26c0-21.38-11.51-40.29-35.54-40.29-23.09,0-35.79,18.65-35.79,40.15,0,20.16,9,41,40.44,40.88a97.47,97.47,0,0,0,26.55-4.2l-.52-16.11c-6.54,2.71-14.89,5.61-22,5.61-13.11,0-20.69-5.61-21.54-19.61h48.42Zm-35.05-26.17c9.54,0,12.66,6.23,12.66,17.26v3.72h-26.55v-1.42c0-11.32,4.79-19.56,13.89-19.56" transform="translate(-2.4 -5)" style="fill:#fff"/><path d="M1778.73,503.17v-42.6c0-8.31,3.12-17,11.4-17,6.54,0,9,4.94,9,12.81v46.76H1824v-44.9c0-5.94,1.67-14.67,11.1-14.67,6.8,0,9.25,4.9,9.25,12.81v46.76h24.88V447c0-16.34-9.88-23-22.13-23-12.07,0-18.16,5.31-24.22,14.92-4.75-10.43-10.24-14.92-21.79-14.92-11.25,0-18.2,5.64-21.61,15.22h-2.75v-1.41c0-3.9-.11-8.73-.45-12h-23.13a144.21,144.21,0,0,1,.7,15.82v61.53Z" transform="translate(-2.4 -5)" style="fill:#fff"/><path d="M1963.54,464.26c0-21.38-11.51-40.29-35.5-40.29-23.13,0-35.83,18.65-35.83,40.15,0,20.16,9,41,40.43,40.88a97.34,97.34,0,0,0,26.55-4.2l-.48-16.11c-6.57,2.71-14.93,5.61-22.06,5.61-13.1,0-20.68-5.61-21.53-19.61h48.42Zm-35.06-26.17c9.55,0,12.67,6.23,12.67,17.26v3.72H1914.6v-1.42c0-11.32,4.79-19.56,13.88-19.56" transform="translate(-2.4 -5)" style="fill:#fff"/><path d="M2037.43,390.58v31.2c0,5.27.26,10.5.74,15.74h-2.63c-5.46-8.87-10.51-13.55-21.39-13.55-18.64,0-27.18,19.9-27.18,38.62,0,24.17,8.8,41.81,28.59,41.81,10.17,0,15.67-5.46,20.39-14.15h2.56v1.41c0,3.83.37,7.65.67,11.51h23.65c-.26-4.27-.52-8.43-.52-12.73V390.58Zm-12.18,49.35c8.47,0,12.18,10.77,12.18,23.88s-3.71,24-12.18,24c-9.76,0-12.18-11.07-12.18-24s2.45-23.88,12.18-23.88" transform="translate(-2.4 -5)" style="fill:#fff"/><path d="M2113.09,425.82h-24.88v77.35h24.88Zm0-35.24h-24.88v20.23h24.88Z" transform="translate(-2.4 -5)" style="fill:#fff"/><path d="M2174,424a83.26,83.26,0,0,0-28.55,4.79l.78,16.45c5.83-3.38,13.74-6.54,21.76-6.54,11.54,0,16.52,6.32,16.52,12.33v3.9h-8.5c-27.63,0-39.85,9.36-39.85,26,0,14.63,9.58,24.1,22.91,24.1,12,0,18-7,25.44-15.18v3.67a94.55,94.55,0,0,0,.78,9.66h21.76c-.37-4.61-.78-10.44-.78-16.27V452.27c0-15.81-5-28.29-32.27-28.29M2169,490.3c-6.38,0-10.95-3.31-10.95-11.25,0-10.77,9.54-14.67,21.87-14.67h4.68v4.05c0,7.24-1.26,21.87-15.6,21.87" transform="translate(-2.4 -5)" style="fill:#fff"/><path d="M852.77,124.64a50.52,50.52,0,0,1,22.91-5.42c22.54-.41,40.88,12.93,48.75,33.68,1.75,3.86,4.16,11.7,4.16,23.21,0,32.23-19.86,47.24-30.78,52.29-4.27,2.11-11.36,4.6-22.5,4.6-32.24,0-51.69-26.07-52.1-56.07,0-31.38,18.64-46.83,29.56-52.29M811.55,5,794,50.53l-4.12,2.52a141.37,141.37,0,0,0-60.12,86.45,166.75,166.75,0,0,0-4.31,37c0,62.94,34.58,113.59,94,134.79a177.92,177.92,0,0,0,59.9,10.29c85.44,0,147.09-60.9,147.09-146.31a170.63,170.63,0,0,0-4.31-38.95c-11.77-45.15-44.38-71.48-57.34-80.13l-9.54-6L972.56,5H905.12l-10,26.07a174.37,174.37,0,0,0-20.57-.86l-5.2,0L879,5Z" transform="translate(-2.4 -5)" style="fill:#fff"/><path d="M1344.59,161.85V109.94h15.78c16.6,0,34.12,3.27,34.12,25.36a28,28,0,0,1-4.34,15.6c-7.13,10.69-19.16,10.95-29.37,10.95Zm22.16-123.73H1252.38V315.51h92.21V205.11l55.84,110.4h104.13l-67.62-111.92c9.43-3.42,16.37-6.09,24.73-11.81,12.33-8.87,28.63-26.18,28.63-62.05,0-28.52-10.92-45.23-17.9-54.14-19.83-26-48.65-34.72-80.69-36.69-8.28-.78-16.64-.78-25-.78" transform="translate(-2.4 -5)" style="fill:#fff"/><path d="M567.31,161.85V109.94h15.78c16.56,0,34.12,3.27,34.12,25.36a28,28,0,0,1-4.34,15.6c-7.13,10.69-19.2,10.95-29.37,10.95ZM589.47,38.12H475.14V315.51h92.17V205.11l55.84,110.4H727.28L659.66,203.59c9.39-3.42,16.37-6.09,24.73-11.81C696.72,182.91,713,165.6,713,129.73c0-28.52-10.88-45.23-17.9-54.14-19.79-26-48.61-34.72-80.65-36.69-8.28-.78-16.64-.78-25-.78" transform="translate(-2.4 -5)" style="fill:#fff"/><path d="M241.92,38.12v80.21h55.89V315.51h99.37V118.33h56.25V38.12Z" transform="translate(-2.4 -5)" style="fill:#fff"/><path d="M1044.28,315.51h187.56V241.28h-96.18V210.53h86.23V139.91h-86.23V112.35h93.4V38.12H1044.28Z" transform="translate(-2.4 -5)" style="fill:#fff"/><path d="M199.92,43.28C178.08,34.7,152.53,29,128.92,29,86.66,29,44.18,45.21,24.72,84.87a97.1,97.1,0,0,0-10.14,43.71C14.58,177.41,50.42,194,67,200c11.06,3.56,29.3,7.54,41.18,9.5l6.5,1.38c8,2,15.67,5.79,15.67,15.56,0,10.62-10.92,19.38-29,19.38-25,0-49-16-68.06-29.19l-30.9,73c36.84,19.27,70.45,30.74,113,30.74,33.13,0,59.68-7.46,84.33-29.37,28.52-26.18,32-55,32-70.22,0-18.75-5-55.48-50.87-73.34-11.88-4.38-32.49-9.13-44.78-11.92l-6.72-1.34c-7.8-1.82-16.19-5.42-16.19-15.15,0-10.8,9.61-16.19,25.32-16.6,22.17,0,40.48,10.29,58.45,21l28.18-68.78c-6.2-3-14.52-7.16-25.17-11.36" transform="translate(-2.4 -5)" style="fill:#fff"/></svg>