<svg id="Layer_1" data-name="Layer 1" xmlns="http://www.w3.org/2000/svg" viewBox="0 0 2204.7 500"><defs><style>.cls-1{fill:#eb690b;}.cls-2{fill:#000c36;}</style></defs><path class="cls-1" d="M771.1,443.1c1.6-4.7,4.8-8.2,10.3-8.2,12,0,12.3,16.5,12.3,24.7s-.3,24.5-12.3,24.5S769,467.8,769,459.6c0-5.9.4-11.9,2-16.5M781.4,500c28.2,0,38.4-19.1,38.4-40.4S809.6,419,781.4,419s-38.5,19.2-38.5,40.6S753.2,500,781.4,500" transform="translate(0)"/><path class="cls-1" d="M888.2,420.8v44.9c0,6-1.7,14.7-11.1,14.7-6.8,0-9.3-4.9-9.3-12.8V420.8H843v54.8c0,16.9,9.9,24.4,22.8,24.4,11.3,0,18.2-5.6,21.7-15.2h2.7v1.4c0,3.9.1,8.7.4,12h23.1a93.3,93.3,0,0,1-.6-11.8V420.8Z" transform="translate(0)"/><path class="cls-1" d="M949.6,436.8v41.1c0,14,9.7,22.1,24.3,22.1a86.2,86.2,0,0,0,16.8-1.6l-.6-15.5a18,18,0,0,1-5.2.5c-5.6,0-10.4-3.4-10.4-11.1V436.8H990v-16H974.5v-25l-24.9,7.7v17.3H935.9v16Z" transform="translate(0)"/><path class="cls-1" d="M1084,443.1c1.7-4.7,4.9-8.2,10.4-8.2,12,0,12.3,16.5,12.3,24.7s-.4,24.5-12.3,24.5-12.4-16.3-12.4-24.5c0-5.9.4-11.9,2-16.5m10.4,56.9c28.1,0,38.4-19.1,38.4-40.4s-10.3-40.6-38.4-40.6-38.5,19.2-38.5,40.6,10.2,40.4,38.5,40.4" transform="translate(0)"/><path class="cls-1" d="M1189.2,498.2V436.8h15.1v-16h-15.1v-8c0-7.7,3.4-11.9,10.7-11.9a17.4,17.4,0,0,1,4.5.6l1.2.4.5-16.6a76.2,76.2,0,0,0-16.5-1.5c-15.5,0-25.2,6.6-25.2,24.3v12.7h-14.2v16h14.2v61.4Z" transform="translate(0)"/><path class="cls-1" d="M1297.8,498.2V455.6c0-8.3,3.2-17,11.4-17,6.6,0,9,4.9,9,12.8v46.7h24.9V443.4c0-16.9-10-24.4-22.9-24.4-9.4,0-15.6,3.8-20.3,12h-2.8c.4-3.7.7-7.5.8-11.3V385.6H1273V498.2Z" transform="translate(0)"/><path class="cls-1" d="M1394.5,443.1c1.7-4.7,4.8-8.2,10.3-8.2,12,0,12.3,16.5,12.3,24.7s-.3,24.5-12.3,24.5-12.3-16.3-12.3-24.5c0-5.9.4-11.9,2-16.5m10.3,56.9c28.2,0,38.5-19.1,38.5-40.4S1433,419,1404.8,419s-38.4,19.2-38.4,40.6,10.2,40.4,38.4,40.4" transform="translate(0)"/><path class="cls-1" d="M1491.6,498.2V455.6c0-8.3,3.1-17,11.4-17,6.5,0,9,4.9,9,12.8v46.7h24.9V453.2c0-5.9,1.7-14.6,11.1-14.6,6.7,0,9.2,4.9,9.2,12.8v46.7h24.9V442c0-16.3-9.9-23-22.1-23s-18.2,5.3-24.2,14.9c-4.8-10.4-10.3-14.9-21.8-14.9s-18.2,5.6-21.7,15.2h-2.7v-1.4c0-3.9-.1-8.7-.4-12H1466a139.2,139.2,0,0,1,.7,15.8v61.6Z" transform="translate(0)"/><path class="cls-1" d="M1677,459.3c0-21.4-11.5-40.3-35.6-40.3s-35.8,18.6-35.8,40.1,9,41,40.5,40.9a99.1,99.1,0,0,0,26.5-4.2l-.5-16.1c-6.5,2.7-14.9,5.6-22,5.6-13.1,0-20.7-5.6-21.5-19.6H1677Zm-35.1-26.2c9.6,0,12.7,6.2,12.7,17.3v3.7H1628v-1.5c0-11.3,4.8-19.5,13.9-19.5" transform="translate(0)"/><path class="cls-1" d="M1776.3,498.2V455.6c0-8.3,3.1-17,11.4-17,6.6,0,9,4.9,9,12.8v46.7h24.9V453.2c0-5.9,1.7-14.6,11.1-14.6,6.8,0,9.2,4.9,9.2,12.8v46.7h24.9V442c0-16.3-9.9-23-22.1-23s-18.2,5.3-24.2,14.9c-4.8-10.4-10.3-14.9-21.8-14.9s-18.2,5.6-21.6,15.2h-2.8v-1.4c0-3.9-.1-8.7-.4-12h-23.1a139.1,139.1,0,0,1,.6,15.8v61.6Z" transform="translate(0)"/><path class="cls-1" d="M1961.1,459.3c0-21.4-11.5-40.3-35.5-40.3s-35.8,18.6-35.8,40.1,9,41,40.4,40.9a99.8,99.8,0,0,0,26.6-4.2l-.5-16.1c-6.6,2.7-14.9,5.6-22,5.6-13.1,0-20.7-5.6-21.6-19.6h48.4Zm-35-26.2c9.5,0,12.7,6.2,12.7,17.3v3.7h-26.6v-1.5c0-11.3,4.8-19.5,13.9-19.5" transform="translate(0)"/><path class="cls-1" d="M2035,385.6v31.2c0,5.2.3,10.5.8,15.7h-2.7c-5.4-8.9-10.5-13.5-21.3-13.5-18.7,0-27.2,19.9-27.2,38.6,0,24.2,8.8,41.8,28.6,41.8,10.1,0,15.6-5.5,20.3-14.1h2.6v1.4c0,3.8.4,7.6.7,11.5h23.6c-.2-4.3-.5-8.5-.5-12.8V385.6Zm-12.2,49.3c8.5,0,12.2,10.8,12.2,23.9s-3.7,24-12.2,24-12.1-11.1-12.1-24,2.4-23.9,12.1-23.9" transform="translate(0)"/><path class="cls-1" d="M2110.7,420.8h-24.9v77.4h24.9Zm0-35.2h-24.9v20.2h24.9Z" transform="translate(0)"/><path class="cls-1" d="M2171.6,419a82.2,82.2,0,0,0-28.6,4.8l.8,16.4c5.9-3.3,13.8-6.5,21.8-6.5,11.5,0,16.5,6.3,16.5,12.3v3.9h-8.5c-27.6,0-39.8,9.4-39.8,26,0,14.7,9.5,24.1,22.9,24.1s18-7,25.4-15.1v3.6c.1,3.3.4,6.5.8,9.7h21.7c-.3-4.6-.7-10.5-.7-16.3V447.3c0-15.8-5-28.3-32.3-28.3m-5,66.3c-6.4,0-10.9-3.3-10.9-11.3,0-10.7,9.5-14.6,21.8-14.6h4.7v4c0,7.3-1.3,21.9-15.6,21.9" transform="translate(0)"/><path class="cls-2" d="M850.4,119.6a51.7,51.7,0,0,1,22.9-5.4c22.5-.4,40.9,12.9,48.7,33.7,1.8,3.9,4.2,11.7,4.2,23.2,0,32.2-19.9,47.2-30.8,52.3-4.3,2.1-11.4,4.6-22.5,4.6-32.2,0-51.7-26.1-52.1-56.1s18.6-46.8,29.6-52.3M809.1,0,791.6,45.5,787.5,48a141.3,141.3,0,0,0-60.1,86.5,158.6,158.6,0,0,0-4.3,37c0,62.9,34.5,113.6,94,134.8A179.2,179.2,0,0,0,877,316.6c85.4,0,147-60.9,147-146.3a165.4,165.4,0,0,0-4.3-39c-11.7-45.1-44.3-71.5-57.3-80.1l-9.5-6L970.2,0H902.7l-10,26.1a176.5,176.5,0,0,0-20.6-.9h-5.2L876.6,0Z" transform="translate(0)"/><path class="cls-2" d="M1342.2,156.9v-52H1358c16.6,0,34.1,3.3,34.1,25.4a28.7,28.7,0,0,1-4.3,15.6c-7.2,10.7-19.2,11-29.4,11Zm22.1-123.8H1250V310.5h92.2V200.1L1398,310.5h104.2l-67.7-111.9c9.5-3.4,16.4-6.1,24.8-11.8,12.3-8.9,28.6-26.2,28.6-62.1,0-28.5-10.9-45.2-17.9-54.1-19.8-26-48.7-34.7-80.7-36.7-8.3-.8-16.6-.8-25-.8" transform="translate(0)"/><path class="cls-2" d="M564.9,156.9v-52h15.8c16.6,0,34.1,3.3,34.1,25.4a28.7,28.7,0,0,1-4.3,15.6c-7.2,10.7-19.2,11-29.4,11ZM587.1,33.1H472.7V310.5h92.2V200.1l55.9,110.4H724.9L657.3,198.6c9.3-3.4,16.3-6.1,24.7-11.8,12.3-8.9,28.6-26.2,28.6-62.1,0-28.5-10.9-45.2-17.9-54.1-19.8-26-48.6-34.7-80.7-36.7-8.2-.8-16.6-.8-25-.8" transform="translate(0)"/><path class="cls-2" d="M239.5,33.1v80.2h55.9V310.5h99.4V113.3H451V33.1Z" transform="translate(0)"/><path class="cls-2" d="M1041.9,310.5h187.5V236.3h-96.1V205.5h86.2V134.9h-86.2V107.3h93.4V33.1H1041.9Z" transform="translate(0)"/><path class="cls-2" d="M197.5,38.3c-21.8-8.6-47.4-14.3-71-14.3C84.3,24,41.8,40.2,22.3,79.9a97,97,0,0,0-10.1,43.7C12.2,172.4,48,189,64.6,195c11.1,3.6,29.3,7.5,41.2,9.5l6.5,1.4c8,2,15.7,5.8,15.7,15.5s-11,19.4-29,19.4c-25,0-49-16-68.1-29.2L0,284.6c36.8,19.3,70.4,30.8,113,30.8,33.1,0,59.7-7.5,84.3-29.4,28.5-26.2,32-55,32-70.2,0-18.8-5-55.5-50.8-73.4-11.9-4.3-32.5-9.1-44.8-11.9l-6.7-1.3c-7.8-1.8-16.2-5.4-16.2-15.2s9.6-16.2,25.3-16.6c22.2,0,40.5,10.3,58.4,21l28.2-68.7c-6.2-3-14.5-7.2-25.2-11.4" transform="translate(0)"/></svg>