<svg id="Layer_1" data-name="Layer 1" xmlns="http://www.w3.org/2000/svg" viewBox="0 0 809.23 166.89"><defs><style>.cls-1{fill:#f58426;}</style></defs><polygon class="cls-1" points="40.44 130.58 65.53 130.58 65.53 26.16 105.97 26.16 105.97 2.52 0 2.52 0 26.16 40.44 26.16 40.44 130.58"/><path class="cls-1" d="M119.06,111.64c12,0,21.43-9.22,21.43-25s-9.39-24.27-21.43-24.27S97.45,71.26,97.45,86.85s9.21,24.79,21.61,24.79m44.27,19H140.66V120.5c-3.9,6.91-12.75,12.22-24.44,12.22-24.79,0-42.51-19.48-42.51-45.87,0-25.5,17.18-45.5,41.8-45.5,15,0,22.15,6.18,24.62,10.78V43.46h23.2v87.13Z" transform="translate(0 0)"/><path class="cls-1" d="M197.07,130.58H173.51V43.45h22.85V54.26c5.3-9,15.76-13.11,25.14-13.11,21.62,0,31.52,15.41,31.52,34.53v54.9H229.48V79.76c0-9.75-4.79-17.35-16.12-17.35-10.27,0-16.29,8-16.29,18.07v50.1Z" transform="translate(0 0)"/><path class="cls-1" d="M326.33,84.36c0-13.45-9.21-22-20.55-22-11.68,0-20.9,8.5-20.9,22,0,13.65,8.68,22.14,20.9,22.14,12,0,20.55-8.67,20.55-22.14M282.41,129.7c1.58,9.55,9.2,16.47,20.36,16.47,14.88,0,23.21-7.43,23.21-24.25v-6.4c-3.55,5.68-11.7,11.17-24.27,11.17-23.21,0-40.55-17.88-40.55-42.33,0-23,16.65-42.49,40.55-42.49,13.81,0,21.78,6,24.79,11.85V43.45h22.68V121.2c0,23.9-12.94,45.69-45.69,45.69-23.91,0-39.86-14.87-42.33-31.53l21.25-5.66Z" transform="translate(0 0)"/><path class="cls-1" d="M420,77.1c-.36-8.67-6-17.17-19.49-17.17-12.21,0-18.95,9.22-19.48,17.17ZM442,105.61c-4.42,15-18.23,27.64-39.66,27.64-23.91,0-45-17.18-45-46.58,0-27.81,20.54-45.86,42.85-45.86,26.92,0,43,17.17,43,45.15,0,3.36-.35,6.9-.35,7.26H380.52c.53,11.51,10.27,19.82,22,19.82,11,0,17-5.48,19.83-13.28L442,105.61Z" transform="translate(0 0)"/><rect class="cls-1" x="512.62" y="43.45" width="23.55" height="87.13"/><path class="cls-1" d="M569.9,130.58H546.34V43.45h22.85V54.26c5.31-9,15.76-13.11,25.14-13.11,21.61,0,31.53,15.41,31.53,34.53v54.9H602.32V79.76c0-9.75-4.79-17.35-16.13-17.35-10.27,0-16.29,8-16.29,18.07v50.1Z" transform="translate(0 0)"/><path class="cls-1" d="M696.7,77.1c-.37-8.67-6-17.17-19.49-17.17-12.22,0-18.94,9.22-19.48,17.17Zm21.95,28.51c-4.42,15-18.23,27.64-39.67,27.64-23.91,0-45-17.18-45-46.58,0-27.81,20.55-45.86,42.86-45.86,26.92,0,43,17.17,43,45.15,0,3.36-.35,6.9-.35,7.26H657.19c.54,11.51,10.27,19.82,22,19.82,11,0,17-5.48,19.83-13.28Z" transform="translate(0 0)"/><path class="cls-1" d="M538.73,14.35A14.34,14.34,0,1,1,524.4,0a14.34,14.34,0,0,1,14.33,14.35" transform="translate(0 0)"/><path class="cls-1" d="M504.47,66.22a35.6,35.6,0,0,0-7.08-.71c-12,0-22.49,5.85-22.49,24.62v40.45H451.35V43.46h22.84V57C479.5,45.49,491.54,42.14,499,42.14a52.53,52.53,0,0,1,5.48.36V66.22Z" transform="translate(0 0)"/><path class="cls-1" d="M808.47,5.86a6.57,6.57,0,0,1-.3,6.64L763.84,81.57a4.37,4.37,0,0,1-5.32,1.69,4.3,4.3,0,0,1-2.65-4.92c2.54-10.15,5.4-27.63-2.64-42.3S729,14.31,719.07,11a4.29,4.29,0,0,1-2.72-4.89,4.38,4.38,0,0,1,4.3-3.56h82.07a6.63,6.63,0,0,1,5.75,3.34" transform="translate(0 0)"/></svg>