<?xml version="1.0" encoding="utf-8"?>
<!-- Generator: Adobe Illustrator 25.4.1, SVG Export Plug-In . SVG Version: 6.00 Build 0)  -->
<svg version="1.1" id="Layer_1" xmlns="http://www.w3.org/2000/svg" xmlns:xlink="http://www.w3.org/1999/xlink" x="0px" y="0px"
	 viewBox="0 0 79 57" style="enable-background:new 0 0 79 57;" xml:space="preserve">
<style type="text/css">
	.st0{fill:#D9D9D9;filter:url(#Adobe_OpacityMaskFilter);}
	.st1{mask:url(#mask0_969_633_00000036964530465679195950000008496964246755633848_);}
	.st2{fill:#A2A7AB;}
</style>
<defs>
	<filter id="Adobe_OpacityMaskFilter" filterUnits="userSpaceOnUse" x="0" y="22" width="79" height="12">
		<feColorMatrix  type="matrix" values="1 0 0 0 0  0 1 0 0 0  0 0 1 0 0  0 0 0 1 0"/>
	</filter>
</defs>
<mask maskUnits="userSpaceOnUse" x="0" y="22" width="79" height="12" id="mask0_969_633_00000036964530465679195950000008496964246755633848_">
	<rect class="st0" width="79" height="57"/>
</mask>
<g class="st1">
	<path class="st2" d="M20.7,33.9v-9.7h-3.5v-2h9.3v2H23v9.7H20.7z"/>
	<path class="st2" d="M37.3,33.9h-2.6l-1-2.7h-4.7l-1,2.7h-2.5l4.6-11.7h2.5L37.3,33.9z M33,29.2l-1.6-4.3l-1.6,4.3H33z"/>
	<path class="st2" d="M38.6,33.9V22.2h3.8c1.4,0,2.4,0.1,2.8,0.2c0.7,0.2,1.3,0.6,1.7,1.1c0.5,0.6,0.7,1.3,0.7,2.3
		c0,0.7-0.1,1.3-0.4,1.8c-0.2,0.5-0.6,0.9-1,1.2c-0.4,0.3-0.8,0.5-1.2,0.6c-0.6,0.1-1.4,0.2-2.4,0.2H41v4.4L38.6,33.9z M41,24.1v3.3
		h1.3c0.9,0,1.6-0.1,1.9-0.2c0.3-0.1,0.6-0.3,0.7-0.6c0.2-0.3,0.3-0.6,0.3-0.9c0-0.4-0.1-0.8-0.4-1c-0.2-0.3-0.6-0.5-0.9-0.5
		c-0.3-0.1-0.8-0.1-1.7-0.1L41,24.1z"/>
	<path class="st2" d="M52.1,33.9v-9.7h-3.5v-2h9.3v2h-3.5v9.7H52.1z"/>
	<path class="st2" d="M68.8,33.9h-2.6l-1-2.7h-4.7l-1,2.7h-2.5l4.6-11.7h2.5L68.8,33.9z M64.4,29.2l-1.6-4.3l-1.6,4.3H64.4z"/>
	<path class="st2" d="M70,33.9V22.2h3.8c1.4,0,2.4,0.1,2.8,0.2c0.7,0.2,1.3,0.6,1.7,1.1c0.5,0.6,0.7,1.3,0.7,2.3
		c0,0.7-0.1,1.3-0.4,1.8c-0.2,0.5-0.6,0.9-1,1.2c-0.4,0.3-0.8,0.5-1.2,0.6c-0.6,0.1-1.4,0.2-2.4,0.2h-1.5v4.4L70,33.9z M72.4,24.1
		v3.3h1.3c0.9,0,1.6-0.1,1.9-0.2c0.3-0.1,0.6-0.3,0.7-0.6c0.2-0.3,0.3-0.6,0.3-0.9c0-0.4-0.1-0.8-0.4-1c-0.2-0.3-0.6-0.5-0.9-0.5
		c-0.3-0.1-0.8-0.1-1.7-0.1L72.4,24.1z"/>
	<path class="st2" d="M6.8,34c0,0-1.4-2.5,0.7-4.1c2.1-1.6,4.5,1,4.5,1l2,2.4c0,0,0-0.1,0-0.1V22.9c0-0.2-0.1-0.5-0.3-0.6
		c-0.2-0.2-0.4-0.3-0.6-0.3H0.9c-0.2,0-0.5,0.1-0.6,0.3C0.1,22.4,0,22.7,0,22.9v10.2c0,0.2,0.1,0.5,0.3,0.6C0.4,33.9,0.7,34,0.9,34
		L6.8,34L6.8,34z"/>
</g>
</svg>
