<svg id="Layer_1" data-name="Layer 1" xmlns="http://www.w3.org/2000/svg" viewBox="0 0 271.21 74.6"><defs><style>.cls-1,.cls-2{fill:#fff;}.cls-2{fill-rule:evenodd;}</style></defs><polyline id="polyline236" class="cls-1" points="140.39 12.46 140.39 7.63 123.1 7.63 123.1 32.55 140.39 32.55 140.39 27.5 130.1 27.5 130.1 21.96 138.66 21.96 138.66 17.14 130.1 17.14 130.1 12.46 140.39 12.46"/><polyline id="polyline238" class="cls-1" points="170.88 27.64 160.07 27.64 160.07 7.63 152.99 7.63 152.99 32.55 170.88 32.55 170.88 27.64"/><path id="path240" class="cls-1" d="M227.94,17.12c-4.78-1.08-6.45-1.2-6.45-3.11,0-1.76,2.36-2.31,3.73-2.31a16.55,16.55,0,0,1,7.46,1.87L234.6,9A20.35,20.35,0,0,0,225,6.89c-6.59,0-11,2.67-11.2,7.89-.19,4.75,3.68,6.53,7.23,7.27s6.9,1.31,7,3.35c.07,1.87-1.62,2.68-4.81,2.68A21.87,21.87,0,0,1,214.74,26l-1.64,5a25,25,0,0,0,9.9,2.07c4.69,0,8.11-.73,10.62-3.1a7.17,7.17,0,0,0,2.32-5.45c0-3.94-2.45-6.16-8-7.4" transform="translate(0 0.01)"/><polyline id="polyline242" class="cls-1" points="113.05 12.54 113.05 7.63 91.31 7.63 91.31 12.54 98.66 12.54 98.66 32.55 105.7 32.55 105.7 12.54 113.05 12.54"/><path id="path244" class="cls-1" d="M195.05,7.62V23.46a11.8,11.8,0,0,1-.08,2.06c-.23,1.51-1.69,2.39-4,2.42-1.73,0-3-.54-3.58-1.44a5.27,5.27,0,0,1-.44-2.63V7.62H179.6V24.8c0,2.38.31,3.45,1.39,4.81,1.77,2.22,5.23,3.39,10,3.39h.26c6.38,0,9.67-2.49,10.62-4.81.48-1.13.51-1.67.51-3.94V7.62h-7.3" transform="translate(0 0.01)"/><path id="path246" class="cls-1" d="M94.63.79,53.42,9v2.88h.13C80.77,5.22,94.63,1.24,94.74,1.21A.23.23,0,0,0,94.93,1a.24.24,0,0,0-.28-.17h0" transform="translate(0 0.01)"/><path id="path248" class="cls-1" d="M59.72,2.57h0M61.13,0c-2,.12-5.72,3.09-7.75,4.85-8.11,7-14.14,13.46-18.52,20.21A224.62,224.62,0,0,1,2.51,38.92L2.23,39,0,45l1.27-.5A306.16,306.16,0,0,0,32,30.59a13.49,13.49,0,0,0-.94,4.61,7.79,7.79,0,0,0,.52,2.9,6.85,6.85,0,0,0,4,3.86c2.85,1.14,6.73,1.16,11.17-.18,11.33-3.44,24.77-14,27.69-16.08l.12-.08a.21.21,0,0,0,.07-.29.21.21,0,0,0-.3-.06h0l-.14.09C71.08,27.24,55.82,36.3,45.9,39c-5,1.36-8.9.62-10.35-1.41A4.34,4.34,0,0,1,34.8,35c0-2,.94-4.54,2.75-7.37,1.67-.95,3.23-1.88,4.63-2.76C51.86,19.43,63,8.87,63.48,2.4V2.21A2.26,2.26,0,0,0,62.82.66,2.15,2.15,0,0,0,61.13,0ZM60.05,3.08c.63-.41.81-.15.63.31-.3.74-1.7,5.2-12.07,13.72a61.39,61.39,0,0,1-8.53,5.77C46.46,13.93,55.78,5.85,60.05,3.08Z" transform="translate(0 0.01)"/><polyline id="polyline250" class="cls-1" points="53.29 9.03 9.93 18.34 8.26 22.86 53.42 11.88 54.82 11.09 54.78 9.04 53.29 9.03"/><path id="path256" class="cls-1" d="M99.93,60h2.17v1.09H99.93v7.18c0,.85.12,1.35,1,1.41a8.42,8.42,0,0,0,1.12-.07V70.7h-1.16c-1.73,0-2.33-.58-2.31-2.39V61.06H96.77V60h1.86V56.8h1.3V60" transform="translate(0 0.01)"/><path id="path258" class="cls-1" d="M103.81,55.88h1.3V61.8h0a3.63,3.63,0,0,1,3.41-2.14c3,0,3.9,1.57,3.9,4.1v6.85h-1.3V64c0-1.84-.6-3.22-2.71-3.22s-3.3,1.57-3.34,3.65v6.21h-1.3V55.88" transform="translate(0 0.01)"/><path id="path260" class="cls-1" d="M122.43,64.55c-.07-2-1.28-3.8-3.39-3.8s-3.3,1.86-3.51,3.8h6.9m-6.9,1.09c0,1.9,1,4.19,3.51,4.19a3.23,3.23,0,0,0,3.34-2.72h1.3c-.55,2.41-2,3.81-4.64,3.81-3.38,0-4.81-2.6-4.81-5.63,0-2.81,1.43-5.63,4.81-5.63s4.79,3,4.69,6Z" transform="translate(0 0.01)"/><path id="path262" class="cls-1" d="M135,61.06h-2.11v9.56h-1.3V61.06h-1.82V60h1.82V59c0-1.84.49-3.12,2.58-3.12a6.67,6.67,0,0,1,1.09.08v1.12a5.57,5.57,0,0,0-1-.11c-1.44,0-1.4.91-1.42,2.07v1H135v1.09" transform="translate(0 0.01)"/><path id="path264" class="cls-1" d="M144.76,70.62h-1.2V68.7h0a4,4,0,0,1-3.68,2.23c-2.68,0-3.73-1.57-3.73-4.05V60h1.3v6.9c.06,1.92.78,2.93,2.85,2.93,2.23,0,3.2-2.1,3.2-4.27V60h1.3V70.62" transform="translate(0 0.01)"/><path id="path266" class="cls-1" d="M149.13,60h2.17v1.09h-2.17v7.18c0,.85.12,1.35,1.05,1.41a8.42,8.42,0,0,0,1.12-.07V70.7h-1.16c-1.73,0-2.33-.58-2.31-2.39V61.06H146V60h1.86V56.8h1.3V60" transform="translate(0 0.01)"/><path id="path268" class="cls-1" d="M161.65,70.62h-1.19V68.7h0a4,4,0,0,1-3.67,2.23c-2.69,0-3.74-1.57-3.74-4.05V60h1.3v6.9c.07,1.92.79,2.93,2.85,2.93,2.23,0,3.2-2.1,3.2-4.27V60h1.3V70.62" transform="translate(0 0.01)"/><path id="path270" class="cls-1" d="M164,60h1.19v2.5h0a4,4,0,0,1,4-2.65v1.3a3.67,3.67,0,0,0-4,3.32,4.17,4.17,0,0,0,0,.5v5.67H164V60" transform="translate(0 0.01)"/><path id="path272" class="cls-1" d="M177.61,64.55c-.06-2-1.28-3.8-3.38-3.8s-3.3,1.86-3.51,3.8h6.89m-6.89,1.09c0,1.9,1,4.19,3.51,4.19a3.23,3.23,0,0,0,3.34-2.72h1.3c-.55,2.41-2,3.81-4.64,3.81-3.38,0-4.81-2.6-4.81-5.63,0-2.81,1.43-5.63,4.81-5.63s4.79,3,4.69,6Z" transform="translate(0 0.01)"/><path id="path274" class="cls-1" d="M186.14,70.62V60h1.3V70.61h-1.3Zm0-12.65V55.88h1.3V58Z" transform="translate(0 0.01)"/><path id="path276" class="cls-1" d="M196.17,63.08c-.07-1.61-1.3-2.33-2.79-2.33-1.15,0-2.52.46-2.52,1.84,0,1.15,1.32,1.57,2.21,1.79l1.73.4c1.49.22,3,1.09,3,3,0,2.31-2.3,3.19-4.27,3.19-2.48,0-4.17-1.15-4.38-3.75h1.3c.1,1.76,1.4,2.66,3.14,2.66,1.21,0,2.91-.53,2.91-2,0-1.24-1.15-1.65-2.33-1.94l-1.68-.37c-1.69-.45-3-1-3-2.85,0-2.17,2.13-3,4-3,2.12,0,3.81,1.11,3.9,3.42h-1.3" transform="translate(0 0.01)"/><path id="path278" class="cls-1" d="M209.27,61.06h-2.1v9.56h-1.31V61.06h-1.81V60h1.81V59c0-1.84.5-3.12,2.58-3.12a6.71,6.71,0,0,1,1.1.08v1.12a6,6,0,0,0-.95-.11c-1.44,0-1.4.91-1.42,2.07v1h2.1v1.09" transform="translate(0 0.01)"/><path id="path280" class="cls-1" d="M210.36,60h1.2v2.5h0a3.94,3.94,0,0,1,4-2.65v1.3a3.67,3.67,0,0,0-4,3.32,4.17,4.17,0,0,0,0,.5v5.67h-1.3V60" transform="translate(0 0.01)"/><path id="path282" class="cls-1" d="M216.74,70.62V60H218V70.61h-1.26Zm0-12.65V55.88H218V58Z" transform="translate(0 0.01)"/><path id="path284" class="cls-1" d="M228.05,64.55c-.06-2-1.28-3.8-3.38-3.8s-3.31,1.86-3.51,3.8h6.89m-6.89,1.09c0,1.9,1,4.19,3.51,4.19A3.23,3.23,0,0,0,228,67.11h1.3c-.56,2.41-2,3.81-4.64,3.81-3.39,0-4.81-2.6-4.81-5.63,0-2.81,1.42-5.63,4.81-5.63s4.79,3,4.68,6Z" transform="translate(0 0.01)"/><path id="path286" class="cls-1" d="M230.94,60h1.3v1.8h0a3.63,3.63,0,0,1,3.41-2.14c3,0,3.89,1.57,3.89,4.1v6.85h-1.29V64c0-1.84-.6-3.22-2.71-3.22s-3.3,1.57-3.34,3.65v6.21h-1.3V60" transform="translate(0 0.01)"/><path id="path288" class="cls-1" d="M246.23,69.83c2.77,0,3.74-2.33,3.74-4.54s-1-4.54-3.74-4.54c-2.48,0-3.48,2.33-3.48,4.54s1,4.54,3.48,4.54m5,.79H250v-2h0a4.23,4.23,0,0,1-3.8,2.32c-3.24,0-4.79-2.62-4.79-5.63s1.55-5.63,4.79-5.63A3.77,3.77,0,0,1,249.92,62H250V55.88h1.3V70.62Z" transform="translate(0 0.01)"/><rect id="rect290" class="cls-1" x="253.62" y="55.89" width="1.3" height="14.73"/><path id="path292" class="cls-1" d="M256.08,60h1.38l3.54,9,3.25-9h1.3l-4.62,12.28c-.75,1.79-1.18,2.31-2.81,2.31a3.37,3.37,0,0,1-1-.1v-1.1a4.41,4.41,0,0,0,.89.1c1.15,0,1.42-.68,1.85-1.67l.46-1.22L256.08,60" transform="translate(0 0.01)"/><path class="cls-2" d="M267.35,61.79a1.74,1.74,0,1,1,1.75,1.79,1.72,1.72,0,0,1-1.75-1.71Zm1.75,2.14a2.15,2.15,0,1,0-.05,0Zm-.46-2h.43l.66,1.07h.41l-.7-1.09a.64.64,0,0,0,.64-.64v0c0-.49-.29-.7-.87-.7h-.94V63h.37V61.93Zm0-.32v-.76h.51c.27,0,.54.06.54.36s-.28.4-.6.4Z" transform="translate(0 0.01)"/></svg>