<svg id="Layer_1" data-name="Layer 1" xmlns="http://www.w3.org/2000/svg" viewBox="0 0 271.2 74.6"><defs><style>.cls-1,.cls-3{fill:#49166d;}.cls-2{fill:#6c0;}.cls-3{fill-rule:evenodd;}</style></defs><polyline id="polyline236" class="cls-1" points="140.4 12.5 140.4 7.6 123.1 7.6 123.1 32.6 140.4 32.6 140.4 27.5 130.1 27.5 130.1 22 138.7 22 138.7 17.1 130.1 17.1 130.1 12.5 140.4 12.5"/><polyline id="polyline238" class="cls-1" points="170.9 27.6 160.1 27.6 160.1 7.6 153 7.6 153 32.6 170.9 32.6 170.9 27.6"/><path id="path240" class="cls-1" d="M227.9,17.1c-4.7-1.1-6.4-1.2-6.4-3.1s2.4-2.3,3.7-2.3a16.4,16.4,0,0,1,7.5,1.9L234.6,9A20.1,20.1,0,0,0,225,6.9c-6.6,0-11,2.7-11.2,7.9s3.7,6.5,7.2,7.2,6.9,1.4,7,3.4-1.6,2.7-4.8,2.7a21.3,21.3,0,0,1-8.5-2.1l-1.6,5a24.1,24.1,0,0,0,9.9,2.1c4.7,0,8.1-.8,10.6-3.1a7.1,7.1,0,0,0,2.3-5.5c0-3.9-2.4-6.1-8-7.4" transform="translate(0 0)"/><polyline id="polyline242" class="cls-1" points="113 12.5 113 7.6 91.3 7.6 91.3 12.5 98.7 12.5 98.7 32.6 105.7 32.6 105.7 12.5 113 12.5"/><path id="path244" class="cls-1" d="M195.1,7.6V23.5a14.1,14.1,0,0,1-.1,2c-.3,1.5-1.7,2.4-4,2.4s-3-.5-3.6-1.4a5.8,5.8,0,0,1-.5-2.6V7.6h-7.3V24.8c0,2.4.3,3.5,1.4,4.8s5.2,3.4,10,3.4h.2c6.4,0,9.7-2.5,10.7-4.8a9.3,9.3,0,0,0,.5-3.9V7.6h-7.3" transform="translate(0 0)"/><path id="path246" class="cls-1" d="M94.6.8,53.4,9v2.9h.1C80.8,5.2,94.6,1.2,94.7,1.2a.2.2,0,0,0,.2-.2L94.7.8h-.1" transform="translate(0 0)"/><path id="path248" class="cls-2" d="M59.7,2.6h0M61.1,0c-2,.1-5.7,3.1-7.7,4.8-8.1,7.1-14.2,13.5-18.5,20.3A225.2,225.2,0,0,1,2.5,38.9H2.2L0,45l1.3-.5A313.5,313.5,0,0,0,32,30.6a12.2,12.2,0,0,0-.9,4.6,5.8,5.8,0,0,0,.5,2.9,7,7,0,0,0,4,3.9c2.8,1.1,6.7,1.1,11.2-.2,11.3-3.5,24.7-14,27.6-16.1h.2c.1,0,.1-.2,0-.3s-.2-.1-.3,0h-.1C71.1,27.2,55.8,36.3,45.9,39c-5,1.4-8.9.6-10.3-1.4a4.2,4.2,0,0,1-.8-2.6c0-2,.9-4.5,2.7-7.4l4.7-2.7C51.9,19.4,63,8.9,63.5,2.4V2.2A2.1,2.1,0,0,0,62.8.7,2.1,2.1,0,0,0,61.1,0ZM60,3.1c.7-.4.9-.2.7.3S59,8.6,48.6,17.1a60.7,60.7,0,0,1-8.5,5.8C46.5,13.9,55.8,5.8,60,3.1Z" transform="translate(0 0)"/><polyline id="polyline250" class="cls-1" points="53.3 9 9.9 18.3 8.3 22.9 53.4 11.9 54.8 11.1 54.8 9 53.3 9"/><path id="path256" class="cls-1" d="M99.9,60h2.2v1.1H99.9v7.2c0,.8.2,1.3,1,1.4h1.2v1.1h-1.2c-1.7,0-2.3-.6-2.3-2.4V61.1H96.8V60h1.8V56.8h1.3V60" transform="translate(0 0)"/><path id="path258" class="cls-1" d="M103.8,55.9h1.3v5.9h0a3.6,3.6,0,0,1,3.4-2.1c3,0,3.9,1.5,3.9,4.1v6.8h-1.3V64c0-1.8-.6-3.2-2.7-3.2s-3.3,1.5-3.3,3.6v6.2h-1.3V55.9" transform="translate(0 0)"/><path id="path260" class="cls-1" d="M122.4,64.6c0-2-1.2-3.8-3.4-3.8s-3.3,1.8-3.5,3.8h6.9m-6.9,1c0,1.9,1,4.2,3.5,4.2a3.3,3.3,0,0,0,3.4-2.7h1.3c-.6,2.4-2,3.8-4.7,3.8s-4.8-2.6-4.8-5.6,1.5-5.6,4.8-5.6,4.8,3,4.7,6Z" transform="translate(0 0)"/><path id="path262" class="cls-1" d="M135,61.1h-2.1v9.5h-1.3V61.1h-1.8V60h1.8V59c0-1.8.5-3.1,2.6-3.1h1.1v1.1h-1c-1.5,0-1.4.9-1.5,2v1H135v1.1" transform="translate(0 0)"/><path id="path264" class="cls-1" d="M144.8,70.6h-1.2V68.7h0a4,4,0,0,1-3.7,2.2c-2.7,0-3.7-1.5-3.7-4V60h1.3v6.9c0,1.9.7,2.9,2.8,2.9s3.2-2.1,3.2-4.2V60h1.3V70.6" transform="translate(0 0)"/><path id="path266" class="cls-1" d="M149.1,60h2.2v1.1h-2.2v7.2c0,.8.2,1.3,1.1,1.4h1.1v1.1h-1.2c-1.7,0-2.3-.6-2.3-2.4V61.1H146V60h1.9V56.8h1.3V60" transform="translate(0 0)"/><path id="path268" class="cls-1" d="M161.6,70.6h-1.1V68.7h0a4,4,0,0,1-3.7,2.2c-2.7,0-3.8-1.5-3.8-4V60h1.3v6.9c.1,1.9.8,2.9,2.9,2.9s3.2-2.1,3.2-4.2V60h1.3V70.6" transform="translate(0 0)"/><path id="path270" class="cls-1" d="M164,60h1.2v2.5h0a4,4,0,0,1,4-2.7v1.3a3.8,3.8,0,0,0-4,3.4v6.1H164V60" transform="translate(0 0)"/><path id="path272" class="cls-1" d="M177.6,64.6a3.5,3.5,0,0,0-3.4-3.8c-2.1,0-3.3,1.8-3.5,3.8h6.9m-6.9,1c0,1.9,1,4.2,3.5,4.2a3.3,3.3,0,0,0,3.4-2.7h1.3c-.6,2.4-2,3.8-4.7,3.8s-4.8-2.6-4.8-5.6,1.4-5.6,4.8-5.6,4.8,3,4.7,6Z" transform="translate(0 0)"/><path id="path274" class="cls-1" d="M186.1,70.6V60h1.3V70.6Zm0-12.6V55.9h1.3V58Z" transform="translate(0 0)"/><path id="path276" class="cls-1" d="M196.2,63.1c-.1-1.6-1.3-2.3-2.8-2.3s-2.5.4-2.5,1.8,1.3,1.6,2.2,1.8l1.7.4c1.5.2,3,1.1,3,3s-2.3,3.2-4.3,3.2-4.1-1.2-4.4-3.8h1.3a2.9,2.9,0,0,0,3.2,2.7c1.2,0,2.9-.5,2.9-2s-1.1-1.7-2.3-2l-1.7-.3c-1.7-.5-3-1-3-2.9s2.1-3,4-3,3.8,1.1,3.9,3.4h-1.3" transform="translate(0 0)"/><path id="path278" class="cls-1" d="M209.3,61.1h-2.1v9.5h-1.3V61.1h-1.8V60h1.8V59c0-1.8.5-3.1,2.5-3.1h1.1v1.1h-.9c-1.4,0-1.4.9-1.4,2v1h2.1v1.1" transform="translate(0 0)"/><path id="path280" class="cls-1" d="M210.4,60h1.2v2.5h0a3.9,3.9,0,0,1,4-2.7v1.3a3.8,3.8,0,0,0-4,3.4v6.1h-1.3V60" transform="translate(0 0)"/><path id="path282" class="cls-1" d="M216.7,70.6V60H218V70.6Zm0-12.6V55.9H218V58Z" transform="translate(0 0)"/><path id="path284" class="cls-1" d="M228.1,64.6c-.1-2-1.3-3.8-3.4-3.8s-3.3,1.8-3.5,3.8h6.9m-6.9,1c0,1.9,1,4.2,3.5,4.2a3.2,3.2,0,0,0,3.3-2.7h1.3c-.6,2.4-2,3.8-4.6,3.8s-4.8-2.6-4.8-5.6,1.4-5.6,4.8-5.6,4.7,3,4.6,6Z" transform="translate(0 0)"/><path id="path286" class="cls-1" d="M230.9,60h1.3v1.8h0a3.6,3.6,0,0,1,3.5-2.1c3,0,3.8,1.5,3.8,4.1v6.8h-1.2V64c0-1.8-.6-3.2-2.8-3.2s-3.3,1.5-3.3,3.6v6.2h-1.3V60" transform="translate(0 0)"/><path id="path288" class="cls-1" d="M246.2,69.8c2.8,0,3.8-2.3,3.8-4.5s-1-4.5-3.8-4.5-3.4,2.3-3.4,4.5,1,4.5,3.4,4.5m5,.8H250v-2h0a3.9,3.9,0,0,1-3.8,2.3c-3.2,0-4.8-2.6-4.8-5.6s1.6-5.6,4.8-5.6a3.7,3.7,0,0,1,3.7,2.3h.1V55.9h1.3V70.6Z" transform="translate(0 0)"/><rect id="rect290" class="cls-1" x="253.6" y="55.9" width="1.3" height="14.73"/><path id="path292" class="cls-1" d="M256.1,60h1.4l3.5,9.1,3.3-9.1h1.2l-4.6,12.3c-.7,1.8-1.1,2.3-2.8,2.3h-1V73.4h.9c1.2,0,1.4-.7,1.9-1.7l.4-1.2L256.1,60" transform="translate(0 0)"/><path class="cls-3" d="M267.4,61.8a1.7,1.7,0,0,1,1.7-1.7,1.7,1.7,0,0,1,1.7,1.8,1.8,1.8,0,0,1-1.7,1.7,1.8,1.8,0,0,1-1.8-1.7C267.3,61.8,267.3,61.8,267.4,61.8Zm1.7,2.1a2.1,2.1,0,0,0,2.1-2.1,2.1,2.1,0,0,0-2.2-2.1,2.1,2.1,0,0,0,0,4.2Zm-.5-2h.5l.6,1.1h.4l-.7-1.1a.7.7,0,0,0,.7-.6h0c0-.5-.3-.7-.9-.7h-.9V63h.3V62Zm0-.3v-.7h.6c.2,0,.5,0,.5.3s-.3.4-.6.4Z" transform="translate(0 0)"/></svg>