<svg id="Layer_1" data-name="Layer 1" xmlns="http://www.w3.org/2000/svg" viewBox="0 0 251.6 71.4"><defs><style>.cls-1,.cls-2{fill:#fff;}.cls-1{fill-rule:evenodd;}</style></defs><path class="cls-1" d="M222.7,0c-18.4,0-28.9,10.7-28.9,23.7s10.5,23.7,28.9,23.7,28.9-10.8,28.9-23.7S241,0,222.7,0m0,40.5c-9.3,0-15.3-7.7-15.3-16.8s6-16.8,15.3-16.8S238,14.5,238,23.7s-6.1,16.8-15.3,16.8M2.1.9H53.2V12.1C49.6,9,41.9,7.8,33.7,7.8V38.3c0,4.5.4,5.8,2.1,8.1H19.5c1.8-2.3,2.1-3.6,2.1-8.1V7.8C13.4,7.8,5.7,9,2.1,12.1ZM77.7,39.5c5.2,0,14-1.2,17.4-4.3V46.4H57.9c1.8-2.1,2.1-3.6,2.1-7.9V8.9c0-4.4-.3-5.8-2.1-7.9H93.2V12.2C89.7,9.1,81,7.8,75.7,7.8H71.6V19.9h3c3,0,7.6-.1,10.6-1.2v9c-3-1.1-7.6-1.2-10.6-1.2h-3V39.6Zm48.8-21.1c8.9,1.2,16.2,4.4,16.2,14,0,11.4-10.7,15-22.3,14.9-8.1-.1-15-.8-20-2.9V34.3a37.2,37.2,0,0,0,20,6.2c5.6,0,10.8-1.4,10.8-5.7s-4.8-5.3-14.6-6.8-16.2-4.9-16.2-13.3C100.3,3.4,111,0,121.2,0a61.7,61.7,0,0,1,18.9,2.7v11c-4.9-4.4-12.2-6.8-19.4-6.8-4.9,0-9.5,1.6-9.5,5.2s6.8,5.2,15.3,6.3ZM177,0a52.8,52.8,0,0,1,13.6,1.6V12.9a18.1,18.1,0,0,0-13.5-6c-10.3,0-17.1,7.2-17.1,16.8s6.9,16.8,17.2,16.8a18.1,18.1,0,0,0,13.5-6V45.8a52.5,52.5,0,0,1-13.6,1.7c-17.8,0-30.7-8.9-30.7-23.8S159.2,0,177,0Z" transform="translate(0 0)"/><path class="cls-2" d="M251,58.8H220.2a14.8,14.8,0,0,0-10.9,5.4s-4.8,5-8,6.8h-.2v.2h29.4c5.7,0,8.4-2.2,12-5.6,0,0,4.8-5,8.4-6.6h.2v-.3H251" transform="translate(0 0)"/><path class="cls-2" d="M200.7,58.8H169.9A14.8,14.8,0,0,0,159,64.2s-4.8,5-8,6.8h-.2v.2h29.4c5.7,0,8.4-2.2,12-5.6,0,0,4.8-5,8.4-6.6h.2v-.3h-.2" transform="translate(0 0)"/><path class="cls-2" d="M119.6,58.8h0m30.9,0H119.7a14.8,14.8,0,0,0-10.9,5.4s-4.8,5-8,6.8h-.2v.2H130c5.7,0,8.4-2.2,12-5.6,0,0,4.8-5,8.4-6.6h.2v-.3h-.1" transform="translate(0 0)"/><path class="cls-2" d="M100.2,58.8H69.4a14.8,14.8,0,0,0-10.9,5.4s-4.8,5-8,6.8h-.2v.2H79.8c5.7,0,8.4-2.2,12-5.6,0,0,4.8-5,8.4-6.6h.2v-.3h-.2" transform="translate(0 0)"/><path class="cls-2" d="M50,58.8H19.1A14.8,14.8,0,0,0,8.2,64.2s-4.8,5-8,6.8H0v.2H29.5c5.7,0,8.4-2.2,12-5.6,0,0,4.8-5,8.4-6.6h.2v-.3h0" transform="translate(0 0)"/></svg>