<?xml version="1.0" encoding="utf-8"?>
<!-- Generator: Adobe Illustrator 25.4.1, SVG Export Plug-In . SVG Version: 6.00 Build 0)  -->
<svg version="1.1" id="Layer_1" xmlns="http://www.w3.org/2000/svg" xmlns:xlink="http://www.w3.org/1999/xlink" x="0px" y="0px"
	 viewBox="0 0 105 57" style="enable-background:new 0 0 105 57;" xml:space="preserve">
<style type="text/css">
	.st0{fill:#D9D9D9;filter:url(#Adobe_OpacityMaskFilter);}
	.st1{mask:url(#mask0_969_643_00000126322092771870049390000010691066875960734631_);}
</style>
<defs>
	<filter id="Adobe_OpacityMaskFilter" filterUnits="userSpaceOnUse" x="0" y="22" width="105" height="13">
		<feColorMatrix  type="matrix" values="1 0 0 0 0  0 1 0 0 0  0 0 1 0 0  0 0 0 1 0"/>
	</filter>
</defs>
<mask maskUnits="userSpaceOnUse" x="0" y="22" width="105" height="13" id="mask0_969_643_00000126322092771870049390000010691066875960734631_">
	<rect class="st0" width="105" height="57"/>
</mask>
<g class="st1">
	<path d="M19.4,33.5c-1.6,0-2.4-0.9-2.4-2.4v-4h-1.4v-1.6h1.4v-2l1.9-0.5v2.5h2v1.6h-2v3.8c0,0.6,0.3,0.9,0.9,0.9
		c0.4,0,0.8,0,1.2-0.1v1.6C20.5,33.4,20,33.5,19.4,33.5z"/>
	<path d="M26.7,33.4v-4.8c0-0.9-0.3-1.5-1.3-1.5c-1.1,0-1.6,1.2-1.6,2.2v4.1h-1.9V22.5h1.9v3.9c0.3-0.3,0.6-0.6,0.9-0.8
		c0.4-0.2,0.8-0.3,1.2-0.3c1.7,0,2.6,1.2,2.6,2.8v5.2H26.7z"/>
	<path d="M36.6,30h-5.2c0,0.3,0,0.6,0.1,0.8c0.1,0.3,0.3,0.5,0.4,0.7c0.3,0.3,0.7,0.5,1.2,0.5c0.2,0,0.4,0,0.6-0.1
		c0.2-0.1,0.4-0.2,0.5-0.3c0.2-0.2,0.3-0.4,0.4-0.7h1.8c-0.1,0.5-0.3,1-0.7,1.4c-0.3,0.4-0.7,0.7-1.2,0.8c-0.5,0.2-0.9,0.3-1.4,0.3
		c-0.5,0-0.9-0.1-1.3-0.2c-0.4-0.2-0.8-0.4-1.1-0.7c-0.4-0.4-0.7-0.9-0.9-1.5c-0.2-0.5-0.3-1.1-0.3-1.7c0-1.2,0.4-2.3,1.1-3.1
		c0.3-0.3,0.7-0.6,1.1-0.8c0.4-0.2,0.9-0.3,1.3-0.2c0.6,0,1.1,0.1,1.6,0.4c0.5,0.3,0.9,0.6,1.2,1.1c0.5,0.8,0.8,1.8,0.7,2.7
		C36.6,29.5,36.6,29.9,36.6,30L36.6,30z M34.3,27.3c-0.2-0.2-0.3-0.3-0.5-0.3c-0.2-0.1-0.4-0.1-0.6-0.1c-0.3,0-0.5,0-0.7,0.1
		c-0.2,0.1-0.4,0.3-0.6,0.5c-0.3,0.3-0.4,0.8-0.4,1.2h3.4C34.8,28.2,34.6,27.7,34.3,27.3"/>
	<path d="M40.6,24.5v8.9h-1.9v-8.9h-3.2v-1.8h8.3v1.8H40.6z"/>
	<path d="M46.9,27.2c-1.3,0-2,0.9-2,2.2v3.9H43v-7.8h1.6l0.2,1.2c0.2-0.4,0.5-0.8,0.9-1c0.4-0.2,0.9-0.3,1.3-0.3c0.2,0,0.4,0,0.6,0
		v1.8C47.4,27.2,47.2,27.2,46.9,27.2z"/>
	<path d="M53.9,33.5c-0.3,0-0.6-0.1-0.9-0.3c-0.2-0.2-0.4-0.5-0.4-0.8c-0.3,0.4-0.6,0.7-1,0.9c-0.4,0.2-0.9,0.3-1.3,0.3
		c-1.9,0-2.8-1.2-2.8-2.5c0-1.5,1.2-2.3,2.6-2.5l2.3-0.2V28c0-0.7-0.3-1.2-1.3-1.2c-0.9,0-1.4,0.4-1.4,1.1h-1.8
		c0.1-1.8,1.5-2.5,3.2-2.5c1.3,0,2.5,0.4,2.9,1.6c0.2,0.5,0.3,1,0.2,1.6v2.9c0,0.4,0.1,0.5,0.4,0.5c0.1,0,0.2,0,0.2,0v1.4
		C54.6,33.4,54.3,33.5,53.9,33.5L53.9,33.5z M52.4,29.9l-2,0.1c-0.3,0-0.6,0.1-0.8,0.3s-0.3,0.5-0.4,0.7c0,0.1,0,0.3,0.1,0.4
		c0.1,0.1,0.1,0.2,0.2,0.3c0.1,0.1,0.2,0.2,0.4,0.2c0.1,0,0.3,0.1,0.4,0.1c1.2,0,2-0.6,2-1.8V29.9z"/>
	<path d="M60.8,33.4l-0.1-0.9c-0.3,0.3-0.6,0.6-1,0.8c-0.4,0.2-0.8,0.3-1.2,0.2c-0.7,0-1.4-0.2-1.9-0.7c-0.9-0.8-1.4-1.9-1.4-3.4
		s0.5-2.7,1.4-3.5c0.5-0.4,1.2-0.6,1.9-0.6c0.4,0,0.8,0,1.1,0.1c0.4,0.1,0.7,0.3,1,0.6v-3.6h1.9v10.9L60.8,33.4z M58.9,26.9
		c-0.2,0-0.5,0-0.7,0.2c-0.2,0.1-0.4,0.3-0.6,0.5c-0.4,0.6-0.6,1.2-0.5,1.9c0,0.7,0.1,1.3,0.5,1.9c0.1,0.2,0.3,0.4,0.6,0.5
		c0.2,0.1,0.5,0.2,0.7,0.2c1.5,0,1.8-1.4,1.8-2.5C60.7,28.3,60.4,26.9,58.9,26.9z"/>
	<path d="M70.7,30h-5.2c0,0.3,0,0.6,0.1,0.8c0.1,0.3,0.2,0.5,0.4,0.7c0.3,0.3,0.7,0.5,1.2,0.5c0.2,0,0.4,0,0.6-0.1
		c0.2-0.1,0.4-0.2,0.5-0.3c0.2-0.2,0.3-0.4,0.4-0.7h1.8c-0.1,0.5-0.3,1-0.7,1.4c-0.3,0.4-0.7,0.7-1.2,0.8c-0.5,0.2-0.9,0.3-1.4,0.3
		c-0.5,0-0.9-0.1-1.3-0.2c-0.4-0.2-0.8-0.4-1.1-0.7c-0.4-0.4-0.7-0.9-0.9-1.4c-0.2-0.5-0.3-1.1-0.3-1.7c-0.1-1.2,0.4-2.3,1.1-3.1
		c0.3-0.3,0.7-0.6,1.1-0.8c0.4-0.2,0.9-0.3,1.3-0.2c0.6,0,1.1,0.1,1.6,0.4c0.5,0.3,0.9,0.6,1.2,1.1c0.5,0.8,0.7,1.8,0.7,2.7
		C70.7,29.5,70.7,29.9,70.7,30L70.7,30z M68.3,27.3c-0.2-0.2-0.3-0.3-0.5-0.3c-0.2-0.1-0.4-0.1-0.6-0.1c-0.3,0-0.5,0-0.7,0.1
		c-0.2,0.1-0.4,0.3-0.6,0.5c-0.3,0.3-0.4,0.8-0.4,1.2h3.4C68.8,28.2,68.6,27.7,68.3,27.3"/>
	<path d="M78.9,32.2c-0.4,0.4-0.9,0.7-1.4,0.9c-0.5,0.2-1.1,0.3-1.6,0.3h-4.1V22.7h4.1c0.5,0,1.1,0.1,1.6,0.3c0.5,0.2,1,0.5,1.4,0.9
		c1.1,1.1,1.3,2.7,1.3,4.2S80,31.1,78.9,32.2L78.9,32.2z M77.4,25c-0.2-0.2-0.4-0.3-0.7-0.5c-0.3-0.1-0.5-0.2-0.8-0.1h-2.2v7.2h2.2
		c0.3,0,0.6,0,0.8-0.2c0.3-0.1,0.5-0.3,0.7-0.5c0.8-0.8,0.8-2,0.8-3C78.2,27,78.2,25.8,77.4,25z"/>
	<path d="M87.8,30h-5.2c0,0.3,0,0.6,0.1,0.8s0.2,0.5,0.4,0.7c0.3,0.3,0.7,0.5,1.2,0.5c0.2,0,0.4,0,0.6-0.1c0.2-0.1,0.4-0.2,0.5-0.3
		c0.2-0.2,0.3-0.4,0.4-0.7h1.8c-0.1,0.5-0.3,1-0.7,1.4c-0.3,0.4-0.7,0.7-1.2,0.8c-0.5,0.2-0.9,0.3-1.4,0.3c-0.5,0-0.9-0.1-1.3-0.2
		c-0.4-0.2-0.8-0.4-1.1-0.7c-0.4-0.4-0.7-0.9-0.9-1.5c-0.2-0.5-0.3-1.1-0.3-1.7c0-1.2,0.4-2.3,1.1-3.1c0.3-0.3,0.7-0.6,1.1-0.8
		c0.4-0.2,0.9-0.3,1.3-0.2c0.6,0,1.1,0.1,1.6,0.4c0.5,0.3,0.9,0.6,1.2,1.1c0.5,0.8,0.7,1.8,0.7,2.7C87.8,29.5,87.8,29.9,87.8,30
		L87.8,30z M85.5,27.3c-0.2-0.2-0.3-0.3-0.5-0.3c-0.2-0.1-0.4-0.1-0.6-0.1c-0.3,0-0.5,0-0.7,0.1c-0.2,0.1-0.4,0.3-0.6,0.5
		c-0.3,0.3-0.4,0.8-0.4,1.2h3.4C86,28.2,85.8,27.7,85.5,27.3"/>
	<path d="M95.9,22.5v10.9h1.9v-2.1l1.2-1.3l2.2,3.4h2.2l-3.1-4.8l2.8-3h-2.4l-3,3.2v-6.2H95.9z"/>
	<path d="M92.8,28.7c-0.8-0.1-1-0.1-1.7-0.2c-0.4-0.1-0.9-0.2-0.9-0.8c0-0.2,0.1-0.4,0.2-0.5c0.1-0.1,0.3-0.3,0.4-0.3
		c0.3-0.1,0.5-0.1,0.8-0.1c0.4,0,0.7,0.1,1,0.4c0.2,0.2,0.3,0.5,0.3,0.7h1.8c0-0.6-0.3-1.2-0.7-1.6c-0.3-0.3-0.7-0.6-1.1-0.7
		c-0.4-0.2-0.9-0.2-1.3-0.2c-0.9,0-1.7,0.2-2.4,0.8c-0.3,0.2-0.5,0.5-0.6,0.8c-0.1,0.3-0.2,0.6-0.2,1c0,0.5,0.2,1,0.5,1.4
		c0.3,0.4,0.8,0.6,1.3,0.7c0.7,0.2,1.5,0.2,2.2,0.3c0.2,0,0.4,0.1,0.6,0.3c0.1,0.2,0.2,0.4,0.2,0.6c0,0.9-1,1-1.6,1
		c-0.4,0-0.8-0.1-1.2-0.3C90.2,31.5,90,31.3,90,31h-1.8c0.1,0.6,0.4,1.2,0.8,1.6c0.7,0.6,1.6,1,2.5,0.9c1,0.1,1.9-0.3,2.7-0.9
		c0.2-0.2,0.4-0.5,0.5-0.8c0.1-0.3,0.2-0.6,0.2-0.9C94.9,29.7,94,28.9,92.8,28.7z"/>
	<path d="M3.1,22v2h2.1v5.3h2V24v-2H3.1z"/>
	<path d="M2,28.8c0-0.7,0.2-1.5,0.6-2.1s0.9-1.2,1.6-1.5H1.2c-0.6,0.8-1,1.7-1.1,2.6c-0.2,1-0.1,1.9,0.2,2.9
		c0.3,0.9,0.8,1.8,1.5,2.5c0.7,0.7,1.5,1.2,2.4,1.5v-2.2C3.5,32.1,3,31.6,2.6,31C2.2,30.3,2,29.6,2,28.8z"/>
	<path d="M8.1,23v2.2c0.9,0.5,1.6,1.3,2,2.2c0.4,1,0.4,2,0,3c-0.4,1-1.1,1.7-2,2.2c-0.9,0.5-2,0.6-3,0.3v2c0.3,0.1,0.7,0.1,1,0.1
		c1.5,0,2.9-0.5,4-1.5c1.1-0.9,1.8-2.2,2.1-3.7c0.2-1.4,0-2.9-0.8-4.2C10.7,24.4,9.5,23.5,8.1,23z"/>
	<path d="M104.3,26c-0.1,0-0.2,0-0.3-0.1c-0.1,0-0.2-0.1-0.2-0.2c-0.1-0.1-0.1-0.1-0.2-0.2c0-0.1-0.1-0.2-0.1-0.3
		c0-0.1,0-0.3,0.1-0.4c0.1-0.1,0.2-0.2,0.3-0.3c0.1-0.1,0.3-0.1,0.4,0c0.1,0,0.3,0.1,0.4,0.2c0.1,0.1,0.2,0.2,0.2,0.4s0,0.3,0,0.4
		c-0.1,0.1-0.1,0.2-0.3,0.3C104.6,26,104.4,26,104.3,26z M104.3,24.7c-0.1,0-0.2,0-0.2,0s-0.1,0.1-0.2,0.1c-0.1,0.1-0.1,0.1-0.1,0.2
		c0,0.1,0,0.2,0,0.2c0,0.2,0.1,0.3,0.2,0.4c0.1,0.1,0.3,0.2,0.4,0.2s0.3-0.1,0.4-0.2s0.2-0.3,0.2-0.4c0-0.1,0-0.2,0-0.2
		c0-0.1-0.1-0.1-0.1-0.2c-0.1-0.1-0.1-0.1-0.2-0.1C104.4,24.7,104.4,24.7,104.3,24.7z M104.4,25.6l-0.1-0.3h-0.1v0.3H104v-0.8h0.3
		c0,0,0.1,0,0.1,0c0,0,0.1,0,0.1,0.1c0,0,0,0.1,0.1,0.1c0,0,0,0.1,0,0.1c0,0,0,0.1,0,0.1c0,0-0.1,0.1-0.1,0.1l0.1,0.3L104.4,25.6z
		 M104.3,25h-0.2v0.2h0.2c0.1,0,0.1,0,0.1-0.1c0,0,0,0,0,0C104.4,25,104.4,25,104.3,25C104.4,25,104.4,25,104.3,25
		C104.3,25,104.3,25,104.3,25z"/>
</g>
</svg>
