<svg width="105" height="57" viewBox="0 0 105 57" fill="none" xmlns="http://www.w3.org/2000/svg">
<mask id="mask0_969_643" style="mask-type:alpha" maskUnits="userSpaceOnUse" x="0" y="0" width="105" height="57">
<rect width="105" height="57" fill="#D9D9D9"/>
</mask>
<g mask="url(#mask0_969_643)">
<path d="M19.4236 33.4558C17.8719 33.4558 17.0651 32.5558 17.0651 31.0507V27.0835H15.6323V25.5318H17.0702V23.5456L18.9478 23.0801V25.5318H20.9185V27.0835H18.9426V30.8851C18.9426 31.4851 19.2116 31.7437 19.8167 31.7437C20.2232 31.745 20.6293 31.7191 21.0322 31.6662V33.2489C20.507 33.3857 19.9664 33.4552 19.4236 33.4558Z" fill="#001464"/>
<path d="M26.6547 33.3542V28.5284C26.6547 27.6233 26.3547 27.0698 25.3668 27.0698C24.2341 27.0698 23.753 28.2698 23.753 29.2319V33.3697H21.8755V22.5078H23.753V26.3612C24.0033 26.0336 24.3269 25.7693 24.6979 25.5896C25.069 25.4099 25.477 25.3199 25.8892 25.3267C27.5599 25.3267 28.5375 26.5164 28.5375 28.125V33.3542H26.6547Z" fill="#001464"/>
<path d="M36.6114 30.0325H31.377C31.3608 30.3167 31.4034 30.6012 31.5022 30.8682C31.601 31.1352 31.7538 31.379 31.9511 31.5842C32.2592 31.8903 32.6754 32.0631 33.1097 32.0652C33.3161 32.0873 33.5249 32.065 33.722 31.9999C33.9192 31.9347 34.1001 31.8283 34.2528 31.6876C34.4349 31.505 34.5636 31.276 34.6252 31.0256H36.4304C36.3394 31.5577 36.1112 32.0569 35.7683 32.4738C35.4377 32.8383 35.0309 33.1255 34.5767 33.315C34.1226 33.5045 33.6324 33.5917 33.1407 33.5704C32.6862 33.5824 32.2337 33.5035 31.8101 33.3383C31.3864 33.1731 31 32.9249 30.6735 32.6083C30.2702 32.1927 29.9565 31.6986 29.7519 31.1568C29.5472 30.6149 29.456 30.0369 29.4839 29.4584C29.436 28.3079 29.8408 27.1846 30.6115 26.3291C30.9377 26.0027 31.327 25.7464 31.7557 25.5756C32.1843 25.4049 32.6433 25.3233 33.1045 25.336C33.662 25.3165 34.2154 25.4386 34.7129 25.691C35.2104 25.9433 35.6358 26.3177 35.9493 26.7791C36.4679 27.5927 36.7059 28.5537 36.6269 29.5153C36.6269 29.5153 36.6269 29.8773 36.6269 30.0325H36.6114ZM34.2631 27.2911C34.1115 27.1403 33.9302 27.0225 33.7309 26.9451C33.5315 26.8676 33.3182 26.8323 33.1045 26.8412C32.8501 26.8292 32.5964 26.8778 32.3644 26.983C32.1324 27.0882 31.9287 27.247 31.7701 27.4463C31.4989 27.7948 31.3547 28.2254 31.3615 28.667H34.7442C34.7611 28.166 34.5895 27.6769 34.2631 27.2963" fill="#001464"/>
<path d="M40.563 24.4985V33.3536H38.6286V24.4985H35.4683V22.6934H43.7233V24.4985H40.563Z" fill="#001464"/>
<path d="M46.9406 27.2033C45.6164 27.2033 44.9233 28.1498 44.9233 29.4119V33.3532H43.0303V25.5326H44.6234L44.7889 26.7068C44.9847 26.2944 45.3013 25.9513 45.6967 25.7231C46.0921 25.4949 46.5476 25.3924 47.0026 25.4292C47.1984 25.4295 47.3938 25.445 47.5871 25.4757V27.2757C47.3744 27.2312 47.1579 27.207 46.9406 27.2033Z" fill="#001464"/>
<path d="M53.9442 33.472C53.6246 33.4981 53.3076 33.3978 53.061 33.1929C52.8144 32.9879 52.658 32.6944 52.6252 32.3755C52.3598 32.7559 52.0024 33.063 51.5865 33.2683C51.1705 33.4735 50.7094 33.5703 50.246 33.5496C48.3839 33.5496 47.4219 32.3755 47.4219 31.0979C47.4219 29.6083 48.5805 28.7497 50.0649 28.6462L52.3666 28.4807V27.9997C52.3666 27.26 52.1132 26.7687 51.0425 26.7687C50.1736 26.7687 49.6615 27.1566 49.6149 27.8807H47.7995C47.9029 26.117 49.2994 25.3359 51.0425 25.3359C52.3821 25.3359 53.5252 25.7601 53.9752 26.929C54.1489 27.4378 54.2261 27.9746 54.2028 28.5118V31.4134C54.2028 31.7755 54.3218 31.9307 54.6373 31.9307C54.7192 31.9294 54.8008 31.919 54.8804 31.8996V33.2807C54.5923 33.4322 54.2695 33.5053 53.9442 33.4927V33.472ZM52.3666 29.8979L50.3805 30.0324C50.0956 30.0252 49.8192 30.1292 49.6097 30.3223C49.4002 30.5154 49.2741 30.7824 49.2581 31.0669C49.2652 31.2047 49.2999 31.3396 49.36 31.4638C49.4202 31.588 49.5045 31.6989 49.6081 31.79C49.7117 31.8811 49.8325 31.9505 49.9634 31.9942C50.0943 32.0379 50.2325 32.055 50.3701 32.0445C51.5391 32.0445 52.3666 31.4134 52.3666 30.2548V29.8979Z" fill="#001464"/>
<path d="M60.8334 33.3528L60.7144 32.4942C60.463 32.8359 60.1303 33.1094 59.7464 33.2901C59.3626 33.4707 58.9397 33.5527 58.5162 33.5287C57.8226 33.5349 57.1483 33.301 56.6076 32.8666C55.6766 32.1011 55.2266 30.927 55.2266 29.4529C55.2266 27.9788 55.6921 26.7322 56.6231 25.9616C57.1661 25.5349 57.8413 25.3117 58.5317 25.3305C58.9094 25.2982 59.2897 25.3476 59.6467 25.4752C60.0036 25.6028 60.329 25.8057 60.6006 26.0702V22.4961H62.4782V33.358L60.8334 33.3528ZM58.8938 26.9288C58.6498 26.9249 58.4084 26.9787 58.1891 27.0856C57.9698 27.1926 57.7789 27.3497 57.6317 27.5443C57.2591 28.1028 57.0776 28.767 57.1145 29.4374C57.0775 30.1126 57.2589 30.7818 57.6317 31.346C57.7789 31.5406 57.9698 31.6977 58.1891 31.8046C58.4084 31.9116 58.6498 31.9653 58.8938 31.9615C60.3679 31.9615 60.6679 30.5649 60.6679 29.4374C60.6679 28.3098 60.3679 26.9288 58.8938 26.9288Z" fill="#001464"/>
<path d="M70.6505 30.033H65.4213C65.4044 30.3168 65.4462 30.6011 65.5441 30.8681C65.642 31.1351 65.7938 31.379 65.9902 31.5847C66.2983 31.8908 66.7145 32.0636 67.1488 32.0657C67.3553 32.0888 67.5643 32.067 67.7616 32.0018C67.9589 31.9366 68.1398 31.8296 68.2919 31.6881C68.4757 31.5067 68.6048 31.2773 68.6643 31.0261H70.4746C70.3837 31.5582 70.1555 32.0574 69.8126 32.4743C69.4812 32.8392 69.0735 33.1266 68.6185 33.3161C68.1634 33.5056 67.6723 33.5926 67.1799 33.5708C66.7253 33.5829 66.2728 33.504 65.8492 33.3388C65.4255 33.1736 65.0391 32.9254 64.7126 32.6088C64.3101 32.1961 63.9957 31.7059 63.7885 31.168C63.5814 30.63 63.4857 30.0556 63.5075 29.4795C63.4574 28.3188 63.8705 27.1858 64.6557 26.3296C64.9818 26.003 65.3711 25.7464 65.7998 25.5757C66.2285 25.4049 66.6875 25.3235 67.1488 25.3365C67.7081 25.3147 68.2637 25.4358 68.7633 25.6882C69.2628 25.9407 69.6898 26.3163 70.0039 26.7796C70.5193 27.5941 70.752 28.5557 70.666 29.5157C70.666 29.5157 70.666 29.8778 70.666 30.033H70.6505ZM68.3229 27.2968C68.1665 27.1436 67.9801 27.0245 67.7753 26.947C67.5705 26.8696 67.3519 26.8355 67.1333 26.8468C66.8811 26.8371 66.6302 26.8862 66.4004 26.9904C66.1705 27.0945 65.9681 27.2508 65.8092 27.4468C65.5395 27.7958 65.3971 28.2265 65.4057 28.6675H68.7936C68.8042 28.1675 68.6333 27.6805 68.3126 27.2968" fill="#001464"/>
<path d="M78.8902 32.2101C78.4951 32.593 78.0265 32.8918 77.5126 33.0883C76.9987 33.2847 76.4503 33.3749 75.9006 33.3532H71.7627V22.693H75.9006C76.4496 22.67 76.9975 22.7585 77.5114 22.9532C78.0252 23.1479 78.4943 23.4447 78.8902 23.8258C79.9919 24.9533 80.1419 26.5309 80.1419 28.005C80.1419 29.4791 79.9919 31.0722 78.8902 32.1998V32.2101ZM77.4057 25.0361C77.2067 24.8419 76.9713 24.6889 76.713 24.5859C76.4547 24.4829 76.1786 24.432 75.9006 24.4361H73.692V31.6101H75.9006C76.1789 31.6133 76.4552 31.5614 76.7134 31.4576C76.9717 31.3537 77.207 31.1999 77.4057 31.005C78.1557 30.255 78.1712 28.9929 78.1712 28.0154C78.1712 27.0378 78.1712 25.7861 77.4057 25.0361Z" fill="#001464"/>
<path d="M87.8072 30.0329H82.5779C82.5611 30.3167 82.6029 30.601 82.7008 30.868C82.7987 31.135 82.9505 31.3789 83.1469 31.5846C83.455 31.8907 83.8712 32.0635 84.3055 32.0656C84.512 32.0886 84.721 32.0669 84.9183 32.0017C85.1156 31.9365 85.2965 31.8295 85.4486 31.688C85.6323 31.5058 85.7629 31.2769 85.8262 31.0259H87.6262C87.539 31.5592 87.3103 32.0594 86.9641 32.4742C86.6341 32.8395 86.2274 33.1273 85.7732 33.3168C85.3189 33.5064 84.8283 33.5931 84.3365 33.5707C83.882 33.5828 83.4295 33.5039 83.0059 33.3387C82.5822 33.1735 82.1958 32.9253 81.8693 32.6087C81.4689 32.1914 81.1577 31.6969 80.955 31.1553C80.7522 30.6137 80.662 30.0364 80.69 29.4587C80.6421 28.3083 81.0469 27.1849 81.8176 26.3295C82.1445 26.0041 82.534 25.7484 82.9625 25.5777C83.391 25.407 83.8496 25.3249 84.3107 25.3364C84.8699 25.3151 85.4254 25.4364 85.9248 25.6888C86.4243 25.9412 86.8513 26.3166 87.1658 26.7795C87.6793 27.5946 87.9102 28.5562 87.8227 29.5156C87.8227 29.5156 87.8227 29.8777 87.8227 30.0329H87.8072ZM85.4796 27.2967C85.3232 27.1435 85.1368 27.0244 84.932 26.9469C84.7272 26.8695 84.5086 26.8353 84.29 26.8467C84.0377 26.8362 83.7865 26.8849 83.5566 26.9892C83.3266 27.0934 83.1243 27.2501 82.9659 27.4467C82.6962 27.7957 82.5538 28.2264 82.5624 28.6674H85.9451C85.9557 28.1673 85.7848 27.6804 85.4641 27.2967" fill="#001464"/>
<path d="M95.9121 22.4961V33.3528H97.7948V31.2942L99.0414 29.9443L101.234 33.3528H103.417L100.319 28.5581L103.117 25.5323H100.753L97.7948 28.7081V22.4961H95.9121Z" fill="#001464"/>
<path d="M92.7728 28.7194C92.0021 28.6004 91.8055 28.5849 91.1021 28.497C90.678 28.4349 90.1969 28.2694 90.1969 27.716C90.2009 27.5326 90.261 27.3549 90.3692 27.2069C90.4775 27.0589 90.6286 26.9477 90.8021 26.8884C91.0613 26.7917 91.3381 26.7512 91.6142 26.7694C91.9914 26.7554 92.3603 26.8827 92.6486 27.1263C92.845 27.3231 92.958 27.588 92.9641 27.866H94.7538C94.732 27.263 94.4868 26.6896 94.0658 26.2574C93.7394 25.9479 93.3543 25.7071 92.9332 25.5489C92.5121 25.3908 92.0636 25.3186 91.6142 25.3367C90.7552 25.307 89.9136 25.5838 89.24 26.1177C88.9839 26.3332 88.7797 26.6037 88.6427 26.9091C88.5057 27.2145 88.4394 27.5469 88.4487 27.8815C88.4635 28.3788 88.6489 28.8558 88.9738 29.2326C89.2988 29.6093 89.7434 29.8628 90.2331 29.9504C90.9262 30.1004 91.7073 30.147 92.4003 30.2504C92.6117 30.2623 92.8104 30.3547 92.9557 30.5087C93.1009 30.6626 93.1817 30.8663 93.1814 31.078C93.1814 31.9314 92.2193 32.0711 91.5883 32.0711C91.1629 32.1032 90.7402 31.9801 90.3987 31.7245C90.1836 31.5299 90.0428 31.2666 90.0004 30.9797H88.2314C88.2934 31.6095 88.5842 32.1947 89.0487 32.6245C89.732 33.2453 90.6293 33.5772 91.5521 33.5504C92.5295 33.6127 93.492 33.2875 94.2314 32.6452C94.4539 32.4205 94.6282 32.1528 94.7439 31.8584C94.8595 31.5641 94.9139 31.2493 94.9038 30.9332C94.9038 29.697 94.0038 28.916 92.7728 28.7194Z" fill="#001464"/>
<path d="M3.08398 22V24.0224H5.14775V29.293H7.1391V23.9914V22H3.08398Z" fill="#001464"/>
<path d="M1.99294 28.8223C1.98947 28.0776 2.18705 27.3457 2.56484 26.7039C2.94263 26.0621 3.48663 25.5342 4.13946 25.1758H1.20157C0.626061 25.9547 0.242993 26.8588 0.0836587 27.8141C-0.0756752 28.7693 -0.00675472 29.7488 0.28479 30.6723C0.576334 31.5959 1.08223 32.4374 1.76115 33.1281C2.44007 33.8187 3.27276 34.339 4.19118 34.6463V32.4895C3.52561 32.1363 2.96911 31.6081 2.58171 30.9618C2.19432 30.3155 1.99074 29.5758 1.99294 28.8223Z" fill="#001464"/>
<path d="M8.13241 23.0078V25.175C9.04375 25.6399 9.75059 26.4259 10.1165 27.3813C10.4823 28.3367 10.4813 29.3937 10.1136 30.3484C9.74585 31.3031 9.03749 32.0877 8.12524 32.5508C7.21299 33.0139 6.16153 33.1226 5.17383 32.8559V34.8835C5.50224 34.9359 5.83434 34.9619 6.16692 34.9611C7.62115 34.9592 9.0275 34.4411 10.1355 33.4992C11.2434 32.5573 11.9811 31.2527 12.217 29.8177C12.453 28.3827 12.1719 26.9106 11.4239 25.6635C10.6759 24.4164 9.50946 23.4753 8.13241 23.0078Z" fill="#001464"/>
<path d="M104.276 26.0029C104.18 26.0037 104.085 25.9851 103.996 25.9483C103.907 25.9115 103.826 25.8573 103.759 25.7888C103.691 25.7203 103.638 25.6389 103.603 25.5496C103.567 25.4602 103.55 25.3646 103.552 25.2685C103.554 25.1257 103.598 24.9867 103.679 24.869C103.76 24.7513 103.874 24.6601 104.006 24.6069C104.139 24.5537 104.284 24.5408 104.424 24.5699C104.563 24.599 104.691 24.6688 104.792 24.7704C104.892 24.8721 104.96 25.0011 104.987 25.1413C105.014 25.2815 104.999 25.4265 104.944 25.5583C104.889 25.69 104.796 25.8025 104.677 25.8816C104.558 25.9607 104.419 26.0029 104.276 26.0029ZM104.276 24.6581C104.196 24.6558 104.117 24.6702 104.043 24.7003C103.969 24.7304 103.902 24.7757 103.846 24.8331C103.791 24.8906 103.748 24.9589 103.721 25.0339C103.693 25.1089 103.681 25.1888 103.686 25.2685C103.686 25.4249 103.749 25.5748 103.859 25.6854C103.97 25.796 104.12 25.8581 104.276 25.8581C104.432 25.8581 104.582 25.796 104.693 25.6854C104.804 25.5748 104.866 25.4249 104.866 25.2685C104.871 25.1888 104.859 25.1089 104.832 25.0339C104.804 24.9589 104.761 24.8906 104.706 24.8331C104.65 24.7757 104.583 24.7304 104.509 24.7003C104.435 24.6702 104.356 24.6558 104.276 24.6581ZM104.436 25.6409L104.312 25.3771H104.162V25.6616H104.028V24.8599H104.307C104.342 24.8554 104.376 24.8584 104.41 24.8686C104.443 24.8788 104.473 24.896 104.499 24.9191C104.525 24.9421 104.546 24.9704 104.56 25.0022C104.574 25.0339 104.582 25.0682 104.581 25.103C104.583 25.1498 104.571 25.1961 104.546 25.2357C104.521 25.2754 104.485 25.3067 104.442 25.3254L104.586 25.6305L104.436 25.6409ZM104.307 24.9943H104.157V25.2323H104.307C104.39 25.2323 104.442 25.1961 104.442 25.1133C104.442 25.0963 104.438 25.0794 104.431 25.0639C104.424 25.0483 104.414 25.0345 104.401 25.0232C104.389 25.0119 104.374 25.0035 104.357 24.9985C104.341 24.9935 104.324 24.9921 104.307 24.9943Z" fill="#001464"/>
</g>
</svg>
