<svg id="Logo_FIXED" data-name="Logo FIXED" xmlns="http://www.w3.org/2000/svg" viewBox="0 0 250 203.1"><path d="M153.6,304.8c94.4,0,146-78.1,146-145.9,0-2.2,0-4.5-.2-6.7A104.1,104.1,0,0,0,325,125.7a104.3,104.3,0,0,1-29.5,8.1,51.4,51.4,0,0,0,22.6-28.4,100.9,100.9,0,0,1-32.6,12.4,51.3,51.3,0,0,0-87.4,46.8A145.2,145.2,0,0,1,92.4,111a51.3,51.3,0,0,0,15.9,68.5A49.9,49.9,0,0,1,85,173.1v.6A51.3,51.3,0,0,0,126.2,224a50.6,50.6,0,0,1-23.2.9,51.3,51.3,0,0,0,47.9,35.6,103,103,0,0,1-63.7,22,99.8,99.8,0,0,1-12.2-.7,145.9,145.9,0,0,0,78.6,23" transform="translate(-75 -101.7)" style="fill:#00c8ff"/></svg>