<svg id="svg2" xmlns="http://www.w3.org/2000/svg" viewBox="0 0 938.73 242.56"><defs><style>.cls-1{fill:#797979;}</style></defs><title>ubisoft_grey</title><g id="layer1"><g id="g3069"><path id="path3021" class="cls-1" d="M326.64,394.48v71.74c0,29.13,19.86,47.69,48.78,47.69,30.42,0,49-19.58,49-49.66V394.48H398.71v68.46c0,16.4-8.26,26.58-23,26.58-16.17,0-23.3-11.7-23.3-25.27V394.48Z" transform="translate(-30.64 -336.09)"/><path id="path3023" class="cls-1" d="M437,395.47V512.74h41c22.72,0,42-11.58,42-34.56,0-24-21-29.3-21-29.3s15.54-4.31,15.54-24.83S494.91,395.47,478,395.47Zm25.94,22.27h12.44c8.64,0,14.17,4.55,14.17,12.47,0,7.09-4.69,12.43-13.51,12.43h-13.1Zm0,43.24h13.75c12.94,0,17.43,6.65,17.43,14.58,0,9.23-5.8,14.64-16.12,14.64H462.92Z" transform="translate(-30.64 -336.09)"/><path id="path3025" class="cls-1" d="M529.74,395.46h25.88V512.74H529.74Z" transform="translate(-30.64 -336.09)"/><path id="path3027" class="cls-1" d="M812.12,512.74H786.24V395.46h81.24V419.7H812.12v26.86h50.45v19.66H812.12Z" transform="translate(-30.64 -336.09)"/><path id="path3029" class="cls-1" d="M877,395.46V419.7H910.4v93h26.2v-93h32.76V395.46Z" transform="translate(-30.64 -336.09)"/><path id="path3031" class="cls-1" d="M585.17,473.74l-20.56,15s7.1,26,42.72,26c23.71,0,41.16-13.84,41.16-38.17,0-39.21-54.83-30.89-54.83-51.06,0-5.31,4.72-10,13.43-10,14,0,19.29,13.71,19.29,13.71l20.56-14.44s-8-21.41-38.81-21.41c-25.3,0-38.74,16.23-38.74,33,0,40,53.23,31.29,53.23,52.26,0,7.08-5.58,12.28-14.26,12.22-17.21,0-23.19-17.11-23.19-17.11Z" transform="translate(-30.64 -336.09)"/><path id="path3033" class="cls-1" d="M715.32,393.34c-30.48,0-44.06,16.54-44.06,16.54l3.93,3.93s-19.72,14-19.72,44.08c0,34.61,26.69,56.84,60,56.84,38.69,0,60.65-28.55,60.65-60.65C776.11,419.86,751,393.34,715.32,393.34Zm.55,24.34c20.67,0,34.07,15.79,34.07,36.3,0,20.3-13.24,36.53-34.07,36.53-20.57,0-34.09-14.37-34.09-33.44,0-17.35,11.76-24.91,11.76-24.91l-4.26-4.26S698.34,417.68,715.87,417.68Z" transform="translate(-30.64 -336.09)"/></g></g><path id="path3049" class="cls-1" d="M140.59,336.09c-75.3,0-107.81,67-107.81,67L42.35,410a120.79,120.79,0,0,0-11.71,52.26c0,59.95,47.73,116.42,118,116.42,63.81,0,116.53-51.94,116.53-116.27,0-83.9-65.06-126.29-124.56-126.29Zm.65,20.46c58.83,0,104.48,47.4,104.48,102.52,0,58.43-43.94,99.06-95.14,99.06-37.69,0-71.69-28.7-71.69-68.05,0-22.73,12.08-38.57,25.62-47l2,2.15c-3.71,2.9-14.27,19.87-14.27,36.55,0,31,24.28,52.4,54.87,52.4,39,0,64.95-33.24,64.95-71.82,0-44.9-39.63-83-87.32-83-26.38,0-48.77,11.34-61.63,21.35l-2-1.81c16.83-25.95,46-42.32,80.15-42.32Zm-17.56,42.94c30.44,0,60.15,20.14,67.57,48.72l-2.7,1c-13.32-17.59-35.14-32.16-60.9-32.16-47.42,0-72.32,43.08-68.66,79.07l-2.79,1A68.24,68.24,0,0,1,51,471.9c0-39.68,32.58-72.41,72.72-72.41Zm20.12,49.8a25.84,25.84,0,0,1,25.93,25.54,26.3,26.3,0,0,1-7.36,18.27l8.72,6.1a32.43,32.43,0,0,1-26.31,13.59,31.91,31.91,0,0,1-31.83-32c0-18.89,16.25-31.53,30.85-31.53Z" transform="translate(-30.64 -336.09)"/></svg>