<svg width="75" height="26" viewBox="0 0 75 26" fill="none" xmlns="http://www.w3.org/2000/svg">
<path d="M5.71962 0.388875H15.1811L10.2162 17.0825C9.86767 18.2535 10.6071 19.2194 11.8252 19.2194C13.0437 19.2194 14.298 18.2535 14.646 17.0825L19.611 0.388875L28.001 0.388672L22.2682 21.7284C21.7622 23.6108 19.7515 25.1514 17.7998 25.1514H3.28404C0.964668 25.1514 -0.441218 23.3211 0.159974 21.0829L5.71962 0.388875Z" fill="#7C7D7D"/>
<path d="M38.5244 9.50708V9.50729H48.2404L46.4755 15.2874H36.7562L34.0581 25.1511H24.9238L29.3902 9.50708H38.5244Z" fill="#7C7D7D"/>
<path d="M57.4286 0.138062H69.7851C71.5927 0.138062 74.6608 1.58627 74.0329 3.88931L73.7856 4.79606H62.7592C62.1928 4.79606 61.6035 5.25022 61.4504 5.80501L58.0236 18.2145C57.8705 18.7694 58.2085 19.2233 58.775 19.2233H69.8514L69.0483 22.168C68.5834 23.874 66.7505 25.2774 64.9438 25.2774H51.899C49.5998 25.2774 48.1873 23.4969 48.7604 21.3216L53.5714 3.05944C53.9946 1.4525 55.7304 0.138062 57.4286 0.138062Z" fill="#7C7D7D"/>
<path d="M49.2155 6.13395H39.5195L39.5146 6.15062H30.3804L32.1377 0.0789795C38.4136 0.0789795 44.6895 0.0789795 50.9648 0.0789795L49.2155 6.13395Z" fill="#7C7D7D"/>
</svg>
