<?xml version="1.0" encoding="utf-8"?>
<!-- Generator: Adobe Illustrator 23.0.6, SVG Export Plug-In . SVG Version: 6.00 Build 0)  -->
<svg version="1.1" id="Layer_1" xmlns="http://www.w3.org/2000/svg" xmlns:xlink="http://www.w3.org/1999/xlink" x="0px" y="0px"
	 viewBox="0 0 75 26" style="enable-background:new 0 0 75 26;" xml:space="preserve">
<style type="text/css">
	.st0{fill:#FFFFFF;}
</style>
<path class="st0" d="M5.7,0.4h9.5l-5,16.7c-0.3,1.2,0.4,2.1,1.6,2.1c1.2,0,2.5-1,2.8-2.1l5-16.7l8.4,0l-5.7,21.3
	c-0.5,1.9-2.5,3.4-4.5,3.4H3.3c-2.3,0-3.7-1.8-3.1-4.1L5.7,0.4z"/>
<path class="st0" d="M38.5,9.5L38.5,9.5l9.7,0l-1.8,5.8h-9.7l-2.7,9.9h-9.1l4.5-15.6H38.5z"/>
<path class="st0" d="M57.4,0.1h12.4c1.8,0,4.9,1.4,4.2,3.8l-0.2,0.9h-11c-0.6,0-1.2,0.5-1.3,1L58,18.2c-0.2,0.6,0.2,1,0.8,1h11.1
	L69,22.2c-0.5,1.7-2.3,3.1-4.1,3.1h-13c-2.3,0-3.7-1.8-3.1-4l4.8-18.3C54,1.5,55.7,0.1,57.4,0.1z"/>
<path class="st0" d="M49.2,6.1h-9.7l0,0h-9.1l1.8-6.1c6.3,0,12.6,0,18.8,0L49.2,6.1z"/>
</svg>
