<svg id="Layer_1" data-name="Layer 1" xmlns="http://www.w3.org/2000/svg" viewBox="0 0 107.52 119"><defs><style>.cls-1{fill:#fff;}</style></defs><path class="cls-1" d="M13.9,104.6a22.88,22.88,0,0,1-.8-2.8c-.3-2.1.8-3.4,1.8-3.7s1.5.3,2,1.5a29,29,0,0,1,.4,8.3C17,113,14.4,119.1,8.1,119c-5.4-.1-7.8-3.6-8.1-9a25.13,25.13,0,0,1,1.1-8.6c.6-1.9,1.1-2.6,2.8-3,1.4-.3,1.2,1.2.9,2.8a31.57,31.57,0,0,0-.7,9.7c.2,4.4,2.3,6.2,4.5,6.2,3.3.1,4.8-2.7,5.4-6.7A11.39,11.39,0,0,0,13.9,104.6Zm71,4.4c1.3,0,1.7,1.5,1.4,2.5a4.06,4.06,0,0,1-3.2,2.3C82.8,112.8,82.6,109,84.9,109Zm-24.1,2.1c0-1-.6-1.9-1.2-1.9s-1.8.6-1.8,2.6a3.53,3.53,0,0,0,.8,2.6A3.29,3.29,0,0,0,60.8,111.1ZM41.6,98.5a1.86,1.86,0,0,0-1.9-1.7,2.61,2.61,0,0,0-2.2,2.7h0a2,2,0,0,0,1.8,1.9h.1C40.7,101.5,41.7,99.9,41.6,98.5Zm10,3.6c-.1-1.7-.5-2.5-1.5-2.4-1.2.1-1.8,4-1.5,8,.2,2.7.6,3.1.9,3,.7,0,2.4-4.7,2.1-8.6Zm40.9,6.5c-.8,3.2-3.1,7.8-6.5,7.8-.8,0-2.2-.3-2.2-1.1s5.4-1,5.4-5.1a4,4,0,0,0-3.5-3.7c-2.8,0-5.5,3-5.5,7.2,0,3.8,2.3,5,4.7,5,4.1,0,6.5-3.3,7.8-6.1.6,1.8,1,6.1,2.5,6.1.6,0,1-.3,1.8-2,1.8-4.1,3.6-8.9,6.1-8.9.9,0,.4,1.7,2.6,1.7a1.79,1.79,0,0,0,1.8-1.8h0c0-1.4-1.3-2.5-3.3-2.5-5.8,0-7,8.7-8,8.7-1.5,0-1-7-2.2-7s-1.3,1.2-1.5,1.7ZM43.2,116a4.38,4.38,0,0,0,3.8-2.3,24.74,24.74,0,0,1-1.3-6c-.4-6,1.9-11.6,4.5-11.8,1.8-.1,3.3,1.6,3.5,4.5.5,7.4-2,10.6-3.3,13.3a4.53,4.53,0,0,0,3.6,2.8,2,2,0,0,0,1.5-.6,5.66,5.66,0,0,1-.3-1.8c0-4.3,2.8-8,5.2-8,1.9,0,3,2.5,3,4.2,0,2-1.7,3.6-4.1,5.1a2.64,2.64,0,0,0,1.9.7c3.5,0,5.4-4.3,6.7-8.2.3-.7.7-1.8,1.6-1.8,1.5,0,2.1,9.8,4.6,9.8,1,0,1.9-2.2,1.9-3.8,0-1.2-.4-1.4-.4-3.2,0-2,1.1-3.6,2.5-3.6.9,0,1.2.9,1.2,1.9,0,4-2.8,11.3-7,11.3-3.2,0-2.9-5.4-4-5.4s-3,5.5-9.1,5.5a3.8,3.8,0,0,1-2.9-1.5,6.77,6.77,0,0,1-4.1,1.4c-2.3,0-3.3-2.3-4.2-2.3-1.1,0-2.3,2.4-6.1,2.4-3,0-3.5-3.9-4.5-3.9s-2.3,3.9-3.9,3.9c-2.6,0-3.1-6.8-5.4-6.8-1.8,0-7.5,7-9,6.8a.88.88,0,0,1-.8-1.1c.3-1.4.7-2.8,1.1-4.2.5-1.9,1-3.9,1.2-4.6a1.63,1.63,0,0,1,1.5-1.1c.3,0,.4.6.5,1,.3,1.5.7,3.1,1.2,3.1.9,0,3.7-5.5,5.4-5.5,2,0,2.3,8.6,5.1,8.6.9,0,1.6-1.1,2.2-2.5.1-2.3.7-5.6,2.5-5.6,1.3,0,1.9,2.9,1,5.4-.1,3.2,1.9,3.9,3.2,3.9" transform="translate(0.02)"/><path class="cls-1" d="M86.2,19.3a1.49,1.49,0,0,1-1.5-.7c-.3-.6-.2-1.5-.8-2a8.75,8.75,0,0,0,1.6.2c1.5,0,2.9-1,4-1a.82.82,0,0,1,1,.7v.2C90.5,18.1,87.6,19.3,86.2,19.3Zm.7,3.7c3.4,0,6.5-2.7,6.5-5.1a2,2,0,0,0-1.8-2.2h-.1a1.69,1.69,0,0,1,.3,1c0,1.8-2.7,3.8-5.7,3.8a1.24,1.24,0,0,0-1.4,1.1v.1c.1.9.9,1.3,2.2,1.3Zm-.2,1.3c.4,3.1,5.1,7.3,6.4,7.2.9-.1,1.2-4.1,1.2-7.2,0-1.8.1-3.2-.9-3.5-1.5,3-5.5,3.7-6.7,3.5" transform="translate(0.02)"/><path class="cls-1" d="M12.9,44.9c1.1,0,.9-6.8,2.7-6.8.4,0,.5.4.5,1,0,1.5-.8,3.8-.8,5,0,.6.2.8.5.8.8,0,2.2-7.5,3.5-7.5.4,0,.6.4.6.8,0,1.6-2,6.1-2,7.4,0,.2.1.4.2.4.8,0,2.5-3.5,3-5.3.3-.9.7-1.4,1-1.4s.6.4.6,1.1c0,1.8-1.6,5.9-3.1,8.7-1.1,2.2-2.9,5.3-2.9,7A3.7,3.7,0,0,0,18.1,59c-2.1-.1-2.9-.3-3.7-2-3.5,7,6.4,6.3,3,12.5-.6-1.1-5.5-2.3-5.5-8.7,0-5.6,4.9-8.9,4.9-11.2a1.43,1.43,0,0,0-.6-1.2c-1.1-.9-1.1-1.7-2-1.7-.6,0-1.4,1.4-.6,2.7a1.82,1.82,0,0,1,.5,1.1c0,.9-1.4,3.4-2.5,3.4s-1.8-2.5-1.8-6.6c0-3.6.8-7.2,1.8-7.2.3,0,.4.2.4.5s-.1,1.3-.1,2.7.7,1.6,1,1.6" transform="translate(0.02)"/><path class="cls-1" d="M21.3,54.5c1.4,0,2.5-1,2.5-3.3V47.9a5.49,5.49,0,0,1,1-3.7,5.7,5.7,0,0,0-.1,1.3c0,2.8,1.6,4.8,1.6,7.5,0,1-.3,1.6-1.1,1.6s-.7-.7-.9-.7-.3.4-.3.8a1.79,1.79,0,0,0,1.8,1.8h.1a2.31,2.31,0,0,0,2.2-2.3c0-3-2.3-6.2-2.3-9.4a7.65,7.65,0,0,1,.6-3c0,6.5,5.5,11.3,5.5,14a1.11,1.11,0,0,1-1.1,1.1h-.1a1,1,0,0,1-1.1-1h0c0-.2,0-.3-.1-.3a1.76,1.76,0,0,0-.8,1.5,2.45,2.45,0,0,0,2.5,2.4h0a2.9,2.9,0,0,0,2.9-2.9v-.1c0-3.4-6.7-8.7-6.7-14.2a8.08,8.08,0,0,1,.9-3.7c-4.3,2.8-5.7,6.5-5.7,9.7,0,2.8-.1,4.2-1.5,4.2-.8,0-1-.7-1.2-.7s-.3.6-.3.8a1.74,1.74,0,0,0,1.7,1.9h0" transform="translate(0.02)"/><path class="cls-1" d="M70.9,17.6c.4-.3,2.3.2,4.7-1a3.09,3.09,0,0,1,.8-.2c1.2,0,.8,1.3,1.9,1.3.8,0,1.9-.7,2.5-.7,1,0,2.4,3.1,2.4,4.5,0,1.7-2.5,2.7-5.5,2.7a7,7,0,0,1-7-6.3C70.7,17.8,70.8,17.7,70.9,17.6ZM78,21.8c1.4,0,2.5-.7,2.5-1,0-.1-.2-.2-.6-.2a14.28,14.28,0,0,1-2.9-.3c-1.4-.2-2.4-.8-2.8-.8a.22.22,0,0,0-.2.2c0,.8,1.6,2.2,4,2.1" transform="translate(0.02)"/><path class="cls-1" d="M22,66.9c-1.1.3-2.8,2-2.8,4.7,0,3.2,3.4,8.2,9.1,8.2,4.8,0,6-3.3,6-5.5,0-5-3-8.4-7-8.4a4,4,0,0,0-4.1,3.9,5.44,5.44,0,0,0,5.4,5.4,2.78,2.78,0,0,0,2.9-2.6v-.2a3.74,3.74,0,0,0-3.3-3.5.94.94,0,0,0-1,1c0,.8,1.1,1.6,2.4,1.6a1.7,1.7,0,0,0,.7-.1.6.6,0,0,1,.1.4c0,.8-.7,1.2-1.8,1.2a3.29,3.29,0,0,1-3.3-3.1v-.1c0-1.2,1-2,2.5-2,2.9,0,4.6,2.6,4.6,5.2,0,2.3-1.3,3.7-3.9,3.7-5.1-.3-7.7-5.1-6.5-9.8" transform="translate(0.02)"/><path class="cls-1" d="M59.3,86.1a13.4,13.4,0,0,0,2-.1c.5,0,.5.3.5.5,0,.7-1.6,1.6-4.5,1.6a2.91,2.91,0,0,1-3-1.9,12.77,12.77,0,0,1-6.6,2c-6.7,0-8.4-2.9-10.5-3.9-1.6-.7-4.1.7-7.5-3.1a8.08,8.08,0,0,0,1.6.1c3,0,4.6-1.5,4.6-3.8a2.77,2.77,0,0,0-.1-.9,6.26,6.26,0,0,1,3.5,4.7c.1.3,1.4.6,2.3.6a2.62,2.62,0,0,0,2.9-2.4h0c3.9-.3,6.6-2.7,7.1-5.6A8.14,8.14,0,0,1,55,76.3a6.45,6.45,0,0,1,2-.3,10.88,10.88,0,0,1,3.6.6c.1-.4.1-.9.8-.9,1,0,.7,1.1,1,1.7.2.3,1,.5,1,1.2a.79.79,0,0,1-.8.8h0a.6.6,0,0,1-.4-.1c-.7.2-.7,5-3.4,5-2,0-3.9-1.7-4.7-3.8a1.55,1.55,0,0,0-1.2-1c-.5,0-.8.1-1.4.8a11.57,11.57,0,0,1-8.4,3.6c-1.1,0-2-.1-2.2-.1s-.1,0-.1.1S41.9,85,44.3,85c5.8,0,7.2-3.2,8.1-3.2a1,1,0,0,1,.8.5A6.61,6.61,0,0,0,59.3,86.1Zm-2.5-6.6a1.3,1.3,0,1,0,1.3-1.3h0a1.32,1.32,0,0,0-1.3,1.3" transform="translate(0.02)"/><path class="cls-1" d="M82.8,63.2c-.5,0-1,.4-1,1.3a1.92,1.92,0,0,0,1.3,1.8,1.69,1.69,0,0,0,1,.3c.9,0,1.7-.3,1.7-1A3.23,3.23,0,0,0,82.8,63.2Zm-3.6,2c-.7,0-4.5,5.1-7,5.1-.6,0-1.1-1.1-1.1-2,0-.5.3-.8,1.3-1,5.6-1.3,4.4-5.5,9.2-5.5a5.42,5.42,0,0,1,5.6,5.4v.5c0,4.3-6.2,9.7-7.1,9.7s-1.6-1.1-1.6-1.8c0-.2.1-.5.8-.8,3.1-1.3,4.9-4.1,4.9-5.6a.56.56,0,0,0-.5-.6h-.1C83,68.6,80.7,74,78,74c-1.8,0-3.7-1.7-3.7-2.4,0-1.3,5.3-3.7,5.3-5.6.2-.8-.2-.9-.4-.8" transform="translate(0.02)"/><path class="cls-1" d="M14.4,22.3a4,4,0,0,1-2.1.7,2.39,2.39,0,0,1-2.5-2.4v-.1a2.87,2.87,0,0,1,1.7-2.6v.5A3.85,3.85,0,0,0,14.4,22.3Zm7,6.3a6.67,6.67,0,0,0-1.5,3.8,2.9,2.9,0,0,0,2.8,3.2c1.7,0,2.4-1.4,2.4-2.8A4.94,4.94,0,0,0,21.4,28.6ZM10.5,29.9c-.1.1-.1.2-.1.4a.65.65,0,0,0,.6.6c.3,0,.4-.1.6-.1.8,0,1.7.6,3,.6a5,5,0,0,0,2.7-.8A6.41,6.41,0,0,0,20.5,26c0-.6-.5-.5-.9-1.1s-.3-1.1-.5-1.3a2.54,2.54,0,0,0-1.2-.2h-.7a7.21,7.21,0,0,0-3.8,1C10.6,26.1,11,29.1,10.5,29.9Zm7.7-4.1c.2.3.9.7.9.9a.91.91,0,0,1-.8,1c-1.1,0-2.1-1.7-2.1-2.7,0-.6.4-.7.9-.7a.9.9,0,0,1,.5.1C17.9,24.7,17.9,25.3,18.2,25.8Zm-3,4A2.68,2.68,0,0,1,13,27.2c0-.6.5-1.5.9-1.5.1,0,.2.1.2.3a3.65,3.65,0,0,0,2.2,3c.1.1.2.1.2.2-.1.3-.7.6-1.3.6ZM18,21.5a6.28,6.28,0,0,0,.3-1.9c0-1.6-.7-4-2.9-4a2.22,2.22,0,0,0-2.2,2.2v.1C13.2,20.5,15.8,21.5,18,21.5ZM9.5,34.7c0,2.5.8,3.7,2.1,3.7,1.1,0,2.5-.8,4.1-2.2a16.68,16.68,0,0,1-3.1.5A3.73,3.73,0,0,1,9.5,34.7Zm1.2-3v.5c0,1.5.8,2.4,1.9,2.4A3.47,3.47,0,0,0,15.2,33a4.87,4.87,0,0,1-1.2.1A3.77,3.77,0,0,1,10.7,31.7Zm8-.4A3,3,0,0,0,16.4,34a1.92,1.92,0,0,0,1.9,2h.2a2.77,2.77,0,0,0,1.3-.3,3.78,3.78,0,0,1-1.2-2.8,2.86,2.86,0,0,1,.1-1.6Zm1.2-9A1.3,1.3,0,1,0,21.2,21h0a1.32,1.32,0,0,0-1.3,1.3Zm1.7,2.9a1.3,1.3,0,1,0,1.3-1.3h0a1.26,1.26,0,0,0-1.3,1.3" transform="translate(0.02)"/><path class="cls-1" d="M72.7,41.3a1.22,1.22,0,0,1,1.2-1.2,1.2,1.2,0,0,1,0,2.4c-.7.1-1.2-.4-1.2-1.2ZM61.2,31.2a1.3,1.3,0,1,0,1.3-1.3,1.32,1.32,0,0,0-1.3,1.3Zm-1.1,4.7A1.9,1.9,0,1,0,62,34h0A1.84,1.84,0,0,0,60.1,35.9Zm4.1-2.1a2,2,0,1,0,2-2A2,2,0,0,0,64.2,33.8Zm.1-4.3a1.2,1.2,0,1,0,2.4,0,1.29,1.29,0,0,0-1.2-1.2h0A1.29,1.29,0,0,0,64.3,29.5Zm6-3.1a1.25,1.25,0,1,0,1.3-1.2h0a1.13,1.13,0,0,0-1.3,1.2Zm-2.5,4a2.1,2.1,0,1,0,2.1-2.1h0a2.05,2.05,0,0,0-2.1,2.1ZM64.4,38a1.3,1.3,0,1,0,1.3-1.3h0A1.32,1.32,0,0,0,64.4,38Zm4.3-2.6A1.3,1.3,0,1,0,70,34.1h0a1.32,1.32,0,0,0-1.3,1.3ZM67.5,40a2.3,2.3,0,1,0,2.3-2.3h0A2.39,2.39,0,0,0,67.5,40Zm4.7-2.8a1.47,1.47,0,0,0,1.5,1.5,1.54,1.54,0,0,0,1.5-1.5,1.47,1.47,0,0,0-1.5-1.5h0a1.54,1.54,0,0,0-1.5,1.5Zm-.1-4.1a1.4,1.4,0,1,0,1.4-1.4h0a1.51,1.51,0,0,0-1.4,1.4" transform="translate(0.02)"/><path class="cls-1" d="M75.5,76.1a9.69,9.69,0,0,1-6.2,2.1,6.71,6.71,0,0,1-2.8-.6c-.3,0-.7.3-1.1.8a7.47,7.47,0,0,0-1.8,4.5,2.63,2.63,0,0,0,2.8,2.6h.2c6.1,0,10.7-3.8,10.7-6.9C77.3,76.8,76.2,76.1,75.5,76.1Zm-1.7-.3a1,1,0,0,0,.3-1V74c0-1-1.4-1.5-3.4-1.5-2.4,0-3.7,1.1-3.7,1.5v1.5c0,.6,1.4,1.3,3.2,1.3A5.63,5.63,0,0,0,73.8,75.8ZM73.5,79c.2,0,.4.1.4.7a2.79,2.79,0,0,1-1.5,2.4,6.53,6.53,0,0,1-3.6,1,10.27,10.27,0,0,0,.5-2.4,2.2,2.2,0,0,0-.1-.8h.4a6.63,6.63,0,0,0,3.9-.9" transform="translate(0.02)"/><path class="cls-1" d="M61,39c.4,2.8,4.1,1.4,4.1,4.8,0,.5-.1,1.2-.1,1.8s.1,1.3.6,1.3.7-.4.7-.9-.1-1.2-.1-1.5A1.4,1.4,0,0,1,67.3,43h.3c1.2,0,2.2,1.3,4.1,1.3-.4,2.1-4.8,1.5-4.8,3.8,0,1.2,1.2,1.4,1.9,1.4s.9-.1.9-.7c0-.3-.1-.7-.1-.9a.32.32,0,0,1,.3-.3h0c.7,0,4.3,2.7,4.3,3.5s-3.7,1.5-4.8,1.5c-.2,0-.4-.1-.4-.3v-.1c0-.2.6-.9.6-1.3s-.5-.5-1.8-.5c-.6,0-1.1.1-1.1.6,0,.9,1.4,2,1.4,2.8s-.4,1-1.4,1-2.2-.7-2.2-1.8c0-.9,1-1.8,1-2.4,0-.3-.2-.4-.5-.4h0c-1.2,0-1.5,3.2-5.8,3.6a3.68,3.68,0,0,0,1.3-2.7c0-.7-.2-1.3-.2-2,0-1,.5-1.5,1.1-1.5,1.2,0,1.8,1.7,2.6,1.7a1.06,1.06,0,0,0,.9-1c0-2.5-4.8-2.1-4.8-5.6A5.42,5.42,0,0,1,61,39Zm15.6,9.6c0,.8.3,1.8,1.1,1.8s1.3-1,1.3-2.2-.2-2.3-.2-2.8c0-.2.1-.3.2-.3.5,0,1,1.4,1.5,1.4s1.5-1.1,1.8-1.1c.1,0,.1.1.1.2,0,.5-.8,1.6-.8,2s1.9.4,1.9.8-2,.5-2.9.9-1.5.9-1.5,1.5.7.8,1.6.8c2.2,0,3.7-1.2,4.2-1.2a.35.35,0,0,1,.2.1h0c0,.3-1.1,1.4-1.1,1.9s2,1.2,2,1.5c0,.1-.2.1-.4.1s-.9-.1-1.3-.1a.73.73,0,0,0-.6.2c-.2.3.1,2-.4,2s-1.5-3.9-4-3.9c-.4,0-.6.3-.6.8,0,1.3,1.3,2.8,2.5,3.5.6.4,1.5.7,1.5.9,0,.4-2.1,0-2.1.7s.3,1.5.3,2c0,.2,0,.4-.2.4-.4,0-1.3-1.8-1.8-1.8s-1.3,1.1-1.6,1.1a.22.22,0,0,1-.2-.2c0-.8,1.2-2.5,1.2-4.1,0-.8-.1-2.5-1-2.5s-1.7,1.2-2.1,2.5c-.2.7-.1,3.5-.6,3.5s-.4-1.9-1-1.9-1.6.9-2,.9c-.1,0-.1,0-.1-.1,0-.4,1-1.7,1-1.9,0-.5-2.2-.6-2.2-1,0-.2.9-.4,1.6-.5,1.7-.3,4.1-1.5,4.1-3.2,0-1.9-1.8-2.7-3-3.5-.6-.4-1.3-.7-1.3-1s.8-.3,1.1-.3c.5,0,1,0,1-.4s-.1-.9-.1-1.3,0-.6.2-.6c.5,0,1.2,1.6,1.5,1.6.5,0,1.3-1.3,1.7-1.3.2,0,.2.1.2.4,0,1.2-.6,2.6-.6,3.8" transform="translate(0.02)"/><path class="cls-1" d="M62,57.6c1.5.2,1.9.7,1.9,1.2,0,.7-.7,1-1.3,1s-1-.1-1.5-.1a2.79,2.79,0,0,0-2,.8c.4.1,1,.4,1,1,0,1.9-5.3.3-5.3,5.2,0,2.6,2.7,5.4,6.8,5.4,2.1,0,3.4-.7,3.4-1.5,0-.6-1.1-.2-1.1-.7,0-.2.4-.7.4-1s-.1-.5-.4-.5c-.6,0-1.7,1-4,1-1.8,0-3.5-1-3.5-2.4,0-.3.1-.5.3-.5s.5.1.7.1.2-.1.2-.5,0-1.4.6-1.4,1.7,2.2,6.3,2.2c1.5,0,4.4-.3,5.5-1.3A8.65,8.65,0,0,1,61.3,74h-.1a9.26,9.26,0,0,1-9.4-9.1v-.4a9.69,9.69,0,0,1,9.7-9.6c1.4,0,2.6.5,2.6,1.1C64.3,57.2,62.1,56.6,62,57.6Zm10,1.8a1.93,1.93,0,0,1,.3,1c0,.9-.6,1.8-.6,2.7a2,2,0,0,0,2,2h.1A2.18,2.18,0,0,0,76,62.8v-.1C76,61,74.5,59.5,72,59.4ZM61.2,61.5a1.28,1.28,0,0,1,.4,1c0,.5-.2,1-.2,1.6a1.45,1.45,0,0,0,1.4,1.5h0a1.54,1.54,0,0,0,1.5-1.5V64c0-1.3-1.2-2.5-3.1-2.5Zm4.3-5.6c3.4.7,5.3,3.2,5.3,5.7A3,3,0,0,1,68,64.8h0a2.78,2.78,0,0,1-2.9-2.6v-.4c0-1.4,1.1-2.8,1.1-4.2a2.61,2.61,0,0,0-.7-1.7Zm1.7,4.4a.77.77,0,0,0,.7.8h0a.9.9,0,0,0,.9-.9v-.1c0-.7-.6-1.6-1.2-1.6-.3,0-.2.4-.2.8s-.2.7-.2,1" transform="translate(0.02)"/><path class="cls-1" d="M31.1,26.6c1.1,0,2.4-6,2.4-7,0-.3-.1-.5-.3-.5-1,0-2.4,5.7-2.4,7A.34.34,0,0,0,31.1,26.6Zm8,1.8c.8,0,1.7-3.1,1.7-5.1,0-.4-.1-.9-.3-.9-.7,0-1.8,3.2-1.8,5,0,.7.2,1,.4,1Zm-5.4-3c.4,0,.8-.4,1.7-1.3a5.7,5.7,0,0,0,.1-1.3c0-.6-.3-1.4-.7-1.4-1,0-1.5,2.6-1.5,3.3.1.4.3.7.4.7Zm4.5-1.3c0-.6-.1-.7-.3-.7s-.7.4-1.2,1.3c.1,1.2.3,1.7.6,1.7s1-1.1.9-2.3Zm2.6-3.9c2.2,0,3.1,1.9,3.1,4,0,.9-.3,2.3-.7,2.3s-.4-.8-.4-1.4c-.1-.9-.2-1.1-.5-1.1-.5,0-.9,1.3-.9,2.5,0,.8.1,1.6.7,1.6a.91.91,0,0,0,.8-.4,2.93,2.93,0,0,1-2.8,2.8c-2.9,0-4-3.4-4.3-5.3-1.7,1.8-3.3,3.2-6.2,3.2a3.69,3.69,0,0,1-3.9-3.5v-.4c0-.6.2-2,.9-2s.1,2.7,1.7,2.7c.4,0,1.1-.3,1.5-1.4a12.86,12.86,0,0,0,.4-1.9c0-.9-.2-1.4-.9-1.4a2.63,2.63,0,0,0-1.5.7,5,5,0,0,1,4.8-3.6c2.6,0,4,2.3,4,4.9a4.1,4.1,0,0,1-.1,1.1c1.1-1.9,2.6-3.3,4.3-3.4" transform="translate(0.02)"/><path class="cls-1" d="M34.6,29c-1.4,0-1.5,1.7-1.5,5.1-1-2.3-2.8-4.7-4.8-4.7-1.4,0-1.9.9-1.9,2.5a4.1,4.1,0,0,0,.1,1.1,1.29,1.29,0,0,1,1.3-.8A5.79,5.79,0,0,1,32,34.8a22.26,22.26,0,0,0-3.6-.5,4.67,4.67,0,0,0-1.7.3,4.41,4.41,0,0,0-2.2,4,4.1,4.1,0,0,0,.1,1.1c1.1-2.6,4.2-3.7,6.2-3.7a2.77,2.77,0,0,1,.9.1,5.33,5.33,0,0,0-1.3,3.6c0,.5-.2.6-.6.6,0,1.1.9,2.7.9,3.5a.6.6,0,0,1-.3.6c0,1.4,1.4,2.5,1.4,3.4,0,.2,0,.4-.2.5.1.6,1.7,1.6,1.9,2.1s.5.7.7.7a1.61,1.61,0,0,0,1.4-1.2.55.55,0,0,0-.3-.5,4.45,4.45,0,0,1-1.2-2.1.56.56,0,0,1-.6-.5,25.58,25.58,0,0,0-.5-2.7c-.4-.1-.6-.3-.6-1.2,0-.4.3-2.1.3-2.7a.47.47,0,0,1-.5-.5v-.1c0-1,1-1.9,1.3-3.2a4.7,4.7,0,0,1,2.3,4,12.25,12.25,0,0,1-.2,1.9c1.4-.7,3.4-1.7,3.4-3.8,0-1.2-.5-2.5-4.3-3.1a16,16,0,0,1,3.8-.7q3.15,0,3.6,2.1a3.77,3.77,0,0,0,.7-2.1A2.87,2.87,0,0,0,39.9,32h-.1c-2,0-3.8,1-5.7,2.3.8-1.8,1.4-2.8,2.5-2.8a.9.9,0,0,1,.5.1A3.84,3.84,0,0,0,34.6,29" transform="translate(0.02)"/><path class="cls-1" d="M89.8,52.7c1.6,0,3,2.1,3,4.6a10.25,10.25,0,0,1-3.5,7.5c0-4.4-5.4-3-5.4-6.2a2.14,2.14,0,0,1,2-2.3h0a3.38,3.38,0,0,1,2.5.9,2.88,2.88,0,0,1-.9-2.1,2.23,2.23,0,0,1,2-2.4h.3" transform="translate(0.02)"/><path class="cls-1" d="M60.6,21.5a3.51,3.51,0,0,0,2.5,1.2c.4,0,.8-.1,1-.1s.5.1.5.4a2.09,2.09,0,0,1-.7,1.3,2.74,2.74,0,0,0,1.3.2,3.89,3.89,0,0,0,4-3.7v-.4a3.94,3.94,0,0,1,.6,2.1c0,3.6-2.6,4.9-5,4.9a8,8,0,0,1-2.6-.5c-.6,0-.6,1.3-1,1.2-.8-.1-1.4-1.8-1.4-3.6A4.71,4.71,0,0,1,60.6,21.5Zm4.9-2.3a2.84,2.84,0,0,0-1.7-.7,2.7,2.7,0,0,0-2.6,1.9,4.25,4.25,0,0,1-.2-1.1,3.14,3.14,0,0,1,3.1-3.2h.3a5.17,5.17,0,0,1,3.2,1.1c.3,0,.7-.3.9-.3s.4.5.4,1c0,1.3-.6,3.6-2.1,4.4a3.12,3.12,0,0,0-1.6-1.6.55.55,0,0,1-.3-.5,1.33,1.33,0,0,1,.6-1" transform="translate(0.02)"/><path class="cls-1" d="M37.8,12c0,1.1,4.1,6.7,4.9,6.7s1.2-1.1,1.2-2.1a1.45,1.45,0,0,0-.2-.7c-.6-.8-4.8-4.1-5.7-4.1a.22.22,0,0,0-.2.2Zm-24-3.4c0,.7-2.5,2.8-3.4,2.8-.3,0-.4-.4-.4-.8a2.81,2.81,0,0,1,.7-1.9,4,4,0,0,1,2.2-.6C13.2,8.3,13.8,8.4,13.8,8.6Zm29.9,1.9c0-2-5.3-5.5-5.4-7.1a.52.52,0,0,1,.2-.4c.9-1,4.7-1.7,4.7-2.5,0-.4-.8-.4-1.2-.4-3,0-7.5,1.1-7.5,2.2s4,3.8,4,5.2c0,.4-.2.5-.6.5-1.1,0-3.5-1.3-4.7-1.3-.5,0-.7.4-.7.9,0,1.6,1.9,4.5,1.9,5.4,0,.1,0,.2-.2.2-.6,0-3.4-3.3-4.4-3.3-.4,0-.4.5-.4,1.2v1.1c0,.8,0,1.2-.4,1.2-.9,0-1.2-2.4-2.1-2.4s-1,4.3-1.8,4.3-.1-4.7-1-4.7-2.2,3.1-2.9,3.1c-.3,0-.3-.3-.3-.5,0-.9.5-2.5.5-3.4,0-.5-.1-.7-.5-.7-1,0-3.2,1.6-4.1,1.6-.1,0-.3-.1-.3-.2,0-.8,3.6-3.3,3.6-4.4s-4.9-.4-4.9-1.6c0-1,3.5-2.1,3.5-3.2S14.5,0,12.9,0C11,0,10,.3,10,.8c0,.9,4.4,1.1,4.4,1.9S9.8,5.3,9.8,6.4s6.4.1,6.4,1.1-5.6,5.9-5.6,7.5c0,.4.3.5.6.5,1.7,0,6.1-3.3,7.3-3.3.4,0,.5.5.5,1,0,.9-.3,2.2-.3,3.1s.2,1.3.9,1.3c1.2,0,2.3-2.1,3.1-2.1,1,0,.4,6.1,2,6.1,1.3,0,1.9-6.6,2.8-6.6s1.5,1.9,2.3,1.9c1,0,.5-3.3,1.6-3.3s4.4,3.9,5.9,3.9c.5,0,.6-.4.6-.8,0-1.7-2.4-5.7-2.4-6.9,0-.3.1-.4.5-.4,1.3,0,5,1.8,6.8,1.8A.7.7,0,0,0,43.7,10.5ZM40.2,4.1c0,.6,2.1,1.9,3,1.9.5,0,.7-.8.7-1.5,0-1-.4-1-1.3-1S40.2,3.7,40.2,4.1ZM32.5.7c0-.2-1-.4-2.3-.4-2.1,0-1.8,1.8-3.5,1.8S25.4.3,23.3.3c-1.3,0-2.5.2-2.5.5s1.5.2,1.5,1.3S19,3.6,19,4.3c0,.2.3.3.6.3.7,0,1.9-.3,2.7-.3.5,0,.9.1.9.5,0,.8-1.8,2.3-1.8,3,0,.2.2.2.3.2.7,0,1.8-1.7,2.8-1.7,1.7,0,.6,3.7,1.5,3.7s.5-3.6,2-3.6c1.1,0,2,2.5,2.8,2.5a.43.43,0,0,0,.4-.4h0c0-.7-1-2.1-1-3,0-.6.4-.8.9-.8.8,0,1.8.5,2.3.5.2,0,.4-.1.4-.3,0-.8-2.9-1.6-2.9-2.7s1.6-1,1.6-1.5" transform="translate(0.02)"/><path class="cls-1" d="M90.6,6c0,2.9-2.1,5.1-6,5.8h1.2c4.5,0,6.1-2,6.1-3.7A2,2,0,0,0,90.6,6ZM85.1,9.3c0-2.3-5.6-2.9-5.6-3.4s3.1-1.1,4.7-1.2c-2.4-3.1-6-2.8-6-3.4,0-.3,2.6-1,5-1,2,0,3.9.5,3.9,2,0,.8-.7,1.7-.7,3a1.11,1.11,0,0,0,1.1,1.3h.2c1,0,1.2-1.1,1.2-2.2s-.2-1.7-.2-2.1A2.14,2.14,0,0,1,90.8.1h.3c1.1,0,1.4.5,3,.5A2.65,2.65,0,0,0,93,2.5c0,1.4.9,2.3.9,5.1,0,5.2-4.8,7-10.8,7a29.22,29.22,0,0,1-5.1-.4c-.3,0-.3-.1-.3-.3,0-.4,2.3-.7,2.3-2.8a6.28,6.28,0,0,0-.3-1.9c0-.1.1-.3.2-.3h0c.5,0,1.5,1.9,3.3,1.9a1.5,1.5,0,0,0,1.7-1.4c.2.1.2,0,.2-.1Zm5.3-7.2a.79.79,0,0,0,.8.8.86.86,0,0,0,.8-.8.86.86,0,0,0-.8-.8h0a.79.79,0,0,0-.8.8h0" transform="translate(0.02)"/><path class="cls-1" d="M87.5,32.3c0-.7-1.7-.8-1.9-2.7,0-.3-.1-.8-.5-.8-.6,0-.1,1.8-.8,1.8-1.5,0-2-3-2.6-3-.1,0-.3.1-.3.5s.1.6.1,1-.1.7-.5.7c-.9,0-1.7-2.1-2.4-2.1a.27.27,0,0,0-.3.3c0,.4.7,1.1.7,1.5,0,.8-2.1.4-2.1,1,0,.3.3.4.7.4.7,0,1.8-.3,2.3-.3.3,0,.8.1.8.5s-1.2,1-1.2,1.5c0,.2.2.3.4.3h0c.9,0,2.4-1.5,3.6-1.5.2,0,.7.1.7.4s-1.1,1.2-1.1,1.8c0,.2.1.4.3.4.6,0,1.4-1.5,2.5-1.5.4,0,1,.2,1.4.2S87.5,32.5,87.5,32.3Zm.8,15.9a22,22,0,0,1,2.3-4.6c-1.1-.5-3.9-1.7-3.9-3.7,0-2.3,2.8-4,3.4-4,.3,0,.3.2.3.7,0,1.2-.6,3.1-.6,4.1s.6,1.8,1.1,1.8,2.1-2,2.1-3.9a4.39,4.39,0,0,0-4-4.5c-.9,0-2.5,1.4-6.3,1.4-7,0-8.6-7-8.6-10,0-.1,0-.2.1-.2a5.61,5.61,0,0,0,3.1.9c1.2,0,2.2-.3,3.9-.3,3.9,0,5.7,2.7,8.1,6.2,1.5.9,5,2.4,5,6.5,0,3.7-3.9,5.7-4.8,9.6,1.5-.2,2.4-2.8,3.9-2.8.8,0,1.2.6,1.2,1.6a7,7,0,0,1-2.4,4.9v-.5c0-.9-.4-2.2-1.4-2.2-1.6,0-2.2,1.8-3.1,3.2-.9-3.3-2.2-6.4-4.5-8.2s-6.3-.8-6.3-4.3c0-.9.6-2.2.6-3.3a1.69,1.69,0,0,0-.3-1c3.1,1.2,2,3.3,4,5.4,1.2,1.4,4.6,2.7,6.5,8.4,0-.3.1-.6.1-.9,0-4.8-6.4-9.6-7-11.6,3.7.4,4.4,1.3,6.2,6.3.2,1.2,1.3,3.7,1.3,5" transform="translate(0.02)"/><path class="cls-1" d="M70.4,13.6c-2.3,0-3.8-1.1-3.8-1.7,0-.2.2-.5.4-.5h.1c.7,0,2.3,1.1,2.8,1.1.1,0,.2-.1.2-.3,0-.6-.6-1.6-.6-2.1,0-.1.1-.2.3-.2.9,0,2.2.4,2.9.4A.27.27,0,0,0,73,10c0-.7-2.1-2.1-2.1-2.6s2.7-1,2.7-1.6S70,5.7,70,5c0-.5.7-1.2.7-1.6,0-.2-.1-.2-.4-.2s-1.9.6-2.5.6c-.3,0-.7-.1-.7-.5,0-.8,1.3-1.6,3.3-1.6,3.2,0,5.2,2.2,5.2,6C75.5,12.4,72.2,13.6,70.4,13.6ZM64.1,7.4c0-.4-1.3-1-1.3-1.4,0-.1.1-.1.2-.1.4,0,1,.1,1.5.1s.5-1.8.8-1.8.6,1.7,1,1.7,1.2-.5,1.5-.5c.1,0,.1,0,.1.1s-.8,1.1-.8,1.4,1.8.7,1.8.9-1.9.3-1.9.6.7,1.1.7,1.4c0,.1,0,.1-.1.1-.3,0-1.3-.5-1.6-.5s-1,1.3-1.2,1.3-.2-.1-.2-.3l-.1-1.3c0-.1-.1-.3-.2-.3H62.9c-.2,0-.2,0-.2-.1S64.1,7.6,64.1,7.4Zm-1,5.3c.5,0,.6,1.3.7,2,.1.4.1.4.3.4.4,0,1-1.5,1.4-1.5.6,0,2.3,1.7,5.1,1.7a7.47,7.47,0,0,0,7.7-7.2V7.6C78.3,2.9,75,.1,70.4.1c-2.2,0-3.8,1.1-4.7,1.1C65.2,1.3,64.4,0,64,0q-.3,0-.3.9c0,.4,0,1.5-.4,1.5-.8,0-3.8-2.3-3.8-1.4s2,3,2,3.6-2,1.2-2,1.5c0,.7,2.1.8,2.1,1.8s-2.2,1.6-2.2,2.3,2.2.2,2.2.9-1.6,3-1.6,3.6c0,.2,0,.2.2.2.6,0,2.5-2.1,3-2.1" transform="translate(0.02)"/><path class="cls-1" d="M48.3,70.2a1.28,1.28,0,0,1-.4,1,2.23,2.23,0,0,0-1.8-1c-3.4,0-2.1,4.9-5.7,4.9a16.35,16.35,0,0,1-2.2-.2c-.2,0-.4.1-.4.3,0,.8,1.2,3,4.6,3S49,76,49,73.5a2.77,2.77,0,0,0-.3-1.3,1.14,1.14,0,0,1,.8-.3c.5,0,.8.6,1.3.6a.9.9,0,0,0,.9-.9v-.1a.87.87,0,0,0-.6-.9,1.05,1.05,0,0,0,.5-.9,1.09,1.09,0,0,0-.9-1.1h-.1a.91.91,0,0,0-.7.3c-.1-.6-.4-1.1-1-1.1a1,1,0,0,0-.9.8v.1c0,.6.3,1,.3,1.5" transform="translate(0.02)"/><path class="cls-1" d="M30.3,64.2c2.6.7,3.9,2.1,4.2,3.7a7.71,7.71,0,0,0,1.2,3.6,5.17,5.17,0,0,0,3.8,1.7c1.2,0,2.1-.4,2.1-1.5s-1.6-3.8-4-3.8h-.8a1.69,1.69,0,0,1-1-.3c-.5-.5-.7-2.9-1.7-4.4a4.17,4.17,0,0,0-3.9-2.1c-1.1,0-2.4.6-2.4,1.5C27.9,63.2,28.2,63.6,30.3,64.2Zm9.2,7.3c-1,0-2.5-1-2.5-1.6a.86.86,0,0,1,.8-.8c.8,0,2.3,1,2.3,1.9,0,.2-.1.5-.6.5" transform="translate(0.02)"/><path class="cls-1" d="M36.4,46c0-2.1,5-3.2,5-5.8a5.84,5.84,0,0,0-.4-1.8c1.7,1,3,2.6,3,3.9,0,2.3-2.4,3.3-2.4,4.7,0,1.6,2.5,1.9,2.5,3.9,0,1.7-2.4,3.6-2.4,5.8a3.35,3.35,0,0,0,3,3.3,8.81,8.81,0,0,1-1.7.2c-3.3,0-6.7-2.7-6.7-6a5.44,5.44,0,0,1,1.7-4,4.74,4.74,0,0,0,2.4,1.3.71.71,0,0,0,.8-.7C41.3,49.7,36.4,48.6,36.4,46ZM46.9,62.5c-1.1.5-1.6.4-1.6,1.6,0,.4-.1,1-.1,1.3s.1.6.5.6c1.2,0,3-2,3-3.7,0-.5-.3-.7-.6-.7S47.7,62.2,46.9,62.5Zm-.1-2.3c0-1.5-3-1.5-3-3.7a5.51,5.51,0,0,1,1-2.5,3.66,3.66,0,0,0,2.5,3.2c2.9,1.1,3.3,2.7,3.3,4.5,0,3-2.1,6.6-7.4,6.6a7.42,7.42,0,0,1-7.3-7c0-.9.2-1.9.8-1.9s.7.4,1,.8c1.5,1.5,3.1,1.9,5.4,1.9,2.1-.2,3.6-1.1,3.7-1.9" transform="translate(0.02)"/><path class="cls-1" d="M23.6,60.9a1.26,1.26,0,1,1-1.4-1.1A1.24,1.24,0,0,1,23.6,60.9Zm-6.1,1.2A2.21,2.21,0,0,0,19.9,64a2.28,2.28,0,0,0,1.1-.3,2,2,0,0,0,2.3,1.6,2.1,2.1,0,0,0,1.9-2.2V63a2.35,2.35,0,0,0-.2-.8h.3a2.26,2.26,0,0,0,1.9-2.3A2.06,2.06,0,0,0,24.9,58a2.1,2.1,0,0,0-1.1.4,2.19,2.19,0,0,0-4.3.8,2.54,2.54,0,0,0,.2.7h-.3a1.91,1.91,0,0,0-1.9,2.2" transform="translate(0.02)"/></svg>