<?xml version="1.0" encoding="utf-8"?>
<!-- Generator: Adobe Illustrator 24.2.1, SVG Export Plug-In . SVG Version: 6.00 Build 0)  -->
<svg version="1.1" id="Layer_1" xmlns="http://www.w3.org/2000/svg" xmlns:xlink="http://www.w3.org/1999/xlink" x="0px" y="0px"
	 viewBox="0 0 107.5 119" style="enable-background:new 0 0 107.5 119;" xml:space="preserve">
<style type="text/css">
	.st0{fill:#7C7D7D;}
</style>
<path class="st0" d="M13.9,103.6c-0.3-0.9-0.6-1.9-0.8-2.8c-0.3-2.1,0.8-3.4,1.8-3.7s1.5,0.3,2,1.5c0.5,2.7,0.7,5.5,0.4,8.3
	C17,112,14.4,118.1,8.1,118c-5.4-0.1-7.8-3.6-8.1-9c-0.1-2.9,0.2-5.8,1.1-8.6c0.6-1.9,1.1-2.6,2.8-3c1.4-0.3,1.2,1.2,0.9,2.8
	c-0.7,3.2-1,6.4-0.7,9.7c0.2,4.4,2.3,6.2,4.5,6.2c3.3,0.1,4.8-2.7,5.4-6.7C14.5,107.5,14.5,105.5,13.9,103.6z M84.9,108
	c1.3,0,1.7,1.5,1.4,2.5c-0.6,1.3-1.8,2.1-3.2,2.3C82.8,111.8,82.6,108,84.9,108z M60.8,110.1c0-1-0.6-1.9-1.2-1.9s-1.8,0.6-1.8,2.6
	c-0.1,0.9,0.2,1.9,0.8,2.6C60,112.9,60.9,111.6,60.8,110.1z M41.6,97.5c-0.1-1-0.9-1.7-1.9-1.7c-1.3,0.2-2.3,1.4-2.2,2.7l0,0
	c0,1,0.8,1.8,1.8,1.9h0.1C40.7,100.5,41.7,98.9,41.6,97.5z M51.6,101.1c-0.1-1.7-0.5-2.5-1.5-2.4c-1.2,0.1-1.8,4-1.5,8
	c0.2,2.7,0.6,3.1,0.9,3C50.2,109.7,51.9,105,51.6,101.1z M92.5,107.6c-0.8,3.2-3.1,7.8-6.5,7.8c-0.8,0-2.2-0.3-2.2-1.1
	s5.4-1,5.4-5.1c-0.1-1.9-1.6-3.5-3.5-3.7c-2.8,0-5.5,3-5.5,7.2c0,3.8,2.3,5,4.7,5c4.1,0,6.5-3.3,7.8-6.1c0.6,1.8,1,6.1,2.5,6.1
	c0.6,0,1-0.3,1.8-2c1.8-4.1,3.6-8.9,6.1-8.9c0.9,0,0.4,1.7,2.6,1.7c1,0,1.8-0.8,1.8-1.8c0,0,0,0,0,0l0,0c0-1.4-1.3-2.5-3.3-2.5
	c-5.8,0-7,8.7-8,8.7c-1.5,0-1-7-2.2-7S92.7,107.1,92.5,107.6z M43.2,115c1.6,0,3-0.9,3.8-2.3c-0.7-1.9-1.1-4-1.3-6
	c-0.4-6,1.9-11.6,4.5-11.8c1.8-0.1,3.3,1.6,3.5,4.5c0.5,7.4-2,10.6-3.3,13.3c0.6,1.5,2,2.6,3.6,2.8c0.6,0,1.1-0.2,1.5-0.6
	c-0.2-0.6-0.3-1.2-0.3-1.8c0-4.3,2.8-8,5.2-8c1.9,0,3,2.5,3,4.2c0,2-1.7,3.6-4.1,5.1c0.5,0.5,1.2,0.7,1.9,0.7c3.5,0,5.4-4.3,6.7-8.2
	c0.3-0.7,0.7-1.8,1.6-1.8c1.5,0,2.1,9.8,4.6,9.8c1,0,1.9-2.2,1.9-3.8c0-1.2-0.4-1.4-0.4-3.2c0-2,1.1-3.6,2.5-3.6
	c0.9,0,1.2,0.9,1.2,1.9c0,4-2.8,11.3-7,11.3c-3.2,0-2.9-5.4-4-5.4s-3,5.5-9.1,5.5c-1.1,0-2.2-0.6-2.9-1.5c-1.2,0.9-2.6,1.4-4.1,1.4
	c-2.3,0-3.3-2.3-4.2-2.3c-1.1,0-2.3,2.4-6.1,2.4c-3,0-3.5-3.9-4.5-3.9s-2.3,3.9-3.9,3.9c-2.6,0-3.1-6.8-5.4-6.8c-1.8,0-7.5,7-9,6.8
	c-0.5,0-0.9-0.4-0.8-0.9c0-0.1,0-0.1,0-0.2c0.3-1.4,0.7-2.8,1.1-4.2c0.5-1.9,1-3.9,1.2-4.6c0.2-0.6,0.8-1.1,1.5-1.1
	c0.3,0,0.4,0.6,0.5,1c0.3,1.5,0.7,3.1,1.2,3.1c0.9,0,3.7-5.5,5.4-5.5c2,0,2.3,8.6,5.1,8.6c0.9,0,1.6-1.1,2.2-2.5
	c0.1-2.3,0.7-5.6,2.5-5.6c1.3,0,1.9,2.9,1,5.4C39.9,114.3,41.9,115,43.2,115"/>
<path class="st0" d="M86.2,18.3c-0.6,0.1-1.2-0.2-1.5-0.7c-0.3-0.6-0.2-1.5-0.8-2c0.5,0.1,1.1,0.2,1.6,0.2c1.5,0,2.9-1,4-1
	c0.4-0.1,0.9,0.2,1,0.6c0,0,0,0.1,0,0.1v0.2C90.5,17.1,87.6,18.3,86.2,18.3z M86.9,22c3.4,0,6.5-2.7,6.5-5.1
	c0.1-1.1-0.7-2.1-1.8-2.2c0,0,0,0,0,0h-0.1c0.2,0.3,0.3,0.6,0.3,1c0,1.8-2.7,3.8-5.7,3.8c-0.7-0.1-1.3,0.4-1.4,1.1c0,0,0,0,0,0v0.1
	C84.8,21.6,85.6,22,86.9,22z M86.7,23.3c0.4,3.1,5.1,7.3,6.4,7.2c0.9-0.1,1.2-4.1,1.2-7.2c0-1.8,0.1-3.2-0.9-3.5
	C91.9,22.8,87.9,23.5,86.7,23.3"/>
<path class="st0" d="M12.9,43.9c1.1,0,0.9-6.8,2.7-6.8c0.4,0,0.5,0.4,0.5,1c0,1.5-0.8,3.8-0.8,5c0,0.6,0.2,0.8,0.5,0.8
	c0.8,0,2.2-7.5,3.5-7.5c0.4,0,0.6,0.4,0.6,0.8c0,1.6-2,6.1-2,7.4c0,0.2,0.1,0.4,0.2,0.4c0.8,0,2.5-3.5,3-5.3c0.3-0.9,0.7-1.4,1-1.4
	s0.6,0.4,0.6,1.1c0,1.8-1.6,5.9-3.1,8.7c-1.1,2.2-2.9,5.3-2.9,7c0,1.1,0.5,2.2,1.4,2.9c-2.1-0.1-2.9-0.3-3.7-2
	c-3.5,7,6.4,6.3,3,12.5c-0.6-1.1-5.5-2.3-5.5-8.7c0-5.6,4.9-8.9,4.9-11.2c0-0.5-0.2-0.9-0.6-1.2c-1.1-0.9-1.1-1.7-2-1.7
	c-0.6,0-1.4,1.4-0.6,2.7c0.3,0.3,0.5,0.7,0.5,1.1c0,0.9-1.4,3.4-2.5,3.4s-1.8-2.5-1.8-6.6c0-3.6,0.8-7.2,1.8-7.2
	c0.3,0,0.4,0.2,0.4,0.5s-0.1,1.3-0.1,2.7S12.6,43.9,12.9,43.9"/>
<path class="st0" d="M21.3,53.5c1.4,0,2.5-1,2.5-3.3v-3.3c-0.1-1.3,0.2-2.6,1-3.7c-0.1,0.4-0.1,0.9-0.1,1.3c0,2.8,1.6,4.8,1.6,7.5
	c0,1-0.3,1.6-1.1,1.6s-0.7-0.7-0.9-0.7S24,53.3,24,53.7c0,1,0.8,1.8,1.8,1.8c0,0,0,0,0,0h0.1c1.2-0.1,2.2-1.1,2.2-2.3
	c0-3-2.3-6.2-2.3-9.4c0-1,0.2-2.1,0.6-3c0,6.5,5.5,11.3,5.5,14c0,0.6-0.5,1.1-1.1,1.1h-0.1c-0.5,0.1-1-0.3-1.1-0.9c0,0,0-0.1,0-0.1
	l0,0c0-0.2,0-0.3-0.1-0.3c-0.5,0.3-0.8,0.9-0.8,1.5c0,1.4,1.1,2.4,2.5,2.4c0,0,0,0,0,0l0,0c1.6,0,2.9-1.3,2.9-2.9c0,0,0,0,0,0v-0.1
	c0-3.4-6.7-8.7-6.7-14.2c0-1.3,0.3-2.6,0.9-3.7c-4.3,2.8-5.7,6.5-5.7,9.7c0,2.8-0.1,4.2-1.5,4.2c-0.8,0-1-0.7-1.2-0.7
	s-0.3,0.6-0.3,0.8c-0.1,1,0.6,1.8,1.6,1.9C21.2,53.5,21.3,53.5,21.3,53.5L21.3,53.5"/>
<path class="st0" d="M70.9,16.6c0.4-0.3,2.3,0.2,4.7-1c0.3-0.1,0.5-0.2,0.8-0.2c1.2,0,0.8,1.3,1.9,1.3c0.8,0,1.9-0.7,2.5-0.7
	c1,0,2.4,3.1,2.4,4.5c0,1.7-2.5,2.7-5.5,2.7c-3.6,0-6.6-2.7-7-6.3C70.7,16.8,70.8,16.7,70.9,16.6z M78,20.8c1.4,0,2.5-0.7,2.5-1
	c0-0.1-0.2-0.2-0.6-0.2c-1,0-1.9-0.1-2.9-0.3c-1.4-0.2-2.4-0.8-2.8-0.8c-0.1,0-0.2,0.1-0.2,0.2C74,19.5,75.6,20.9,78,20.8"/>
<path class="st0" d="M22,65.9c-1.1,0.3-2.8,2-2.8,4.7c0,3.2,3.4,8.2,9.1,8.2c4.8,0,6-3.3,6-5.5c0-5-3-8.4-7-8.4
	c-2.2-0.1-4,1.7-4.1,3.9c0,0,0,0,0,0c0,3,2.4,5.4,5.4,5.4c1.5,0.1,2.8-1.1,2.9-2.6v-0.2c-0.1-1.8-1.5-3.3-3.3-3.5
	c-0.5,0-1,0.4-1,0.9c0,0,0,0.1,0,0.1c0,0.8,1.1,1.6,2.4,1.6c0.2,0,0.5,0,0.7-0.1c0.1,0.1,0.1,0.3,0.1,0.4c0,0.8-0.7,1.2-1.8,1.2
	c-1.7,0-3.2-1.4-3.3-3.1v-0.1c0-1.2,1-2,2.5-2c2.9,0,4.6,2.6,4.6,5.2c0,2.3-1.3,3.7-3.9,3.7C23.4,75.4,20.8,70.6,22,65.9"/>
<path class="st0" d="M59.3,85.1c0.7,0,1.3,0,2-0.1c0.5,0,0.5,0.3,0.5,0.5c0,0.7-1.6,1.6-4.5,1.6c-1.3,0.1-2.5-0.7-3-1.9
	c-2,1.3-4.3,2-6.6,2c-6.7,0-8.4-2.9-10.5-3.9c-1.6-0.7-4.1,0.7-7.5-3.1c0.5,0.1,1.1,0.1,1.6,0.1c3,0,4.6-1.5,4.6-3.8
	c0-0.3,0-0.6-0.1-0.9c1.9,0.9,3.2,2.7,3.5,4.7c0.1,0.3,1.4,0.6,2.3,0.6c1.4,0.2,2.7-0.9,2.9-2.3c0,0,0-0.1,0-0.1l0,0
	c3.9-0.3,6.6-2.7,7.1-5.6c1.3,0.5,2.5,1.3,3.4,2.4c0.6-0.2,1.3-0.3,2-0.3c1.2,0,2.4,0.2,3.6,0.6c0.1-0.4,0.1-0.9,0.8-0.9
	c1,0,0.7,1.1,1,1.7c0.2,0.3,1,0.5,1,1.2c0,0.4-0.3,0.8-0.8,0.8c0,0,0,0,0,0l0,0c-0.1,0-0.3,0-0.4-0.1c-0.7,0.2-0.7,5-3.4,5
	c-2,0-3.9-1.7-4.7-3.8c-0.2-0.5-0.6-0.9-1.2-1c-0.5,0-0.8,0.1-1.4,0.8c-2.2,2.3-5.2,3.6-8.4,3.6c-1.1,0-2-0.1-2.2-0.1
	s-0.1,0-0.1,0.1s1.1,1.1,3.5,1.1c5.8,0,7.2-3.2,8.1-3.2c0.3,0,0.6,0.2,0.8,0.5C54.3,83.7,56.7,85.1,59.3,85.1z M56.8,78.5
	c0,0.7,0.6,1.3,1.3,1.3s1.3-0.6,1.3-1.3c0-0.7-0.6-1.3-1.3-1.3l0,0C57.4,77.2,56.8,77.8,56.8,78.5"/>
<path class="st0" d="M82.8,62.2c-0.5,0-1,0.4-1,1.3c0,0.8,0.5,1.5,1.3,1.8c0.3,0.2,0.6,0.3,1,0.3c0.9,0,1.7-0.3,1.7-1
	C85.5,63.2,84.2,62.3,82.8,62.2z M79.2,64.2c-0.7,0-4.5,5.1-7,5.1c-0.6,0-1.1-1.1-1.1-2c0-0.5,0.3-0.8,1.3-1
	c5.6-1.3,4.4-5.5,9.2-5.5c3-0.1,5.5,2.2,5.6,5.2c0,0.1,0,0.1,0,0.2v0.5c0,4.3-6.2,9.7-7.1,9.7s-1.6-1.1-1.6-1.8
	c0-0.2,0.1-0.5,0.8-0.8c3.1-1.3,4.9-4.1,4.9-5.6c0-0.3-0.2-0.6-0.5-0.6h-0.1C83,67.6,80.7,73,78,73c-1.8,0-3.7-1.7-3.7-2.4
	c0-1.3,5.3-3.7,5.3-5.6C79.8,64.2,79.4,64.1,79.2,64.2"/>
<path class="st0" d="M14.4,21.3c-0.6,0.4-1.3,0.7-2.1,0.7c-1.3,0.1-2.4-1-2.5-2.3c0,0,0-0.1,0-0.1v-0.1c0-1.1,0.7-2.1,1.7-2.6v0.5
	C11.4,19.2,12.7,20.9,14.4,21.3z M21.4,27.6c-0.9,1.1-1.4,2.4-1.5,3.8c-0.2,1.6,1,3,2.6,3.2c0.1,0,0.1,0,0.2,0
	c1.7,0,2.4-1.4,2.4-2.8C24.9,29.8,23.4,28.1,21.4,27.6z M10.5,28.9c-0.1,0.1-0.1,0.2-0.1,0.4c0,0.3,0.3,0.6,0.6,0.6
	c0.3,0,0.4-0.1,0.6-0.1c0.8,0,1.7,0.6,3,0.6c1,0,1.9-0.3,2.7-0.8c1.7-1,2.9-2.7,3.2-4.6c0-0.6-0.5-0.5-0.9-1.1s-0.3-1.1-0.5-1.3
	c-0.4-0.2-0.8-0.2-1.2-0.2h-0.7c-1.3,0-2.7,0.3-3.8,1C10.6,25.1,11,28.1,10.5,28.9z M18.2,24.8c0.2,0.3,0.9,0.7,0.9,0.9
	c0.1,0.5-0.3,0.9-0.8,1c-1.1,0-2.1-1.7-2.1-2.7c0-0.6,0.4-0.7,0.9-0.7c0.2,0,0.3,0,0.5,0.1C17.9,23.7,17.9,24.3,18.2,24.8z
	 M15.2,28.8C14,28.6,13,27.5,13,26.2c0-0.6,0.5-1.5,0.9-1.5c0.1,0,0.2,0.1,0.2,0.3c0.1,1.3,1,2.5,2.2,3c0.1,0.1,0.2,0.1,0.2,0.2
	C16.4,28.5,15.8,28.8,15.2,28.8z M18,20.5c0.2-0.6,0.3-1.3,0.3-1.9c0-1.6-0.7-4-2.9-4c-1.2,0-2.2,1-2.2,2.2v0.1
	C13.2,19.5,15.8,20.5,18,20.5z M9.5,33.7c0,2.5,0.8,3.7,2.1,3.7c1.1,0,2.5-0.8,4.1-2.2c-1,0.3-2.1,0.4-3.1,0.5
	C11.3,35.6,10.1,34.9,9.5,33.7z M10.7,30.7v0.5c0,1.5,0.8,2.4,1.9,2.4c1.1-0.1,2-0.7,2.6-1.6c-0.4,0.1-0.8,0.1-1.2,0.1
	C12.8,32.2,11.5,31.7,10.7,30.7z M18.7,30.3c-1.3,0.3-2.2,1.4-2.3,2.7c0,1.1,0.8,2,1.8,2c0,0,0,0,0.1,0h0.2c0.5,0,0.9-0.1,1.3-0.3
	C19,34,18.6,33,18.6,31.9C18.5,31.4,18.5,30.8,18.7,30.3z M19.9,21.3c0,0.7,0.6,1.3,1.3,1.3c0.7,0,1.3-0.6,1.3-1.3
	c0-0.7-0.6-1.3-1.3-1.3l0,0C20.5,20,19.9,20.6,19.9,21.3z M21.6,24.2c0,0.7,0.6,1.3,1.3,1.3s1.3-0.6,1.3-1.3s-0.6-1.3-1.3-1.3
	c0,0,0,0,0,0l0,0C22.2,22.9,21.6,23.4,21.6,24.2C21.6,24.1,21.6,24.2,21.6,24.2"/>
<path class="st0" d="M72.7,40.3c0-0.7,0.5-1.2,1.2-1.2c0.7,0,1.2,0.5,1.2,1.2s-0.5,1.2-1.2,1.2C73.2,41.6,72.7,41.1,72.7,40.3z
	 M61.2,30.2c0,0.7,0.6,1.3,1.3,1.3s1.3-0.6,1.3-1.3s-0.6-1.3-1.3-1.3l0,0C61.8,28.9,61.2,29.5,61.2,30.2z M60.1,34.9
	c0,1,0.9,1.9,1.9,1.9s1.9-0.9,1.9-1.9c0-1-0.9-1.9-1.9-1.9l0,0l0,0c-1,0-1.9,0.8-1.9,1.8C60.1,34.8,60.1,34.9,60.1,34.9z M64.2,32.8
	c0,1.1,0.9,2,2,2s2-0.9,2-2s-0.9-2-2-2C65.1,30.8,64.2,31.7,64.2,32.8C64.2,32.8,64.2,32.8,64.2,32.8z M64.3,28.5
	c0,0.7,0.5,1.2,1.2,1.2c0.7,0,1.2-0.5,1.2-1.2c0-0.6-0.6-1.2-1.2-1.2l0,0C64.9,27.3,64.4,27.9,64.3,28.5z M70.3,25.4
	c0,0.7,0.5,1.3,1.2,1.3c0.7,0,1.3-0.5,1.3-1.2c0-0.7-0.5-1.3-1.2-1.3l0,0c-0.6-0.1-1.2,0.3-1.3,0.9C70.3,25.2,70.3,25.3,70.3,25.4z
	 M67.8,29.4c0,1.2,0.9,2.1,2.1,2.1s2.1-0.9,2.1-2.1c0-1.2-0.9-2.1-2.1-2.1l0,0l0,0c-1.1,0-2.1,0.9-2.1,2
	C67.8,29.3,67.8,29.4,67.8,29.4z M64.4,37c0,0.7,0.6,1.3,1.3,1.3c0.7,0,1.3-0.6,1.3-1.3c0-0.7-0.6-1.3-1.3-1.3l0,0
	C65,35.7,64.4,36.3,64.4,37z M68.7,34.4c0,0.7,0.6,1.3,1.3,1.3c0.7,0,1.3-0.6,1.3-1.3c0-0.7-0.6-1.3-1.3-1.3l0,0l0,0
	C69.3,33.1,68.7,33.7,68.7,34.4z M67.5,39c0,1.3,1,2.3,2.3,2.3c1.3,0,2.3-1,2.3-2.3c0-1.3-1-2.3-2.3-2.3l0,0
	C68.6,36.7,67.6,37.7,67.5,39z M72.2,36.2c0,0.8,0.6,1.5,1.4,1.5c0,0,0,0,0.1,0c0.8,0,1.5-0.7,1.5-1.5c0-0.8-0.6-1.5-1.4-1.5
	c0,0,0,0-0.1,0l0,0C72.9,34.7,72.2,35.4,72.2,36.2z M72.1,32.1c0,0.8,0.6,1.4,1.4,1.4c0.8,0,1.4-0.6,1.4-1.4c0-0.8-0.6-1.4-1.4-1.4
	l0,0C72.8,30.8,72.2,31.3,72.1,32.1"/>
<path class="st0" d="M75.5,75.1c-1.8,1.4-4,2.1-6.2,2.1c-1,0-1.9-0.2-2.8-0.6c-0.3,0-0.7,0.3-1.1,0.8c-1.1,1.3-1.7,2.8-1.8,4.5
	c0,1.5,1.2,2.6,2.7,2.6c0,0,0.1,0,0.1,0h0.2c6.1,0,10.7-3.8,10.7-6.9C77.3,75.8,76.2,75.1,75.5,75.1z M73.8,74.8
	c0.3-0.3,0.4-0.6,0.3-1V73c0-1-1.4-1.5-3.4-1.5c-2.4,0-3.7,1.1-3.7,1.5v1.5c0,0.6,1.4,1.3,3.2,1.3C71.5,75.9,72.8,75.5,73.8,74.8z
	 M73.5,78c0.2,0,0.4,0.1,0.4,0.7c0,1-0.6,1.9-1.5,2.4c-1.1,0.7-2.3,1-3.6,1c0.3-0.8,0.4-1.6,0.5-2.4c0-0.3,0-0.5-0.1-0.8h0.4
	C71,79,72.3,78.7,73.5,78"/>
<path class="st0" d="M61,38c0.4,2.8,4.1,1.4,4.1,4.8c0,0.5-0.1,1.2-0.1,1.8s0.1,1.3,0.6,1.3s0.7-0.4,0.7-0.9s-0.1-1.2-0.1-1.5
	c-0.1-0.7,0.4-1.4,1.1-1.5h0.3c1.2,0,2.2,1.3,4.1,1.3c-0.4,2.1-4.8,1.5-4.8,3.8c0,1.2,1.2,1.4,1.9,1.4s0.9-0.1,0.9-0.7
	c0-0.3-0.1-0.7-0.1-0.9c0-0.2,0.1-0.3,0.3-0.3l0,0c0.7,0,4.3,2.7,4.3,3.5s-3.7,1.5-4.8,1.5c-0.2,0-0.4-0.1-0.4-0.3v-0.1
	c0-0.2,0.6-0.9,0.6-1.3s-0.5-0.5-1.8-0.5c-0.6,0-1.1,0.1-1.1,0.6c0,0.9,1.4,2,1.4,2.8s-0.4,1-1.4,1s-2.2-0.7-2.2-1.8
	c0-0.9,1-1.8,1-2.4c0-0.3-0.2-0.4-0.5-0.4l0,0c-1.2,0-1.5,3.2-5.8,3.6c0.8-0.7,1.3-1.7,1.3-2.7c0-0.7-0.2-1.3-0.2-2
	c0-1,0.5-1.5,1.1-1.5c1.2,0,1.8,1.7,2.6,1.7c0.5-0.1,0.9-0.5,0.9-1c0-2.5-4.8-2.1-4.8-5.6C60,40.4,60.3,39.1,61,38z M76.6,47.6
	c0,0.8,0.3,1.8,1.1,1.8s1.3-1,1.3-2.2s-0.2-2.3-0.2-2.8c0-0.2,0.1-0.3,0.2-0.3c0.5,0,1,1.4,1.5,1.4s1.5-1.1,1.8-1.1
	c0.1,0,0.1,0.1,0.1,0.2c0,0.5-0.8,1.6-0.8,2s1.9,0.4,1.9,0.8s-2,0.5-2.9,0.9s-1.5,0.9-1.5,1.5s0.7,0.8,1.6,0.8
	c2.2,0,3.7-1.2,4.2-1.2c0.1,0,0.1,0,0.2,0.1l0,0c0,0.3-1.1,1.4-1.1,1.9s2,1.2,2,1.5c0,0.1-0.2,0.1-0.4,0.1s-0.9-0.1-1.3-0.1
	c-0.2,0-0.4,0-0.6,0.2c-0.2,0.3,0.1,2-0.4,2s-1.5-3.9-4-3.9c-0.4,0-0.6,0.3-0.6,0.8c0,1.3,1.3,2.8,2.5,3.5c0.6,0.4,1.5,0.7,1.5,0.9
	c0,0.4-2.1,0-2.1,0.7s0.3,1.5,0.3,2c0,0.2,0,0.4-0.2,0.4c-0.4,0-1.3-1.8-1.8-1.8s-1.3,1.1-1.6,1.1c-0.1,0-0.2-0.1-0.2-0.2
	c0-0.8,1.2-2.5,1.2-4.1c0-0.8-0.1-2.5-1-2.5s-1.7,1.2-2.1,2.5C75,55.2,75.1,58,74.6,58s-0.4-1.9-1-1.9S72,57,71.6,57
	c-0.1,0-0.1,0-0.1-0.1c0-0.4,1-1.7,1-1.9c0-0.5-2.2-0.6-2.2-1c0-0.2,0.9-0.4,1.6-0.5c1.7-0.3,4.1-1.5,4.1-3.2c0-1.9-1.8-2.7-3-3.5
	c-0.6-0.4-1.3-0.7-1.3-1s0.8-0.3,1.1-0.3c0.5,0,1,0,1-0.4s-0.1-0.9-0.1-1.3s0-0.6,0.2-0.6c0.5,0,1.2,1.6,1.5,1.6
	c0.5,0,1.3-1.3,1.7-1.3c0.2,0,0.2,0.1,0.2,0.4c0,1.2-0.6,2.6-0.6,3.8"/>
<path class="st0" d="M62,56.6c1.5,0.2,1.9,0.7,1.9,1.2c0,0.7-0.7,1-1.3,1s-1-0.1-1.5-0.1c-0.7,0-1.5,0.3-2,0.8c0.4,0.1,1,0.4,1,1
	c0,1.9-5.3,0.3-5.3,5.2c0,2.6,2.7,5.4,6.8,5.4c2.1,0,3.4-0.7,3.4-1.5c0-0.6-1.1-0.2-1.1-0.7c0-0.2,0.4-0.7,0.4-1s-0.1-0.5-0.4-0.5
	c-0.6,0-1.7,1-4,1c-1.8,0-3.5-1-3.5-2.4c0-0.3,0.1-0.5,0.3-0.5s0.5,0.1,0.7,0.1s0.2-0.1,0.2-0.5s0-1.4,0.6-1.4s1.7,2.2,6.3,2.2
	c1.5,0,4.4-0.3,5.5-1.3c-0.1,4.7-4,8.4-8.7,8.4h-0.1c-5.1,0.1-9.3-4-9.4-9.1v-0.4c0-5.3,4.4-9.6,9.7-9.6c1.4,0,2.6,0.5,2.6,1.1
	C64.3,56.2,62.1,55.6,62,56.6z M72,58.4c0.2,0.3,0.3,0.6,0.3,1c0,0.9-0.6,1.8-0.6,2.7c0,1.1,0.9,2,2,2h0.1c1.2,0,2.2-1,2.2-2.2
	c0,0,0-0.1,0-0.1v-0.1C76,60,74.5,58.5,72,58.4z M61.2,60.5c0.3,0.3,0.4,0.6,0.4,1c0,0.5-0.2,1-0.2,1.6c0,0.8,0.6,1.5,1.4,1.5
	c0,0,0,0,0,0l0,0c0.8,0,1.5-0.7,1.5-1.5V63C64.3,61.7,63.1,60.5,61.2,60.5z M65.5,54.9c3.4,0.7,5.3,3.2,5.3,5.7
	c0.1,1.7-1.1,3.1-2.8,3.2c0,0,0,0,0,0l0,0c-1.5,0.1-2.8-1.1-2.9-2.6v-0.4c0-1.4,1.1-2.8,1.1-4.2C66.2,56,66,55.4,65.5,54.9z
	 M67.2,59.3c0,0.4,0.3,0.8,0.7,0.8l0,0c0.5,0,0.9-0.4,0.9-0.9v0v-0.1c0-0.7-0.6-1.6-1.2-1.6c-0.3,0-0.2,0.4-0.2,0.8
	S67.2,59,67.2,59.3"/>
<path class="st0" d="M31.1,25.6c1.1,0,2.4-6,2.4-7c0-0.3-0.1-0.5-0.3-0.5c-1,0-2.4,5.7-2.4,7c-0.1,0.2,0,0.4,0.1,0.5
	C31,25.6,31.1,25.6,31.1,25.6z M39.1,27.4c0.8,0,1.7-3.1,1.7-5.1c0-0.4-0.1-0.9-0.3-0.9c-0.7,0-1.8,3.2-1.8,5
	C38.7,27.1,38.9,27.4,39.1,27.4z M33.7,24.4c0.4,0,0.8-0.4,1.7-1.3c0.1-0.4,0.1-0.9,0.1-1.3c0-0.6-0.3-1.4-0.7-1.4
	c-1,0-1.5,2.6-1.5,3.3C33.4,24.1,33.6,24.4,33.7,24.4z M38.2,23.1c0-0.6-0.1-0.7-0.3-0.7s-0.7,0.4-1.2,1.3c0.1,1.2,0.3,1.7,0.6,1.7
	S38.3,24.3,38.2,23.1z M40.8,19.2c2.2,0,3.1,1.9,3.1,4c0,0.9-0.3,2.3-0.7,2.3s-0.4-0.8-0.4-1.4c-0.1-0.9-0.2-1.1-0.5-1.1
	c-0.5,0-0.9,1.3-0.9,2.5c0,0.8,0.1,1.6,0.7,1.6c0.3,0,0.6-0.1,0.8-0.4c-0.1,1.5-1.3,2.7-2.8,2.8c-2.9,0-4-3.4-4.3-5.3
	c-1.7,1.8-3.3,3.2-6.2,3.2c-2,0.1-3.8-1.4-3.9-3.5c0,0,0,0,0,0v-0.4c0-0.6,0.2-2,0.9-2s0.1,2.7,1.7,2.7c0.4,0,1.1-0.3,1.5-1.4
	c0.2-0.6,0.3-1.3,0.4-1.9c0-0.9-0.2-1.4-0.9-1.4c-0.6,0.1-1.1,0.3-1.5,0.7c0.6-2.1,2.6-3.6,4.8-3.6c2.6,0,4,2.3,4,4.9
	c0,0.4,0,0.7-0.1,1.1C37.6,20.7,39.1,19.3,40.8,19.2"/>
<path class="st0" d="M34.6,28c-1.4,0-1.5,1.7-1.5,5.1c-1-2.3-2.8-4.7-4.8-4.7c-1.4,0-1.9,0.9-1.9,2.5c0,0.4,0,0.7,0.1,1.1
	c0.2-0.5,0.7-0.8,1.3-0.8c1.7,0.2,3.3,1.1,4.2,2.6c-1.2-0.3-2.4-0.4-3.6-0.5c-0.6,0-1.2,0.1-1.7,0.3c-1.4,0.8-2.3,2.4-2.2,4
	c0,0.4,0,0.7,0.1,1.1c1.1-2.6,4.2-3.7,6.2-3.7c0.3,0,0.6,0,0.9,0.1c-0.9,1-1.3,2.3-1.3,3.6c0,0.5-0.2,0.6-0.6,0.6
	c0,1.1,0.9,2.7,0.9,3.5c0,0.2-0.1,0.5-0.3,0.6c0,1.4,1.4,2.5,1.4,3.4c0,0.2,0,0.4-0.2,0.5c0.1,0.6,1.7,1.6,1.9,2.1s0.5,0.7,0.7,0.7
	c0.7-0.1,1.2-0.5,1.4-1.2c0-0.2-0.1-0.4-0.3-0.5c-0.6-0.6-1-1.3-1.2-2.1c-0.3,0-0.6-0.2-0.6-0.5c-0.1-0.9-0.3-1.8-0.5-2.7
	c-0.4-0.1-0.6-0.3-0.6-1.2c0-0.4,0.3-2.1,0.3-2.7c-0.3,0-0.5-0.2-0.5-0.4c0,0,0,0,0-0.1v-0.1c0-1,1-1.9,1.3-3.2
	c1.4,0.8,2.3,2.4,2.3,4c0,0.6-0.1,1.3-0.2,1.9c1.4-0.7,3.4-1.7,3.4-3.8c0-1.2-0.5-2.5-4.3-3.1c1.2-0.4,2.5-0.6,3.8-0.7
	c2.1,0,3.3,0.7,3.6,2.1c0.4-0.6,0.7-1.3,0.7-2.1c-0.1-1.5-1.4-2.7-2.9-2.7h-0.1c-2,0-3.8,1-5.7,2.3c0.8-1.8,1.4-2.8,2.5-2.8
	c0.2,0,0.3,0,0.5,0.1C36.8,29.4,35.8,28.4,34.6,28"/>
<path class="st0" d="M89.8,51.7c1.6,0,3,2.1,3,4.6c-0.1,2.9-1.3,5.6-3.5,7.5c0-4.4-5.4-3-5.4-6.2c-0.1-1.2,0.8-2.2,2-2.3
	c0,0,0,0,0,0l0,0c0.9-0.1,1.8,0.3,2.5,0.9c-0.6-0.5-0.9-1.3-0.9-2.1c-0.1-1.2,0.8-2.3,2-2.4L89.8,51.7"/>
<path class="st0" d="M60.6,20.5c0.6,0.7,1.5,1.2,2.5,1.2c0.4,0,0.8-0.1,1-0.1c0.2,0,0.5,0.1,0.5,0.4c-0.1,0.5-0.3,1-0.7,1.3
	c0.4,0.2,0.9,0.2,1.3,0.2c2.1,0.1,3.9-1.6,4-3.7v-0.4c0.4,0.6,0.6,1.4,0.6,2.1c0,3.6-2.6,4.9-5,4.9c-0.9,0-1.8-0.2-2.6-0.5
	c-0.6,0-0.6,1.3-1,1.2c-0.8-0.1-1.4-1.8-1.4-3.6C59.7,22.4,60,21.4,60.6,20.5z M65.5,18.2c-0.5-0.4-1.1-0.7-1.7-0.7
	c-1.2,0-2.2,0.8-2.6,1.9C61.1,19,61,18.7,61,18.3c0-1.7,1.3-3.2,3.1-3.2c0,0,0,0,0,0h0.3c1.2,0,2.3,0.4,3.2,1.1
	c0.3,0,0.7-0.3,0.9-0.3s0.4,0.5,0.4,1c0,1.3-0.6,3.6-2.1,4.4c-0.3-0.7-0.9-1.3-1.6-1.6c-0.2-0.1-0.3-0.3-0.3-0.5
	C65,18.8,65.2,18.4,65.5,18.2"/>
<path class="st0" d="M37.8,11c0,1.1,4.1,6.7,4.9,6.7s1.2-1.1,1.2-2.1c0-0.2-0.1-0.5-0.2-0.7c-0.6-0.8-4.8-4.1-5.7-4.1
	C37.9,10.8,37.8,10.9,37.8,11z M13.8,7.6c0,0.7-2.5,2.8-3.4,2.8c-0.3,0-0.4-0.4-0.4-0.8c0-0.7,0.2-1.4,0.7-1.9
	c0.7-0.4,1.4-0.6,2.2-0.6C13.2,7.3,13.8,7.4,13.8,7.6z M43.7,9.5c0-2-5.3-5.5-5.4-7.1c0-0.2,0.1-0.3,0.2-0.4c0.9-1,4.7-1.7,4.7-2.5
	c0-0.4-0.8-0.4-1.2-0.4c-3,0-7.5,1.1-7.5,2.2s4,3.8,4,5.2c0,0.4-0.2,0.5-0.6,0.5c-1.1,0-3.5-1.3-4.7-1.3c-0.5,0-0.7,0.4-0.7,0.9
	c0,1.6,1.9,4.5,1.9,5.4c0,0.1,0,0.2-0.2,0.2c-0.6,0-3.4-3.3-4.4-3.3c-0.4,0-0.4,0.5-0.4,1.2v1.1c0,0.8,0,1.2-0.4,1.2
	c-0.9,0-1.2-2.4-2.1-2.4s-1,4.3-1.8,4.3s-0.1-4.7-1-4.7s-2.2,3.1-2.9,3.1c-0.3,0-0.3-0.3-0.3-0.5c0-0.9,0.5-2.5,0.5-3.4
	c0-0.5-0.1-0.7-0.5-0.7c-1,0-3.2,1.6-4.1,1.6c-0.1,0-0.3-0.1-0.3-0.2c0-0.8,3.6-3.3,3.6-4.4s-4.9-0.4-4.9-1.6c0-1,3.5-2.1,3.5-3.2
	S14.5-1,12.9-1C11-1,10-0.7,10-0.2c0,0.9,4.4,1.1,4.4,1.9S9.8,4.3,9.8,5.4s6.4,0.1,6.4,1.1s-5.6,5.9-5.6,7.5c0,0.4,0.3,0.5,0.6,0.5
	c1.7,0,6.1-3.3,7.3-3.3c0.4,0,0.5,0.5,0.5,1c0,0.9-0.3,2.2-0.3,3.1s0.2,1.3,0.9,1.3c1.2,0,2.3-2.1,3.1-2.1c1,0,0.4,6.1,2,6.1
	c1.3,0,1.9-6.6,2.8-6.6s1.5,1.9,2.3,1.9c1,0,0.5-3.3,1.6-3.3s4.4,3.9,5.9,3.9c0.5,0,0.6-0.4,0.6-0.8c0-1.7-2.4-5.7-2.4-6.9
	c0-0.3,0.1-0.4,0.5-0.4c1.3,0,5,1.8,6.8,1.8c0.4,0.1,0.8-0.1,0.9-0.5C43.7,9.7,43.7,9.6,43.7,9.5z M40.2,3.1c0,0.6,2.1,1.9,3,1.9
	c0.5,0,0.7-0.8,0.7-1.5c0-1-0.4-1-1.3-1S40.2,2.7,40.2,3.1z M32.5-0.3c0-0.2-1-0.4-2.3-0.4c-2.1,0-1.8,1.8-3.5,1.8s-1.3-1.8-3.4-1.8
	c-1.3,0-2.5,0.2-2.5,0.5s1.5,0.2,1.5,1.3S19,2.6,19,3.3c0,0.2,0.3,0.3,0.6,0.3c0.7,0,1.9-0.3,2.7-0.3c0.5,0,0.9,0.1,0.9,0.5
	c0,0.8-1.8,2.3-1.8,3C21.4,7,21.6,7,21.7,7c0.7,0,1.8-1.7,2.8-1.7C26.2,5.3,25.1,9,26,9s0.5-3.6,2-3.6c1.1,0,2,2.5,2.8,2.5
	c0.2,0,0.4-0.2,0.4-0.4l0,0c0-0.7-1-2.1-1-3c0-0.6,0.4-0.8,0.9-0.8c0.8,0,1.8,0.5,2.3,0.5c0.2,0,0.4-0.1,0.4-0.3
	c0-0.8-2.9-1.6-2.9-2.7S32.5,0.2,32.5-0.3"/>
<path class="st0" d="M90.6,5c0,2.9-2.1,5.1-6,5.8h1.2c4.5,0,6.1-2,6.1-3.7C92,6.2,91.5,5.3,90.6,5z M85.1,8.3c0-2.3-5.6-2.9-5.6-3.4
	s3.1-1.1,4.7-1.2c-2.4-3.1-6-2.8-6-3.4c0-0.3,2.6-1,5-1c2,0,3.9,0.5,3.9,2c0,0.8-0.7,1.7-0.7,3c-0.1,0.6,0.3,1.2,0.9,1.3
	c0.1,0,0.1,0,0.2,0h0.2c1,0,1.2-1.1,1.2-2.2s-0.2-1.7-0.2-2.1c0-1.2,0.9-2.2,2.1-2.2c0,0,0,0,0,0h0.3c1.1,0,1.4,0.5,3,0.5
	c-0.6,0.4-1,1.1-1.1,1.9c0,1.4,0.9,2.3,0.9,5.1c0,5.2-4.8,7-10.8,7c-1.7,0-3.4-0.1-5.1-0.4c-0.3,0-0.3-0.1-0.3-0.3
	c0-0.4,2.3-0.7,2.3-2.8c0-0.6-0.1-1.3-0.3-1.9c0-0.1,0.1-0.3,0.2-0.3l0,0c0.5,0,1.5,1.9,3.3,1.9c0.8,0.1,1.6-0.5,1.7-1.3
	c0,0,0-0.1,0-0.1C85.1,8.5,85.1,8.4,85.1,8.3z M90.4,1.1c0,0.4,0.3,0.8,0.8,0.8c0,0,0,0,0,0c0.4,0,0.8-0.4,0.8-0.8
	c0-0.4-0.4-0.8-0.8-0.8l0,0C90.8,0.3,90.4,0.6,90.4,1.1C90.4,1.1,90.4,1.1,90.4,1.1L90.4,1.1"/>
<path class="st0" d="M87.5,31.3c0-0.7-1.7-0.8-1.9-2.7c0-0.3-0.1-0.8-0.5-0.8c-0.6,0-0.1,1.8-0.8,1.8c-1.5,0-2-3-2.6-3
	c-0.1,0-0.3,0.1-0.3,0.5s0.1,0.6,0.1,1s-0.1,0.7-0.5,0.7c-0.9,0-1.7-2.1-2.4-2.1c-0.1,0-0.3,0.1-0.3,0.2c0,0,0,0,0,0.1
	c0,0.4,0.7,1.1,0.7,1.5c0,0.8-2.1,0.4-2.1,1c0,0.3,0.3,0.4,0.7,0.4c0.7,0,1.8-0.3,2.3-0.3c0.3,0,0.8,0.1,0.8,0.5s-1.2,1-1.2,1.5
	c0,0.2,0.2,0.3,0.4,0.3l0,0c0.9,0,2.4-1.5,3.6-1.5c0.2,0,0.7,0.1,0.7,0.4c0,0.3-1.1,1.2-1.1,1.8c0,0.2,0.1,0.4,0.3,0.4
	c0.6,0,1.4-1.5,2.5-1.5c0.4,0,1,0.2,1.4,0.2S87.5,31.5,87.5,31.3z M88.3,47.2c0.6-1.6,1.4-3.2,2.3-4.6c-1.1-0.5-3.9-1.7-3.9-3.7
	c0-2.3,2.8-4,3.4-4c0.3,0,0.3,0.2,0.3,0.7c0,1.2-0.6,3.1-0.6,4.1s0.6,1.8,1.1,1.8s2.1-2,2.1-3.9c0.1-2.3-1.7-4.3-4-4.5
	c-0.9,0-2.5,1.4-6.3,1.4c-7,0-8.6-7-8.6-10c0-0.1,0-0.2,0.1-0.2c0.9,0.6,2,0.9,3.1,0.9c1.2,0,2.2-0.3,3.9-0.3c3.9,0,5.7,2.7,8.1,6.2
	c1.5,0.9,5,2.4,5,6.5c0,3.7-3.9,5.7-4.8,9.6c1.5-0.2,2.4-2.8,3.9-2.8c0.8,0,1.2,0.6,1.2,1.6c-0.1,1.9-1,3.7-2.4,4.9v-0.5
	c0-0.9-0.4-2.2-1.4-2.2c-1.6,0-2.2,1.8-3.1,3.2c-0.9-3.3-2.2-6.4-4.5-8.2s-6.3-0.8-6.3-4.3c0-0.9,0.6-2.2,0.6-3.3
	c0-0.4-0.1-0.7-0.3-1c3.1,1.2,2,3.3,4,5.4c1.2,1.4,4.6,2.7,6.5,8.4c0-0.3,0.1-0.6,0.1-0.9c0-4.8-6.4-9.6-7-11.6
	c3.7,0.4,4.4,1.3,6.2,6.3C87.2,43.4,88.3,45.9,88.3,47.2"/>
<path class="st0" d="M70.4,12.6c-2.3,0-3.8-1.1-3.8-1.7c0-0.2,0.2-0.5,0.4-0.5h0.1c0.7,0,2.3,1.1,2.8,1.1c0.1,0,0.2-0.1,0.2-0.3
	c0-0.6-0.6-1.6-0.6-2.1c0-0.1,0.1-0.2,0.3-0.2c0.9,0,2.2,0.4,2.9,0.4c0.1,0,0.3-0.1,0.3-0.2c0,0,0,0,0-0.1c0-0.7-2.1-2.1-2.1-2.6
	s2.7-1,2.7-1.6S70,4.7,70,4c0-0.5,0.7-1.2,0.7-1.6c0-0.2-0.1-0.2-0.4-0.2s-1.9,0.6-2.5,0.6c-0.3,0-0.7-0.1-0.7-0.5
	c0-0.8,1.3-1.6,3.3-1.6c3.2,0,5.2,2.2,5.2,6C75.5,11.4,72.2,12.6,70.4,12.6z M64.1,6.4c0-0.4-1.3-1-1.3-1.4c0-0.1,0.1-0.1,0.2-0.1
	c0.4,0,1,0.1,1.5,0.1s0.5-1.8,0.8-1.8s0.6,1.7,1,1.7s1.2-0.5,1.5-0.5c0.1,0,0.1,0,0.1,0.1s-0.8,1.1-0.8,1.4s1.8,0.7,1.8,0.9
	S67,7.1,67,7.4s0.7,1.1,0.7,1.4c0,0.1,0,0.1-0.1,0.1c-0.3,0-1.3-0.5-1.6-0.5s-1,1.3-1.2,1.3s-0.2-0.1-0.2-0.3l-0.1-1.3
	c0-0.1-0.1-0.3-0.2-0.3h-1.4c-0.2,0-0.2,0-0.2-0.1S64.1,6.6,64.1,6.4z M63.1,11.7c0.5,0,0.6,1.3,0.7,2c0.1,0.4,0.1,0.4,0.3,0.4
	c0.4,0,1-1.5,1.4-1.5c0.6,0,2.3,1.7,5.1,1.7c4.1,0.1,7.6-3.1,7.7-7.2V6.6c0-4.7-3.3-7.5-7.9-7.5c-2.2,0-3.8,1.1-4.7,1.1
	C65.2,0.3,64.4-1,64-1c-0.2,0-0.3,0.3-0.3,0.9c0,0.4,0,1.5-0.4,1.5c-0.8,0-3.8-2.3-3.8-1.4s2,3,2,3.6s-2,1.2-2,1.5
	c0,0.7,2.1,0.8,2.1,1.8s-2.2,1.6-2.2,2.3s2.2,0.2,2.2,0.9s-1.6,3-1.6,3.6c0,0.2,0,0.2,0.2,0.2c0.6,0,2.5-2.1,3-2.1"/>
<path class="st0" d="M48.3,69.2c0,0.4-0.1,0.7-0.4,1c-0.4-0.6-1.1-1-1.8-1c-3.4,0-2.1,4.9-5.7,4.9c-0.7,0-1.5-0.1-2.2-0.2
	c-0.2,0-0.4,0.1-0.4,0.3c0,0.8,1.2,3,4.6,3S49,75,49,72.5c0-0.5-0.1-0.9-0.3-1.3c0.2-0.2,0.5-0.3,0.8-0.3c0.5,0,0.8,0.6,1.3,0.6
	c0.5,0,0.9-0.4,0.9-0.9l0,0v-0.1c0-0.4-0.2-0.8-0.6-0.9c0.3-0.2,0.5-0.5,0.5-0.9c0-0.5-0.4-1-0.9-1.1h-0.1c-0.3,0-0.5,0.1-0.7,0.3
	c-0.1-0.6-0.4-1.1-1-1.1c-0.4,0-0.8,0.4-0.9,0.8v0.1C48,68.3,48.3,68.7,48.3,69.2"/>
<path class="st0" d="M30.3,63.2c2.6,0.7,3.9,2.1,4.2,3.7c0.1,1.3,0.5,2.5,1.2,3.6c1,1.1,2.4,1.7,3.8,1.7c1.2,0,2.1-0.4,2.1-1.5
	s-1.6-3.8-4-3.8h-0.8c-0.4,0-0.7-0.1-1-0.3c-0.5-0.5-0.7-2.9-1.7-4.4c-0.8-1.4-2.3-2.2-3.9-2.1c-1.1,0-2.4,0.6-2.4,1.5
	C27.9,62.2,28.2,62.6,30.3,63.2z M39.5,70.5c-1,0-2.5-1-2.5-1.6c0-0.4,0.4-0.8,0.8-0.8c0.8,0,2.3,1,2.3,1.9
	C40.1,70.2,40,70.5,39.5,70.5"/>
<path class="st0" d="M36.4,45c0-2.1,5-3.2,5-5.8c0-0.6-0.2-1.2-0.4-1.8c1.7,1,3,2.6,3,3.9c0,2.3-2.4,3.3-2.4,4.7
	c0,1.6,2.5,1.9,2.5,3.9c0,1.7-2.4,3.6-2.4,5.8c0,1.7,1.3,3.1,3,3.3c-0.6,0.1-1.1,0.2-1.7,0.2c-3.3,0-6.7-2.7-6.7-6
	c0-1.5,0.6-3,1.7-4c0.7,0.7,1.5,1.1,2.4,1.3c0.4,0,0.7-0.2,0.8-0.6c0,0,0-0.1,0-0.1C41.3,48.7,36.4,47.6,36.4,45z M46.9,61.5
	c-1.1,0.5-1.6,0.4-1.6,1.6c0,0.4-0.1,1-0.1,1.3s0.1,0.6,0.5,0.6c1.2,0,3-2,3-3.7c0-0.5-0.3-0.7-0.6-0.7S47.7,61.2,46.9,61.5z
	 M46.8,59.2c0-1.5-3-1.5-3-3.7c0.1-0.9,0.5-1.8,1-2.5c0.1,1.5,1.1,2.7,2.5,3.2c2.9,1.1,3.3,2.7,3.3,4.5c0,3-2.1,6.6-7.4,6.6
	c-3.9-0.1-7.1-3.1-7.3-7c0-0.9,0.2-1.9,0.8-1.9s0.7,0.4,1,0.8c1.5,1.5,3.1,1.9,5.4,1.9C45.2,60.9,46.7,60,46.8,59.2"/>
<path class="st0" d="M23.6,59.9c0.1,0.7-0.4,1.3-1.1,1.4s-1.3-0.4-1.4-1.1c-0.1-0.7,0.4-1.3,1.1-1.4c0,0,0,0,0,0
	C22.9,58.7,23.5,59.2,23.6,59.9C23.6,59.9,23.6,59.9,23.6,59.9z M17.5,61.1c0.2,1.2,1.2,2,2.4,1.9c0.4,0,0.8-0.1,1.1-0.3
	c0.2,1.1,1.2,1.8,2.3,1.6c1.1-0.1,2-1.1,1.9-2.2V62c0-0.3-0.1-0.5-0.2-0.8h0.3c1.1-0.2,1.9-1.2,1.9-2.3c-0.1-1.1-1.1-2-2.2-1.9
	c0,0-0.1,0-0.1,0c-0.4,0-0.8,0.2-1.1,0.4c-0.3-1.2-1.5-1.9-2.6-1.6c-1.1,0.3-1.8,1.3-1.7,2.4c0,0.2,0.1,0.5,0.2,0.7h-0.3
	c-1.1,0-1.9,0.8-1.9,1.9C17.5,60.9,17.5,61,17.5,61.1"/>
</svg>
