<svg width="48" height="47" viewBox="0 0 48 47" fill="none" xmlns="http://www.w3.org/2000/svg">
<path fill-rule="evenodd" clip-rule="evenodd" d="M47.0155 23.2084C47.0155 10.4168 36.5988 0.00115814 23.8264 0.00115814V0C11.0539 0 0.619141 10.4168 0.619141 23.2084C0.619141 35.9616 11.0539 46.3963 23.8264 46.3963C36.5988 46.3963 47.0155 35.9616 47.0155 23.2084ZM44.069 23.2084C44.069 12.051 34.9645 2.94643 23.8262 2.94643H23.8274C12.6891 2.94643 3.5845 12.051 3.5845 23.2084C3.5845 34.3467 12.6891 43.4321 23.8262 43.4321C34.9645 43.4321 44.069 34.3467 44.069 23.2084ZM17.5355 31.1528L10.2745 12.3168C11.643 10.6247 13.2965 9.19961 15.1774 8.11616L20.2907 22.2007H27.4761L32.5688 8.17377C34.3176 9.19961 35.8759 10.5298 37.1687 12.0895L29.8318 31.1528L27.1718 24.2727H20.1957L17.5355 31.1528ZM31.8282 38.6229L40.0968 17.0502C40.8187 18.9695 41.1985 21.0415 41.1985 23.2084C41.1985 29.8985 37.3792 35.7153 31.8282 38.6229ZM28.1603 39.5923L28.2168 40.0289C26.8099 40.3896 25.3463 40.5796 23.8262 40.5796C22.21 40.5796 20.6515 40.3717 19.1698 39.953L19.1879 39.5923L23.6747 27.9597L28.1603 39.5923ZM7.42316 17.4301L15.4828 38.4329C10.0844 35.4866 6.43467 29.7468 6.43467 23.2084C6.43467 21.175 6.77734 19.2353 7.42316 17.4301ZM28.2744 6.38703C26.8484 6.00686 25.3474 5.81693 23.8262 5.81693C22.3254 5.81693 20.8619 6.00686 19.4741 6.36763L23.8839 18.5329L28.2744 6.38703Z" fill="#7C7D7D"/>
</svg>
