<?xml version="1.0" encoding="utf-8"?>
<!-- Generator: Adobe Illustrator 23.0.6, SVG Export Plug-In . SVG Version: 6.00 Build 0)  -->
<svg version="1.1" id="Layer_1" xmlns="http://www.w3.org/2000/svg" xmlns:xlink="http://www.w3.org/1999/xlink" x="0px" y="0px"
	 viewBox="0 0 48 47" style="enable-background:new 0 0 48 47;" xml:space="preserve">
<style type="text/css">
	.st0{fill-rule:evenodd;clip-rule:evenodd;fill:#FFFFFF;}
</style>
<path class="st0" d="M47,23.2C47,10.4,36.6,0,23.8,0v0C11.1,0,0.6,10.4,0.6,23.2c0,12.8,10.4,23.2,23.2,23.2
	C36.6,46.4,47,36,47,23.2z M44.1,23.2c0-11.2-9.1-20.3-20.2-20.3h0c-11.1,0-20.2,9.1-20.2,20.3c0,11.1,9.1,20.2,20.2,20.2
	C35,43.4,44.1,34.3,44.1,23.2z M17.5,31.2l-7.3-18.8c1.4-1.7,3-3.1,4.9-4.2l5.1,14.1h7.2l5.1-14c1.7,1,3.3,2.4,4.6,3.9l-7.3,19.1
	l-2.7-6.9h-7L17.5,31.2z M31.8,38.6l8.3-21.6c0.7,1.9,1.1,4,1.1,6.2C41.2,29.9,37.4,35.7,31.8,38.6z M28.2,39.6l0.1,0.4
	c-1.4,0.4-2.9,0.6-4.4,0.6c-1.6,0-3.2-0.2-4.7-0.6l0-0.4L23.7,28L28.2,39.6z M7.4,17.4l8.1,21c-5.4-2.9-9-8.7-9-15.2
	C6.4,21.2,6.8,19.2,7.4,17.4z M28.3,6.4c-1.4-0.4-2.9-0.6-4.4-0.6c-1.5,0-3,0.2-4.4,0.6l4.4,12.2L28.3,6.4z"/>
</svg>
