<svg id="Layer_1" data-name="Layer 1" xmlns="http://www.w3.org/2000/svg" viewBox="0 0 354.6 370.2"><path id="path5" d="M177.3,0c-8.7,1.9-85,11.8-94.4,16.6-2.2,4.4-6.8,18-8.2,20.2-6.2,1.3-31,6-32.6,6.9-.8,2.6-6.5,13.9-7.9,15.2-5.2,1.3-29.7,5.8-32.8,8C-.3,77.4-7,182.6,36.8,251.3S157.1,365.8,177.3,370.2h.1c20.2-4.4,96.6-50.2,140.4-118.9S355,77.4,353.3,66.9c-3.1-2.2-27.6-6.7-32.9-8-1.3-1.3-7-12.5-7.9-15.2-1.5-.9-26.3-5.6-32.5-6.9-1.4-2.2-6-15.8-8.2-20.2C262.4,11.9,186,1.9,177.3,0Zm0,26.8c7.5,1.6,72.7,10.4,80.8,14.4,1.8,3.7,5.7,15.4,6.9,17.2,5.3,1.1,26.6,5.1,28,5.9s5.5,12,6.6,13c4.5,1.2,25.5,5,28.1,6.8,1.5,9,7.1,98.8-30.3,157.6s-102.8,97.9-120,101.6h-.2c-17.2-3.7-82.5-42.9-120-101.6S25.5,93.1,27,84.1c2.6-1.8,23.6-5.6,28.1-6.8,1.1-1.1,5.9-10.8,6.6-13s22.6-4.8,27.8-5.9c1.3-1.8,5.3-13.5,7.1-17.2,8.1-4.1,73.3-12.8,80.7-14.4Z" transform="translate(0)" style="fill:#007ac2"/><path id="path9" d="M189.3,55.6a2.7,2.7,0,0,0-2.9,2.7c-.5,84-.2,173.2-.9,259.6.5,2.7,4.9-1.5,7.4-2.8,31.9-17.6,131.4-113.9,74.2-148.4,43.8-28.6,36-56,16.6-70.9-40.2-30.8-86-38.5-91.3-39.9A8.2,8.2,0,0,0,189.3,55.6Zm26.6,34.5c.6-.3,26.4,9.2,40.4,18.8,16.2,11,10.7,21.6,1.3,28-5.1,3.4-36.7,26.1-42,27.4-.1-4.4-.1-53.7.3-74.2Zm23.5,96.2a12.8,12.8,0,0,1,9.4,3.8c2.1,2,11.8,12.4-8.7,42.1-7.6,13.5-23.6,30.4-25.4,32-.3.1-.3-.3-.5-.2.2-9.6-.1-56.3.5-69.4,1.1-.6,14.2-8.7,24.7-8.4Z" transform="translate(0)" style="fill:#007ac2"/><path id="path15" d="M80.5,85.8c-2.6,1.2-25,15.4-27.2,17.6-.6,19.9,4.7,73.3,24.3,115a105.2,105.2,0,0,0,8.1,14.7c5.6,9.7,5.9,8.9,12.4-.3,4.5-6.1,11-15.1,12.6-17,2.2,7.5,16.7,54.1,37.1,82.3,9,12.5,22.9,24.4,22.9,19.5-.6-47.7-1.9-253.9-.4-262.3-6-.1-25.8,2.4-29.7,4.4-.3,7.6,2.7,149,.9,165.1-13.9-33.7-18.6-122.6-15.9-159.2-7.4,1.5-25.7,8.8-28.3,11.4-3.4,6.7,1.2,80.6,6,105.4-1.6,2.6-6.3,9.6-7.1,10.7C86.8,176.1,77.7,123.4,80.5,85.8Z" transform="translate(0)" style="fill:#007ac2"/></svg>