<?xml version="1.0" encoding="utf-8"?>
<!-- Generator: Adobe Illustrator 23.0.6, SVG Export Plug-In . SVG Version: 6.00 Build 0)  -->
<svg version="1.1" id="svg2" xmlns="http://www.w3.org/2000/svg" xmlns:xlink="http://www.w3.org/1999/xlink" x="0px" y="0px"
	 viewBox="0 0 476.9 43.5" style="enable-background:new 0 0 476.9 43.5;" xml:space="preserve">
<style type="text/css">
	.st0{fill:#7C7D7D;}
</style>
<title>westjet</title>
<path id="path12" class="st0" d="M283.8,5.7L274,27.9c-1.9,4.6-8.9,9.3-15.4,9.3c-3.2,0-6.4-0.2-9.5-0.7l-2.6,6.2
	c3.6,0.3,8.3,0.8,13.1,0.8c22,0,32.6-7.3,35.1-13.3l10.8-24.5H283.8z"/>
<polygon id="polygon14" class="st0" points="362.6,16.7 329,16.7 331.4,11.2 367.1,11.2 367.1,11.2 382.5,11.2 373.1,33.6 
	394.8,33.6 404.2,11.2 424.3,11.2 426.6,5.7 369.3,5.7 364.8,5.7 311.9,5.7 300.2,33.6 358.8,33.6 361,28.3 324.1,28.3 326.7,22 
	360.4,22 "/>
<polygon id="polygon16" class="st0" points="88.6,0 67.1,24 67.2,5.4 39,5.4 22.6,23.1 22.7,5.4 0,5.4 6.5,34 29.4,34 49.6,12.1 
	49.8,12.1 52.4,34 75.1,34 102,7.9 91.1,34 151.1,34 153.3,28.4 115.5,28.4 118.2,22.1 152.7,22.1 155,16.7 120.5,16.7 123,11.1 
	159.5,11.1 161.8,5.4 104.6,5.4 110.2,0 "/>
<path id="path18" class="st0" d="M215.8,5.4c-4.4-0.3-9.6-0.5-14.9-0.5c-16.7,0-37.1,1.9-40,8.8c-4.4,10.4,36.4,7,34.2,12.4
	c-1,2.3-7.9,2.8-14.9,2.8c-7.4,0.1-14.8-0.5-22.1-1.9l-4.6,6.3c8.1,0.8,16.2,1.2,24.3,1.2c18.5,0,37.5-2,40.6-9.4
	c4.3-10.3-36.3-7.2-34.4-11.8c1.1-2.5,10.4-2.7,16-2.7c6-0.1,12,0.4,17.9,1.3l0.6-0.8h13.9L222.8,34H245l9.6-23h20.5l2.4-5.7
	L215.8,5.4z"/>
<polygon id="polygon22" class="st0" points="476.7,5.5 434,5.5 428.9,17.9 "/>
<polygon id="polygon24" class="st0" points="446.6,33.7 465.2,33.7 476.9,5.8 "/>
<polygon id="polygon26" class="st0" points="428.8,18.1 422.2,33.7 446.2,33.7 463,13.1 "/>
</svg>
