<svg id="Layer_1" data-name="Layer 1" xmlns="http://www.w3.org/2000/svg" viewBox="0 0 779.2 216"><path d="M447.2,340.8v11.1c-6.4-8.3-18.3-14-32.1-14-32.5,0-56.8,28.8-56.8,62.5s24,62.5,56.8,62.5c13.8,0,25.7-5.5,32.1-14.3v11.2h40.6v-119ZM501.9,288V459.8h42V396.4c0-12.4,6-19.8,15.5-19.8s14.5,6.4,14.5,18.3v64.9h42V385c0-29-15.7-47.1-40.9-47.1-13.5,0-24,5.2-31.3,14.5V288ZM886.6,400.4c0,35.6-27.4,62.5-63.7,62.5s-63.7-26.9-63.7-62.5,27.3-62.5,63.7-62.5,63.7,26.9,63.7,62.5Zm-134.5,0c0,35.6-27.3,62.5-63.7,62.5s-63.7-26.9-63.7-62.5,27.3-62.5,63.7-62.5,63.7,26.9,63.7,62.5ZM222.4,340.8l50.9,120L255,504h44.6l67.8-163.2H322.9l-27.5,69.8L268,340.8Zm201.3,84.1a24.5,24.5,0,1,1,24.5-24.5,24.2,24.2,0,0,1-24.5,24.5Zm288.5-24.5c0-13.3-10-24-23.8-24s-23.8,10.7-23.8,24,10,24,23.8,24,23.8-10.7,23.8-24Zm134.5,0c0-13.3-10-24-23.8-24s-23.8,10.7-23.8,24,10,24,23.8,24,23.8-10.7,23.8-24Zm45.1,34.2a27,27,0,0,0,27.3,27.3,28,28,0,0,0,28.3-28.2c0-15.2-11.6-27.4-27.3-27.4a28.2,28.2,0,0,0-28.3,28.3ZM951.7,288,907,395.9h49.9L1001.6,288Z" transform="translate(-222.4 -288)" style="fill:#7c7d7d"/></svg>