<?xml version="1.0" encoding="utf-8"?>
<!-- Generator: Adobe Illustrator 25.4.1, SVG Export Plug-In . SVG Version: 6.00 Build 0)  -->
<svg version="1.1" id="Layer_1" xmlns="http://www.w3.org/2000/svg" xmlns:xlink="http://www.w3.org/1999/xlink" x="0px" y="0px"
	 viewBox="0 0 61 57" style="enable-background:new 0 0 61 57;" xml:space="preserve">
<style type="text/css">
	.st0{fill:#D9D9D9;filter:url(#Adobe_OpacityMaskFilter);}
	.st1{mask:url(#mask0_969_585_00000012438823129051683340000015996326971958775227_);}
	.st2{fill:#6001D2;}
</style>
<defs>
	<filter id="Adobe_OpacityMaskFilter" filterUnits="userSpaceOnUse" x="0" y="20" width="61" height="16.9">
		<feColorMatrix  type="matrix" values="1 0 0 0 0  0 1 0 0 0  0 0 1 0 0  0 0 0 1 0"/>
	</filter>
</defs>
<mask maskUnits="userSpaceOnUse" x="0" y="20" width="61" height="16.9" id="mask0_969_585_00000012438823129051683340000015996326971958775227_">
	<rect class="st0" width="61" height="57"/>
</mask>
<g class="st1">
	<path class="st2" d="M17.6,24.1V25c-0.5-0.6-1.4-1.1-2.5-1.1c-2.5,0-4.4,2.3-4.4,4.9s1.9,4.9,4.4,4.9c1.1,0,2-0.4,2.5-1.1v0.9h3.2
		v-9.3H17.6z M21.9,20v13.4h3.3v-5c0-1,0.5-1.5,1.2-1.5s1.1,0.5,1.1,1.4v5.1h3.3v-5.9c0-2.3-1.2-3.7-3.2-3.7c-1.1,0-1.9,0.4-2.5,1.1
		v-5H21.9z M52,28.8c0,2.8-2.1,4.9-5,4.9s-5-2.1-5-4.9c0-2.8,2.1-4.9,5-4.9C49.9,23.9,52,26,52,28.8z M41.5,28.8
		c0,2.8-2.1,4.9-5,4.9c-2.8,0-5-2.1-5-4.9c0-2.8,2.1-4.9,5-4.9C39.3,23.9,41.5,26,41.5,28.8z M0,24.1l4,9.4l-1.4,3.4H6l5.3-12.8H7.9
		l-2.2,5.5l-2.1-5.5H0z M15.8,30.7c-0.4,0-0.8-0.1-1.1-0.3c-0.3-0.2-0.6-0.5-0.7-0.9c-0.1-0.4-0.2-0.7-0.1-1.1
		c0.1-0.4,0.3-0.7,0.5-1c0.3-0.3,0.6-0.5,1-0.5c0.4-0.1,0.8,0,1.1,0.1c0.4,0.1,0.7,0.4,0.9,0.7c0.2,0.3,0.3,0.7,0.3,1.1
		c0,0.3,0,0.5-0.1,0.7c-0.1,0.2-0.2,0.4-0.4,0.6c-0.2,0.2-0.4,0.3-0.6,0.4C16.3,30.7,16,30.7,15.8,30.7z M38.3,28.8
		c0-1-0.8-1.9-1.9-1.9s-1.9,0.8-1.9,1.9c0,1,0.8,1.9,1.9,1.9S38.3,29.8,38.3,28.8z M48.9,28.8c0-1-0.8-1.9-1.9-1.9s-1.9,0.8-1.9,1.9
		c0,1,0.8,1.9,1.9,1.9S48.9,29.8,48.9,28.8z M52.4,31.5c0,0.3,0,0.6,0.2,0.8c0.1,0.3,0.3,0.5,0.5,0.7s0.4,0.4,0.7,0.5
		c0.3,0.1,0.5,0.2,0.8,0.2c0.3,0,0.6-0.1,0.8-0.2c0.3-0.1,0.5-0.3,0.7-0.5c0.2-0.2,0.4-0.5,0.5-0.7c0.1-0.3,0.2-0.6,0.2-0.8
		c0-1.2-0.9-2.1-2.1-2.1c-0.3,0-0.6,0.1-0.8,0.2c-0.3,0.1-0.5,0.3-0.7,0.5c-0.2,0.2-0.4,0.5-0.5,0.7S52.4,31.2,52.4,31.5z M57.1,20
		l-3.5,8.4h3.9L61,20H57.1z"/>
</g>
</svg>
