<svg width="61" height="57" viewBox="0 0 61 57" fill="none" xmlns="http://www.w3.org/2000/svg">
<mask id="mask0_969_585" style="mask-type:alpha" maskUnits="userSpaceOnUse" x="0" y="0" width="61" height="57">
<rect width="61" height="57" fill="#D9D9D9"/>
</mask>
<g mask="url(#mask0_969_585)">
<path d="M17.5986 24.1335V25.0024C17.0975 24.3527 16.1659 23.9064 15.0856 23.9064C12.5413 23.9064 10.639 26.1611 10.639 28.7993C10.639 31.4375 12.5178 33.6921 15.0856 33.6921C16.1659 33.6921 17.0975 33.2616 17.5986 32.5726V33.4494H20.777V24.1335H17.5986ZM21.8808 20V33.4494H25.1688V28.4861C25.1688 27.5154 25.6385 26.9361 26.3822 26.9361C27.1259 26.9361 27.5173 27.4371 27.5173 28.3687V33.4494H30.8053V27.5937C30.8053 25.3234 29.5762 23.9064 27.6034 23.9064C26.5466 23.9064 25.7246 24.3135 25.1531 25.0416V20H21.8808ZM51.9972 28.7993C51.9972 31.5862 49.8522 33.6921 47.0104 33.6921C44.1686 33.6921 42.0236 31.5862 42.0236 28.7993C42.0236 26.0123 44.1608 23.9064 47.0104 23.9064C49.86 23.9064 51.9972 26.0123 51.9972 28.7993ZM41.4678 28.7993C41.4678 31.5862 39.3306 33.6921 36.481 33.6921C33.6314 33.6921 31.4942 31.5862 31.4942 28.7993C31.4942 26.0123 33.6314 23.9064 36.481 23.9064C39.3306 23.9064 41.4678 26.0123 41.4678 28.7993ZM0 24.1335L3.98473 33.5277L2.55211 36.9097H6.04364L11.3514 24.1335H7.86769L5.71484 29.5978L3.56982 24.1335H0ZM15.7589 30.7173C15.3795 30.7173 15.0087 30.6048 14.6933 30.394C14.3779 30.1833 14.132 29.8837 13.9869 29.5333C13.8417 29.1828 13.8037 28.7972 13.8777 28.4251C13.9517 28.053 14.1344 27.7113 14.4026 27.4431C14.6709 27.1748 15.0126 26.9921 15.3847 26.9181C15.7567 26.8441 16.1424 26.8821 16.4928 27.0273C16.8433 27.1725 17.1429 27.4183 17.3536 27.7337C17.5644 28.0491 17.6769 28.4199 17.6769 28.7993C17.68 29.052 17.6325 29.3029 17.5373 29.537C17.442 29.7711 17.3008 29.9838 17.1221 30.1625C16.9434 30.3413 16.7307 30.4824 16.4966 30.5777C16.2624 30.673 16.0116 30.7204 15.7589 30.7173ZM38.3442 28.7993C38.3442 27.7581 37.5613 26.9204 36.481 26.9204C35.4007 26.9204 34.6178 27.7581 34.6178 28.7993C34.6178 29.8405 35.4007 30.6781 36.481 30.6781C37.5613 30.6781 38.3442 29.8405 38.3442 28.7993ZM48.8736 28.7993C48.8736 27.7581 48.0907 26.9204 47.0104 26.9204C45.9301 26.9204 45.1472 27.7581 45.1472 28.7993C45.1472 29.8405 45.9301 30.6781 47.0104 30.6781C48.0907 30.6781 48.8736 29.8405 48.8736 28.7993ZM52.4043 31.4766C52.4011 31.7582 52.4543 32.0375 52.5605 32.2982C52.6668 32.5589 52.8241 32.7958 53.0232 32.9949C53.2223 33.194 53.4592 33.3513 53.7199 33.4576C53.9806 33.5639 54.2599 33.617 54.5415 33.6138C54.8326 33.617 55.1215 33.5621 55.3912 33.4523C55.6608 33.3426 55.906 33.1802 56.1122 32.9747C56.3185 32.7692 56.4817 32.5246 56.5924 32.2553C56.7031 31.986 56.759 31.6973 56.7569 31.4062C56.7569 30.2162 55.8488 29.2612 54.6197 29.2612C54.3285 29.2601 54.04 29.3167 53.7707 29.4277C53.5014 29.5387 53.2568 29.7018 53.0509 29.9078C52.8449 30.1137 52.6818 30.3583 52.5708 30.6276C52.4598 30.8969 52.4032 31.1854 52.4043 31.4766ZM57.0936 20L53.5942 28.447H57.5006L61 20H57.0936Z" fill="#001464"/>
</g>
</svg>
