<svg id="logosandtypes_com" data-name="logosandtypes com" xmlns="http://www.w3.org/2000/svg" viewBox="0 0 103.6 111.1"><path d="M66.2,60.2,33.1,3a5.6,5.6,0,0,0-4.9-3H1.5A1.5,1.5,0,0,0,0,1.5a1.1,1.1,0,0,0,.3.8l34,58.1a9.7,9.7,0,0,1,1.4,5v43.2a2.5,2.5,0,0,0,2.5,2.5H65.3a2.5,2.5,0,0,0,2.5-2.5h0V65.2A9,9,0,0,0,66.2,60.2Z" transform="translate(0)" style="fill:#fff"/><path d="M103.6,2a2,2,0,0,0-2-2H42.4a2,2,0,0,0-2,2,1.7,1.7,0,0,0,.3,1L70.2,54.2a2,2,0,0,0,2.5.9h.2l.8-.8L103.3,3A1.7,1.7,0,0,0,103.6,2ZM83,13.3,72.5,31.5a.5.5,0,0,1-.8.2c-.1,0-.1-.1-.2-.2L61,13.3a.4.4,0,0,1-.1-.3.6.6,0,0,1,.6-.6h21a.6.6,0,0,1,.6.6A.4.4,0,0,1,83,13.3Z" transform="translate(0)" style="fill:#fff"/></svg>