<svg id="Layer_1" data-name="Layer 1" xmlns="http://www.w3.org/2000/svg" width="110.42" height="68.16" viewBox="0 0 110.42 68.16"><path d="M67.37,7.42a4.54,4.54,0,0,0-.11-1,0,0,0,0,0,0,0h0v0a4.74,4.74,0,0,0-.28-.9l-.09-.17a.06.06,0,0,1,0,0,1.27,1.27,0,0,1-.07-.12c-.09-.17-.18-.32-.25-.44l0-.05v0l0,0h0l-.18-.23h0l0,0,0-.06,0,0h0l-.25-.29a1.2,1.2,0,0,0-.16-.17l-30.95-29a1.05,1.05,0,0,0-.11-.07,5.14,5.14,0,0,0-1.56-1h-.07a5,5,0,0,0-1.72-.33l-.07,0-.1,0a5.26,5.26,0,0,0-1.41.33c-.15,0-.31,0-.45.11a4.94,4.94,0,0,0-1.54,1.08s-.08,0-.12.08a5.45,5.45,0,0,0-.56.9,5,5,0,0,0-.81,2.73h0a4.9,4.9,0,0,0,.25,1.07,4.78,4.78,0,0,0,.2.85A5.06,5.06,0,0,0,27.9-17.9L49.52,2.36H-38A5.07,5.07,0,0,0-43,7.42,5.07,5.07,0,0,0-38,12.48H49.52L27.9,32.74a5.17,5.17,0,0,0-1.15,1.61,4.89,4.89,0,0,0-.2.86,4.81,4.81,0,0,0-.25,1.06h0A5,5,0,0,0,27.11,39a6.43,6.43,0,0,0,.56.9s.09,0,.12.08a5.11,5.11,0,0,0,1.54,1.08c.14.06.3,0,.45.1a5.26,5.26,0,0,0,1.41.33l.1,0,.07,0a5.24,5.24,0,0,0,1.72-.32l.07,0a4.77,4.77,0,0,0,1.56-1l.11-.06,30.95-29,.16-.18c.09-.09.17-.19.25-.28h0l0,0,0-.05,0,0h0a2.48,2.48,0,0,0,.18-.24h0s0,0,0,0h0l0-.06c.07-.12.16-.26.25-.44a1.27,1.27,0,0,0,.07-.12,0,0,0,0,1,0,0L67,9.43a4.84,4.84,0,0,0,.28-.91v0h0a0,0,0,0,0,0,0A4.42,4.42,0,0,0,67.37,7.42Z" transform="translate(43.05 26.66)" style="fill:#1056fb"/></svg>